<?xml version="1.0" encoding="UTF-8"?>
<!DOCTYPE svg PUBLIC "-//W3C//DTD SVG 1.1//EN" "http://www.w3.org/Graphics/SVG/1.1/DTD/svg11.dtd">
<!-- Creator: CorelDRAW Home & Student X8 -->
<svg xmlns="http://www.w3.org/2000/svg" xml:space="preserve" width="85.6321mm" height="53.8105mm" version="1.1" style="shape-rendering:geometricPrecision; text-rendering:geometricPrecision; image-rendering:optimizeQuality; fill-rule:evenodd; clip-rule:evenodd"
viewBox="0 0 4169 2620"
 xmlns:xlink="http://www.w3.org/1999/xlink">
 <defs>
  <style type="text/css">
   <![CDATA[
    .str0 {stroke:#2B2A29;stroke-width:14.6065}
    .fil1 {fill:none}
    .fil0 {fill:#2B2A29;fill-rule:nonzero}
   ]]>
  </style>
 </defs>
 <g id="Warstwa_x0020_1">
  <metadata id="CorelCorpID_0Corel-Layer"/>
  <g id="_498814072">
   <g>
    <path class="fil0" d="M1920 978l0 2 0 1 -1 2 0 2 0 1 -1 2 0 2 -1 1 -1 2 0 1 -1 2 -1 1 -1 2 -1 1 -1 1 -1 1 -2 1 -1 2 -1 1 -2 1 -1 0 -1 1 -2 1 -1 1 -2 0 -2 1 -1 0 -2 1 -2 0 -1 0 -2 0 -2 0 0 0 -2 0 -1 0 -2 0 -2 0 -2 -1 -1 0 -2 -1 -1 0 -2 -1 -1 -1 -2 -1 -1 0 -2 -1 -1 -1 -1 -2 -1 -1 -2 -1 -1 -1 -1 -1 -1 -2 -1 -1 0 -2 -1 -1 -1 -2 0 -1 -1 -2 0 -2 -1 -1 0 -2 0 -2 -1 -1 0 -2 0 0 0 -2 1 -2 0 -1 0 -2 1 -2 0 -1 1 -2 0 -2 1 -1 1 -2 0 -1 1 -1 1 -2 1 -1 1 -1 2 -2 1 -1 1 -1 1 -1 2 -1 1 -1 2 -1 1 0 2 -1 1 -1 2 0 1 -1 2 0 2 0 2 -1 1 0 2 0 0 0 2 0 2 0 1 1 2 0 2 0 1 1 2 0 2 1 1 1 2 0 1 1 1 1 2 1 1 1 1 1 2 1 1 2 1 1 1 1 1 2 1 1 1 1 0 2 1 1 1 2 0 2 1 1 0 2 0 2 1 1 0 2 0 2 0 0zm-42 264l0 -264 14 0 0 264 -14 0zm-66 0l0 -8 147 0 0 17 -147 0 0 -9z"/>
   </g>
   <g>
    <path class="fil0" d="M1538 463l-2 0 -2 0 -2 0 -1 0 -2 -1 -2 0 -1 -1 -2 0 -1 -1 -2 -1 -1 -1 -2 -1 -1 -1 -1 -1 -2 -1 -1 -1 -1 -1 -1 -1 -1 -2 -1 -1 -1 -1 -1 -2 -1 -1 0 -2 -1 -1 -1 -2 0 -2 0 -1 -1 -2 0 -2 0 -2 0 -1 0 0 0 -2 0 -2 0 -2 1 -1 0 -2 0 -2 1 -1 1 -2 0 -1 1 -2 1 -1 1 -2 1 -1 1 -1 1 -2 1 -1 1 -1 2 -1 1 -1 1 -1 2 -1 1 -1 2 -1 1 0 2 -1 1 0 2 -1 2 0 1 -1 2 0 2 0 2 0 0 0 1 0 2 0 2 0 1 1 2 0 2 1 1 0 2 1 2 0 1 1 1 1 2 1 1 1 2 1 1 1 1 1 1 1 1 2 1 1 1 1 1 2 1 1 1 2 0 1 1 2 1 1 0 2 0 2 1 1 0 2 0 2 0 2 0 0 0 1 0 2 0 2 -1 2 0 1 0 2 -1 2 -1 1 0 2 -1 1 -1 2 -1 1 -1 1 -1 2 -1 1 -1 1 -1 1 -1 1 -2 1 -1 1 -2 1 -1 1 -1 1 -2 1 -2 0 -1 1 -2 0 -2 1 -1 0 -2 0 -2 0 -1 0 0 0zm-1352 -42l1352 0 0 15 -1352 0 0 -15zm-47 64l0 -17 0 0 2 0 2 0 2 0 2 -1 2 0 2 -1 2 0 2 -1 1 -1 2 -1 2 -1 1 -1 2 -1 1 -1 2 -1 1 -1 1 -2 2 -1 1 -2 1 -1 1 -2 1 -2 1 -1 1 -2 0 -2 1 -2 0 -1 1 -2 0 -2 1 -2 0 -2 0 -2 17 0 0 3 0 2 -1 3 0 3 -1 3 -1 3 0 2 -1 3 -2 2 -1 3 -1 2 -2 2 -1 3 -2 2 -2 2 -2 2 -2 2 -2 1 -2 2 -2 2 -2 1 -3 2 -2 1 -3 1 -2 1 -3 1 -3 1 -2 0 -3 1 -3 0 -3 0 -3 0 0 0zm-57 -56l18 0 0 0 0 2 0 2 0 2 1 2 0 2 0 1 1 2 1 2 1 2 0 1 1 2 1 2 2 1 1 2 1 1 1 2 2 1 1 1 2 1 1 1 2 1 1 1 2 1 2 1 2 1 2 0 1 1 2 0 2 1 2 0 2 0 2 0 0 17 -3 0 -3 0 -2 0 -3 -1 -3 0 -3 -1 -2 -1 -3 -1 -2 -1 -3 -1 -2 -2 -3 -1 -2 -2 -2 -2 -2 -1 -2 -2 -2 -2 -2 -2 -1 -2 -2 -3 -1 -2 -2 -2 -1 -3 -1 -2 -1 -3 -1 -2 -1 -3 0 -3 -1 -3 0 -3 -1 -2 0 -3 0 0zm57 -57l0 17 0 0 -2 0 -2 0 -2 1 -2 0 -2 0 -1 1 -2 1 -2 0 -2 1 -2 1 -1 1 -2 1 -1 1 -2 1 -1 1 -2 2 -1 1 -1 2 -1 1 -2 2 -1 1 -1 2 0 2 -1 1 -1 2 -1 2 0 2 0 2 -1 2 0 2 0 2 0 2 -18 0 0 -3 1 -3 0 -3 1 -3 0 -3 1 -2 1 -3 1 -2 1 -3 1 -2 2 -3 1 -2 2 -2 1 -2 2 -3 2 -1 2 -2 2 -2 2 -2 2 -1 3 -2 2 -1 3 -2 2 -1 3 -1 2 -1 3 0 3 -1 3 0 2 -1 3 0 3 0 0 0zm57 57l-17 0 0 -2 0 -2 -1 -2 0 -2 -1 -2 0 -2 -1 -2 0 -2 -1 -1 -1 -2 -1 -2 -1 -1 -1 -2 -1 -1 -2 -2 -1 -1 -1 -2 -2 -1 -1 -1 -2 -1 -1 -1 -2 -1 -2 -1 -1 -1 -2 0 -2 -1 -2 -1 -2 0 -2 0 -2 -1 -2 0 -2 0 0 -17 3 0 3 0 3 1 3 0 2 1 3 0 3 1 2 1 3 1 2 2 3 1 2 2 2 1 2 2 2 2 2 2 2 1 2 3 2 2 1 2 2 2 1 3 1 2 2 3 1 2 0 3 1 2 1 3 0 3 1 3 0 3 0 3z"/>
   </g>
   <g>
    <path class="fil0" d="M186 1888l797 0 0 15 -797 0 0 -15zm-47 64l0 -17 0 0 2 0 2 0 2 -1 2 0 2 0 2 -1 2 0 2 -1 1 -1 2 -1 2 -1 1 -1 2 -1 1 -1 2 -1 1 -2 1 -1 2 -1 1 -2 1 -2 1 -1 1 -2 1 -2 1 -1 0 -2 1 -2 0 -2 1 -2 0 -2 1 -2 0 -2 0 -2 17 0 0 3 0 3 -1 3 0 3 -1 3 -1 2 0 3 -1 3 -2 2 -1 2 -1 3 -2 2 -1 2 -2 3 -2 2 -2 2 -2 1 -2 2 -2 2 -2 2 -2 1 -3 1 -2 2 -3 1 -2 1 -3 1 -3 0 -2 1 -3 1 -3 0 -3 0 -3 0 0 0zm-57 -57l18 0 0 0 0 2 0 2 0 2 1 2 0 2 0 2 1 2 1 2 1 1 0 2 1 2 1 1 2 2 1 2 1 1 1 1 2 2 1 1 2 1 1 1 2 1 1 1 2 1 2 1 2 1 2 0 1 1 2 0 2 0 2 1 2 0 2 0 0 17 -3 0 -3 0 -2 0 -3 -1 -3 -1 -3 0 -2 -1 -3 -1 -2 -1 -3 -2 -2 -1 -3 -1 -2 -2 -2 -2 -2 -2 -2 -1 -2 -2 -2 -2 -1 -3 -2 -2 -1 -2 -2 -3 -1 -2 -1 -2 -1 -3 -1 -3 -1 -2 0 -3 -1 -3 0 -3 -1 -3 0 -3 0 0zm57 -56l0 17 0 0 -2 0 -2 0 -2 0 -2 1 -2 0 -1 1 -2 0 -2 1 -2 1 -2 1 -1 1 -2 1 -1 1 -2 1 -1 1 -2 2 -1 1 -1 1 -1 2 -2 1 -1 2 -1 2 0 1 -1 2 -1 2 -1 2 0 2 0 1 -1 2 0 2 0 2 0 2 -18 0 0 -2 1 -3 0 -3 1 -3 0 -3 1 -2 1 -3 1 -3 1 -2 1 -3 2 -2 1 -2 2 -3 1 -2 2 -2 2 -2 2 -2 2 -1 2 -2 2 -2 3 -1 2 -2 3 -1 2 -1 3 -1 2 -1 3 -1 3 0 3 -1 2 0 3 0 3 0 0 0zm57 56l-17 0 0 -2 0 -2 -1 -2 0 -2 -1 -1 0 -2 -1 -2 0 -2 -1 -2 -1 -1 -1 -2 -1 -2 -1 -1 -1 -2 -2 -1 -1 -1 -1 -2 -2 -1 -1 -1 -2 -1 -1 -1 -2 -1 -2 -1 -1 -1 -2 -1 -2 0 -2 -1 -2 0 -2 -1 -2 0 -2 0 -2 0 0 -17 3 0 3 0 3 0 3 1 2 0 3 1 3 1 2 1 3 1 2 1 3 2 2 1 2 2 2 2 2 1 2 2 2 2 2 2 2 2 1 3 2 2 1 2 1 3 2 2 1 3 0 3 1 2 1 3 0 3 1 3 0 3 0 2z"/>
   </g>
   <g>
    <path class="fil0" d="M2830 2426l0 -248 15 0 0 248 -15 0zm-66 0l0 -9 147 0 0 18 -147 0 0 -9z"/>
   </g>
   <path class="fil0" d="M162 0l80 0 0 6 -5 0c-3,0 -7,2 -12,4 -6,3 -11,6 -16,11 -4,5 -10,13 -17,24l-54 85 0 58c0,14 1,23 4,27 5,4 12,7 21,7l7 0 0 6 -97 0 0 -6 8 0c10,0 17,-3 21,-9 2,-4 3,-12 3,-25l0 -53 -62 -96c-7,-11 -12,-18 -15,-21 -3,-3 -8,-6 -16,-10 -3,-1 -6,-2 -10,-2l0 -6 97 0 0 6 -5 0c-5,0 -10,1 -14,4 -5,2 -7,6 -7,11 0,4 3,11 10,22l47 73 45 -70c7,-11 10,-18 10,-23 0,-4 -1,-6 -2,-9 -2,-2 -4,-4 -7,-6 -3,-1 -8,-2 -14,-2l0 -6z"/>
   <path id="1" class="fil0" d="M274 156l39 -19 4 0 0 135c0,9 0,14 1,17 1,2 2,3 5,5 2,1 7,1 14,2l0 4 -60 0 0 -4c8,-1 12,-1 15,-2 2,-2 3,-3 4,-5 1,-2 2,-8 2,-17l0 -86c0,-12 -1,-19 -2,-23 0,-2 -1,-4 -3,-5 -1,-1 -3,-2 -5,-2 -3,0 -7,1 -12,4l-2 -4z"/>
   <path class="fil0" d="M138 1541l49 73c13,20 23,32 30,38 6,5 14,8 25,9l0 6 -98 0 0 -6c6,-1 11,-1 14,-2 3,-1 5,-3 6,-5 2,-2 2,-4 2,-6 0,-3 0,-5 -1,-8 -1,-2 -4,-7 -9,-15l-39 -58 -48 61c-5,6 -8,11 -9,13 -1,2 -1,4 -1,7 0,3 1,6 4,9 3,2 9,3 18,4l0 6 -81 0 0 -6c6,-1 11,-2 15,-4 7,-3 13,-7 20,-12 6,-5 13,-12 21,-22l53 -68 -44 -66c-12,-18 -23,-29 -31,-35 -9,-6 -18,-8 -29,-9l0 -6 105 0 0 6c-9,1 -15,2 -18,5 -4,2 -5,5 -5,8 0,4 2,10 8,18l35 53 40 -52c4,-6 7,-10 8,-12 1,-2 2,-5 2,-7 0,-2 -1,-4 -2,-6 -2,-3 -4,-4 -6,-5 -3,-1 -8,-2 -16,-2l0 -6 80 0 0 6c-6,1 -11,2 -15,3 -6,3 -12,6 -17,11 -5,4 -12,12 -21,24l-45 58z"/>
   <g>
    <path class="fil0" d="M557 1896l-152 -1 0 -14 152 0 0 15zm61 -7l-121 51 2 -3 1 -3 1 -3 2 -4 1 -3 1 -3 1 -3 1 -4 1 -3 0 -3 1 -3 0 -4 1 -3 0 -3 0 -3 0 -4 0 -3 0 -3 0 -3 -1 -4 0 -3 -1 -3 0 -3 -1 -4 -1 -3 -1 -3 -1 -3 -1 -4 -1 -3 -2 -3 -1 -3 -2 -4 0 0 121 53z"/>
   </g>
   <g>
    <path class="fil0" d="M1102 1075l-2 0 -1 -1 -2 0 -2 0 -2 0 -1 -1 -2 0 -1 -1 -2 -1 -1 -1 -2 0 -1 -1 -2 -1 -1 -1 -1 -1 -1 -2 -2 -1 -1 -1 -1 -1 -1 -2 -1 -1 0 -2 -1 -1 -1 -2 0 -1 -1 -2 0 -1 -1 -2 0 -2 0 -1 -1 -2 0 -2 0 0 0 -2 1 -2 0 -1 0 -2 1 -2 0 -1 1 -2 0 -1 1 -2 1 -1 0 -2 1 -1 1 -2 1 -1 1 -1 2 -1 1 -2 1 -1 1 -1 2 -1 1 -1 2 0 1 -1 2 -1 1 -1 2 0 1 -1 2 0 2 0 2 0 1 -1 2 0 0 0 2 0 2 1 1 0 2 0 2 0 1 1 2 0 2 1 1 1 2 1 1 0 1 1 2 1 1 1 1 1 2 2 1 1 1 1 1 1 1 2 1 1 0 2 1 1 1 2 1 1 0 2 1 1 0 2 0 2 1 1 0 2 0 2 0 0 0 2 0 2 -1 1 0 2 0 2 -1 1 0 2 -1 1 -1 2 -1 1 0 2 -1 1 -1 2 -1 1 -1 1 -1 1 -2 2 -1 1 -1 1 -2 1 -1 1 -1 0 -2 1 -1 1 -2 1 -2 0 -1 1 -2 0 -2 0 -1 0 -2 1 -2 0 0 0zm-903 -42l903 0 0 14 -903 0 0 -14zm-47 64l0 -17 0 0 2 -1 2 0 2 0 2 0 2 -1 1 0 2 -1 2 -1 2 0 2 -1 1 -1 2 -1 1 -1 2 -2 1 -1 2 -1 1 -1 1 -2 1 -1 2 -2 1 -2 0 -1 1 -2 1 -2 1 -1 0 -2 1 -2 0 -2 1 -2 0 -2 0 -2 0 -2 18 0 0 3 -1 3 0 3 -1 2 0 3 -1 3 -1 3 -1 2 -1 3 -1 2 -2 2 -1 3 -2 2 -1 2 -2 2 -2 2 -2 2 -2 2 -2 2 -3 1 -2 2 -2 1 -3 1 -2 1 -3 1 -2 1 -3 1 -3 1 -3 0 -2 1 -3 0 -3 0 0 0zm-57 -57l17 0 0 0 0 2 0 2 1 2 0 2 1 2 0 2 1 2 0 1 1 2 1 2 1 1 1 2 1 2 1 1 2 2 1 1 1 1 2 1 1 2 2 1 1 1 2 1 2 1 1 0 2 1 2 1 2 0 2 1 2 0 2 0 2 0 2 1 0 17 -3 0 -3 0 -3 -1 -3 0 -2 -1 -3 -1 -3 -1 -2 -1 -3 -1 -2 -1 -3 -1 -2 -2 -2 -1 -2 -2 -2 -2 -2 -2 -2 -2 -2 -2 -2 -2 -1 -2 -2 -3 -1 -2 -1 -2 -2 -3 -1 -2 0 -3 -1 -3 -1 -3 0 -2 -1 -3 0 -3 0 -3 0 0zm57 -57l0 17 0 0 -2 1 -2 0 -2 0 -2 0 -2 1 -2 0 -2 1 -2 1 -1 0 -2 1 -2 1 -1 1 -2 1 -1 2 -2 1 -1 1 -1 1 -2 2 -1 1 -1 2 -1 2 -1 1 -1 2 -1 2 0 1 -1 2 0 2 -1 2 0 2 -1 2 0 2 0 2 -17 0 0 -3 0 -3 1 -3 0 -2 1 -3 1 -3 0 -3 1 -2 2 -3 1 -2 1 -2 2 -3 1 -2 2 -2 2 -2 2 -2 2 -2 2 -2 2 -2 2 -1 2 -2 3 -1 2 -1 3 -1 2 -1 3 -1 3 -1 2 -1 3 0 3 -1 3 0 3 0 0 0zm57 57l-18 0 0 -2 0 -2 0 -2 -1 -2 0 -2 -1 -2 0 -2 -1 -1 -1 -2 -1 -2 0 -1 -1 -2 -2 -2 -1 -1 -1 -2 -1 -1 -2 -1 -1 -1 -2 -2 -1 -1 -2 -1 -1 -1 -2 -1 -2 0 -2 -1 -2 -1 -1 0 -2 -1 -2 0 -2 0 -2 0 -2 -1 0 -17 3 0 3 0 2 1 3 0 3 1 3 1 2 1 3 1 2 1 3 1 2 1 2 2 3 1 2 2 2 2 2 2 2 2 2 2 1 2 2 2 1 3 2 2 1 2 1 3 1 2 1 3 1 3 0 3 1 2 0 3 1 3 0 3z"/>
   </g>
   <path class="fil0" d="M175 611l79 0 0 7 -4 0c-3,0 -7,1 -13,3 -5,3 -10,7 -15,12 -5,4 -10,12 -17,23l-55 86 0 58c0,14 2,22 5,26 4,5 11,7 20,7l8 0 0 6 -98 0 0 -6 9 0c9,0 16,-3 20,-9 3,-3 4,-12 4,-24l0 -54 -62 -96c-8,-11 -13,-18 -15,-21 -3,-3 -8,-6 -17,-10 -2,-1 -5,-1 -9,-1l0 -7 97 0 0 7 -5 0c-6,0 -11,1 -15,3 -4,3 -7,6 -7,11 0,4 4,12 11,22l47 74 45 -71c7,-10 10,-18 10,-23 0,-3 -1,-6 -3,-9 -1,-2 -4,-4 -7,-5 -3,-2 -7,-2 -13,-2l0 -7z"/>
   <path id="1" class="fil0" d="M369 880l-11 31 -94 0 0 -4c28,-25 47,-46 58,-62 12,-16 17,-30 17,-44 0,-10 -3,-18 -9,-25 -6,-6 -14,-9 -22,-9 -8,0 -15,2 -21,6 -7,5 -11,12 -14,20l-5 0c2,-14 7,-25 16,-33 8,-7 18,-11 30,-11 13,0 24,4 32,12 9,8 13,18 13,30 0,8 -2,16 -5,24 -6,12 -15,26 -28,40 -20,21 -32,34 -37,38l42 0c8,0 14,0 17,-1 4,0 7,-2 9,-4 3,-1 5,-4 7,-8l5 0z"/>
   <line class="fil1 str0" x1="1698" y1="1888" x2="1868" y2= "1888" />
   <polyline class="fil1 str0" points="2838,2178 2838,1888 2585,1888 "/>
   <g>
    <path class="fil0" d="M1681 592l182 256 -11 8 -183 -256 12 -8zm-41 -46l112 69 -3 1 -4 0 -3 1 -3 1 -4 1 -3 1 -3 1 -3 1 -3 1 -4 2 -2 1 -3 2 -3 1 -3 2 -3 2 -2 1 -3 2 -3 2 -2 2 -3 3 -2 2 -2 2 -2 3 -3 2 -2 3 -2 2 -2 3 -2 3 -2 3 -2 3 -1 3 -2 3 0 0 -28 -129z"/>
   </g>
   <g>
    <path class="fil0" d="M1315 1030l442 -22 0 15 -441 22 -1 -15zm-60 10l118 -58 -1 4 -2 3 -1 3 -1 4 -1 3 -1 3 -1 4 0 3 -1 3 -1 3 0 4 0 3 0 3 0 4 0 3 0 3 0 3 0 3 1 4 0 3 1 3 0 3 1 4 1 3 1 3 1 3 2 3 1 4 1 3 2 3 1 3 2 3 0 0 -123 -46z"/>
   </g>
   <path class="fil0" d="M519 1692l0 6 -97 0 0 -6 8 0c9,0 16,-3 20,-9 3,-3 4,-12 4,-25l0 -148c0,-11 -1,-19 -2,-23 -1,-2 -3,-5 -7,-7 -5,-2 -10,-4 -15,-4l-8 0 0 -6 97 0 0 6 -8 0c-9,0 -16,3 -20,8 -3,4 -5,13 -5,26l0 148c0,11 1,19 3,22 1,3 3,6 7,8 4,2 10,4 15,4l8 0z"/>
   <path id="1" class="fil0" d="M530 1662l51 0 0 5c-3,0 -6,0 -7,1 -1,1 -2,3 -2,5 0,2 1,4 4,8 1,2 2,4 4,6l8 13 9 -13c6,-7 8,-12 8,-14 0,-2 0,-3 -2,-5 -1,-1 -3,-1 -6,-1l0 -5 36 0 0 5c-4,0 -7,1 -10,3 -4,2 -9,8 -16,17l-14 20 26 38c7,10 12,16 15,18 2,2 6,3 10,3l0 4 -50 0 0 -4c3,0 6,-1 8,-3 1,-1 2,-2 2,-4 0,-2 -2,-6 -8,-14l-15 -23 -18 23c-5,8 -7,12 -7,13 0,2 1,4 2,5 2,2 5,3 8,3l0 4 -35 0 0 -4c3,-1 5,-2 8,-3 3,-2 8,-8 15,-18l22 -30 -20 -29c-6,-9 -11,-14 -14,-16 -3,-2 -7,-3 -12,-3l0 -5z"/>
   <path class="fil0" d="M2043 540l0 7c-8,1 -15,4 -19,7 -6,6 -11,14 -15,26l-79 193 -7 0 -85 -196c-4,-10 -7,-16 -9,-18 -3,-4 -6,-7 -10,-9 -4,-1 -10,-3 -17,-3l0 -7 93 0 0 7c-11,1 -17,2 -20,5 -4,3 -5,6 -5,10 0,6 2,14 8,26l57 133 54 -131c5,-13 8,-22 8,-27 0,-3 -2,-7 -5,-10 -3,-2 -9,-5 -16,-6 -1,0 -2,0 -3,0l0 -7 70 0z"/>
   <path id="1" class="fil0" d="M2075 697l39 -19 4 0 0 134c0,9 0,15 1,17 1,2 2,4 4,5 3,1 8,2 15,2l0 4 -60 0 0 -4c7,0 12,-1 14,-2 3,-1 4,-3 5,-4 1,-2 1,-8 1,-18l0 -86c0,-11 0,-19 -1,-22 -1,-3 -2,-5 -3,-6 -1,-1 -3,-1 -5,-1 -3,0 -7,1 -12,3l-2 -3z"/>
   <path class="fil0" d="M1574 1139l0 6c-8,2 -14,5 -19,8 -5,6 -11,14 -15,26l-79 193 -7 0 -85 -196c-4,-10 -7,-16 -9,-19 -3,-3 -6,-6 -10,-8 -4,-2 -10,-3 -17,-4l0 -6 93 0 0 6c-10,1 -17,3 -20,6 -4,2 -5,6 -5,10 0,5 2,14 8,26l57 133 54 -131c6,-13 8,-22 8,-27 0,-4 -2,-7 -5,-10 -3,-3 -8,-5 -16,-6 -1,0 -2,0 -3,-1l0 -6 70 0z"/>
   <path id="1" class="fil0" d="M1688 1408l-11 31 -94 0 0 -4c28,-25 47,-46 58,-62 12,-16 17,-31 17,-44 0,-10 -3,-18 -9,-25 -6,-6 -14,-9 -22,-9 -8,0 -15,2 -21,6 -6,5 -11,12 -14,20l-4 0c2,-14 7,-25 15,-33 8,-8 18,-11 30,-11 13,0 24,4 33,12 8,8 13,18 13,29 0,9 -2,17 -6,25 -6,12 -15,26 -28,40 -20,21 -32,34 -36,38l41 0c8,0 14,0 17,-1 4,0 7,-2 9,-4 3,-2 6,-4 8,-8l4 0z"/>
   <path class="fil0" d="M1444 2320l0 6c-8,2 -14,4 -18,8 -6,6 -12,14 -16,25l-79 194 -6 0 -86 -196c-4,-10 -7,-17 -9,-19 -3,-3 -6,-6 -10,-8 -4,-2 -10,-3 -17,-4l0 -6 93 0 0 6c-10,1 -17,3 -20,6 -3,2 -5,5 -5,10 0,5 3,14 8,26l58 133 53 -132c6,-13 8,-22 8,-27 0,-3 -1,-6 -5,-9 -3,-3 -8,-5 -16,-6 -1,0 -1,-1 -3,-1l0 -6 70 0z"/>
   <path id="1" class="fil0" d="M1476 2476l39 -19 4 0 0 135c0,9 0,14 1,17 1,2 2,3 5,5 2,1 7,1 14,2l0 4 -60 0 0 -4c8,-1 12,-1 15,-2 2,-1 3,-3 4,-5 1,-2 1,-8 1,-17l0 -86c0,-12 0,-19 -1,-23 0,-2 -1,-4 -3,-5 -1,-1 -3,-2 -5,-2 -3,0 -7,1 -12,4l-2 -4z"/>
   <path class="fil0" d="M2265 2320l0 6c-8,2 -15,4 -19,8 -6,6 -11,14 -15,25l-80 194 -6 0 -85 -196c-4,-10 -7,-17 -9,-19 -3,-3 -6,-6 -10,-8 -4,-2 -10,-3 -17,-4l0 -6 93 0 0 6c-11,1 -17,3 -21,6 -3,2 -4,5 -4,10 0,5 2,14 7,26l58 133 54 -132c5,-13 8,-22 8,-27 0,-3 -2,-6 -5,-9 -3,-3 -9,-5 -16,-6 -1,0 -2,-1 -3,-1l0 -6 70 0z"/>
   <path id="1" class="fil0" d="M2379 2589l-11 31 -94 0 0 -4c28,-26 47,-46 58,-62 12,-16 17,-31 17,-44 0,-10 -3,-18 -9,-25 -6,-6 -14,-10 -22,-10 -8,0 -15,3 -21,7 -7,5 -11,11 -14,20l-4 0c1,-14 7,-25 15,-33 8,-8 18,-12 30,-12 13,0 24,5 32,13 9,8 13,18 13,29 0,8 -1,16 -5,24 -6,13 -15,27 -28,41 -20,21 -32,34 -37,38l42 0c8,0 14,0 17,-1 4,-1 7,-2 9,-4 3,-2 5,-4 7,-8l5 0z"/>
   <g>
    <g>
     <g>
      <path class="fil0" d="M3448 1486l-14 0 -45 -68 15 -10 44 69 -14 0 14 9zm0 0l-7 11 -7 -11 14 0zm37 -73l7 5 -44 68 -14 -9 44 -69 7 5zm-37 -252l0 307 -14 0 0 -307 14 0z"/>
     </g>
     <rect class="fil1 str0" transform="matrix(0.966762 0.966762 -0.966762 0.966762 3440.85 967.197)" width="371" height="371"/>
    </g>
    <g>
     <path class="fil0" d="M3448 629l0 338 -14 0 0 -338 7 -8 7 8zm-14 0l0 -8 7 0 -7 8zm573 7l-566 0 0 -15 566 0 0 15zm47 -64l0 17 0 0 -2 0 -2 0 -2 1 -2 0 -2 0 -2 1 -1 0 -2 1 -2 1 -2 1 -1 1 -2 1 -1 1 -2 1 -1 1 -2 2 -1 1 -1 2 -2 1 -1 2 -1 1 -1 2 -1 2 0 1 -1 2 -1 2 0 2 -1 2 0 2 0 2 0 2 0 2 -18 0 0 -3 1 -3 0 -3 0 -3 1 -3 1 -2 1 -3 1 -2 1 -3 1 -2 2 -3 1 -2 2 -2 1 -3 2 -2 2 -2 2 -1 2 -2 2 -2 2 -1 3 -2 2 -1 2 -2 3 -1 3 -1 2 -1 3 0 3 -1 2 -1 3 0 3 0 3 0 0 0zm57 57l-17 0 0 0 0 -2 -1 -2 0 -2 0 -2 -1 -2 0 -2 -1 -2 -1 -2 0 -1 -1 -2 -1 -2 -1 -1 -1 -2 -1 -1 -2 -2 -1 -1 -1 -2 -2 -1 -1 -1 -2 -1 -1 -1 -2 -1 -2 -1 -2 -1 -1 -1 -2 0 -2 -1 -2 0 -2 0 -2 -1 -2 0 -2 0 0 -17 3 0 3 0 3 0 3 1 2 1 3 0 3 1 2 1 3 1 2 2 3 1 2 2 2 1 2 2 2 2 2 1 2 2 2 2 2 3 1 2 2 2 1 3 1 2 1 3 1 2 1 3 1 2 1 3 0 3 1 3 0 3 0 3 0 0zm-57 56l0 -17 0 0 2 0 2 0 2 0 2 -1 2 0 2 -1 2 0 1 -1 2 -1 2 -1 2 -1 1 -1 2 -1 1 -1 2 -1 1 -1 1 -2 2 -1 1 -2 1 -1 1 -2 1 -2 1 -1 0 -2 1 -2 1 -2 0 -2 1 -1 0 -2 0 -2 1 -2 0 -2 17 0 0 3 0 2 -1 3 0 3 -1 3 -1 2 -1 3 -1 3 -1 2 -1 3 -1 2 -2 2 -1 3 -2 2 -2 2 -2 2 -2 2 -2 1 -2 2 -2 2 -2 1 -3 2 -2 1 -3 1 -2 1 -3 1 -3 1 -2 0 -3 1 -3 0 -3 0 -3 0 0 0zm-57 -56l18 0 0 2 0 2 0 2 0 2 1 1 0 2 1 2 1 2 0 2 1 1 1 2 1 2 1 1 2 2 1 1 1 2 2 1 1 1 2 1 1 1 2 1 1 1 2 1 2 1 2 1 1 0 2 1 2 0 2 1 2 0 2 0 2 0 0 17 -3 0 -3 0 -3 0 -2 -1 -3 0 -3 -1 -2 -1 -3 -1 -3 -1 -2 -1 -2 -2 -3 -1 -2 -2 -2 -2 -2 -1 -2 -2 -2 -2 -2 -2 -1 -2 -2 -3 -1 -2 -2 -2 -1 -3 -1 -2 -1 -3 -1 -3 -1 -2 -1 -3 0 -3 0 -3 -1 -2 0 -3z"/>
    </g>
    <path class="fil0" d="M4067 200l-150 214 93 0c14,0 25,-3 33,-9 8,-7 14,-19 20,-38l6 1 -11 60 -185 0 0 -6 146 -208 -73 0c-12,0 -21,1 -26,4 -6,2 -10,6 -13,11 -2,5 -5,15 -7,28l-7 0 5 -57 169 0z"/>
    <path id="1" class="fil0" d="M4106 356l39 -19 4 0 0 135c0,9 0,14 1,17 1,2 3,4 5,5 2,1 7,2 14,2l0 4 -60 0 0 -4c8,0 13,-1 15,-2 2,-1 3,-3 4,-5 1,-2 2,-8 2,-17l0 -86c0,-12 -1,-19 -2,-23 0,-2 -1,-4 -3,-5 -1,-1 -3,-2 -5,-2 -3,0 -7,1 -12,4l-2 -4z"/>
    <g>
     <path class="fil0" d="M3630 622l305 0 0 14 -305 0 0 -14zm-61 7l121 -52 -2 3 -1 4 -1 3 -2 3 -1 3 -1 4 -1 3 -1 3 0 3 -1 4 -1 3 0 3 0 3 -1 4 0 3 0 3 0 3 0 4 1 3 0 3 0 3 1 4 1 3 0 3 1 3 1 4 1 3 1 3 2 3 1 4 1 3 2 3 0 0 -121 -52z"/>
    </g>
    <g>
     <path class="fil0" d="M3429 2031l0 -339 15 0 0 339 -7 7 -8 -7zm8 7l-8 0 0 -7 8 7zm566 0l-566 0 0 -15 566 0 0 15zm47 -64l0 17 0 0 -2 0 -2 0 -2 1 -2 0 -2 0 -2 1 -2 1 -1 0 -2 1 -2 1 -2 1 -1 1 -2 1 -1 1 -2 2 -1 1 -1 1 -2 2 -1 1 -1 2 -1 1 -1 2 -1 2 0 1 -1 2 -1 2 0 2 -1 2 0 2 0 2 -1 2 0 2 -17 0 0 -3 0 -3 1 -3 0 -3 1 -2 1 -3 1 -3 1 -2 1 -3 1 -2 1 -3 2 -2 1 -2 2 -2 2 -2 2 -2 2 -2 2 -2 2 -2 2 -1 2 -2 3 -1 2 -1 3 -2 2 -1 3 -1 3 0 2 -1 3 0 3 -1 3 0 3 0 0 0zm57 57l-18 0 0 0 0 -2 0 -2 0 -2 0 -2 -1 -2 0 -2 -1 -2 -1 -2 0 -1 -1 -2 -1 -2 -1 -1 -1 -2 -2 -1 -1 -2 -1 -1 -2 -1 -1 -2 -2 -1 -1 -1 -2 -1 -1 -1 -2 -1 -2 -1 -2 0 -1 -1 -2 -1 -2 0 -2 0 -2 -1 -2 0 -2 0 0 -17 3 0 3 0 3 1 2 0 3 1 3 0 2 1 3 1 3 2 2 1 2 1 3 2 2 1 2 2 2 2 2 2 2 2 2 2 1 2 2 2 1 2 2 3 1 2 1 3 1 2 1 3 1 3 1 2 0 3 0 3 1 3 0 3 0 0zm-57 57l0 -18 0 0 2 0 2 0 2 0 2 -1 2 0 2 -1 1 0 2 -1 2 -1 2 -1 1 0 2 -2 1 -1 2 -1 1 -1 2 -1 1 -2 1 -1 2 -2 1 -1 1 -2 1 -1 1 -2 0 -2 1 -2 1 -2 0 -1 1 -2 0 -2 0 -2 0 -2 0 -2 18 0 0 3 -1 3 0 2 0 3 -1 3 -1 3 -1 2 -1 3 -1 2 -1 3 -2 2 -1 3 -2 2 -1 2 -2 2 -2 2 -2 2 -2 2 -2 1 -2 2 -3 1 -2 2 -2 1 -3 1 -3 1 -2 1 -3 1 -3 0 -2 1 -3 0 -3 1 -3 0 0 0zm-57 -57l17 0 0 2 1 2 0 2 0 2 1 2 0 1 1 2 1 2 0 2 1 2 1 1 1 2 1 1 1 2 2 1 1 2 1 1 2 1 1 1 2 1 1 2 2 0 2 1 2 1 1 1 2 0 2 1 2 0 2 1 2 0 2 0 2 0 0 18 -3 0 -3 -1 -3 0 -3 -1 -2 0 -3 -1 -3 -1 -2 -1 -3 -1 -2 -1 -3 -2 -2 -1 -2 -2 -2 -1 -2 -2 -2 -2 -2 -2 -2 -2 -2 -2 -1 -2 -2 -3 -1 -2 -1 -3 -1 -2 -1 -3 -1 -2 -1 -3 -1 -3 0 -3 -1 -2 0 -3 0 -3z"/>
    </g>
    <g>
     <path class="fil0" d="M3860 2026l-121 52 0 0 1 -3 2 -4 1 -3 1 -3 1 -3 1 -4 1 -3 1 -3 1 -3 1 -4 0 -3 1 -3 0 -3 0 -4 0 -3 0 -3 0 -3 0 -3 0 -4 0 -3 -1 -3 0 -3 -1 -4 -1 -3 -1 -3 -1 -3 -1 -4 -1 -3 -1 -3 -1 -3 -2 -4 -1 -3 121 52zm-367 -7l306 0 0 14 -306 0 0 -14z"/>
    </g>
    <path class="fil0" d="M4021 1561l-150 214 93 0c14,0 25,-3 33,-9 8,-7 14,-19 20,-39l6 1 -11 61 -185 0 0 -6 146 -208 -73 0c-12,0 -21,1 -26,4 -6,2 -10,6 -13,11 -2,5 -5,14 -7,28l-7 0 5 -57 169 0z"/>
    <path id="1" class="fil0" d="M4142 1830l-11 31 -94 0 0 -5c28,-25 47,-45 59,-61 11,-16 17,-31 17,-44 0,-10 -3,-18 -10,-25 -6,-6 -13,-10 -22,-10 -8,0 -15,3 -21,7 -6,5 -11,11 -14,20l-4 0c2,-14 7,-25 15,-33 8,-8 18,-12 30,-12 13,0 24,4 33,13 9,8 13,18 13,29 0,8 -2,16 -6,24 -6,13 -15,26 -28,41 -19,21 -32,34 -36,38l41 0c8,0 14,-1 18,-1 3,-1 6,-2 9,-4 3,-2 5,-5 7,-8l4 0z"/>
    <path class="fil0" d="M3661 436l0 7 -97 0 0 -7 8 0c9,0 16,-2 20,-8 3,-3 4,-12 4,-26l0 -147c0,-12 0,-19 -2,-23 -1,-3 -3,-5 -7,-7 -5,-3 -10,-4 -15,-4l-8 0 0 -6 97 0 0 6 -8 0c-9,0 -16,3 -20,8 -3,4 -4,12 -4,26l0 147c0,12 0,19 2,23 1,3 3,5 7,7 5,3 10,4 15,4l8 0z"/>
    <path id="1" class="fil0" d="M3673 407l50 0 0 4c-3,0 -6,1 -7,2 -1,1 -2,3 -2,4 0,2 2,5 4,9 1,1 3,3 4,6l8 12 9 -12c6,-8 9,-13 9,-15 0,-1 -1,-3 -2,-4 -2,-1 -4,-2 -7,-2l0 -4 36 0 0 4c-4,1 -7,2 -10,3 -4,3 -9,9 -15,18l-15 19 27 39c6,10 11,15 14,17 2,2 6,3 11,4l0 4 -51 0 0 -4c3,0 6,-1 8,-3 1,-1 2,-2 2,-4 0,-2 -2,-7 -7,-14l-16 -23 -17 23c-6,7 -8,12 -8,13 0,2 1,3 2,5 2,2 5,2 8,3l0 4 -35 0 0 -4c3,-1 6,-2 8,-3 3,-3 8,-8 15,-18l22 -30 -20 -30c-6,-8 -10,-13 -14,-15 -3,-3 -7,-4 -11,-4l0 -4z"/>
    <path class="fil0" d="M3611 2342l0 6 -98 0 0 -6 9 0c9,0 16,-3 20,-9 3,-3 4,-12 4,-25l0 -148c0,-11 -1,-19 -2,-23 -1,-2 -4,-5 -7,-7 -5,-3 -10,-4 -15,-4l-9 0 0 -6 98 0 0 6 -8 0c-9,0 -16,3 -20,8 -3,4 -5,13 -5,26l0 148c0,11 1,19 3,22 1,3 3,6 7,8 4,2 9,4 15,4l8 0z"/>
    <path id="1" class="fil0" d="M3622 2312l51 0 0 4c-4,0 -6,1 -7,2 -1,1 -2,3 -2,5 0,1 1,4 4,8 1,2 2,4 4,6l8 13 9 -13c5,-7 8,-12 8,-14 0,-2 0,-4 -2,-5 -1,-1 -3,-2 -6,-2l0 -4 36 0 0 4c-4,1 -7,2 -10,4 -4,2 -9,8 -16,17l-14 19 26 39c7,10 12,16 14,18 3,1 7,3 11,3l0 4 -51 0 0 -4c4,0 7,-1 9,-3 1,-1 2,-2 2,-4 0,-2 -3,-6 -8,-14l-15 -23 -18 23c-5,7 -7,12 -7,13 0,2 0,4 2,5 2,2 5,3 8,3l0 4 -35 0 0 -4c3,-1 5,-2 7,-3 3,-2 8,-8 15,-18l23 -30 -20 -29c-6,-9 -11,-14 -14,-16 -3,-2 -7,-4 -12,-4l0 -4z"/>
   </g>
   <path class="fil0" d="M889 1620l0 149c0,11 1,18 2,21 1,3 3,6 6,8 3,2 8,3 15,3l4 0 0 4 -96 0 0 -4 5 0c8,0 13,-1 17,-3 3,-2 5,-4 6,-7 2,-4 2,-11 2,-22l0 -95c0,-8 0,-14 -1,-16 -1,-2 -2,-4 -5,-5 -2,-2 -4,-3 -7,-3 -5,0 -10,2 -17,5l-2 -5 67 -30 4 0z"/>
   <path class="fil0" d="M1839 1763l-107 0 0 -3c33,-39 53,-65 60,-78 7,-14 10,-27 10,-40 0,-9 -2,-17 -8,-23 -6,-7 -13,-10 -22,-10 -13,0 -24,7 -32,21l-5 -2c5,-17 12,-30 22,-38 10,-8 22,-12 34,-12 10,0 18,2 26,6 7,4 13,10 17,18 5,7 7,14 7,21 0,12 -3,24 -10,36 -9,17 -29,40 -59,69l39 0c10,0 16,0 19,-1 3,-1 5,-2 7,-4 2,-2 5,-6 8,-12l4 0 -10 52z"/>
   <g>
    <rect class="fil1 str0" transform="matrix(-0.966762 0.966762 -0.966762 -0.966762 1694.5 1894.26)" width="371" height="371"/>
    <g>
     <polygon class="fil0" points="1186,1806 1186,1886 1266,1886 1266,1908 1186,1908 1186,1989 1164,1989 1164,1908 1084,1908 1084,1886 1164,1886 1164,1806 "/>
     <polygon class="fil0" points="1541,1808 1541,1985 1521,1985 1521,1808 "/>
    </g>
   </g>
   <g>
    <rect class="fil1 str0" transform="matrix(0.966762 -0.966762 0.966762 0.966762 1872.88 1886.13)" width="371" height="371"/>
    <g>
     <polygon class="fil0" points="2382,1975 2382,1894 2301,1894 2301,1872 2382,1872 2382,1792 2404,1792 2404,1872 2483,1872 2483,1894 2404,1894 2404,1975 "/>
     <polygon class="fil0" points="2027,1972 2027,1795 2047,1795 2047,1972 "/>
    </g>
   </g>
  </g>
 </g>
</svg>
