<?xml version="1.0" encoding="UTF-8"?>
<!DOCTYPE svg PUBLIC "-//W3C//DTD SVG 1.1//EN" "http://www.w3.org/Graphics/SVG/1.1/DTD/svg11.dtd">
<!-- Creator: CorelDRAW Home & Student X8 -->
<svg xmlns="http://www.w3.org/2000/svg" xml:space="preserve" width="89.3682mm" height="95.7661mm" version="1.1" style="shape-rendering:geometricPrecision; text-rendering:geometricPrecision; image-rendering:optimizeQuality; fill-rule:evenodd; clip-rule:evenodd"
viewBox="0 0 4477 4797"
 xmlns:xlink="http://www.w3.org/1999/xlink">
 <defs>
  <style type="text/css">
   <![CDATA[
    .fil0 {fill:#2B2A29;fill-rule:nonzero}
   ]]>
  </style>
 </defs>
 <g id="Warstwa_x0020_1">
  <metadata id="CorelCorpID_0Corel-Layer"/>
  <g id="_498833656">
   <g>
    <g>
     <path class="fil0" d="M1275 4221l-576 0 0 -25 576 0 13 12 -13 13zm0 -25l13 0 0 12 -13 -12zm-13 589l0 -577 26 0 0 577 -13 12 -13 -12zm26 0l0 12 -13 0 13 -12zm-589 -13l576 0 0 25 -576 0 -13 -12 13 -13zm0 25l-13 0 0 -12 13 12zm12 -589l0 577 -25 0 0 -577 13 -12 12 12zm-25 0l0 -12 13 0 -13 12z"/>
    </g>
    <path class="fil0" d="M961 4405l57 -28 6 0 0 198c0,13 0,21 2,24 1,3 3,6 6,8 4,1 11,2 22,3l0 6 -89 0 0 -6c11,-1 18,-2 22,-3 3,-2 5,-4 6,-7 2,-3 2,-11 2,-25l0 -127c0,-17 0,-28 -1,-33 -1,-4 -3,-6 -5,-8 -2,-2 -5,-3 -8,-3 -4,0 -10,2 -17,6l-3 -5z"/>
   </g>
   <g id="_498810808">
    <path class="fil0" d="M3869 2435l-63 0 -80 -109c-5,0 -10,0 -14,0 -1,0 -3,0 -4,0 -2,0 -4,0 -6,0l0 68c0,15 2,24 5,28 4,5 11,7 20,7l9 0 0 6 -100 0 0 -6 8 0c10,0 17,-3 21,-10 3,-3 4,-12 4,-25l0 -152c0,-14 -2,-23 -5,-27 -4,-5 -11,-7 -20,-7l-8 0 0 -7 85 0c25,0 43,2 55,6 12,3 22,10 30,20 8,9 12,21 12,34 0,15 -4,27 -14,38 -9,11 -24,18 -43,22l48 68c11,15 21,25 28,30 8,6 19,9 32,10l0 6zm-167 -120c2,0 4,0 6,0 2,0 3,0 4,0 22,0 39,-5 50,-14 11,-10 17,-22 17,-37 0,-15 -5,-27 -14,-36 -9,-9 -21,-14 -36,-14 -6,0 -15,1 -27,3l0 98z"/>
    <path id="1" class="fil0" d="M3906 2224l57 -27 6 0 0 197c0,13 1,22 2,25 1,3 3,5 7,7 3,2 10,3 21,3l0 6 -89 0 0 -6c12,0 19,-1 22,-3 3,-1 5,-4 7,-6 1,-3 2,-12 2,-26l0 -126c0,-17 -1,-28 -2,-33 -1,-4 -2,-7 -5,-8 -2,-2 -4,-3 -7,-3 -5,0 -11,2 -18,5l-3 -5z"/>
    <g>
     <path class="fil0" d="M4159 2318l15 0 0 0 0 19 -1 18 -3 17 -3 18 -4 17 -4 17 -6 16 -6 16 -7 16 -8 15 -9 15 -9 14 -10 14 -10 13 -11 13 -12 12 -12 12 -13 11 -14 11 -13 9 -15 10 -15 8 -15 8 -15 7 -16 6 -17 6 -17 5 -17 4 -17 3 -18 2 -18 1 -18 1 0 -15 17 -1 18 -1 17 -2 16 -3 17 -4 16 -4 15 -6 16 -6 15 -7 14 -7 14 -8 14 -9 13 -9 13 -10 13 -11 11 -11 11 -12 11 -12 10 -13 10 -13 8 -14 9 -14 7 -15 7 -15 6 -15 5 -16 5 -16 3 -16 3 -17 3 -17 1 -17 0 -18 0 0zm-338 -338l0 -15 0 0 18 1 18 1 18 2 17 3 17 4 17 5 17 6 16 6 15 7 15 8 15 8 15 9 13 10 14 11 13 11 12 12 12 12 11 13 10 13 10 14 9 14 9 15 8 15 7 16 6 16 6 16 4 17 4 17 3 18 3 17 1 18 0 18 -15 0 0 -17 -1 -17 -3 -17 -3 -17 -3 -16 -5 -16 -5 -16 -6 -15 -7 -15 -7 -15 -9 -14 -8 -14 -10 -13 -10 -13 -11 -12 -11 -12 -11 -11 -13 -11 -13 -10 -13 -9 -14 -9 -14 -8 -14 -7 -15 -7 -16 -6 -15 -6 -16 -4 -17 -4 -16 -3 -17 -2 -18 -1 -17 -1 0 0zm-338 338l-15 0 0 0 0 -18 2 -18 2 -17 3 -18 4 -17 5 -17 5 -16 6 -16 8 -16 7 -15 9 -15 9 -14 10 -14 10 -13 12 -13 11 -12 12 -12 13 -11 14 -11 14 -10 14 -9 15 -8 15 -8 16 -7 16 -6 16 -6 17 -5 17 -4 17 -3 18 -2 18 -1 18 -1 0 15 -17 1 -18 1 -16 2 -17 3 -16 4 -17 4 -15 6 -16 6 -15 7 -14 7 -14 8 -14 9 -13 9 -13 10 -12 11 -12 11 -11 12 -11 12 -10 13 -9 13 -9 14 -8 14 -8 15 -7 15 -6 15 -5 16 -5 16 -3 16 -3 17 -2 17 -2 17 0 17 0 0zm338 339l0 15 0 0 -18 -1 -18 -1 -18 -2 -17 -3 -17 -4 -17 -5 -16 -6 -16 -6 -16 -7 -15 -8 -15 -8 -14 -10 -14 -9 -14 -11 -13 -11 -12 -12 -11 -12 -12 -13 -10 -13 -10 -14 -9 -14 -9 -15 -7 -15 -8 -16 -6 -16 -5 -16 -5 -17 -4 -17 -3 -18 -2 -17 -2 -18 0 -19 15 0 0 18 2 17 2 17 3 17 3 16 5 16 5 16 6 15 7 15 8 15 8 14 9 14 9 13 10 13 11 12 11 12 12 11 12 11 13 10 13 9 14 9 14 8 14 7 15 7 16 6 15 6 17 4 16 4 17 3 16 2 18 1 17 1 0 0z"/>
    </g>
   </g>
   <g>
    <path class="fil0" d="M1268 1010l0 54 -5 0c-5,-17 -10,-29 -17,-35 -7,-6 -15,-9 -26,-9 -8,0 -15,2 -19,7 -5,4 -8,9 -8,14 0,6 2,12 6,16 3,5 10,10 21,15l25 13c24,11 35,26 35,45 0,14 -5,26 -16,34 -11,9 -23,14 -36,14 -10,0 -21,-2 -33,-6 -4,-1 -7,-1 -10,-1 -2,0 -5,1 -6,4l-6 0 0 -56 6 0c3,16 9,28 19,36 9,8 19,12 30,12 8,0 14,-2 19,-7 5,-4 8,-10 8,-16 0,-8 -3,-15 -8,-20 -6,-6 -17,-13 -34,-21 -17,-8 -27,-16 -33,-22 -5,-7 -7,-15 -7,-25 0,-13 4,-24 13,-33 9,-9 20,-13 35,-13 6,0 13,1 22,4 6,2 10,3 12,3 2,0 3,-1 4,-1 1,-1 2,-3 4,-6l5 0z"/>
    <path id="1" class="fil0" d="M1506 933l5 80 -5 0c-7,-24 -18,-41 -31,-52 -13,-10 -29,-15 -47,-15 -16,0 -30,4 -42,12 -13,7 -23,20 -30,37 -7,18 -10,39 -10,65 0,21 3,39 10,55 6,15 17,27 30,36 14,8 29,12 47,12 15,0 28,-3 40,-10 11,-6 24,-19 38,-38l5 3c-11,21 -25,36 -41,46 -15,9 -34,14 -55,14 -39,0 -69,-14 -90,-43 -16,-21 -24,-47 -24,-76 0,-23 5,-44 16,-64 10,-20 24,-35 43,-46 18,-10 38,-16 60,-16 17,0 33,4 50,13 4,2 8,4 10,4 3,0 6,-2 8,-4 3,-3 5,-7 6,-13l7 0z"/>
    <path id="2" class="fil0" d="M1570 962l57 -28 6 0 0 198c0,13 0,21 1,24 1,3 4,6 7,8 3,1 11,2 21,3l0 6 -88 0 0 -6c11,-1 18,-2 21,-3 3,-2 6,-4 7,-7 1,-3 2,-11 2,-25l0 -127c0,-17 -1,-28 -2,-33 -1,-3 -2,-6 -4,-8 -2,-2 -5,-2 -8,-2 -4,0 -10,1 -18,5l-2 -5z"/>
    <g>
     <path class="fil0" d="M1754 1056l15 0 0 0 0 18 -2 18 -2 18 -3 17 -4 17 -5 17 -5 16 -7 17 -7 15 -8 15 -8 15 -9 15 -10 13 -11 14 -11 13 -11 12 -13 12 -13 11 -13 10 -14 10 -14 9 -15 9 -15 7 -16 8 -16 6 -16 5 -17 5 -17 4 -18 3 -17 2 -18 2 -18 0 0 -15 17 0 17 -1 17 -3 17 -3 16 -3 16 -5 16 -5 15 -6 15 -7 15 -8 14 -8 14 -8 13 -10 13 -10 12 -11 12 -11 11 -12 11 -12 10 -13 9 -13 9 -14 8 -14 8 -14 6 -15 6 -16 6 -15 4 -16 4 -17 3 -16 2 -17 2 -18 0 -17 0 0zm-338 -338l0 -15 0 0 18 0 18 1 17 3 18 3 17 4 17 5 16 5 16 6 16 8 15 7 15 9 14 9 14 10 13 10 13 11 13 12 11 12 11 13 11 14 10 13 9 15 8 15 8 15 7 15 7 16 5 17 5 17 4 17 3 17 2 18 2 18 0 18 -15 0 0 -17 -2 -18 -2 -17 -3 -16 -4 -17 -4 -16 -6 -15 -6 -16 -6 -15 -8 -14 -8 -14 -9 -14 -9 -13 -10 -13 -11 -12 -11 -12 -12 -11 -12 -11 -13 -10 -13 -10 -14 -8 -14 -8 -15 -8 -15 -7 -15 -6 -16 -5 -16 -5 -16 -3 -17 -3 -17 -3 -17 -1 -17 0 0 0zm-339 338l-15 0 0 0 1 -18 1 -18 2 -18 4 -17 3 -17 5 -17 6 -17 6 -16 7 -15 8 -15 8 -15 10 -15 10 -13 10 -14 11 -13 12 -12 12 -12 13 -11 13 -10 14 -10 14 -9 15 -9 15 -7 16 -8 16 -6 17 -5 16 -5 17 -4 18 -3 18 -3 17 -1 19 0 0 15 -18 0 -17 1 -17 3 -17 3 -16 3 -16 5 -16 5 -15 6 -15 7 -15 8 -14 8 -13 8 -14 10 -13 10 -12 11 -12 11 -11 12 -10 12 -10 13 -10 13 -9 14 -8 14 -7 14 -7 15 -6 16 -5 15 -5 16 -4 17 -3 16 -2 17 -1 18 -1 17 0 0zm339 338l0 15 0 0 -19 0 -17 -2 -18 -2 -18 -3 -17 -4 -16 -5 -17 -5 -16 -6 -16 -8 -15 -7 -15 -9 -14 -9 -14 -10 -13 -10 -13 -11 -12 -12 -12 -12 -11 -13 -10 -14 -10 -13 -10 -15 -8 -15 -8 -15 -7 -15 -6 -17 -6 -16 -5 -17 -3 -17 -4 -17 -2 -18 -1 -18 -1 -18 15 0 1 17 1 18 2 17 3 16 4 17 5 16 5 15 6 16 7 15 7 14 8 14 9 14 10 13 10 13 10 12 11 12 12 11 12 11 13 10 14 10 13 8 14 8 15 8 15 7 15 6 16 5 16 5 16 3 17 3 17 3 17 1 18 0 0 0z"/>
    </g>
   </g>
   <g>
    <path class="fil0" d="M2635 3041l0 54 -6 0c-4,-17 -10,-29 -17,-35 -6,-6 -15,-9 -26,-9 -8,0 -14,2 -19,7 -5,4 -8,9 -8,14 0,6 2,12 6,16 3,5 11,10 22,15l25 13c23,11 35,26 35,45 0,14 -6,26 -17,34 -10,9 -23,14 -36,14 -10,0 -21,-2 -33,-6 -4,-1 -7,-1 -9,-1 -3,0 -5,1 -7,4l-5 0 0 -56 5 0c4,16 10,28 19,36 9,8 19,12 30,12 8,0 15,-2 20,-7 5,-4 7,-10 7,-17 0,-7 -2,-14 -8,-19 -6,-6 -17,-13 -34,-21 -16,-8 -27,-16 -32,-22 -5,-7 -8,-15 -8,-25 0,-13 4,-24 13,-33 9,-9 21,-13 35,-13 6,0 14,1 22,4 6,2 10,3 12,3 2,0 3,-1 5,-2 1,0 2,-2 3,-5l6 0z"/>
    <path id="1" class="fil0" d="M2872 2964l5 80 -5 0c-7,-24 -17,-41 -30,-52 -14,-10 -29,-15 -48,-15 -15,0 -29,4 -42,12 -12,7 -22,20 -29,37 -8,18 -11,39 -11,65 0,21 3,39 10,55 7,15 17,27 31,36 13,8 29,12 46,12 15,0 28,-3 40,-10 12,-6 24,-19 38,-38l6 3c-12,21 -26,36 -41,46 -16,9 -35,14 -56,14 -39,0 -69,-14 -90,-43 -16,-21 -24,-47 -24,-76 0,-23 6,-44 16,-64 10,-20 25,-35 43,-46 18,-10 38,-16 60,-16 17,0 33,4 50,13 5,2 8,4 10,4 3,0 6,-2 8,-4 3,-3 5,-7 7,-13l6 0z"/>
    <path id="2" class="fil0" d="M3057 3158l-17 46 -138 0 0 -7c41,-37 70,-67 86,-90 17,-24 25,-45 25,-65 0,-14 -5,-27 -14,-36 -9,-10 -20,-14 -32,-14 -12,0 -22,3 -31,9 -9,7 -16,17 -21,30l-6 0c3,-21 10,-38 22,-49 12,-11 27,-17 45,-17 19,0 35,6 48,18 12,13 19,27 19,44 0,11 -3,23 -9,35 -8,19 -22,38 -41,59 -29,32 -46,50 -53,56l60 0c13,0 21,0 26,-1 5,-1 10,-3 14,-6 4,-2 7,-6 10,-12l7 0z"/>
    <g>
     <path class="fil0" d="M3120 3087l15 0 0 0 0 18 -1 18 -3 18 -3 17 -4 17 -5 17 -5 16 -6 16 -8 16 -7 15 -9 15 -9 15 -10 13 -10 14 -11 13 -12 12 -12 11 -13 12 -14 10 -13 10 -15 9 -15 9 -15 7 -15 8 -17 6 -16 5 -17 5 -17 4 -17 3 -18 2 -18 2 -18 0 0 -15 17 0 18 -1 17 -3 16 -3 17 -3 16 -5 15 -5 16 -6 15 -7 14 -8 14 -8 14 -9 13 -9 13 -10 12 -11 12 -11 11 -12 11 -12 10 -13 10 -13 8 -14 8 -14 8 -14 7 -15 6 -16 5 -15 5 -16 3 -17 3 -17 3 -16 1 -18 0 -17 0 0zm-338 -338l0 -15 0 0 18 0 18 1 18 3 17 3 17 4 17 5 16 5 17 6 15 7 15 8 15 9 15 9 13 10 14 10 13 11 12 12 12 12 11 13 10 14 10 13 9 15 9 15 7 15 8 15 6 16 5 17 5 17 4 17 3 17 3 18 1 18 0 18 -15 0 0 -17 -1 -18 -3 -17 -3 -16 -3 -17 -5 -16 -5 -15 -6 -16 -7 -15 -8 -14 -8 -14 -8 -14 -10 -13 -10 -13 -11 -13 -11 -11 -12 -11 -12 -11 -13 -10 -13 -10 -14 -8 -14 -9 -14 -7 -15 -7 -16 -6 -15 -5 -16 -5 -17 -3 -16 -3 -17 -3 -18 -1 -17 0 0 0zm-338 338l-15 0 0 0 0 -18 1 -18 3 -18 3 -17 4 -17 5 -17 5 -17 6 -16 8 -15 7 -15 9 -15 9 -15 10 -13 10 -14 11 -13 12 -12 12 -12 13 -11 14 -10 13 -10 15 -9 15 -9 15 -8 15 -7 17 -6 16 -5 17 -5 17 -4 17 -3 18 -3 18 -1 18 0 0 15 -17 0 -18 1 -17 3 -16 3 -17 3 -16 5 -15 5 -16 6 -15 7 -14 7 -14 9 -14 8 -13 10 -13 10 -12 11 -12 11 -11 11 -11 13 -10 13 -10 13 -8 14 -8 14 -8 14 -7 15 -6 16 -5 15 -5 16 -3 17 -3 16 -3 17 -1 18 0 17 0 0zm338 338l0 15 0 0 -18 0 -18 -2 -18 -2 -17 -3 -17 -4 -17 -5 -16 -5 -17 -6 -15 -8 -15 -7 -15 -9 -15 -9 -13 -10 -14 -10 -13 -12 -12 -11 -12 -12 -11 -13 -10 -14 -10 -13 -9 -15 -9 -15 -7 -15 -8 -16 -6 -16 -5 -16 -5 -17 -4 -17 -3 -17 -3 -18 -1 -18 0 -18 15 0 0 17 1 18 3 16 3 17 3 17 5 16 5 15 6 16 7 15 8 14 8 14 8 14 10 13 10 13 11 12 11 12 12 11 12 11 13 10 13 9 14 9 14 8 14 8 15 7 16 6 15 5 16 5 17 3 16 3 17 3 18 1 17 0 0 0z"/>
    </g>
   </g>
   <g>
    <path class="fil0" d="M1896 3898l-63 0 -79 -109c-6,0 -11,0 -14,0 -2,0 -4,0 -5,0 -2,0 -4,0 -5,0l0 68c0,15 1,24 4,27 5,5 11,8 20,8l9 0 0 6 -100 0 0 -6 9 0c9,0 17,-3 21,-10 2,-3 3,-12 3,-25l0 -152c0,-14 -1,-23 -4,-27 -5,-5 -12,-8 -20,-8l-9 0 0 -6 85 0c25,0 43,2 55,5 12,4 22,11 30,21 8,9 13,21 13,34 0,15 -5,27 -15,38 -9,10 -23,18 -43,22l48 67c11,16 21,26 29,31 8,5 18,9 31,10l0 6zm-166 -120c2,0 4,0 5,0 2,0 3,0 4,0 22,0 39,-5 50,-14 11,-10 17,-22 17,-37 0,-15 -5,-27 -14,-36 -9,-9 -21,-14 -36,-14 -6,0 -15,1 -26,3l0 98z"/>
    <path id="1" class="fil0" d="M2054 3853l-16 45 -138 0 0 -6c41,-37 69,-67 86,-91 16,-23 25,-45 25,-64 0,-15 -5,-27 -14,-37 -9,-9 -20,-14 -33,-14 -11,0 -22,3 -31,10 -9,7 -16,16 -20,29l-6 0c3,-21 10,-37 22,-49 12,-11 27,-17 45,-17 19,0 34,7 47,19 13,12 19,26 19,43 0,12 -2,24 -8,36 -9,18 -22,38 -41,59 -29,31 -47,50 -54,56l61 0c12,0 21,-1 26,-1 5,-1 9,-3 13,-6 4,-3 8,-7 11,-12l6 0z"/>
    <g>
     <path class="fil0" d="M2187 3781l15 0 0 0 -1 19 -1 17 -2 18 -3 18 -4 17 -5 16 -6 17 -6 16 -7 16 -8 15 -8 15 -10 14 -10 14 -10 13 -11 13 -12 12 -12 12 -13 11 -13 11 -14 9 -14 10 -15 8 -15 8 -16 7 -16 6 -17 6 -16 5 -17 4 -18 3 -18 2 -17 1 -19 1 0 -15 18 -1 17 -1 17 -2 17 -3 16 -4 16 -5 16 -5 15 -6 15 -7 15 -7 14 -8 14 -9 13 -10 13 -10 12 -10 12 -11 11 -12 10 -12 10 -13 10 -13 9 -14 8 -14 7 -15 7 -15 6 -15 5 -16 5 -16 4 -16 3 -17 2 -17 1 -17 1 -18 0 0zm-339 -338l0 -15 0 0 19 1 17 1 18 2 18 3 17 4 16 5 17 5 16 7 16 7 15 8 15 8 14 9 14 10 13 11 13 11 12 12 12 12 11 13 10 13 10 14 10 14 8 15 8 15 7 16 6 16 6 16 5 17 4 17 3 18 2 17 1 18 1 18 -15 0 -1 -17 -1 -17 -2 -17 -3 -17 -4 -16 -5 -16 -5 -16 -6 -15 -7 -15 -7 -15 -8 -14 -9 -14 -10 -13 -10 -13 -10 -12 -11 -12 -12 -11 -12 -11 -13 -10 -13 -9 -14 -9 -14 -8 -15 -8 -15 -6 -15 -6 -16 -6 -16 -4 -16 -4 -17 -3 -17 -2 -17 -1 -18 -1 0 0zm-338 338l-15 0 0 0 0 -18 2 -18 2 -17 3 -18 4 -17 5 -17 5 -16 7 -16 7 -16 8 -15 8 -15 9 -14 10 -14 11 -13 11 -13 12 -12 12 -12 13 -11 13 -11 14 -10 14 -9 15 -8 15 -8 16 -7 16 -7 16 -5 17 -5 17 -4 18 -3 17 -2 18 -1 18 -1 0 15 -17 1 -17 1 -17 2 -17 3 -16 4 -16 4 -16 6 -15 6 -15 6 -15 8 -14 8 -14 9 -13 9 -13 10 -12 11 -12 11 -11 12 -11 12 -10 13 -9 13 -9 14 -8 14 -8 15 -6 15 -6 15 -6 16 -4 16 -4 16 -3 17 -2 17 -1 17 -1 17 0 0zm338 339l0 15 0 0 -18 -1 -18 -1 -17 -2 -18 -3 -17 -4 -17 -5 -16 -6 -16 -6 -16 -7 -15 -8 -15 -8 -14 -10 -14 -9 -13 -11 -13 -11 -12 -12 -12 -12 -11 -13 -11 -13 -10 -14 -9 -14 -8 -15 -8 -15 -7 -16 -7 -16 -5 -17 -5 -16 -4 -17 -3 -18 -2 -18 -2 -17 0 -19 15 0 1 18 1 17 2 17 3 17 4 16 4 16 6 16 6 15 6 15 8 15 8 14 9 14 9 13 10 13 11 12 11 12 12 11 12 10 13 10 13 10 14 9 14 8 15 7 15 7 15 6 16 5 16 5 16 4 17 3 17 2 17 1 17 1 0 0z"/>
    </g>
   </g>
   <g>
    <path class="fil0" d="M1587 2588l-63 0 -80 -110c-5,0 -10,0 -14,0 -1,0 -3,0 -4,0 -2,0 -4,0 -6,0l0 68c0,15 2,24 5,28 5,5 11,7 20,7l9 0 0 7 -100 0 0 -7 8 0c10,0 17,-3 22,-9 2,-4 3,-12 3,-26l0 -151c0,-15 -1,-24 -5,-28 -4,-5 -11,-7 -20,-7l-8 0 0 -7 85 0c25,0 43,2 55,6 12,3 22,10 30,20 8,9 12,21 12,35 0,14 -4,27 -14,37 -9,11 -24,18 -43,23l48 67c11,15 21,25 29,31 7,5 18,8 31,9l0 7zm-167 -121c3,0 4,0 6,0 2,0 3,0 4,0 22,0 39,-5 50,-14 11,-10 17,-22 17,-37 0,-15 -5,-27 -14,-36 -9,-9 -21,-14 -36,-14 -6,0 -15,1 -27,4l0 97z"/>
    <path id="1" class="fil0" d="M1601 2398c7,-16 15,-28 25,-36 11,-9 23,-13 38,-13 19,0 34,6 44,18 7,9 11,19 11,29 0,17 -11,35 -32,53 14,6 25,14 33,24 7,10 11,23 11,37 0,20 -7,38 -20,52 -16,20 -41,29 -73,29 -16,0 -26,-1 -32,-5 -6,-4 -9,-9 -9,-13 0,-3 2,-6 5,-9 2,-2 5,-4 9,-4 3,0 6,1 9,2 2,0 6,2 13,6 7,4 12,6 15,7 4,1 9,2 13,2 12,0 22,-5 31,-14 9,-9 13,-20 13,-32 0,-9 -2,-18 -6,-27 -3,-6 -6,-11 -10,-15 -5,-4 -11,-8 -20,-12 -9,-4 -18,-6 -27,-6l-5 0 0 -5c9,-1 18,-4 27,-10 9,-5 16,-12 20,-19 4,-8 6,-16 6,-25 0,-12 -3,-22 -11,-29 -7,-7 -16,-11 -28,-11 -17,0 -32,10 -44,29l-6 -3z"/>
    <g>
     <path class="fil0" d="M1877 2471l15 0 0 0 0 18 -1 18 -3 17 -3 18 -4 17 -4 17 -6 16 -6 16 -7 16 -8 15 -9 15 -9 14 -10 14 -10 13 -11 13 -12 12 -12 12 -13 11 -13 11 -14 10 -15 9 -14 8 -16 8 -15 7 -16 6 -17 6 -17 5 -17 4 -17 3 -18 2 -18 1 -18 1 0 -15 18 -1 17 -1 17 -2 16 -3 17 -4 16 -4 15 -6 16 -6 15 -6 14 -8 15 -8 13 -9 14 -9 12 -10 13 -11 11 -11 12 -12 10 -12 10 -13 10 -13 8 -14 9 -14 7 -15 7 -15 6 -15 5 -16 5 -16 4 -16 3 -17 2 -17 1 -17 0 -17 0 0zm-338 -339l0 -15 0 0 18 1 18 1 18 2 17 3 17 4 17 5 17 6 16 6 15 7 16 8 14 8 15 10 14 9 13 11 13 11 12 12 12 12 11 13 10 13 10 14 9 14 9 15 8 15 7 16 6 16 6 17 4 16 4 17 3 18 3 17 1 18 0 19 -15 0 0 -18 -1 -17 -2 -17 -3 -17 -4 -16 -5 -16 -5 -16 -6 -15 -7 -15 -7 -15 -9 -14 -8 -14 -10 -13 -10 -13 -10 -12 -12 -12 -11 -11 -13 -10 -12 -10 -14 -10 -13 -9 -15 -8 -14 -7 -15 -7 -16 -6 -15 -5 -16 -5 -17 -4 -16 -3 -17 -2 -17 -1 -18 -1 0 0zm-338 339l-15 0 0 0 0 -19 2 -18 2 -17 3 -18 4 -17 5 -16 5 -17 7 -16 7 -16 7 -15 9 -15 9 -14 10 -14 10 -13 12 -13 11 -12 13 -12 12 -11 14 -11 14 -9 14 -10 15 -8 15 -8 16 -7 16 -6 16 -6 17 -5 17 -4 17 -3 18 -2 18 -1 18 -1 0 15 -17 1 -17 1 -17 2 -17 3 -16 4 -16 5 -16 5 -16 6 -15 7 -14 7 -14 8 -14 9 -13 10 -13 10 -12 10 -12 11 -11 12 -11 12 -10 13 -9 13 -9 14 -8 14 -8 15 -7 15 -6 15 -5 16 -5 16 -3 16 -3 17 -2 17 -2 17 0 18 0 0zm338 338l0 15 0 0 -18 -1 -18 -1 -18 -2 -17 -3 -17 -4 -17 -5 -16 -6 -16 -6 -16 -7 -15 -8 -15 -8 -14 -9 -14 -10 -14 -11 -12 -11 -13 -12 -11 -12 -12 -13 -10 -13 -10 -14 -9 -14 -9 -15 -7 -15 -7 -16 -7 -16 -5 -16 -5 -17 -4 -17 -3 -18 -2 -17 -2 -18 0 -18 15 0 0 17 2 17 2 17 3 17 3 16 5 16 5 16 6 15 7 15 8 15 8 14 9 14 9 13 10 13 11 12 11 12 12 11 12 11 13 10 13 9 14 9 14 8 14 8 15 6 16 6 16 6 16 4 16 4 17 3 17 2 17 1 17 1 0 0z"/>
    </g>
   </g>
   <g>
    <path class="fil0" d="M80 2397l1 2 0 2 1 1 0 2 0 2 0 2 0 1 0 2 0 2 0 2 0 1 -1 2 0 2 -1 1 0 2 -1 1 -1 2 0 1 -1 2 -1 1 -1 2 -1 1 -1 1 -2 2 -1 1 -1 1 -2 1 -1 1 -2 1 -1 1 -2 0 -2 1 0 0 -1 1 -2 0 -2 1 -1 0 -2 0 -2 0 -2 0 -1 0 -2 0 -2 0 -2 0 -1 0 -2 -1 -2 0 -1 -1 -2 -1 -1 0 -2 -1 -1 -1 -2 -1 -1 -1 -1 -1 -2 -1 -1 -1 -1 -2 -1 -1 -1 -1 -1 -2 -1 -1 -1 -2 -1 -2 -1 -1 0 0 0 -2 -1 -2 0 -2 0 -1 -1 -2 0 -2 0 -2 0 -1 0 -2 0 -2 1 -1 0 -2 0 -2 1 -1 1 -2 0 -2 1 -1 1 -2 1 -1 1 -2 1 -1 1 -1 1 -2 1 -1 1 -1 2 -1 1 -1 2 -1 1 -1 2 -1 1 -1 2 0 0 0 2 -1 1 -1 2 0 2 0 2 -1 1 0 2 0 2 0 2 0 1 1 2 0 2 0 1 1 2 0 2 1 1 0 2 1 1 1 2 1 1 1 2 1 1 1 1 1 1 1 2 2 1 1 1 1 1 2 1 1 1 2 0 1 1 2 0 0zm184 601l-224 -585 14 -6 224 586 -14 5zm29 56l-94 -98 3 1 4 0 4 0 3 0 4 0 3 0 4 0 3 -1 4 0 3 -1 3 0 4 -1 3 -1 3 -1 3 -1 3 -1 3 -1 4 -2 3 -1 3 -2 2 -1 3 -2 3 -2 3 -2 3 -2 3 -2 2 -2 3 -3 3 -2 2 -2 3 -3 2 -3 0 0 -5 136z"/>
   </g>
   <g>
    <path class="fil0" d="M1960 432l-1 1 -2 1 -2 1 -1 1 -2 1 -1 0 -2 1 -2 0 -1 1 -2 0 -2 0 -2 0 -1 0 -2 0 -2 0 -1 0 -2 0 -2 -1 -1 0 -2 -1 -2 0 -1 -1 -2 -1 -1 0 -2 -1 -1 -1 -2 -1 -1 -2 -1 -1 -2 -1 -1 -1 -1 -2 0 0 -1 -1 -1 -2 -1 -1 -1 -2 0 -2 -1 -1 -1 -2 0 -2 0 -1 -1 -2 0 -2 0 -1 0 -2 0 -2 0 -2 0 -1 1 -2 0 -2 0 -1 1 -2 0 -2 1 -1 1 -2 1 -1 1 -2 1 -1 1 -1 1 -2 1 -1 1 -1 2 -2 1 -1 0 0 2 -1 1 -1 2 -1 1 0 2 -1 1 -1 2 0 2 -1 1 0 2 -1 2 0 2 0 1 0 2 0 2 0 1 0 2 1 2 0 1 1 2 0 2 1 1 0 2 1 1 1 2 1 1 1 2 1 1 1 1 1 2 1 1 2 1 1 0 0 1 2 1 1 1 2 1 1 0 2 1 2 1 1 0 2 0 2 1 1 0 2 0 2 0 1 0 2 0 2 0 2 0 1 -1 2 0 2 -1 1 0 2 -1 1 -1 2 -1 2 -1 1 -1 1 -1 2 -1 1 -1 2 -1 1 -2 1 -1 1 0 0zm-393 242l367 -276 9 12 -366 276 -10 -12zm-45 44l67 -118 1 4 1 4 1 3 1 4 1 3 1 3 1 4 1 3 2 3 1 3 2 3 1 3 2 3 2 3 2 2 2 3 2 3 2 2 2 3 3 2 2 3 2 2 3 2 3 2 2 3 3 2 3 2 3 2 3 1 3 2 3 2 4 2 0 0 -132 32z"/>
   </g>
   <g>
    <path class="fil0" d="M4060 3273l-1 -1 0 -2 0 -2 0 -2 0 -2 0 -1 0 -2 0 -2 1 -1 0 -2 1 -2 0 -1 1 -2 1 -2 1 -1 0 -1 1 -2 1 -1 1 -2 2 -1 1 -1 1 -1 1 -1 2 -1 1 -1 2 -1 1 -1 2 -1 2 -1 1 0 2 -1 2 0 0 0 2 -1 1 0 2 0 2 0 2 0 1 0 2 0 2 1 2 0 1 0 2 1 1 0 2 1 2 1 1 1 2 0 1 1 1 1 2 2 1 1 1 1 1 1 1 1 2 2 0 1 1 2 1 1 1 2 1 2 0 1 1 2 0 2 0 0 1 2 0 1 0 2 0 2 0 2 0 1 0 2 0 2 -1 2 0 1 -1 2 0 1 -1 2 -1 2 -1 1 0 2 -1 1 -1 1 -1 2 -2 1 -1 1 -1 1 -1 1 -2 2 -1 1 -2 0 -1 1 -2 1 -1 1 -2 0 -2 1 -2 0 0 0 -1 1 -2 0 -2 0 -2 0 -2 0 -1 0 -2 0 -2 0 -1 -1 -2 0 -2 -1 -1 0 -2 -1 -2 -1 -1 -1 -2 0 -1 -1 -1 -1 -2 -1 -1 -2 -1 -1 -1 -1 -1 -1 -1 -2 -1 -1 -1 -2 -1 -1 -1 -2 -1 -1 0 -2 -1 -2 0 -2 0 0zm-91 -601l133 592 -15 3 -133 -592 15 -3zm-21 -60l79 110 -3 0 -4 -1 -3 -1 -4 0 -3 -1 -4 0 -3 0 -4 -1 -3 0 -4 1 -3 0 -3 0 -4 0 -3 1 -3 0 -4 1 -3 1 -3 1 -3 1 -4 1 -3 1 -3 1 -3 2 -3 1 -3 2 -3 1 -3 2 -3 2 -3 2 -3 2 -3 2 -3 3 0 0 25 -134z"/>
   </g>
   <path class="fil0" d="M1837 4467l17 -176c1,-9 2,-15 2,-18 0,-4 -2,-8 -6,-11 -3,-4 -9,-5 -16,-5l-6 0 2 -6 83 0 -2 6c-9,0 -15,1 -18,3 -4,2 -6,5 -8,9 -1,2 -2,9 -4,19l-12 126 83 -112c9,-12 14,-21 17,-25 1,-4 2,-7 2,-9 0,-3 -1,-5 -4,-7 -2,-2 -7,-4 -13,-4l2 -6 63 0 -2 6c-5,0 -9,1 -12,3 -5,3 -11,7 -17,12 -5,6 -14,17 -27,33l-118 162 -6 0z"/>
   <path id="1" class="fil0" d="M2093 4462l-105 0 0 -6c54,-46 89,-83 106,-110 8,-12 12,-25 12,-39 0,-10 -3,-19 -10,-26 -7,-7 -15,-10 -26,-10 -14,0 -26,7 -36,21l-5 -3c5,-13 13,-23 23,-31 10,-7 21,-11 33,-11 13,0 25,5 34,14 9,9 13,20 13,33 0,9 -1,18 -5,26 -5,12 -14,25 -27,40 -20,23 -47,50 -81,80l53 0c8,0 15,-2 21,-6 5,-3 9,-8 12,-14l6 0 -18 42z"/>
   <path class="fil0" d="M2707 3782l17 -175c1,-9 1,-15 1,-18 0,-5 -2,-9 -5,-12 -4,-3 -9,-5 -17,-5l-5 0 1 -5 84 0 -2 5c-9,0 -15,1 -19,3 -3,2 -6,5 -8,9 -1,3 -2,9 -3,20l-12 126 82 -113c9,-12 15,-20 17,-25 2,-3 2,-6 2,-8 0,-3 -1,-6 -3,-8 -3,-2 -7,-3 -14,-4l2 -5 63 0 -1 5c-5,1 -9,2 -12,3 -6,3 -12,7 -17,13 -6,5 -15,16 -27,33l-119 161 -5 0z"/>
   <path id="1" class="fil0" d="M2901 3662l0 -4c25,-4 44,-11 56,-22 9,-8 14,-18 14,-29 0,-8 -3,-15 -8,-20 -5,-5 -11,-8 -19,-8 -11,0 -22,7 -31,21l-5 -1c5,-12 12,-21 20,-27 9,-6 18,-9 28,-9 12,0 22,3 30,10 7,8 11,17 11,28 0,10 -4,19 -11,28 -7,8 -19,16 -36,23 11,5 19,11 24,19 6,9 8,19 8,30 0,13 -3,26 -11,39 -7,13 -17,23 -31,30 -13,7 -26,11 -40,11 -14,0 -23,-2 -30,-7 -5,-3 -7,-6 -7,-11 0,-3 1,-6 4,-9 3,-3 6,-4 10,-4 3,0 5,1 8,1 2,1 6,3 12,7 7,3 12,6 15,7 4,1 8,2 12,2 9,0 17,-6 23,-16 6,-11 9,-23 9,-35 0,-10 -2,-19 -6,-27 -5,-7 -11,-14 -20,-18 -9,-5 -18,-8 -29,-9z"/>
   <path class="fil0" d="M9 4008l17 -175c1,-9 1,-15 1,-18 0,-5 -2,-9 -5,-12 -4,-3 -9,-4 -16,-4l-6 0 2 -6 83 0 -2 6c-9,0 -15,1 -19,2 -3,2 -6,5 -8,9 -1,3 -2,9 -3,20l-12 126 82 -112c9,-13 15,-21 17,-26 2,-3 3,-6 3,-8 0,-3 -2,-6 -4,-8 -2,-2 -7,-3 -13,-3l1 -6 64 0 -2 6c-5,0 -9,1 -12,2 -6,3 -11,7 -17,13 -6,5 -15,16 -27,33l-118 161 -6 0z"/>
   <path id="1" class="fil0" d="M310 3793l-40 138 25 0 -6 20 -25 0 -16 56 -23 0 16 -56 -76 0 6 -22 127 -136 12 0zm-35 40l-90 98 62 0 28 -98z"/>
   <path class="fil0" d="M4178 2761l17 -176c1,-9 2,-14 2,-18 0,-4 -2,-8 -5,-11 -4,-3 -9,-5 -17,-5l-5 0 1 -6 83 0 -2 6c-9,0 -15,1 -18,3 -3,2 -6,5 -8,9 -1,2 -2,9 -3,20l-13 125 83 -112c9,-12 14,-21 17,-25 1,-4 2,-6 2,-9 0,-3 -1,-5 -4,-7 -2,-2 -6,-4 -13,-4l2 -6 63 0 -2 6c-5,0 -9,1 -12,3 -5,3 -11,7 -17,12 -5,6 -14,17 -26,34l-119 161 -6 0z"/>
   <path id="1" class="fil0" d="M4406 2545l71 0 -7 26 -64 0 -12 26c17,3 30,8 40,16 14,12 21,29 21,50 0,15 -2,28 -8,39 -5,12 -11,22 -19,30 -8,8 -16,14 -25,18 -12,7 -24,10 -36,10 -11,0 -19,-3 -25,-7 -4,-3 -6,-7 -6,-12 0,-4 1,-7 4,-9 2,-3 6,-4 10,-4 5,0 11,2 18,8 4,3 8,6 10,7 2,1 5,1 8,1 12,0 22,-6 32,-17 10,-12 15,-27 15,-46 0,-13 -3,-24 -8,-33 -5,-9 -12,-15 -20,-19 -8,-4 -19,-7 -32,-8l33 -76z"/>
   <path class="fil0" d="M1494 3143l17 -175c1,-9 1,-15 1,-18 0,-5 -2,-9 -5,-12 -4,-3 -9,-5 -17,-5l-5 0 1 -5 83 0 -1 5c-9,1 -15,1 -19,3 -3,2 -6,5 -8,9 -1,3 -2,9 -3,20l-12 126 82 -112c9,-13 15,-21 17,-26 1,-3 2,-6 2,-8 0,-3 -1,-6 -3,-8 -3,-2 -7,-3 -14,-4l2 -5 63 0 -1 5c-5,1 -9,2 -12,3 -6,3 -12,7 -17,13 -6,5 -15,16 -27,33l-119 161 -5 0z"/>
   <path id="1" class="fil0" d="M1807 2924l0 6c-18,4 -35,13 -52,26 -17,13 -31,30 -44,51 11,-5 21,-7 28,-7 13,0 24,5 33,14 10,10 14,22 14,39 0,24 -8,45 -24,63 -16,17 -33,26 -51,26 -17,0 -30,-6 -38,-18 -9,-13 -13,-27 -13,-43 0,-22 5,-42 14,-63 10,-21 23,-38 40,-53 17,-15 35,-26 53,-33 10,-4 24,-7 40,-8zm-103 96c-15,31 -22,58 -22,79 0,11 2,20 8,26 6,7 12,10 19,10 12,0 23,-9 34,-26 10,-17 15,-37 15,-60 0,-12 -3,-22 -9,-28 -6,-7 -13,-10 -22,-10 -3,0 -7,0 -10,2 -3,1 -8,3 -13,7z"/>
   <path class="fil0" d="M2878 2019l18 -176c0,-9 1,-14 1,-18 0,-4 -2,-8 -5,-11 -4,-3 -9,-5 -17,-5l-5 0 1 -6 83 0 -1 6c-9,0 -16,1 -19,3 -3,2 -6,5 -8,9 -1,2 -2,9 -3,20l-13 125 83 -112c9,-12 14,-21 17,-25 1,-4 2,-6 2,-9 0,-3 -1,-5 -3,-7 -3,-2 -7,-4 -14,-4l2 -6 63 0 -1 6c-6,0 -10,1 -13,3 -5,3 -11,7 -17,12 -5,6 -14,17 -26,34l-119 161 -6 0z"/>
   <path id="1" class="fil0" d="M3086 1803l105 0 0 6 -118 209 -13 -6 104 -184 -50 0c-14,0 -24,1 -29,4 -5,2 -10,8 -17,17l-6 0 24 -46z"/>
   <path class="fil0" d="M1743 234l0 -6 9 0c10,0 17,-3 21,-10 2,-3 3,-12 3,-25l0 -152c0,-14 -1,-23 -4,-27 -5,-5 -11,-8 -20,-8l-9 0 0 -6 95 0c35,0 62,4 80,12 18,8 33,21 44,40 11,18 17,40 17,64 0,33 -10,60 -30,82 -22,24 -56,36 -102,36l-104 0zm67 -17c14,3 27,5 36,5 27,0 49,-9 67,-28 17,-19 26,-44 26,-76 0,-33 -9,-58 -26,-77 -18,-19 -40,-28 -68,-28 -10,0 -22,2 -35,5l0 199z"/>
   <polygon class="fil0" points="3792,3557 3882,3557 3882,3583 3792,3583 "/>
   <path id="1" class="fil0" d="M3891 3415l63 0 143 176 0 -135c0,-15 -1,-24 -5,-27 -4,-5 -11,-7 -20,-7l-8 0 0 -7 82 0 0 7 -8 0c-10,0 -17,3 -22,9 -2,3 -3,12 -3,25l0 197 -7 0 -154 -188 0 144c0,14 2,23 5,27 4,5 11,7 20,7l9 0 0 6 -83 0 0 -6 9 0c10,0 17,-3 21,-9 3,-4 4,-12 4,-25l0 -163c-7,-8 -12,-13 -16,-16 -3,-2 -8,-5 -15,-7 -3,-1 -8,-1 -15,-1l0 -7z"/>
   <path id="2" class="fil0" d="M4180 3576l40 -20 4 0 0 139c0,9 0,15 1,17 0,2 2,4 4,5 3,1 8,2 15,2l0 5 -62 0 0 -5c8,0 13,-1 15,-2 3,-1 4,-2 5,-4 1,-2 2,-8 2,-18l0 -89c0,-12 -1,-19 -2,-23 0,-2 -1,-4 -3,-5 -1,-2 -3,-2 -5,-2 -3,0 -7,1 -13,3l-1 -3z"/>
   <path class="fil0" d="M211 2191l63 0 143 176 0 -136c0,-14 -1,-23 -4,-27 -5,-5 -12,-7 -21,-7l-8 0 0 -6 82 0 0 6 -8 0c-10,0 -17,3 -22,9 -2,4 -3,12 -3,25l0 198 -7 0 -154 -189 0 144c0,15 2,24 5,27 4,5 11,8 20,8l9 0 0 6 -83 0 0 -6 9 0c10,0 17,-3 21,-9 3,-4 4,-13 4,-26l0 -163c-7,-8 -12,-13 -15,-15 -4,-3 -9,-5 -16,-7 -3,-1 -8,-2 -15,-2l0 -6z"/>
   <path id="1" class="fil0" d="M584 2467l-11 32 -97 0 0 -4c29,-26 49,-47 60,-64 12,-16 17,-31 17,-45 0,-10 -3,-19 -9,-25 -6,-7 -14,-10 -23,-10 -8,0 -15,2 -22,6 -6,5 -11,12 -14,21l-4 0c2,-15 7,-26 15,-34 9,-8 19,-12 32,-12 13,0 24,4 33,13 9,8 13,18 13,30 0,8 -2,17 -6,25 -5,13 -15,27 -29,41 -20,22 -32,35 -37,40l43 0c8,0 14,-1 18,-1 3,-1 6,-2 9,-4 3,-2 5,-5 7,-9l5 0z"/>
   <g>
    <path class="fil0" d="M446 3500l-63 0 -80 -109c-5,0 -10,0 -14,0 -1,0 -3,0 -4,0 -2,0 -4,0 -6,0l0 68c0,15 2,24 5,27 5,5 11,8 20,8l9 0 0 6 -100 0 0 -6 8 0c10,0 17,-3 22,-10 2,-3 3,-12 3,-25l0 -152c0,-14 -1,-23 -5,-27 -4,-5 -11,-8 -20,-8l-8 0 0 -6 85 0c25,0 43,2 55,5 12,4 22,11 30,21 8,9 12,21 12,34 0,15 -4,27 -14,38 -9,10 -24,18 -43,22l48 67c11,16 21,26 29,31 8,5 18,9 31,10l0 6zm-167 -120c3,0 4,0 6,0 2,0 3,0 4,0 22,0 39,-5 50,-14 11,-10 17,-23 17,-37 0,-15 -5,-27 -14,-36 -9,-9 -21,-14 -36,-14 -6,0 -15,1 -27,3l0 98z"/>
    <path id="1" class="fil0" d="M483 3289l58 -28 5 0 0 198c0,13 1,21 2,25 1,3 3,5 7,7 3,2 10,3 21,3l0 6 -88 0 0 -6c11,0 18,-1 21,-3 3,-2 5,-4 7,-7 1,-2 2,-11 2,-25l0 -127c0,-17 -1,-27 -2,-32 -1,-4 -2,-7 -4,-8 -3,-2 -5,-3 -8,-3 -5,0 -10,2 -18,5l-3 -5z"/>
    <g>
     <path class="fil0" d="M736 3383l16 0 0 0 -1 19 -1 17 -3 18 -3 18 -4 17 -4 16 -6 17 -6 16 -7 16 -8 15 -9 15 -9 14 -10 14 -10 13 -11 13 -12 12 -12 12 -13 11 -13 11 -14 9 -15 10 -14 8 -16 8 -15 7 -16 6 -17 6 -17 5 -17 4 -17 3 -18 2 -18 1 -18 1 0 -15 18 -1 17 -1 17 -2 16 -3 17 -4 16 -5 16 -5 15 -6 15 -7 14 -7 15 -8 13 -9 14 -10 12 -10 13 -10 11 -11 12 -12 10 -12 10 -13 10 -13 9 -14 8 -14 7 -15 7 -15 6 -15 5 -16 5 -16 4 -16 3 -17 2 -17 1 -17 0 -18 0 0zm-338 -338l0 -15 0 0 18 1 18 1 18 2 17 3 17 4 17 5 17 5 16 7 15 7 16 8 14 8 15 9 14 10 13 11 13 11 12 12 12 12 11 13 10 13 10 14 9 14 9 15 8 15 7 16 6 16 6 16 4 17 4 17 3 18 3 17 1 18 1 18 -16 0 0 -17 -1 -17 -2 -17 -3 -17 -4 -16 -5 -16 -5 -16 -6 -15 -7 -15 -7 -15 -8 -14 -9 -14 -10 -13 -10 -13 -10 -12 -12 -12 -11 -11 -13 -11 -12 -10 -14 -9 -13 -9 -15 -8 -14 -8 -15 -6 -15 -6 -16 -6 -16 -4 -17 -4 -16 -3 -17 -2 -17 -1 -18 -1 0 0zm-338 338l-15 0 0 0 0 -18 2 -18 2 -17 3 -18 4 -17 5 -17 5 -16 7 -16 7 -16 7 -15 9 -15 9 -14 10 -14 11 -13 11 -13 11 -12 13 -12 12 -11 14 -11 14 -10 14 -9 15 -8 15 -8 16 -7 16 -7 16 -5 17 -5 17 -4 17 -3 18 -2 18 -1 18 -1 0 15 -17 1 -17 1 -17 2 -17 3 -16 4 -16 4 -16 6 -16 6 -14 6 -15 8 -14 8 -14 9 -13 9 -13 10 -12 11 -12 11 -11 12 -11 12 -10 13 -9 13 -9 14 -8 14 -8 15 -7 15 -6 15 -5 16 -4 16 -4 16 -3 17 -2 17 -2 17 0 17 0 0zm338 339l0 15 0 0 -18 -1 -18 -1 -18 -2 -17 -3 -17 -4 -17 -5 -16 -6 -16 -6 -16 -7 -15 -8 -15 -8 -14 -10 -14 -9 -14 -11 -12 -11 -13 -12 -11 -12 -11 -13 -11 -13 -10 -14 -9 -14 -9 -15 -7 -15 -7 -16 -7 -16 -5 -17 -5 -16 -4 -17 -3 -18 -2 -18 -2 -17 0 -19 15 0 0 18 2 17 2 17 3 17 4 16 4 16 5 16 6 15 7 15 8 15 8 14 9 14 9 13 10 13 11 12 11 12 12 11 12 10 13 10 13 10 14 9 14 8 15 7 14 7 16 6 16 5 16 5 16 4 17 3 17 2 17 1 17 1 0 0z"/>
    </g>
   </g>
   <g>
    <path class="fil0" d="M3017 1507l-63 0 -80 -109c-5,0 -10,0 -14,0 -1,0 -3,0 -4,0 -2,0 -4,0 -6,0l0 68c0,15 2,24 5,28 5,5 11,7 20,7l9 0 0 6 -100 0 0 -6 8 0c10,0 17,-3 22,-10 2,-3 3,-12 3,-25l0 -151c0,-15 -1,-24 -5,-28 -4,-5 -11,-7 -20,-7l-8 0 0 -7 85 0c25,0 43,2 55,6 12,3 22,10 30,20 8,9 12,21 12,34 0,15 -4,27 -14,38 -9,11 -24,18 -43,23l48 67c11,15 21,25 29,30 7,6 18,9 31,10l0 6zm-167 -120c3,0 4,0 6,0 2,0 3,0 4,0 22,0 39,-5 50,-14 11,-10 17,-22 17,-37 0,-15 -5,-27 -14,-36 -9,-9 -21,-14 -36,-14 -6,0 -15,1 -27,3l0 98z"/>
    <path id="1" class="fil0" d="M3031 1318c7,-16 15,-28 25,-37 11,-8 23,-12 38,-12 19,0 34,6 44,18 7,9 11,19 11,29 0,17 -11,35 -32,53 14,5 25,13 33,24 7,10 11,23 11,37 0,20 -7,38 -20,52 -16,20 -41,29 -73,29 -16,0 -26,-2 -32,-6 -6,-3 -9,-8 -9,-12 0,-3 2,-6 5,-9 2,-2 5,-4 9,-4 3,0 6,1 9,2 2,0 6,2 13,6 7,4 12,6 15,7 4,1 9,2 13,2 12,0 22,-5 31,-14 9,-9 13,-20 13,-32 0,-9 -2,-18 -6,-27 -3,-6 -6,-11 -10,-15 -5,-4 -11,-8 -20,-12 -9,-4 -18,-6 -27,-6l-5 0 0 -5c9,-1 18,-5 27,-10 9,-5 16,-12 20,-19 4,-8 6,-16 6,-25 0,-12 -3,-22 -11,-29 -7,-7 -16,-11 -28,-11 -17,0 -32,10 -44,29l-6 -3z"/>
    <g>
     <path class="fil0" d="M3307 1391l15 0 0 0 0 18 -1 18 -3 17 -3 18 -4 17 -4 17 -6 16 -6 16 -7 16 -8 15 -9 15 -9 14 -10 14 -10 13 -11 13 -12 12 -12 12 -13 11 -13 11 -14 9 -15 10 -14 8 -16 8 -15 7 -16 6 -17 6 -17 5 -17 4 -17 3 -18 2 -18 1 -18 1 0 -15 18 -1 17 -1 17 -2 16 -3 17 -4 16 -4 15 -6 16 -6 15 -7 14 -7 15 -8 13 -9 14 -9 12 -10 13 -11 11 -11 12 -12 10 -12 10 -13 10 -13 8 -14 9 -14 7 -15 7 -15 6 -15 5 -16 5 -16 4 -16 3 -17 2 -17 1 -17 0 -17 0 0zm-338 -339l0 -15 0 0 18 1 18 1 18 2 17 3 17 4 17 5 17 6 16 6 15 7 16 8 14 8 15 10 14 9 13 11 13 11 12 12 12 12 11 13 10 13 10 14 9 14 9 15 8 15 7 16 6 16 6 16 4 17 4 17 3 18 3 17 1 18 0 19 -15 0 0 -18 -1 -17 -2 -17 -3 -17 -4 -16 -5 -16 -5 -16 -6 -15 -7 -15 -7 -15 -9 -14 -8 -14 -10 -13 -10 -13 -10 -12 -12 -12 -11 -11 -13 -11 -12 -10 -14 -9 -13 -9 -15 -8 -14 -7 -15 -7 -16 -6 -15 -6 -16 -4 -17 -4 -16 -3 -17 -2 -17 -1 -18 -1 0 0zm-338 339l-15 0 0 0 0 -19 2 -18 2 -17 3 -18 4 -17 5 -17 5 -16 7 -16 7 -16 7 -15 9 -15 9 -14 10 -14 10 -13 12 -13 11 -12 13 -12 12 -11 14 -11 14 -9 14 -10 15 -8 15 -8 16 -7 16 -6 16 -6 17 -5 17 -4 17 -3 18 -2 18 -1 18 -1 0 15 -17 1 -17 1 -17 2 -17 3 -16 4 -16 4 -16 6 -16 6 -15 7 -14 7 -14 8 -14 9 -13 9 -13 10 -12 11 -12 11 -11 12 -11 12 -10 13 -9 13 -9 14 -8 14 -8 15 -7 15 -6 15 -5 16 -5 16 -3 16 -3 17 -2 17 -2 17 0 18 0 0zm338 338l0 15 0 0 -18 -1 -18 -1 -18 -2 -17 -3 -17 -4 -17 -5 -16 -6 -16 -6 -16 -7 -15 -8 -15 -8 -14 -10 -14 -9 -14 -11 -12 -11 -13 -12 -11 -12 -12 -13 -10 -13 -10 -14 -9 -14 -9 -15 -7 -15 -7 -16 -7 -16 -5 -16 -5 -17 -4 -17 -3 -18 -2 -17 -2 -18 0 -18 15 0 0 17 2 17 2 17 3 17 3 16 5 16 5 16 6 15 7 15 8 15 8 14 9 14 9 13 10 13 11 12 11 12 12 11 12 11 13 10 13 9 14 9 14 8 14 7 15 7 16 6 16 6 16 4 16 4 17 3 17 2 17 1 17 1 0 0z"/>
    </g>
   </g>
   <g>
    <path class="fil0" d="M1318 4162l233 -202 10 12 -234 201 -9 -11zm-43 46l60 -122 1 4 1 3 1 4 1 3 1 4 1 3 2 3 1 3 2 3 2 3 1 3 2 3 2 3 2 2 2 3 2 3 3 2 2 2 2 3 3 2 2 2 3 2 3 3 2 2 3 2 3 1 3 2 3 2 3 2 4 1 3 2 3 1 0 0 -129 41z"/>
   </g>
   <g>
    <path class="fil0" d="M2183 3547l341 -231 9 12 -342 231 -8 -12zm-48 41l73 -114 1 4 1 3 0 4 1 3 1 4 1 3 1 3 1 4 1 3 2 3 1 3 2 3 1 3 2 3 1 3 2 3 2 2 2 3 2 3 2 2 3 3 2 2 3 3 2 2 3 2 2 2 3 3 3 2 3 2 3 2 3 2 3 1 0 0 -133 26z"/>
   </g>
   <g>
    <path class="fil0" d="M3124 2863l464 -292 8 13 -464 292 -8 -13zm-49 40l77 -112 0 4 1 4 1 3 0 4 1 3 1 4 1 3 1 3 1 4 1 3 1 3 2 3 1 3 2 3 1 3 2 3 2 3 2 2 2 3 2 3 2 2 2 3 3 2 2 3 3 2 2 2 3 3 3 2 3 2 3 2 3 2 3 2 0 0 -134 21z"/>
   </g>
   <g>
    <path class="fil0" d="M819 4156l-245 -475 13 -7 245 475 -13 7zm36 52l-105 -86 4 0 3 0 4 -1 3 0 4 0 3 -1 4 -1 3 0 3 -1 4 -1 3 -1 3 -1 3 -1 3 -2 3 -1 3 -2 3 -1 3 -2 3 -2 3 -2 3 -1 2 -3 3 -2 3 -2 2 -2 3 -3 2 -2 3 -3 2 -2 2 -3 3 -3 2 -3 0 0 10 135z"/>
   </g>
   <g>
    <path class="fil0" d="M1365 2789l-8 -13 13 -8 8 13 -13 8zm-26 16l-8 -13 13 -8 8 13 -13 8zm-25 15l-8 -12 13 -8 8 12 -13 8zm-26 16l-8 -12 13 -8 8 12 -13 8zm-25 16l-8 -12 13 -8 8 12 -13 8zm-26 16l-8 -13 13 -8 8 13 -13 8zm-25 16l-8 -13 13 -8 8 13 -13 8zm-26 16l-8 -13 13 -8 8 13 -13 8zm-25 16l-8 -13 13 -8 8 13 -13 8zm-26 16l-8 -13 13 -8 8 13 -13 8zm-25 16l-8 -13 13 -8 8 13 -13 8zm-26 16l-8 -13 13 -8 8 13 -13 8zm-25 16l-8 -13 13 -8 8 13 -13 8zm-26 16l-8 -13 13 -8 8 13 -13 8zm-25 16l-8 -13 13 -8 8 13 -13 8zm-26 15l-7 -12 12 -8 8 13 -13 7zm-25 16l-8 -12 13 -8 8 12 -13 8zm-26 16l-7 -12 12 -8 8 12 -13 8zm-25 16l-8 -12 13 -8 8 12 -13 8zm-25 16l-8 -13 12 -7 8 12 -12 8zm-26 16l-8 -13 13 -8 8 13 -13 8zm-25 16l-8 -13 12 -8 8 13 -12 8zm-26 16l-8 -13 13 -8 8 13 -13 8zm-25 16l-8 -13 12 -8 8 13 -12 8zm-26 16l-8 -13 13 -8 8 13 -13 8zm-61 29l77 -111 0 4 1 3 1 4 0 3 1 4 1 3 1 4 1 3 1 3 1 3 1 4 2 3 1 3 2 3 1 3 2 2 2 3 2 3 2 3 2 2 2 3 2 2 3 3 2 2 3 3 2 2 3 2 3 2 3 3 3 2 3 2 3 2 0 0 -134 20z"/>
   </g>
   <g>
    <path class="fil0" d="M3413 2328l-1544 45 0 -15 1543 -45 1 15zm62 -10l-123 58 2 -4 1 -3 1 -4 2 -3 1 -3 1 -4 1 -3 0 -3 1 -4 1 -3 0 -4 1 -3 0 -3 0 -4 0 -3 0 -3 0 -4 0 -3 -1 -3 0 -4 -1 -3 0 -3 -1 -4 -1 -3 -1 -3 -1 -3 -1 -4 -2 -3 -1 -3 -2 -4 -1 -3 -2 -3 0 0 126 49z"/>
   </g>
   <g>
    <path class="fil0" d="M3552 2011l-328 -388 11 -10 328 389 -11 9zm46 43l-121 -60 3 -1 4 -1 3 -1 4 -2 3 -1 3 -1 3 -2 4 -1 3 -2 3 -1 2 -2 3 -2 3 -2 3 -2 3 -2 2 -2 3 -2 2 -2 2 -3 3 -2 2 -3 2 -2 2 -3 2 -3 2 -2 2 -3 2 -3 2 -3 2 -4 1 -3 2 -3 1 -3 0 0 40 129z"/>
   </g>
   <g>
    <path class="fil0" d="M1426 1415l-15 3 -3 -15 15 -2 3 14zm5 30l-15 2 -3 -14 15 -3 3 15zm5 30l-15 2 -3 -15 15 -2 3 15zm5 29l-15 3 -3 -15 15 -3 3 15zm5 30l-15 2 -3 -14 15 -3 3 15zm5 29l-15 3 -2 -15 14 -2 3 14zm5 30l-15 3 -2 -15 14 -3 3 15zm5 30l-15 2 -2 -15 14 -2 3 15zm5 29l-15 3 -2 -15 15 -2 2 14zm5 30l-15 2 -2 -14 15 -3 2 15zm5 30l-15 2 -2 -15 15 -2 2 15zm5 29l-15 3 -2 -15 15 -3 2 15zm5 30l-14 2 -3 -14 15 -3 2 15zm5 29l-14 3 -3 -15 15 -2 2 14zm5 30l-14 3 -3 -15 15 -3 2 15zm5 30l-14 2 -3 -15 15 -2 2 15zm6 29l-15 3 -3 -15 15 -2 3 14zm5 30l-15 2 -3 -14 15 -3 3 15zm5 30l-15 2 -3 -15 15 -2 3 15zm5 29l-15 3 -3 -15 15 -3 3 15zm5 30l-15 2 -3 -14 15 -3 3 15zm5 29l-15 3 -2 -15 14 -2 3 14zm-11 27l-1 -9 14 -3 2 10 -15 2zm18 61l-74 -114 4 1 4 1 3 1 4 0 3 1 4 1 3 0 3 0 4 0 3 1 4 0 3 -1 3 0 4 0 3 0 3 -1 4 -1 3 0 3 -1 3 -1 4 -1 3 -1 3 -1 3 -2 3 -1 3 -2 4 -1 3 -2 3 -2 3 -2 3 -2 3 -2 0 0 -32 132z"/>
   </g>
   <g>
    <path class="fil0" d="M2573 1289l-814 -226 4 -14 814 225 -4 15zm63 9l-135 18 3 -3 2 -2 2 -3 3 -3 2 -3 2 -3 1 -3 2 -3 2 -3 1 -3 2 -3 1 -3 1 -3 2 -3 1 -3 1 -4 0 -3 1 -3 1 -3 0 -4 1 -3 0 -3 0 -4 0 -3 0 -4 0 -3 0 -4 0 -3 0 -4 -1 -3 0 -4 -1 -4 0 0 106 85z"/>
   </g>
   <path class="fil0" d="M891 1607l17 -176c1,-9 1,-15 1,-18 0,-4 -2,-8 -5,-11 -4,-4 -9,-5 -16,-5l-6 0 2 -6 83 0 -2 6c-9,0 -15,1 -19,3 -3,2 -6,5 -8,9 -1,2 -2,9 -3,19l-12 126 82 -112c9,-12 15,-21 17,-25 2,-4 3,-7 3,-9 0,-3 -2,-5 -4,-7 -2,-2 -7,-4 -13,-4l1 -6 63 0 -1 6c-5,0 -9,1 -12,3 -6,3 -12,7 -17,12 -6,6 -15,17 -27,33l-119 162 -5 0z"/>
   <path id="1" class="fil0" d="M1144 1484c10,11 17,21 22,30 5,10 7,19 7,29 0,16 -7,31 -19,44 -13,12 -29,19 -48,19 -17,0 -31,-6 -41,-16 -11,-10 -16,-22 -16,-36 0,-11 4,-23 13,-34 8,-11 25,-22 49,-33 -10,-11 -16,-20 -19,-28 -3,-7 -5,-14 -5,-21 0,-14 5,-26 15,-36 11,-10 24,-15 40,-15 14,0 27,4 36,13 10,9 14,19 14,30 0,11 -4,22 -11,31 -8,9 -20,17 -37,23zm-6 -7c11,-3 20,-10 26,-18 6,-9 9,-19 9,-30 0,-11 -3,-19 -9,-25 -6,-6 -13,-9 -23,-9 -9,0 -17,3 -23,8 -5,6 -8,14 -8,23 0,7 1,13 4,19 5,9 13,20 24,32zm-22 17c-15,6 -27,15 -35,28 -8,12 -11,25 -11,39 0,11 3,20 10,27 7,7 16,10 28,10 11,0 21,-4 30,-12 8,-8 12,-18 12,-30 0,-8 -3,-18 -7,-27 -5,-10 -14,-22 -27,-35z"/>
  </g>
 </g>
</svg>
