<?xml version="1.0" encoding="UTF-8"?>
<!DOCTYPE svg PUBLIC "-//W3C//DTD SVG 1.1//EN" "http://www.w3.org/Graphics/SVG/1.1/DTD/svg11.dtd">
<!-- Creator: CorelDRAW Home & Student X8 -->
<svg xmlns="http://www.w3.org/2000/svg" xml:space="preserve" width="110.691mm" height="102.261mm" version="1.1" style="shape-rendering:geometricPrecision; text-rendering:geometricPrecision; image-rendering:optimizeQuality; fill-rule:evenodd; clip-rule:evenodd"
viewBox="0 0 6506 6010"
 xmlns:xlink="http://www.w3.org/1999/xlink">
 <defs>
  <style type="text/css">
   <![CDATA[
    .str2 {stroke:#2B2A29;stroke-width:29.3866}
    .str0 {stroke:#2B2A29;stroke-width:17.632}
    .str1 {stroke:black;stroke-width:84.0692}
    .str3 {stroke:black;stroke-width:84.0692}
    .fil1 {fill:none}
    .fil0 {fill:#2B2A29;fill-rule:nonzero}
   ]]>
  </style>
 </defs>
 <g id="Warstwa_x0020_1">
  <metadata id="CorelCorpID_0Corel-Layer"/>
  <g id="_498827248">
   <path class="fil0" d="M3212 261c-19,15 -31,24 -35,26 -8,3 -15,5 -24,5 -13,0 -23,-4 -31,-13 -9,-9 -13,-21 -13,-35 0,-9 2,-17 6,-23 6,-10 15,-18 29,-26 14,-8 37,-18 68,-30l0 -7c0,-19 -3,-31 -8,-38 -6,-7 -15,-11 -26,-11 -8,0 -15,3 -20,7 -5,5 -8,10 -8,16l1 12c0,6 -2,11 -5,14 -3,4 -8,5 -13,5 -5,0 -9,-1 -12,-5 -3,-3 -5,-8 -5,-14 0,-12 6,-23 18,-32 12,-10 29,-15 50,-15 17,0 30,3 41,8 8,4 13,11 17,20 3,6 4,18 4,35l0 63c0,18 0,29 1,33 1,4 2,6 3,8 2,1 4,2 6,2 2,0 4,-1 5,-2 3,-1 9,-6 17,-14l0 11c-15,20 -30,31 -44,31 -6,0 -12,-3 -16,-7 -3,-5 -5,-13 -6,-24zm0 -13l0 -71c-20,9 -33,14 -39,18 -11,6 -19,12 -23,18 -5,7 -7,14 -7,21 0,10 3,18 8,25 6,6 13,9 21,9 10,0 24,-6 40,-20z"/>
   <path id="1" class="fil0" d="M3288 9l0 -9c20,10 37,22 51,36 19,19 34,43 45,69 10,27 16,54 16,83 0,42 -11,80 -31,115 -21,34 -48,59 -81,74l0 -8c16,-10 30,-22 41,-38 11,-16 19,-36 24,-60 5,-25 8,-50 8,-77 0,-29 -2,-55 -7,-79 -3,-18 -8,-33 -13,-44 -5,-11 -11,-22 -20,-33 -8,-10 -19,-20 -33,-29z"/>
   <rect class="fil1 str0" x="1666" y="1244" width="2491" height="1316" rx="152" ry="152"/>
   <path class="fil0" d="M1874 1888l47 70c13,20 23,32 29,37 7,5 15,8 25,9l0 5 -95 0 0 -5c6,-1 11,-1 14,-2 2,-1 4,-3 6,-5 1,-2 2,-4 2,-6 0,-2 -1,-5 -2,-7 0,-2 -3,-7 -9,-15l-37 -56 -46 59c-4,6 -7,10 -8,12 -1,3 -2,5 -2,7 0,3 2,6 5,9 2,2 8,3 16,4l0 5 -78 0 0 -5c6,-1 10,-2 14,-4 7,-3 14,-6 20,-11 6,-5 13,-12 20,-22l51 -65 -42 -64c-12,-17 -22,-29 -30,-34 -8,-5 -18,-8 -28,-8l0 -6 101 0 0 6c-8,0 -14,1 -17,4 -3,2 -5,5 -5,8 0,4 3,10 8,18l33 50 39 -49c5,-6 7,-10 8,-12 1,-3 2,-5 2,-7 0,-2 -1,-4 -2,-6 -2,-2 -4,-4 -6,-5 -3,-1 -8,-1 -15,-1l0 -6 77 0 0 6c-6,0 -11,1 -15,2 -5,3 -11,6 -16,11 -5,4 -11,12 -20,23l-44 56z"/>
   <path class="fil0" d="M2284 1322l77 0 0 6 -4 0c-3,0 -7,1 -13,3 -5,3 -10,7 -14,11 -5,5 -10,12 -17,23l-52 83 0 55c0,14 1,22 4,26 4,4 11,7 20,7l7 0 0 6 -94 0 0 -6 8 0c9,0 16,-3 20,-9 2,-3 3,-11 3,-24l0 -51 -60 -93c-7,-11 -12,-17 -14,-20 -3,-3 -8,-6 -16,-10 -2,-1 -5,-1 -9,-1l0 -6 93 0 0 6 -5 0c-5,0 -9,1 -14,3 -4,3 -6,6 -6,11 0,4 3,11 10,21l45 71 44 -68c6,-10 10,-18 10,-23 0,-3 -1,-5 -3,-8 -1,-2 -4,-4 -7,-5 -2,-2 -7,-2 -13,-2l0 -6z"/>
   <path id="1" class="fil0" d="M2517 1499l-15 43 -130 0 0 -6c39,-35 65,-64 81,-86 15,-22 23,-42 23,-60 0,-14 -4,-25 -13,-34 -8,-9 -18,-14 -30,-14 -11,0 -21,3 -29,10 -9,6 -15,15 -19,27l-6 0c2,-20 9,-35 21,-46 11,-10 25,-16 42,-16 17,0 32,6 44,18 12,11 18,25 18,40 0,11 -2,22 -8,33 -8,18 -21,36 -39,56 -26,29 -43,47 -49,53l56 0c12,0 20,-1 25,-2 4,0 9,-2 12,-5 4,-2 7,-6 10,-11l6 0z"/>
   <path class="fil0" d="M3351 1350l76 0 0 6 -4 0c-3,0 -7,1 -12,3 -6,3 -11,6 -15,11 -4,5 -10,12 -16,23l-53 83 0 55c0,14 1,22 4,26 5,4 11,7 20,7l7 0 0 6 -94 0 0 -6 8 0c9,0 16,-3 20,-9 2,-3 4,-11 4,-24l0 -51 -61 -93c-7,-11 -11,-17 -14,-20 -3,-3 -8,-6 -16,-10 -2,-1 -5,-1 -9,-1l0 -6 94 0 0 6 -5 0c-5,0 -10,1 -14,3 -5,3 -7,6 -7,11 0,4 4,11 10,21l46 71 43 -68c7,-10 10,-18 10,-23 0,-3 -1,-5 -3,-8 -1,-2 -3,-4 -6,-5 -3,-2 -8,-2 -13,-2l0 -6z"/>
   <path id="1" class="fil0" d="M3470 1371l54 -26 5 0 0 186c0,12 1,20 2,23 1,3 3,5 6,7 3,1 10,2 20,3l0 6 -83 0 0 -6c11,-1 17,-1 20,-3 3,-2 5,-4 7,-6 1,-3 1,-11 1,-24l0 -119c0,-16 0,-26 -1,-31 -1,-3 -2,-6 -4,-7 -2,-2 -5,-3 -8,-3 -4,0 -9,2 -16,5l-3 -5z"/>
   <path class="fil0" d="M3924 1509l-145 206 91 0c13,0 24,-3 31,-9 8,-6 14,-18 20,-36l5 0 -10 59 -179 0 0 -6 141 -201 -70 0c-12,0 -20,1 -26,4 -5,2 -9,6 -12,11 -2,5 -5,14 -7,27l-6 0 4 -55 163 0z"/>
   <path id="1" class="fil0" d="M3974 1530l54 -26 5 0 0 186c0,12 1,20 2,23 1,3 3,5 6,7 3,2 10,2 20,3l0 6 -83 0 0 -6c10,-1 17,-1 20,-3 3,-2 5,-4 6,-6 2,-3 2,-11 2,-24l0 -119c0,-16 0,-26 -1,-31 -1,-3 -3,-6 -5,-7 -2,-2 -4,-3 -7,-3 -4,0 -9,2 -17,5l-2 -5z"/>
   <path class="fil0" d="M3900 2067l-144 207 90 0c14,0 24,-3 32,-9 7,-6 14,-19 19,-37l6 1 -11 58 -178 0 0 -6 140 -201 -70 0c-12,0 -20,2 -25,4 -5,3 -9,6 -12,11 -3,5 -5,14 -8,27l-6 0 5 -55 162 0z"/>
   <path id="1" class="fil0" d="M4064 2244l-16 43 -129 0 0 -6c38,-35 65,-63 80,-85 16,-22 24,-42 24,-61 0,-14 -5,-25 -13,-34 -9,-9 -19,-13 -31,-13 -11,0 -20,3 -29,9 -8,6 -15,15 -19,27l-6 0c3,-19 10,-35 21,-45 11,-11 25,-16 42,-16 18,0 33,5 45,17 12,11 18,25 18,40 0,12 -3,23 -8,34 -8,17 -21,36 -39,55 -27,30 -44,47 -50,53l57 0c11,0 19,0 24,-1 5,-1 9,-3 13,-5 3,-3 7,-7 9,-12l7 0z"/>
   <path class="fil0" d="M2368 2036l0 -7 10 0c12,0 20,-4 25,-12 3,-4 4,-14 4,-29l0 -178c0,-17 -1,-28 -5,-32 -5,-6 -13,-9 -24,-9l-10 0 0 -8 112 0c41,0 72,5 93,14 22,9 39,25 52,47 13,22 20,47 20,75 0,38 -12,70 -35,96 -26,29 -66,43 -119,43l-123 0zm78 -20c18,4 32,6 44,6 31,0 57,-11 77,-33 21,-22 31,-52 31,-90 0,-38 -10,-68 -31,-90 -20,-22 -47,-33 -79,-33 -12,0 -26,2 -42,6l0 234z"/>
   <path id="1" class="fil0" d="M2955 1761l0 8c-10,1 -17,5 -22,9 -7,7 -14,17 -19,31l-96 233 -7 0 -103 -236c-5,-13 -9,-20 -11,-23 -4,-4 -8,-7 -13,-10 -5,-2 -11,-4 -20,-4l0 -8 113 0 0 8c-13,1 -21,3 -25,6 -4,3 -6,7 -6,12 0,7 3,17 9,32l70 161 65 -159c7,-16 10,-27 10,-33 0,-4 -2,-8 -6,-11 -4,-4 -11,-6 -20,-8 -1,0 -2,0 -3,0l0 -8 84 0z"/>
   <path id="2" class="fil0" d="M3210 1755l6 93 -6 0c-9,-28 -21,-48 -36,-60 -16,-12 -34,-19 -56,-19 -18,0 -34,5 -49,14 -15,10 -26,24 -35,45 -8,20 -12,45 -12,75 0,25 4,47 12,65 8,18 20,32 35,42 16,10 35,14 55,14 18,0 33,-3 47,-11 14,-8 29,-23 45,-45l6 4c-14,24 -30,42 -48,53 -18,12 -40,17 -65,17 -46,0 -81,-17 -106,-50 -18,-26 -28,-55 -28,-89 0,-28 6,-53 19,-76 12,-23 29,-40 50,-53 22,-13 45,-19 71,-19 19,0 39,5 58,15 6,2 10,4 12,4 4,0 7,-1 10,-4 3,-4 6,-9 7,-15l8 0z"/>
   <path id="3" class="fil0" d="M3365 2029l0 7 -118 0 0 -7 10 0c11,0 19,-4 24,-10 4,-5 5,-15 5,-31l0 -178c0,-14 -1,-23 -2,-28 -2,-3 -4,-6 -9,-9 -6,-3 -12,-4 -18,-4l-10 0 0 -8 118 0 0 8 -10 0c-11,0 -20,3 -25,9 -3,5 -5,15 -5,32l0 178c0,13 1,23 3,27 1,3 4,6 8,9 6,3 12,5 19,5l10 0z"/>
   <path id="4" class="fil0" d="M3503 2029l0 7 -118 0 0 -7 10 0c11,0 19,-4 25,-10 3,-5 4,-15 4,-31l0 -178c0,-14 -1,-23 -2,-28 -2,-3 -4,-6 -9,-9 -6,-3 -12,-4 -18,-4l-10 0 0 -8 118 0 0 8 -10 0c-11,0 -19,3 -25,9 -3,5 -5,15 -5,32l0 178c0,13 1,23 3,27 1,3 4,6 9,9 5,3 11,5 18,5l10 0z"/>
   <rect class="fil1 str0" x="1727" y="3914" width="2491" height="1316" rx="152" ry="152"/>
   <path class="fil0" d="M1935 4558l47 70c13,20 23,32 29,37 7,5 15,8 24,9l0 6 -94 0 0 -6c6,0 11,-1 14,-2 2,-1 4,-3 5,-5 2,-2 3,-4 3,-6 0,-2 -1,-5 -2,-7 -1,-2 -4,-7 -9,-14l-37 -56 -46 58c-5,6 -8,11 -9,13 -1,2 -1,4 -1,6 0,4 1,6 4,9 3,2 9,3 17,4l0 6 -78 0 0 -6c5,-1 10,-2 14,-4 7,-3 13,-6 19,-11 6,-5 13,-12 21,-22l51 -65 -42 -64c-12,-17 -22,-28 -30,-34 -8,-5 -18,-8 -29,-8l0 -6 102 0 0 6c-8,0 -14,1 -18,4 -3,2 -4,5 -4,8 0,4 2,10 7,18l34 50 39 -49c4,-6 7,-10 8,-12 1,-2 2,-5 2,-7 0,-2 -1,-4 -2,-6 -2,-2 -4,-4 -6,-5 -3,-1 -8,-1 -16,-1l0 -6 78 0 0 6c-6,0 -11,1 -15,3 -6,2 -11,5 -16,10 -5,4 -12,12 -20,23l-44 56z"/>
   <path class="fil0" d="M2345 3992l77 0 0 6 -4 0c-3,0 -7,1 -13,4 -5,2 -10,6 -15,10 -4,5 -9,13 -16,23l-53 83 0 56c0,13 2,22 5,25 4,5 11,7 20,7l7 0 0 6 -94 0 0 -6 8 0c9,0 16,-3 20,-9 2,-3 3,-11 3,-23l0 -52 -60 -93c-7,-10 -12,-17 -14,-20 -3,-3 -8,-6 -16,-10 -2,-1 -6,-1 -10,-1l0 -6 94 0 0 6 -5 0c-5,0 -10,1 -14,3 -4,3 -6,6 -6,11 0,4 3,11 10,21l45 71 44 -68c6,-10 9,-17 9,-22 0,-3 -1,-6 -2,-9 -2,-2 -4,-4 -7,-5 -3,-2 -7,-2 -13,-2l0 -6z"/>
   <path id="1" class="fil0" d="M2465 4013l53 -25 6 0 0 185c0,12 0,20 1,23 1,3 3,5 7,7 3,2 10,3 20,3l0 6 -83 0 0 -6c10,0 17,-1 20,-3 3,-1 5,-4 6,-6 1,-3 2,-11 2,-24l0 -119c0,-16 -1,-26 -2,-31 -1,-3 -2,-6 -4,-7 -2,-2 -4,-3 -7,-3 -4,0 -10,2 -17,5l-2 -5z"/>
   <path class="fil0" d="M3411 4020l77 0 0 6 -4 0c-3,0 -7,1 -12,4 -6,2 -11,6 -15,10 -5,5 -10,13 -17,23l-52 83 0 56c0,13 1,22 4,25 4,5 11,7 20,7l7 0 0 6 -94 0 0 -6 8 0c9,0 16,-3 20,-9 2,-3 3,-11 3,-23l0 -52 -60 -93c-7,-11 -12,-17 -14,-20 -3,-3 -8,-6 -16,-10 -2,-1 -5,-1 -9,-1l0 -6 93 0 0 6 -5 0c-5,0 -9,1 -14,3 -4,3 -6,6 -6,11 0,4 3,11 10,21l45 71 44 -68c6,-10 10,-17 10,-22 0,-3 -1,-6 -3,-9 -1,-2 -4,-4 -7,-5 -2,-2 -7,-2 -13,-2l0 -6z"/>
   <path id="1" class="fil0" d="M3644 4197l-15 43 -130 0 0 -6c39,-35 65,-63 81,-85 15,-22 23,-43 23,-61 0,-14 -4,-25 -13,-34 -8,-9 -18,-14 -30,-14 -11,0 -21,4 -29,10 -9,6 -15,15 -19,27l-6 0c2,-20 9,-35 21,-46 11,-10 25,-15 42,-15 17,0 32,5 44,17 12,11 18,25 18,40 0,11 -2,23 -8,34 -8,17 -21,36 -39,55 -26,30 -43,47 -49,53l56 0c12,0 20,-1 25,-1 4,-1 9,-3 12,-6 4,-2 7,-6 10,-11l6 0z"/>
   <path class="fil0" d="M3985 4179l-145 207 90 0c14,0 25,-3 32,-10 7,-6 14,-18 20,-36l5 1 -10 58 -179 0 0 -6 141 -201 -70 0c-12,0 -21,1 -26,4 -5,3 -9,6 -12,11 -3,5 -5,14 -7,27l-6 0 4 -55 163 0z"/>
   <path id="1" class="fil0" d="M4035 4200l53 -25 6 0 0 185c0,12 0,20 1,23 1,3 4,5 7,7 3,2 10,3 20,3l0 6 -83 0 0 -6c10,0 17,-1 20,-3 3,-1 5,-4 6,-6 1,-3 2,-11 2,-24l0 -119c0,-16 -1,-26 -2,-31 0,-3 -2,-6 -4,-7 -2,-2 -4,-3 -7,-3 -4,0 -10,2 -17,5l-2 -5z"/>
   <path class="fil0" d="M3961 4737l-144 207 90 0c13,0 24,-3 31,-9 8,-6 14,-19 20,-37l5 1 -10 58 -179 0 0 -6 141 -201 -70 0c-12,0 -20,2 -25,4 -6,3 -10,6 -12,11 -3,5 -6,14 -8,27l-6 0 5 -55 162 0z"/>
   <path id="1" class="fil0" d="M4125 4914l-16 43 -129 0 0 -6c38,-35 65,-63 80,-85 16,-22 23,-42 23,-60 0,-14 -4,-26 -12,-35 -9,-9 -19,-13 -31,-13 -11,0 -20,3 -29,9 -9,6 -15,16 -19,28l-6 0c3,-20 10,-36 21,-46 11,-11 25,-16 42,-16 18,0 32,6 44,17 12,12 18,25 18,41 0,11 -2,22 -8,33 -7,17 -20,36 -38,56 -27,29 -44,46 -50,52l57 0c11,0 19,0 24,-1 5,-1 9,-3 12,-5 4,-3 7,-7 10,-12l7 0z"/>
   <path class="fil0" d="M2429 4706l0 -7 10 0c12,0 20,-4 25,-11 3,-5 4,-15 4,-30l0 -178c0,-17 -2,-28 -5,-32 -6,-6 -14,-9 -24,-9l-10 0 0 -8 112 0c41,0 72,5 93,14 22,10 39,25 52,47 13,22 19,47 19,75 0,39 -11,71 -34,96 -26,29 -66,43 -119,43l-123 0zm78 -20c17,4 32,6 43,6 32,0 57,-11 78,-33 21,-22 31,-52 31,-90 0,-38 -10,-68 -31,-90 -21,-21 -47,-32 -79,-32 -12,0 -26,2 -42,6l0 233z"/>
   <path id="1" class="fil0" d="M3015 4431l0 8c-9,2 -17,5 -22,9 -7,7 -13,17 -19,31l-95 233 -7 0 -103 -236c-6,-13 -9,-20 -11,-23 -4,-4 -8,-7 -13,-10 -5,-2 -11,-4 -20,-4l0 -8 112 0 0 8c-12,1 -21,3 -24,6 -4,3 -6,7 -6,12 0,7 3,18 9,32l70 161 65 -159c6,-16 10,-27 10,-33 0,-4 -2,-7 -6,-11 -4,-4 -11,-6 -20,-8 -1,0 -2,0 -4,0l0 -8 84 0z"/>
   <path id="2" class="fil0" d="M3270 4425l7 93 -7 0c-8,-28 -20,-48 -35,-60 -16,-12 -34,-18 -56,-18 -18,0 -35,4 -49,13 -15,10 -26,24 -35,45 -8,20 -12,45 -12,75 0,25 3,47 11,65 8,18 20,32 36,42 16,10 34,15 55,15 17,0 33,-4 47,-12 13,-7 28,-23 45,-45l6 4c-14,24 -30,42 -48,54 -19,11 -40,16 -66,16 -45,0 -80,-16 -105,-50 -19,-25 -28,-55 -28,-89 0,-27 6,-53 18,-76 13,-23 30,-40 51,-53 21,-13 45,-19 70,-19 20,0 40,5 59,15 5,3 10,4 12,4 4,0 7,-1 9,-4 4,-3 6,-8 8,-15l7 0z"/>
   <path id="3" class="fil0" d="M3425 4699l0 7 -117 0 0 -7 9 0c12,0 20,-4 25,-10 3,-4 5,-15 5,-31l0 -178c0,-14 -1,-23 -3,-28 -1,-3 -4,-6 -8,-8 -6,-4 -12,-5 -19,-5l-9 0 0 -8 117 0 0 8 -9 0c-12,0 -20,3 -25,10 -3,4 -5,14 -5,31l0 178c0,14 1,23 3,27 1,4 4,7 8,9 6,3 12,5 19,5l9 0z"/>
   <path id="4" class="fil0" d="M3564 4699l0 7 -118 0 0 -7 10 0c11,0 19,-4 24,-10 4,-4 5,-15 5,-31l0 -178c0,-14 -1,-23 -2,-28 -2,-3 -5,-6 -9,-8 -6,-4 -12,-5 -18,-5l-10 0 0 -8 118 0 0 8 -10 0c-12,0 -20,3 -25,10 -3,4 -5,14 -5,31l0 178c0,14 1,23 3,27 1,4 4,7 8,9 6,3 12,5 19,5l10 0z"/>
   <path class="fil1 str1" d="M5451 2681l454 0m-454 -168l454 0"/>
   <polyline class="fil1 str2" points="4834,3000 4668,2933 5005,2798 4668,2664 5005,2530 4668,2395 5005,2261 4834,2193 "/>
   <polyline class="fil1 str2" points="1062,3000 896,2933 1233,2798 896,2664 1233,2530 896,2395 1233,2261 1062,2193 "/>
   <polyline class="fil1 str0" points="1062,2193 1062,1955 1672,1955 "/>
   <g>
    <path class="fil0" d="M1053 3410l0 -410 18 0 0 410 -18 0zm-80 0l0 -11 178 0 0 21 -178 0 0 -10z"/>
   </g>
   <g>
    <path class="fil0" d="M4799 3410l0 -410 17 0 0 410 -17 0zm-80 0l0 -11 177 0 0 21 -177 0 0 -10z"/>
   </g>
   <g>
    <path class="fil0" d="M5669 3410l0 -712 17 0 0 712 -17 0zm-80 0l0 -11 177 0 0 21 -177 0 0 -10z"/>
   </g>
   <polyline class="fil1 str2" points="1062,5590 896,5523 1233,5389 896,5254 1233,5120 896,4985 1233,4851 1062,4784 "/>
   <polyline class="fil1 str0" points="1062,4784 1062,4545 1672,4545 "/>
   <g>
    <path class="fil0" d="M1053 6000l0 -410 18 0 0 410 -18 0zm-80 0l0 -11 178 0 0 21 -178 0 0 -10z"/>
   </g>
   <g>
    <path class="fil0" d="M4448 2184l-291 0 0 -18 291 0 0 18zm0 80l-10 0 0 -178 21 0 0 178 -11 0z"/>
   </g>
   <g>
    <path class="fil0" d="M4448 4854l-230 0 0 -18 230 0 0 18zm0 79l-10 0 0 -177 21 0 0 177 -11 0z"/>
   </g>
   <path class="fil1 str3" d="M4840 4793l454 0m-454 -168l454 0"/>
   <g>
    <path class="fil0" d="M5058 5522l0 -712 17 0 0 712 -17 0zm-80 0l0 -11 177 0 0 21 -177 0 0 -10z"/>
   </g>
   <polyline class="fil1 str0" points="4182,1616 6135,1616 6135,3756 3481,3755 3481,4018 "/>
   <g>
    <path class="fil0" d="M4843 1616l0 577 -18 0 0 -577 18 0zm-51 0l0 0 0 -2 0 -2 1 -3 0 -2 0 -2 1 -2 1 -1 0 -2 1 -2 1 -2 1 -2 1 -1 1 -2 2 -2 1 -1 1 -2 2 -1 1 -1 2 -2 2 -1 1 -1 2 -1 2 -1 2 -1 2 0 2 -1 1 -1 3 0 2 0 2 -1 2 0 2 0 0 0 2 0 2 0 2 1 2 0 2 0 2 1 2 1 2 0 2 1 2 1 2 1 1 1 2 1 1 2 2 1 1 1 2 2 1 1 1 2 2 2 1 1 1 2 1 2 0 2 1 2 1 1 0 2 1 2 0 2 0 3 1 2 0 2 0 0 0 2 -1 2 0 2 0 2 -1 2 0 2 -1 2 -1 2 0 2 -1 2 -1 1 -1 2 -2 2 -1 1 -1 2 -2 1 -1 2 -2 1 -1 1 -2 1 -1 2 -2 1 -2 1 -2 0 -2 1 -2 1 -2 0 -2 1 -2 0 -2 0 -2 1 -2 0 0 0 -2 0 -2 -1 -2 0 -2 0 -3 -1 -1 0 -2 -1 -2 -1 -2 0 -2 -1 -2 -1 -1 -2 -2 -1 -2 -1 -1 -1 -2 -2 -1 -1 -1 -2 -2 -1 -1 -2 -1 -2 -1 -1 -1 -2 -1 -2 0 -2 -1 -2 -1 -2 0 -2 0 -2 -1 -2 0 -2 0 -2z"/>
   </g>
   <g>
    <path class="fil0" d="M5678 1609l0 904 -17 0 0 -904 17 0zm-50 0l0 0 0 -2 0 -2 0 -3 1 -2 0 -2 1 -2 0 -2 1 -1 1 -2 1 -2 1 -2 1 -2 1 -1 1 -2 2 -1 1 -2 2 -1 1 -1 2 -2 1 -1 2 -1 2 -1 2 -1 1 -1 2 0 2 -1 2 -1 2 0 2 -1 2 0 2 0 3 0 0 0 2 0 2 0 2 0 2 1 2 0 2 1 2 1 2 0 2 1 2 1 1 1 2 1 2 1 1 2 2 1 1 1 2 2 1 1 1 2 1 1 1 2 1 2 1 2 1 2 1 1 1 2 0 2 1 2 0 2 0 3 0 2 0 2 0 0 0 2 0 2 0 2 0 2 -1 2 0 2 -1 2 -1 2 -1 2 -1 2 -1 1 -1 2 -1 2 -1 1 -1 2 -2 1 -1 2 -2 1 -1 1 -2 1 -2 2 -1 1 -2 0 -2 1 -2 1 -2 1 -2 0 -2 1 -2 0 -2 0 -2 1 -2 0 0 0 -3 0 -2 -1 -2 0 -2 0 -2 -1 -2 0 -2 -1 -2 -1 -1 -1 -2 0 -2 -1 -2 -2 -1 -1 -2 -1 -1 -1 -2 -2 -1 -1 -2 -2 -1 -1 -1 -2 -1 -2 -1 -1 -1 -2 -1 -2 -1 -2 0 -2 -1 -2 0 -2 -1 -2 0 -2 0 -2 0 -2z"/>
   </g>
   <g>
    <path class="fil0" d="M5741 1022l0 0 0 3 -1 4 0 3 -1 4 -1 3 -1 3 -1 3 -1 3 -1 3 -2 3 -1 3 -2 3 -2 3 -2 2 -2 3 -3 2 -2 2 -3 3 -2 2 -3 1 -3 2 -3 2 -2 1 -4 2 -3 1 -3 1 -3 1 -3 1 -4 0 -3 1 -4 0 -3 0 0 -21 2 0 3 0 2 0 2 -1 3 0 2 -1 2 -1 2 -1 2 0 3 -2 2 -1 1 -1 2 -1 2 -2 2 -1 2 -2 1 -1 2 -2 1 -2 1 -2 2 -2 1 -2 1 -2 1 -2 1 -2 1 -2 0 -2 1 -3 0 -2 0 -2 1 -3 0 -2 0 0 21 0zm-69 -69l0 0 4 0 3 0 4 1 3 0 3 1 4 1 3 1 3 1 3 2 3 1 3 2 3 2 2 2 3 2 2 2 3 2 2 3 2 2 2 3 2 2 2 3 1 3 2 3 1 3 2 3 1 3 1 4 0 3 1 3 0 4 1 3 0 4 -21 0 0 -3 0 -2 -1 -3 0 -2 -1 -2 0 -2 -1 -3 -1 -2 -1 -2 -1 -2 -1 -2 -1 -2 -2 -2 -1 -2 -2 -1 -1 -2 -2 -2 -2 -1 -1 -2 -2 -1 -2 -1 -2 -1 -2 -1 -2 -1 -2 -1 -3 -1 -2 -1 -2 0 -3 -1 -2 0 -2 0 -3 0 0 0 0 -21zm-69 68l0 0 1 -3 0 -4 0 -3 1 -4 1 -3 1 -3 1 -3 1 -3 1 -3 2 -3 2 -3 1 -3 2 -3 2 -2 2 -3 3 -2 2 -2 3 -3 2 -2 3 -2 3 -1 3 -2 3 -1 3 -2 3 -1 3 -1 3 -1 4 -1 3 0 3 -1 4 0 3 0 0 21 -2 0 -3 0 -2 0 -2 1 -3 0 -2 1 -2 1 -2 0 -2 1 -2 1 -2 2 -2 1 -2 1 -2 2 -2 1 -2 2 -1 1 -2 2 -1 2 -1 2 -2 2 -1 2 -1 2 -1 2 -1 2 0 2 -1 2 -1 3 0 2 0 2 -1 3 0 2 0 0 -21 0zm69 69l-4 0 -3 0 -4 -1 -3 0 -3 -1 -4 -1 -3 -1 -3 -1 -3 -2 -3 -1 -3 -2 -3 -2 -2 -2 -3 -2 -2 -2 -3 -2 -2 -3 -2 -2 -2 -3 -2 -2 -2 -3 -1 -3 -2 -3 -1 -3 -1 -3 -2 -3 0 -4 -1 -3 -1 -3 0 -4 0 -3 -1 -4 21 0 0 3 1 2 0 2 0 3 1 2 0 2 1 3 1 2 1 2 1 2 1 2 1 2 2 2 1 2 2 1 1 2 2 2 2 1 1 2 2 1 2 1 2 1 2 1 2 1 3 1 2 1 2 1 2 0 3 1 2 0 2 0 3 0 0 21zm-11 519l2 -531 18 0 -3 531 -17 0 0 0zm0 0l0 0 0 0 0 0zm0 904l0 -904 17 0 0 904 -17 0z"/>
   </g>
   <polyline class="fil1 str0" points="4122,4287 6497,4287 6497,540 3385,540 3385,1345 "/>
   <g>
    <path class="fil0" d="M5071 4288l0 337 -18 0 0 -337 18 0zm-51 0l0 0 0 -3 0 -2 1 -2 0 -2 0 -2 1 -2 1 -2 0 -2 1 -1 1 -2 1 -2 1 -2 2 -1 1 -2 1 -1 1 -2 2 -1 1 -2 2 -1 2 -1 1 -1 2 -1 2 -1 2 -1 2 -1 2 0 2 -1 2 0 2 -1 2 0 2 0 2 0 0 0 2 0 2 0 2 0 2 1 2 0 2 1 2 0 2 1 2 1 2 1 2 1 1 1 2 1 2 1 1 2 2 1 1 2 1 1 1 2 2 1 1 2 1 2 1 2 0 1 1 2 1 2 0 2 1 2 0 2 1 2 0 2 0 3 0 0 0 2 0 2 -1 2 0 2 -1 2 0 2 -1 2 -1 2 0 2 -1 2 -1 1 -1 2 -2 2 -1 1 -1 2 -1 1 -2 2 -1 1 -2 1 -2 1 -1 1 -2 1 -2 1 -2 1 -2 1 -2 1 -2 0 -2 1 -2 0 -2 0 -2 0 -2 0 0 0 -2 0 -2 0 -2 0 -2 0 -2 -1 -2 0 -2 -1 -2 -1 -2 -1 -2 -1 -2 -1 -1 -1 -2 -1 -2 -1 -1 -1 -2 -2 -1 -1 -1 -2 -1 -1 -2 -2 -1 -2 -1 -1 -1 -2 -1 -2 0 -2 -1 -2 -1 -2 0 -2 0 -2 -1 -2 0 -2 0 -2z"/>
   </g>
   <g>
    <path class="fil0" d="M2331 768l0 549 -18 0 0 -549 9 -9 9 9zm-9 -9l9 0 0 9 -9 -9zm-1846 0l1846 0 0 17 -1846 0 0 -17zm-57 77l0 -21 0 0 2 0 3 0 2 0 3 -1 2 0 2 -1 2 -1 2 0 3 -1 2 -1 2 -2 2 -1 1 -1 2 -2 2 -1 2 -2 1 -1 2 -2 1 -2 2 -2 1 -2 1 -2 1 -2 1 -2 1 -2 1 -2 0 -2 1 -3 0 -2 0 -2 1 -3 0 -2 21 0 0 3 -1 4 0 3 -1 3 -1 4 -1 3 -1 3 -1 3 -1 3 -2 3 -1 3 -2 3 -2 3 -2 2 -2 3 -3 2 -2 2 -2 3 -3 2 -3 2 -2 1 -3 2 -3 1 -3 2 -3 1 -4 1 -3 1 -3 1 -4 0 -3 1 -3 0 -4 0 0 0zm-69 -68l21 0 0 0 0 2 1 3 0 2 0 2 1 3 0 2 1 2 1 2 1 2 1 2 1 2 1 2 2 2 1 2 2 2 1 1 2 2 2 1 2 2 1 1 2 1 2 2 2 1 3 1 2 0 2 1 2 1 2 0 3 1 2 0 3 0 2 0 0 21 -4 0 -3 0 -3 -1 -4 0 -3 -1 -3 -1 -4 -1 -3 -1 -3 -2 -3 -1 -3 -2 -2 -1 -3 -2 -3 -2 -2 -3 -2 -2 -3 -2 -2 -3 -2 -2 -2 -3 -2 -3 -1 -3 -2 -3 -1 -3 -1 -3 -1 -3 -1 -3 -1 -4 -1 -3 0 -3 -1 -4 0 -3 0 0zm69 -69l0 21 0 0 -2 0 -3 0 -2 1 -3 0 -2 0 -2 1 -2 1 -2 1 -3 1 -2 1 -2 1 -2 1 -1 1 -2 2 -2 1 -2 2 -1 2 -2 1 -1 2 -2 2 -1 2 -1 2 -1 2 -1 2 -1 2 -1 3 0 2 -1 2 0 2 0 3 -1 2 0 3 -21 0 0 -4 1 -3 0 -4 1 -3 1 -3 1 -4 1 -3 1 -3 1 -3 2 -3 1 -3 2 -3 2 -2 2 -3 2 -2 3 -3 2 -2 2 -2 3 -2 3 -2 2 -2 3 -2 3 -1 3 -2 3 -1 4 -1 3 -1 3 -1 4 0 3 -1 3 0 4 0 0 0zm69 69l-21 0 0 -3 -1 -2 0 -3 0 -2 -1 -2 0 -2 -1 -3 -1 -2 -1 -2 -1 -2 -1 -2 -1 -2 -2 -2 -1 -2 -2 -1 -1 -2 -2 -2 -2 -1 -2 -2 -1 -1 -2 -1 -2 -1 -2 -1 -3 -1 -2 -1 -2 -1 -2 -1 -2 0 -3 0 -2 -1 -3 0 -2 0 0 -21 4 0 3 0 3 1 4 0 3 1 3 1 4 1 3 1 3 2 3 1 3 2 2 2 3 2 3 2 2 2 2 2 3 3 2 2 2 3 2 2 2 3 1 3 2 3 1 3 1 3 1 3 1 4 1 3 1 3 0 4 1 3 0 4z"/>
   </g>
   <g>
    <path class="fil0" d="M2378 3526l0 462 -18 0 0 -462 9 -9 9 9zm-9 -9l9 0 0 9 -9 -9zm-1964 3l1964 -3 0 18 -1964 3 0 -18zm-56 78l0 -21 0 0 2 0 2 -1 3 0 2 0 2 -1 3 -1 2 0 2 -1 2 -1 2 -1 2 -1 2 -2 2 -1 2 -1 2 -2 1 -1 2 -2 1 -2 2 -2 1 -1 1 -2 1 -2 1 -2 1 -3 1 -2 1 -2 1 -2 0 -3 1 -2 0 -2 0 -3 0 -2 21 0 0 3 0 4 -1 3 0 4 -1 3 -1 3 -1 3 -1 4 -2 3 -1 3 -2 2 -2 3 -2 3 -2 2 -2 3 -2 2 -2 3 -3 2 -2 2 -3 2 -3 2 -3 1 -3 2 -3 1 -3 1 -3 1 -3 1 -4 1 -3 1 -3 0 -4 0 -3 1 0 0zm-69 -69l21 0 0 0 0 2 0 3 0 2 1 3 0 2 1 2 1 2 1 3 1 2 1 2 1 2 1 2 1 1 2 2 1 2 2 2 2 1 1 2 2 1 2 2 2 1 2 1 2 1 2 1 2 1 2 1 3 0 2 1 2 0 3 0 2 1 3 0 0 21 -4 -1 -3 0 -4 0 -3 -1 -4 -1 -3 -1 -3 -1 -3 -1 -3 -1 -3 -2 -3 -1 -3 -2 -2 -2 -3 -2 -3 -2 -2 -3 -2 -2 -2 -2 -2 -3 -2 -3 -2 -2 -2 -3 -1 -3 -2 -3 -1 -3 -1 -4 -1 -3 -1 -3 0 -4 -1 -3 0 -3 0 -4 0 0zm68 -69l0 21 0 0 -2 0 -2 1 -3 0 -2 0 -2 1 -3 0 -2 1 -2 1 -2 1 -2 1 -2 1 -2 1 -2 2 -2 1 -2 2 -1 1 -2 2 -1 2 -2 2 -1 1 -1 2 -1 2 -2 2 0 3 -1 2 -1 2 -1 2 0 2 -1 3 0 2 0 3 0 2 -21 0 0 -3 0 -4 1 -3 0 -4 1 -3 1 -3 1 -4 1 -3 2 -3 1 -3 2 -3 2 -2 2 -3 2 -3 2 -2 2 -2 2 -3 3 -2 2 -2 3 -2 3 -2 3 -1 3 -2 3 -1 3 -1 3 -2 3 0 4 -1 3 -1 3 0 4 -1 3 0 0 0zm69 69l-21 0 0 -3 0 -2 0 -2 -1 -3 0 -2 -1 -2 -1 -2 -1 -3 -1 -2 -1 -2 -1 -2 -1 -2 -1 -2 -2 -1 -1 -2 -2 -2 -2 -1 -1 -2 -2 -1 -2 -2 -2 -1 -2 -1 -2 -1 -2 -1 -2 -1 -2 -1 -3 0 -2 -1 -2 0 -3 0 -2 -1 -3 0 0 -21 4 0 3 1 4 0 3 1 3 1 4 0 3 2 3 1 3 1 3 2 3 1 3 2 2 2 3 2 2 2 3 2 2 3 2 2 2 3 2 3 2 2 2 3 1 3 2 3 1 3 1 3 1 4 1 3 0 3 1 4 0 3 0 4z"/>
   </g>
   <path class="fil0" d="M4389 3126l-73 0 -94 -128c-6,0 -12,0 -16,0 -2,0 -3,0 -5,0 -2,0 -4,0 -7,0l0 80c0,17 2,28 6,32 5,6 13,9 23,9l11 0 0 7 -118 0 0 -7 10 0c12,0 20,-4 25,-12 3,-4 4,-14 4,-29l0 -178c0,-18 -1,-28 -5,-32 -5,-6 -13,-9 -24,-9l-10 0 0 -8 100 0c29,0 51,2 65,7 14,4 25,12 35,23 10,12 14,25 14,41 0,17 -5,32 -16,44 -11,12 -28,21 -51,26l57 79c13,18 24,30 33,36 9,6 21,10 36,12l0 7zm-195 -141c3,0 5,0 7,0 2,0 3,0 5,0 26,0 45,-6 58,-17 13,-11 20,-26 20,-43 0,-18 -5,-32 -16,-42 -11,-11 -25,-16 -42,-16 -8,0 -18,1 -32,3l0 115z"/>
   <path id="1" class="fil0" d="M4434 2878l67 -32 7 0 0 232c0,15 0,25 1,29 2,3 4,6 8,8 5,2 13,3 25,4l0 7 -103 0 0 -7c13,-1 21,-2 25,-4 4,-2 6,-4 8,-8 1,-3 2,-13 2,-29l0 -149c0,-20 -1,-33 -2,-38 -1,-5 -3,-8 -5,-10 -3,-2 -6,-3 -9,-3 -5,0 -12,2 -21,6l-3 -6z"/>
   <path class="fil0" d="M610 5650l-74 0 -93 -129c-7,1 -12,1 -17,1 -1,0 -3,0 -5,0 -2,0 -4,0 -6,-1l0 80c0,18 2,28 5,33 5,5 13,8 23,8l11 0 0 8 -118 0 0 -8 11 0c11,0 20,-3 25,-11 2,-4 4,-14 4,-30l0 -178c0,-17 -2,-27 -6,-32 -5,-6 -13,-9 -23,-9l-11 0 0 -7 100 0c30,0 51,2 65,6 14,5 26,13 35,24 10,11 15,25 15,41 0,17 -6,31 -17,44 -11,12 -28,21 -51,26l57 79c13,18 24,30 33,36 10,6 22,10 37,11l0 8zm-195 -141c2,0 4,0 6,0 2,0 4,0 5,0 26,0 45,-6 59,-17 13,-12 19,-26 19,-44 0,-17 -5,-31 -16,-42 -10,-10 -24,-16 -42,-16 -8,0 -18,2 -31,4l0 115z"/>
   <path id="1" class="fil0" d="M796 5597l-19 53 -162 0 0 -8c47,-43 81,-79 100,-106 20,-28 29,-53 29,-76 0,-17 -5,-31 -16,-43 -10,-11 -23,-16 -38,-16 -13,0 -26,4 -36,11 -11,8 -19,20 -24,35l-8 0c4,-25 13,-44 27,-58 13,-13 31,-19 52,-19 22,0 41,7 56,21 15,14 22,31 22,51 0,14 -3,28 -10,41 -9,22 -26,45 -48,70 -34,37 -55,59 -62,66l71 0c14,0 24,-1 30,-2 6,-1 11,-3 16,-6 4,-4 8,-8 12,-14l8 0z"/>
   <path class="fil0" d="M610 2960l-74 0 -93 -128c-7,0 -12,0 -17,0 -1,0 -3,0 -5,0 -2,0 -4,0 -6,0l0 80c0,17 2,28 5,32 5,6 13,9 23,9l11 0 0 7 -118 0 0 -7 11 0c11,0 20,-4 25,-12 2,-4 4,-14 4,-29l0 -178c0,-17 -2,-28 -6,-32 -5,-6 -13,-9 -23,-9l-11 0 0 -8 100 0c30,0 51,2 65,7 14,4 26,12 35,23 10,12 15,25 15,41 0,17 -6,32 -17,44 -11,13 -28,21 -51,27l57 78c13,18 24,30 33,36 10,6 22,10 37,12l0 7zm-195 -141c2,0 4,0 6,0 2,0 4,0 5,0 26,0 45,-6 59,-17 13,-11 19,-26 19,-43 0,-17 -5,-31 -16,-42 -10,-11 -24,-16 -42,-16 -8,0 -18,1 -31,3l0 115z"/>
   <path id="1" class="fil0" d="M627 2738c7,-19 17,-33 29,-43 12,-10 27,-15 45,-15 22,0 39,7 51,21 9,11 13,22 13,35 0,20 -12,40 -38,62 17,6 30,16 39,28 8,12 13,27 13,43 0,24 -8,44 -23,62 -20,22 -48,34 -86,34 -18,0 -31,-2 -38,-7 -6,-5 -10,-10 -10,-15 0,-4 2,-7 5,-10 3,-3 7,-5 12,-5 3,0 7,1 10,2 2,1 8,3 16,7 8,5 13,7 17,8 5,2 10,2 16,2 13,0 25,-5 36,-16 10,-10 15,-23 15,-38 0,-10 -2,-21 -7,-31 -4,-7 -8,-13 -12,-17 -6,-5 -14,-10 -24,-15 -10,-4 -20,-6 -31,-6l-6 0 0 -6c10,-2 21,-6 32,-12 11,-6 18,-14 23,-23 5,-9 8,-18 8,-29 0,-14 -5,-25 -14,-34 -8,-8 -19,-13 -32,-13 -21,0 -39,12 -53,34l-6 -3z"/>
   <path class="fil0" d="M5401 2940l7 93 -7 0c-8,-28 -20,-48 -35,-60 -16,-13 -34,-19 -56,-19 -18,0 -35,5 -49,14 -15,9 -27,24 -35,44 -8,21 -13,46 -13,76 0,25 4,46 12,65 8,18 20,32 36,42 16,9 34,14 55,14 17,0 33,-4 47,-11 13,-8 28,-23 44,-46l7 5c-14,24 -30,42 -48,53 -19,11 -40,17 -66,17 -45,0 -80,-17 -105,-51 -19,-25 -28,-54 -28,-88 0,-28 6,-53 18,-76 13,-23 30,-41 51,-53 21,-13 45,-19 70,-19 20,0 40,5 59,14 5,3 10,5 12,5 4,0 7,-2 9,-4 4,-4 6,-9 8,-15l7 0z"/>
   <path id="1" class="fil0" d="M5476 2973l67 -32 7 0 0 231c0,16 1,25 2,29 1,4 4,7 8,9 4,2 13,3 25,3l0 8 -104 0 0 -8c13,0 22,-1 25,-3 4,-2 7,-5 8,-8 2,-3 3,-13 3,-30l0 -148c0,-20 -1,-33 -2,-39 -1,-4 -3,-7 -6,-9 -2,-2 -5,-3 -9,-3 -5,0 -12,2 -21,6l-3 -6z"/>
   <path class="fil0" d="M5449 4930l6 94 -6 0c-9,-28 -21,-48 -36,-61 -15,-12 -34,-18 -56,-18 -18,0 -34,5 -49,14 -15,9 -26,24 -35,44 -8,20 -12,46 -12,76 0,25 4,46 12,64 8,19 20,33 36,42 16,10 34,15 54,15 18,0 34,-4 47,-11 14,-8 29,-23 45,-46l6 4c-14,25 -30,42 -48,54 -18,11 -40,17 -65,17 -46,0 -81,-17 -106,-51 -18,-25 -28,-55 -28,-89 0,-27 7,-52 19,-75 12,-23 29,-41 50,-54 22,-12 45,-19 71,-19 19,0 39,5 58,15 6,3 10,4 12,4 4,0 7,-1 10,-3 3,-4 6,-9 7,-16l8 0z"/>
   <path id="1" class="fil0" d="M5666 5158l-20 54 -162 0 0 -8c48,-44 82,-79 101,-107 19,-27 29,-52 29,-75 0,-17 -5,-32 -16,-43 -10,-11 -23,-17 -38,-17 -14,0 -26,4 -36,12 -11,8 -19,19 -24,34l-8 0c4,-24 12,-44 26,-57 14,-13 32,-20 53,-20 22,0 41,7 56,22 15,14 22,31 22,50 0,14 -3,28 -10,42 -10,22 -26,45 -48,70 -34,36 -55,58 -63,65l71 0c15,0 25,0 31,-1 6,-1 11,-3 15,-7 5,-3 9,-8 13,-14l8 0z"/>
   <path class="fil0" d="M5172 833l0 -8 97 0 0 8 -11 0c-10,0 -19,4 -24,13 -3,4 -5,14 -5,29l0 112c0,27 -2,49 -8,64 -5,15 -16,28 -32,39 -16,11 -38,16 -65,16 -30,0 -53,-5 -68,-15 -16,-11 -27,-25 -33,-42 -5,-12 -7,-35 -7,-68l0 -107c0,-17 -2,-28 -7,-34 -4,-5 -12,-7 -22,-7l-11 0 0 -8 119 0 0 8 -10 0c-12,0 -20,3 -25,10 -3,5 -5,15 -5,31l0 119c0,11 1,23 3,37 2,14 6,25 11,32 5,8 12,14 22,19 10,5 21,8 35,8 18,0 35,-4 49,-12 14,-8 24,-18 29,-30 5,-12 8,-33 8,-62l0 -111c0,-18 -2,-28 -6,-33 -5,-5 -13,-8 -24,-8l-10 0z"/>
   <path id="1" class="fil0" d="M5378 909c28,0 50,11 67,32 15,18 22,39 22,63 0,16 -4,33 -12,50 -8,17 -19,30 -33,38 -14,9 -29,13 -46,13 -28,0 -51,-11 -67,-33 -14,-19 -21,-40 -21,-63 0,-17 4,-34 13,-51 8,-17 19,-29 33,-37 14,-8 28,-12 44,-12zm-7 13c-7,0 -14,2 -21,6 -7,5 -13,12 -18,23 -4,10 -6,24 -6,41 0,27 5,50 16,70 10,19 25,29 42,29 13,0 24,-5 33,-16 8,-11 12,-30 12,-56 0,-33 -7,-59 -21,-77 -9,-13 -22,-20 -37,-20z"/>
   <path class="fil0" d="M329 1022l0 -7 97 0 0 7 -11 0c-10,0 -19,5 -25,14 -2,4 -4,14 -4,29l0 111c0,28 -3,49 -8,64 -5,16 -16,29 -32,40 -16,10 -38,16 -65,16 -30,0 -53,-5 -68,-16 -16,-10 -27,-24 -33,-42 -5,-12 -7,-34 -7,-67l0 -108c0,-17 -2,-28 -7,-33 -5,-5 -12,-8 -22,-8l-11 0 0 -7 119 0 0 7 -11 0c-11,0 -19,4 -24,11 -3,5 -5,15 -5,30l0 120c0,11 1,23 3,37 2,13 5,24 11,32 5,8 12,14 22,19 9,5 21,7 35,7 18,0 34,-4 49,-11 14,-8 23,-18 29,-30 5,-13 7,-33 7,-63l0 -111c0,-17 -2,-28 -5,-32 -6,-6 -13,-9 -24,-9l-10 0z"/>
   <path id="1" class="fil0" d="M491 1001c5,0 10,2 14,6 4,4 6,9 6,15 0,5 -2,10 -6,14 -4,4 -9,6 -14,6 -6,0 -11,-2 -15,-6 -4,-4 -6,-9 -6,-14 0,-6 2,-11 6,-15 4,-4 9,-6 15,-6zm16 97l0 150c0,11 1,19 3,23 2,4 4,6 7,8 4,2 10,3 19,3l0 8 -90 0 0 -8c9,0 15,-1 18,-2 3,-2 5,-5 7,-9 2,-4 3,-12 3,-23l0 -72c0,-20 -1,-33 -2,-39 -1,-4 -2,-7 -5,-9 -2,-2 -4,-2 -8,-2 -4,0 -8,1 -14,3l-2 -8 55 -23 9 0z"/>
   <path id="2" class="fil0" d="M579 1203l47 -23 5 0 0 163c0,11 0,17 1,20 1,3 3,5 6,6 3,1 8,2 17,2l0 6 -72 0 0 -6c9,0 15,-1 17,-2 3,-1 5,-3 6,-5 1,-3 1,-10 1,-21l0 -104c0,-14 0,-23 -1,-27 -1,-3 -2,-5 -4,-7 -2,-1 -4,-2 -6,-2 -4,0 -9,2 -15,4l-2 -4z"/>
   <path class="fil0" d="M196 3735l0 -7 96 0 0 7 -10 0c-11,0 -19,5 -25,14 -3,4 -4,14 -4,29l0 112c0,27 -3,49 -8,64 -6,15 -16,28 -32,39 -16,11 -38,16 -66,16 -30,0 -52,-5 -68,-15 -15,-11 -26,-25 -33,-42 -4,-12 -6,-35 -6,-68l0 -107c0,-17 -3,-28 -7,-34 -5,-5 -12,-8 -23,-8l-10 0 0 -7 119 0 0 7 -11 0c-11,0 -19,4 -24,11 -4,5 -5,15 -5,31l0 119c0,11 1,23 3,37 2,14 5,24 10,32 6,8 13,14 23,19 9,5 21,8 35,8 18,0 34,-4 48,-12 14,-8 24,-18 29,-30 6,-12 8,-33 8,-62l0 -111c0,-18 -2,-28 -6,-33 -5,-6 -13,-9 -23,-9l-10 0z"/>
   <path id="1" class="fil0" d="M357 3715c6,0 11,2 15,6 4,4 6,9 6,14 0,6 -2,11 -6,15 -4,4 -9,6 -15,6 -5,0 -10,-2 -14,-6 -4,-4 -6,-9 -6,-15 0,-5 2,-10 6,-14 4,-4 9,-6 14,-6zm17 97l0 149c0,12 1,19 3,23 1,4 4,7 7,9 3,2 10,2 18,2l0 8 -90 0 0 -8c9,0 15,0 18,-2 4,-2 6,-5 8,-9 2,-4 3,-12 3,-23l0 -72c0,-20 -1,-33 -2,-39 -1,-4 -3,-7 -5,-8 -2,-2 -5,-3 -8,-3 -4,0 -8,1 -14,3l-3 -7 56 -23 9 0z"/>
   <path id="2" class="fil0" d="M545 4053l-13 37 -114 0 0 -5c34,-31 57,-56 71,-75 13,-19 20,-37 20,-53 0,-12 -4,-22 -11,-30 -8,-8 -16,-11 -27,-11 -9,0 -18,2 -25,8 -8,5 -13,13 -17,24l-5 0c2,-18 8,-31 18,-40 10,-10 22,-14 37,-14 15,0 28,5 39,15 10,10 16,22 16,35 0,10 -3,20 -7,30 -7,15 -19,31 -34,48 -24,26 -38,41 -44,46l50 0c10,0 17,0 21,-1 4,-1 8,-2 11,-5 3,-2 6,-5 9,-9l5 0z"/>
   <path class="fil0" d="M719 430l0 180c0,14 0,22 2,26 1,4 3,7 7,9 4,3 10,4 18,4l5 0 0 5 -115 0 0 -5 5 0c10,0 16,-1 20,-3 4,-3 7,-6 9,-9 1,-4 2,-13 2,-27l0 -114c0,-10 -1,-17 -2,-19 -1,-3 -3,-5 -5,-7 -3,-2 -6,-2 -9,-2 -6,0 -13,1 -21,5l-2 -6 80 -37 6 0z"/>
   <path class="fil0" d="M725 3853l-130 0 0 -4c40,-47 64,-79 73,-95 8,-16 12,-32 12,-48 0,-11 -3,-21 -10,-28 -7,-8 -16,-11 -26,-11 -17,0 -30,8 -39,25l-6 -2c6,-21 15,-37 27,-47 12,-10 25,-15 41,-15 11,0 21,3 30,8 10,5 17,13 22,22 5,9 8,17 8,25 0,14 -4,29 -12,44 -11,20 -35,47 -72,83l48 0c11,0 19,0 22,-1 4,-1 7,-3 9,-5 2,-2 5,-7 9,-15l6 0 -12 64z"/>
   <path class="fil0" d="M5387 1361l0 -5c12,-4 21,-7 26,-10 4,-3 9,-8 12,-14 3,-7 5,-13 5,-19 0,-9 -3,-17 -10,-24 -6,-6 -14,-9 -24,-9 -15,0 -28,8 -39,24l-6 -2c8,-18 18,-32 30,-41 12,-9 26,-14 41,-14 15,0 28,5 37,14 10,10 15,20 15,33 0,8 -2,16 -7,23 -4,8 -11,14 -21,20 12,6 22,14 29,23 6,9 10,20 10,34 0,23 -9,42 -25,58 -17,16 -39,24 -67,24 -18,0 -32,-3 -41,-9 -6,-4 -9,-10 -9,-17 0,-5 2,-9 6,-12 3,-4 7,-6 12,-6 3,0 7,1 10,3 2,1 8,5 18,14 11,8 21,13 30,13 8,0 15,-4 21,-10 5,-6 8,-14 8,-24 0,-15 -5,-28 -15,-41 -11,-12 -26,-21 -46,-26z"/>
   <path class="fil0" d="M1354 1681l104 -142 20 0 0 142 20 0 0 33 -20 0 0 49 -44 0 0 -49 -80 0 0 -33zm15 0l65 0 0 -88 -65 88z"/>
   <path class="fil0" d="M5342 3936l103 0 -17 42 -86 0 -8 22c37,1 65,11 85,28 17,14 25,32 25,53 0,13 -4,27 -11,40 -8,13 -19,22 -33,29 -14,7 -29,11 -46,11 -18,0 -31,-3 -41,-10 -7,-5 -10,-10 -10,-16 0,-5 2,-9 5,-13 4,-3 8,-5 12,-5 5,0 9,1 13,3 5,1 12,6 23,13 6,5 12,8 17,10 3,1 7,2 11,2 9,0 16,-4 23,-10 6,-7 9,-14 9,-24 0,-19 -10,-34 -29,-46 -19,-12 -43,-18 -72,-18 -3,0 -7,0 -13,0l40 -111z"/>
   <path class="fil0" d="M1432 4224l0 4c-20,5 -35,12 -47,20 -12,7 -21,17 -28,28 -7,11 -12,25 -16,42 5,-4 9,-6 12,-7 7,-2 14,-3 21,-3 16,0 30,6 41,18 11,12 17,28 17,49 0,14 -3,28 -9,40 -6,12 -15,21 -26,28 -11,6 -22,10 -35,10 -13,0 -26,-4 -37,-11 -12,-8 -21,-19 -27,-33 -7,-14 -10,-30 -10,-46 0,-25 6,-48 18,-69 12,-22 29,-38 50,-51 22,-13 47,-19 76,-19zm-93 107c-1,15 -2,26 -2,32 0,15 2,30 5,44 3,14 7,24 11,29 4,4 8,6 13,6 5,0 10,-3 14,-8 4,-6 5,-18 5,-36 0,-30 -3,-50 -11,-62 -4,-7 -10,-11 -18,-11 -5,0 -10,2 -17,6z"/>
  </g>
 </g>
</svg>
