<?xml version="1.0" encoding="UTF-8"?>
<!DOCTYPE svg PUBLIC "-//W3C//DTD SVG 1.1//EN" "http://www.w3.org/Graphics/SVG/1.1/DTD/svg11.dtd">
<!-- Creator: CorelDRAW Home & Student X8 -->
<svg xmlns="http://www.w3.org/2000/svg" xml:space="preserve" width="123.586mm" height="75.7747mm" version="1.1" style="shape-rendering:geometricPrecision; text-rendering:geometricPrecision; image-rendering:optimizeQuality; fill-rule:evenodd; clip-rule:evenodd"
viewBox="0 0 8661 5311"
 xmlns:xlink="http://www.w3.org/1999/xlink">
 <defs>
  <style type="text/css">
   <![CDATA[
    .str0 {stroke:#2B2A29;stroke-width:21.0248}
    .fil1 {fill:none}
    .fil0 {fill:#2B2A29;fill-rule:nonzero}
   ]]>
  </style>
 </defs>
 <g id="Warstwa_x0020_1">
  <metadata id="CorelCorpID_0Corel-Layer"/>
  <g id="_650021456">
   <path class="fil0" d="M231 1450l114 0 0 9 -6 0c-4,0 -11,2 -19,6 -8,4 -15,9 -22,16 -6,7 -14,18 -24,34l-79 123 0 83c0,20 3,33 7,38 6,7 16,10 29,10l11 0 0 9 -140 0 0 -9 12 0c14,0 24,-4 29,-12 4,-6 6,-17 6,-36l0 -76 -90 -139c-10,-16 -18,-26 -21,-30 -4,-4 -12,-9 -24,-14 -3,-2 -8,-3 -14,-3l0 -9 140 0 0 9 -7 0c-8,0 -15,2 -21,6 -7,3 -10,8 -10,15 0,6 5,17 15,32l68 106 64 -101c10,-16 15,-27 15,-34 0,-5 -1,-9 -4,-12 -2,-4 -5,-7 -10,-9 -4,-2 -11,-3 -19,-3l0 -9z"/>
   <path id="1" class="fil0" d="M409 1482l80 -38 8 0 0 276c0,19 1,30 2,35 2,4 5,8 10,10 5,3 15,4 30,4l0 9 -124 0 0 -9c15,0 25,-1 30,-4 4,-2 8,-5 9,-9 2,-4 3,-16 3,-36l0 -177c0,-24 -1,-39 -2,-46 -2,-5 -4,-9 -7,-11 -3,-2 -6,-4 -10,-4 -6,0 -15,3 -25,8l-4 -8z"/>
   <g>
    <g>
     <path class="fil0" d="M7675 4655l-21 0 -64 -98 21 -13 64 98 -21 0 21 13zm0 0l-11 17 -10 -17 21 0zm53 -105l11 7 -64 98 -21 -13 64 -98 10 6zm-53 -363l0 442 -21 0 0 -442 21 0z"/>
    </g>
    <rect class="fil1 str0" transform="matrix(0.966762 0.966762 -0.966762 0.966762 7664.49 3908.57)" width="534" height="534"/>
   </g>
   <g>
    <path class="fil0" d="M3474 4867l0 0 0 2 0 3 -1 2 0 3 -1 2 0 2 -1 3 -1 2 -1 2 -1 2 -1 2 -2 2 -1 2 -1 2 -2 2 -2 2 -1 1 -2 2 -2 1 -2 2 -2 1 -2 1 -2 1 -2 1 -3 1 -2 1 -2 1 -3 0 -2 1 -3 0 -2 0 -3 0 0 -25 1 0 2 0 1 0 1 0 1 0 2 -1 1 0 1 0 1 -1 1 -1 1 0 1 -1 1 0 1 -1 1 -1 1 -1 1 -1 0 -1 1 -1 1 -1 0 -1 1 -1 1 -1 0 -1 1 -1 0 -1 0 -1 1 -1 0 -2 0 -1 0 -1 0 -1 0 0 25 0zm-50 -50l0 0 3 0 2 0 3 0 2 1 3 0 2 1 2 1 3 1 2 1 2 1 2 1 2 1 2 2 2 1 2 2 1 1 2 2 2 2 1 2 1 2 2 2 1 2 1 2 1 2 1 2 1 3 0 2 1 3 0 2 1 2 0 3 0 3 -25 0 0 -2 0 -1 0 -1 0 -1 -1 -2 0 -1 0 -1 -1 -1 0 -1 -1 -1 -1 -1 0 -1 -1 -1 -1 -1 0 -1 -1 -1 -1 -1 -1 -1 -1 0 -1 -1 -1 -1 -1 0 -1 -1 -1 0 -1 -1 -1 0 -2 -1 -1 0 -1 0 -1 0 -2 0 -1 0 0 0 0 -25zm-50 50l0 0 0 -3 1 -3 0 -2 0 -2 1 -3 1 -2 0 -3 1 -2 1 -2 1 -2 2 -2 1 -2 1 -2 2 -2 1 -2 2 -2 2 -1 1 -2 2 -1 2 -2 2 -1 2 -1 3 -1 2 -1 2 -1 2 -1 3 -1 2 0 3 -1 2 0 3 0 2 0 0 25 -1 0 -1 0 -2 0 -1 0 -1 0 -1 1 -1 0 -2 1 -1 0 -1 1 -1 0 -1 1 -1 1 -1 0 -1 1 0 1 -1 1 -1 1 -1 1 0 1 -1 1 -1 1 0 1 -1 1 0 1 -1 1 0 1 0 2 0 1 -1 1 0 1 0 2 0 0 -25 0zm50 49l-2 0 -3 0 -2 0 -3 -1 -2 0 -3 -1 -2 -1 -2 -1 -2 -1 -3 -1 -2 -1 -2 -1 -2 -2 -2 -1 -1 -2 -2 -1 -2 -2 -1 -2 -2 -2 -1 -2 -1 -2 -2 -2 -1 -2 -1 -2 -1 -2 0 -3 -1 -2 -1 -2 0 -3 0 -2 -1 -3 0 -2 25 0 0 1 0 1 1 1 0 2 0 1 0 1 1 1 0 1 1 1 0 1 1 1 1 1 0 1 1 1 1 1 1 1 0 1 1 1 1 1 1 0 1 1 1 0 1 1 1 1 2 0 1 0 1 1 1 0 1 0 2 0 1 0 1 0 0 25zm-10 331l0 -346 21 0 0 346 -21 0zm-96 0l0 -12 212 0 0 25 -212 0 0 -13z"/>
   </g>
   <g>
    <path class="fil0" d="M2943 1699l0 0 -2 0 -3 0 -2 0 -3 -1 -2 0 -3 -1 -2 -1 -2 0 -2 -1 -3 -2 -2 -1 -2 -1 -2 -1 -1 -2 -2 -2 -2 -1 -2 -2 -1 -2 -2 -2 -1 -2 -1 -2 -2 -2 -1 -2 -1 -2 -1 -2 0 -3 -1 -2 -1 -2 0 -3 0 -2 -1 -3 0 -2 25 0 0 1 0 1 1 1 0 2 0 1 0 1 1 1 0 1 1 1 0 1 1 1 1 1 0 1 1 1 1 1 1 1 0 1 1 1 1 1 1 0 1 1 1 1 1 0 2 1 1 0 1 0 1 1 1 0 1 0 2 0 1 0 1 1 0 0 0 24zm50 -49l0 0 0 2 0 3 -1 2 0 3 -1 2 0 2 -1 3 -1 2 -1 2 -1 2 -1 2 -1 2 -2 2 -1 2 -2 2 -2 2 -1 1 -2 2 -2 2 -2 1 -2 1 -2 1 -2 2 -2 1 -3 0 -2 1 -2 1 -3 0 -2 1 -3 0 -2 0 -3 0 0 -24 2 -1 1 0 1 0 1 0 1 0 2 -1 1 0 1 0 1 -1 1 0 1 -1 1 -1 1 0 1 -1 1 -1 1 -1 1 -1 0 -1 1 -1 1 -1 1 -1 0 -1 1 -1 0 -1 1 -1 0 -1 0 -1 1 -1 0 -2 0 -1 0 -1 0 -1 0 0 25 0zm-50 -50l0 0 3 0 2 0 3 0 2 1 3 0 2 1 2 1 3 1 2 1 2 1 2 1 2 1 2 2 2 1 2 2 1 1 2 2 2 2 1 2 2 2 1 2 1 2 1 2 1 2 1 2 1 3 0 2 1 3 0 2 1 3 0 2 0 3 -25 0 0 -2 0 -1 0 -1 0 -1 -1 -2 0 -1 0 -1 -1 -1 0 -1 -1 -1 0 -1 -1 -1 -1 -1 -1 -1 0 -1 -1 -1 -1 -1 -1 -1 -1 0 -1 -1 -1 -1 -1 0 -1 -1 -1 0 -1 -1 -1 0 -2 -1 -1 0 -1 0 -1 0 -1 0 -2 0 0 0 0 -25zm-50 50l0 -3 1 -2 0 -3 0 -2 1 -3 1 -2 0 -3 1 -2 1 -2 1 -2 2 -2 1 -2 1 -2 2 -2 1 -2 2 -2 2 -1 2 -2 1 -1 2 -2 2 -1 2 -1 3 -1 2 -1 2 -1 2 -1 3 -1 2 0 3 -1 2 0 3 0 2 0 0 25 -1 0 -1 0 -2 0 -1 0 -1 0 -1 1 -1 0 -1 1 -2 0 -1 1 -1 0 -1 1 -1 1 -1 0 -1 1 0 1 -1 1 -1 1 -1 1 0 1 -1 1 -1 1 0 1 -1 1 0 1 -1 1 0 1 0 2 0 1 -1 1 0 1 0 2 -25 0zm-1895 -11l1911 0 0 21 -1911 0 0 -21zm-68 92l0 -25 0 0 3 0 3 0 3 0 3 -1 3 0 2 -1 3 -1 2 -1 3 -1 2 -1 3 -2 2 -1 2 -2 3 -2 2 -1 2 -2 1 -2 2 -2 2 -2 2 -3 1 -2 1 -2 2 -3 1 -2 1 -3 1 -3 1 -2 0 -3 1 -3 0 -3 0 -2 0 -3 25 0 0 4 0 4 -1 4 0 4 -1 4 -1 4 -2 4 -1 3 -2 4 -2 4 -2 3 -2 3 -2 3 -3 4 -2 3 -3 2 -3 3 -3 3 -3 2 -3 2 -3 3 -4 1 -3 2 -4 2 -3 1 -4 2 -4 1 -4 1 -4 0 -4 1 -4 0 -5 0 0 0zm-81 -81l25 0 0 0 0 3 0 2 0 3 1 3 0 3 1 2 1 3 1 3 1 2 1 3 2 2 1 2 2 3 2 2 1 2 2 2 2 2 2 1 2 2 3 2 2 1 2 2 3 1 2 1 3 1 3 1 2 1 3 0 3 1 3 0 3 0 2 0 0 25 -4 0 -4 0 -4 -1 -4 0 -4 -1 -4 -1 -4 -2 -3 -1 -4 -2 -3 -2 -4 -1 -3 -3 -3 -2 -4 -2 -2 -3 -3 -3 -3 -2 -3 -3 -2 -4 -2 -3 -2 -3 -2 -3 -2 -4 -2 -4 -1 -3 -2 -4 -1 -4 -1 -4 0 -4 -1 -4 0 -4 0 -4 0 0zm81 -82l0 25 0 0 -2 0 -3 0 -3 0 -3 1 -3 1 -2 0 -3 1 -3 1 -2 1 -3 2 -2 1 -2 1 -3 2 -2 2 -2 2 -2 1 -2 2 -1 2 -2 3 -2 2 -1 2 -2 3 -1 2 -1 3 -1 2 -1 3 -1 2 0 3 -1 3 0 3 0 3 0 3 -25 0 0 -5 0 -4 1 -4 0 -4 1 -4 1 -4 2 -4 1 -3 2 -4 2 -3 2 -4 2 -3 2 -3 2 -3 3 -3 3 -3 3 -3 2 -2 4 -3 3 -2 3 -2 4 -2 3 -2 4 -2 3 -1 4 -2 4 -1 4 -1 4 0 4 -1 4 0 4 0 0 0zm82 82l-25 0 0 -3 0 -3 0 -3 -1 -3 0 -3 -1 -2 -1 -3 -1 -2 -1 -3 -2 -2 -1 -3 -1 -2 -2 -2 -2 -3 -2 -2 -1 -2 -2 -1 -2 -2 -3 -2 -2 -2 -2 -1 -3 -1 -2 -2 -3 -1 -2 -1 -3 -1 -2 0 -3 -1 -3 -1 -3 0 -3 0 -3 0 0 -25 5 0 4 0 4 1 4 0 4 1 4 1 4 2 3 1 4 2 3 2 4 2 3 2 3 2 3 3 3 2 3 3 3 3 2 3 3 3 2 3 2 3 2 4 2 3 2 4 1 3 2 4 1 4 1 4 0 4 1 4 0 4 0 5z"/>
   </g>
   <g>
    <path class="fil0" d="M6025 589l0 483 -21 0 0 -483 10 -10 11 10zm-11 -10l11 0 0 10 -11 -10zm-864 1l864 -1 0 21 -864 1 0 -21zm-68 93l0 -25 0 0 3 0 3 -1 3 0 3 -1 2 0 3 -1 3 -1 2 -1 3 -1 2 -1 3 -2 2 -1 2 -2 2 -1 2 -2 2 -2 2 -2 2 -2 2 -2 1 -3 2 -2 1 -2 1 -3 1 -2 1 -3 1 -2 1 -3 1 -3 0 -3 1 -3 0 -2 0 -3 25 0 0 4 -1 4 0 4 -1 4 -1 4 -1 4 -1 4 -2 3 -1 4 -2 4 -2 3 -2 3 -2 4 -3 3 -2 3 -3 2 -3 3 -3 3 -3 2 -3 2 -4 3 -3 2 -3 1 -4 2 -4 1 -4 2 -3 1 -4 1 -4 1 -5 0 -4 0 -4 1 0 0zm-82 -82l25 0 0 0 0 3 0 3 1 2 0 3 1 3 1 3 1 2 1 3 1 2 1 3 1 2 2 3 2 2 1 2 2 2 2 2 2 2 2 2 2 1 2 2 3 1 2 2 3 1 2 1 3 1 2 1 3 1 3 0 2 1 3 0 3 1 3 0 0 25 -4 -1 -4 0 -4 0 -4 -1 -4 -1 -4 -1 -4 -1 -4 -2 -3 -2 -4 -1 -3 -2 -4 -2 -3 -3 -3 -2 -3 -3 -3 -2 -2 -3 -3 -3 -2 -3 -3 -3 -2 -4 -2 -3 -2 -4 -1 -3 -2 -4 -1 -4 -1 -4 -1 -4 -1 -4 0 -4 -1 -4 0 -4 0 0zm82 -82l0 25 0 0 -3 0 -3 0 -3 1 -2 0 -3 1 -3 0 -3 1 -2 1 -3 1 -2 2 -2 1 -3 2 -2 1 -2 2 -2 2 -2 2 -2 2 -2 2 -2 2 -1 2 -2 2 -1 3 -1 2 -1 3 -1 2 -1 3 -1 3 -1 2 0 3 -1 3 0 3 0 3 -25 0 0 -4 1 -4 0 -5 1 -4 1 -4 1 -3 1 -4 2 -4 1 -4 2 -3 2 -4 2 -3 2 -3 3 -3 2 -3 3 -3 3 -3 3 -2 3 -3 3 -2 4 -2 3 -2 4 -2 3 -2 4 -1 4 -1 4 -1 3 -1 5 -1 4 -1 4 0 4 0 0 0zm82 82l-25 0 0 -3 0 -3 -1 -3 0 -3 -1 -3 -1 -2 -1 -3 -1 -2 -1 -3 -1 -2 -1 -3 -2 -2 -1 -2 -2 -2 -2 -3 -2 -2 -2 -1 -2 -2 -2 -2 -2 -1 -3 -2 -2 -1 -2 -2 -3 -1 -3 -1 -2 -1 -3 0 -3 -1 -2 -1 -3 0 -3 0 -3 0 0 -25 4 0 4 0 4 1 4 1 4 0 4 2 4 1 4 1 3 2 4 2 3 2 4 2 3 2 3 3 3 2 3 3 2 3 3 3 2 3 3 3 2 3 2 4 2 3 1 4 2 4 1 3 1 4 1 4 1 4 0 4 1 4 0 5zm-4158 -13l3930 0 0 21 -3930 0 0 -21zm-67 92l0 -25 0 0 3 0 3 0 2 -1 3 0 3 -1 3 -1 2 0 3 -1 2 -2 3 -1 2 -1 3 -2 2 -1 2 -2 2 -2 2 -2 2 -2 2 -2 1 -2 2 -2 1 -2 2 -3 1 -2 1 -3 1 -2 1 -3 1 -3 1 -2 0 -3 0 -3 1 -3 0 -3 25 0 0 4 -1 5 0 4 -1 4 -1 4 -1 3 -1 4 -2 4 -1 4 -2 3 -2 4 -2 3 -3 3 -2 3 -3 3 -2 3 -3 3 -3 2 -3 3 -3 2 -4 2 -3 2 -4 2 -3 2 -4 1 -4 1 -4 1 -4 1 -4 1 -4 1 -4 0 -4 0 0 0zm-82 -82l25 0 0 0 0 3 0 3 1 3 0 3 1 2 1 3 0 3 1 2 2 3 1 2 1 3 2 2 1 2 2 2 2 2 2 2 2 2 2 2 2 2 2 1 2 2 3 1 2 1 3 2 2 1 3 0 3 1 2 1 3 0 3 1 3 0 3 0 0 25 -4 0 -4 0 -5 -1 -4 -1 -4 -1 -3 -1 -4 -1 -4 -1 -4 -2 -3 -2 -3 -2 -4 -2 -3 -2 -3 -3 -3 -2 -3 -3 -3 -3 -2 -3 -3 -3 -2 -3 -2 -3 -2 -4 -2 -3 -1 -4 -2 -4 -1 -4 -1 -3 -1 -4 -1 -4 0 -5 -1 -4 0 -4 0 0zm82 -82l0 25 0 0 -3 0 -3 1 -3 0 -3 0 -2 1 -3 1 -3 1 -2 1 -3 1 -2 1 -3 2 -2 1 -2 2 -2 1 -2 2 -2 2 -2 2 -2 2 -2 2 -1 2 -2 3 -1 2 -1 3 -2 2 -1 3 0 2 -1 3 -1 3 0 3 -1 2 0 3 0 3 -25 0 0 -4 1 -4 0 -4 1 -4 1 -4 1 -4 1 -4 2 -4 1 -3 2 -4 2 -3 2 -4 2 -3 3 -3 2 -3 3 -3 3 -2 3 -3 3 -2 3 -3 4 -2 3 -2 3 -2 4 -1 4 -2 4 -1 3 -1 4 -1 4 -1 5 0 4 -1 4 0 0 0zm82 82l-25 0 0 -3 -1 -3 0 -2 0 -3 -1 -3 -1 -3 -1 -2 -1 -3 -1 -2 -1 -3 -1 -2 -2 -3 -2 -2 -1 -2 -2 -2 -2 -2 -2 -2 -2 -2 -2 -1 -2 -2 -3 -1 -2 -2 -3 -1 -2 -1 -3 -1 -2 -1 -3 -1 -3 -1 -2 0 -3 0 -3 -1 -3 0 0 -25 4 0 4 1 4 0 4 1 4 1 4 1 4 1 4 2 3 1 4 2 3 2 4 2 3 3 3 2 3 3 3 2 2 3 3 3 2 3 3 3 2 4 2 3 2 4 1 3 2 4 1 4 1 4 1 4 1 4 0 4 1 4 0 4z"/>
   </g>
   <line class="fil1 str0" x1="6014" y1="2098" x2="6014" y2= "2455" />
   <g>
    <path class="fil0" d="M7654 5298l0 -356 21 0 0 356 -21 0zm-95 0l0 -12 211 0 0 25 -211 0 0 -13z"/>
   </g>
   <g>
    <path class="fil0" d="M7672 3421l3 488 -21 0 -3 -488 11 -10 10 10zm-21 0l0 -10 11 0 -11 10zm829 11l-818 0 0 -21 818 0 0 21zm67 -93l0 25 0 0 -3 0 -3 1 -2 0 -3 0 -3 1 -3 1 -2 1 -3 1 -2 1 -3 1 -2 2 -3 1 -2 2 -2 1 -2 2 -2 2 -2 2 -2 2 -1 2 -2 2 -1 3 -2 2 -1 3 -1 2 -1 3 -1 2 -1 3 -1 3 0 3 0 2 -1 3 0 3 -25 0 1 -4 0 -4 0 -4 1 -4 1 -4 1 -4 1 -4 2 -4 2 -3 1 -4 2 -3 2 -4 3 -3 2 -3 3 -3 2 -3 3 -2 3 -3 3 -2 4 -3 3 -2 3 -2 4 -2 3 -1 4 -2 4 -1 4 -1 4 -1 4 -1 4 0 4 0 4 -1 0 0zm82 82l-25 0 0 0 0 -3 0 -3 -1 -2 0 -3 -1 -3 0 -3 -1 -2 -1 -3 -2 -2 -1 -3 -1 -2 -2 -3 -1 -2 -2 -2 -2 -2 -2 -2 -2 -2 -2 -2 -2 -1 -2 -2 -2 -1 -3 -2 -2 -1 -3 -1 -2 -1 -3 -1 -3 -1 -2 -1 -3 0 -3 0 -3 -1 -3 0 0 -25 4 1 5 0 4 0 4 1 4 1 3 1 4 1 4 2 4 1 3 2 4 2 3 2 3 3 3 2 3 3 3 2 3 3 2 3 3 3 2 3 2 4 2 3 2 4 2 3 1 4 1 4 1 4 1 4 1 4 1 4 0 4 0 4 0 0zm-82 82l0 -25 0 0 3 0 3 0 3 -1 3 0 2 -1 3 0 3 -1 2 -1 3 -2 2 -1 3 -1 2 -2 2 -1 2 -2 2 -2 2 -2 2 -2 2 -2 2 -2 1 -2 2 -2 1 -3 1 -2 2 -3 1 -2 1 -3 0 -3 1 -2 0 -3 1 -3 0 -3 0 -3 25 0 0 4 0 5 -1 4 -1 4 -1 4 -1 3 -1 4 -1 4 -2 4 -2 3 -2 4 -2 3 -2 3 -3 3 -2 3 -3 3 -3 3 -3 2 -3 3 -3 2 -3 2 -4 2 -3 2 -4 2 -4 1 -4 1 -3 1 -4 1 -4 1 -4 1 -5 0 -4 0 0 0zm-82 -82l25 0 0 3 1 3 0 3 0 3 1 2 1 3 1 3 1 2 1 3 1 2 2 3 1 2 2 2 1 2 2 2 2 2 2 2 2 2 2 2 2 1 3 2 2 1 3 1 2 2 3 1 2 1 3 0 3 1 3 0 2 1 3 0 3 0 0 25 -4 0 -4 0 -4 -1 -4 -1 -4 -1 -4 -1 -4 -1 -4 -1 -3 -2 -4 -2 -3 -2 -3 -2 -4 -2 -3 -3 -3 -2 -3 -3 -2 -3 -3 -3 -2 -3 -3 -3 -2 -3 -2 -4 -1 -3 -2 -4 -2 -4 -1 -4 -1 -3 -1 -4 -1 -4 0 -4 0 -5 -1 -4z"/>
   </g>
   <path class="fil0" d="M1181 162l71 105c19,29 34,47 43,55 9,8 21,12 36,13l0 8 -141 0 0 -8c10,-1 16,-2 21,-3 3,-2 6,-4 8,-7 3,-3 4,-6 4,-9 0,-4 -1,-7 -3,-11 -1,-3 -5,-10 -13,-21l-56 -84 -68 87c-7,10 -11,16 -13,19 -1,3 -2,7 -2,10 0,5 2,9 7,13 4,3 12,5 24,6l0 8 -116 0 0 -8c8,-1 15,-3 21,-6 10,-4 20,-9 29,-16 9,-8 19,-18 31,-33l76 -97 -63 -95c-18,-26 -33,-43 -45,-51 -12,-8 -26,-12 -42,-12l0 -9 152 0 0 9c-13,0 -22,2 -27,6 -5,4 -7,8 -7,12 0,6 4,15 12,27l50 75 57 -74c7,-9 11,-15 13,-18 1,-3 2,-7 2,-10 0,-3 -1,-6 -3,-9 -2,-3 -5,-6 -9,-7 -4,-2 -11,-2 -23,-2l0 -9 116 0 0 9c-9,0 -16,1 -22,4 -9,4 -17,9 -24,15 -7,6 -18,18 -31,35l-65 83z"/>
   <path class="fil0" d="M8658 3665l-216 308 135 0c20,0 36,-4 47,-13 11,-9 21,-28 29,-55l8 1 -15 87 -267 0 0 -9 210 -299 -104 0c-18,0 -30,2 -38,6 -8,3 -14,9 -18,16 -4,7 -8,21 -11,40l-9 0 6 -82 243 0z"/>
   <g>
    <path class="fil0" d="M4317 589l-220 -1 0 -21 220 1 0 21zm88 -10l-175 74 2 -5 2 -4 2 -5 2 -5 2 -4 1 -5 2 -5 1 -4 1 -5 1 -5 1 -5 1 -4 0 -5 1 -5 0 -4 0 -5 0 -5 0 -4 -1 -5 0 -5 -1 -4 -1 -5 -1 -5 -1 -4 -1 -5 -1 -5 -2 -4 -1 -5 -2 -5 -2 -4 -2 -5 -3 -5 0 0 175 76z"/>
   </g>
   <g>
    <path class="fil0" d="M7936 3411l440 0 0 22 -440 0 0 -22zm-87 11l174 -75 -2 5 -2 5 -2 4 -2 5 -2 5 -1 4 -2 5 -1 5 -1 4 -1 5 -1 5 0 4 -1 5 0 5 0 4 -1 5 1 5 0 4 0 5 1 5 0 4 1 5 1 5 1 4 1 5 2 5 1 4 2 5 2 5 2 4 2 5 2 5 0 0 -174 -75z"/>
   </g>
   <path class="fil0" d="M5079 124l0 214c0,17 1,27 2,31 2,5 5,9 9,11 5,3 12,5 22,5l6 0 0 6 -138 0 0 -6 7 0c11,0 19,-2 24,-4 4,-3 8,-6 9,-11 2,-4 3,-15 3,-32l0 -136c0,-12 -1,-20 -2,-23 -1,-3 -3,-5 -6,-7 -4,-3 -7,-4 -11,-4 -7,0 -15,2 -24,7l-4 -7 97 -44 6 0z"/>
   <g>
    <path class="fil0" d="M2878 3226l20 9 -20 49 -17 49 -14 50 -10 50 -8 50 -4 50 -3 50 1 51 3 50 6 51 7 50 10 50 13 50 14 50 16 49 18 49 20 48 21 48 23 48 24 47 26 46 26 45 28 44 29 44 30 43 31 42 31 40 32 40 33 38 32 38 34 36 33 34 -15 15 -34 -35 -33 -36 -33 -38 -33 -39 -32 -40 -32 -41 -31 -42 -30 -43 -29 -44 -29 -45 -27 -46 -26 -47 -24 -47 -23 -48 -22 -48 -20 -49 -18 -50 -16 -50 -15 -50 -12 -51 -10 -51 -8 -51 -6 -52 -3 -51 -1 -52 3 -51 4 -52 8 -51 11 -51 14 -51 17 -51 20 -50zm45 -76l-2 190 -3 -4 -3 -4 -4 -3 -3 -4 -4 -3 -4 -4 -3 -3 -4 -3 -4 -3 -4 -3 -4 -2 -4 -3 -4 -2 -4 -2 -4 -2 -5 -2 -4 -2 -4 -2 -5 -1 -4 -2 -5 -1 -4 -1 -5 -1 -5 -1 -4 -1 -5 0 -5 -1 -5 0 -5 -1 -5 0 -5 0 -5 1 0 0 138 -130z"/>
   </g>
   <path class="fil0" d="M3745 1548l0 9c-12,2 -20,6 -26,11 -9,8 -16,20 -23,37l-114 278 -9 0 -122 -282c-7,-15 -11,-24 -14,-27 -4,-5 -9,-9 -15,-12 -5,-2 -13,-4 -23,-5l0 -9 133 0 0 9c-15,1 -25,4 -29,8 -5,3 -7,8 -7,14 0,8 4,20 11,38l84 191 77 -189c8,-19 11,-32 11,-39 0,-5 -2,-9 -7,-13 -4,-5 -12,-8 -23,-9 -1,-1 -3,-1 -4,-1l0 -9 100 0z"/>
   <path id="1" class="fil0" d="M3916 1750l80 0 0 6 -4 0c-3,0 -7,2 -13,4 -5,3 -10,7 -15,11 -5,5 -10,13 -17,24l-55 86 0 59c0,14 1,23 4,26 5,5 12,7 21,7l8 0 0 7 -99 0 0 -7 9 0c9,0 16,-3 20,-8 3,-4 4,-12 4,-25l0 -54 -63 -97c-7,-11 -12,-18 -15,-21 -2,-3 -8,-6 -16,-10 -2,-1 -6,-2 -10,-2l0 -6 98 0 0 6 -5 0c-6,0 -10,2 -15,4 -4,3 -7,6 -7,11 0,4 4,12 11,22l47 74 45 -70c7,-11 11,-19 11,-24 0,-3 -1,-6 -3,-9 -1,-2 -4,-4 -7,-5 -3,-2 -7,-3 -14,-3l0 -6z"/>
   <path id="2" class="fil0" d="M4041 1773l56 -27 6 0 0 193c0,13 0,21 1,24 2,3 4,6 7,8 4,1 10,2 21,2l0 7 -87 0 0 -7c11,0 18,-1 21,-2 4,-2 6,-4 7,-7 1,-3 2,-11 2,-25l0 -124c0,-16 -1,-27 -2,-32 -1,-4 -2,-6 -4,-8 -2,-2 -5,-2 -8,-2 -4,0 -10,1 -17,5l-3 -5z"/>
   <path class="fil0" d="M4549 1584l40 0 -32 110c-2,7 -5,18 -9,33 6,25 10,39 13,44 6,9 13,13 22,13 7,0 12,-2 18,-7 5,-6 9,-14 11,-25l10 0c-3,23 -7,39 -15,48 -7,9 -16,13 -26,13 -9,0 -17,-4 -25,-12 -7,-7 -14,-24 -20,-49 -7,14 -14,24 -21,32 -9,9 -20,17 -31,22 -11,5 -23,7 -38,7 -35,0 -61,-12 -78,-35 -17,-24 -25,-51 -25,-81 0,-36 10,-64 29,-86 20,-22 43,-33 69,-33 19,0 35,5 49,17 14,11 27,32 38,62l21 -73zm-29 101c-9,-34 -20,-57 -34,-70 -14,-13 -27,-20 -42,-20 -15,0 -28,9 -39,26 -10,17 -16,45 -16,83 0,22 3,40 7,53 5,12 11,22 20,29 10,7 19,11 29,11 13,0 24,-6 34,-17 14,-16 28,-47 41,-95z"/>
   <path id="1" class="fil0" d="M4675 1703l56 -27 6 0 0 193c0,13 0,21 1,24 2,3 4,6 7,7 4,2 10,3 21,3l0 7 -87 0 0 -7c11,0 18,-1 21,-2 4,-2 6,-5 7,-8 1,-3 2,-11 2,-24l0 -124c0,-16 -1,-27 -2,-32 -1,-3 -2,-6 -4,-8 -2,-1 -5,-2 -8,-2 -4,0 -10,2 -17,5l-3 -5z"/>
   <path id="2" class="fil0" d="M5159 1478l0 9c-12,2 -21,6 -27,11 -8,8 -16,20 -22,36l-114 279 -9 0 -123 -282c-6,-15 -10,-24 -13,-27 -4,-5 -9,-9 -15,-12 -6,-3 -14,-4 -24,-5l0 -9 134 0 0 9c-15,1 -25,4 -29,8 -5,3 -7,8 -7,14 0,8 4,20 11,37l83 192 78 -189c7,-19 11,-32 11,-39 0,-5 -2,-9 -7,-13 -5,-5 -13,-8 -24,-10 0,0 -2,0 -4,0l0 -9 101 0z"/>
   <path id="3" class="fil0" d="M5330 1680l80 0 0 6 -4 0c-3,0 -7,2 -13,4 -6,3 -11,7 -15,11 -5,5 -11,13 -17,24l-56 86 0 59c0,14 2,23 5,26 5,5 11,7 21,7l7 0 0 7 -98 0 0 -7 8 0c10,0 17,-3 21,-9 3,-3 4,-11 4,-24l0 -54 -63 -97c-7,-11 -12,-18 -15,-21 -3,-3 -8,-6 -17,-10 -2,-1 -5,-2 -9,-2l0 -6 98 0 0 6 -6 0c-5,0 -10,2 -14,4 -5,3 -7,6 -7,11 0,4 4,12 10,22l48 74 45 -71c7,-10 10,-18 10,-23 0,-3 0,-6 -2,-9 -2,-2 -4,-4 -7,-6 -3,-1 -8,-2 -14,-2l0 -6z"/>
   <path id="4" class="fil0" d="M5455 1703l56 -27 6 0 0 193c0,13 0,21 1,24 1,3 4,6 7,7 3,2 10,3 21,3l0 7 -87 0 0 -7c11,0 18,-1 21,-3 3,-1 5,-3 7,-6 1,-3 2,-11 2,-25l0 -124c0,-17 -1,-27 -2,-32 -1,-4 -2,-6 -4,-8 -3,-2 -5,-3 -8,-3 -4,0 -10,2 -17,6l-3 -5z"/>
   <path class="fil0" d="M4183 319l0 9 -140 0 0 -9 12 0c13,0 23,-4 29,-12 4,-5 6,-17 6,-37l0 -212c0,-17 -1,-28 -3,-33 -2,-4 -5,-7 -10,-10 -7,-4 -15,-6 -22,-6l-12 0 0 -9 140 0 0 9 -11 0c-14,0 -23,4 -30,12 -4,5 -6,17 -6,37l0 212c0,17 2,28 4,33 1,4 5,7 10,10 7,4 14,6 22,6l11 0z"/>
   <path id="1" class="fil0" d="M4336 305l50 73c13,20 23,33 30,39 7,5 15,8 25,8l0 7 -98 0 0 -7c6,0 11,0 14,-2 3,-1 4,-2 6,-4 2,-2 2,-4 2,-7 0,-2 0,-5 -1,-7 -1,-2 -4,-7 -10,-15l-39 -59 -47 61c-5,7 -8,11 -9,14 -1,2 -2,4 -2,6 0,4 2,7 5,9 3,3 8,4 17,4l0 7 -81 0 0 -7c5,0 10,-1 15,-3 7,-3 13,-7 19,-12 7,-5 14,-13 22,-23l53 -68 -44 -66c-12,-18 -23,-30 -31,-36 -9,-5 -19,-8 -30,-9l0 -6 107 0 0 6c-9,1 -16,2 -19,5 -3,2 -5,5 -5,9 0,4 3,10 8,18l35 52 41 -51c4,-6 7,-10 8,-13 1,-2 2,-4 2,-7 0,-2 -1,-4 -2,-6 -2,-2 -4,-4 -6,-5 -3,-1 -8,-1 -16,-2l0 -6 81 0 0 6c-7,1 -12,2 -16,3 -6,3 -12,7 -17,11 -5,4 -12,12 -21,24l-46 59z"/>
   <path class="fil0" d="M6703 5005l0 41c0,26 -3,54 -10,85l-41 0c5,-20 7,-34 8,-41 2,-23 3,-39 3,-50l0 -247c0,-29 3,-50 9,-64 6,-14 16,-25 31,-35 15,-9 32,-14 53,-14 29,0 52,8 69,23 17,16 26,34 26,55 0,14 -4,27 -11,40 -7,12 -18,23 -32,32 43,20 65,52 65,96 0,19 -5,37 -14,54 -9,17 -21,29 -37,38 -16,9 -32,13 -48,13 -11,0 -22,-2 -33,-5 -10,-4 -23,-11 -38,-21zm0 -19c16,11 29,19 41,24 8,3 17,5 26,5 16,0 30,-7 41,-20 11,-14 16,-35 16,-64 0,-19 -2,-35 -8,-48 -5,-14 -14,-29 -28,-46 -10,4 -20,6 -28,6 -10,0 -16,-2 -20,-4 -4,-3 -6,-7 -6,-10 0,-3 1,-6 5,-8 3,-3 7,-4 14,-4 8,0 20,2 35,6 12,-22 17,-43 17,-63 0,-20 -5,-36 -15,-47 -10,-11 -22,-16 -37,-16 -18,0 -33,7 -43,23 -7,11 -10,27 -10,51l0 215z"/>
   <path id="1" class="fil0" d="M7047 5015l0 9 -140 0 0 -9 12 0c13,0 23,-4 29,-12 4,-5 6,-17 6,-37l0 -212c0,-17 -1,-28 -3,-33 -2,-4 -5,-7 -10,-10 -7,-4 -15,-6 -22,-6l-12 0 0 -9 140 0 0 9 -11 0c-14,0 -23,4 -30,12 -4,5 -6,17 -6,37l0 212c0,17 2,28 4,33 1,4 5,7 10,10 7,4 14,6 22,6l11 0z"/>
   <path id="2" class="fil0" d="M7200 5001l50 73c13,20 23,33 30,39 7,5 15,8 25,8l0 7 -98 0 0 -7c6,0 11,0 14,-2 3,-1 5,-2 6,-4 2,-2 2,-4 2,-7 0,-2 0,-5 -1,-7 -1,-2 -4,-7 -10,-15l-39 -59 -47 61c-5,7 -8,11 -9,14 -1,2 -2,4 -2,6 0,4 2,7 5,9 3,3 8,4 17,4l0 7 -81 0 0 -7c5,0 10,-1 15,-3 7,-3 13,-7 20,-12 6,-5 13,-13 21,-23l53 -68 -44 -66c-12,-18 -23,-30 -31,-36 -9,-5 -19,-8 -30,-9l0 -6 107 0 0 6c-9,1 -16,2 -19,5 -3,2 -5,5 -5,9 0,4 3,10 8,18l35 52 41 -51c4,-6 7,-10 8,-13 1,-2 2,-4 2,-7 0,-2 -1,-4 -2,-6 -2,-2 -4,-4 -6,-5 -3,-1 -8,-1 -16,-2l0 -6 81 0 0 6c-7,1 -12,2 -16,3 -6,3 -12,7 -17,11 -5,4 -12,13 -21,24l-46 59z"/>
   <g>
    <rect class="fil1 str0" transform="matrix(-0.966763 -0.966763 0.966763 -0.966763 6016.58 2098.94)" width="534" height="534"/>
    <g>
     <polygon class="fil0" points="6144,1367 6028,1367 6028,1482 5997,1482 5997,1367 5880,1367 5880,1335 5997,1335 5997,1220 6028,1220 6028,1335 6144,1335 "/>
     <polygon class="fil0" points="6140,1878 5885,1878 5885,1849 6140,1849 "/>
    </g>
   </g>
   <path class="fil0" d="M7792 3147l0 8 -141 0 0 -8 12 0c14,0 23,-4 30,-12 3,-5 5,-18 5,-37l0 -213c0,-16 -1,-27 -3,-32 -1,-4 -5,-8 -10,-11 -7,-4 -14,-5 -22,-5l-12 0 0 -9 141 0 0 9 -12 0c-13,0 -23,3 -29,11 -4,5 -6,18 -6,37l0 213c0,16 1,27 3,32 2,4 5,8 10,11 7,4 14,6 22,6l12 0z"/>
   <path id="1" class="fil0" d="M8003 3030l-151 215 94 0c15,0 26,-3 33,-9 8,-6 15,-19 21,-38l5 1 -10 60 -187 0 0 -6 147 -209 -73 0c-12,0 -21,1 -27,4 -5,2 -9,6 -12,11 -3,5 -6,15 -8,28l-6 0 4 -57 170 0z"/>
   <g>
    <path class="fil0" d="M2943 2315l0 0 -2 0 -3 0 -2 0 -3 -1 -2 0 -3 -1 -2 -1 -2 -1 -2 -1 -3 -1 -2 -1 -2 -1 -2 -2 -1 -1 -2 -2 -2 -1 -2 -2 -1 -2 -2 -2 -1 -2 -1 -2 -2 -2 -1 -2 -1 -2 -1 -2 0 -3 -1 -2 -1 -2 0 -3 0 -2 -1 -3 0 -2 25 0 0 1 0 1 1 1 0 2 0 1 0 1 1 1 0 1 1 1 0 1 1 1 1 1 0 1 1 1 1 1 1 1 0 1 1 1 1 1 1 0 1 1 1 0 1 1 2 1 1 0 1 0 1 1 1 0 1 0 2 0 1 0 1 0 0 0 0 25zm50 -49l0 0 0 2 0 3 -1 2 0 3 -1 2 0 2 -1 3 -1 2 -1 2 -1 2 -1 2 -1 2 -2 2 -1 2 -2 2 -2 2 -1 1 -2 2 -2 1 -2 2 -2 1 -2 1 -2 1 -2 1 -3 1 -2 1 -2 1 -3 0 -2 1 -3 0 -2 0 -3 0 0 -25 2 0 1 0 1 0 1 0 1 0 2 -1 1 0 1 0 1 -1 1 -1 1 0 1 -1 1 0 1 -1 1 -1 1 -1 1 -1 0 -1 1 -1 1 -1 1 -1 0 -1 1 -1 0 -1 1 -1 0 -1 0 -1 1 -1 0 -2 0 -1 0 -1 0 -1 0 0 25 0zm-50 -50l0 0 3 0 2 0 3 0 2 1 3 0 2 1 2 1 3 1 2 1 2 1 2 1 2 1 2 2 2 1 2 2 1 1 2 2 2 2 1 2 2 2 1 2 1 2 1 2 1 2 1 2 1 3 0 2 1 3 0 2 1 2 0 3 0 3 -25 0 0 -2 0 -1 0 -1 0 -1 -1 -2 0 -1 0 -1 -1 -1 0 -1 -1 -1 0 -1 -1 -1 -1 -1 -1 -1 0 -1 -1 -1 -1 -1 -1 -1 -1 0 -1 -1 -1 -1 -1 0 -1 -1 -1 0 -1 -1 -1 0 -2 -1 -1 0 -1 0 -1 0 -1 0 -2 0 0 0 0 -25zm-50 50l0 -3 1 -3 0 -2 0 -2 1 -3 1 -2 0 -3 1 -2 1 -2 1 -2 2 -2 1 -2 1 -2 2 -2 1 -2 2 -2 2 -1 2 -2 1 -1 2 -2 2 -1 2 -1 3 -1 2 -1 2 -1 2 -1 3 -1 2 0 3 -1 2 0 3 0 2 0 0 25 -1 0 -1 0 -2 0 -1 0 -1 0 -1 1 -1 0 -1 1 -2 0 -1 1 -1 0 -1 1 -1 1 -1 0 -1 1 0 1 -1 1 -1 1 -1 1 0 1 -1 1 -1 1 0 1 -1 1 0 1 -1 1 0 1 0 2 0 1 -1 1 0 1 0 2 -25 0zm-1895 -11l1911 0 0 21 -1911 0 0 -21zm-68 92l0 -25 0 0 3 0 3 0 3 0 3 -1 3 0 2 -1 3 -1 2 -1 3 -1 2 -1 3 -2 2 -1 2 -2 3 -2 2 -1 2 -2 1 -2 2 -2 2 -2 2 -3 1 -2 1 -2 2 -3 1 -2 1 -3 1 -3 1 -2 0 -3 1 -3 0 -3 0 -3 0 -2 25 0 0 4 0 4 -1 4 0 4 -1 4 -1 4 -2 4 -1 3 -2 4 -2 4 -2 3 -2 3 -2 3 -3 4 -2 3 -3 2 -3 3 -3 3 -3 2 -3 2 -3 2 -4 2 -3 2 -4 2 -3 1 -4 2 -4 1 -4 1 -4 0 -4 1 -4 0 -5 0 0 0zm-81 -81l25 0 0 0 0 2 0 3 0 3 1 3 0 3 1 2 1 3 1 3 1 2 1 3 2 2 1 2 2 3 2 2 1 2 2 2 2 2 2 1 2 2 3 2 2 1 2 2 3 1 2 1 3 1 3 1 2 1 3 0 3 1 3 0 3 0 2 0 0 25 -4 0 -4 0 -4 -1 -4 0 -4 -1 -4 -1 -4 -2 -3 -1 -4 -2 -3 -2 -4 -2 -3 -2 -3 -2 -4 -2 -2 -3 -3 -3 -3 -2 -3 -3 -2 -4 -2 -3 -2 -3 -2 -3 -2 -4 -2 -4 -1 -3 -2 -4 -1 -4 -1 -4 0 -4 -1 -4 0 -4 0 -4 0 0zm81 -82l0 25 0 0 -2 0 -3 0 -3 0 -3 1 -3 0 -2 1 -3 1 -3 1 -2 1 -3 2 -2 1 -2 1 -3 2 -2 2 -2 2 -2 1 -2 2 -1 2 -2 3 -2 2 -1 2 -2 3 -1 2 -1 2 -1 3 -1 3 -1 2 0 3 -1 3 0 3 0 3 0 3 -25 0 0 -5 0 -4 1 -4 0 -4 1 -4 1 -4 2 -4 1 -3 2 -4 2 -3 2 -4 2 -3 2 -3 2 -3 3 -3 3 -3 3 -3 2 -3 4 -2 3 -2 3 -2 4 -2 3 -2 4 -2 3 -1 4 -2 4 -1 4 -1 4 0 4 -1 4 0 4 0 0 0zm82 82l-25 0 0 -3 0 -3 0 -3 -1 -3 0 -3 -1 -2 -1 -3 -1 -3 -1 -2 -2 -2 -1 -3 -1 -2 -2 -2 -2 -3 -2 -2 -1 -2 -2 -1 -2 -2 -3 -2 -2 -2 -2 -1 -3 -1 -2 -2 -3 -1 -2 -1 -3 -1 -2 -1 -3 0 -3 -1 -3 0 -3 0 -3 0 0 -25 5 0 4 0 4 1 4 0 4 1 4 1 4 2 3 1 4 2 3 2 4 2 3 2 3 2 3 2 3 3 3 3 3 3 2 3 3 3 2 3 2 3 2 4 2 3 2 4 1 3 2 4 1 4 1 4 0 4 1 4 0 4 0 5z"/>
   </g>
   <g>
    <path class="fil0" d="M2943 2990l0 0 -2 0 -3 0 -2 0 -3 -1 -2 0 -3 -1 -2 -1 -2 0 -2 -1 -3 -2 -2 -1 -2 -1 -2 -1 -1 -2 -2 -2 -2 -1 -2 -2 -1 -2 -2 -2 -1 -2 -1 -2 -2 -2 -1 -2 -1 -2 -1 -2 0 -3 -1 -2 -1 -2 0 -3 0 -2 -1 -3 0 -2 25 0 0 1 0 1 1 1 0 2 0 1 0 1 1 1 0 1 1 1 0 1 1 1 1 2 0 0 1 1 1 1 1 1 0 1 1 1 1 1 1 0 1 1 1 1 1 0 2 1 1 0 1 0 1 1 1 0 1 0 2 0 1 0 1 1 0 0 0 24zm50 -49l0 0 0 2 0 3 -1 2 0 3 -1 2 0 2 -1 3 -1 2 -1 2 -1 2 -1 2 -1 2 -2 2 -1 2 -2 2 -2 2 -1 1 -2 2 -2 2 -2 1 -2 1 -2 1 -2 2 -2 1 -3 0 -2 1 -2 1 -3 0 -2 1 -3 0 -2 0 -3 0 0 -24 2 -1 1 0 1 0 1 0 1 0 2 -1 1 0 1 0 1 -1 1 0 1 -1 1 -1 1 0 1 -1 1 -1 1 -1 1 -1 0 -1 1 -1 1 0 1 -2 0 -1 1 -1 0 -1 1 -1 0 -1 0 -1 1 -1 0 -2 0 -1 0 -1 0 -1 0 0 25 0zm-50 -50l0 0 3 0 2 0 3 0 2 1 3 0 2 1 2 1 3 1 2 1 2 1 2 1 2 1 2 2 2 1 2 2 1 1 2 2 2 2 1 2 2 2 1 2 1 2 1 2 1 2 1 2 1 3 0 2 1 3 0 2 1 3 0 2 0 3 -25 0 0 -2 0 -1 0 -1 0 -1 -1 -2 0 -1 0 -1 -1 -1 0 -1 -1 -1 0 -1 -1 -1 -1 -1 -1 -1 0 -1 -1 -1 -1 -1 -1 -1 -1 0 -1 -1 -1 -1 -1 0 -1 -1 -1 0 -1 -1 -1 0 -2 -1 -1 0 -1 0 -1 0 -1 0 -2 0 0 0 0 -25zm-50 50l0 -3 1 -2 0 -3 0 -2 1 -3 1 -2 0 -3 1 -2 1 -2 1 -2 2 -2 1 -2 1 -2 2 -2 1 -2 2 -2 2 -1 2 -2 1 -1 2 -2 2 -1 2 -1 3 -1 2 -1 2 -1 2 -1 3 -1 2 0 3 -1 2 0 3 0 2 0 0 25 -1 0 -1 0 -2 0 -1 0 -1 0 -1 1 -1 0 -1 1 -2 0 -1 1 -1 0 -1 1 -1 1 -1 0 -1 1 0 1 -1 1 -1 1 -1 1 0 1 -1 1 -1 1 0 1 -1 1 0 1 -1 1 0 1 0 2 0 1 -1 1 0 1 0 2 -25 0zm-1895 -11l1911 0 0 21 -1911 0 0 -21zm-68 92l0 -25 0 0 3 0 3 0 3 0 3 -1 3 0 2 -1 3 -1 2 -1 3 -1 2 -1 3 -2 2 -1 2 -2 3 -2 2 -1 2 -2 1 -2 2 -2 2 -2 2 -3 1 -2 1 -2 2 -3 1 -2 1 -3 1 -3 1 -2 0 -3 1 -3 0 -3 0 -2 0 -3 25 0 0 4 0 4 -1 4 0 4 -1 4 -1 4 -2 4 -1 3 -2 4 -2 4 -2 3 -2 3 -2 4 -3 3 -2 3 -3 2 -3 3 -3 3 -3 2 -3 2 -3 3 -4 1 -3 2 -4 2 -3 1 -4 2 -4 1 -4 1 -4 0 -4 1 -4 0 -5 0 0 0zm-81 -81l25 0 0 0 0 3 0 2 0 3 1 3 0 3 1 2 1 3 1 3 1 2 1 3 2 2 1 2 2 3 2 2 1 2 2 2 2 2 2 1 2 2 3 2 2 1 2 2 3 1 2 1 3 1 3 1 2 1 3 0 3 1 3 0 3 0 2 0 0 25 -4 0 -4 0 -4 -1 -4 0 -4 -1 -4 -1 -4 -2 -3 -1 -4 -2 -3 -2 -4 -1 -3 -3 -3 -2 -4 -2 -2 -3 -3 -3 -3 -2 -3 -3 -2 -3 -2 -4 -2 -3 -2 -3 -2 -4 -2 -4 -1 -3 -2 -4 -1 -4 -1 -4 0 -4 -1 -4 0 -4 0 -4 0 0zm81 -82l0 25 0 0 -2 0 -3 0 -3 0 -3 1 -3 1 -2 0 -3 1 -3 1 -2 1 -3 2 -2 1 -2 1 -3 2 -2 2 -2 2 -2 1 -2 2 -1 2 -2 3 -2 2 -1 2 -2 3 -1 2 -1 3 -1 2 -1 3 -1 2 0 3 -1 3 0 3 0 3 0 3 -25 0 0 -5 0 -4 1 -4 0 -4 1 -4 1 -4 2 -3 1 -4 2 -4 2 -3 2 -4 2 -3 2 -3 2 -3 3 -3 3 -3 3 -3 2 -2 4 -3 3 -2 3 -2 4 -2 3 -2 4 -2 3 -1 4 -2 4 -1 4 -1 4 0 4 -1 4 0 4 0 0 0zm82 82l-25 0 0 -3 0 -3 0 -3 -1 -3 0 -3 -1 -2 -1 -3 -1 -2 -1 -3 -2 -2 -1 -3 -1 -2 -2 -2 -2 -3 -2 -2 -1 -2 -2 -1 -2 -2 -3 -2 -2 -2 -2 -1 -3 -1 -2 -2 -3 -1 -2 -1 -3 -1 -2 0 -3 -1 -3 -1 -3 0 -3 0 -3 0 0 -25 5 0 4 0 4 1 4 0 4 1 4 1 4 2 3 1 4 2 3 2 4 2 3 2 3 2 3 3 3 2 3 3 3 3 2 3 3 3 2 3 2 3 2 4 2 3 2 4 1 4 2 3 1 4 1 4 0 4 1 4 0 4 0 5z"/>
   </g>
   <path class="fil0" d="M231 2033l114 0 0 8 -6 0c-4,0 -11,2 -19,6 -8,4 -15,9 -22,16 -6,7 -14,18 -24,34l-79 123 0 84c0,20 3,32 7,37 6,7 16,10 29,10l11 0 0 9 -140 0 0 -9 12 0c14,0 24,-4 29,-12 4,-5 6,-17 6,-35l0 -77 -90 -139c-10,-16 -18,-26 -21,-30 -4,-4 -12,-9 -24,-14 -3,-2 -8,-3 -14,-3l0 -8 140 0 0 8 -7 0c-8,0 -15,2 -21,6 -7,3 -10,9 -10,16 0,6 5,16 15,31l68 106 64 -101c10,-15 15,-27 15,-34 0,-5 -1,-9 -4,-12 -2,-4 -5,-7 -10,-9 -4,-2 -11,-3 -19,-3l0 -8z"/>
   <path id="1" class="fil0" d="M578 2297l-23 63 -193 0 0 -9c57,-52 97,-94 120,-127 23,-32 35,-62 35,-90 0,-20 -7,-37 -19,-51 -13,-13 -28,-20 -46,-20 -16,0 -30,5 -43,14 -13,9 -22,23 -29,41l-9 0c4,-30 15,-52 32,-68 16,-16 37,-24 62,-24 27,0 49,9 67,26 17,17 26,37 26,60 0,17 -4,33 -11,50 -12,26 -32,54 -58,83 -40,43 -65,70 -75,78l85 0c17,0 29,0 36,-2 7,-1 14,-4 19,-8 6,-3 11,-9 15,-16l9 0z"/>
   <path class="fil0" d="M231 2724l114 0 0 9 -6 0c-4,0 -11,2 -19,6 -8,4 -15,9 -22,16 -6,7 -14,18 -24,34l-79 123 0 83c0,21 3,33 7,38 6,7 16,10 29,10l11 0 0 9 -140 0 0 -9 12 0c14,0 24,-4 29,-12 4,-5 6,-17 6,-36l0 -76 -90 -139c-10,-16 -18,-26 -21,-30 -4,-4 -12,-9 -24,-14 -3,-2 -8,-3 -14,-3l0 -9 140 0 0 9 -7 0c-8,0 -15,2 -21,6 -7,3 -10,9 -10,16 0,5 5,16 15,31l68 106 64 -101c10,-15 15,-27 15,-34 0,-5 -1,-9 -4,-12 -2,-4 -5,-7 -10,-9 -4,-2 -11,-3 -19,-3l0 -9z"/>
   <path id="1" class="fil0" d="M376 2787c10,-22 22,-39 36,-51 14,-12 32,-18 53,-18 26,0 47,9 61,26 10,12 16,26 16,40 0,24 -15,49 -45,74 20,8 35,19 45,34 11,15 16,32 16,52 0,28 -9,52 -27,73 -24,27 -58,41 -103,41 -22,0 -37,-3 -45,-9 -8,-5 -12,-11 -12,-17 0,-5 2,-9 6,-12 4,-4 8,-6 14,-6 4,0 8,1 12,2 3,1 9,4 19,9 9,5 16,8 20,9 6,2 12,3 19,3 17,0 31,-6 43,-19 12,-13 18,-28 18,-45 0,-13 -3,-25 -8,-37 -4,-10 -9,-16 -14,-21 -7,-6 -16,-12 -29,-18 -12,-5 -24,-7 -37,-7l-7 0 0 -8c12,-1 25,-6 38,-14 13,-7 22,-16 28,-27 6,-10 8,-22 8,-35 0,-16 -5,-30 -15,-40 -11,-10 -24,-15 -39,-15 -25,0 -46,13 -63,40l-8 -4z"/>
   <g>
    <path class="fil0" d="M3211 2421l12 -18 33 28 32 35 30 42 28 48 26 53 25 59 24 63 22 68 20 72 19 76 18 78 15 82 15 83 12 86 12 87 9 87 9 89 6 88 5 88 3 88 2 86 0 84 -1 83 -3 80 -5 77 -6 73 -8 70 -9 65 -12 61 -13 56 -14 50 -17 45 -19 -8 16 -43 14 -49 13 -55 11 -60 9 -65 8 -69 6 -73 5 -76 3 -80 1 -82 0 -84 -2 -86 -3 -87 -5 -87 -6 -89 -9 -88 -9 -87 -11 -86 -13 -85 -14 -84 -16 -81 -17 -78 -19 -75 -20 -71 -22 -67 -23 -63 -25 -57 -26 -52 -27 -47 -28 -39 -30 -34 -31 -25zm-65 -60l185 40 -4 3 -5 2 -4 3 -4 3 -4 3 -4 2 -4 3 -4 4 -4 3 -3 3 -3 3 -4 4 -3 3 -3 4 -3 4 -2 3 -3 4 -3 4 -2 4 -2 4 -2 4 -2 5 -2 4 -2 5 -2 4 -1 5 -2 4 -1 5 -1 5 -1 5 -1 5 -1 5 0 0 -99 -162z"/>
   </g>
   <g>
    <path class="fil0" d="M3204 1679l9 -19 42 24 46 34 48 43 50 52 51 61 53 68 54 75 54 82 53 89 53 95 51 100 50 105 47 110 44 113 40 117 37 121 32 122 27 125 22 127 15 128 9 128 2 129 -6 128 -14 128 -23 126 -33 125 -42 122 -52 120 -63 116 -75 113 -87 108 -99 104 -14 -15 97 -103 86 -107 74 -111 62 -115 52 -118 41 -120 32 -124 23 -124 14 -127 6 -127 -2 -127 -9 -127 -15 -127 -21 -126 -27 -124 -32 -122 -37 -119 -40 -117 -44 -112 -47 -109 -49 -105 -51 -99 -52 -94 -53 -88 -54 -82 -53 -75 -52 -67 -51 -60 -49 -50 -47 -43 -43 -32 -40 -23zm-75 -47l190 7 -4 3 -4 4 -4 3 -3 3 -4 4 -3 3 -3 4 -4 4 -3 4 -2 3 -3 4 -3 4 -2 4 -3 4 -2 4 -2 5 -2 4 -2 4 -1 5 -2 4 -1 4 -1 5 -2 5 -1 4 0 5 -1 5 -1 5 0 5 -1 5 0 5 0 5 0 5 0 0 -126 -142z"/>
   </g>
   <path class="fil0" d="M3525 3354l0 9c-11,2 -20,5 -26,11 -8,8 -16,20 -22,36l-114 279 -9 0 -123 -282c-6,-15 -10,-24 -13,-27 -4,-5 -9,-9 -15,-12 -6,-3 -14,-5 -24,-5l0 -9 134 0 0 9c-15,1 -25,4 -29,7 -5,4 -7,9 -7,15 0,8 3,20 11,37l83 192 78 -189c7,-19 11,-32 11,-39 0,-5 -2,-9 -7,-14 -5,-4 -13,-7 -24,-9 -1,0 -2,0 -4,0l0 -9 100 0z"/>
   <path id="1" class="fil0" d="M3697 3556l80 0 0 6 -4 0c-3,0 -7,1 -13,4 -6,3 -11,6 -16,11 -4,5 -10,13 -17,24l-55 86 0 59c0,14 2,23 5,26 4,5 11,7 21,7l7 0 0 6 -98 0 0 -6 8 0c10,0 17,-3 21,-9 2,-3 4,-12 4,-24l0 -54 -63 -97c-7,-11 -12,-18 -15,-21 -3,-3 -8,-6 -17,-10 -2,-1 -5,-2 -9,-2l0 -6 97 0 0 6 -5 0c-5,0 -10,1 -14,4 -5,2 -7,6 -7,11 0,4 3,11 10,22l48 74 45 -71c7,-10 10,-18 10,-23 0,-4 -1,-6 -2,-9 -2,-2 -4,-4 -7,-6 -3,-1 -8,-2 -14,-2l0 -6z"/>
   <path id="2" class="fil0" d="M3940 3741l-16 44 -135 0 0 -6c40,-36 68,-66 84,-89 16,-23 24,-44 24,-63 0,-14 -4,-26 -13,-36 -9,-9 -20,-14 -32,-14 -11,0 -21,4 -30,10 -9,7 -16,16 -20,29l-6 0c2,-21 10,-37 21,-48 12,-11 27,-17 44,-17 19,0 34,6 47,18 12,12 18,26 18,43 0,11 -2,23 -8,34 -8,19 -22,38 -40,58 -28,31 -46,49 -52,55l59 0c12,0 20,0 25,-1 5,-1 10,-3 13,-5 4,-3 8,-7 11,-12l6 0z"/>
   <path class="fil0" d="M2606 4240l0 9c-12,2 -21,5 -27,11 -8,8 -16,20 -22,36l-114 279 -9 0 -122 -282c-7,-15 -11,-24 -14,-27 -4,-5 -9,-9 -15,-12 -5,-3 -13,-5 -23,-5l0 -9 133 0 0 9c-15,1 -25,4 -29,7 -5,4 -7,9 -7,15 0,8 4,20 11,37l83 192 78 -189c7,-19 11,-32 11,-39 0,-5 -2,-9 -7,-14 -4,-4 -12,-7 -23,-9 -1,0 -3,0 -5,0l0 -9 101 0z"/>
   <path id="1" class="fil0" d="M2777 4442l80 0 0 6 -4 0c-3,0 -7,1 -13,4 -6,3 -11,6 -15,11 -5,5 -11,13 -17,24l-55 86 0 59c0,14 1,22 4,26 5,5 12,7 21,7l7 0 0 6 -98 0 0 -6 8 0c10,0 17,-3 21,-9 3,-3 4,-12 4,-24l0 -54 -63 -97c-7,-11 -12,-18 -15,-21 -3,-3 -8,-6 -16,-10 -3,-1 -6,-2 -10,-2l0 -6 98 0 0 6 -5 0c-6,0 -11,1 -15,4 -5,2 -7,6 -7,11 0,4 4,11 11,22l47 74 45 -71c7,-10 10,-18 10,-23 0,-4 0,-6 -2,-9 -2,-2 -4,-4 -7,-6 -3,-1 -8,-2 -14,-2l0 -6z"/>
   <path id="2" class="fil0" d="M2879 4486c7,-16 15,-28 25,-36 10,-8 23,-13 37,-13 19,0 33,6 43,18 7,9 11,19 11,29 0,16 -11,34 -32,51 15,6 25,14 32,24 8,10 11,22 11,36 0,20 -6,37 -19,52 -16,19 -40,28 -71,28 -16,0 -26,-2 -32,-6 -5,-3 -8,-8 -8,-12 0,-3 1,-6 4,-9 2,-2 6,-3 9,-3 3,0 6,0 9,1 2,1 6,3 13,6 7,4 12,6 14,7 4,1 9,2 14,2 11,0 21,-5 30,-14 8,-9 12,-19 12,-31 0,-9 -2,-18 -6,-26 -2,-7 -6,-12 -9,-15 -5,-4 -12,-8 -20,-12 -9,-4 -17,-6 -26,-6l-6 0 0 -5c9,-1 18,-4 27,-9 9,-6 16,-12 20,-19 4,-8 6,-16 6,-25 0,-12 -4,-21 -11,-28 -7,-7 -16,-11 -27,-11 -18,0 -32,10 -44,29l-6 -3z"/>
   <path class="fil0" d="M4465 2917l40 0 -32 110c-2,7 -5,18 -10,33 6,25 11,40 14,44 6,9 13,14 22,14 6,0 12,-3 18,-8 5,-6 9,-14 10,-25l10 0c-2,23 -7,39 -14,48 -8,9 -16,13 -26,13 -9,0 -18,-4 -25,-11 -8,-8 -14,-25 -20,-50 -7,14 -14,25 -21,32 -10,10 -20,17 -31,22 -11,5 -24,7 -38,7 -36,0 -62,-12 -78,-35 -17,-24 -26,-51 -26,-81 0,-35 10,-64 30,-86 20,-22 43,-33 69,-33 18,0 35,6 49,17 14,11 26,32 38,63l21 -74zm-30 101c-8,-33 -20,-57 -33,-70 -14,-13 -28,-20 -42,-20 -16,0 -29,9 -39,26 -11,18 -16,45 -16,83 0,22 2,40 7,53 4,13 11,22 20,29 9,7 19,11 29,11 12,0 24,-6 34,-17 14,-15 27,-47 40,-95z"/>
   <path id="1" class="fil0" d="M4709 3198l-16 45 -135 0 0 -7c46,-43 77,-77 92,-103 11,-17 16,-33 16,-49 0,-14 -5,-26 -14,-35 -9,-10 -19,-14 -32,-14 -11,0 -21,3 -30,10 -9,6 -15,16 -20,28l-6 0c3,-20 10,-36 22,-48 12,-11 26,-16 44,-16 18,0 34,6 46,18 12,12 19,26 19,42 0,12 -3,23 -9,35 -8,18 -22,38 -41,58 -27,31 -45,49 -52,55l60 0c17,0 28,-1 34,-4 6,-3 11,-8 16,-15l6 0z"/>
   <path id="2" class="fil0" d="M5489 3198l-16 45 -135 0 0 -7c46,-43 77,-77 93,-103 10,-17 15,-33 15,-49 0,-14 -5,-26 -14,-35 -8,-10 -19,-14 -31,-14 -12,0 -22,3 -31,10 -9,6 -15,16 -19,28l-7 0c3,-20 10,-36 22,-48 12,-11 26,-16 44,-16 18,0 34,6 46,18 13,12 19,26 19,42 0,12 -3,23 -9,35 -8,18 -22,38 -41,58 -27,31 -44,49 -51,55l59 0c17,0 28,-1 34,-4 6,-3 12,-8 16,-15l6 0z"/>
   <path id="3" class="fil0" d="M5074 2811l0 9c-11,2 -20,6 -26,11 -9,8 -16,20 -23,37l-114 278 -8 0 -123 -282c-6,-15 -11,-24 -13,-27 -4,-5 -9,-9 -15,-12 -6,-2 -14,-4 -24,-5l0 -9 134 0 0 9c-15,1 -25,4 -30,8 -4,3 -6,8 -6,14 0,8 3,21 11,38l83 192 77 -190c8,-19 12,-32 12,-39 0,-5 -3,-9 -7,-13 -5,-5 -13,-8 -24,-9 -1,0 -2,-1 -4,-1l0 -9 100 0z"/>
   <path id="4" class="fil0" d="M5246 3013l80 0 0 6 -5 0c-2,0 -7,2 -12,4 -6,3 -11,7 -16,12 -4,4 -10,12 -17,23l-55 87 0 58c0,14 2,23 5,26 4,5 11,7 20,7l8 0 0 7 -98 0 0 -7 8 0c10,0 17,-2 21,-8 2,-4 3,-12 3,-25l0 -54 -62 -97c-8,-11 -13,-18 -15,-21 -3,-3 -9,-6 -17,-10 -2,-1 -5,-2 -10,-2l0 -6 98 0 0 6 -5 0c-5,0 -10,2 -15,4 -4,3 -6,6 -6,11 0,4 3,12 10,22l48 74 45 -70c7,-11 10,-19 10,-24 0,-3 -1,-6 -2,-9 -2,-2 -4,-4 -7,-5 -4,-2 -8,-3 -14,-3l0 -6z"/>
   <g>
    <rect class="fil1 str0" transform="matrix(0.966763 0.966763 -0.966763 0.966763 6016.57 2474.93)" width="534" height="534"/>
    <g>
     <polygon class="fil0" points="5889,3207 6005,3207 6005,3092 6037,3092 6037,3207 6153,3207 6153,3239 6037,3239 6037,3354 6005,3354 6005,3239 5889,3239 "/>
     <polygon class="fil0" points="5893,2696 6148,2696 6148,2725 5893,2725 "/>
    </g>
   </g>
   <path class="fil0" d="M4481 4335l41 0 -32 110c-2,7 -6,18 -10,33 6,24 11,39 14,44 6,9 13,13 22,13 6,0 12,-2 18,-8 5,-5 9,-13 10,-24l10 0c-2,23 -7,39 -14,48 -8,8 -17,13 -26,13 -10,0 -18,-4 -25,-12 -8,-7 -15,-24 -21,-49 -7,13 -14,24 -20,31 -10,10 -20,18 -31,23 -11,4 -24,7 -38,7 -36,0 -62,-12 -79,-36 -16,-23 -25,-50 -25,-80 0,-36 10,-65 30,-87 19,-22 43,-32 69,-32 18,0 34,5 48,16 14,12 27,33 39,63l20 -73zm-29 100c-8,-33 -20,-56 -33,-69 -14,-14 -28,-20 -42,-20 -16,0 -29,8 -39,26 -11,17 -16,45 -16,83 0,22 2,39 7,52 4,13 11,23 20,30 9,7 19,11 29,11 12,0 24,-6 34,-17 14,-16 27,-48 40,-96z"/>
   <path id="1" class="fil0" d="M4585 4474c6,-15 15,-27 25,-35 10,-8 22,-13 37,-13 18,0 32,6 42,18 7,9 11,19 11,29 0,16 -10,34 -31,51 14,6 24,14 32,24 7,10 11,23 11,37 0,19 -6,35 -18,50 -16,20 -41,30 -74,30 -14,0 -25,-2 -30,-6 -6,-4 -9,-8 -9,-13 0,-3 2,-6 5,-9 2,-2 5,-3 9,-3 3,0 6,0 9,1 2,1 6,3 13,6 6,4 11,6 14,7 4,1 8,1 13,1 11,0 21,-4 30,-13 8,-9 13,-20 13,-32 0,-8 -2,-16 -5,-23 -4,-8 -7,-13 -10,-17 -5,-4 -12,-8 -20,-12 -9,-4 -18,-6 -26,-6l-6 0 0 -5c9,-1 18,-4 27,-9 9,-6 15,-12 19,-19 4,-8 6,-16 6,-25 0,-12 -4,-21 -11,-28 -7,-7 -16,-11 -27,-11 -17,0 -32,10 -43,28l-6 -3z"/>
   <path id="2" class="fil0" d="M5365 4474c7,-15 15,-27 25,-35 10,-8 22,-13 37,-13 18,0 32,6 42,18 8,9 11,19 11,29 0,16 -10,34 -31,51 14,6 25,14 32,24 7,10 11,23 11,37 0,19 -6,35 -18,50 -16,20 -41,30 -73,30 -15,0 -25,-2 -31,-6 -6,-4 -8,-8 -8,-13 0,-3 1,-6 4,-9 2,-2 6,-3 9,-3 3,0 6,0 9,1 2,1 6,3 13,6 6,4 11,6 14,7 4,1 9,1 13,1 12,0 22,-4 30,-13 9,-9 13,-20 13,-32 0,-8 -2,-16 -5,-23 -3,-8 -7,-13 -10,-17 -5,-4 -12,-8 -20,-12 -9,-4 -17,-6 -26,-6l-6 0 0 -5c9,-1 18,-4 27,-9 9,-6 15,-12 19,-19 4,-8 6,-16 6,-25 0,-12 -3,-21 -11,-28 -7,-7 -16,-11 -27,-11 -17,0 -32,10 -43,28l-6 -3z"/>
   <path id="3" class="fil0" d="M5091 4229l0 9c-11,2 -20,5 -26,11 -9,8 -16,20 -23,36l-114 279 -9 0 -122 -282c-6,-15 -11,-24 -13,-27 -4,-5 -9,-9 -15,-12 -6,-3 -14,-5 -24,-5l0 -9 134 0 0 9c-16,1 -25,4 -30,7 -4,4 -7,9 -7,15 0,8 4,20 12,37l83 192 77 -189c8,-19 12,-32 12,-39 0,-5 -3,-9 -7,-14 -5,-4 -13,-7 -24,-9 -1,0 -2,0 -4,0l0 -9 100 0z"/>
   <path id="4" class="fil0" d="M5263 4431l80 0 0 6 -5 0c-3,0 -7,1 -13,4 -5,3 -10,6 -15,11 -5,5 -10,13 -17,24l-55 86 0 58c0,15 2,23 5,27 4,5 11,7 20,7l8 0 0 6 -99 0 0 -6 9 0c10,0 16,-3 21,-9 2,-3 3,-12 3,-25l0 -53 -62 -97c-8,-11 -13,-18 -16,-21 -2,-3 -8,-6 -16,-10 -2,-1 -5,-2 -10,-2l0 -6 98 0 0 6 -5 0c-5,0 -10,1 -15,4 -4,2 -6,6 -6,11 0,4 3,11 10,22l47 74 46 -71c6,-10 10,-18 10,-24 0,-3 -1,-6 -3,-8 -1,-2 -4,-4 -7,-6 -3,-1 -7,-2 -13,-2l0 -6z"/>
   <g>
    <rect class="fil1 str0" transform="matrix(-0.966763 -0.966763 0.966763 -0.966763 6016.58 4900.35)" width="534" height="534"/>
    <g>
     <polygon class="fil0" points="6144,4168 6028,4168 6028,4284 5997,4284 5997,4168 5880,4168 5880,4136 5997,4136 5997,4022 6028,4022 6028,4136 6144,4136 "/>
     <polygon class="fil0" points="6140,4679 5885,4679 5885,4650 6140,4650 "/>
    </g>
   </g>
   <line class="fil1 str0" x1="6014" y1="3490" x2="6014" y2= "3847" />
   <path class="fil0" d="M6329 2417l-154 0 0 -5c47,-56 76,-94 86,-113 10,-20 15,-39 15,-57 0,-14 -4,-25 -13,-34 -8,-9 -18,-13 -30,-13 -20,0 -36,10 -47,29l-7 -2c7,-25 18,-43 32,-55 14,-12 31,-18 49,-18 13,0 25,3 36,9 11,7 20,15 26,26 6,11 9,21 9,30 0,17 -4,35 -14,52 -13,24 -41,57 -85,100l57 0c13,0 22,-1 27,-2 4,-1 7,-3 10,-6 3,-2 6,-8 11,-17l7 0 -15 76z"/>
   <path class="fil0" d="M6215 3669l0 -7c15,-4 25,-8 31,-12 5,-3 10,-9 14,-16 5,-8 7,-16 7,-23 0,-11 -4,-20 -12,-28 -8,-7 -18,-11 -29,-11 -18,0 -34,9 -46,28l-7 -2c9,-22 21,-38 35,-49 15,-11 31,-16 49,-16 18,0 33,5 45,17 11,11 17,24 17,38 0,10 -2,19 -8,28 -5,9 -14,17 -26,24 15,7 27,16 35,27 8,11 12,24 12,41 0,27 -10,50 -30,69 -20,19 -46,29 -79,29 -23,0 -39,-4 -49,-11 -7,-5 -11,-12 -11,-20 0,-6 2,-11 6,-15 5,-4 10,-6 15,-6 4,0 8,1 12,2 2,1 9,7 22,17 13,10 24,15 35,15 10,0 18,-3 25,-11 7,-7 10,-17 10,-28 0,-18 -6,-34 -18,-49 -13,-15 -31,-25 -55,-31z"/>
   <g>
    <path class="fil0" d="M6004 5273l0 -357 21 0 0 357 -21 0zm-96 0l0 -12 212 0 0 25 -212 0 0 -13z"/>
   </g>
  </g>
 </g>
</svg>
