<?xml version="1.0" encoding="UTF-8"?>
<!DOCTYPE svg PUBLIC "-//W3C//DTD SVG 1.1//EN" "http://www.w3.org/Graphics/SVG/1.1/DTD/svg11.dtd">
<!-- Creator: CorelDRAW Home & Student X8 -->
<svg xmlns="http://www.w3.org/2000/svg" xml:space="preserve" width="72.8399mm" height="62.0591mm" version="1.1" style="shape-rendering:geometricPrecision; text-rendering:geometricPrecision; image-rendering:optimizeQuality; fill-rule:evenodd; clip-rule:evenodd"
viewBox="0 0 9581 8163"
 xmlns:xlink="http://www.w3.org/1999/xlink">
 <defs>
  <style type="text/css">
   <![CDATA[
    .str0 {stroke:#2B2A29;stroke-width:39.4597}
    .str1 {stroke:#2B2A29;stroke-width:39.4597;stroke-dasharray:39.459659 39.459659}
    .fil1 {fill:none}
    .fil0 {fill:#2B2A29;fill-rule:nonzero}
   ]]>
  </style>
 </defs>
 <g id="Warstwa_x0020_1">
  <metadata id="CorelCorpID_0Corel-Layer"/>
  <g id="_346410272">
   <g>
    <path class="fil0" d="M8245 4368l-3358 0 0 -40 3358 0 0 40zm127 -174l0 47 0 0 -6 0 -5 1 -5 0 -5 1 -6 1 -5 2 -5 2 -4 2 -5 2 -5 2 -4 3 -5 2 -4 3 -4 4 -4 3 -3 3 -4 4 -3 4 -3 4 -3 4 -3 5 -3 4 -2 5 -2 4 -2 5 -2 5 -1 5 -2 5 -1 6 0 5 -1 5 0 6 -47 0 1 -8 0 -8 1 -7 2 -8 1 -7 2 -8 3 -7 3 -7 3 -7 3 -6 4 -7 4 -6 4 -6 5 -6 4 -5 6 -6 5 -5 5 -5 6 -4 6 -4 6 -4 7 -4 7 -3 6 -4 7 -2 7 -3 8 -2 7 -2 8 -1 7 -1 8 0 8 -1 0 0zm153 154l-46 0 0 0 0 -6 -1 -5 -1 -5 0 -6 -2 -5 -1 -5 -2 -5 -2 -5 -2 -4 -2 -5 -3 -4 -3 -5 -3 -4 -3 -4 -3 -4 -4 -4 -3 -3 -4 -3 -4 -4 -4 -3 -5 -2 -4 -3 -5 -2 -5 -2 -4 -2 -5 -2 -5 -2 -6 -1 -5 -1 -5 0 -6 -1 -5 0 0 -47 8 1 8 0 7 1 8 1 7 2 8 2 7 3 7 2 6 4 7 3 6 4 7 4 6 4 6 4 5 5 5 5 5 6 5 5 5 6 4 6 4 6 4 7 3 6 3 7 3 7 3 7 2 8 1 7 2 8 1 7 0 8 0 8 0 0zm-153 153l0 -46 0 0 5 -1 6 0 5 -1 5 -1 6 -1 5 -1 5 -2 4 -2 5 -2 5 -2 4 -3 5 -3 4 -3 4 -3 4 -3 3 -4 4 -3 3 -4 3 -4 3 -5 3 -4 3 -4 2 -5 2 -5 2 -5 2 -4 1 -6 2 -5 0 -5 1 -5 1 -6 0 -5 46 0 0 8 0 8 -1 7 -2 8 -1 7 -2 7 -3 8 -3 7 -3 6 -3 7 -4 6 -4 7 -4 6 -5 5 -5 6 -5 5 -5 5 -5 5 -6 5 -6 4 -7 4 -6 4 -7 3 -6 3 -7 3 -7 2 -8 3 -7 1 -8 2 -7 1 -8 0 -8 0 0 0zm-154 -153l47 0 0 5 1 6 0 5 1 5 2 5 1 6 2 4 2 5 2 5 2 5 3 4 3 4 3 5 3 4 3 4 4 3 3 4 4 3 4 3 4 3 5 3 4 3 5 2 5 2 4 2 5 2 5 1 6 1 5 1 5 1 5 0 6 1 0 46 -8 0 -8 0 -7 -1 -8 -2 -7 -1 -8 -3 -7 -2 -7 -3 -6 -3 -7 -3 -7 -4 -6 -4 -6 -4 -6 -5 -5 -5 -5 -5 -6 -5 -4 -6 -5 -5 -4 -6 -4 -7 -4 -6 -3 -7 -3 -6 -3 -7 -3 -8 -2 -7 -1 -7 -2 -8 -1 -7 0 -8 -1 -8z"/>
   </g>
   <g>
    <path class="fil0" d="M1553 4194l0 0 8 1 8 0 8 1 7 1 8 2 7 2 7 3 7 2 7 4 6 3 7 4 6 4 6 4 6 4 5 5 6 5 5 6 5 5 4 6 4 6 4 6 4 7 4 6 3 7 2 7 3 7 2 8 2 7 1 8 1 7 1 8 0 8 -47 0 0 -6 -1 -5 0 -5 -1 -6 -1 -5 -2 -5 -1 -5 -2 -5 -3 -4 -2 -5 -2 -4 -3 -5 -3 -4 -3 -4 -4 -4 -3 -4 -4 -3 -4 -3 -4 -4 -4 -3 -5 -2 -4 -3 -5 -2 -4 -2 -5 -2 -5 -2 -5 -2 -5 -1 -6 -1 -5 0 -5 -1 -6 0 0 0 0 -47zm-153 154l0 0 0 -8 1 -8 1 -7 1 -8 2 -7 2 -8 2 -7 3 -7 3 -7 3 -6 4 -7 4 -6 4 -6 5 -6 5 -5 5 -6 5 -5 6 -5 6 -4 6 -4 6 -4 6 -4 7 -3 7 -4 7 -2 7 -3 7 -2 7 -2 8 -1 8 -1 7 0 8 -1 0 47 -5 0 -6 1 -5 0 -5 1 -5 1 -5 2 -5 2 -5 2 -5 2 -4 2 -5 3 -4 2 -4 3 -4 4 -4 3 -4 3 -4 4 -3 4 -3 4 -3 4 -3 5 -3 4 -2 5 -2 4 -2 5 -2 5 -1 5 -1 5 -1 6 -1 5 0 5 0 6 0 0 -47 0zm153 153l0 0 -8 0 -7 0 -8 -1 -8 -2 -7 -1 -7 -3 -7 -2 -7 -3 -7 -3 -7 -3 -6 -4 -6 -4 -6 -4 -6 -5 -6 -5 -5 -5 -5 -5 -5 -6 -5 -5 -4 -6 -4 -7 -4 -6 -3 -7 -3 -6 -3 -7 -2 -8 -2 -7 -2 -7 -1 -8 -1 -7 -1 -8 0 -8 47 0 0 5 0 6 1 5 1 5 1 5 1 6 2 4 2 5 2 5 2 5 3 4 3 4 3 5 3 4 3 4 4 3 4 4 4 3 4 3 4 3 4 3 5 3 4 2 5 2 5 2 5 2 5 1 5 1 5 1 5 1 6 0 5 1 0 0 0 46zm154 -153l0 8 -1 8 -1 7 -1 8 -2 7 -2 7 -3 8 -2 7 -3 6 -4 7 -4 6 -4 7 -4 6 -4 5 -5 6 -5 5 -6 5 -5 5 -6 5 -6 4 -6 4 -7 4 -6 3 -7 3 -7 3 -7 2 -7 3 -8 1 -7 2 -8 1 -8 0 -8 0 0 -46 6 -1 5 0 5 -1 6 -1 5 -1 5 -1 5 -2 5 -2 4 -2 5 -2 4 -3 5 -3 4 -3 4 -3 4 -3 4 -4 3 -3 4 -4 3 -4 3 -5 3 -4 2 -4 2 -5 3 -5 2 -5 1 -4 2 -6 1 -5 1 -5 0 -5 1 -6 0 -5 47 0zm795 20l-822 0 0 -40 822 0 0 40z"/>
   </g>
   <g>
    <path class="fil0" d="M8200 7635l-3313 0 0 -39 3313 0 0 39zm127 -173l0 47 0 0 -5 0 -6 0 -5 1 -5 1 -5 1 -6 1 -4 2 -5 2 -5 2 -5 3 -4 2 -4 3 -5 3 -4 3 -4 3 -3 4 -4 4 -3 4 -3 4 -3 4 -3 4 -3 5 -2 4 -2 5 -2 5 -2 5 -1 5 -1 5 -1 5 -1 5 0 6 -1 5 -46 0 0 -8 0 -7 1 -8 2 -8 1 -7 3 -7 2 -7 3 -7 3 -7 3 -7 4 -6 4 -6 4 -6 5 -6 5 -6 5 -5 5 -5 6 -5 5 -5 6 -4 7 -4 6 -4 7 -3 6 -3 7 -3 8 -2 7 -2 7 -2 8 -1 7 -1 8 -1 8 0 0 0zm154 153l-47 0 0 0 0 -5 -1 -6 0 -5 -1 -5 -2 -5 -1 -5 -2 -5 -2 -5 -2 -5 -2 -4 -3 -5 -2 -4 -3 -4 -4 -4 -3 -4 -4 -4 -3 -4 -4 -3 -4 -3 -4 -3 -5 -3 -4 -2 -5 -3 -5 -2 -4 -2 -5 -2 -5 -1 -5 -1 -6 -1 -5 -1 -5 0 -6 0 0 -47 8 0 8 1 7 1 8 1 7 2 8 2 7 2 7 3 7 3 6 3 7 4 6 4 6 4 6 5 5 5 6 5 5 5 4 6 5 6 4 6 4 6 4 6 3 7 3 7 3 7 3 7 2 7 1 7 2 8 1 8 0 7 1 8 0 0zm-154 154l0 -47 0 0 6 0 5 0 5 -1 6 -1 5 -1 5 -2 5 -1 4 -2 5 -2 5 -3 4 -2 5 -3 4 -3 4 -3 4 -4 3 -3 4 -4 3 -4 4 -4 3 -4 2 -4 3 -5 2 -4 2 -5 2 -5 2 -5 1 -5 2 -5 1 -5 0 -6 1 -5 0 -6 47 0 -1 8 0 8 -1 8 -2 7 -1 8 -2 7 -3 7 -3 7 -3 7 -3 6 -4 7 -4 6 -4 6 -5 6 -4 6 -5 5 -6 5 -5 5 -6 4 -6 5 -6 4 -7 3 -6 4 -7 3 -7 3 -7 2 -8 2 -7 2 -8 1 -7 1 -8 1 -8 0 0 0zm-153 -154l46 0 1 6 0 5 1 6 1 5 1 5 1 5 2 5 2 5 2 5 2 4 3 5 3 4 3 4 3 4 3 4 4 4 3 3 4 4 4 3 5 3 4 3 4 2 5 3 5 2 5 2 4 1 6 2 5 1 5 1 5 1 6 0 5 0 0 47 -8 0 -8 -1 -7 -1 -8 -1 -7 -2 -7 -2 -8 -2 -7 -3 -6 -3 -7 -4 -6 -3 -7 -4 -6 -5 -5 -4 -6 -5 -5 -5 -5 -5 -5 -6 -5 -6 -4 -6 -4 -6 -4 -7 -3 -6 -3 -7 -3 -7 -2 -7 -3 -7 -1 -8 -2 -7 -1 -8 0 -8 0 -8z"/>
   </g>
   <g>
    <path class="fil0" d="M1553 7462l0 0 8 0 8 1 8 1 7 1 8 2 7 2 7 2 7 3 7 3 6 3 7 4 6 4 6 4 6 5 5 5 6 5 5 5 5 6 4 6 4 6 4 6 4 6 4 7 3 7 2 7 3 7 2 7 2 7 1 8 1 8 1 7 0 8 -47 0 0 -5 -1 -6 0 -5 -1 -5 -1 -5 -2 -5 -1 -5 -2 -5 -3 -5 -2 -4 -2 -5 -3 -4 -3 -4 -3 -4 -4 -4 -3 -4 -4 -4 -4 -3 -4 -3 -4 -3 -5 -3 -4 -2 -5 -3 -4 -2 -5 -2 -5 -2 -5 -1 -5 -1 -6 -1 -5 -1 -5 0 -6 0 0 0 0 -47zm-153 153l0 0 0 -8 1 -7 1 -8 1 -8 2 -7 2 -7 2 -7 3 -7 3 -7 3 -7 4 -6 4 -6 4 -6 5 -6 5 -6 5 -5 5 -5 6 -5 6 -5 6 -4 6 -4 6 -4 7 -3 7 -3 7 -3 7 -2 7 -2 7 -2 8 -1 8 -1 7 -1 8 0 0 47 -5 0 -6 0 -5 1 -5 1 -5 1 -5 1 -5 2 -5 2 -5 2 -4 3 -5 2 -4 3 -4 3 -4 3 -4 3 -4 4 -4 4 -3 4 -3 4 -3 4 -3 4 -3 5 -2 4 -2 5 -2 5 -2 5 -1 5 -1 5 -1 5 -1 5 0 6 0 5 0 0 -47 0zm153 154l0 0 -8 0 -7 -1 -8 -1 -8 -1 -7 -2 -7 -2 -7 -2 -7 -3 -7 -3 -7 -4 -6 -3 -6 -4 -6 -5 -6 -4 -6 -5 -5 -5 -5 -5 -5 -6 -5 -6 -4 -6 -4 -6 -4 -7 -3 -6 -3 -7 -3 -7 -2 -7 -2 -7 -2 -8 -1 -7 -1 -8 -1 -8 0 -8 47 0 0 6 0 5 1 6 1 5 1 5 1 5 2 5 2 5 2 5 2 4 3 5 3 4 3 4 3 4 3 4 4 4 4 3 4 4 4 3 4 3 4 3 5 2 4 3 5 2 5 2 5 1 5 2 5 1 5 1 5 1 6 0 5 0 0 0 0 47zm154 -154l0 8 -1 8 -1 8 -1 7 -2 8 -2 7 -3 7 -2 7 -3 7 -4 6 -4 7 -4 6 -4 6 -4 6 -5 6 -5 5 -6 5 -5 5 -6 4 -6 5 -6 4 -7 3 -6 4 -7 3 -7 3 -7 2 -7 2 -8 2 -7 1 -8 1 -8 1 -8 0 0 -47 6 0 5 0 5 -1 6 -1 5 -1 5 -2 5 -1 5 -2 4 -2 5 -3 4 -2 5 -3 4 -3 4 -3 4 -4 4 -3 3 -4 4 -4 3 -4 3 -4 3 -4 2 -5 2 -4 3 -5 2 -5 1 -5 2 -5 1 -5 1 -5 0 -6 1 -5 0 -6 47 0zm795 20l-822 0 0 -39 822 0 0 39z"/>
   </g>
   <g>
    <g>
     <circle class="fil1 str0" transform="matrix(5.29691E-14 -2 3 7.94536E-14 3288.62 4351.2)" r="262"/>
     <circle class="fil1 str0" transform="matrix(5.29691E-14 -2 3 7.94536E-14 4100.88 4351.2)" r="262"/>
    </g>
    <g>
     <circle class="fil1 str0" transform="matrix(5.29691E-14 -2 3 7.94536E-14 3288.62 7618.7)" r="262"/>
     <circle class="fil1 str0" transform="matrix(5.29691E-14 -2 3 7.94536E-14 4100.88 7618.7)" r="262"/>
    </g>
    <line class="fil1 str0" x1="3680" y1="4782" x2="3680" y2= "7138" />
   </g>
   <g>
    <circle class="fil1 str1" transform="matrix(5.29691E-14 -2 2 5.29691E-14 4662.03 5984.96)" r="262"/>
    <circle class="fil1 str1" transform="matrix(5.29691E-14 -2 2 5.29691E-14 5711.29 5984.96)" r="262"/>
   </g>
   <g>
    <path class="fil0" d="M4098 6005l0 -40 40 0 0 40 -40 0zm-79 0l0 -40 40 0 0 40 -40 0zm-79 0l0 -40 40 0 0 40 -40 0zm-79 0l0 -40 40 0 0 40 -40 0zm-78 0l0 -40 39 0 0 40 -39 0zm-79 0l0 -40 39 0 0 40 -39 0zm-24 73l0 0 -5 0 -5 0 -5 -1 -4 0 -5 -2 -4 -1 -5 -1 -4 -2 -4 -2 -4 -2 -4 -2 -4 -3 -3 -2 -4 -3 -3 -3 -4 -3 -3 -3 -3 -4 -2 -3 -3 -4 -2 -4 -3 -4 -2 -4 -2 -4 -1 -4 -2 -4 -1 -5 -1 -4 -1 -5 0 -5 -1 -4 0 -5 0 0 0 -5 1 -5 0 -4 1 -5 1 -4 1 -5 2 -4 1 -4 2 -5 2 -4 3 -4 2 -3 3 -4 2 -4 3 -3 3 -3 4 -3 3 -3 4 -3 3 -3 4 -2 4 -2 4 -2 4 -2 4 -2 5 -1 4 -2 5 -1 4 -1 5 0 5 -1 5 0 0 0 4 0 5 1 5 0 4 1 5 1 4 2 5 1 4 2 4 2 4 2 4 2 4 2 3 3 4 3 3 3 4 3 3 3 3 3 2 4 3 4 3 3 2 4 2 4 2 5 1 4 2 4 1 5 1 4 1 5 1 4 0 5 0 5 0 0 0 5 0 4 -1 5 -1 5 -1 4 -1 5 -2 4 -1 4 -2 4 -2 4 -2 4 -3 4 -3 4 -2 3 -3 4 -3 3 -4 3 -3 3 -4 3 -3 2 -4 3 -4 2 -4 2 -4 2 -4 2 -5 1 -4 1 -5 2 -4 0 -5 1 -5 0 -4 0z"/>
   </g>
   <g>
    <path class="fil0" d="M6293 5965l0 40 -39 0 0 -40 39 0zm79 0l0 40 -40 0 0 -40 40 0zm79 0l0 40 -40 0 0 -40 40 0zm79 0l0 40 -40 0 0 -40 40 0zm79 0l0 40 -40 0 0 -40 40 0zm79 0l0 40 -40 0 0 -40 40 0zm24 142l-24 0 0 -244 47 0 0 244 -23 0z"/>
   </g>
   <g>
    <path class="fil0" d="M6357 4315l0 -1116 39 0 0 1116 -39 0zm113 0l0 0 0 5 -1 4 0 5 -1 5 -1 4 -1 5 -2 4 -1 4 -2 4 -2 4 -3 4 -2 4 -3 4 -2 3 -3 4 -3 3 -4 3 -3 3 -4 3 -3 2 -4 3 -4 2 -4 2 -4 2 -4 2 -5 1 -4 2 -5 1 -4 0 -5 1 -5 0 -5 0 0 0 -4 0 -5 0 -5 -1 -4 0 -5 -1 -4 -2 -5 -1 -4 -2 -4 -2 -4 -2 -4 -2 -4 -3 -3 -2 -4 -3 -3 -3 -4 -3 -3 -3 -3 -4 -3 -3 -2 -4 -3 -4 -2 -4 -2 -4 -2 -4 -1 -4 -2 -4 -1 -5 -1 -4 -1 -5 -1 -5 0 -4 0 -5 0 0 0 -5 0 -5 1 -4 1 -5 1 -4 1 -5 2 -4 1 -4 2 -5 2 -4 2 -3 3 -4 2 -4 3 -3 3 -4 3 -3 4 -3 3 -3 4 -3 3 -3 4 -2 4 -2 4 -2 4 -2 4 -2 5 -1 4 -2 5 -1 4 -1 5 0 5 0 4 -1 0 0 5 1 5 0 5 0 4 1 5 1 4 2 5 1 4 2 4 2 4 2 4 2 4 2 3 3 4 3 3 3 4 3 3 3 3 4 2 3 3 4 2 4 3 3 2 4 2 5 1 4 2 4 1 5 1 4 1 5 0 4 1 5 0 5z"/>
   </g>
   <g>
    <path class="fil0" d="M6396 477l0 861 -39 0 0 -861 39 0zm-173 -127l47 0 0 0 0 6 0 5 1 6 1 5 1 5 2 5 1 5 2 5 2 4 3 5 2 5 3 4 3 4 3 4 4 4 3 4 4 3 4 4 4 3 4 3 4 3 5 2 4 3 5 2 5 2 5 1 5 2 5 1 5 1 6 1 5 0 5 0 0 47 -7 0 -8 -1 -8 -1 -7 -1 -8 -2 -7 -2 -7 -2 -7 -3 -7 -3 -7 -4 -6 -3 -6 -4 -6 -5 -6 -4 -6 -5 -5 -5 -5 -6 -5 -5 -4 -6 -5 -6 -4 -6 -3 -7 -4 -6 -3 -7 -3 -7 -2 -7 -2 -7 -2 -8 -1 -7 -1 -8 -1 -8 0 -8 0 0zm153 -153l0 47 0 0 -5 0 -5 0 -6 1 -5 1 -5 1 -5 1 -5 2 -5 2 -5 2 -4 3 -5 2 -4 3 -4 3 -4 3 -4 3 -4 4 -3 4 -4 4 -3 4 -3 4 -3 4 -2 5 -3 4 -2 5 -2 5 -1 5 -2 5 -1 5 -1 5 -1 5 0 6 0 5 -47 0 0 -7 1 -8 1 -8 1 -7 2 -8 2 -7 2 -7 3 -7 3 -7 4 -7 3 -6 4 -6 5 -6 4 -6 5 -6 5 -5 5 -5 6 -5 6 -5 6 -4 6 -4 6 -4 7 -3 7 -3 7 -3 7 -2 7 -2 8 -2 7 -1 8 -1 8 -1 7 0 0 0zm154 153l-47 0 0 0 0 -5 0 -6 -1 -5 -1 -5 -1 -5 -2 -5 -1 -5 -2 -5 -2 -5 -3 -4 -2 -5 -3 -4 -3 -4 -3 -4 -4 -4 -3 -4 -4 -4 -4 -3 -4 -3 -4 -3 -4 -3 -5 -2 -4 -3 -5 -2 -5 -2 -5 -2 -5 -1 -5 -1 -5 -1 -6 -1 -5 0 -6 0 0 -47 8 0 8 1 8 1 7 1 8 2 7 2 7 2 7 3 7 3 7 3 6 4 6 4 6 4 6 5 6 5 5 5 5 5 5 6 4 6 5 6 4 6 3 6 4 7 3 7 3 7 2 7 2 7 2 8 1 7 1 8 1 8 0 7 0 0zm-154 154l0 -47 6 0 5 0 6 -1 5 -1 5 -1 5 -2 5 -1 5 -2 5 -2 4 -3 5 -2 4 -3 4 -3 4 -3 4 -4 4 -3 3 -4 4 -4 3 -4 3 -4 3 -4 2 -5 3 -5 2 -4 2 -5 1 -5 2 -5 1 -5 1 -5 1 -6 0 -5 0 -6 47 0 0 8 -1 8 -1 8 -1 7 -2 8 -2 7 -2 7 -3 7 -3 7 -4 6 -3 7 -4 6 -5 6 -4 6 -5 5 -5 6 -5 5 -6 5 -6 4 -6 5 -6 4 -6 3 -7 4 -7 3 -7 3 -7 2 -7 2 -8 2 -7 1 -8 1 -8 1 -8 0z"/>
   </g>
   <path class="fil0" d="M433 4044l215 0 0 17 -12 0c-8,0 -19,3 -35,10 -15,7 -28,17 -41,30 -12,13 -27,35 -46,64l-147 231 0 157c0,38 4,61 12,71 12,12 30,19 55,19l21 0 0 17 -264 0 0 -17 22 0c27,0 45,-8 56,-24 7,-10 10,-32 10,-66l0 -144 -168 -260c-20,-30 -33,-49 -40,-57 -8,-7 -22,-16 -45,-27 -6,-3 -14,-4 -26,-4l0 -17 262 0 0 17 -13 0c-15,0 -28,3 -40,10 -11,7 -18,17 -18,30 0,11 10,30 28,59l128 198 121 -189c18,-29 27,-50 27,-64 0,-8 -2,-16 -6,-23 -5,-6 -11,-12 -19,-15 -8,-4 -21,-6 -37,-6l0 -17z"/>
   <path id="1" class="fil0" d="M1085 4540l-43 120 -363 0 0 -18c107,-97 182,-176 226,-238 43,-61 65,-118 65,-169 0,-39 -12,-71 -36,-96 -24,-25 -52,-37 -85,-37 -31,0 -58,8 -82,26 -24,17 -42,43 -53,77l-17 0c8,-56 27,-98 58,-128 32,-30 71,-45 118,-45 50,0 91,16 125,48 33,32 50,70 50,114 0,31 -7,62 -22,93 -22,49 -59,101 -109,156 -75,81 -121,131 -139,147l159 0c32,0 55,-1 68,-4 13,-2 25,-7 35,-14 11,-8 20,-18 27,-32l18 0z"/>
   <path class="fil0" d="M467 7284l214 0 0 17 -11 0c-8,0 -20,4 -35,11 -15,7 -29,17 -41,30 -13,13 -28,34 -46,63l-148 232 0 156c0,38 5,62 13,71 12,13 30,19 55,19l20 0 0 17 -263 0 0 -17 22 0c26,0 45,-8 56,-24 7,-9 10,-31 10,-66l0 -144 -168 -260c-20,-30 -34,-49 -41,-56 -7,-8 -22,-17 -44,-27 -6,-3 -15,-5 -26,-5l0 -17 262 0 0 17 -14 0c-14,0 -27,4 -39,10 -12,7 -18,17 -18,30 0,11 9,31 28,59l127 198 122 -189c18,-29 27,-50 27,-64 0,-8 -2,-16 -7,-22 -4,-7 -10,-12 -19,-16 -8,-4 -20,-6 -36,-6l0 -17z"/>
   <path id="1" class="fil0" d="M740 7402c18,-41 40,-73 67,-96 26,-22 60,-34 100,-34 49,0 87,16 113,48 20,24 30,50 30,77 0,45 -28,91 -84,139 38,14 66,35 86,63 19,27 29,60 29,97 0,53 -17,99 -51,138 -44,51 -108,76 -192,76 -42,0 -70,-5 -85,-15 -15,-11 -22,-22 -22,-34 0,-8 3,-16 11,-23 7,-6 15,-10 25,-10 8,0 15,2 23,4 5,2 17,7 35,17 18,9 31,15 38,17 11,3 23,5 36,5 31,0 58,-12 81,-36 22,-24 34,-52 34,-85 0,-23 -5,-47 -16,-69 -8,-17 -17,-30 -26,-39 -13,-12 -31,-23 -54,-33 -22,-10 -45,-15 -69,-15l-15 0 0 -13c24,-4 48,-12 72,-26 24,-15 42,-32 53,-51 10,-20 16,-42 16,-66 0,-31 -10,-56 -29,-76 -20,-19 -44,-28 -73,-28 -47,0 -86,25 -118,76l-15 -8z"/>
   <path class="fil0" d="M9016 4315l132 198c36,54 64,88 81,103 18,14 40,22 68,24l0 16 -265 0 0 -16c18,-1 31,-3 39,-6 7,-3 12,-7 16,-12 4,-6 6,-12 6,-17 0,-7 -1,-14 -4,-21 -2,-5 -10,-18 -25,-40l-104 -157 -128 164c-14,18 -22,29 -25,35 -2,6 -4,12 -4,19 0,9 4,17 12,24 9,6 24,10 47,11l0 16 -218 0 0 -16c15,-2 29,-5 40,-10 18,-8 36,-18 53,-32 17,-13 36,-33 58,-61l143 -182 -119 -178c-33,-49 -61,-80 -83,-95 -23,-16 -50,-23 -80,-24l0 -17 285 0 0 17c-24,1 -41,4 -50,12 -9,7 -13,14 -13,23 0,11 7,27 22,49l94 141 108 -138c13,-17 21,-28 24,-34 3,-6 4,-12 4,-19 0,-6 -2,-12 -5,-17 -5,-6 -11,-10 -18,-13 -7,-3 -21,-4 -43,-4l0 -17 218 0 0 17c-17,1 -31,3 -42,8 -16,7 -31,16 -45,28 -13,12 -33,34 -57,65l-122 156z"/>
   <path class="fil0" d="M9003 7301l215 0 0 17 -12 0c-8,0 -19,4 -35,11 -15,7 -28,17 -41,30 -12,13 -27,34 -46,63l-147 231 0 157c0,38 4,62 12,71 12,13 30,19 55,19l21 0 0 17 -264 0 0 -17 22 0c27,0 45,-8 56,-24 7,-9 10,-32 10,-66l0 -144 -168 -260c-20,-30 -33,-49 -40,-56 -8,-8 -22,-17 -45,-27 -6,-3 -14,-5 -26,-5l0 -17 262 0 0 17 -13 0c-15,0 -28,3 -40,10 -11,7 -18,17 -18,30 0,11 10,31 28,59l128 198 121 -189c18,-29 27,-50 27,-64 0,-8 -2,-16 -6,-23 -5,-6 -11,-11 -19,-15 -8,-4 -21,-6 -37,-6l0 -17z"/>
   <path id="1" class="fil0" d="M9338 7362l150 -73 15 0 0 519c0,35 1,56 4,65 3,8 9,15 18,19 9,5 28,7 56,8l0 17 -232 0 0 -17c29,-1 48,-3 56,-8 8,-4 14,-10 18,-17 3,-8 5,-30 5,-67l0 -332c0,-45 -2,-74 -5,-86 -2,-10 -6,-17 -11,-22 -6,-4 -13,-6 -21,-6 -11,0 -27,4 -47,14l-6 -14z"/>
   <path class="fil0" d="M7241 0l-405 578 252 0c39,0 68,-8 89,-25 21,-17 39,-52 55,-103l15 3 -29 162 -500 0 0 -16 394 -562 -197 0c-32,0 -56,4 -71,11 -14,7 -25,17 -33,31 -8,13 -15,38 -21,75l-17 0 13 -154 455 0z"/>
   <polygon id="1" class="fil0" points="7515,551 7515,325 7289,325 7289,288 7515,288 7515,62 7552,62 7552,288 7778,288 7778,325 7552,325 7552,551 "/>
   <path class="fil0" d="M3426 5599c15,0 28,5 39,15 10,11 16,24 16,39 0,15 -6,28 -17,39 -10,10 -23,16 -38,16 -15,0 -28,-6 -38,-16 -11,-11 -17,-24 -17,-39 0,-15 6,-28 16,-39 11,-10 24,-15 39,-15zm24 216l-115 385c-7,26 -11,42 -11,47 0,6 2,10 5,14 3,3 6,5 11,5 5,0 10,-3 17,-8 19,-16 38,-40 57,-70l19 13c-24,37 -52,68 -83,93 -24,18 -46,27 -68,27 -14,0 -25,-4 -34,-13 -9,-8 -14,-19 -14,-33 0,-13 5,-36 15,-67l75 -246c12,-40 18,-65 18,-75 0,-8 -3,-14 -8,-19 -6,-6 -14,-8 -24,-8 -8,0 -24,2 -49,6l0 -21 189 -30z"/>
   <g>
    <circle class="fil1 str0" cx="6375" cy="1856" r="524"/>
    <circle class="fil1 str0" cx="6375" cy="2669" r="524"/>
    <g>
     <path class="fil0" d="M7467 2300l-758 0 0 -39 758 0 0 39zm0 179l-23 0 0 -397 46 0 0 397 -23 0z"/>
    </g>
   </g>
  </g>
 </g>
</svg>
