<?xml version="1.0" encoding="UTF-8"?>
<!DOCTYPE svg PUBLIC "-//W3C//DTD SVG 1.1//EN" "http://www.w3.org/Graphics/SVG/1.1/DTD/svg11.dtd">
<!-- Creator: CorelDRAW Home & Student X8 -->
<svg xmlns="http://www.w3.org/2000/svg" xml:space="preserve" width="147.625mm" height="76.1763mm" version="1.1" style="shape-rendering:geometricPrecision; text-rendering:geometricPrecision; image-rendering:optimizeQuality; fill-rule:evenodd; clip-rule:evenodd"
viewBox="0 0 12160 6275"
 xmlns:xlink="http://www.w3.org/1999/xlink">
 <defs>
  <style type="text/css">
   <![CDATA[
    .str0 {stroke:#2B2A29;stroke-width:32.948}
    .str1 {stroke:#2B2A29;stroke-width:16.474}
    .str2 {stroke:#E31E24;stroke-width:16.474}
    .fil0 {fill:none}
    .fil1 {fill:#2B2A29;fill-rule:nonzero}
    .fil2 {fill:#E31E24;fill-rule:nonzero}
   ]]>
  </style>
 </defs>
 <g id="Warstwa_x0020_1">
  <metadata id="CorelCorpID_0Corel-Layer"/>
  <g id="_576301680">
   <polygon class="fil0 str0" points="6969,1239 6969,5267 10984,3266 "/>
   <polyline class="fil0 str0" points="4096,1769 4044,1896 3941,1637 3838,1896 3735,1637 3631,1896 3528,1637 3476,1769 "/>
   <polyline class="fil0 str0" points="5456,1769 5404,1896 5301,1637 5198,1896 5094,1637 4991,1896 4888,1637 4836,1769 "/>
   <polyline class="fil0 str0" points="5456,4283 5404,4411 5301,4151 5198,4411 5094,4151 4991,4411 4888,4151 4836,4283 "/>
   <polyline class="fil0 str0" points="4096,4283 4044,4411 3941,4151 3838,4411 3735,4151 3631,4411 3528,4151 3476,4283 "/>
   <polyline class="fil0 str0" points="8804,5245 8752,5373 8649,5113 8545,5373 8442,5113 8339,5373 8235,5113 8184,5245 "/>
   <polyline class="fil0 str0" points="6482,4560 6354,4509 6613,4405 6354,4302 6613,4199 6354,4095 6613,3992 6482,3940 "/>
   <path class="fil0 str0" d="M5444 2101l500 0m-491 227c169,-158 297,-156 462,2"/>
   <path class="fil0 str0" d="M5944 3919l-500 0m491 -226c-168,158 -296,156 -461,-2"/>
   <polygon class="fil1" points="7273,1727 7333,1727 7333,1667 7383,1667 7383,1727 7443,1727 7443,1778 7383,1778 7383,1837 7333,1837 7333,1778 7273,1778 "/>
   <polygon class="fil1" points="9402,2715 9462,2715 9462,2655 9512,2655 9512,2715 9572,2715 9572,2765 9512,2765 9512,2825 9462,2825 9462,2765 9402,2765 "/>
   <polygon class="fil1" points="7902,4382 7961,4382 7961,4323 8012,4323 8012,4382 8071,4382 8071,4433 8012,4433 8012,4492 7961,4492 7961,4433 7902,4433 "/>
   <polygon class="fil1" points="7273,3741 7333,3741 7333,3681 7383,3681 7383,3741 7443,3741 7443,3791 7383,3791 7383,3851 7333,3851 7333,3791 7273,3791 "/>
   <polygon class="fil1" points="7272,2735 7435,2735 7435,2770 7272,2770 "/>
   <polygon class="fil1" points="9427,3748 9590,3748 9590,3783 9427,3783 "/>
   <polygon class="fil1" points="11325,4005 11488,4005 11488,4039 11325,4039 "/>
   <polyline class="fil0 str1" points="10009,2753 11009,2753 11009,251 8675,251 "/>
   <g>
    <path class="fil1" d="M4493 256l4028 0 0 17 -4028 0 -8 -9 8 -8zm-8 8l0 -8 8 0 -8 8zm0 1488l0 -1488 16 0 0 1488 -16 0zm67 0l0 0 0 3 -1 3 0 3 0 3 -1 3 -1 3 -1 2 -1 3 -1 3 -1 2 -2 3 -1 2 -2 2 -2 3 -2 2 -1 2 -2 2 -3 2 -2 1 -2 2 -2 1 -3 2 -2 1 -3 1 -3 1 -2 1 -3 1 -3 1 -3 0 -3 1 -3 0 -3 0 0 0 -3 0 -3 0 -3 -1 -3 0 -2 -1 -3 -1 -3 -1 -3 -1 -2 -1 -3 -1 -2 -2 -3 -1 -2 -2 -2 -1 -2 -2 -2 -2 -2 -2 -2 -2 -2 -3 -1 -2 -2 -2 -1 -3 -2 -2 -1 -3 -1 -3 -1 -2 -1 -3 0 -3 -1 -3 0 -3 0 -3 0 -3 0 0 0 -3 0 -3 0 -3 1 -2 0 -3 1 -3 1 -3 1 -2 1 -3 2 -2 1 -3 2 -2 1 -3 2 -2 2 -2 2 -2 2 -2 2 -2 2 -2 2 -1 3 -2 2 -1 3 -1 2 -2 3 -1 3 -1 3 0 2 -1 3 -1 3 0 3 0 3 0 0 0 3 0 3 0 3 0 3 1 3 1 3 0 2 1 3 1 3 2 2 1 3 1 2 2 2 1 2 2 3 2 2 2 1 2 2 2 2 2 2 3 1 2 2 3 1 2 1 3 1 2 1 3 1 3 1 3 0 2 0 3 1 3 0 3z"/>
   </g>
   <line class="fil0 str1" x1="5694" y1="2215" x2="5694" y2= "2984" />
   <line class="fil0 str1" x1="6943" y1="1739" x2="5456" y2= "1739" />
   <g>
    <path class="fil1" d="M5779 1765l0 3 0 3 -1 3 0 3 -1 3 -1 3 -1 2 -1 3 -1 3 -1 2 -1 2 -2 3 -2 2 -1 2 -2 3 -2 2 -2 1 -2 2 -3 2 -2 2 -2 1 -3 2 -2 1 -3 1 -2 1 -3 1 -3 1 -3 1 -3 0 -3 0 -3 1 -3 0 0 0 -3 0 -3 -1 -2 0 -3 0 -3 -1 -3 -1 -3 -1 -2 -1 -3 -1 -2 -1 -3 -2 -2 -1 -3 -2 -2 -2 -2 -2 -2 -1 -2 -2 -2 -3 -1 -2 -2 -2 -2 -3 -1 -2 -1 -2 -1 -3 -2 -3 0 -2 -1 -3 -1 -3 0 -3 -1 -3 0 -3 0 -3 0 0 0 -3 0 -3 1 -3 0 -3 1 -2 1 -3 0 -3 2 -3 1 -2 1 -3 1 -2 2 -3 2 -2 1 -2 2 -2 2 -2 2 -2 2 -2 2 -2 3 -1 2 -2 3 -1 2 -2 3 -1 2 -1 3 -1 3 -1 3 0 3 -1 2 0 3 0 3 0 0 0 3 0 3 0 3 0 3 1 3 0 3 1 3 1 2 1 3 1 2 2 3 1 2 2 2 1 3 2 2 2 2 2 2 2 2 2 1 2 2 2 2 3 1 2 1 3 1 2 1 3 1 3 1 3 1 2 0 3 1 3 0 3 0 3 0 0zm-67 334l0 -334 17 0 0 334 -17 0z"/>
   </g>
   <path class="fil0 str0" d="M8686 500l0 -500m-227 491c158,-168 157,-297 -1,-461"/>
   <path class="fil0 str0" d="M8647 6272l0 -500m-226 491c158,-168 156,-296 -2,-461"/>
   <polygon class="fil1" points="11288,2510 11348,2510 11348,2450 11398,2450 11398,2510 11458,2510 11458,2560 11398,2560 11398,2620 11348,2620 11348,2560 11288,2560 "/>
   <line class="fil0 str1" x1="4836" y1="1769" x2="4096" y2= "1769" />
   <polygon class="fil1" points="8888,4005 9051,4005 9051,4039 8888,4039 "/>
   <polygon class="fil1" points="7285,4736 7448,4736 7448,4771 7285,4771 "/>
   <g>
    <path class="fil1" d="M5623 4254l0 -3 1 -3 0 -3 1 -3 0 -3 1 -3 1 -2 1 -3 1 -3 1 -2 2 -3 1 -2 2 -2 2 -3 2 -2 2 -2 2 -2 2 -2 2 -1 2 -2 3 -1 2 -2 3 -1 2 -1 3 -1 3 -1 2 -1 3 -1 3 0 3 -1 3 0 3 0 0 0 3 0 3 0 3 1 3 0 3 1 2 1 3 1 3 1 2 1 3 1 2 2 3 1 2 2 2 1 2 2 2 2 2 2 2 2 2 3 2 2 1 2 1 3 2 2 1 3 1 3 1 2 1 3 0 3 1 3 0 3 1 3 0 3 0 0 0 3 -1 3 0 3 -1 2 0 3 -1 3 -1 3 -1 2 -1 3 -2 2 -1 3 -1 2 -2 3 -2 2 -2 2 -2 2 -2 2 -2 2 -2 2 -2 1 -3 2 -2 1 -3 1 -2 2 -3 1 -3 1 -2 0 -3 1 -3 1 -3 0 -3 0 -3 0 0 0 -3 0 -3 0 -3 0 -3 -1 -3 -1 -2 0 -3 -1 -3 -1 -2 -2 -3 -1 -2 -1 -3 -2 -2 -1 -2 -2 -2 -2 -2 -2 -2 -2 -2 -2 -2 -2 -2 -3 -1 -2 -2 -3 -1 -2 -1 -3 -1 -2 -1 -3 -1 -3 0 -3 -1 -2 0 -3 -1 -3 0 -3 0 0zm67 -295l0 295 -16 0 0 -295 16 0z"/>
   </g>
   <polyline class="fil0 str1" points="5694,3805 5694,3022 5694,2215 "/>
   <polyline class="fil0 str1" points="5456,4254 6154,4254 6154,2783 6969,2783 "/>
   <line class="fil0 str1" x1="4836" y1="4283" x2="4096" y2= "4283" />
   <polyline class="fil0 str1" points="7007,3779 6481,3779 6481,3940 "/>
   <polyline class="fil0 str1" points="6958,4767 6494,4767 6494,4560 "/>
   <polyline class="fil0 str1" points="8983,4304 8983,5254 8804,5254 "/>
   <polyline class="fil0 str1" points="7956,4773 7956,5254 8184,5254 "/>
   <polyline class="fil0 str1" points="10009,3741 10984,3741 10984,6011 8688,6011 "/>
   <g>
    <path class="fil1" d="M4455 6014l4078 0 0 16 -4078 0 -9 -8 9 -8zm0 16l-9 0 0 -8 9 8zm8 -1747l0 1739 -17 0 0 -1739 17 0zm-67 0l0 0 0 -3 0 -3 1 -3 0 -3 1 -2 1 -3 0 -3 2 -3 1 -2 1 -3 1 -2 2 -3 2 -2 1 -2 2 -2 2 -2 2 -2 2 -2 2 -2 3 -1 2 -2 3 -1 2 -2 3 -1 2 -1 3 -1 3 -1 3 0 3 -1 3 0 2 0 4 0 0 0 3 0 2 0 3 0 3 1 3 0 3 1 3 1 2 1 3 1 2 2 3 1 2 2 3 1 2 2 2 2 2 2 2 2 2 2 1 2 2 2 2 3 1 2 1 3 1 2 2 3 0 3 1 3 1 2 0 3 1 3 0 3 0 3 0 0 0 3 0 3 -1 3 0 3 -1 3 -1 3 0 2 -2 3 -1 2 -1 3 -1 2 -2 3 -2 2 -1 2 -2 2 -2 3 -2 1 -2 2 -2 2 -3 2 -2 1 -3 2 -2 1 -3 1 -2 1 -3 1 -3 1 -3 1 -3 0 -3 0 -2 1 -3 0 0 0 -4 0 -2 -1 -3 0 -3 0 -3 -1 -3 -1 -3 -1 -2 -1 -3 -1 -2 -1 -3 -2 -2 -1 -3 -2 -2 -2 -2 -2 -2 -1 -2 -3 -2 -2 -1 -2 -2 -2 -2 -3 -1 -2 -1 -3 -1 -2 -2 -3 0 -2 -1 -3 -1 -3 0 -3 -1 -3 0 -3 0 -3z"/>
   </g>
   <path class="fil1" d="M7543 4182l81 122c13,20 23,32 29,37 6,4 12,7 20,8l0 7 -144 0 0 -7c11,-1 19,-3 22,-6 3,-2 5,-6 5,-9 0,-3 0,-5 -1,-7 -2,-5 -8,-13 -16,-25l-43 -63 -45 54c-13,17 -20,29 -20,35 0,4 2,8 5,11 4,4 9,7 16,8 3,1 9,2 18,2l0 7 -113 0 0 -7c13,-2 23,-6 31,-11 9,-7 23,-21 40,-42l59 -71 -75 -111c-13,-19 -20,-29 -21,-31 -4,-5 -8,-8 -12,-10 -4,-2 -9,-4 -16,-5l0 -8 147 0 0 8 -8 0c-8,0 -14,1 -17,4 -4,3 -5,6 -5,10 0,4 0,6 1,9l15 23 37 54 31 -37c16,-19 24,-33 24,-41 0,-4 -1,-8 -4,-11 -2,-4 -5,-6 -9,-8 -4,-2 -11,-3 -20,-3l0 -8 109 0 0 8c-9,0 -16,1 -21,3 -5,2 -11,6 -17,11 -3,4 -13,15 -28,33l-55 67z"/>
   <path class="fil1" d="M7645 2149l0 8c-9,1 -17,4 -22,8 -7,6 -19,23 -35,50l-64 108 0 72c0,15 1,24 3,28 1,4 4,7 9,10 5,3 11,4 19,4l17 0 0 8 -166 0 0 -8 15 0c9,0 16,-1 21,-4 4,-2 7,-6 9,-11 1,-3 2,-12 2,-27l0 -60 -69 -127c-14,-25 -24,-40 -29,-44 -6,-5 -14,-7 -23,-7l0 -8 141 0 0 8 -6 0c-8,0 -14,1 -18,4 -3,2 -5,5 -5,8 0,5 6,18 17,40l54 97 53 -89c14,-22 20,-36 20,-44 0,-4 -2,-7 -5,-10 -5,-3 -14,-5 -28,-6l0 -8 90 0z"/>
   <path class="fil1" d="M8601 3830l-174 279 56 0c27,0 45,-2 56,-5 17,-5 32,-15 45,-29 12,-14 21,-33 26,-57l8 0 -12 107 -270 0 174 -279 -44 0c-17,0 -28,0 -34,1 -10,2 -20,6 -28,11 -9,6 -17,13 -23,23 -6,9 -10,21 -13,35l-9 0 8 -86 234 0z"/>
   <path class="fil1" d="M9694 3098l0 8c-5,0 -10,2 -14,5 -3,2 -7,7 -10,12 -1,2 -5,13 -13,34l-93 244 -8 0 -73 -193 -81 193 -8 0 -97 -242c-10,-24 -17,-39 -21,-44 -4,-5 -11,-8 -20,-9l0 -8 128 0 0 8c-10,0 -17,2 -20,5 -4,3 -5,6 -5,10 0,6 3,18 10,36l58 143 47 -113 -12 -31c-6,-17 -11,-28 -15,-34 -4,-6 -8,-10 -13,-12 -4,-3 -11,-4 -20,-4l0 -8 142 0 0 8c-10,0 -18,1 -22,2 -3,1 -5,3 -7,6 -2,2 -3,5 -3,8 0,3 4,14 10,31l54 140 48 -127c5,-13 8,-22 9,-27 1,-5 2,-9 2,-13 0,-6 -2,-11 -6,-14 -4,-4 -12,-6 -23,-6l0 -8 76 0z"/>
   <path class="fil1" d="M3687 3848l-26 90c-4,12 -6,22 -6,28 0,5 2,10 7,13 4,4 14,6 28,6l-3 7 -142 0 2 -7c15,0 25,-3 32,-9 6,-5 12,-18 18,-37l54 -190c3,-11 5,-19 5,-25 0,-6 -2,-11 -6,-14 -4,-3 -12,-5 -26,-6l2 -7 123 0c35,0 59,6 73,18 15,12 22,28 22,47 0,20 -8,38 -25,55 -11,10 -29,19 -56,26l26 90c7,24 13,39 19,44 5,5 14,7 26,8l0 7 -92 0 -41 -144 -7 0c-2,0 -4,0 -7,0zm3 -13c5,0 9,0 13,0 21,0 38,-7 51,-21 14,-15 20,-34 20,-58 0,-14 -3,-24 -11,-31 -7,-8 -16,-11 -28,-11 -3,0 -6,0 -10,0l-35 121z"/>
   <path id="1" class="fil1" d="M4057 3691l-74 248c-4,13 -6,21 -6,25 0,3 2,7 5,11 2,3 5,6 8,7 3,1 13,2 28,3l-2 7 -149 0 2 -7c15,0 25,-2 31,-4 6,-2 11,-6 14,-11 4,-5 8,-15 13,-31l44 -147c6,-23 10,-35 10,-36 1,-4 2,-7 2,-11 0,-6 -3,-11 -7,-15 -4,-4 -9,-6 -17,-6 -3,0 -11,0 -21,2l-2 -8 111 -27 10 0z"/>
   <path class="fil1" d="M4973 1309l-26 90c-4,13 -6,22 -6,28 0,6 3,10 7,14 5,3 14,5 28,5l-3 8 -142 0 2 -8c15,0 25,-3 32,-8 6,-6 12,-18 18,-38l54 -190c3,-10 5,-19 5,-25 0,-6 -2,-10 -6,-13 -4,-3 -12,-5 -26,-7l2 -7 123 0c35,0 59,6 74,18 14,12 21,28 21,47 0,20 -8,39 -25,55 -11,10 -29,19 -56,26l26 90c7,24 13,39 19,44 5,5 14,8 26,8l0 8 -92 0 -41 -145 -7 1c-2,0 -4,-1 -7,-1zm3 -13c5,0 10,1 13,1 21,0 38,-8 51,-22 14,-15 20,-34 20,-57 0,-14 -3,-25 -10,-32 -8,-8 -17,-11 -29,-11 -3,0 -6,0 -10,0l-35 121z"/>
   <path id="1" class="fil1" d="M5301 1454l-157 0 0 -8c41,-38 75,-73 103,-105 24,-26 39,-46 45,-60 6,-14 9,-28 9,-42 0,-13 -4,-24 -13,-32 -8,-8 -19,-13 -31,-13 -20,0 -37,12 -52,34l-8 -4c8,-21 17,-38 30,-49 16,-15 36,-23 58,-23 21,0 39,7 52,19 14,13 21,28 21,45 0,15 -3,30 -10,45 -7,14 -21,33 -42,55 -16,17 -48,46 -97,88l57 0c19,0 31,-2 39,-7 7,-4 14,-12 20,-25l10 0 -34 82z"/>
   <path class="fil1" d="M8733 606l-22 93 -8 0c-1,-25 -7,-44 -19,-57 -11,-13 -27,-19 -46,-19 -20,0 -40,9 -60,26 -20,17 -37,43 -51,79 -12,28 -17,57 -17,85 0,25 6,44 18,57 13,13 30,20 51,20 18,0 34,-4 48,-11 15,-8 29,-20 44,-37l10 0c-18,27 -36,46 -55,56 -18,11 -41,17 -67,17 -36,0 -65,-11 -86,-32 -22,-22 -33,-50 -33,-85 0,-33 9,-64 26,-93 17,-30 42,-54 75,-72 32,-18 65,-27 97,-27 12,0 27,2 46,7 9,3 15,4 19,4 7,0 15,-4 22,-11l8 0z"/>
   <path id="1" class="fil1" d="M8909 607l-73 248c-4,13 -6,21 -6,24 0,4 1,8 4,11 3,4 5,6 9,8 3,1 12,2 28,3l-3 7 -149 0 3 -7c14,-1 25,-2 31,-4 5,-2 10,-6 14,-11 4,-5 8,-15 12,-31l44 -147c7,-23 10,-35 10,-36 1,-4 2,-8 2,-11 0,-7 -2,-12 -6,-16 -4,-3 -10,-5 -17,-5 -4,0 -11,0 -22,1l-2 -8 112 -26 9 0z"/>
   <path class="fil1" d="M5113 2165l-22 94 -7 0c-1,-26 -8,-45 -19,-58 -12,-12 -27,-18 -46,-18 -20,0 -41,8 -61,25 -20,18 -37,44 -51,79 -11,29 -17,57 -17,85 0,25 6,44 19,58 12,13 29,19 51,19 17,0 33,-3 48,-11 14,-8 28,-20 43,-37l10 0c-18,27 -36,46 -54,57 -19,11 -41,16 -68,16 -35,0 -64,-10 -86,-32 -22,-22 -32,-50 -32,-85 0,-32 8,-63 26,-93 17,-29 42,-53 74,-71 33,-19 65,-28 97,-28 13,0 28,3 46,8 9,2 16,4 20,4 7,0 14,-4 22,-12l7 0z"/>
   <path id="1" class="fil1" d="M5248 2468l-157 0 0 -8c41,-38 75,-73 103,-105 24,-26 38,-46 44,-60 6,-14 10,-28 10,-42 0,-13 -5,-24 -13,-32 -8,-8 -19,-13 -31,-13 -20,0 -38,12 -52,34l-8 -4c7,-21 17,-38 29,-49 17,-15 37,-23 59,-23 21,0 38,7 52,19 14,13 21,28 21,45 0,15 -4,30 -10,45 -7,14 -21,33 -42,55 -16,17 -48,46 -97,88l57 0c18,0 31,-2 38,-7 8,-4 14,-12 21,-25l10 0 -34 82z"/>
   <path class="fil1" d="M8492 5011l-128 0 2 -7c9,-1 15,-4 19,-8 4,-4 6,-9 6,-15 0,-7 -2,-17 -6,-32l-32 -100 -31 108c-3,12 -5,21 -5,26 0,6 2,11 7,15 5,4 13,6 26,6l-2 7 -144 0 3 -7c11,-1 20,-2 25,-5 6,-3 11,-7 14,-13 3,-6 7,-17 12,-34l49 -172c6,-20 9,-33 9,-38 0,-5 -3,-9 -7,-13 -5,-3 -13,-5 -26,-6l2 -8 139 0 -2 8c-9,0 -17,1 -21,4 -7,4 -12,10 -16,17 -3,5 -7,16 -12,34l-20 70 77 -70c15,-14 24,-23 25,-25 3,-4 4,-8 4,-12 0,-4 -2,-8 -5,-12 -3,-3 -8,-5 -16,-6l2 -8 111 0 -2 8c-9,1 -15,2 -21,4 -7,2 -15,6 -24,12 -9,5 -19,12 -28,20l-20 18 -47 42 35 110c11,36 20,57 26,64 7,7 15,10 25,11l-3 7z"/>
   <path id="1" class="fil1" d="M8644 4867l-26 89c-3,13 -5,23 -5,29 0,5 2,10 6,13 5,4 14,5 29,6l-4 7 -142 0 3 -7c14,0 25,-3 31,-9 7,-5 13,-18 18,-37l55 -190c3,-11 4,-19 4,-25 0,-6 -2,-11 -5,-14 -4,-3 -13,-5 -27,-6l2 -8 123 0c35,0 60,7 74,19 14,12 21,28 21,47 0,20 -8,38 -25,54 -10,11 -29,19 -56,27l27 90c7,24 13,39 18,44 6,4 14,7 27,8l0 7 -92 0 -42 -144 -7 0c-1,0 -4,0 -7,0zm4 -13c5,0 9,0 12,0 21,0 38,-7 52,-22 13,-14 20,-33 20,-57 0,-14 -4,-24 -11,-32 -7,-7 -17,-11 -28,-11 -3,0 -7,1 -11,1l-34 121z"/>
   <path class="fil1" d="M3653 1343l-26 89c-3,13 -5,23 -5,29 0,5 2,10 6,13 5,3 14,5 29,5l-3 8 -143 0 3 -8c14,0 25,-2 31,-8 7,-5 13,-18 18,-37l55 -190c3,-11 4,-19 4,-26 0,-5 -1,-10 -5,-13 -4,-3 -13,-5 -27,-6l3 -8 122 0c35,0 60,6 74,19 14,12 21,27 21,47 0,20 -8,38 -25,54 -10,10 -29,19 -56,27l27 89c7,25 13,39 18,44 6,5 14,8 27,8l0 8 -92 0 -42 -144 -7 0c-1,0 -4,0 -7,0zm4 -13c5,0 9,0 12,0 21,0 38,-7 52,-22 13,-14 20,-33 20,-57 0,-14 -4,-25 -11,-32 -7,-7 -17,-11 -28,-11 -3,0 -7,0 -10,0l-35 122z"/>
   <path id="1" class="fil1" d="M4023 1185l-73 248c-4,14 -6,22 -6,25 0,4 1,8 4,11 3,4 6,6 9,8 3,1 12,2 28,2l-2 8 -150 0 3 -8c15,0 25,-1 31,-3 6,-2 10,-6 14,-11 4,-5 8,-16 13,-32l43 -147c7,-22 10,-34 11,-35 1,-4 1,-8 1,-11 0,-7 -2,-12 -6,-16 -4,-3 -10,-5 -17,-5 -4,0 -11,0 -22,1l-2 -8 112 -27 9 0z"/>
   <path class="fil1" d="M5023 3865l-26 89c-4,13 -6,23 -6,29 0,5 3,10 7,13 5,3 14,5 28,6l-3 7 -142 0 3 -7c14,0 24,-3 31,-9 6,-5 13,-18 18,-37l54 -190c3,-11 5,-19 5,-25 0,-6 -2,-11 -6,-14 -3,-3 -12,-5 -26,-6l2 -8 123 0c35,0 59,6 74,19 14,12 21,28 21,47 0,20 -8,38 -25,54 -11,11 -29,19 -56,27l26 89c7,25 14,39 19,44 5,5 14,8 26,9l0 7 -92 0 -41 -144 -7 0c-2,0 -4,0 -7,0zm3 -13c5,0 10,0 13,0 21,0 38,-7 51,-22 14,-14 20,-33 20,-57 0,-14 -3,-24 -10,-32 -7,-7 -17,-11 -29,-11 -3,0 -6,0 -10,1l-35 121z"/>
   <path id="1" class="fil1" d="M5351 4009l-157 0 0 -8c41,-38 75,-72 104,-104 23,-26 38,-46 44,-60 6,-14 9,-28 9,-42 0,-14 -4,-24 -13,-33 -8,-8 -18,-12 -31,-12 -20,0 -37,11 -52,33l-8 -3c8,-22 18,-38 30,-49 16,-16 36,-23 58,-23 21,0 39,6 52,19 14,13 21,28 21,45 0,15 -3,30 -10,44 -7,15 -20,33 -41,55 -16,17 -49,46 -98,88l57 0c19,0 31,-2 39,-6 7,-4 14,-13 20,-25l11 0 -35 81z"/>
   <path class="fil1" d="M9067 5550l-22 93 -8 0c-1,-25 -7,-44 -19,-57 -11,-13 -27,-19 -45,-19 -21,0 -41,9 -61,26 -20,17 -37,43 -51,79 -12,28 -17,57 -17,85 0,25 6,44 18,57 13,13 30,20 51,20 18,0 34,-4 48,-12 15,-7 29,-19 44,-36l10 0c-18,27 -36,46 -55,56 -18,11 -41,17 -67,17 -36,0 -65,-11 -86,-33 -22,-21 -33,-49 -33,-84 0,-33 9,-64 26,-93 17,-30 42,-54 75,-72 33,-18 65,-27 97,-27 12,0 27,2 46,7 9,3 15,4 19,4 7,0 15,-4 22,-11l8 0z"/>
   <path id="1" class="fil1" d="M9243 5550l-73 248c-4,14 -6,22 -6,25 0,4 1,7 4,11 3,4 5,6 9,7 3,2 12,3 28,3l-3 8 -149 0 3 -8c14,0 25,-1 31,-3 5,-2 10,-6 14,-11 4,-5 8,-16 12,-32l44 -147c7,-22 10,-34 10,-35 1,-4 2,-8 2,-11 0,-7 -2,-12 -6,-16 -4,-4 -10,-5 -17,-5 -4,0 -11,0 -22,1l-2 -8 112 -27 9 0z"/>
   <path class="fil1" d="M5286 3200l-22 94 -8 0c-1,-26 -7,-45 -19,-57 -11,-13 -27,-19 -45,-19 -21,0 -41,8 -61,26 -20,17 -37,43 -51,78 -12,29 -17,57 -17,85 0,25 6,45 18,58 13,13 30,20 51,20 18,0 34,-4 48,-12 15,-7 29,-20 44,-37l10 0c-18,27 -36,46 -55,57 -18,11 -40,17 -67,17 -36,0 -64,-11 -86,-33 -22,-21 -33,-50 -33,-84 0,-33 9,-64 26,-94 18,-29 42,-53 75,-71 33,-19 65,-28 97,-28 12,0 28,3 46,8 9,3 16,4 19,4 7,0 15,-4 22,-12l8 0z"/>
   <path id="1" class="fil1" d="M5420 3503l-156 0 0 -8c40,-38 75,-73 103,-104 23,-27 38,-47 44,-61 6,-14 9,-28 9,-42 0,-13 -4,-24 -12,-32 -9,-8 -19,-12 -32,-12 -20,0 -37,11 -52,33l-8 -4c8,-21 18,-37 30,-49 17,-15 36,-23 59,-23 21,0 38,7 52,20 13,13 20,28 20,45 0,14 -3,29 -10,44 -7,15 -20,33 -41,55 -16,17 -49,46 -97,88l57 0c18,0 31,-2 38,-6 7,-5 14,-13 20,-25l11 0 -35 81z"/>
   <path class="fil1" d="M6509 3447l-25 90c-4,13 -6,22 -6,28 0,6 2,10 7,13 4,4 13,6 28,6l-3 8 -143 0 3 -8c14,0 25,-3 31,-8 7,-6 13,-18 19,-38l54 -190c3,-10 4,-19 4,-25 0,-6 -1,-10 -5,-13 -4,-4 -13,-6 -26,-7l2 -7 122 0c35,0 60,6 74,18 14,12 22,28 22,47 0,20 -9,39 -26,55 -10,10 -29,19 -56,26l27 90c7,24 13,39 18,44 6,5 15,8 27,8l0 8 -92 0 -42 -145 -7 0c-1,0 -4,0 -7,0zm4 -13c5,0 9,1 13,1 20,0 37,-8 51,-22 13,-15 20,-34 20,-58 0,-13 -4,-24 -11,-31 -7,-8 -16,-11 -28,-11 -3,0 -6,0 -10,0l-35 121z"/>
   <path class="fil1" d="M3560 3080l24 -246c1,-12 1,-21 1,-25 0,-7 -2,-12 -7,-16 -5,-5 -12,-7 -23,-7l-8 0 3 -8 116 0 -2 8c-13,0 -22,2 -26,4 -5,3 -9,7 -12,13 -1,3 -3,12 -4,27l-17 177 115 -158c13,-17 21,-29 24,-36 2,-4 3,-8 3,-11 0,-4 -1,-8 -5,-11 -3,-3 -9,-4 -19,-5l3 -8 89 0 -3 8c-7,1 -12,2 -17,4 -8,4 -16,10 -23,17 -8,8 -21,24 -38,47l-166 226 -8 0z"/>
   <path id="1" class="fil1" d="M3842 3164l-2 5 -86 0 3 -5c8,-1 14,-1 17,-3 4,-1 8,-4 10,-7 3,-5 7,-13 11,-26l36 -128c3,-10 5,-18 5,-24 0,-2 -1,-4 -2,-6 -1,-2 -3,-4 -6,-5 -3,-1 -8,-1 -16,-1l2 -6 80 0 -2 6c-6,0 -11,1 -14,2 -5,3 -9,6 -11,10 -2,4 -6,14 -9,28l-37 127c-3,11 -5,18 -5,21 0,2 1,4 2,6 1,1 3,3 6,3 3,1 9,2 18,3z"/>
   <path id="2" class="fil1" d="M4054 2946l-55 188c-3,10 -4,17 -4,20 0,1 0,2 0,2 1,1 2,2 2,2 1,0 2,-1 4,-2 2,-2 6,-8 11,-18l6 3c-6,10 -12,18 -19,24 -6,5 -12,8 -17,8 -3,0 -6,-1 -8,-4 -2,-2 -3,-6 -3,-10 0,-6 2,-14 5,-24l6 -20c-17,24 -32,40 -46,49 -9,6 -18,9 -27,9 -8,0 -16,-4 -22,-11 -7,-7 -10,-16 -10,-28 0,-16 5,-32 16,-50 11,-17 25,-31 42,-42 14,-9 27,-13 38,-13 7,0 12,1 16,3 5,2 9,6 13,11l15 -51c2,-6 3,-11 4,-14 1,-4 2,-8 2,-10 0,-3 -1,-4 -2,-6 -3,-2 -5,-2 -9,-2 -2,0 -6,0 -12,1l0 -6 54 -9zm-60 112c0,-6 -2,-12 -7,-16 -4,-4 -9,-6 -16,-6 -14,0 -29,11 -45,33 -16,21 -24,42 -24,62 0,8 2,13 6,18 4,4 9,6 15,6 12,0 27,-12 45,-35 17,-24 26,-44 26,-62z"/>
   <path class="fil1" d="M11092 3314l25 -246c1,-12 1,-21 1,-25 0,-7 -2,-12 -7,-17 -5,-4 -13,-6 -23,-6l-8 0 2 -8 117 0 -3 8c-12,0 -21,1 -26,4 -4,2 -8,7 -11,13 -1,3 -3,12 -4,27l-18 177 116 -158c13,-17 21,-29 24,-36 2,-4 3,-8 3,-12 0,-3 -2,-7 -5,-10 -3,-3 -10,-5 -19,-5l3 -8 88 0 -2 8c-7,0 -13,2 -17,4 -8,4 -16,10 -24,17 -8,8 -20,23 -37,47l-167 226 -8 0z"/>
   <path id="1" class="fil1" d="M11455 3187c14,0 26,3 37,9 11,6 19,15 25,27 6,12 9,24 9,37 0,23 -6,47 -19,71 -13,25 -31,44 -52,57 -21,13 -43,20 -66,20 -16,0 -30,-4 -40,-11 -11,-7 -20,-17 -25,-28 -5,-12 -8,-24 -8,-35 0,-20 5,-39 15,-58 9,-20 20,-36 34,-49 13,-12 27,-22 42,-29 15,-7 31,-11 48,-11zm-6 10c-10,0 -21,3 -31,8 -10,5 -19,13 -29,25 -10,12 -19,27 -27,46 -9,23 -14,45 -14,66 0,15 4,28 11,39 8,11 20,17 35,17 10,0 19,-2 28,-7 9,-5 19,-13 29,-24 12,-14 23,-32 31,-54 9,-22 13,-43 13,-62 0,-14 -4,-27 -12,-38 -7,-11 -19,-16 -34,-16z"/>
   <path id="2" class="fil1" d="M11711 3180l-55 188c-3,10 -5,17 -5,20 0,1 1,2 1,2 1,1 1,2 2,2 1,0 2,-1 3,-2 3,-2 7,-9 12,-19l6 4c-7,10 -13,18 -19,23 -6,6 -12,9 -17,9 -3,0 -6,-1 -8,-4 -2,-2 -3,-6 -3,-10 0,-6 1,-14 5,-24l6 -20c-17,24 -32,40 -46,49 -9,6 -18,9 -27,9 -9,0 -16,-4 -23,-11 -6,-7 -9,-16 -9,-28 0,-16 5,-32 16,-50 10,-17 25,-31 42,-42 14,-9 27,-14 38,-14 6,0 12,1 16,4 4,2 9,6 13,11l15 -51c1,-6 3,-11 4,-14 1,-4 2,-8 2,-11 0,-2 -1,-4 -3,-5 -2,-2 -5,-3 -8,-3 -2,0 -6,1 -12,2l0 -6 54 -9zm-61 112c0,-6 -2,-12 -6,-16 -4,-4 -10,-6 -16,-6 -15,0 -30,11 -45,32 -16,22 -24,43 -24,63 0,7 2,13 6,17 4,5 9,7 15,7 12,0 27,-12 44,-36 18,-23 26,-43 26,-61z"/>
   <g>
    <path class="fil1" d="M12075 2657l85 206 0 0 -6 -3 -5 -2 -5 -3 -6 -2 -5 -2 -6 -2 -5 -1 -6 -2 -5 -1 -6 -2 -5 -1 -6 0 -5 -1 -6 -1 -5 0 -6 0 -5 0 -6 0 -5 0 -6 1 -5 1 -6 0 -5 1 -6 2 -5 1 -6 2 -5 1 -6 2 -5 2 -6 3 -5 2 -6 3 91 -204zm-26 1210l16 -1107 17 0 -17 1107 -16 0z"/>
   </g>
   <g>
    <path class="fil1" d="M4514 2157l0 -5c27,-4 48,-12 61,-24 10,-9 15,-19 15,-31 0,-9 -3,-16 -9,-22 -5,-6 -12,-9 -20,-9 -13,0 -24,8 -34,23l-6 -1c6,-14 13,-23 23,-30 9,-7 19,-10 30,-10 13,0 24,4 32,12 9,8 13,18 13,30 0,11 -4,21 -12,30 -8,10 -21,19 -40,26 12,5 21,12 27,21 6,9 9,20 9,33 0,14 -4,28 -12,43 -9,14 -20,25 -34,33 -14,7 -29,11 -45,11 -14,0 -25,-2 -33,-7 -5,-4 -7,-7 -7,-12 0,-4 1,-7 4,-10 3,-3 7,-4 11,-4 3,0 6,0 9,1 2,0 6,3 13,7 7,4 13,6 17,8 4,1 8,2 12,2 10,0 19,-6 26,-18 6,-12 9,-25 9,-38 0,-11 -2,-21 -6,-29 -5,-9 -12,-15 -21,-21 -10,-5 -21,-8 -32,-9z"/>
    <circle class="fil0 str1" cx="4545" cy="2168" r="175"/>
   </g>
   <g>
    <path class="fil1" d="M4547 3767l-44 152 27 0 -6 21 -27 0 -18 62 -25 0 18 -62 -84 0 7 -24 139 -149 13 0zm-38 44l-99 108 68 0 31 -108z"/>
    <circle class="fil0 str1" cx="4480" cy="3873" r="175"/>
   </g>
   <g>
    <path class="fil1" d="M6625 1414l77 0 -8 28 -70 0 -12 28c18,3 33,9 43,17 16,14 24,32 24,56 0,16 -3,30 -9,43 -6,13 -13,23 -22,32 -8,9 -17,16 -27,21 -13,6 -26,10 -39,10 -12,0 -21,-3 -28,-8 -4,-3 -6,-7 -6,-13 0,-4 1,-7 4,-10 3,-3 6,-4 11,-4 6,0 13,3 20,9 4,3 8,6 11,7 3,1 5,2 9,2 12,0 24,-7 35,-20 11,-12 16,-29 16,-49 0,-15 -3,-27 -8,-37 -6,-10 -13,-17 -22,-21 -9,-4 -21,-7 -36,-8l37 -83z"/>
    <circle class="fil0 str1" cx="6625" cy="1531" r="175"/>
   </g>
   <g>
    <path class="fil1" d="M10648 2312l115 0 0 5 -129 230 -14 -7 114 -201 -55 0c-15,0 -26,1 -31,4 -6,2 -12,9 -19,19l-7 0 26 -50z"/>
    <circle class="fil0 str1" cx="10692" cy="2429" r="175"/>
   </g>
   <g>
    <path class="fil1" d="M10703 4101c11,12 19,23 24,33 5,10 7,21 7,31 0,19 -7,35 -21,49 -14,13 -31,20 -52,20 -18,0 -33,-5 -45,-17 -12,-11 -18,-24 -18,-39 0,-13 5,-25 15,-38 9,-12 27,-24 53,-35 -10,-13 -17,-23 -20,-31 -4,-8 -6,-16 -6,-24 0,-15 6,-28 17,-39 12,-11 26,-16 43,-16 16,0 30,4 40,14 11,9 16,20 16,33 0,12 -4,24 -13,34 -8,10 -22,18 -40,25zm-7 -7c12,-4 22,-11 29,-21 6,-9 10,-20 10,-33 0,-11 -3,-20 -10,-27 -6,-7 -15,-10 -26,-10 -10,0 -18,3 -24,10 -6,6 -10,14 -10,24 0,8 2,15 5,21 5,10 14,22 26,36zm-23 17c-17,8 -30,18 -39,31 -8,13 -13,28 -13,43 0,12 4,22 12,30 7,7 17,11 30,11 13,0 24,-4 33,-13 9,-10 13,-20 13,-33 0,-9 -3,-19 -8,-30 -5,-10 -14,-23 -28,-39z"/>
    <circle class="fil0 str1" cx="10677" cy="4114" r="175"/>
   </g>
   <polyline class="fil0 str0" points="8804,5245 8752,5373 8649,5113 8545,5373 8442,5113 8339,5373 8235,5113 8184,5245 "/>
   <path class="fil0 str0" d="M8686 500l0 -500m-227 491c158,-168 157,-297 -1,-461"/>
   <polyline class="fil0 str1" points="8983,4304 8983,5254 8804,5254 "/>
   <polyline class="fil0 str1" points="7956,4773 7956,5254 8184,5254 "/>
   <g>
    <circle class="fil0 str1" cx="6668" cy="2497" r="175"/>
    <path class="fil1" d="M6749 2377l0 6c-20,5 -38,15 -57,29 -18,15 -34,34 -48,56 13,-5 23,-7 30,-7 15,0 27,5 37,15 10,11 15,25 15,42 0,27 -8,51 -26,70 -17,19 -36,28 -56,28 -19,0 -33,-6 -42,-20 -10,-13 -14,-29 -14,-47 0,-23 5,-46 16,-69 11,-22 25,-42 44,-58 18,-16 37,-28 57,-36 12,-5 26,-8 44,-9zm-113 106c-16,34 -24,63 -24,86 0,12 3,22 9,29 6,7 13,10 21,10 13,0 25,-9 37,-28 11,-19 17,-41 17,-66 0,-13 -4,-24 -10,-31 -7,-7 -15,-11 -24,-11 -4,0 -8,1 -11,2 -4,2 -9,4 -15,9z"/>
   </g>
   <g>
    <path class="fil2" d="M5480 2657l-8 29 -47 0c3,10 5,20 5,29 0,25 -10,47 -32,67 -21,19 -51,30 -89,32 -19,6 -34,13 -44,22 -4,3 -6,6 -6,9 0,4 2,8 6,11 3,3 12,6 25,9l56 13c30,7 50,16 60,26 10,10 14,21 14,34 0,15 -5,30 -17,43 -11,12 -28,22 -50,30 -22,7 -46,11 -73,11 -24,0 -45,-3 -64,-9 -20,-5 -33,-13 -42,-22 -8,-10 -12,-20 -12,-30 0,-8 2,-16 8,-25 5,-9 12,-16 20,-22 5,-3 20,-12 44,-25 -9,-7 -14,-15 -14,-23 0,-7 4,-15 12,-24 7,-8 23,-18 47,-28 -21,-4 -37,-13 -48,-26 -12,-13 -18,-28 -18,-45 0,-27 12,-51 35,-72 24,-21 56,-32 95,-32 14,0 26,2 35,4 9,3 18,8 27,14l75 0zm-96 44c0,-15 -5,-27 -13,-35 -9,-9 -21,-13 -35,-13 -22,0 -40,10 -55,32 -14,21 -22,43 -22,67 0,14 5,26 14,35 10,10 21,14 34,14 10,0 20,-2 30,-8 10,-5 18,-13 25,-23 7,-9 12,-21 16,-36 4,-15 6,-26 6,-33zm-138 195c-16,7 -27,16 -35,27 -8,11 -12,22 -12,33 0,12 6,22 17,31 16,11 40,17 72,17 27,0 50,-4 70,-14 19,-9 29,-21 29,-35 0,-8 -4,-15 -11,-21 -7,-7 -21,-12 -42,-17 -11,-2 -40,-9 -88,-21z"/>
    <circle class="fil0 str2" cx="5321" cy="2830" r="273"/>
   </g>
   <polyline class="fil0 str1" points="3442,1759 2933,1759 2933,791 1482,791 1482,1394 "/>
   <polyline class="fil0 str1" points="3442,4273 2945,4273 2945,4586 1482,4586 1482,3983 "/>
   <g>
    <ellipse class="fil0 str0" cx="1482" cy="1864" rx="467" ry="470"/>
    <polygon class="fil1" points="1394,1556 1454,1556 1454,1496 1504,1496 1504,1556 1564,1556 1564,1606 1504,1606 1504,1666 1454,1666 1454,1606 1394,1606 "/>
    <polygon class="fil1" points="1406,2166 1569,2166 1569,2200 1406,2200 "/>
    <ellipse class="fil0 str0" cx="1482" cy="1864" rx="467" ry="470"/>
    <polygon class="fil1" points="1394,1556 1454,1556 1454,1496 1504,1496 1504,1556 1564,1556 1564,1606 1504,1606 1504,1666 1454,1666 1454,1606 1394,1606 "/>
    <polygon class="fil1" points="1406,2166 1569,2166 1569,2200 1406,2200 "/>
   </g>
   <g>
    <ellipse class="fil0 str0" cx="1482" cy="3503" rx="467" ry="470"/>
    <polygon class="fil1" points="1394,3195 1454,3195 1454,3135 1504,3135 1504,3195 1564,3195 1564,3245 1504,3245 1504,3305 1454,3305 1454,3245 1394,3245 "/>
    <polygon class="fil1" points="1406,3805 1569,3805 1569,3839 1406,3839 "/>
    <ellipse class="fil0 str0" cx="1482" cy="3503" rx="467" ry="470"/>
    <polygon class="fil1" points="1394,3195 1454,3195 1454,3135 1504,3135 1504,3195 1564,3195 1564,3245 1504,3245 1504,3305 1454,3305 1454,3245 1394,3245 "/>
    <polygon class="fil1" points="1406,3805 1569,3805 1569,3839 1406,3839 "/>
   </g>
   <line class="fil0 str1" x1="1482" y1="3033" x2="1482" y2= "2334" />
   <g>
    <path class="fil1" d="M1483 2772l-3 0 -3 0 -3 -1 -3 0 -3 -1 -2 -1 -3 -1 -3 -1 -2 -1 -3 -1 -2 -2 -3 -1 -2 -2 -2 -2 -2 -1 -2 -2 -2 -2 -2 -2 -2 -3 -1 -2 -2 -2 -1 -3 -2 -2 -1 -3 -1 -3 -1 -2 -1 -3 0 -3 -1 -3 0 -3 0 -3 0 -3 0 0 0 -3 0 -3 0 -3 1 -3 0 -2 1 -3 1 -3 1 -2 1 -3 2 -3 1 -2 2 -2 1 -3 2 -2 2 -2 2 -2 2 -2 2 -2 2 -2 2 -1 3 -2 2 -1 3 -2 2 -1 3 -1 3 -1 2 0 3 -1 3 -1 3 0 3 0 3 0 0 0 3 0 3 0 3 0 3 1 3 1 2 0 3 1 3 1 2 1 3 2 2 1 3 2 2 1 2 2 2 2 2 2 2 2 2 2 2 2 2 3 1 2 2 2 1 3 1 3 1 2 1 3 1 3 0 2 1 3 0 3 1 3 0 3 0 0 0 3 -1 3 0 3 -1 3 0 3 -1 3 -1 2 -1 3 -1 3 -1 2 -2 3 -1 2 -2 2 -2 3 -2 2 -2 2 -2 2 -2 1 -2 2 -2 2 -3 1 -2 2 -3 1 -2 1 -3 1 -3 1 -2 1 -3 1 -3 0 -3 1 -3 0 -3 0 0 0zm-859 -67l859 0 0 17 -859 0 0 -17zm0 -68l14 0 0 153 -29 0 0 -153 15 0z"/>
   </g>
   <g>
    <path class="fil1" d="M3190 1278l-55 191c-3,12 -5,20 -5,25 0,4 2,7 5,9 3,3 9,4 20,5l-2 6 -87 0 2 -6c9,0 16,-1 19,-2 4,-2 8,-5 10,-9 4,-5 8,-14 12,-28l39 -137c3,-8 4,-13 4,-14 0,-2 1,-4 1,-7 0,-4 -1,-7 -4,-9 -2,-2 -5,-3 -8,-3 -3,0 -8,0 -14,2l-2 -7 57 -16 8 0z"/>
    <circle class="fil0 str1" cx="3128" cy="1396" r="175"/>
   </g>
   <g>
    <path class="fil1" d="M3440 4685l-123 0 0 -6c32,-29 59,-56 81,-81 18,-21 30,-36 35,-47 4,-11 7,-22 7,-33 0,-11 -3,-19 -10,-25 -7,-7 -15,-10 -24,-10 -16,0 -30,9 -41,26l-6 -3c6,-17 13,-29 23,-38 13,-12 28,-18 46,-18 16,0 30,5 40,15 11,10 16,22 16,35 0,12 -2,23 -7,35 -6,11 -16,25 -33,43 -12,13 -38,36 -76,68l45 0c14,0 24,-1 30,-4 5,-4 11,-10 16,-20l8 0 -27 63z"/>
    <circle class="fil0 str1" cx="3401" cy="4568" r="175"/>
   </g>
   <path class="fil1" d="M38 3649l25 -257c1,-13 2,-21 2,-26 0,-7 -3,-12 -8,-17 -5,-5 -13,-7 -24,-7l-8 0 2 -8 122 0 -3 8c-13,0 -22,2 -27,4 -5,3 -9,7 -12,14 -1,3 -3,12 -4,28l-18 184 120 -164c13,-18 22,-30 25,-37 2,-5 3,-9 3,-13 0,-4 -1,-7 -5,-10 -3,-3 -10,-5 -19,-6l2 -8 93 0 -3 8c-7,1 -13,2 -17,4 -9,4 -17,10 -25,18 -9,8 -22,25 -39,49l-174 236 -8 0z"/>
   <path id="1" class="fil1" d="M807 3642l-154 0 0 -8c78,-69 130,-122 155,-161 12,-18 17,-37 17,-57 0,-16 -4,-29 -14,-39 -10,-9 -22,-14 -38,-14 -21,0 -38,10 -52,30l-8 -3c8,-20 19,-35 34,-46 15,-11 30,-16 48,-16 19,0 36,6 49,20 13,13 20,29 20,49 0,13 -2,25 -7,37 -7,17 -21,37 -40,59 -30,34 -70,72 -119,116l78 0c12,0 22,-3 30,-8 8,-5 14,-12 17,-20l10 0 -26 61z"/>
   <path id="2" class="fil1" d="M329 3732l-2 6 -86 0 2 -6c9,0 15,-1 18,-2 4,-2 8,-4 10,-8 3,-5 7,-13 10,-26l37 -127c3,-11 5,-19 5,-24 0,-3 -1,-5 -2,-7 -2,-2 -4,-3 -6,-4 -3,-1 -8,-2 -17,-2l2 -6 81 0 -2 6c-6,0 -11,1 -15,2 -4,3 -8,6 -10,10 -3,4 -6,14 -10,28l-36 127c-4,11 -5,18 -5,21 0,2 0,4 2,6 1,2 3,3 6,4 3,1 9,1 18,2z"/>
   <path id="3" class="fil1" d="M541 3515l-55 187c-3,10 -5,17 -5,20 0,1 1,2 1,3 1,1 2,1 2,1 1,0 2,-1 3,-2 3,-2 7,-8 12,-18l6 3c-7,10 -13,18 -19,24 -6,5 -12,8 -17,8 -3,0 -6,-1 -8,-4 -2,-2 -3,-6 -3,-10 0,-6 1,-14 5,-24l6 -19c-17,23 -32,39 -46,48 -9,6 -18,9 -27,9 -8,0 -16,-3 -23,-10 -6,-7 -9,-17 -9,-29 0,-15 5,-32 16,-49 10,-18 25,-32 42,-43 14,-9 27,-13 38,-13 6,0 12,1 16,3 4,2 9,6 13,12l15 -52c1,-6 3,-10 4,-14 1,-4 2,-7 2,-10 0,-2 -1,-4 -3,-6 -2,-1 -5,-2 -8,-2 -2,0 -6,0 -12,1l0 -6 54 -8zm-61 112c0,-7 -2,-12 -6,-16 -4,-5 -10,-7 -16,-7 -15,0 -30,11 -45,33 -16,21 -24,42 -24,62 0,8 2,14 6,18 4,4 9,6 15,6 12,0 27,-12 45,-35 17,-24 25,-44 25,-61z"/>
   <polygon id="4" class="fil1" points="647,3319 535,3648 517,3648 629,3319 "/>
   <path class="fil1" d="M13 1967l25 -256c1,-13 2,-22 2,-27 0,-7 -3,-12 -8,-17 -5,-4 -13,-7 -24,-7l-8 0 2 -8 122 0 -3 8c-13,0 -22,2 -27,4 -5,3 -9,7 -12,14 -1,3 -3,13 -4,28l-18 184 120 -164c13,-18 22,-30 25,-37 2,-5 3,-9 3,-12 0,-5 -1,-8 -5,-11 -3,-3 -10,-5 -19,-6l2 -8 92 0 -2 8c-7,1 -13,2 -17,5 -9,4 -17,10 -25,18 -9,8 -22,24 -39,48l-174 236 -8 0z"/>
   <path id="1" class="fil1" d="M782 1960l-154 0 0 -8c78,-69 130,-122 155,-161 12,-18 17,-37 17,-57 0,-16 -4,-28 -14,-38 -10,-10 -22,-15 -38,-15 -21,0 -38,10 -52,30l-8 -3c8,-20 19,-35 34,-46 14,-11 30,-16 48,-16 19,0 36,7 49,20 13,13 20,30 20,49 0,13 -2,25 -7,37 -7,18 -21,37 -40,59 -30,34 -70,72 -119,116l78 0c12,0 22,-2 30,-8 8,-5 14,-12 17,-20l10 0 -26 61z"/>
   <path id="2" class="fil1" d="M304 2050l-2 6 -86 0 2 -6c9,0 15,-1 18,-2 4,-2 8,-4 10,-7 3,-5 7,-14 10,-27l37 -127c3,-11 5,-19 5,-24 0,-3 -1,-5 -2,-7 -2,-2 -4,-3 -6,-4 -3,-1 -8,-2 -17,-2l2 -5 81 0 -2 5c-6,0 -11,1 -15,3 -4,2 -8,5 -10,9 -3,5 -6,14 -10,28l-36 128c-4,10 -5,17 -5,20 0,2 0,4 2,6 1,2 3,3 6,4 3,1 9,1 18,2z"/>
   <path id="3" class="fil1" d="M516 1833l-55 187c-3,10 -5,17 -5,20 0,1 1,2 1,3 1,1 2,1 2,1 1,0 2,0 3,-2 3,-2 7,-8 12,-18l6 3c-7,10 -13,18 -19,24 -6,5 -12,8 -17,8 -3,0 -6,-1 -8,-3 -2,-3 -3,-6 -3,-11 0,-6 1,-14 5,-24l6 -19c-17,23 -32,39 -46,48 -9,6 -18,9 -27,9 -9,0 -16,-3 -23,-10 -6,-7 -9,-17 -9,-29 0,-15 5,-32 16,-49 10,-18 25,-32 42,-43 14,-9 27,-13 38,-13 6,0 12,1 16,3 4,3 9,6 13,12l15 -52c1,-5 3,-10 4,-14 1,-4 2,-7 2,-10 0,-2 -1,-4 -3,-5 -2,-2 -5,-3 -8,-3 -2,0 -6,0 -12,1l0 -6 54 -8zm-61 112c0,-7 -2,-12 -6,-16 -4,-4 -10,-6 -16,-6 -15,0 -30,10 -45,32 -16,22 -24,42 -24,62 0,8 2,14 6,18 4,4 9,6 15,6 12,0 27,-12 45,-35 17,-23 25,-44 25,-61z"/>
   <polygon id="4" class="fil1" points="622,1637 510,1966 492,1966 604,1637 "/>
  </g>
 </g>
</svg>
