<?xml version="1.0" encoding="UTF-8"?>
<!DOCTYPE svg PUBLIC "-//W3C//DTD SVG 1.1//EN" "http://www.w3.org/Graphics/SVG/1.1/DTD/svg11.dtd">
<!-- Creator: CorelDRAW Home & Student X8 -->
<svg xmlns="http://www.w3.org/2000/svg" xml:space="preserve" width="156.532mm" height="59.6108mm" version="1.1" style="shape-rendering:geometricPrecision; text-rendering:geometricPrecision; image-rendering:optimizeQuality; fill-rule:evenodd; clip-rule:evenodd"
viewBox="0 0 13239 5042"
 xmlns:xlink="http://www.w3.org/1999/xlink">
 <defs>
  <style type="text/css">
   <![CDATA[
    .str2 {stroke:#2B2A29;stroke-width:33.8296}
    .str0 {stroke:#2B2A29;stroke-width:25.3722}
    .str1 {stroke:#2B2A29;stroke-width:16.9148}
    .fil0 {fill:none}
    .fil1 {fill:#2B2A29;fill-rule:nonzero}
   ]]>
  </style>
 </defs>
 <g id="Warstwa_x0020_1">
  <metadata id="CorelCorpID_0Corel-Layer"/>
  <g id="_721114768">
   <g>
    <rect class="fil0 str0" transform="matrix(-0.966763 -0.966763 0.966763 -0.966763 1563 2742.77)" width="645" height="645"/>
    <g>
     <polygon class="fil1" points="1717,1859 1576,1859 1576,1999 1539,1999 1539,1859 1399,1859 1399,1821 1539,1821 1539,1682 1576,1682 1576,1821 1717,1821 "/>
     <polygon class="fil1" points="1712,2476 1405,2476 1405,2441 1712,2441 "/>
    </g>
   </g>
   <g>
    <rect class="fil0 str0" transform="matrix(-0.966763 -0.966763 0.966763 -0.966763 2793.28 3620.23)" width="645" height="645"/>
    <g>
     <polygon class="fil1" points="2947,2736 2807,2736 2807,2876 2769,2876 2769,2736 2629,2736 2629,2698 2769,2698 2769,2560 2807,2560 2807,2698 2947,2698 "/>
     <polygon class="fil1" points="2943,3353 2635,3353 2635,3318 2943,3318 "/>
    </g>
   </g>
   <g>
    <path class="fil1" d="M1562 1178l9 318 -16 0 -10 -317 9 -9 8 8zm-17 1l0 -9 9 0 -9 9zm2250 8l-2241 0 0 -17 2241 0 0 17zm42 -69l0 30 0 0 -2 0 -1 0 -2 1 -1 0 -1 0 -2 1 -1 0 -2 1 -1 0 -1 1 -2 1 -1 0 -1 1 -1 1 -1 1 -1 1 -1 1 -1 1 -1 1 -1 2 -1 1 0 1 -1 1 -1 2 0 1 -1 1 0 2 0 1 -1 2 0 1 0 2 0 1 -30 0 0 -3 0 -3 1 -3 0 -3 1 -3 1 -3 1 -2 1 -3 1 -3 1 -2 2 -3 1 -2 2 -3 2 -2 2 -2 2 -2 2 -2 2 -2 2 -2 2 -2 3 -1 2 -2 3 -1 3 -1 2 -1 3 -1 3 -1 3 -1 3 0 3 0 3 -1 3 0 0 0zm60 60l-30 0 0 0 0 -1 0 -2 0 -1 0 -2 -1 -1 0 -2 -1 -1 0 -1 -1 -2 -1 -1 0 -1 -1 -1 -1 -2 -1 -1 -1 -1 -1 -1 -1 -1 -1 -1 -1 -1 -1 -1 -1 0 -2 -1 -1 -1 -1 0 -2 -1 -1 0 -1 -1 -2 0 -1 0 -2 -1 -1 0 -2 0 0 -30 3 0 3 1 3 0 3 0 3 1 3 1 3 1 2 1 3 1 3 1 2 2 3 1 2 2 2 2 2 2 3 2 2 2 1 2 2 2 2 3 1 2 2 3 1 2 1 3 2 3 0 2 1 3 1 3 0 3 1 3 0 3 0 3 0 0zm-60 60l0 -30 0 0 2 0 1 0 2 0 1 0 2 -1 1 0 1 0 2 -1 1 -1 1 0 2 -1 1 -1 1 -1 1 0 1 -1 1 -1 1 -1 1 -2 1 -1 1 -1 1 -1 0 -1 1 -2 1 -1 0 -1 1 -2 0 -1 1 -2 0 -1 0 -2 0 -1 0 -2 30 0 0 3 0 3 -1 3 0 3 -1 3 -1 3 0 3 -2 3 -1 2 -1 3 -2 3 -1 2 -2 2 -2 3 -1 2 -2 2 -3 2 -2 2 -2 2 -2 1 -3 2 -2 1 -3 2 -3 1 -2 1 -3 1 -3 1 -3 0 -3 1 -3 0 -3 0 -3 0 0 0zm-60 -60l30 0 0 2 0 1 0 2 1 1 0 2 0 1 1 2 0 1 1 1 1 2 0 1 1 1 1 1 1 1 1 2 1 1 1 1 1 1 1 0 1 1 1 1 2 1 1 0 1 1 2 1 1 0 2 0 1 1 1 0 2 0 1 0 2 0 0 30 -3 0 -3 0 -3 0 -3 -1 -3 0 -3 -1 -3 -1 -2 -1 -3 -1 -3 -2 -2 -1 -3 -2 -2 -1 -2 -2 -2 -2 -2 -2 -2 -2 -2 -2 -2 -3 -2 -2 -1 -2 -2 -3 -1 -3 -1 -2 -1 -3 -1 -3 -1 -3 -1 -3 0 -3 -1 -3 0 -3 0 -3z"/>
   </g>
   <g>
    <path class="fil1" d="M1555 3877l0 -1134 16 0 0 1134 -8 8 -8 -8zm8 8l-8 0 0 -8 8 8zm2195 0l-2195 0 0 -17 2195 0 0 17zm41 -69l0 30 0 0 -1 1 -2 0 -1 0 -2 0 -1 0 -2 1 -1 0 -1 1 -2 0 -1 1 -1 1 -1 1 -2 0 -1 1 -1 1 -1 1 -1 1 -1 1 -1 2 -1 1 0 1 -1 1 -1 2 0 1 -1 1 0 2 -1 1 0 2 0 1 -1 1 0 2 0 2 -30 0 0 -4 0 -3 1 -3 0 -3 1 -2 1 -3 1 -3 1 -3 1 -3 1 -2 2 -3 1 -2 2 -2 2 -3 2 -2 2 -2 2 -2 2 -2 2 -2 3 -1 2 -2 3 -1 2 -2 3 -1 3 -1 2 -1 3 -1 3 0 3 -1 3 0 3 -1 3 0 0 0zm60 61l-30 0 0 0 0 -2 0 -2 0 -1 0 -1 -1 -2 0 -1 0 -2 -1 -1 -1 -1 0 -2 -1 -1 -1 -1 -1 -1 0 -2 -1 -1 -1 -1 -1 -1 -2 -1 -1 -1 -1 0 -1 -1 -1 -1 -2 -1 -1 0 -1 -1 -2 0 -1 -1 -2 0 -1 0 -2 0 -1 0 -2 -1 0 -30 3 0 3 1 3 0 3 1 3 0 3 1 3 1 3 1 2 1 3 2 2 1 3 2 2 1 3 2 2 2 2 2 2 2 2 2 1 3 2 2 2 2 1 3 2 2 1 3 1 3 1 3 1 3 0 2 1 3 0 3 0 3 0 4 0 0zm-60 60l0 -30 0 0 2 0 1 -1 2 0 1 0 2 0 1 -1 2 0 1 -1 1 0 2 -1 1 -1 1 0 1 -1 1 -1 2 -1 1 -1 1 -1 1 -1 0 -1 1 -2 1 -1 1 -1 0 -1 1 -2 1 -1 0 -1 0 -2 1 -1 0 -2 0 -1 0 -2 0 -1 30 0 0 3 0 3 0 3 -1 3 0 3 -1 2 -1 3 -1 3 -1 3 -2 2 -1 3 -2 2 -2 3 -1 2 -2 2 -2 2 -2 2 -2 2 -3 2 -2 1 -3 2 -2 1 -3 2 -2 1 -3 1 -3 1 -3 1 -3 0 -3 1 -3 0 -3 1 -3 0 0 0zm-60 -60l30 0 0 1 0 2 1 1 0 2 0 1 1 2 0 1 1 1 0 2 1 1 1 1 0 1 1 2 1 1 1 1 1 1 1 1 1 1 1 1 2 1 1 0 1 1 1 1 2 0 1 1 1 0 2 1 1 0 2 0 1 0 2 1 1 0 0 30 -3 0 -3 -1 -3 0 -3 -1 -3 0 -3 -1 -2 -1 -3 -1 -3 -1 -2 -2 -3 -1 -2 -2 -3 -1 -2 -2 -2 -2 -2 -2 -2 -2 -2 -2 -2 -2 -2 -3 -1 -2 -2 -3 -1 -2 -1 -3 -1 -3 -1 -3 -1 -2 -1 -3 0 -3 -1 -3 0 -3 0 -3z"/>
   </g>
   <g>
    <path class="fil1" d="M2785 3877l0 -257 17 0 0 257 -17 0zm68 0l0 0 0 3 0 3 0 3 -1 3 0 3 -1 2 -1 3 -1 3 -2 3 -1 2 -1 3 -2 2 -2 2 -1 3 -2 2 -2 2 -2 2 -2 2 -3 2 -2 1 -3 2 -2 1 -3 2 -2 1 -3 1 -3 1 -3 1 -3 0 -3 1 -3 0 -3 1 -3 0 0 0 -3 0 -3 -1 -3 0 -3 -1 -3 0 -3 -1 -2 -1 -3 -1 -3 -1 -2 -2 -3 -1 -2 -2 -3 -1 -2 -2 -2 -2 -2 -2 -2 -2 -2 -2 -2 -3 -2 -2 -1 -2 -2 -3 -1 -2 -1 -3 -1 -3 -1 -3 -1 -2 -1 -3 0 -3 -1 -3 0 -3 0 -3 0 0 0 -4 0 -3 1 -3 0 -3 1 -2 1 -3 1 -3 1 -3 1 -2 1 -3 2 -3 1 -2 2 -2 2 -3 2 -2 2 -2 2 -2 2 -2 2 -2 3 -1 2 -2 3 -1 2 -2 3 -1 3 -1 2 -1 3 -1 3 0 3 -1 3 0 3 -1 3 0 0 0 3 0 3 1 3 0 3 1 3 0 3 1 3 1 3 1 2 1 3 2 2 1 3 2 2 1 3 2 2 2 2 2 2 2 2 2 1 3 2 2 2 2 1 3 1 3 2 2 1 3 1 3 1 3 0 2 1 3 0 3 0 3 0 4z"/>
   </g>
   <g>
    <path class="fil1" d="M2802 2128l0 245 -17 0 0 -245 8 -8 9 8zm-17 0l0 -8 8 0 -8 8zm669 9l-661 0 0 -17 661 0 9 8 -9 9zm0 -17l9 0 0 8 -9 -8zm-8 401l0 -393 17 0 0 393 -9 8 -8 -8zm8 8l-8 0 0 -8 8 8zm3434 0l-3434 0 0 -17 3434 0 0 17zm0 -68l0 0 3 0 3 0 3 0 3 1 3 0 3 1 2 1 3 1 3 1 2 2 3 1 2 2 3 2 2 1 2 2 2 2 2 2 2 2 2 3 2 2 1 3 2 2 1 3 1 2 1 3 1 3 1 3 1 3 0 3 1 3 0 3 0 3 0 0 0 3 0 3 -1 3 0 3 -1 3 -1 3 -1 2 -1 3 -1 3 -1 2 -2 3 -1 2 -2 3 -2 2 -2 2 -2 2 -2 2 -2 2 -2 2 -3 2 -2 1 -3 2 -2 1 -3 1 -3 1 -2 1 -3 1 -3 1 -3 0 -3 1 -3 0 -3 0 0 0 -3 0 -3 0 -3 -1 -3 0 -3 -1 -3 -1 -3 -1 -3 -1 -2 -1 -3 -1 -2 -2 -3 -1 -2 -2 -2 -2 -3 -2 -2 -2 -2 -2 -2 -2 -1 -2 -2 -3 -2 -2 -1 -3 -1 -2 -2 -3 -1 -3 -1 -2 -1 -3 0 -3 -1 -3 0 -3 0 -3 0 -3 0 0 0 -3 0 -3 0 -3 1 -3 0 -3 1 -3 1 -3 1 -3 2 -2 1 -3 1 -2 2 -3 2 -2 1 -3 2 -2 2 -2 2 -2 3 -2 2 -1 2 -2 3 -2 2 -1 3 -2 2 -1 3 -1 3 -1 3 -1 3 0 3 -1 3 0 3 0 3 0z"/>
   </g>
   <g>
    <path class="fil1" d="M983 1229l0 -90 90 0 0 90 -90 0zm-798 -53l843 0 0 17 -843 0 0 -17zm-42 68l0 -30 0 0 2 0 2 0 1 0 1 0 2 -1 1 0 2 0 1 -1 1 -1 2 0 1 -1 1 -1 1 -1 2 -1 1 0 1 -1 1 -2 1 -1 1 -1 0 -1 1 -1 1 -1 1 -2 0 -1 1 -1 0 -2 1 -1 0 -2 0 -1 0 -2 0 -1 1 -2 30 0 0 3 -1 3 0 3 -1 3 0 3 -1 3 -1 3 -1 3 -1 2 -2 3 -1 2 -2 3 -1 2 -2 3 -2 2 -2 2 -2 2 -2 2 -3 1 -2 2 -2 2 -3 1 -3 1 -2 2 -3 1 -3 1 -3 1 -2 0 -3 1 -3 0 -3 0 -4 0 0 0zm-60 -60l30 0 0 0 0 2 1 1 0 2 0 1 0 2 1 1 0 2 1 1 0 1 1 2 1 1 1 1 0 1 1 1 1 1 1 2 1 1 1 0 1 1 2 1 1 1 1 1 1 0 2 1 1 1 2 0 1 0 1 1 2 0 1 0 2 0 1 0 0 30 -3 0 -3 0 -3 0 -3 -1 -3 0 -2 -1 -3 -1 -3 -1 -3 -2 -2 -1 -3 -1 -2 -2 -3 -2 -2 -1 -2 -2 -2 -2 -2 -2 -2 -2 -2 -3 -1 -2 -2 -3 -1 -2 -2 -3 -1 -2 -1 -3 -1 -3 -1 -3 0 -3 -1 -3 0 -3 -1 -3 0 -3 0 0zm60 -60l0 30 0 0 -1 0 -2 0 -1 1 -2 0 -1 0 -1 1 -2 0 -1 1 -2 0 -1 1 -1 1 -1 0 -2 1 -1 1 -1 1 -1 1 -1 1 -1 1 -1 1 0 2 -1 1 -1 1 -1 1 0 2 -1 1 0 1 -1 2 0 1 0 2 0 1 -1 2 0 1 -30 0 0 -3 1 -3 0 -3 1 -3 0 -3 1 -3 1 -2 1 -3 1 -3 2 -2 1 -3 2 -2 1 -3 2 -2 2 -2 2 -2 2 -2 2 -2 2 -2 3 -2 2 -1 3 -2 2 -1 3 -1 3 -1 3 -1 2 -1 3 -1 3 0 3 -1 3 0 3 0 0 0zm61 60l-30 0 -1 -1 0 -2 0 -1 0 -2 0 -1 -1 -2 0 -1 -1 -1 0 -2 -1 -1 -1 -1 -1 -1 0 -2 -1 -1 -1 -1 -1 -1 -1 -1 -1 -1 -2 -1 -1 -1 -1 0 -1 -1 -2 -1 -1 0 -1 -1 -2 0 -1 -1 -2 0 -1 0 -1 -1 -2 0 -2 0 0 -30 4 0 3 0 3 1 3 0 2 1 3 1 3 1 3 1 2 1 3 1 3 2 2 1 2 2 3 2 2 2 2 2 2 2 2 2 2 2 1 3 2 2 1 3 2 2 1 3 1 3 1 2 1 3 0 3 1 3 0 3 1 3 0 3z"/>
   </g>
   <g>
    <path class="fil1" d="M983 3916l0 -90 90 0 0 90 -90 0zm-798 -54l843 0 0 17 -843 0 0 -17zm-42 69l0 -30 0 0 2 0 2 0 1 -1 1 0 2 0 1 -1 2 0 1 -1 1 0 2 -1 1 -1 1 0 1 -1 2 -1 1 -1 1 -1 1 -1 1 -1 1 -1 0 -2 1 -1 1 -1 1 -1 0 -2 1 -1 0 -1 1 -2 0 -1 0 -2 0 -1 0 -2 1 -1 30 0 0 3 -1 3 0 3 -1 3 0 3 -1 3 -1 2 -1 3 -1 3 -2 2 -1 3 -2 2 -1 3 -2 2 -2 2 -2 2 -2 2 -2 2 -3 2 -2 2 -2 1 -3 2 -3 1 -2 1 -3 1 -3 1 -3 1 -2 1 -3 0 -3 1 -3 0 -4 0 0 0zm-60 -60l30 0 0 0 0 1 1 2 0 1 0 2 0 1 1 2 0 1 1 1 0 2 1 1 1 1 1 1 0 2 1 1 1 1 1 1 1 1 1 1 1 1 2 1 1 0 1 1 1 1 2 0 1 1 2 0 1 1 1 0 2 0 1 1 2 0 1 0 0 30 -3 0 -3 0 -3 -1 -3 0 -3 -1 -2 -1 -3 -1 -3 -1 -3 -1 -2 -1 -3 -2 -2 -1 -3 -2 -2 -2 -2 -2 -2 -2 -2 -2 -2 -2 -2 -2 -1 -3 -2 -2 -1 -3 -2 -2 -1 -3 -1 -3 -1 -2 -1 -3 0 -3 -1 -3 0 -3 -1 -3 0 -3 0 0zm60 -60l0 30 0 0 -1 0 -2 0 -1 0 -2 0 -1 1 -1 0 -2 0 -1 1 -2 1 -1 0 -1 1 -1 1 -2 1 -1 0 -1 1 -1 1 -1 1 -1 2 -1 1 0 1 -1 1 -1 1 -1 2 0 1 -1 1 0 2 -1 1 0 2 0 1 0 2 -1 1 0 2 -30 0 0 -3 1 -3 0 -3 1 -3 0 -3 1 -3 1 -3 1 -3 1 -2 2 -3 1 -3 2 -2 1 -2 2 -3 2 -2 2 -2 2 -2 2 -2 2 -1 3 -2 2 -2 3 -1 2 -2 3 -1 3 -1 3 -1 2 -1 3 0 3 -1 3 0 3 0 3 0 0 0zm61 60l-30 0 -1 -2 0 -1 0 -2 0 -1 0 -2 -1 -1 0 -2 -1 -1 0 -1 -1 -2 -1 -1 -1 -1 0 -1 -1 -1 -1 -2 -1 -1 -1 -1 -1 -1 -2 0 -1 -1 -1 -1 -1 -1 -2 0 -1 -1 -1 -1 -2 0 -1 0 -2 -1 -1 0 -1 0 -2 0 -2 0 0 -30 4 0 3 0 3 0 3 1 2 0 3 1 3 1 3 1 2 1 3 2 3 1 2 2 2 2 3 1 2 2 2 2 2 2 2 2 2 3 1 2 2 2 1 3 2 3 1 2 1 3 1 3 1 3 0 3 1 3 0 3 1 3 0 3z"/>
   </g>
   <g>
    <g>
     <path class="fil1" d="M6900 2086l-25 0 -77 -119 25 -16 77 118 -25 0 25 17zm0 0l-12 19 -13 -19 25 0zm65 -127l12 8 -77 119 -25 -17 77 -118 13 8zm-65 -439l0 534 -25 0 0 -534 25 0z"/>
    </g>
    <rect class="fil0 str0" transform="matrix(0.966762 0.966762 -0.966762 0.966762 6887.73 1184.28)" width="645" height="645"/>
   </g>
   <g>
    <g>
     <path class="fil1" d="M6875 2969l25 0 77 119 -25 17 -77 -119 25 0 -25 -17zm0 0l13 -19 12 19 -25 0zm-64 127l-13 -8 77 -119 25 17 -77 119 -12 -9zm64 439l0 -534 25 0 0 534 -25 0z"/>
    </g>
    <rect class="fil0 str0" transform="matrix(-0.966762 -0.966762 0.966762 -0.966762 6887.74 3870.76)" width="645" height="645"/>
   </g>
   <line class="fil0 str1" x1="6888" y1="2431" x2="6888" y2= "2637" />
   <g>
    <path class="fil1" d="M8708 1193l-1808 0 0 -17 1808 0 0 17zm42 -69l0 30 0 0 -2 0 -1 0 -2 1 -1 0 -2 0 -1 1 -2 0 -1 1 -1 0 -1 1 -2 1 -1 0 -1 1 -1 1 -1 1 -1 1 -1 1 -1 1 -1 1 -1 2 -1 1 -1 1 0 1 -1 2 0 1 -1 1 0 2 -1 1 0 2 0 1 0 2 0 1 -30 0 0 -3 0 -3 0 -3 1 -3 1 -3 0 -3 1 -2 1 -3 2 -3 1 -2 1 -3 2 -2 2 -3 1 -2 2 -2 2 -2 2 -2 3 -2 2 -2 2 -2 3 -1 2 -2 3 -1 2 -1 3 -1 3 -1 3 -1 3 -1 3 0 3 -1 3 0 3 0 0 0zm60 60l-30 0 0 0 0 -1 0 -2 0 -1 -1 -2 0 -1 0 -2 -1 -1 0 -1 -1 -2 -1 -1 0 -1 -1 -1 -1 -2 -1 -1 -1 -1 -1 -1 -1 -1 -1 -1 -1 -1 -1 -1 -2 0 -1 -1 -1 -1 -2 0 -1 -1 -1 0 -2 -1 -1 0 -2 0 -1 -1 -2 0 -1 0 0 -30 3 0 3 0 3 1 3 0 3 1 3 1 2 1 3 1 3 1 2 1 3 2 2 1 3 2 2 2 2 2 2 2 2 2 2 2 2 2 2 3 1 2 2 3 1 2 1 3 1 3 1 2 1 3 1 3 0 3 1 3 0 3 0 3 0 0zm-60 60l0 -30 0 0 1 0 2 0 1 0 2 0 1 -1 2 0 1 0 1 -1 2 -1 1 0 1 -1 2 -1 1 -1 1 -1 1 0 1 -1 1 -2 1 -1 1 -1 1 -1 1 -1 0 -1 1 -2 1 -1 0 -1 1 -2 0 -1 0 -2 1 -1 0 -2 0 -1 0 -2 30 0 0 3 0 3 -1 3 0 3 -1 3 -1 3 -1 3 -1 3 -1 2 -1 3 -2 2 -1 3 -2 2 -2 3 -2 2 -2 2 -2 2 -2 2 -2 1 -3 2 -2 2 -3 1 -2 1 -3 2 -3 1 -2 1 -3 1 -3 0 -3 1 -3 0 -3 0 -3 0 0 0zm-60 -60l30 0 0 2 0 1 0 2 0 1 1 2 0 1 1 2 0 1 1 1 0 2 1 1 1 1 1 1 1 1 1 1 1 2 1 1 1 0 1 1 1 1 1 1 2 1 1 0 1 1 1 1 2 0 1 0 2 1 1 0 2 0 1 0 2 0 0 30 -3 0 -3 0 -3 0 -3 -1 -3 0 -3 -1 -3 -1 -3 -1 -2 -2 -3 -1 -2 -1 -3 -2 -2 -2 -2 -1 -3 -2 -2 -2 -2 -2 -2 -2 -1 -3 -2 -2 -2 -3 -1 -2 -1 -3 -2 -2 -1 -3 -1 -3 0 -3 -1 -3 -1 -3 0 -3 0 -3 0 -3z"/>
   </g>
   <g>
    <path class="fil1" d="M8902 3879l-2002 0 0 -17 2002 0 0 17zm42 -68l0 30 0 0 -2 0 -1 0 -2 0 -1 0 -2 1 -1 0 -2 0 -1 1 -1 1 -2 0 -1 1 -1 1 -1 1 -1 1 -1 0 -2 1 -1 2 0 1 -1 1 -1 1 -1 1 -1 1 0 2 -1 1 -1 1 0 2 0 1 -1 2 0 1 0 2 0 1 0 2 -30 0 0 -3 0 -3 0 -3 1 -3 0 -3 1 -3 1 -3 1 -3 2 -2 1 -3 1 -2 2 -3 2 -2 1 -3 2 -2 2 -2 2 -2 2 -2 3 -1 2 -2 3 -2 2 -1 3 -1 2 -2 3 -1 3 -1 3 -1 3 0 3 -1 3 0 3 0 3 0 0 0zm60 60l-30 0 0 0 0 -2 0 -1 -1 -2 0 -1 0 -2 -1 -1 0 -2 -1 -1 0 -1 -1 -2 -1 -1 0 -1 -1 -1 -1 -1 -1 -1 -1 -2 -1 -1 -1 0 -1 -1 -2 -1 -1 -1 -1 -1 -1 0 -2 -1 -1 -1 -1 0 -2 0 -1 -1 -2 0 -1 0 -2 0 -1 0 0 -30 3 0 3 0 3 0 3 1 3 0 3 1 2 1 3 1 3 2 2 1 3 1 2 2 3 2 2 1 2 2 2 2 2 2 2 2 2 3 2 2 1 3 2 2 1 3 1 2 1 3 1 3 1 3 1 3 0 3 1 3 0 3 0 3 0 0zm-60 60l0 -30 0 0 1 0 2 0 1 -1 2 0 1 0 2 -1 1 0 1 -1 2 0 1 -1 1 -1 1 0 2 -1 1 -1 1 -1 1 -1 1 -1 1 -1 1 -1 1 -1 0 -2 1 -1 1 -1 0 -2 1 -1 0 -1 1 -2 0 -1 0 -2 1 -1 0 -2 0 -1 30 0 0 3 0 3 -1 3 0 3 -1 3 -1 3 -1 2 -1 3 -1 3 -1 2 -2 3 -1 2 -2 3 -2 2 -2 2 -2 2 -2 2 -2 2 -2 2 -3 2 -2 1 -3 2 -2 1 -3 1 -3 1 -2 1 -3 1 -3 1 -3 0 -3 1 -3 0 -3 0 0 0zm-60 -60l30 0 0 1 0 2 0 1 0 2 1 1 0 2 0 1 1 1 1 2 0 1 1 1 1 2 1 1 1 1 0 1 1 1 2 1 1 1 1 1 1 1 1 0 1 1 2 1 1 0 1 1 2 0 1 1 2 0 1 0 2 1 1 0 2 0 0 30 -3 0 -3 0 -3 -1 -3 0 -3 -1 -3 -1 -3 -1 -3 -1 -2 -1 -3 -1 -2 -2 -3 -1 -2 -2 -3 -2 -2 -2 -2 -2 -2 -2 -2 -2 -1 -2 -2 -3 -2 -2 -1 -3 -1 -2 -2 -3 -1 -3 -1 -2 -1 -3 0 -3 -1 -3 0 -3 0 -3 0 -3z"/>
   </g>
   <polyline class="fil0 str2" points="8317,2126 8186,2073 8452,1967 8186,1861 8452,1755 8186,1649 8452,1542 8317,1489 "/>
   <polyline class="fil0 str2" points="8317,3566 8186,3512 8452,3406 8186,3300 8452,3194 8186,3088 8452,2982 8317,2929 "/>
   <line class="fil0 str1" x1="8317" y1="2126" x2="8317" y2= "2929" />
   <g>
    <path class="fil1" d="M8325 1184l0 305 -17 0 0 -305 17 0zm-68 0l0 0 0 -3 0 -3 0 -3 1 -3 1 -3 0 -3 1 -2 2 -3 1 -3 1 -2 2 -3 1 -2 2 -3 2 -2 1 -2 2 -2 3 -2 2 -2 2 -2 2 -2 3 -1 2 -2 3 -1 3 -1 2 -1 3 -1 3 -1 3 -1 3 0 3 -1 3 0 3 0 0 0 3 0 3 0 3 1 3 0 3 1 3 1 3 1 2 1 3 1 3 1 2 2 3 1 2 2 2 2 2 2 2 2 2 2 2 2 2 2 2 3 1 2 2 3 1 2 1 3 1 3 1 2 1 3 1 3 0 3 1 3 0 3 0 3 0 0 0 3 0 3 -1 3 0 3 -1 3 -1 3 -1 3 -1 3 -1 2 -1 3 -2 2 -1 3 -2 2 -2 2 -2 3 -2 2 -2 2 -2 2 -2 1 -2 2 -3 2 -2 1 -3 1 -3 2 -2 1 -3 1 -3 1 -3 0 -3 1 -3 0 -3 0 -3 0 0 0 -3 0 -3 0 -3 0 -3 -1 -3 0 -3 -1 -3 -1 -2 -1 -3 -2 -3 -1 -2 -1 -3 -2 -2 -2 -2 -1 -2 -2 -3 -2 -2 -2 -1 -3 -2 -2 -2 -2 -1 -3 -2 -2 -1 -3 -1 -2 -2 -3 -1 -3 0 -3 -1 -3 -1 -3 0 -3 0 -3 0 -3z"/>
   </g>
   <g>
    <path class="fil1" d="M8309 3871l0 -305 17 0 0 305 -17 0zm68 0l0 0 0 3 0 3 0 3 -1 3 -1 3 0 3 -1 2 -1 3 -2 3 -1 2 -1 3 -2 2 -2 3 -1 2 -2 2 -2 2 -2 2 -3 2 -2 2 -2 2 -3 1 -2 2 -3 1 -2 1 -3 1 -3 1 -3 1 -3 1 -3 0 -3 1 -3 0 -3 0 0 0 -3 0 -3 0 -3 -1 -3 0 -3 -1 -3 -1 -3 -1 -2 -1 -3 -1 -3 -1 -2 -2 -2 -1 -3 -2 -2 -2 -2 -2 -2 -2 -2 -2 -2 -2 -2 -2 -2 -3 -1 -2 -2 -3 -1 -2 -1 -3 -1 -3 -1 -2 -1 -3 -1 -3 0 -3 -1 -3 0 -3 0 -3 0 0 0 -3 0 -3 1 -3 0 -3 1 -3 1 -3 1 -3 1 -3 1 -2 1 -3 2 -2 1 -3 2 -2 2 -2 2 -3 2 -2 2 -2 2 -2 2 -1 3 -2 2 -2 2 -1 3 -1 3 -2 2 -1 3 -1 3 -1 3 0 3 -1 3 0 3 0 3 0 0 0 3 0 3 0 3 0 3 1 3 0 3 1 3 1 3 1 2 2 3 1 2 1 3 2 2 2 2 1 3 2 2 2 2 2 2 3 1 2 2 2 2 3 1 2 1 3 2 2 1 3 1 3 0 3 1 3 1 3 0 3 0 3 0 3z"/>
   </g>
   <g>
    <path class="fil1" d="M8317 2542l-1429 0 0 -17 1429 0 0 17zm0 -68l0 0 3 0 3 0 3 0 3 1 3 1 3 0 3 1 2 1 3 2 3 1 2 1 3 2 2 2 2 1 3 2 2 2 2 2 2 3 1 2 2 2 2 3 1 2 1 3 2 2 1 3 1 3 0 3 1 3 1 3 0 3 0 3 0 3 0 0 0 3 0 3 0 3 -1 3 -1 3 0 3 -1 2 -1 3 -2 3 -1 2 -1 3 -2 2 -2 3 -1 2 -2 2 -2 2 -2 2 -3 2 -2 2 -2 2 -3 1 -2 2 -3 1 -3 1 -2 1 -3 1 -3 1 -3 1 -3 0 -3 1 -3 0 -3 0 0 0 -3 0 -3 0 -3 -1 -3 0 -3 -1 -3 -1 -2 -1 -3 -1 -3 -1 -2 -1 -3 -2 -2 -1 -3 -2 -2 -2 -2 -2 -2 -2 -2 -2 -2 -2 -2 -2 -2 -3 -1 -2 -2 -3 -1 -2 -1 -3 -1 -3 -1 -2 -1 -3 -1 -3 0 -3 -1 -3 0 -3 0 -3 0 0 0 -3 0 -3 1 -3 0 -3 1 -3 1 -3 1 -3 1 -3 1 -2 1 -3 2 -2 1 -3 2 -2 2 -2 2 -3 2 -2 2 -2 2 -2 2 -1 3 -2 2 -2 3 -1 2 -1 3 -2 3 -1 2 -1 3 0 3 -1 3 -1 3 0 3 0 3 0z"/>
   </g>
   <g>
    <path class="fil1" d="M10574 2542l-2257 0 0 -17 2257 0 0 17zm0 -68l0 0 3 0 3 0 3 0 3 1 3 1 3 0 3 1 3 1 2 2 3 1 2 1 3 2 2 2 3 1 2 2 2 2 2 2 2 3 1 2 2 2 2 3 1 2 2 3 1 2 1 3 1 3 1 3 0 3 1 3 0 3 0 3 0 3 0 0 0 3 0 3 0 3 -1 3 0 3 -1 3 -1 2 -1 3 -1 3 -2 2 -1 3 -2 2 -2 3 -1 2 -2 2 -2 2 -2 2 -2 2 -3 2 -2 2 -3 1 -2 2 -3 1 -2 1 -3 1 -3 1 -3 1 -3 1 -3 0 -3 1 -3 0 -3 0 0 0 -3 0 -3 0 -3 -1 -3 0 -3 -1 -3 -1 -2 -1 -3 -1 -3 -1 -2 -1 -3 -2 -2 -1 -3 -2 -2 -2 -2 -2 -2 -2 -2 -2 -2 -2 -2 -2 -2 -3 -1 -2 -2 -3 -1 -2 -1 -3 -1 -3 -1 -2 -1 -3 -1 -3 0 -3 -1 -3 0 -3 0 -3 0 0 0 -3 0 -3 1 -3 0 -3 1 -3 1 -3 1 -3 1 -3 1 -2 1 -3 2 -2 1 -3 2 -2 2 -2 2 -3 2 -2 2 -2 2 -2 2 -1 3 -2 2 -2 3 -1 2 -1 3 -2 3 -1 2 -1 3 0 3 -1 3 -1 3 0 3 0 3 0z"/>
   </g>
   <g>
    <path class="fil1" d="M203 1571l0 1987 -17 0 0 -1987 17 0zm-9 -106l90 210 -5 -2 -6 -3 -5 -2 -6 -2 -6 -2 -5 -2 -6 -2 -6 -1 -5 -2 -6 -1 -6 -1 -5 -1 -6 0 -6 -1 -5 0 -6 0 -5 0 -6 0 -6 1 -5 0 -6 1 -6 1 -5 1 -6 2 -6 1 -5 2 -6 2 -5 2 -6 2 -6 2 -5 3 -6 2 0 0 90 -210z"/>
   </g>
   <g>
    <path class="fil1" d="M3847 1502l-30 781 -17 -1 30 -781 17 1zm-4 -106l82 214 -6 -3 -5 -3 -6 -2 -6 -3 -5 -2 -6 -2 -5 -2 -6 -2 -5 -1 -6 -2 -6 -1 -5 -1 -6 -1 -5 0 -6 -1 -6 0 -5 0 -6 0 -6 0 -5 0 -6 1 -6 1 -5 1 -6 1 -6 1 -5 2 -6 1 -6 2 -5 2 -6 2 -6 2 -6 3 0 0 99 -207z"/>
   </g>
   <path class="fil1" d="M8032 2033l0 52 -256 -53 0 -114c0,-20 2,-35 6,-46 4,-11 11,-20 22,-26 11,-7 24,-10 39,-10 22,0 40,6 54,19 14,13 23,33 26,59 6,-6 14,-13 24,-19 20,-11 49,-24 85,-39l0 57c-14,4 -37,13 -67,26 -17,8 -28,15 -34,24 -3,5 -5,13 -5,26l0 21 106 23zm-144 -31l0 -28c0,-28 -2,-47 -5,-56 -4,-9 -9,-17 -16,-22 -7,-5 -15,-8 -23,-8 -9,0 -16,4 -21,12 -3,4 -4,14 -4,30l0 58 69 14z"/>
   <path id="1" class="fil1" d="M7846 1791l0 -48 23 4c-18,-18 -27,-37 -27,-58 0,-14 3,-24 8,-32 6,-8 14,-13 25,-15 -10,-6 -18,-15 -24,-27 -6,-12 -9,-25 -9,-38 0,-15 4,-26 12,-35 8,-8 19,-12 32,-12 6,0 17,2 33,5l113 25 0 50 -113 -24c-14,-3 -22,-5 -24,-5 -6,0 -10,1 -13,5 -3,3 -4,7 -4,14 0,12 6,24 19,33 10,8 27,14 51,19l84 18 0 50 -112 -24c-13,-3 -22,-4 -26,-4 -5,0 -9,2 -12,5 -3,3 -4,8 -4,14 0,5 1,11 4,17 4,6 8,11 14,15 6,5 13,8 22,11 4,2 14,4 29,8l85 17 0 51 -186 -39z"/>
   <g>
    <path class="fil1" d="M3344 1176l115 0 0 17 -115 0 0 -17zm-105 8l210 -90 -3 6 -2 5 -3 6 -2 6 -2 5 -2 6 -1 6 -2 5 -1 6 -1 5 -1 6 -1 6 -1 5 0 6 0 6 0 5 0 6 0 6 0 5 1 6 1 5 1 6 1 6 1 5 2 6 1 6 2 5 2 6 2 6 3 5 2 6 3 6 0 0 -210 -91z"/>
   </g>
   <g>
    <path class="fil1" d="M3344 3862l115 0 0 17 -115 0 0 -17zm-105 9l210 -90 -3 5 -2 6 -3 5 -2 6 -2 6 -2 5 -1 6 -2 6 -1 5 -1 6 -1 6 -1 5 -1 6 0 5 0 6 0 6 0 5 0 6 0 6 1 5 1 6 1 6 1 5 1 6 2 5 1 6 2 6 2 5 2 6 3 6 2 5 3 6 0 0 -210 -90z"/>
   </g>
   <path class="fil1" d="M0 1022l2 -40c9,2 18,4 26,4 8,0 15,-2 21,-6 7,-5 14,-15 22,-29l14 -24 -42 -248 42 0 19 124c3,25 7,49 9,74l111 -198 44 0 -158 280c-15,27 -29,45 -41,54 -11,9 -25,14 -40,14 -10,0 -20,-2 -29,-5z"/>
   <path id="1" class="fil1" d="M235 1021l71 -342 39 0 -7 34c15,-15 28,-25 39,-31 11,-6 24,-9 36,-9 24,0 44,9 59,26 16,17 24,42 24,74 0,25 -5,49 -13,70 -9,21 -19,38 -32,51 -12,13 -25,23 -38,29 -12,6 -26,9 -39,9 -30,0 -53,-15 -69,-46l-28 135 -42 0zm83 -196c0,19 1,32 4,39 4,10 10,18 19,24 9,6 19,9 31,9 24,0 44,-13 59,-41 15,-27 23,-55 23,-83 0,-21 -6,-37 -16,-49 -10,-11 -22,-17 -37,-17 -11,0 -21,3 -30,9 -9,5 -18,14 -26,25 -8,12 -14,25 -19,42 -5,16 -8,30 -8,42z"/>
   <polygon class="fil1" points="2832,979 2904,637 2949,637 2878,979 "/>
   <path id="1" class="fil1" d="M2937 979l108 -126 -62 -122 47 0 21 44c8,16 15,32 21,47l71 -91 51 0 -103 125 63 123 -47 0 -25 -51c-6,-10 -11,-24 -18,-39l-74 90 -53 0z"/>
   <path id="2" class="fil1" d="M3172 1074l72 -343 39 0 -7 35c14,-15 27,-26 39,-32 11,-6 23,-8 36,-8 23,0 43,8 59,25 15,17 23,42 23,74 0,26 -4,49 -13,70 -8,21 -19,39 -31,51 -13,13 -26,23 -38,29 -13,6 -26,9 -40,9 -29,0 -52,-15 -69,-45l-28 135 -42 0zm83 -196c0,18 2,31 4,38 4,10 11,18 20,24 8,6 19,10 31,10 24,0 43,-14 58,-41 15,-28 23,-55 23,-84 0,-21 -5,-37 -15,-48 -10,-12 -23,-17 -38,-17 -10,0 -20,2 -30,8 -9,6 -17,14 -25,25 -8,12 -15,26 -20,42 -5,16 -8,30 -8,43z"/>
   <polygon class="fil1" points="3095,4377 3166,4035 3212,4035 3140,4377 "/>
   <path id="1" class="fil1" d="M3199 4377l108 -125 -62 -122 47 0 21 43c8,17 15,32 21,47l71 -90 51 0 -103 125 63 122 -47 0 -25 -50c-5,-11 -11,-24 -18,-40l-74 90 -53 0z"/>
   <path id="2" class="fil1" d="M3454 4377l52 -247 38 0 -9 43c17,-17 33,-29 48,-37 14,-8 29,-12 44,-12 21,0 37,6 48,17 12,11 17,25 17,43 0,10 -2,24 -6,44l-34 149 -41 0 34 -156c4,-16 5,-27 5,-34 0,-8 -2,-15 -8,-20 -6,-5 -14,-8 -25,-8 -22,0 -42,8 -59,23 -17,16 -30,42 -38,80l-24 115 -42 0z"/>
   <path class="fil1" d="M12700 960l-26 -248 41 0 11 111 4 63c0,4 1,14 2,28 5,-16 9,-28 12,-36 3,-9 8,-21 15,-37l60 -129 46 0 8 124c1,19 2,44 2,75 8,-21 20,-49 38,-86l53 -113 43 0 -121 248 -45 0 -8 -146c-1,-9 -2,-26 -2,-52 -7,16 -15,34 -23,54l-66 144 -44 0z"/>
   <path id="1" class="fil1" d="M12978 1055l72 -343 39 0 -8 35c15,-15 28,-26 39,-32 12,-5 24,-8 36,-8 24,0 44,8 59,25 16,18 24,42 24,74 0,26 -5,49 -13,70 -9,22 -19,39 -32,51 -12,13 -25,23 -38,29 -12,6 -26,9 -39,9 -30,0 -53,-15 -69,-45l-28 135 -42 0zm83 -196c0,18 1,31 4,38 4,10 10,18 19,24 9,6 19,10 31,10 24,0 44,-14 59,-41 15,-28 23,-55 23,-84 0,-21 -5,-37 -16,-48 -10,-12 -22,-17 -37,-17 -11,0 -21,2 -30,8 -9,6 -18,14 -26,26 -8,11 -14,25 -19,41 -5,16 -8,31 -8,43z"/>
   <path class="fil1" d="M12651 4286l-26 -248 41 0 11 111 4 63c0,4 1,14 2,28 5,-16 9,-28 12,-36 3,-9 8,-21 15,-37l60 -129 46 0 7 124c2,19 3,44 3,75 8,-21 20,-49 38,-86l53 -113 43 0 -121 248 -45 0 -8 -146c-1,-9 -2,-26 -2,-53 -7,17 -15,35 -23,54l-66 145 -44 0z"/>
   <path id="1" class="fil1" d="M12948 4286l52 -248 39 0 -9 43c17,-17 32,-29 47,-37 15,-8 29,-11 45,-11 20,0 36,5 47,16 12,11 18,25 18,44 0,9 -2,23 -7,43l-33 150 -42 0 35 -157c3,-15 5,-27 5,-34 0,-8 -3,-15 -9,-20 -6,-5 -14,-8 -25,-8 -22,0 -42,8 -59,24 -17,15 -30,42 -38,79l-24 116 -42 0z"/>
   <path class="fil1" d="M7948 984l7 -33 133 -150c9,-10 20,-21 31,-33 -20,2 -34,3 -43,3l-92 0 8 -35 191 0 -6 27 -134 151c-8,8 -19,20 -34,35 24,-2 40,-2 49,-2l97 0 -8 37 -199 0z"/>
   <path id="1" class="fil1" d="M8173 1079l72 -343 39 0 -8 35c15,-15 28,-26 39,-32 12,-5 24,-8 37,-8 23,0 43,8 58,25 16,18 24,42 24,74 0,26 -5,49 -13,71 -9,21 -19,38 -32,51 -12,12 -25,22 -38,28 -12,6 -25,9 -39,9 -30,0 -53,-15 -69,-45l-28 135 -42 0zm83 -196c0,18 2,31 4,38 4,10 10,18 19,24 9,7 20,10 31,10 25,0 44,-14 59,-41 15,-27 23,-55 23,-84 0,-21 -5,-37 -15,-48 -10,-12 -23,-17 -38,-17 -11,0 -21,3 -30,8 -9,6 -18,14 -26,26 -7,11 -14,25 -19,41 -5,16 -8,31 -8,43z"/>
   <path class="fil1" d="M8003 4380l6 -33 133 -150c10,-10 20,-21 32,-33 -20,2 -34,3 -43,3l-92 0 7 -35 192 0 -6 27 -134 151c-8,8 -19,20 -34,35 24,-2 40,-2 48,-2l98 0 -8 37 -199 0z"/>
   <path id="1" class="fil1" d="M8247 4380l52 -248 39 0 -9 43c17,-17 32,-29 47,-37 15,-7 30,-11 45,-11 20,0 36,5 48,16 11,11 17,26 17,44 0,9 -2,24 -7,43l-33 150 -42 0 35 -157c3,-15 5,-26 5,-34 0,-8 -3,-15 -9,-20 -6,-5 -14,-7 -25,-7 -22,0 -41,7 -59,23 -17,15 -30,42 -38,80l-24 115 -42 0z"/>
   <path class="fil1" d="M372 2797l-66 -341 44 0 40 203c7,37 12,67 14,90 15,-29 26,-52 36,-69l121 -224 47 0 -187 341 -49 0z"/>
   <path id="1" class="fil1" d="M557 2893l2 -40c9,2 17,4 26,4 8,0 15,-2 20,-6 7,-5 15,-15 23,-29l13 -24 -41 -248 42 0 18 124c4,25 7,49 10,74l111 -198 43 0 -157 280c-16,27 -29,45 -41,54 -12,9 -25,14 -41,14 -9,0 -19,-2 -28,-5z"/>
   <path class="fil1" d="M9472 1404l-66 -342 44 0 40 204c7,37 12,67 14,90 15,-29 27,-53 36,-70l121 -224 48 0 -188 342 -49 0z"/>
   <path id="1" class="fil1" d="M9675 1404l7 -33 133 -149c9,-11 20,-22 32,-33 -20,2 -35,3 -43,3l-93 0 8 -36 191 0 -5 27 -135 151c-7,9 -18,20 -33,35 23,-1 39,-2 48,-2l97 0 -7 37 -200 0z"/>
   <path id="2" class="fil1" d="M9900 1499l72 -343 39 0 -7 35c14,-15 27,-25 39,-31 11,-6 23,-9 36,-9 24,0 43,9 59,26 15,17 23,41 23,73 0,26 -4,50 -13,71 -8,21 -19,38 -31,51 -13,13 -25,22 -38,28 -13,6 -26,9 -39,9 -30,0 -53,-15 -70,-45l-28 135 -42 0zm84 -196c0,19 1,31 3,38 4,10 11,19 20,25 9,6 19,9 31,9 24,0 44,-14 59,-41 15,-27 22,-55 22,-83 0,-21 -5,-37 -15,-49 -10,-11 -23,-17 -38,-17 -10,0 -20,3 -30,9 -9,5 -17,14 -25,25 -8,11 -15,25 -20,41 -5,17 -7,31 -7,43z"/>
   <path class="fil1" d="M2005 1466l39 0 -31 106c-2,7 -5,17 -9,31 6,24 10,39 13,43 6,9 13,13 21,13 7,0 12,-3 18,-8 5,-5 9,-13 10,-24l10 0c-2,23 -7,38 -14,47 -8,8 -16,13 -25,13 -9,0 -17,-4 -25,-12 -7,-7 -13,-23 -19,-48 -7,14 -14,24 -20,31 -9,10 -19,17 -30,22 -11,4 -23,7 -37,7 -34,0 -59,-12 -75,-35 -16,-22 -25,-48 -25,-78 0,-34 10,-62 29,-83 19,-21 41,-32 67,-32 17,0 33,6 47,17 13,11 25,31 36,60l20 -70zm-28 97c-8,-32 -19,-55 -32,-68 -13,-12 -27,-19 -40,-19 -16,0 -28,9 -38,25 -11,17 -16,44 -16,80 0,22 3,39 7,51 4,12 11,22 20,29 8,7 18,10 27,10 12,0 23,-6 33,-17 14,-14 27,-45 39,-91z"/>
   <path id="1" class="fil1" d="M2130 1573l58 -28 6 0 0 200c0,13 0,22 2,25 1,3 3,6 7,8 3,1 10,2 21,2l0 7 -90 0 0 -7c11,0 19,-1 22,-2 4,-2 6,-5 8,-8 0,-3 1,-11 1,-25l0 -128c0,-17 -1,-28 -2,-33 -1,-4 -2,-7 -4,-8 -3,-2 -5,-3 -8,-3 -5,0 -10,2 -18,6l-3 -6z"/>
   <polygon id="2" class="fil1" points="2323,1531 2323,1483 2370,1483 2370,1531 "/>
   <path id="3" class="fil1" d="M2551 1680l-65 -342 44 0 39 204c7,37 12,66 15,89 14,-29 26,-52 35,-69l122 -224 47 0 -188 342 -49 0z"/>
   <path id="4" class="fil1" d="M2736 1775l2 -40c9,2 18,4 26,4 9,0 15,-2 21,-6 7,-5 14,-15 22,-29l14 -24 -41 -248 41 0 19 124c3,25 7,50 9,74l111 -198 44 0 -158 280c-15,27 -29,46 -41,54 -11,9 -25,14 -40,14 -10,0 -20,-2 -29,-5z"/>
   <path class="fil1" d="M4038 2272l-65 -342 44 0 40 204c7,37 12,67 14,89 15,-29 26,-52 36,-69l121 -224 47 0 -187 342 -50 0z"/>
   <path id="1" class="fil1" d="M4232 2272l107 -126 -61 -122 46 0 22 44c8,16 15,32 20,47l72 -91 51 0 -103 125 62 123 -46 0 -26 -51c-5,-10 -11,-24 -17,-39l-74 90 -53 0z"/>
   <path id="2" class="fil1" d="M4467 2367l72 -343 39 0 -7 35c14,-15 27,-26 38,-32 12,-6 24,-8 37,-8 23,0 43,8 58,25 16,18 24,42 24,74 0,26 -5,49 -13,70 -9,22 -19,39 -32,51 -12,13 -25,23 -38,29 -12,6 -25,9 -39,9 -29,0 -53,-15 -69,-45l-28 135 -42 0zm83 -196c0,18 2,31 4,38 4,10 11,18 19,24 9,6 20,10 31,10 25,0 44,-14 59,-41 15,-28 23,-55 23,-84 0,-21 -5,-37 -15,-48 -10,-12 -23,-17 -38,-17 -11,0 -21,2 -30,8 -9,6 -18,14 -25,26 -8,11 -15,25 -20,41 -5,16 -8,31 -8,43z"/>
   <path class="fil1" d="M3719 2875l-87 170 15 60c6,24 12,39 18,45 6,6 14,9 24,9 12,0 21,-3 28,-10 7,-6 11,-17 13,-32l8 0c0,4 0,7 0,9 0,19 -6,37 -18,52 -7,9 -18,14 -30,14 -9,0 -16,-2 -23,-7 -7,-4 -13,-11 -17,-20 -7,-15 -11,-27 -14,-37l-15 -61 -62 121 -40 0 89 -176 -18 -69c-3,-15 -8,-25 -13,-30 -5,-4 -12,-7 -22,-7 -10,0 -19,4 -25,10 -6,7 -10,17 -11,32l-9 0c1,-28 6,-48 16,-62 8,-9 18,-15 30,-15 12,0 22,5 29,14 7,9 12,20 16,35l18 71 59 -116 41 0z"/>
   <path id="1" class="fil1" d="M3798 2983l58 -28 5 0 0 200c0,13 1,21 2,25 1,3 4,5 7,7 4,2 11,3 22,3l0 7 -90 0 0 -7c11,0 18,-1 22,-3 3,-1 6,-4 7,-8 1,-2 1,-10 1,-24l0 -128c0,-17 0,-29 -1,-34 -1,-3 -3,-6 -5,-8 -2,-1 -5,-2 -8,-2 -4,0 -10,2 -18,5l-2 -5z"/>
   <polygon id="2" class="fil1" points="3990,2941 3990,2893 4038,2893 4038,2941 "/>
   <path id="3" class="fil1" d="M4218 3089l-65 -342 44 0 40 204c7,37 12,67 14,90 15,-29 26,-52 36,-70l121 -224 47 0 -187 342 -50 0z"/>
   <path id="4" class="fil1" d="M4412 3089l107 -125 -61 -123 46 0 22 44c8,17 15,32 20,47l72 -91 51 0 -103 125 63 123 -47 0 -26 -50c-5,-11 -11,-24 -17,-40l-74 90 -53 0z"/>
   <path id="5" class="fil1" d="M4647 3184l72 -343 39 0 -7 35c14,-15 27,-25 38,-31 12,-6 24,-9 37,-9 23,0 43,9 58,26 16,17 24,42 24,74 0,25 -5,49 -13,70 -9,21 -19,38 -32,51 -12,13 -25,22 -37,28 -13,6 -26,9 -40,9 -29,0 -53,-15 -69,-45l-28 135 -42 0zm83 -196c0,19 2,31 4,38 4,10 11,19 19,25 9,6 20,9 31,9 25,0 44,-14 59,-41 15,-27 23,-55 23,-83 0,-21 -5,-37 -15,-49 -10,-11 -23,-17 -38,-17 -11,0 -21,3 -30,9 -9,5 -18,14 -25,25 -8,11 -15,25 -20,41 -5,17 -8,31 -8,43z"/>
   <path class="fil1" d="M3789 1023l108 -126 -62 -122 47 0 21 44c8,16 15,32 21,47l71 -91 52 0 -104 125 63 123 -47 0 -25 -51c-5,-10 -11,-23 -18,-39l-74 90 -53 0z"/>
   <path id="1" class="fil1" d="M4025 1118l71 -343 39 0 -7 35c14,-15 27,-26 39,-31 11,-6 23,-9 36,-9 24,0 43,9 59,26 15,17 23,41 23,73 0,26 -4,49 -13,71 -8,21 -19,38 -31,51 -13,13 -25,22 -38,28 -13,6 -26,9 -39,9 -30,0 -53,-15 -69,-45l-28 135 -42 0zm83 -196c0,18 1,31 4,38 4,10 10,18 19,24 9,7 19,10 31,10 24,0 44,-14 59,-41 15,-27 22,-55 22,-84 0,-20 -5,-37 -15,-48 -10,-11 -22,-17 -37,-17 -11,0 -21,3 -30,8 -10,6 -18,14 -26,26 -8,11 -14,25 -20,41 -5,17 -7,31 -7,43z"/>
   <path class="fil1" d="M3928 4165l107 -125 -61 -123 46 0 22 44c8,17 15,32 20,47l71 -91 52 0 -103 125 62 123 -46 0 -26 -50c-5,-11 -11,-24 -17,-40l-74 90 -53 0z"/>
   <path id="1" class="fil1" d="M4183 4165l52 -248 38 0 -9 44c17,-17 33,-30 47,-37 15,-8 30,-12 45,-12 20,0 36,6 48,16 11,11 17,26 17,44 0,9 -2,24 -6,43l-34 150 -42 0 35 -157c3,-15 5,-26 5,-33 0,-9 -3,-15 -9,-20 -5,-6 -14,-8 -25,-8 -22,0 -41,8 -59,23 -17,16 -29,42 -37,80l-24 115 -42 0z"/>
   <path class="fil1" d="M5048 1848l0 40c0,25 -3,52 -10,82l-39 0c4,-20 7,-33 8,-40 2,-22 3,-38 3,-48l0 -238c0,-28 2,-49 8,-62 5,-14 15,-25 30,-34 14,-9 31,-13 51,-13 28,0 50,7 67,22 16,15 25,33 25,53 0,13 -4,26 -11,38 -6,12 -17,22 -31,31 42,20 63,51 63,93 0,18 -4,36 -13,52 -9,16 -21,28 -36,37 -15,8 -31,13 -47,13 -10,0 -21,-2 -31,-6 -10,-3 -23,-10 -37,-20zm0 -18c15,10 28,18 39,23 9,3 17,5 26,5 15,0 28,-7 39,-20 11,-13 16,-33 16,-61 0,-18 -2,-34 -8,-47 -5,-13 -14,-28 -27,-44 -10,4 -19,6 -27,6 -9,0 -16,-2 -20,-4 -3,-3 -5,-6 -5,-10 0,-3 1,-5 4,-8 3,-2 8,-3 14,-3 8,0 19,2 34,6 11,-22 16,-42 16,-61 0,-20 -4,-35 -14,-46 -9,-10 -21,-16 -36,-16 -18,0 -31,8 -41,23 -7,10 -10,27 -10,49l0 208z"/>
   <path id="1" class="fil1" d="M5275 1760l58 -28 6 0 0 200c0,13 0,22 1,25 1,3 4,6 7,7 4,2 11,3 22,3l0 7 -90 0 0 -7c11,0 18,-1 22,-2 3,-2 6,-5 7,-8 1,-3 2,-11 2,-25l0 -128c0,-17 -1,-28 -2,-33 -1,-4 -3,-7 -5,-8 -2,-2 -5,-3 -8,-3 -4,0 -10,2 -18,5l-2 -5z"/>
   <polygon id="2" class="fil1" points="5467,1718 5467,1670 5515,1670 5515,1718 "/>
   <polygon id="3" class="fil1" points="5599,1866 5670,1525 5716,1525 5644,1866 "/>
   <path id="4" class="fil1" d="M5703 1866l108 -125 -62 -122 47 0 21 44c8,16 15,32 21,46l71 -90 51 0 -103 125 63 122 -47 0 -25 -50c-5,-11 -11,-24 -18,-39l-74 89 -53 0z"/>
   <path id="5" class="fil1" d="M5938 1961l72 -342 39 0 -7 34c14,-15 27,-25 39,-31 11,-6 23,-9 36,-9 24,0 43,9 59,26 15,17 23,42 23,74 0,26 -4,49 -13,70 -8,21 -19,38 -31,51 -13,13 -25,23 -38,29 -13,6 -26,9 -39,9 -30,0 -53,-15 -70,-46l-28 135 -42 0zm84 -196c0,19 1,32 4,39 3,10 10,18 19,24 9,6 19,9 31,9 24,0 44,-13 59,-41 15,-27 22,-55 22,-83 0,-21 -5,-37 -15,-49 -10,-11 -23,-17 -38,-17 -10,0 -20,3 -30,9 -9,6 -17,14 -25,25 -8,12 -15,25 -20,42 -5,16 -7,30 -7,42z"/>
   <path class="fil1" d="M5038 3572l0 39c0,25 -3,53 -9,82l-40 0c4,-19 7,-33 8,-40 2,-21 3,-37 3,-47l0 -239c0,-28 3,-48 8,-62 6,-13 16,-24 30,-33 14,-9 32,-14 52,-14 27,0 49,7 66,22 17,15 25,33 25,54 0,13 -3,25 -10,37 -7,12 -17,23 -32,31 42,20 63,51 63,93 0,19 -4,36 -13,52 -8,16 -20,29 -36,37 -15,9 -30,13 -47,13 -10,0 -20,-2 -31,-5 -10,-4 -22,-11 -37,-20zm0 -19c15,11 29,18 40,23 8,3 17,5 25,5 16,0 29,-6 39,-19 11,-13 16,-34 16,-62 0,-18 -2,-33 -7,-47 -5,-13 -14,-27 -27,-43 -11,3 -20,5 -28,5 -9,0 -15,-1 -19,-4 -4,-3 -6,-6 -6,-9 0,-3 2,-6 5,-8 2,-3 7,-4 14,-4 7,0 19,2 34,6 10,-21 16,-42 16,-61 0,-19 -5,-35 -15,-45 -9,-11 -21,-16 -35,-16 -18,0 -32,7 -42,23 -6,10 -10,26 -10,48l0 208z"/>
   <path id="1" class="fil1" d="M5387 3651l-16 46 -140 0 0 -7c48,-44 80,-79 96,-107 10,-17 16,-34 16,-50 0,-15 -5,-27 -14,-37 -9,-9 -20,-14 -33,-14 -12,0 -22,3 -31,10 -10,7 -16,17 -21,30l-6 0c3,-21 10,-38 22,-50 12,-11 27,-17 45,-17 19,0 35,6 48,19 13,12 20,27 20,44 0,12 -3,24 -9,36 -9,19 -23,39 -43,60 -28,31 -46,50 -53,57l62 0c17,0 28,-2 35,-5 6,-2 12,-7 16,-15l6 0z"/>
   <polygon id="2" class="fil1" points="5458,3441 5458,3394 5505,3394 5505,3441 "/>
   <polygon id="3" class="fil1" points="5589,3590 5661,3248 5706,3248 5634,3590 "/>
   <path id="4" class="fil1" d="M5693 3590l108 -126 -62 -122 47 0 22 44c7,16 14,32 20,47l71 -91 52 0 -103 125 62 123 -47 0 -25 -51c-5,-10 -11,-23 -17,-39l-75 90 -53 0z"/>
   <path id="5" class="fil1" d="M5948 3590l52 -248 39 0 -9 43c17,-17 32,-29 47,-37 15,-7 29,-11 45,-11 20,0 36,5 47,16 12,11 18,26 18,44 0,9 -2,23 -7,43l-33 150 -42 0 35 -157c3,-15 5,-26 5,-34 0,-8 -3,-15 -9,-20 -6,-5 -14,-7 -25,-7 -22,0 -42,7 -59,23 -17,15 -30,42 -38,80l-24 115 -42 0z"/>
   <path class="fil1" d="M0 4481l2 -39c9,2 18,3 26,3 8,0 15,-2 21,-5 7,-6 14,-15 22,-29l14 -24 -42 -249 42 0 19 125c3,25 7,49 9,74l111 -199 44 0 -158 281c-15,27 -29,45 -41,54 -11,9 -25,13 -40,13 -10,0 -20,-1 -29,-5z"/>
   <path id="1" class="fil1" d="M254 4386l52 -248 39 0 -9 44c17,-17 32,-30 47,-37 15,-8 30,-12 45,-12 20,0 36,6 48,17 11,10 17,25 17,43 0,9 -2,24 -7,44l-33 149 -42 0 35 -157c3,-15 5,-26 5,-33 0,-9 -3,-15 -9,-20 -6,-5 -14,-8 -25,-8 -22,0 -41,8 -59,23 -17,16 -30,42 -38,80l-24 115 -42 0z"/>
   <path class="fil1" d="M8032 3472l0 53 -256 -54 0 -113c0,-20 2,-35 6,-46 4,-11 11,-20 22,-27 11,-6 24,-10 39,-10 22,0 40,7 54,20 14,13 23,33 26,59 6,-7 14,-13 24,-19 20,-12 49,-25 85,-39l0 56c-14,5 -37,14 -67,27 -17,7 -28,15 -34,23 -3,5 -5,14 -5,27l0 21 106 22zm-144 -30l0 -28c0,-28 -2,-47 -5,-56 -4,-10 -9,-17 -16,-22 -7,-5 -15,-8 -23,-8 -9,0 -16,4 -21,11 -3,5 -4,15 -4,31l0 58 69 14z"/>
   <path id="1" class="fil1" d="M7846 3230l0 -47 23 4c-18,-18 -27,-38 -27,-58 0,-14 3,-25 8,-32 6,-8 14,-13 25,-15 -10,-6 -18,-16 -24,-28 -6,-12 -9,-24 -9,-37 0,-15 4,-27 12,-35 8,-8 19,-12 32,-12 6,0 17,2 33,5l113 24 0 50 -113 -24c-14,-3 -22,-4 -24,-4 -6,0 -10,1 -13,4 -3,3 -4,8 -4,14 0,13 6,24 19,34 10,7 27,14 51,19l84 17 0 50 -112 -23c-13,-3 -22,-4 -26,-4 -5,0 -9,2 -12,5 -3,3 -4,8 -4,14 0,5 1,11 4,17 4,5 8,10 14,15 6,4 13,8 22,11 4,2 14,4 29,7l85 18 0 50 -186 -39z"/>
   <g>
    <path class="fil1" d="M9121 1346l13 -11 26 35 24 34 23 35 21 34 19 35 17 34 16 34 14 34 12 34 11 33 9 34 7 34 5 33 4 33 2 33 1 34 -2 32 -2 33 -5 33 -6 33 -8 32 -9 33 -11 32 -12 32 -15 32 -15 32 -17 31 -19 32 -20 31 -22 32 -23 31 -25 31 -13 -11 24 -30 23 -31 22 -31 20 -31 18 -31 17 -31 15 -31 14 -32 12 -31 11 -32 9 -31 7 -32 6 -32 5 -32 3 -32 1 -32 -1 -32 -2 -32 -3 -33 -6 -32 -7 -33 -8 -33 -11 -33 -12 -33 -13 -33 -16 -34 -17 -33 -19 -34 -20 -34 -23 -34 -24 -34 -25 -34zm-59 -89l201 111 -6 1 -6 1 -6 2 -6 2 -6 2 -5 2 -6 2 -5 2 -5 2 -6 3 -5 3 -5 3 -4 3 -5 3 -5 3 -4 3 -5 4 -4 3 -4 4 -4 4 -4 4 -4 5 -4 4 -3 4 -4 5 -3 5 -4 5 -3 5 -3 5 -3 5 -3 6 -3 5 0 0 -58 -221z"/>
   </g>
   <g>
    <path class="fil1" d="M9134 3659l-13 -10 25 -35 24 -34 23 -34 20 -34 19 -33 17 -34 16 -33 13 -34 12 -33 11 -33 8 -33 7 -32 6 -33 3 -33 2 -32 1 -32 -1 -32 -3 -32 -5 -32 -6 -32 -7 -32 -9 -31 -11 -32 -12 -31 -14 -32 -15 -31 -17 -31 -18 -31 -20 -31 -22 -31 -23 -30 -24 -31 13 -11 25 31 23 31 22 32 20 31 19 32 17 32 15 31 15 32 12 32 11 33 9 32 8 32 6 33 5 33 2 33 2 33 -1 33 -2 33 -4 33 -5 34 -7 33 -9 34 -11 34 -12 33 -14 34 -16 34 -17 35 -19 34 -21 34 -23 35 -24 34 -26 35zm-72 78l58 -221 3 5 3 6 3 5 3 5 3 5 4 5 3 5 4 5 3 4 4 5 4 4 4 4 4 4 4 4 4 3 5 4 4 3 5 4 5 3 4 3 5 2 5 3 6 3 5 2 5 2 6 3 5 2 6 1 6 2 6 2 6 1 6 1 0 0 -201 111z"/>
   </g>
   <path class="fil1" d="M9472 3746l-66 -342 44 0 40 204c7,37 12,67 14,90 15,-29 27,-52 36,-70l121 -224 48 0 -188 342 -49 0z"/>
   <path id="1" class="fil1" d="M9675 3746l7 -33 133 -149c9,-11 20,-22 32,-33 -20,2 -35,3 -43,3l-93 0 8 -36 191 0 -5 27 -135 151c-7,9 -18,20 -33,35 23,-1 39,-2 48,-2l97 0 -7 37 -200 0z"/>
   <path id="2" class="fil1" d="M9920 3746l52 -248 38 0 -9 44c17,-17 33,-29 48,-37 14,-8 29,-12 44,-12 21,0 37,6 48,17 12,11 17,25 17,43 0,10 -2,24 -6,44l-34 149 -41 0 34 -156c4,-16 5,-27 5,-34 0,-8 -2,-15 -8,-20 -6,-5 -14,-8 -25,-8 -22,0 -42,8 -59,23 -17,16 -30,42 -38,80l-24 115 -42 0z"/>
   <g>
    <rect class="fil0 str0" transform="matrix(0.966763 -0.966763 0.966763 0.966763 10873.7 1161.38)" width="645" height="645"/>
    <g>
     <polygon class="fil1" points="11758,1315 11758,1175 11618,1175 11618,1137 11758,1137 11758,997 11796,997 11796,1137 11934,1137 11934,1175 11796,1175 11796,1315 "/>
     <polygon class="fil1" points="11141,1311 11141,1003 11176,1003 11176,1311 "/>
    </g>
   </g>
   <g>
    <rect class="fil0 str0" transform="matrix(0.966763 -0.966763 0.966763 0.966763 10873.7 3816.77)" width="645" height="645"/>
    <g>
     <polygon class="fil1" points="11758,3970 11758,3830 11618,3830 11618,3793 11758,3793 11758,3652 11796,3652 11796,3793 11934,3793 11934,3830 11796,3830 11796,3970 "/>
     <polygon class="fil1" points="11141,3966 11141,3658 11176,3658 11176,3966 "/>
    </g>
   </g>
   <polyline class="fil0 str1" points="10874,1161 10574,1161 10574,3817 10874,3817 "/>
   <g>
    <path class="fil1" d="M11213 2543l-597 0 0 -17 597 0 0 17zm0 119l-15 0 0 -255 30 0 0 255 -15 0z"/>
   </g>
   <g>
    <path class="fil1" d="M12854 1170l-733 0 0 -17 733 0 0 17zm42 -69l0 30 0 0 -2 0 -1 0 -2 1 -1 0 -2 0 -1 1 -2 0 -1 1 -1 0 -2 1 -1 1 -1 0 -1 1 -1 1 -2 1 -1 1 -1 1 -1 1 0 1 -1 2 -1 1 -1 1 0 1 -1 2 -1 1 0 1 0 2 -1 1 0 2 0 1 0 2 0 1 -30 0 0 -3 0 -3 0 -3 1 -3 0 -3 1 -3 1 -2 1 -3 1 -3 2 -2 1 -3 2 -2 1 -3 2 -2 2 -2 2 -2 2 -2 2 -2 3 -2 2 -1 2 -2 3 -2 3 -1 2 -1 3 -1 3 -1 3 -1 3 -1 3 0 3 0 3 -1 3 0 0 0zm60 60l-30 0 0 0 0 -1 0 -2 -1 -1 0 -2 0 -1 -1 -2 0 -1 -1 -1 0 -2 -1 -1 -1 -1 0 -1 -1 -2 -1 -1 -1 -1 -1 -1 -1 -1 -1 -1 -1 -1 -2 -1 -1 0 -1 -1 -1 -1 -2 0 -1 -1 -1 0 -2 -1 -1 0 -2 0 -1 -1 -2 0 -1 0 0 -30 3 0 3 1 3 0 3 0 3 1 3 1 2 1 3 1 3 1 2 1 3 2 2 2 3 1 2 2 2 2 2 2 2 2 2 2 2 2 1 3 2 2 2 3 1 2 1 3 1 3 1 2 1 3 1 3 0 3 0 3 1 3 0 3 0 0zm-60 61l0 -31 0 0 1 0 2 0 1 0 2 0 1 -1 2 0 1 0 1 -1 2 -1 1 0 1 -1 1 -1 2 -1 1 0 1 -1 1 -1 1 -1 1 -2 1 -1 1 -1 0 -1 1 -1 1 -2 0 -1 1 -1 0 -2 1 -1 0 -2 0 -1 1 -2 0 -1 0 -2 30 0 0 3 -1 4 0 3 0 2 -1 3 -1 3 -1 3 -1 3 -1 2 -1 3 -2 3 -2 2 -1 2 -2 3 -2 2 -2 2 -2 2 -2 2 -2 2 -3 1 -2 2 -3 1 -2 2 -3 1 -3 1 -2 1 -3 1 -3 0 -3 1 -3 0 -3 0 -3 1 0 0zm-60 -61l30 0 0 2 0 1 0 2 0 1 1 2 0 1 0 2 1 1 1 1 0 2 1 1 1 1 1 1 0 1 1 2 1 1 1 1 2 1 1 0 1 1 1 1 1 1 2 0 1 1 1 1 2 0 1 0 2 1 1 0 2 0 1 0 2 0 0 31 -3 -1 -3 0 -3 0 -3 -1 -3 0 -3 -1 -3 -1 -3 -1 -2 -1 -3 -2 -3 -1 -2 -2 -2 -1 -3 -2 -2 -2 -2 -2 -2 -2 -2 -2 -2 -3 -1 -2 -2 -2 -1 -3 -2 -3 -1 -2 -1 -3 -1 -3 -1 -3 0 -3 -1 -2 0 -3 0 -4 0 -3z"/>
   </g>
   <g>
    <path class="fil1" d="M12854 3817l-733 0 0 -17 733 0 0 17zm42 -69l0 30 0 0 -2 1 -1 0 -2 0 -1 0 -2 0 -1 1 -2 0 -1 1 -1 0 -2 1 -1 1 -1 1 -1 0 -1 1 -2 1 -1 1 -1 1 -1 1 0 2 -1 1 -1 1 -1 1 0 2 -1 1 -1 1 0 2 0 1 -1 1 0 2 0 1 0 2 0 2 -30 0 0 -4 0 -3 0 -3 1 -3 0 -2 1 -3 1 -3 1 -3 1 -3 2 -2 1 -3 2 -2 1 -2 2 -3 2 -2 2 -2 2 -2 2 -2 3 -2 2 -1 2 -2 3 -1 3 -2 2 -1 3 -1 3 -1 3 -1 3 0 3 -1 3 0 3 -1 3 0 0 0zm60 61l-30 0 0 0 0 -2 0 -2 -1 -1 0 -2 0 -1 -1 -1 0 -2 -1 -1 0 -1 -1 -2 -1 -1 0 -1 -1 -1 -1 -2 -1 -1 -1 -1 -1 -1 -1 -1 -1 -1 -2 0 -1 -1 -1 -1 -1 -1 -2 0 -1 -1 -1 0 -2 -1 -1 0 -2 0 -1 0 -2 0 -1 -1 0 -30 3 0 3 1 3 0 3 1 3 0 3 1 2 1 3 1 3 1 2 2 3 1 2 2 3 1 2 2 2 2 2 2 2 2 2 2 2 3 1 2 2 2 2 3 1 2 1 3 1 3 1 3 1 3 1 2 0 3 0 3 1 3 0 4 0 0zm-60 60l0 -30 0 0 1 0 2 -1 1 0 2 0 1 0 2 -1 1 0 1 -1 2 0 1 -1 1 -1 1 -1 2 0 1 -1 1 -1 1 -1 1 -1 1 -1 1 -1 1 -2 0 -1 1 -1 1 -1 0 -2 1 -1 0 -2 1 -1 0 -1 0 -2 1 -1 0 -2 0 -1 30 0 0 3 -1 3 0 3 0 3 -1 3 -1 2 -1 3 -1 3 -1 3 -1 2 -2 3 -2 2 -1 3 -2 2 -2 2 -2 2 -2 2 -2 2 -2 2 -3 1 -2 2 -3 1 -2 2 -3 1 -3 1 -2 1 -3 1 -3 0 -3 1 -3 0 -3 1 -3 0 0 0zm-60 -60l30 0 0 1 0 2 0 1 0 2 1 1 0 1 0 2 1 1 1 2 0 1 1 1 1 1 1 2 0 1 1 1 1 1 1 1 2 1 1 1 1 0 1 1 1 1 2 1 1 0 1 1 2 0 1 1 2 0 1 0 2 0 1 1 2 0 0 30 -3 0 -3 -1 -3 0 -3 -1 -3 0 -3 -1 -3 -1 -3 -1 -2 -1 -3 -2 -3 -1 -2 -2 -2 -1 -3 -2 -2 -2 -2 -2 -2 -2 -2 -2 -2 -2 -1 -3 -2 -2 -1 -3 -2 -2 -1 -3 -1 -3 -1 -3 -1 -2 0 -3 -1 -3 0 -3 0 -3 0 -3z"/>
   </g>
   <path class="fil1" d="M10890 128l39 0 -31 106c-2,7 -5,17 -10,32 6,24 11,38 14,43 5,8 12,12 21,12 6,0 12,-2 17,-7 5,-5 9,-13 10,-24l10 0c-2,22 -7,38 -14,46 -7,9 -16,13 -25,13 -9,0 -17,-4 -24,-11 -8,-8 -14,-24 -20,-48 -7,13 -13,23 -20,30 -9,10 -19,17 -30,22 -10,5 -23,7 -36,7 -35,0 -60,-11 -76,-34 -16,-23 -24,-49 -24,-78 0,-35 9,-62 28,-83 19,-22 41,-32 67,-32 18,0 33,5 47,16 13,11 26,31 37,61l20 -71zm-28 97c-9,-32 -20,-55 -33,-67 -13,-13 -27,-20 -40,-20 -15,0 -28,9 -38,25 -10,17 -15,44 -15,80 0,22 2,39 6,51 5,13 11,22 20,29 9,7 18,10 28,10 12,0 23,-5 33,-16 13,-15 26,-46 39,-92z"/>
   <path id="1" class="fil1" d="M11137 403l-17 46 -140 0 0 -7c48,-44 80,-79 96,-107 11,-17 16,-34 16,-50 0,-15 -5,-27 -14,-37 -9,-9 -20,-14 -33,-14 -11,0 -22,3 -31,10 -9,7 -16,17 -21,30l-6 0c3,-21 10,-38 22,-50 13,-11 28,-17 46,-17 19,0 35,6 48,19 12,12 19,27 19,44 0,12 -3,24 -9,36 -9,19 -23,39 -42,60 -29,31 -47,50 -54,57l62 0c17,0 29,-2 35,-5 6,-2 12,-7 16,-15l7 0z"/>
   <path id="2" class="fil1" d="M11193 235l58 -28 6 0 0 200c0,14 1,22 2,25 1,3 3,6 7,8 3,2 11,3 21,3l0 6 -89 0 0 -6c11,0 18,-1 21,-3 4,-2 6,-4 8,-8 1,-3 1,-11 1,-25l0 -127c0,-18 0,-29 -2,-34 0,-4 -2,-6 -4,-8 -2,-2 -5,-3 -8,-3 -4,0 -10,2 -18,6l-3 -6z"/>
   <polygon id="3" class="fil1" points="11386,193 11386,146 11434,146 11434,193 "/>
   <path id="4" class="fil1" d="M11614 342l-65 -342 44 0 39 204c7,37 12,67 15,89 14,-29 26,-52 35,-69l122 -224 47 0 -187 342 -50 0z"/>
   <path id="5" class="fil1" d="M11818 342l6 -33 133 -150c10,-10 20,-21 32,-33 -20,2 -34,3 -43,3l-92 0 7 -35 192 0 -6 27 -134 151c-8,8 -19,20 -34,35 24,-2 40,-2 48,-2l98 0 -8 37 -199 0z"/>
   <path id="6" class="fil1" d="M12043 437l71 -343 39 0 -7 35c15,-15 28,-26 39,-32 11,-5 24,-8 36,-8 24,0 44,8 59,25 16,18 24,42 24,74 0,26 -5,49 -13,71 -9,21 -19,38 -32,51 -12,12 -25,22 -38,28 -12,6 -26,9 -39,9 -30,0 -53,-15 -69,-45l-28 135 -42 0zm83 -196c0,18 1,31 4,38 4,10 10,18 19,24 9,7 19,10 31,10 24,0 44,-14 59,-41 15,-27 22,-55 22,-84 0,-21 -5,-37 -15,-48 -10,-12 -22,-17 -37,-17 -11,0 -21,3 -30,8 -9,6 -18,14 -26,26 -8,11 -14,25 -19,41 -5,16 -8,31 -8,43z"/>
   <path class="fil1" d="M10903 4720l39 0 -31 106c-2,7 -5,18 -9,32 6,24 10,38 13,43 6,8 13,13 21,13 7,0 12,-3 18,-8 5,-5 8,-13 10,-24l10 0c-3,22 -7,38 -15,46 -7,9 -15,13 -25,13 -8,0 -17,-3 -24,-11 -7,-7 -13,-23 -19,-48 -7,14 -14,24 -20,31 -9,9 -19,17 -30,21 -11,5 -23,7 -37,7 -34,0 -59,-11 -75,-34 -17,-23 -25,-49 -25,-78 0,-34 10,-62 29,-83 19,-21 41,-32 66,-32 18,0 34,5 47,16 14,11 26,31 37,61l20 -71zm-28 97c-8,-32 -19,-54 -32,-67 -14,-13 -27,-19 -41,-19 -15,0 -28,8 -38,25 -10,17 -15,43 -15,80 0,21 2,38 7,51 4,12 11,22 19,28 9,7 19,11 28,11 12,0 23,-6 33,-17 14,-15 27,-45 39,-92z"/>
   <path id="1" class="fil1" d="M11150 4996l-17 46 -139 0 0 -8c48,-43 80,-79 96,-106 10,-18 15,-34 15,-50 0,-15 -4,-28 -13,-37 -10,-10 -21,-15 -33,-15 -12,0 -22,4 -32,11 -9,6 -16,16 -20,29l-7 0c3,-21 11,-38 23,-49 12,-12 27,-18 45,-18 19,0 35,7 48,19 13,12 19,27 19,44 0,12 -2,24 -8,36 -9,19 -23,39 -43,60 -28,32 -46,50 -53,57l62 0c17,0 28,-1 35,-4 6,-3 11,-8 16,-15l6 0z"/>
   <path id="2" class="fil1" d="M11329 4996l-17 46 -139 0 0 -8c48,-43 80,-79 96,-106 10,-18 15,-34 15,-50 0,-15 -4,-28 -13,-37 -10,-10 -21,-15 -33,-15 -12,0 -22,4 -32,11 -9,6 -16,16 -20,29l-7 0c3,-21 11,-38 23,-49 12,-12 27,-18 45,-18 19,0 35,7 48,19 13,12 19,27 19,44 0,12 -2,24 -8,36 -9,19 -23,39 -43,60 -28,32 -46,50 -53,57l62 0c17,0 28,-1 35,-4 6,-3 11,-8 16,-15l6 0z"/>
   <polygon id="3" class="fil1" points="11400,4786 11400,4738 11447,4738 11447,4786 "/>
   <path id="4" class="fil1" d="M11628 4934l-66 -342 44 0 40 204c7,37 12,67 14,90 15,-29 27,-53 36,-70l121 -224 48 0 -188 342 -49 0z"/>
   <path id="5" class="fil1" d="M11831 4934l7 -33 133 -149c9,-11 20,-22 32,-33 -20,2 -35,3 -43,3l-93 0 8 -36 191 0 -5 27 -135 151c-7,9 -18,20 -33,35 23,-1 39,-2 48,-2l97 0 -7 37 -200 0z"/>
   <path id="6" class="fil1" d="M12076 4934l52 -248 38 0 -9 44c17,-17 33,-30 48,-37 14,-8 29,-12 44,-12 21,0 37,6 48,17 12,10 17,25 17,43 0,9 -2,24 -6,44l-34 149 -41 0 34 -157c4,-15 5,-26 5,-33 0,-9 -2,-15 -8,-20 -6,-5 -14,-8 -25,-8 -22,0 -42,8 -59,23 -17,16 -30,42 -38,80l-24 115 -42 0z"/>
  </g>
 </g>
</svg>
