<?xml version="1.0" encoding="UTF-8"?>
<!DOCTYPE svg PUBLIC "-//W3C//DTD SVG 1.1//EN" "http://www.w3.org/Graphics/SVG/1.1/DTD/svg11.dtd">
<!-- Creator: CorelDRAW Home & Student X8 -->
<svg xmlns="http://www.w3.org/2000/svg" xml:space="preserve" width="135.422mm" height="76.1763mm" version="1.1" style="shape-rendering:geometricPrecision; text-rendering:geometricPrecision; image-rendering:optimizeQuality; fill-rule:evenodd; clip-rule:evenodd"
viewBox="0 0 10967 6169"
 xmlns:xlink="http://www.w3.org/1999/xlink">
 <defs>
  <style type="text/css">
   <![CDATA[
    .str0 {stroke:#2B2A29;stroke-width:32.3939}
    .str1 {stroke:#2B2A29;stroke-width:16.197}
    .str2 {stroke:#E31E24;stroke-width:16.197}
    .fil0 {fill:none}
    .fil1 {fill:#2B2A29;fill-rule:nonzero}
    .fil2 {fill:#E31E24;fill-rule:nonzero}
   ]]>
  </style>
 </defs>
 <g id="Warstwa_x0020_1">
  <metadata id="CorelCorpID_0Corel-Layer"/>
  <g id="_576383600">
   <polygon class="fil0 str0" points="5863,1218 5863,5179 9811,3211 "/>
   <polyline class="fil0 str0" points="3039,1739 2988,1864 2887,1610 2785,1864 2683,1610 2582,1864 2480,1610 2430,1739 "/>
   <polyline class="fil0 str0" points="4376,1739 4325,1864 4223,1610 4122,1864 4020,1610 3919,1864 3817,1610 3766,1739 "/>
   <polyline class="fil0 str0" points="4376,4211 4325,4336 4223,4082 4122,4336 4020,4082 3919,4336 3817,4082 3766,4211 "/>
   <polyline class="fil0 str0" points="3039,4211 2988,4336 2887,4082 2785,4336 2683,4082 2582,4336 2480,4082 2430,4211 "/>
   <polyline class="fil0 str0" points="7667,5157 7617,5282 7515,5027 7413,5282 7312,5027 7210,5282 7109,5027 7058,5157 "/>
   <polyline class="fil0 str0" points="5385,4484 5259,4433 5514,4331 5259,4230 5514,4128 5259,4027 5514,3925 5384,3874 "/>
   <path class="fil0 str0" d="M4364 2066l492 0m-483 223c166,-155 292,-154 454,1"/>
   <path class="fil0 str0" d="M4856 3854l-492 0m483 -223c-166,155 -292,154 -454,-2"/>
   <polygon class="fil1" points="6163,1698 6221,1698 6221,1639 6271,1639 6271,1698 6329,1698 6329,1748 6271,1748 6271,1806 6221,1806 6221,1748 6163,1748 "/>
   <polygon class="fil1" points="8256,2669 8315,2669 8315,2610 8364,2610 8364,2669 8423,2669 8423,2719 8364,2719 8364,2777 8315,2777 8315,2719 8256,2719 "/>
   <polygon class="fil1" points="6780,4309 6839,4309 6839,4250 6889,4250 6889,4309 6947,4309 6947,4358 6889,4358 6889,4417 6839,4417 6839,4358 6780,4358 "/>
   <polygon class="fil1" points="6163,3678 6221,3678 6221,3619 6271,3619 6271,3678 6329,3678 6329,3728 6271,3728 6271,3786 6221,3786 6221,3728 6163,3728 "/>
   <polygon class="fil1" points="6161,2689 6322,2689 6322,2723 6161,2723 "/>
   <polygon class="fil1" points="8280,3685 8440,3685 8440,3719 8280,3719 "/>
   <polygon class="fil1" points="10147,3938 10307,3938 10307,3971 10147,3971 "/>
   <polyline class="fil0 str1" points="8852,2707 9836,2707 9836,247 7541,247 "/>
   <g>
    <path class="fil1" d="M3429 252l3960 0 0 16 -3960 0 -8 -8 8 -8zm-8 8l0 -8 8 0 -8 8zm0 1463l0 -1463 16 0 0 1463 -16 0zm66 0l0 0 0 3 0 3 -1 3 0 2 -1 3 -1 3 -1 3 -1 2 -1 3 -1 2 -1 3 -2 2 -2 2 -1 2 -2 3 -2 2 -2 1 -2 2 -2 2 -3 2 -2 1 -2 2 -3 1 -2 1 -3 1 -3 1 -2 1 -3 0 -3 1 -3 0 -3 0 -3 0 0 0 -3 0 -3 0 -2 0 -3 -1 -3 0 -3 -1 -2 -1 -3 -1 -3 -1 -2 -1 -3 -2 -2 -1 -2 -2 -2 -2 -2 -2 -2 -1 -2 -2 -2 -3 -2 -2 -1 -2 -2 -2 -1 -3 -2 -2 -1 -3 -1 -2 -1 -3 0 -3 -1 -3 -1 -2 0 -3 0 -3 0 -3 0 0 0 -3 0 -3 0 -3 1 -3 1 -2 0 -3 1 -3 1 -2 1 -3 2 -2 1 -3 2 -2 1 -3 2 -2 2 -2 2 -2 2 -2 2 -2 2 -1 2 -2 2 -1 3 -2 2 -1 3 -1 3 -1 2 -1 3 -1 3 -1 3 0 2 0 3 -1 3 0 0 0 3 0 3 1 3 0 3 0 3 1 2 1 3 1 3 1 2 1 3 1 2 2 2 1 3 2 2 1 2 2 2 2 2 2 2 2 1 2 2 3 2 2 1 3 1 2 1 3 1 2 1 3 1 3 1 2 0 3 1 3 0 3 0 3z"/>
   </g>
   <line class="fil0 str1" x1="4610" y1="2178" x2="4610" y2= "2934" />
   <line class="fil0 str1" x1="5838" y1="1710" x2="4376" y2= "1710" />
   <g>
    <path class="fil1" d="M4694 1735l0 3 -1 3 0 3 -1 3 0 3 -1 3 -1 2 -1 3 -1 2 -1 3 -2 2 -1 3 -2 2 -2 2 -1 2 -2 2 -2 2 -2 2 -3 2 -2 1 -2 2 -3 1 -2 1 -3 2 -2 1 -3 0 -3 1 -2 1 -3 0 -3 1 -3 0 -3 0 0 0 -3 0 -3 0 -3 -1 -3 0 -2 -1 -3 -1 -3 0 -2 -1 -3 -2 -2 -1 -3 -1 -2 -2 -2 -1 -3 -2 -2 -2 -2 -2 -2 -2 -1 -2 -2 -2 -2 -2 -1 -3 -2 -2 -1 -3 -1 -2 -1 -3 -1 -2 -1 -3 0 -3 -1 -3 0 -3 -1 -3 0 -3 0 0 0 -2 1 -3 0 -3 1 -3 0 -3 1 -3 1 -2 1 -3 1 -2 1 -3 2 -2 1 -3 2 -2 2 -2 1 -2 2 -2 2 -2 2 -2 3 -2 2 -1 2 -2 3 -1 2 -1 3 -2 2 -1 3 -1 3 0 2 -1 3 0 3 -1 3 0 3 0 0 0 3 0 3 0 3 1 3 0 2 1 3 0 3 1 2 1 3 2 2 1 3 1 2 2 2 1 3 2 2 2 2 2 2 2 1 2 2 2 2 2 1 3 2 2 1 3 1 2 1 3 1 2 1 3 0 3 1 3 0 3 1 3 0 2 0 0zm-66 329l0 -329 16 0 0 329 -16 0z"/>
   </g>
   <path class="fil0 str0" d="M7551 492l0 -492m-222 483c155,-166 153,-292 -2,-454"/>
   <path class="fil0 str0" d="M7514 6167l0 -492m-223 483c155,-166 154,-292 -2,-454"/>
   <polygon class="fil1" points="10110,2467 10168,2467 10168,2409 10218,2409 10218,2467 10277,2467 10277,2517 10218,2517 10218,2576 10168,2576 10168,2517 10110,2517 "/>
   <line class="fil0 str1" x1="3766" y1="1739" x2="3039" y2= "1739" />
   <polygon class="fil1" points="7750,3938 7911,3938 7911,3971 7750,3971 "/>
   <polygon class="fil1" points="6174,4656 6334,4656 6334,4690 6174,4690 "/>
   <g>
    <path class="fil1" d="M4541 4182l0 -3 0 -3 0 -3 1 -2 0 -3 1 -3 1 -3 1 -2 1 -3 2 -2 1 -3 1 -2 2 -2 2 -2 2 -3 1 -2 2 -2 3 -1 2 -2 2 -2 2 -1 3 -2 2 -1 3 -1 2 -1 3 -1 3 -1 3 0 2 -1 3 0 3 0 3 -1 0 0 3 1 3 0 3 0 3 1 3 0 2 1 3 1 3 1 2 1 3 1 2 2 2 1 3 2 2 2 2 1 2 2 2 2 2 3 1 2 2 2 1 2 2 3 1 2 1 3 1 2 1 3 1 3 1 3 0 2 0 3 1 3 0 3 0 0 0 3 -1 3 0 3 0 3 -1 2 -1 3 -1 3 -1 2 -1 3 -1 2 -2 3 -1 2 -2 2 -1 3 -2 2 -2 2 -2 2 -2 1 -2 2 -3 2 -2 1 -2 2 -3 1 -2 1 -3 1 -3 1 -2 1 -3 1 -3 0 -3 0 -3 1 -3 0 0 0 -3 0 -3 -1 -3 0 -2 0 -3 -1 -3 -1 -3 -1 -2 -1 -3 -1 -2 -1 -3 -2 -2 -1 -2 -2 -2 -2 -3 -1 -2 -2 -1 -2 -2 -2 -2 -3 -2 -2 -1 -2 -1 -3 -2 -2 -1 -3 -1 -2 -1 -3 -1 -3 0 -2 -1 -3 0 -3 0 -3 0 -3 0 0zm65 -290l0 290 -16 0 0 -290 16 0z"/>
   </g>
   <polyline class="fil0 str1" points="4610,3741 4610,2971 4610,2178 "/>
   <polyline class="fil0 str1" points="4376,4182 5063,4182 5063,2736 5863,2736 "/>
   <line class="fil0 str1" x1="3766" y1="4211" x2="3039" y2= "4211" />
   <polyline class="fil0 str1" points="5901,3715 5384,3715 5384,3874 "/>
   <polyline class="fil0 str1" points="5852,4687 5397,4687 5397,4483 "/>
   <polyline class="fil0 str1" points="7843,4231 7843,5166 7667,5166 "/>
   <polyline class="fil0 str1" points="6834,4693 6834,5166 7058,5166 "/>
   <polyline class="fil0 str1" points="8852,3678 9811,3678 9811,5910 7553,5910 "/>
   <g>
    <path class="fil1" d="M3391 5913l4010 0 0 16 -4010 0 -8 -8 8 -8zm0 16l-8 0 0 -8 8 8zm8 -1718l0 1710 -16 0 0 -1710 16 0zm-65 0l0 0 0 -3 0 -3 0 -3 1 -2 1 -3 0 -3 1 -3 1 -2 1 -3 2 -2 1 -3 2 -2 1 -2 2 -2 2 -3 2 -2 2 -1 2 -2 2 -2 2 -2 2 -1 3 -1 2 -2 3 -1 3 -1 2 -1 3 -1 3 0 3 -1 2 0 3 0 3 0 0 0 3 0 3 0 3 0 3 1 3 0 2 1 3 1 3 1 2 1 3 2 2 1 2 1 3 2 2 2 2 2 2 1 2 2 2 3 1 2 2 2 2 2 1 3 1 2 1 3 1 2 1 3 1 3 1 3 0 2 1 3 0 3 0 3 0 0 0 3 0 3 -1 3 0 3 -1 2 -1 3 -1 3 -1 2 -1 3 -1 3 -1 2 -2 2 -2 3 -1 2 -2 2 -2 2 -2 2 -2 2 -2 1 -3 2 -2 1 -2 2 -3 1 -2 1 -3 1 -3 1 -2 1 -3 1 -3 0 -3 0 -3 1 -3 0 0 0 -3 0 -3 -1 -2 0 -3 0 -3 -1 -3 -1 -2 -1 -3 -1 -3 -1 -2 -1 -3 -2 -2 -1 -2 -2 -2 -1 -2 -2 -2 -2 -2 -2 -2 -2 -2 -2 -1 -3 -2 -2 -1 -2 -2 -3 -1 -3 -1 -2 -1 -3 0 -3 -1 -2 -1 -3 0 -3 0 -3 0 -3z"/>
   </g>
   <path class="fil1" d="M6427 4112l80 119c14,20 23,32 29,37 6,4 12,7 20,8l0 7 -142 0 0 -7c11,-1 19,-3 22,-6 3,-2 5,-5 5,-9 0,-3 -1,-5 -2,-7 -2,-5 -7,-13 -15,-24l-42 -63 -44 54c-14,17 -20,28 -20,34 0,4 2,8 5,11 3,4 8,7 15,8 3,1 9,2 19,2l0 7 -112 0 0 -7c13,-2 23,-6 30,-11 10,-7 23,-20 40,-41l58 -70 -74 -109c-12,-19 -19,-29 -21,-31 -4,-4 -8,-8 -11,-10 -4,-2 -9,-3 -16,-4l0 -8 144 0 0 8 -7 0c-8,0 -14,1 -17,4 -4,2 -5,6 -5,10 0,3 0,6 1,8l15 22 36 54 30 -36c16,-20 24,-33 24,-41 0,-4 -1,-8 -3,-11 -3,-3 -6,-6 -10,-8 -4,-1 -10,-2 -19,-2l0 -8 107 0 0 8c-9,0 -15,1 -21,3 -5,2 -10,5 -16,11 -4,3 -13,14 -28,32l-55 66z"/>
   <path class="fil1" d="M6528 2113l0 8c-9,1 -16,4 -22,8 -7,6 -18,22 -33,49l-64 106 0 70c0,15 1,25 3,28 1,4 4,7 9,10 5,3 11,4 19,4l16 0 0 8 -163 0 0 -8 15 0c9,0 16,-1 21,-4 3,-2 6,-6 8,-10 2,-4 3,-13 3,-28l0 -58 -69 -125c-13,-25 -23,-39 -28,-44 -6,-4 -13,-6 -23,-6l0 -8 139 0 0 8 -6 0c-8,0 -14,1 -17,3 -4,3 -5,5 -5,8 0,5 5,18 17,39l52 96 53 -87c13,-22 19,-36 19,-43 0,-4 -2,-7 -5,-10 -5,-4 -14,-6 -27,-6l0 -8 88 0z"/>
   <path class="fil1" d="M7468 3765l-171 275 55 0c26,0 45,-2 55,-5 17,-5 32,-15 44,-29 12,-14 21,-32 26,-55l8 0 -12 105 -266 0 171 -275 -43 0c-17,0 -28,0 -33,1 -10,2 -19,6 -28,11 -9,6 -16,13 -22,22 -6,10 -10,21 -14,35l-7 0 7 -85 230 0z"/>
   <path class="fil1" d="M8543 3046l0 8c-5,0 -10,2 -14,4 -3,3 -7,7 -10,13 0,1 -5,12 -13,33l-91 240 -8 0 -72 -190 -79 190 -8 0 -96 -238c-10,-24 -16,-38 -20,-43 -4,-5 -11,-8 -20,-9l0 -8 126 0 0 8c-10,0 -17,2 -20,4 -3,3 -5,7 -5,11 0,5 3,17 10,35l57 141 47 -112 -12 -30c-7,-16 -12,-28 -15,-33 -4,-6 -8,-10 -13,-13 -4,-2 -11,-3 -20,-3l0 -8 140 0 0 8c-10,0 -17,1 -22,2 -3,1 -5,3 -7,5 -1,3 -2,5 -2,8 0,4 3,14 9,31l53 138 48 -125c5,-13 8,-22 9,-27 1,-4 1,-9 1,-13 0,-6 -2,-10 -6,-14 -3,-3 -11,-5 -22,-5l0 -8 75 0z"/>
   <path class="fil1" d="M2636 3783l-25 88c-4,13 -6,22 -6,28 0,6 3,10 7,13 4,4 14,6 28,6l-3 7 -140 0 2 -7c14,0 25,-3 31,-8 7,-6 13,-18 18,-37l54 -187c3,-10 4,-19 4,-25 0,-6 -2,-10 -6,-13 -3,-3 -12,-5 -25,-6l2 -8 120 0c35,0 59,6 73,18 14,12 21,28 21,47 0,20 -8,37 -25,53 -10,10 -28,19 -55,26l26 89c7,23 13,38 18,43 6,5 14,7 26,8l0 7 -90 0 -41 -142 -7 1c-1,0 -4,-1 -7,-1zm4 -13c5,1 9,1 12,1 21,0 38,-7 51,-22 13,-14 19,-33 19,-56 0,-14 -3,-24 -10,-31 -7,-7 -16,-11 -28,-11 -3,0 -6,0 -10,0l-34 119z"/>
   <path id="1" class="fil1" d="M3000 3629l-72 244c-4,12 -6,21 -6,24 0,4 2,7 4,11 3,3 6,6 9,7 3,1 12,2 28,3l-3 7 -146 0 2 -7c14,0 25,-2 30,-4 6,-2 11,-6 14,-10 4,-5 8,-16 13,-31l42 -145c7,-22 11,-34 11,-35 1,-4 1,-7 1,-11 0,-6 -2,-11 -6,-15 -4,-4 -9,-6 -17,-6 -3,0 -10,1 -21,2l-2 -8 110 -26 9 0z"/>
   <path class="fil1" d="M3901 1287l-26 88c-3,13 -5,22 -5,28 0,6 2,10 6,13 5,4 14,5 28,6l-3 7 -140 0 3 -7c14,0 24,-3 31,-9 6,-5 12,-17 18,-36l53 -187c3,-11 4,-19 4,-25 0,-6 -1,-10 -5,-13 -4,-3 -12,-5 -26,-6l2 -8 121 0c34,0 58,6 72,18 14,12 21,28 21,47 0,19 -8,37 -24,53 -11,10 -29,19 -55,26l26 89c6,23 13,38 18,43 5,5 14,7 26,8l0 7 -91 0 -40 -142 -7 1c-2,0 -4,-1 -7,-1zm3 -13c5,1 9,1 13,1 20,0 37,-7 50,-22 13,-14 20,-33 20,-56 0,-14 -4,-24 -11,-31 -7,-7 -16,-11 -28,-11 -2,0 -6,0 -10,0l-34 119z"/>
   <path id="1" class="fil1" d="M4224 1429l-155 0 0 -8c41,-37 74,-71 102,-102 23,-26 38,-46 43,-59 6,-14 9,-28 9,-42 0,-13 -4,-23 -12,-31 -8,-9 -18,-13 -31,-13 -20,0 -37,11 -51,33l-8 -3c8,-22 17,-38 29,-49 17,-15 36,-22 58,-22 21,0 38,6 51,19 14,13 20,27 20,44 0,15 -3,29 -9,44 -7,14 -20,32 -41,54 -16,16 -48,45 -96,86l56 0c18,0 31,-2 38,-6 7,-4 14,-12 20,-25l10 0 -33 80z"/>
   <path class="fil1" d="M7598 595l-22 93 -7 0c-1,-26 -8,-44 -19,-57 -12,-12 -27,-18 -45,-18 -20,0 -40,8 -60,25 -19,17 -36,43 -50,78 -11,28 -17,56 -17,83 0,25 6,44 19,56 12,13 29,20 50,20 17,0 33,-4 47,-11 14,-8 28,-20 43,-36l10 0c-18,26 -36,45 -54,55 -18,11 -40,16 -66,16 -35,0 -64,-10 -85,-31 -21,-22 -32,-49 -32,-83 0,-32 8,-63 25,-92 17,-29 42,-53 74,-71 32,-18 64,-27 95,-27 12,0 27,3 45,8 9,3 16,4 19,4 8,0 15,-4 22,-12l8 0z"/>
   <path id="1" class="fil1" d="M7771 596l-72 244c-4,13 -6,21 -6,25 0,3 1,7 4,10 3,4 6,6 9,8 3,1 12,2 27,2l-2 8 -147 0 3 -8c14,0 24,-1 30,-3 6,-2 10,-6 14,-11 4,-5 8,-15 12,-31l43 -144c7,-22 10,-34 11,-36 0,-3 1,-7 1,-10 0,-7 -2,-12 -6,-15 -4,-4 -10,-6 -17,-6 -3,0 -11,0 -21,2l-2 -8 110 -27 9 0z"/>
   <path class="fil1" d="M4039 2129l-22 92 -7 0c-1,-25 -7,-44 -19,-57 -11,-12 -26,-18 -45,-18 -20,0 -40,8 -59,25 -20,17 -37,43 -51,78 -11,28 -16,56 -16,83 0,25 6,44 18,57 12,13 29,19 50,19 17,0 33,-4 47,-11 14,-7 28,-19 43,-36l10 0c-18,26 -36,45 -54,56 -18,10 -40,16 -66,16 -35,0 -63,-11 -85,-32 -21,-21 -32,-49 -32,-83 0,-32 9,-63 26,-92 17,-29 41,-52 73,-70 32,-18 64,-27 96,-27 12,0 27,2 45,7 9,3 15,4 19,4 7,0 14,-4 21,-11l8 0z"/>
   <path id="1" class="fil1" d="M4171 2426l-154 0 0 -8c40,-37 74,-71 101,-102 24,-26 38,-46 44,-59 6,-14 9,-28 9,-42 0,-13 -4,-23 -12,-31 -9,-9 -19,-13 -31,-13 -20,0 -37,11 -51,33l-8 -4c7,-21 17,-37 29,-48 16,-15 36,-22 58,-22 20,0 37,6 51,19 13,12 20,27 20,44 0,15 -3,29 -10,43 -6,15 -20,33 -40,55 -16,16 -48,45 -96,86l56 0c18,0 31,-2 38,-6 7,-4 14,-12 20,-25l10 0 -34 80z"/>
   <path class="fil1" d="M7361 4927l-126 0 2 -7c9,-1 15,-4 19,-8 4,-4 6,-9 6,-15 0,-6 -2,-17 -7,-31l-31 -99 -30 106c-4,12 -5,21 -5,26 0,6 2,11 7,15 4,3 13,5 25,6l-2 7 -141 0 2 -7c12,-1 20,-2 26,-5 5,-3 10,-7 13,-13 3,-5 7,-17 12,-33l48 -169c6,-20 8,-32 8,-38 0,-5 -2,-9 -6,-12 -5,-4 -13,-6 -26,-6l2 -8 137 0 -2 8c-9,0 -16,1 -21,4 -6,4 -12,9 -16,16 -2,5 -6,16 -11,34l-20 69 76 -70c15,-13 23,-22 25,-24 2,-4 3,-8 3,-12 0,-4 -1,-8 -4,-11 -3,-3 -9,-5 -16,-6l2 -8 109 0 -2 8c-8,0 -15,2 -21,3 -7,3 -15,7 -24,12 -9,6 -18,12 -27,20l-20 18 -45 41 34 108c11,35 19,56 26,63 6,6 14,10 24,11l-3 7z"/>
   <path id="1" class="fil1" d="M7510 4785l-25 88c-4,13 -5,22 -5,28 0,5 2,10 6,13 5,3 14,5 28,6l-3 7 -140 0 3 -7c14,0 24,-3 30,-9 7,-5 13,-17 18,-37l54 -186c3,-11 4,-19 4,-25 0,-6 -2,-10 -5,-13 -4,-3 -13,-5 -26,-6l2 -8 120 0c35,0 59,6 73,18 14,12 21,28 21,46 0,20 -8,38 -25,54 -10,10 -28,19 -55,26l26 88c7,24 13,39 19,43 5,5 13,8 26,9l0 7 -91 0 -41 -142 -7 0c-1,0 -3,0 -7,0zm4 -13c5,0 9,1 12,1 21,0 38,-8 51,-22 13,-14 20,-33 20,-56 0,-14 -4,-24 -11,-31 -7,-8 -16,-11 -28,-11 -3,0 -6,0 -10,0l-34 119z"/>
   <path class="fil1" d="M2603 1320l-25 88c-4,13 -5,22 -5,28 0,5 2,10 6,13 5,3 14,5 28,6l-3 7 -140 0 3 -7c14,0 24,-3 30,-9 7,-5 13,-17 18,-36l54 -187c3,-11 4,-19 4,-25 0,-6 -2,-10 -5,-13 -4,-3 -13,-5 -26,-6l2 -8 120 0c35,0 59,6 73,18 14,12 21,28 21,47 0,19 -8,37 -25,53 -10,10 -28,19 -55,26l26 88c7,24 13,39 19,44 5,4 13,7 26,8l0 7 -91 0 -41 -142 -7 0c-1,0 -3,0 -7,0zm4 -13c5,1 9,1 12,1 21,0 38,-7 51,-22 13,-14 20,-33 20,-56 0,-14 -4,-24 -11,-31 -7,-7 -16,-11 -28,-11 -3,0 -6,0 -10,0l-34 119z"/>
   <path id="1" class="fil1" d="M2967 1166l-72 243c-4,13 -6,21 -6,25 0,3 2,7 4,11 3,3 6,6 9,7 3,1 12,2 28,3l-3 7 -146 0 2 -7c15,-1 25,-2 30,-4 6,-2 11,-6 15,-11 3,-5 7,-15 12,-31l43 -144c6,-22 10,-34 10,-35 1,-4 1,-8 1,-11 0,-6 -2,-11 -6,-15 -4,-4 -9,-6 -16,-6 -4,0 -11,1 -22,2l-2 -8 110 -26 9 0z"/>
   <path class="fil1" d="M3950 3800l-25 88c-4,12 -6,22 -6,28 0,5 2,9 7,13 4,3 13,5 27,5l-3 8 -139 0 2 -8c14,0 24,-3 31,-8 6,-5 12,-18 18,-37l53 -186c3,-11 5,-19 5,-25 0,-6 -2,-11 -6,-14 -4,-3 -12,-5 -26,-6l2 -7 121 0c34,0 59,6 73,18 14,12 21,27 21,46 0,20 -9,38 -25,54 -10,10 -29,19 -55,26l26 88c7,24 13,38 18,43 5,5 14,8 26,8l0 8 -90 0 -41 -142 -7 0c-2,0 -4,0 -7,0zm4 -13c4,0 9,0 12,0 20,0 37,-7 50,-21 14,-14 20,-33 20,-56 0,-14 -3,-25 -10,-32 -7,-7 -17,-10 -28,-10 -3,0 -6,0 -10,0l-34 119z"/>
   <path id="1" class="fil1" d="M4273 3942l-154 0 0 -8c40,-37 74,-71 101,-103 23,-25 38,-45 44,-59 6,-14 9,-27 9,-41 0,-13 -4,-24 -13,-32 -8,-8 -18,-12 -30,-12 -20,0 -37,11 -51,33l-8 -4c7,-21 17,-37 29,-48 16,-15 35,-23 57,-23 21,0 38,7 52,19 13,13 20,28 20,44 0,15 -4,30 -10,44 -7,14 -20,32 -41,54 -16,17 -47,45 -95,87l56 0c18,0 30,-2 37,-7 8,-4 14,-12 21,-24l10 0 -34 80z"/>
   <path class="fil1" d="M7926 5456l-21 92 -8 0c-1,-25 -7,-44 -19,-56 -11,-12 -26,-19 -45,-19 -20,0 -40,9 -59,26 -20,17 -37,42 -51,77 -11,28 -16,56 -16,84 0,24 6,43 18,56 12,13 29,20 50,20 17,0 33,-4 47,-11 14,-8 29,-20 43,-37l10 0c-18,27 -36,45 -54,56 -18,11 -40,16 -66,16 -35,0 -63,-10 -85,-32 -21,-21 -32,-49 -32,-83 0,-32 9,-62 26,-91 17,-29 41,-53 73,-71 32,-18 64,-27 96,-27 12,0 27,3 45,8 9,2 15,4 19,4 7,0 14,-4 22,-12l7 0z"/>
   <path id="1" class="fil1" d="M8099 5457l-72 244c-4,13 -6,21 -6,24 0,4 2,7 4,11 3,4 6,6 9,7 3,1 12,2 28,3l-3 8 -146 0 2 -8c15,0 25,-1 30,-3 6,-3 11,-6 15,-11 3,-5 7,-15 12,-31l43 -145c6,-22 10,-33 10,-35 1,-3 1,-7 1,-10 0,-7 -2,-12 -6,-16 -4,-3 -9,-5 -16,-5 -4,0 -11,0 -22,1l-2 -8 110 -26 9 0z"/>
   <path class="fil1" d="M4209 3147l-22 92 -7 0c-1,-26 -8,-44 -19,-57 -12,-12 -27,-18 -45,-18 -20,0 -40,8 -60,25 -19,17 -36,43 -50,78 -11,28 -17,56 -17,83 0,25 6,44 19,56 12,13 29,20 50,20 17,0 33,-4 47,-11 14,-8 28,-20 43,-36l10 0c-18,26 -36,45 -54,55 -18,11 -40,16 -66,16 -35,0 -64,-10 -85,-31 -21,-22 -32,-49 -32,-83 0,-32 8,-63 25,-92 18,-29 42,-53 74,-71 32,-17 64,-26 95,-26 12,0 27,2 45,7 10,3 16,4 19,4 8,0 15,-4 22,-11l8 0z"/>
   <path id="1" class="fil1" d="M4341 3444l-154 0 0 -8c40,-37 74,-71 101,-102 23,-26 38,-46 44,-60 6,-13 9,-27 9,-41 0,-13 -4,-24 -13,-32 -8,-8 -18,-12 -30,-12 -20,0 -37,11 -51,33l-8 -4c7,-21 17,-37 29,-48 16,-15 35,-23 57,-23 21,0 38,7 52,19 13,13 20,28 20,45 0,14 -3,29 -10,43 -7,15 -20,33 -41,54 -15,17 -47,46 -95,87l56 0c18,0 30,-2 37,-6 8,-4 14,-13 21,-25l10 0 -34 80z"/>
   <path class="fil1" d="M5412 3389l-26 88c-4,13 -5,22 -5,28 0,6 2,10 6,13 5,4 14,5 28,6l-3 7 -140 0 3 -7c14,0 24,-3 30,-9 7,-5 13,-17 18,-36l54 -187c3,-11 4,-19 4,-25 0,-6 -2,-10 -5,-13 -4,-3 -13,-5 -26,-6l2 -8 120 0c35,0 59,6 73,18 14,12 21,28 21,47 0,19 -8,37 -25,53 -10,10 -28,19 -55,26l26 89c7,23 13,38 19,43 5,5 13,7 26,8l0 7 -91 0 -41 -142 -7 0c-1,0 -3,0 -6,0zm3 -13c5,1 9,1 13,1 20,0 37,-7 50,-22 13,-14 20,-33 20,-56 0,-14 -4,-24 -11,-31 -7,-7 -16,-11 -28,-11 -3,0 -6,0 -10,0l-34 119z"/>
   <path class="fil1" d="M9918 3259l23 -243c1,-12 2,-20 2,-24 0,-7 -2,-12 -7,-16 -5,-5 -13,-7 -23,-7l-8 0 3 -8 114 0 -2 8c-13,0 -21,2 -26,4 -4,2 -8,7 -11,13 -1,3 -3,12 -4,27l-17 173 114 -155c12,-17 20,-28 23,-35 2,-4 3,-8 3,-12 0,-3 -2,-7 -5,-10 -3,-3 -9,-4 -18,-5l2 -8 87 0 -2 8c-7,1 -12,2 -17,4 -7,4 -15,10 -23,17 -8,8 -20,23 -37,46l-163 223 -8 0z"/>
   <path id="1" class="fil1" d="M10274 3134c13,0 26,3 36,9 11,6 19,14 25,26 6,12 9,24 9,36 0,23 -6,46 -19,70 -13,25 -30,44 -51,56 -21,13 -42,20 -64,20 -16,0 -30,-4 -41,-11 -10,-7 -18,-16 -24,-28 -5,-12 -7,-23 -7,-34 0,-19 4,-38 14,-57 9,-19 20,-35 33,-48 13,-13 27,-22 42,-29 14,-7 30,-10 47,-10zm-6 9c-10,0 -20,3 -30,8 -10,5 -19,13 -29,25 -10,11 -18,26 -26,45 -10,23 -14,44 -14,65 0,14 4,27 11,38 7,11 19,17 34,17 10,0 19,-2 28,-7 9,-4 18,-12 28,-24 12,-13 22,-31 31,-53 8,-22 12,-42 12,-61 0,-14 -4,-26 -11,-37 -8,-10 -19,-16 -34,-16z"/>
   <path id="2" class="fil1" d="M10525 3127l-53 184c-3,10 -5,17 -5,20 0,1 0,2 1,2 1,1 1,2 2,2 1,0 2,-1 3,-2 2,-2 6,-8 12,-18l5 3c-6,10 -12,18 -18,23 -6,6 -12,8 -17,8 -3,0 -6,-1 -8,-3 -2,-3 -3,-6 -3,-11 0,-5 2,-13 5,-23l5 -19c-16,23 -31,39 -44,47 -9,6 -18,9 -27,9 -8,0 -16,-3 -22,-10 -6,-7 -10,-16 -10,-28 0,-15 6,-31 16,-48 11,-18 25,-32 42,-42 13,-9 26,-13 37,-13 6,0 12,1 16,3 4,2 8,6 13,11l14 -50c2,-6 3,-11 4,-14 1,-4 2,-8 2,-10 0,-3 -1,-4 -2,-6 -2,-1 -5,-2 -9,-2 -2,0 -6,0 -11,1l0 -6 52 -8zm-59 110c0,-7 -2,-12 -6,-16 -4,-4 -10,-6 -16,-6 -14,0 -29,11 -44,32 -16,21 -23,42 -23,61 0,8 2,14 5,18 4,4 9,6 15,6 12,0 27,-12 44,-35 17,-23 25,-43 25,-60z"/>
   <g>
    <path class="fil1" d="M10884 2612l83 203 0 0 -5 -3 -6 -2 -5 -3 -5 -2 -6 -2 -5 -2 -5 -1 -6 -2 -5 -1 -6 -1 -5 -1 -5 -1 -6 -1 -5 0 -6 -1 -5 0 -5 0 -6 0 -5 1 -6 0 -5 1 -5 1 -6 1 -5 1 -6 1 -5 2 -6 1 -5 2 -5 2 -6 3 -5 2 -6 2 90 -200zm-26 1190l16 -1089 16 1 -16 1088 -16 0z"/>
   </g>
   <g>
    <path class="fil1" d="M3450 2121l0 -5c27,-4 47,-12 60,-24 10,-8 14,-19 14,-30 0,-9 -2,-16 -8,-22 -5,-6 -12,-9 -20,-9 -13,0 -24,8 -33,23l-6 -2c5,-12 13,-22 22,-29 9,-6 19,-10 30,-10 13,0 24,4 32,12 8,8 12,18 12,30 0,10 -4,20 -12,30 -7,9 -20,18 -39,25 12,5 20,12 26,21 6,9 9,19 9,32 0,14 -4,28 -12,42 -8,14 -19,25 -33,32 -14,8 -29,12 -44,12 -14,0 -25,-3 -32,-7 -5,-4 -7,-8 -7,-12 0,-4 1,-7 4,-10 3,-3 6,-4 10,-4 3,0 6,0 9,1 2,1 6,3 13,7 7,4 13,6 16,8 4,1 8,1 13,1 10,0 18,-5 24,-17 7,-12 10,-24 10,-37 0,-11 -2,-21 -6,-29 -5,-8 -12,-15 -21,-20 -10,-5 -20,-8 -31,-9z"/>
    <circle class="fil0 str1" cx="3481" cy="2131" r="172"/>
   </g>
   <g>
    <path class="fil1" d="M3482 3704l-43 149 27 0 -6 21 -27 0 -18 61 -24 0 17 -61 -82 0 7 -24 136 -146 13 0zm-37 43l-98 106 67 0 31 -106z"/>
    <circle class="fil0 str1" cx="3416" cy="3808" r="172"/>
   </g>
   <g>
    <path class="fil1" d="M5525 1390l76 0 -8 28 -68 0 -13 28c18,2 33,8 43,16 15,14 23,32 23,55 0,16 -3,30 -9,42 -5,13 -12,23 -21,32 -8,8 -17,15 -26,20 -13,7 -26,10 -39,10 -12,0 -21,-2 -27,-7 -5,-4 -7,-8 -7,-13 0,-4 2,-7 4,-10 3,-3 7,-4 11,-4 6,0 13,2 20,8 4,4 8,7 11,8 2,1 5,1 8,1 13,0 25,-6 35,-19 11,-12 16,-29 16,-49 0,-14 -3,-25 -8,-35 -6,-10 -13,-17 -22,-21 -9,-4 -20,-7 -35,-8l36 -82z"/>
    <circle class="fil0 str1" cx="5525" cy="1506" r="172"/>
   </g>
   <g>
    <path class="fil1" d="M9481 2273l113 0 0 5 -127 226 -14 -6 112 -199 -54 0c-15,0 -25,2 -31,4 -5,3 -11,9 -18,19l-7 0 26 -49z"/>
    <circle class="fil0 str1" cx="9524" cy="2388" r="172"/>
   </g>
   <g>
    <path class="fil1" d="M9535 4032c10,12 18,22 23,33 5,10 8,20 8,30 0,18 -7,34 -21,48 -14,13 -31,20 -51,20 -19,0 -33,-6 -45,-17 -11,-11 -17,-23 -17,-38 0,-13 5,-25 14,-37 9,-13 27,-24 53,-36 -10,-12 -17,-22 -21,-30 -3,-8 -5,-15 -5,-23 0,-15 6,-28 17,-38 11,-11 25,-16 42,-16 16,0 29,4 39,13 10,10 16,20 16,33 0,12 -5,23 -13,33 -8,10 -21,19 -39,25zm-7 -7c12,-4 21,-11 28,-20 7,-10 10,-20 10,-33 0,-11 -3,-20 -10,-26 -6,-7 -14,-10 -25,-10 -10,0 -18,3 -24,9 -6,6 -9,14 -9,24 0,8 1,15 5,21 4,9 13,21 25,35zm-23 17c-17,7 -29,17 -38,30 -8,13 -13,28 -13,43 0,12 4,22 12,29 7,7 17,11 29,11 13,0 24,-4 33,-13 8,-9 13,-20 13,-32 0,-10 -3,-19 -8,-30 -5,-10 -14,-23 -28,-38z"/>
    <circle class="fil0 str1" cx="9509" cy="4045" r="172"/>
   </g>
   <polyline class="fil0 str0" points="7667,5157 7617,5282 7515,5027 7413,5282 7312,5027 7210,5282 7109,5027 7058,5157 "/>
   <path class="fil0 str0" d="M7551 492l0 -492m-222 483c155,-166 153,-292 -2,-454"/>
   <polyline class="fil0 str1" points="7843,4231 7843,5166 7667,5166 "/>
   <polyline class="fil0 str1" points="6834,4693 6834,5166 7058,5166 "/>
   <g>
    <circle class="fil0 str1" cx="5568" cy="2455" r="172"/>
    <path class="fil1" d="M5647 2337l0 6c-19,5 -38,14 -56,29 -18,14 -33,32 -47,55 12,-5 22,-8 30,-8 14,0 26,5 36,16 10,10 15,24 15,41 0,27 -8,49 -26,68 -17,19 -35,28 -55,28 -18,0 -32,-6 -41,-20 -10,-13 -14,-28 -14,-46 0,-23 5,-45 16,-68 10,-22 24,-41 43,-57 18,-16 36,-28 56,-35 12,-5 26,-8 43,-9zm-111 104c-16,34 -24,62 -24,85 0,12 3,21 9,28 6,7 13,11 21,11 13,0 25,-10 36,-28 11,-19 17,-41 17,-65 0,-13 -3,-23 -10,-31 -6,-7 -14,-10 -23,-10 -4,0 -8,0 -12,2 -3,1 -8,4 -14,8z"/>
   </g>
   <g>
    <path class="fil2" d="M4400 2612l-8 29 -47 0c4,10 6,19 6,28 0,25 -11,47 -32,66 -21,19 -50,30 -87,32 -20,6 -34,13 -44,21 -4,3 -5,6 -5,9 0,4 1,8 5,11 3,3 11,6 25,9l54 13c31,7 50,15 60,25 9,10 14,21 14,34 0,15 -6,29 -17,41 -11,13 -28,23 -49,30 -22,7 -46,11 -72,11 -23,0 -44,-3 -63,-8 -19,-6 -33,-13 -41,-23 -8,-9 -12,-19 -12,-28 0,-8 2,-17 8,-25 5,-9 12,-16 20,-22 5,-3 19,-12 42,-25 -8,-7 -13,-14 -13,-22 0,-7 4,-15 11,-24 8,-8 23,-17 46,-27 -19,-4 -35,-13 -47,-26 -11,-13 -17,-28 -17,-44 0,-26 12,-50 35,-71 23,-21 54,-31 93,-31 14,0 26,1 34,4 10,3 18,7 27,13l74 0zm-95 44c0,-15 -4,-27 -13,-35 -9,-9 -20,-13 -34,-13 -22,0 -40,11 -54,32 -14,21 -21,43 -21,65 0,15 4,26 13,36 9,9 20,13 33,13 11,0 21,-2 30,-8 10,-5 18,-13 24,-22 7,-10 12,-22 16,-36 4,-15 6,-26 6,-32zm-136 191c-15,7 -26,16 -34,27 -8,11 -12,21 -12,32 0,12 6,22 17,30 16,12 40,18 71,18 26,0 49,-5 68,-14 19,-9 29,-21 29,-35 0,-7 -4,-14 -11,-21 -7,-6 -20,-12 -41,-16 -11,-2 -40,-9 -87,-21z"/>
    <circle class="fil0 str2" cx="4243" cy="2783" r="268"/>
   </g>
   <polyline class="fil0 str1" points="2402,4214 1913,4214 1907,2873 1901,1742 2402,1742 "/>
   <g>
    <ellipse class="fil0 str0" cx="475" cy="3440" rx="459" ry="462"/>
    <polygon class="fil1" points="388,3137 446,3137 446,3078 496,3078 496,3137 555,3137 555,3187 496,3187 496,3245 446,3245 446,3187 388,3187 "/>
    <polygon class="fil1" points="399,3737 560,3737 560,3771 399,3771 "/>
    <ellipse class="fil0 str0" cx="475" cy="3440" rx="459" ry="462"/>
    <polygon class="fil1" points="388,3137 446,3137 446,3078 496,3078 496,3137 555,3137 555,3187 496,3187 496,3245 446,3245 446,3187 388,3187 "/>
    <polygon class="fil1" points="399,3737 560,3737 560,3771 399,3771 "/>
   </g>
   <g>
    <path class="fil1" d="M2154 1269l-54 188c-3,11 -5,19 -5,24 0,4 2,7 4,9 3,2 10,4 20,5l-1 6 -86 0 2 -6c9,0 15,-1 18,-2 5,-2 8,-5 11,-8 3,-6 7,-15 11,-28l39 -135c2,-8 3,-13 3,-14 1,-2 1,-4 1,-6 0,-4 -1,-7 -3,-10 -2,-2 -5,-3 -9,-3 -3,0 -7,1 -13,2l-3 -6 57 -16 8 0z"/>
    <circle class="fil0 str1" cx="2093" cy="1385" r="172"/>
   </g>
   <g>
    <path class="fil1" d="M2399 4619l-120 0 0 -6c31,-29 58,-56 79,-80 18,-20 30,-36 34,-47 5,-10 7,-21 7,-32 0,-10 -3,-18 -9,-25 -7,-6 -15,-9 -24,-9 -16,0 -29,8 -40,25l-6 -2c5,-17 13,-29 22,-38 13,-12 28,-18 45,-18 17,0 30,5 40,15 11,10 16,22 16,35 0,11 -2,22 -8,34 -5,11 -15,25 -31,42 -13,13 -38,35 -75,68l44 0c14,0 24,-2 29,-5 6,-3 11,-10 16,-19l8 0 -27 62z"/>
    <circle class="fil0 str1" cx="2361" cy="4503" r="172"/>
   </g>
   <g>
    <path class="fil1" d="M1906 1800l-3 -1 -3 0 -2 0 -3 -1 -3 0 -3 -1 -3 -1 -2 -1 -3 -1 -2 -1 -3 -2 -2 -1 -2 -2 -2 -2 -2 -1 -2 -2 -2 -2 -2 -2 -2 -3 -1 -2 -2 -2 -1 -3 -2 -2 -1 -3 -1 -2 -1 -3 -1 -3 0 -2 -1 -3 0 -3 0 -3 0 -3 0 0 0 -3 0 -3 0 -3 1 -3 0 -2 1 -3 1 -3 1 -2 1 -3 2 -2 1 -3 2 -2 1 -2 2 -3 2 -2 2 -2 2 -2 2 -1 2 -2 2 -2 2 -1 3 -2 2 -1 3 -1 2 -1 3 -1 3 -1 3 0 3 -1 2 0 3 -1 3 0 0 0 3 0 3 1 3 0 3 1 3 0 2 1 3 1 3 1 2 1 3 1 2 2 2 1 3 2 2 2 2 1 2 2 2 2 2 2 1 3 2 2 1 2 2 3 1 2 1 3 1 2 1 3 1 3 1 2 0 3 1 3 0 3 0 3 0 0 0 3 0 3 -1 3 0 3 -1 2 -1 3 -1 3 -1 2 -1 3 -1 2 -2 3 -1 2 -2 2 -1 3 -2 2 -2 2 -2 2 -2 1 -2 2 -3 2 -2 1 -2 2 -3 1 -2 1 -3 1 -3 1 -2 1 -3 0 -3 1 -3 0 -3 0 -3 1 0 0zm-1434 -66l1434 0 0 16 -1434 0 -8 -8 8 -8zm-8 8l0 -8 8 0 -8 8zm0 1236l0 -1236 16 0 0 1236 -16 0z"/>
   </g>
   <g>
    <path class="fil1" d="M467 4561l0 -659 16 0 0 659 -16 0zm-114 0l0 -14 244 0 0 28 -244 0 0 -14z"/>
   </g>
   <path class="fil1" d="M1106 3618l31 -315c1,-16 2,-27 2,-32 0,-9 -3,-16 -9,-21 -6,-6 -16,-9 -30,-9l-10 0 3 -10 149 0 -3 10c-16,0 -27,2 -33,5 -6,3 -11,9 -14,17 -2,4 -4,15 -6,35l-22 226 148 -202c16,-22 26,-37 30,-46 3,-5 4,-11 4,-15 0,-5 -2,-9 -6,-13 -4,-4 -12,-6 -24,-7l3 -10 114 0 -3 10c-9,1 -17,3 -22,6 -10,4 -20,12 -30,22 -11,9 -27,29 -49,59l-213 290 -10 0z"/>
   <path id="1" class="fil1" d="M1523 3687c-14,16 -27,28 -41,36 -14,7 -28,11 -44,11 -18,0 -33,-5 -43,-15 -11,-11 -16,-25 -16,-42 0,-20 6,-40 17,-59 11,-19 26,-35 45,-47 19,-12 37,-18 55,-18 15,0 25,3 32,9 7,6 11,13 11,22 0,8 -3,15 -8,20 -3,5 -8,7 -13,7 -4,0 -7,-1 -10,-4 -3,-3 -4,-6 -4,-10 0,-2 0,-4 1,-7 1,-2 3,-4 6,-7 4,-3 5,-5 6,-6 1,-2 1,-3 1,-5 0,-2 -1,-5 -4,-6 -4,-3 -9,-4 -16,-4 -13,0 -26,4 -38,13 -13,9 -24,22 -33,38 -10,20 -16,40 -16,60 0,14 4,24 12,32 7,8 18,12 31,12 10,0 20,-3 30,-8 10,-5 21,-14 33,-27l6 5z"/>
  </g>
 </g>
</svg>
