<?xml version="1.0" encoding="UTF-8"?>
<!DOCTYPE svg PUBLIC "-//W3C//DTD SVG 1.1//EN" "http://www.w3.org/Graphics/SVG/1.1/DTD/svg11.dtd">
<!-- Creator: CorelDRAW Home & Student X8 -->
<svg xmlns="http://www.w3.org/2000/svg" xml:space="preserve" width="117.531mm" height="86.8325mm" version="1.1" style="shape-rendering:geometricPrecision; text-rendering:geometricPrecision; image-rendering:optimizeQuality; fill-rule:evenodd; clip-rule:evenodd"
viewBox="0 0 9250 6834"
 xmlns:xlink="http://www.w3.org/1999/xlink">
 <defs>
  <style type="text/css">
   <![CDATA[
    .str0 {stroke:#2B2A29;stroke-width:31.4825}
    .str1 {stroke:#2B2A29;stroke-width:15.7413}
    .str2 {stroke:#E31E24;stroke-width:15.7413}
    .fil0 {fill:none}
    .fil1 {fill:#2B2A29;fill-rule:nonzero}
    .fil2 {fill:#E31E24;fill-rule:nonzero}
   ]]>
  </style>
 </defs>
 <g id="Warstwa_x0020_1">
  <metadata id="CorelCorpID_0Corel-Layer"/>
  <g id="_697964256">
   <polygon class="fil0 str0" points="4290,1184 4290,5033 8127,3121 "/>
   <polyline class="fil0 str0" points="1545,1690 1496,1812 1397,1564 1299,1812 1200,1564 1101,1812 1002,1564 953,1690 "/>
   <polyline class="fil0 str0" points="2845,1690 2795,1812 2696,1564 2598,1812 2499,1564 2400,1812 2302,1564 2252,1690 "/>
   <polyline class="fil0 str0" points="2845,4092 2795,4214 2696,3967 2598,4214 2499,3967 2400,4214 2302,3967 2252,4093 "/>
   <polyline class="fil0 str0" points="1545,4092 1496,4214 1397,3967 1299,4214 1200,3967 1101,4214 1002,3967 953,4093 "/>
   <polyline class="fil0 str0" points="3825,4358 3703,4308 3951,4209 3703,4111 3951,4012 3703,3913 3951,3815 3825,3765 "/>
   <path class="fil0 str0" d="M2834 2008l477 0m-469 217c161,-151 284,-150 441,1"/>
   <path class="fil0 str0" d="M3311 3745l-478 0m470 -216c-161,151 -284,149 -441,-2"/>
   <ellipse class="fil0 str0" cx="461" cy="2876" rx="446" ry="449"/>
   <polygon class="fil1" points="4581,1650 4638,1650 4638,1593 4686,1593 4686,1650 4743,1650 4743,1699 4686,1699 4686,1755 4638,1755 4638,1699 4581,1699 "/>
   <polygon class="fil1" points="6616,2594 6673,2594 6673,2537 6721,2537 6721,2594 6778,2594 6778,2642 6721,2642 6721,2699 6673,2699 6673,2642 6616,2642 "/>
   <polygon class="fil1" points="5182,4188 5239,4188 5239,4130 5287,4130 5287,4188 5344,4188 5344,4236 5287,4236 5287,4293 5239,4293 5239,4236 5182,4236 "/>
   <polygon class="fil1" points="4581,3575 4638,3575 4638,3517 4686,3517 4686,3575 4743,3575 4743,3623 4686,3623 4686,3680 4638,3680 4638,3623 4581,3623 "/>
   <polygon class="fil1" points="377,2582 434,2582 434,2525 482,2525 482,2582 539,2582 539,2630 482,2630 482,2687 434,2687 434,2630 377,2630 "/>
   <polygon class="fil1" points="388,3165 544,3165 544,3198 388,3198 "/>
   <polygon class="fil1" points="4580,2613 4736,2613 4736,2646 4580,2646 "/>
   <polygon class="fil1" points="6639,3582 6795,3582 6795,3615 6639,3615 "/>
   <polygon class="fil1" points="8453,3827 8609,3827 8609,3860 8453,3860 "/>
   <polyline class="fil0 str1" points="7195,2630 8151,2630 8151,240 5920,240 "/>
   <g>
    <path class="fil1" d="M1925 245l3848 0 0 15 -3848 0 -8 -7 8 -8zm-8 8l0 -8 8 0 -8 8zm0 1421l0 -1421 16 0 0 1421 -16 0zm64 0l0 0 0 3 -1 3 0 3 0 3 -1 2 -1 3 -1 3 -1 2 -1 3 -1 2 -1 2 -2 3 -1 2 -2 2 -2 2 -2 2 -2 2 -2 2 -2 1 -2 2 -2 1 -3 2 -2 1 -3 1 -2 1 -3 1 -2 1 -3 0 -3 1 -3 0 -2 0 -3 0 0 0 -3 0 -3 0 -3 0 -3 -1 -2 0 -3 -1 -3 -1 -2 -1 -3 -1 -2 -1 -2 -2 -3 -1 -2 -2 -2 -1 -2 -2 -2 -2 -2 -2 -1 -2 -2 -2 -2 -2 -1 -3 -2 -2 -1 -2 -1 -3 -1 -2 -1 -3 -1 -3 0 -2 -1 -3 0 -3 0 -3 0 -3 0 0 0 -2 0 -3 0 -3 1 -3 0 -3 1 -2 1 -3 1 -2 1 -3 1 -2 2 -3 1 -2 2 -2 2 -2 1 -2 2 -2 2 -2 2 -2 2 -1 2 -2 3 -1 2 -2 2 -1 3 -1 2 -1 3 -1 3 -1 2 0 3 -1 3 0 3 0 3 -1 0 0 3 1 2 0 3 0 3 1 3 0 2 1 3 1 2 1 3 1 2 1 3 2 2 1 2 2 2 1 2 2 2 2 2 2 2 2 2 2 1 2 2 2 1 3 1 2 1 3 1 2 1 3 1 2 1 3 0 3 0 3 1 3 0 2z"/>
   </g>
   <line class="fil0 str1" x1="3072" y1="2117" x2="3072" y2= "2851" />
   <line class="fil0 str1" x1="4266" y1="1662" x2="2844" y2= "1662" />
   <g>
    <path class="fil1" d="M3153 1687l0 3 0 2 0 3 -1 3 0 3 -1 2 -1 3 -1 2 -1 3 -1 2 -2 3 -1 2 -2 2 -1 2 -2 2 -2 2 -2 2 -2 2 -2 1 -2 2 -3 1 -2 2 -2 1 -3 1 -2 1 -3 1 -3 1 -2 0 -3 1 -3 0 -3 1 -3 0 0 0 -2 0 -3 -1 -3 0 -3 -1 -3 0 -2 -1 -3 -1 -2 -1 -3 -1 -2 -1 -3 -2 -2 -1 -2 -2 -2 -1 -2 -2 -2 -2 -2 -2 -2 -2 -1 -2 -2 -2 -1 -2 -2 -3 -1 -2 -1 -3 -1 -2 -1 -3 -1 -2 0 -3 -1 -3 0 -3 0 -2 -1 -3 0 0 1 -3 0 -3 0 -3 1 -3 0 -2 1 -3 1 -3 1 -2 1 -3 1 -2 2 -2 1 -3 2 -2 1 -2 2 -2 2 -2 2 -2 2 -2 2 -1 2 -2 2 -1 3 -2 2 -1 3 -1 2 -1 3 -1 2 -1 3 0 3 -1 3 0 3 0 2 0 0 0 3 0 3 0 3 0 3 1 2 0 3 1 3 1 2 1 3 1 2 1 2 2 3 1 2 2 2 1 2 2 2 2 2 2 2 2 1 2 2 2 1 3 2 2 1 2 1 3 1 2 1 3 1 3 0 2 1 3 0 3 0 3 0 3 0 0zm-63 319l0 -319 15 0 0 319 -15 0z"/>
   </g>
   <path class="fil0 str0" d="M5931 478l0 -478m-217 469c151,-161 150,-283 -1,-441"/>
   <path class="fil0 str0" d="M5894 6832l0 -478m-217 470c151,-162 150,-284 -1,-442"/>
   <polygon class="fil1" points="8417,2398 8474,2398 8474,2341 8522,2341 8522,2398 8580,2398 8580,2446 8522,2446 8522,2503 8474,2503 8474,2446 8417,2446 "/>
   <line class="fil0 str1" x1="2252" y1="1690" x2="1545" y2= "1690" />
   <polyline class="fil0 str1" points="953,1690 466,1690 466,2427 "/>
   <polygon class="fil1" points="6124,3827 6280,3827 6280,3860 6124,3860 "/>
   <polygon class="fil1" points="4592,4525 4748,4525 4748,4558 4592,4558 "/>
   <g>
    <path class="fil1" d="M3005 4064l0 -2 0 -3 0 -3 1 -3 0 -3 1 -2 1 -3 1 -2 1 -3 1 -2 2 -3 1 -2 2 -2 1 -2 2 -2 2 -2 2 -2 2 -2 2 -1 2 -2 3 -1 2 -2 2 -1 3 -1 2 -1 3 -1 3 -1 2 0 3 -1 3 0 3 0 3 -1 0 0 3 1 2 0 3 0 3 1 3 0 2 1 3 1 2 1 3 1 2 1 3 2 2 1 2 2 2 1 2 2 2 2 2 2 2 2 1 2 2 2 2 2 1 3 1 2 1 3 1 2 1 3 1 2 0 3 1 3 0 3 1 3 0 2 0 0 0 3 -1 3 0 3 -1 3 0 2 -1 3 -1 3 -1 2 -1 3 -1 2 -1 2 -2 3 -2 2 -1 2 -2 2 -2 2 -2 2 -2 2 -2 1 -2 2 -2 1 -3 2 -2 1 -3 1 -2 1 -3 1 -2 1 -3 0 -3 1 -3 0 -2 0 -3 0 0 0 -3 0 -3 0 -3 0 -3 -1 -2 0 -3 -1 -3 -1 -2 -1 -3 -1 -2 -1 -2 -2 -3 -1 -2 -2 -2 -1 -2 -2 -2 -2 -2 -2 -2 -2 -1 -2 -2 -2 -1 -3 -2 -2 -1 -2 -1 -3 -1 -2 -1 -3 -1 -3 0 -2 -1 -3 0 -3 0 -3 0 -3 0 0zm64 -282l0 282 -16 0 0 -282 16 0z"/>
   </g>
   <polyline class="fil0 str1" points="3072,3636 3072,2888 3072,2117 "/>
   <polyline class="fil0 str1" points="2845,4064 3512,4064 3512,2659 4290,2659 "/>
   <line class="fil0 str1" x1="2252" y1="4093" x2="1545" y2= "4093" />
   <polyline class="fil0 str1" points="953,4093 478,4093 478,3325 "/>
   <polyline class="fil0 str1" points="4327,3611 3824,3611 3824,3765 "/>
   <polyline class="fil0 str1" points="4279,4555 3837,4555 3837,4357 "/>
   <line class="fil0 str1" x1="6215" y1="4112" x2="6215" y2= "5020" />
   <line class="fil0 str1" x1="5234" y1="4561" x2="5234" y2= "5020" />
   <polyline class="fil0 str1" points="7195,3633 8127,3633 8127,6582 5933,6582 "/>
   <g>
    <path class="fil1" d="M1888 6585l3897 0 0 16 -3897 0 -8 -8 8 -8zm0 16l-8 0 0 -8 8 8zm8 -2508l0 2500 -16 0 0 -2500 16 0zm-64 0l0 0 0 -3 0 -3 0 -3 1 -3 1 -2 0 -3 1 -3 1 -2 1 -3 2 -2 1 -2 1 -3 2 -2 2 -2 1 -2 2 -2 2 -2 2 -1 2 -2 2 -2 3 -1 2 -2 3 -1 2 -1 3 -1 2 -1 3 -1 2 0 3 -1 3 0 3 0 3 0 0 0 3 0 2 0 3 0 3 1 3 0 2 1 3 1 3 1 2 1 2 1 3 2 2 1 2 2 2 2 2 1 2 2 2 2 2 2 2 2 1 2 2 3 1 2 1 2 1 3 1 2 1 3 1 3 1 2 0 3 0 3 1 3 0 3 0 0 0 3 -1 2 0 3 0 3 -1 3 -1 2 -1 3 -1 2 -1 3 -1 2 -1 3 -2 2 -1 2 -2 2 -2 2 -2 2 -2 2 -2 2 -2 1 -2 2 -2 2 -3 1 -2 1 -2 1 -3 1 -3 1 -2 1 -3 1 -3 0 -3 0 -2 1 -3 0 0 0 -3 0 -3 -1 -3 0 -3 0 -2 -1 -3 -1 -2 -1 -3 -1 -2 -1 -3 -1 -2 -1 -3 -2 -2 -2 -2 -1 -2 -2 -2 -2 -2 -2 -1 -2 -2 -2 -2 -2 -1 -2 -1 -3 -2 -2 -1 -3 -1 -2 -1 -3 0 -2 -1 -3 -1 -3 0 -3 0 -2 0 -3z"/>
   </g>
   <path class="fil1" d="M4839 3996l77 116c13,20 22,32 28,36 5,4 12,6 19,7l0 7 -138 0 0 -7c11,-1 18,-2 22,-5 3,-2 4,-5 4,-9 0,-3 0,-5 -1,-7 -2,-4 -7,-12 -15,-23l-41 -61 -43 52c-13,16 -19,27 -19,33 0,4 2,8 5,11 3,4 8,6 15,8 3,1 9,1 18,1l0 7 -109 0 0 -7c13,-2 22,-5 29,-10 10,-6 23,-20 39,-40l56 -68 -72 -106c-11,-18 -18,-28 -20,-30 -3,-4 -7,-8 -11,-10 -3,-1 -8,-3 -15,-4l0 -7 140 0 0 7 -7 0c-8,0 -14,1 -17,4 -3,3 -5,6 -5,10 0,3 1,6 2,8l14 22 36 52 29 -35c15,-19 23,-33 23,-40 0,-4 -1,-7 -3,-11 -3,-3 -6,-5 -10,-7 -4,-2 -10,-3 -18,-3l0 -7 103 0 0 7c-8,0 -14,1 -19,3 -5,2 -11,6 -16,11 -4,3 -13,14 -27,31l-53 64z"/>
   <path class="fil1" d="M4937 2054l0 7c-10,1 -17,4 -22,8 -7,6 -18,22 -33,48l-61 103 0 68c0,15 1,24 2,27 2,4 5,7 9,10 5,3 11,4 18,4l16 0 0 7 -158 0 0 -7 15 0c8,0 15,-1 19,-4 4,-2 7,-6 9,-10 1,-4 2,-13 2,-27l0 -57 -66 -121c-14,-24 -23,-38 -28,-43 -6,-4 -13,-6 -22,-6l0 -7 135 0 0 7 -6 0c-8,0 -14,1 -17,3 -3,3 -5,5 -5,8 0,5 6,18 17,38l51 94 51 -85c13,-21 19,-35 19,-42 0,-4 -2,-7 -5,-10 -5,-3 -14,-5 -26,-6l0 -7 86 0z"/>
   <path class="fil1" d="M5850 3659l-166 267 53 0c26,0 44,-2 54,-5 16,-5 30,-14 42,-27 12,-14 20,-32 25,-54l8 0 -11 102 -259 0 167 -267 -42 0c-17,0 -27,0 -32,1 -10,2 -19,5 -28,11 -8,5 -15,12 -21,21 -6,9 -10,20 -13,34l-8 0 8 -83 223 0z"/>
   <path class="fil1" d="M6895 2961l0 7c-6,0 -10,2 -14,4 -3,3 -7,7 -9,12 -1,2 -6,13 -13,33l-89 233 -7 0 -70 -184 -78 184 -7 0 -93 -231c-10,-23 -16,-38 -20,-43 -4,-4 -10,-7 -19,-8l0 -7 122 0 0 7c-10,0 -16,2 -19,4 -4,3 -5,6 -5,11 0,5 3,16 10,33l55 138 45 -109 -11 -29c-7,-16 -11,-27 -15,-33 -3,-5 -7,-9 -12,-12 -4,-2 -11,-3 -20,-3l0 -7 136 0 0 7c-10,0 -16,1 -21,2 -3,1 -5,3 -6,5 -2,2 -3,5 -3,8 0,3 3,13 9,30l52 133 46 -121c5,-12 8,-21 9,-25 1,-5 1,-9 1,-13 0,-6 -2,-10 -6,-14 -3,-3 -11,-5 -22,-5l0 -7 74 0z"/>
   <path class="fil1" d="M1047 3677l-24 85c-4,13 -6,22 -6,27 0,6 3,10 7,13 4,4 13,5 27,6l-3 7 -136 0 2 -7c14,0 24,-3 30,-8 7,-6 12,-18 18,-36l52 -182c3,-10 4,-18 4,-24 0,-5 -2,-10 -5,-13 -4,-3 -12,-5 -26,-6l3 -7 117 0c33,0 57,6 70,18 14,11 21,26 21,45 0,19 -8,36 -24,52 -10,10 -28,18 -54,25l25 86c7,23 13,37 18,42 5,5 14,7 25,8l0 7 -87 0 -40 -138 -7 0c-1,0 -4,0 -7,0zm4 -13c5,1 9,1 12,1 20,0 36,-7 49,-21 13,-14 19,-32 19,-55 0,-13 -3,-23 -10,-30 -7,-7 -16,-11 -27,-11 -3,0 -6,0 -10,1l-33 115z"/>
   <path id="1" class="fil1" d="M1401 3527l-70 237c-4,12 -6,20 -6,23 0,4 2,7 4,11 3,3 6,6 9,7 3,1 12,2 27,3l-3 7 -142 0 2 -7c14,-1 24,-2 30,-4 5,-2 10,-5 13,-10 4,-5 8,-15 12,-30l42 -141c6,-21 10,-33 10,-34 1,-4 1,-7 1,-10 0,-7 -2,-12 -6,-15 -3,-4 -9,-6 -16,-6 -4,0 -10,1 -21,2l-2 -8 107 -25 9 0z"/>
   <path id="2" class="fil1" d="M1564 3526l-37 125c10,-12 19,-20 26,-23 7,-4 14,-6 22,-6 16,0 28,6 36,18 8,12 12,26 12,41 0,38 -14,71 -40,100 -24,26 -51,39 -81,39 -22,0 -46,-6 -71,-19l64 -220c3,-10 5,-18 6,-22 0,-3 -2,-6 -5,-8 -4,-3 -11,-5 -19,-4l2 -9 72 -12 13 0zm-82 276c6,4 12,6 17,6 7,0 13,-1 18,-4 7,-5 15,-13 23,-26 9,-12 15,-27 21,-44 6,-18 8,-35 8,-53 0,-10 -2,-17 -6,-22 -4,-5 -9,-8 -14,-8 -9,0 -17,5 -24,15 -4,6 -9,20 -15,40l-28 96z"/>
   <path class="fil1" d="M2276 1251l-24 86c-4,12 -6,21 -6,27 0,5 2,9 7,13 4,3 13,4 27,5l-3 7 -136 0 2 -7c14,0 24,-3 30,-8 6,-6 12,-18 18,-36l52 -181c2,-11 4,-19 4,-25 0,-5 -2,-10 -6,-12 -3,-3 -12,-5 -25,-6l2 -8 117 0c34,0 58,6 71,18 14,12 21,26 21,45 0,19 -8,36 -24,52 -10,10 -28,18 -54,25l25 86c7,23 13,37 18,42 5,5 14,7 25,8l0 7 -88 0 -39 -138 -7 0c-2,0 -4,0 -7,0zm4 -12c5,0 9,0 12,0 20,0 36,-7 49,-21 13,-14 19,-32 19,-55 0,-13 -3,-23 -10,-30 -7,-7 -16,-10 -27,-10 -3,0 -6,0 -10,0l-33 116z"/>
   <path id="1" class="fil1" d="M2590 1389l-150 0 0 -8c39,-36 72,-69 99,-99 22,-25 36,-45 42,-58 6,-13 9,-26 9,-40 0,-13 -4,-23 -12,-31 -8,-8 -18,-12 -30,-12 -19,0 -36,11 -50,32l-7 -3c7,-21 16,-36 28,-47 16,-15 35,-22 56,-22 20,0 37,6 50,18 13,13 19,27 19,43 0,15 -3,29 -9,43 -7,14 -20,31 -40,52 -15,16 -46,44 -93,84l55 0c17,0 29,-2 37,-6 6,-4 13,-12 19,-24l10 0 -33 78z"/>
   <path id="2" class="fil1" d="M2857 1199l-41 138 -4 17c-1,2 -1,4 -1,5 0,1 1,3 2,4 1,1 2,2 3,2 3,0 7,-2 12,-7 2,-2 7,-8 15,-19l7 4c-10,18 -20,31 -31,39 -11,8 -23,13 -36,13 -8,0 -14,-2 -18,-6 -4,-5 -6,-10 -6,-16 0,-5 2,-15 6,-30l5 -17c-16,28 -31,47 -46,59 -9,6 -18,10 -28,10 -12,0 -22,-6 -27,-16 -6,-11 -9,-22 -9,-36 0,-19 6,-42 18,-67 12,-25 28,-46 47,-61 17,-13 32,-19 46,-19 8,0 14,2 19,7 4,4 8,12 10,24l8 -25 49 -3zm-67 40c0,-12 -2,-20 -5,-25 -3,-3 -6,-5 -11,-5 -4,0 -8,2 -13,6 -9,9 -20,26 -30,53 -11,26 -17,48 -17,67 0,8 2,13 4,16 2,4 5,5 8,5 6,0 13,-3 19,-11 9,-10 18,-22 25,-37 13,-26 20,-49 20,-69z"/>
   <path class="fil1" d="M5869 579l-21 89 -7 0c-1,-24 -7,-43 -18,-55 -11,-12 -26,-18 -44,-18 -19,0 -39,9 -58,25 -19,16 -35,42 -49,75 -11,28 -16,55 -16,82 0,24 6,42 18,54 12,13 28,19 49,19 16,0 31,-3 45,-11 14,-7 28,-18 42,-35l10 0c-18,26 -35,44 -53,55 -17,10 -39,15 -64,15 -34,0 -62,-10 -82,-31 -21,-20 -31,-47 -31,-81 0,-31 8,-60 24,-89 17,-28 41,-51 72,-68 31,-18 62,-26 93,-26 11,0 26,2 43,7 9,2 15,4 19,4 7,0 14,-4 21,-11l7 0z"/>
   <path id="1" class="fil1" d="M6037 580l-70 237c-3,12 -5,20 -5,23 0,4 1,7 4,11 2,3 5,6 8,7 3,1 12,2 27,3l-2 7 -143 0 2 -7c15,-1 25,-2 30,-4 6,-2 10,-6 14,-10 3,-5 7,-15 12,-30l41 -141c7,-21 10,-33 10,-34 1,-4 2,-7 2,-10 0,-7 -2,-12 -6,-15 -4,-4 -9,-6 -17,-6 -3,0 -10,1 -20,2l-2 -8 107 -25 8 0z"/>
   <path id="2" class="fil1" d="M6264 678l-40 138 -5 17c0,2 0,3 0,4 0,2 0,3 1,5 2,1 3,2 4,2 3,0 7,-3 12,-7 2,-2 7,-8 15,-19l7 4c-10,18 -20,31 -32,39 -11,8 -23,12 -36,12 -7,0 -13,-2 -18,-6 -4,-4 -6,-9 -6,-15 0,-5 2,-15 7,-30l5 -17c-16,28 -32,47 -46,58 -9,7 -18,10 -28,10 -13,0 -22,-5 -28,-15 -5,-11 -8,-23 -8,-36 0,-19 6,-42 18,-67 12,-25 28,-46 47,-61 16,-13 31,-19 45,-19 8,0 14,2 19,6 5,5 8,13 11,25l7 -25 49 -3zm-66 39c0,-11 -2,-19 -6,-24 -2,-3 -6,-5 -10,-5 -4,0 -9,2 -13,6 -10,9 -20,26 -31,52 -11,26 -16,49 -16,68 0,8 1,13 4,16 2,3 5,5 8,5 6,0 12,-4 19,-11 9,-10 17,-23 25,-37 13,-26 20,-49 20,-70z"/>
   <path class="fil1" d="M2304 2069l-21 89 -7 0c-1,-24 -7,-42 -18,-54 -12,-12 -26,-18 -44,-18 -19,0 -39,8 -58,24 -19,17 -36,42 -49,76 -11,27 -16,54 -16,81 0,24 6,42 18,55 12,12 28,18 48,18 17,0 32,-3 46,-10 14,-8 28,-19 42,-36l10 0c-18,26 -35,44 -53,55 -17,10 -39,15 -64,15 -34,0 -62,-10 -82,-31 -21,-20 -32,-47 -32,-80 0,-32 9,-61 25,-89 17,-29 41,-52 72,-69 31,-17 62,-26 93,-26 11,0 26,2 43,7 9,3 15,4 19,4 7,0 14,-4 21,-11l7 0z"/>
   <path id="1" class="fil1" d="M2433 2358l-150 0 0 -8c39,-36 72,-69 98,-99 23,-25 37,-45 43,-58 5,-13 8,-27 8,-40 0,-13 -4,-23 -12,-31 -8,-8 -18,-12 -29,-12 -20,0 -36,11 -50,32l-8 -3c7,-21 17,-37 28,-47 16,-15 35,-22 57,-22 20,0 36,6 49,18 13,13 20,27 20,43 0,14 -3,29 -10,43 -6,14 -19,31 -39,52 -16,16 -47,44 -93,84l54 0c18,0 30,-2 37,-6 7,-4 14,-12 20,-24l9 0 -32 78z"/>
   <path id="2" class="fil1" d="M2699 2168l-41 138 -4 17c0,2 0,4 0,5 0,1 0,3 1,4 1,1 3,2 4,2 3,0 7,-2 12,-7 2,-2 7,-8 14,-19l8 4c-10,18 -21,31 -32,39 -11,8 -23,12 -36,12 -8,0 -14,-2 -18,-6 -4,-4 -6,-9 -6,-15 0,-5 2,-15 7,-30l5 -17c-16,28 -32,47 -47,59 -8,6 -17,9 -27,9 -13,0 -22,-5 -28,-15 -5,-11 -8,-23 -8,-36 0,-19 6,-42 18,-67 12,-25 27,-46 47,-61 16,-13 31,-19 45,-19 8,0 14,2 19,7 5,4 8,12 11,24l7 -25 49 -3zm-66 39c0,-11 -2,-19 -6,-24 -2,-3 -6,-5 -10,-5 -4,0 -9,2 -13,6 -10,9 -20,26 -31,52 -11,27 -16,49 -16,68 0,8 1,13 4,16 2,3 5,5 8,5 6,0 12,-4 19,-11 9,-10 17,-22 25,-37 13,-26 20,-49 20,-70z"/>
   <path class="fil1" d="M4479 5151l-57 197 47 -44 15 -14c5,-5 8,-9 10,-12 1,-2 1,-4 1,-6 0,-3 -1,-5 -4,-7 -3,-2 -9,-3 -19,-4l1 -8 85 0 -1 8c-10,3 -19,5 -25,8 -5,3 -11,7 -18,12 -10,8 -18,14 -23,19l-9 8 13 57c5,21 8,34 11,37 1,2 3,3 5,3 5,0 11,-6 17,-18 1,-1 3,-4 4,-6l8 5c-10,20 -22,36 -35,46 -9,8 -17,11 -24,11 -7,0 -13,-2 -18,-7 -4,-5 -9,-19 -14,-40l-10 -48 -23 21 -20 71 -54 0 69 -235c3,-10 4,-17 4,-20 0,-3 0,-6 -2,-8 -1,-2 -2,-3 -4,-4 -2,-1 -7,-2 -13,-2l2 -7 69 -13 12 0z"/>
   <path id="1" class="fil1" d="M4661 5315l0 181c0,13 1,22 2,26 1,3 4,7 8,9 3,2 10,4 18,4l5 0 0 5 -116 0 0 -5 6 0c9,0 16,-2 20,-4 4,-2 6,-5 8,-9 1,-4 2,-12 2,-26l0 -115c0,-10 0,-17 -1,-19 -1,-3 -3,-5 -6,-7 -3,-2 -6,-3 -9,-3 -6,0 -12,2 -20,6l-3 -6 81 -37 5 0z"/>
   <path id="2" class="fil1" d="M4841 5302l-24 86c-4,12 -6,21 -6,27 0,5 3,9 7,13 4,3 13,5 27,5l-3 7 -136 0 2 -7c14,0 24,-3 30,-8 7,-5 12,-17 18,-36l52 -181c3,-10 4,-18 4,-24 0,-6 -2,-10 -5,-13 -4,-3 -12,-5 -25,-6l2 -7 117 0c33,0 57,5 70,17 14,12 21,27 21,45 0,19 -8,37 -24,52 -10,10 -28,18 -54,26l25 85c7,23 13,37 18,42 5,5 14,8 25,8l0 7 -87 0 -40 -138 -7 1c-1,0 -4,-1 -7,-1zm4 -12c5,0 9,0 12,0 20,0 36,-7 49,-21 13,-14 19,-32 19,-54 0,-14 -3,-24 -10,-31 -7,-7 -16,-10 -27,-10 -3,0 -6,0 -10,0l-33 116z"/>
   <path class="fil1" d="M1015 1283l-24 86c-4,12 -5,21 -5,27 0,5 2,9 6,12 4,4 13,5 27,6l-3 7 -136 0 2 -7c14,0 24,-3 30,-8 7,-6 12,-18 18,-36l52 -182c3,-10 4,-18 4,-24 0,-5 -2,-10 -5,-13 -4,-3 -12,-4 -25,-5l2 -8 117 0c33,0 57,6 70,18 14,11 21,26 21,45 0,19 -8,36 -24,52 -10,10 -28,18 -54,25l25 86c7,23 13,37 18,42 5,5 14,7 26,8l0 7 -88 0 -40 -138 -7 0c-1,0 -4,0 -7,0zm4 -13c5,1 9,1 12,1 20,0 36,-7 49,-21 13,-14 19,-32 19,-55 0,-13 -3,-23 -10,-30 -7,-7 -16,-10 -27,-10 -3,0 -6,0 -10,0l-33 115z"/>
   <path id="1" class="fil1" d="M1369 1133l-70 237c-4,12 -6,20 -6,24 0,3 2,6 4,10 3,4 6,6 9,7 3,1 12,2 27,3l-3 7 -142 0 2 -7c14,-1 24,-2 30,-4 5,-2 10,-5 13,-10 4,-5 8,-15 12,-30l42 -141c6,-21 10,-33 10,-34 1,-4 1,-7 1,-10 0,-6 -2,-11 -6,-15 -3,-4 -9,-6 -16,-6 -3,0 -10,1 -21,2l-1 -8 106 -25 9 0z"/>
   <path id="2" class="fil1" d="M1596 1231l-41 138 -4 17c-1,2 -1,4 -1,5 0,1 1,3 2,4 1,1 2,2 4,2 2,0 6,-2 11,-7 2,-2 7,-8 15,-19l7 4c-9,18 -20,31 -31,39 -11,8 -23,12 -36,12 -8,0 -14,-2 -18,-6 -4,-4 -6,-9 -6,-15 0,-5 2,-15 7,-30l5 -17c-16,28 -32,47 -47,59 -8,6 -18,9 -27,9 -13,0 -22,-5 -28,-15 -6,-11 -9,-23 -9,-36 0,-19 6,-42 18,-67 12,-25 28,-46 48,-61 16,-13 31,-19 45,-19 8,0 14,2 19,7 5,4 8,12 10,24l8 -25 49 -3zm-67 40c0,-12 -2,-20 -5,-25 -3,-3 -6,-5 -10,-5 -5,0 -9,2 -14,6 -9,9 -19,26 -30,52 -11,27 -16,49 -16,68 0,8 1,13 3,16 3,3 5,5 8,5 7,0 13,-4 19,-11 10,-10 18,-22 25,-37 14,-26 20,-49 20,-69z"/>
   <path class="fil1" d="M2431 3693l-25 85c-3,13 -5,22 -5,27 0,6 2,10 6,13 4,3 13,5 27,6l-3 7 -136 0 3 -7c13,0 23,-3 30,-8 6,-6 12,-18 17,-36l52 -182c3,-10 4,-18 4,-24 0,-5 -1,-10 -5,-13 -4,-3 -12,-5 -25,-6l2 -7 117 0c33,0 57,6 71,18 13,11 20,26 20,45 0,19 -8,36 -24,52 -10,10 -28,18 -53,25l25 86c6,23 12,37 17,42 6,5 14,7 26,8l0 7 -88 0 -40 -138 -7 0c-1,0 -3,0 -6,0zm3 -13c5,1 9,1 12,1 20,0 37,-7 49,-21 13,-14 20,-32 20,-55 0,-13 -4,-23 -11,-30 -7,-7 -16,-11 -27,-11 -3,0 -6,0 -10,1l-33 115z"/>
   <path id="1" class="fil1" d="M2744 3831l-149 0 0 -8c39,-36 71,-69 98,-99 23,-26 37,-45 43,-58 5,-13 8,-27 8,-40 0,-13 -4,-23 -12,-31 -8,-8 -18,-12 -30,-12 -19,0 -35,11 -49,32l-8 -4c7,-20 17,-36 28,-46 16,-15 35,-22 56,-22 21,0 37,6 50,18 13,13 20,27 20,43 0,14 -3,29 -10,42 -6,14 -19,32 -39,53 -16,16 -47,44 -93,84l54 0c18,0 30,-2 37,-6 7,-4 13,-12 20,-24l9 0 -33 78z"/>
   <path id="2" class="fil1" d="M2947 3542l-37 125c10,-12 19,-20 26,-23 7,-4 15,-6 23,-6 16,0 27,6 35,18 8,12 12,26 12,41 0,38 -13,71 -40,100 -24,26 -50,39 -80,39 -23,0 -47,-6 -72,-20l65 -219c3,-10 4,-18 5,-22 0,-4 -2,-6 -5,-8 -4,-3 -10,-5 -19,-4l2 -9 72 -12 13 0zm-82 276c7,4 12,6 17,6 7,0 13,-1 18,-4 7,-5 15,-13 24,-26 8,-12 15,-27 20,-44 6,-18 9,-35 9,-53 0,-10 -2,-17 -6,-22 -5,-5 -9,-8 -15,-8 -9,0 -17,5 -24,15 -4,6 -9,20 -14,40l-29 96z"/>
   <path class="fil1" d="M6188 6141l-21 90 -7 0c-1,-25 -7,-43 -18,-55 -11,-12 -26,-18 -44,-18 -19,0 -38,8 -58,25 -19,16 -35,41 -49,75 -10,27 -16,55 -16,81 0,24 6,43 18,55 12,13 28,19 49,19 16,0 32,-4 45,-11 14,-7 28,-19 42,-35l10 0c-17,26 -35,44 -52,54 -18,11 -39,16 -65,16 -34,0 -61,-10 -82,-31 -21,-21 -31,-48 -31,-81 0,-31 8,-61 25,-89 16,-28 40,-51 71,-68 31,-18 62,-27 93,-27 11,0 26,3 43,8 9,2 16,3 19,3 7,0 14,-3 21,-11l7 0z"/>
   <path id="1" class="fil1" d="M6357 6142l-70 237c-4,13 -6,21 -6,24 0,3 1,7 4,10 3,4 5,6 8,7 3,1 12,2 27,3l-2 7 -143 0 3 -7c14,0 24,-1 29,-3 6,-2 10,-6 14,-11 3,-4 7,-14 12,-30l41 -140c7,-22 10,-33 11,-34 0,-4 1,-7 1,-11 0,-6 -2,-11 -6,-15 -4,-3 -9,-5 -16,-5 -4,0 -11,0 -21,2l-2 -8 107 -26 9 0z"/>
   <path id="2" class="fil1" d="M6519 6141l-37 126c11,-12 19,-20 26,-24 7,-4 15,-6 23,-6 16,0 28,6 36,18 7,12 11,26 11,42 0,37 -13,71 -40,100 -23,26 -50,39 -80,39 -22,0 -46,-7 -71,-20l64 -219c3,-11 5,-18 5,-22 0,-4 -1,-7 -4,-9 -4,-3 -11,-4 -19,-4l1 -8 72 -13 13 0zm-81 277c6,4 12,6 17,6 7,0 13,-1 17,-4 8,-5 16,-14 24,-26 8,-12 15,-27 21,-45 5,-17 8,-35 8,-52 0,-10 -2,-17 -6,-22 -4,-6 -9,-8 -15,-8 -9,0 -16,5 -23,14 -5,7 -10,20 -15,41l-28 96z"/>
   <path class="fil1" d="M2469 3058l-21 90 -7 0c-1,-25 -7,-43 -18,-55 -12,-12 -26,-18 -44,-18 -20,0 -39,8 -58,24 -19,17 -36,42 -49,76 -11,27 -16,54 -16,81 0,24 6,42 18,55 11,12 28,19 48,19 17,0 32,-4 46,-11 14,-8 28,-19 42,-35l10 0c-18,25 -35,43 -53,54 -17,10 -39,15 -64,15 -34,0 -62,-10 -82,-30 -21,-21 -32,-48 -32,-81 0,-31 9,-61 25,-89 17,-29 41,-51 72,-69 31,-17 62,-26 92,-26 12,0 27,2 44,7 9,3 15,4 19,4 7,0 14,-4 21,-11l7 0z"/>
   <path id="1" class="fil1" d="M2597 3347l-149 0 0 -8c39,-36 71,-69 98,-99 23,-25 37,-45 43,-58 5,-13 8,-26 8,-40 0,-13 -4,-23 -12,-31 -8,-8 -18,-12 -30,-12 -19,0 -35,11 -49,32l-8 -3c7,-21 17,-36 28,-47 16,-15 35,-22 56,-22 21,0 37,6 50,18 13,13 20,27 20,43 0,15 -3,29 -10,43 -6,14 -19,31 -39,52 -16,16 -47,44 -93,84l54 0c18,0 30,-2 37,-6 7,-4 13,-12 20,-24l9 0 -33 78z"/>
   <path id="2" class="fil1" d="M2800 3058l-37 125c10,-12 19,-19 26,-23 7,-4 15,-6 23,-6 16,0 27,6 35,18 8,12 12,26 12,41 0,38 -13,71 -40,101 -24,26 -50,39 -80,39 -23,0 -47,-7 -72,-20l65 -220c3,-10 4,-17 5,-22 0,-3 -2,-6 -5,-8 -4,-3 -10,-5 -19,-4l2 -9 72 -12 13 0zm-82 276c7,5 12,7 17,7 7,0 13,-2 18,-5 7,-4 15,-13 24,-25 8,-13 15,-28 20,-45 6,-18 9,-35 9,-52 0,-10 -2,-18 -6,-23 -5,-5 -9,-8 -15,-8 -9,0 -17,5 -24,15 -4,6 -9,20 -14,40l-29 96z"/>
   <path class="fil1" d="M3851 3294l-24 85c-4,13 -6,22 -6,27 0,6 2,10 7,13 4,4 13,5 26,6l-3 7 -135 0 2 -7c14,0 24,-3 30,-8 6,-6 12,-18 17,-36l52 -182c3,-10 5,-18 5,-24 0,-5 -2,-10 -6,-13 -3,-3 -12,-5 -25,-6l2 -7 117 0c34,0 57,6 71,18 14,11 20,26 20,45 0,19 -8,36 -24,52 -10,10 -27,18 -53,25l25 86c7,23 13,37 18,42 5,5 13,7 25,8l0 7 -88 0 -39 -138 -7 0c-2,0 -4,0 -7,0zm4 -13c4,1 8,1 12,1 20,0 36,-7 49,-21 13,-14 19,-32 19,-55 0,-13 -4,-23 -10,-30 -7,-7 -16,-11 -28,-11 -2,0 -6,0 -9,1l-33 115z"/>
   <path class="fil1" d="M1033 2943l23 -235c1,-12 1,-20 1,-24 0,-6 -2,-11 -7,-16 -4,-4 -12,-6 -22,-6l-7 0 2 -8 111 0 -2 8c-12,0 -20,2 -25,4 -4,2 -8,6 -10,12 -2,3 -3,12 -5,26l-16 169 110 -150c12,-17 20,-28 23,-35 2,-4 3,-8 3,-11 0,-4 -2,-7 -5,-10 -3,-3 -9,-4 -18,-5l3 -8 84 0 -2 8c-7,1 -12,2 -16,4 -8,4 -15,9 -23,17 -7,7 -19,22 -36,44l-159 216 -7 0z"/>
   <path id="1" class="fil1" d="M1302 3023l-1 5 -82 0 2 -5c8,0 14,-1 16,-2 5,-2 8,-4 10,-7 3,-5 7,-13 10,-25l35 -122c3,-10 5,-18 5,-23 0,-2 -1,-5 -2,-6 -1,-2 -3,-4 -6,-5 -3,-1 -8,-1 -15,-1l1 -5 77 0 -1 5c-7,0 -11,1 -15,2 -4,2 -7,6 -10,10 -2,4 -5,13 -9,26l-35 122c-3,10 -4,17 -4,19 0,3 0,5 1,6 2,2 4,3 6,4 3,1 9,1 17,2z"/>
   <path id="2" class="fil1" d="M1505 2815l-52 180c-3,9 -5,16 -5,19 0,1 1,1 1,2 1,1 1,1 2,1 1,0 2,0 3,-1 2,-3 6,-8 11,-18l5 3c-5,10 -11,17 -17,23 -6,5 -12,8 -17,8 -3,0 -5,-1 -7,-4 -2,-2 -3,-6 -3,-10 0,-5 1,-13 4,-22l6 -19c-16,22 -30,37 -43,46 -9,6 -18,9 -26,9 -8,0 -16,-4 -22,-10 -6,-7 -9,-16 -9,-27 0,-15 5,-31 15,-48 10,-16 24,-30 41,-41 13,-8 25,-12 36,-12 6,0 11,1 15,3 4,2 8,6 13,11l14 -49c1,-6 3,-10 4,-14 1,-4 1,-7 1,-9 0,-2 0,-4 -2,-6 -2,-1 -5,-2 -8,-2 -2,0 -6,0 -11,1l0 -5 51 -9zm-58 107c0,-6 -2,-11 -6,-15 -4,-4 -9,-6 -15,-6 -14,0 -28,11 -43,31 -15,21 -23,41 -23,59 0,8 2,14 6,18 4,3 8,5 14,5 12,0 26,-11 43,-33 16,-22 24,-42 24,-59z"/>
   <path class="fil1" d="M8230 3167l23 -235c2,-12 2,-20 2,-25 0,-6 -2,-11 -7,-15 -5,-4 -12,-6 -22,-6l-7 0 2 -8 111 0 -2 8c-12,0 -20,1 -25,3 -4,3 -8,7 -11,13 -1,3 -3,11 -4,26l-17 169 111 -151c12,-16 20,-28 23,-34 2,-5 3,-8 3,-12 0,-3 -2,-7 -5,-9 -3,-3 -9,-5 -18,-5l2 -8 85 0 -2 8c-7,0 -12,1 -16,4 -8,3 -16,9 -23,16 -8,7 -20,22 -36,45l-159 216 -8 0z"/>
   <path id="1" class="fil1" d="M8576 3045c14,0 26,3 36,9 10,6 18,15 24,26 6,11 9,23 9,35 0,22 -6,45 -19,68 -12,24 -29,42 -49,55 -20,12 -41,18 -63,18 -15,0 -28,-3 -39,-10 -10,-7 -18,-16 -23,-27 -5,-12 -8,-22 -8,-33 0,-19 5,-38 14,-56 9,-18 20,-34 33,-46 12,-12 26,-22 40,-29 14,-6 29,-10 45,-10zm-5 10c-10,0 -20,2 -29,7 -10,5 -19,13 -28,24 -10,12 -18,26 -26,44 -9,22 -13,43 -13,63 0,14 3,27 10,38 8,11 19,16 34,16 9,0 18,-2 27,-7 8,-4 17,-12 27,-23 12,-13 22,-31 30,-52 8,-21 12,-40 12,-59 0,-13 -4,-25 -11,-36 -7,-10 -18,-15 -33,-15z"/>
   <path id="2" class="fil1" d="M8821 3039l-52 179c-3,10 -4,16 -4,19 0,1 0,2 0,3 1,0 2,1 2,1 1,0 2,-1 3,-2 3,-2 6,-8 12,-18l5 4c-6,9 -12,17 -18,22 -6,6 -11,8 -17,8 -2,0 -5,-1 -7,-3 -2,-3 -3,-6 -3,-10 0,-6 2,-14 5,-23l5 -19c-16,23 -30,38 -43,46 -9,6 -18,9 -26,9 -8,0 -15,-3 -22,-10 -6,-6 -9,-16 -9,-27 0,-15 5,-31 15,-47 11,-17 24,-31 41,-41 13,-9 25,-13 36,-13 6,0 11,1 15,4 5,2 9,5 13,10l14 -49c1,-5 3,-10 4,-13 1,-4 2,-7 2,-10 0,-2 -1,-4 -3,-5 -2,-2 -4,-3 -8,-3 -2,0 -6,1 -11,1l0 -5 51 -8zm-57 107c0,-7 -2,-12 -6,-16 -5,-3 -10,-5 -16,-5 -14,0 -28,10 -43,31 -15,20 -23,40 -23,59 0,7 2,13 6,17 4,4 9,6 14,6 12,0 26,-11 43,-34 16,-22 25,-42 25,-58z"/>
   <g>
    <path class="fil1" d="M9169 2539l81 197 0 0 -5 -3 -5 -2 -5 -3 -5 -2 -6 -2 -5 -1 -5 -2 -5 -2 -6 -1 -5 -1 -5 -1 -5 -1 -5 0 -6 -1 -5 0 -5 0 -5 0 -6 0 -5 0 -5 1 -5 0 -6 1 -5 1 -5 1 -6 1 -5 2 -5 2 -5 1 -6 2 -5 3 -5 2 -5 2 86 -194zm-25 1156l16 -1058 16 0 -16 1058 -16 0z"/>
   </g>
   <g>
    <path class="fil1" d="M285 2000l-52 183c-3,10 -5,18 -5,23 0,4 1,7 4,9 3,2 9,4 20,4l-2 6 -84 0 3 -6c9,0 14,-1 17,-2 5,-2 8,-4 10,-8 4,-5 8,-13 11,-26l38 -132c2,-7 4,-12 4,-13 0,-2 0,-4 0,-6 0,-4 -1,-7 -3,-9 -2,-2 -5,-3 -8,-3 -3,0 -7,0 -13,2l-3 -6 55 -16 8 0z"/>
    <circle class="fil0 str1" cx="226" cy="2113" r="167"/>
   </g>
   <g>
    <path class="fil1" d="M290 3661l-110 0 0 -6c55,-49 92,-88 110,-116 9,-13 13,-26 13,-40 0,-12 -4,-21 -11,-28 -7,-7 -15,-11 -27,-11 -15,0 -27,8 -37,22l-6 -2c6,-14 14,-25 24,-33 11,-8 22,-12 35,-12 14,0 26,5 35,15 10,9 14,21 14,35 0,9 -1,18 -5,26 -5,13 -14,27 -29,43 -21,24 -49,52 -84,83l55 0c9,0 16,-2 22,-6 6,-3 10,-8 12,-14l7 0 -18 44z"/>
    <circle class="fil0 str1" cx="255" cy="3548" r="167"/>
   </g>
   <g>
    <path class="fil1" d="M2176 552l0 -5c26,-4 46,-11 59,-23 9,-8 14,-18 14,-30 0,-8 -3,-15 -9,-21 -5,-5 -11,-8 -19,-8 -12,0 -23,7 -32,22l-6 -2c5,-12 12,-22 21,-28 9,-6 19,-10 29,-10 13,0 23,4 31,12 8,8 12,17 12,29 0,10 -4,19 -11,29 -7,9 -20,17 -38,24 11,5 20,12 25,21 6,8 9,19 9,31 0,13 -4,27 -12,41 -8,13 -18,24 -32,31 -14,8 -28,11 -43,11 -14,0 -24,-2 -31,-7 -5,-3 -7,-7 -7,-11 0,-4 1,-7 4,-10 3,-3 6,-4 10,-4 3,0 6,0 9,1 1,1 6,3 13,7 6,4 12,6 15,7 4,2 8,2 12,2 10,0 18,-5 24,-17 7,-11 10,-23 10,-36 0,-10 -2,-19 -7,-28 -4,-8 -11,-14 -20,-19 -9,-5 -19,-8 -30,-9z"/>
    <circle class="fil0 str1" cx="2206" cy="562" r="167"/>
   </g>
   <g>
    <path class="fil1" d="M1976 3600l-42 144 26 0 -6 21 -26 0 -17 59 -24 0 17 -59 -80 0 7 -23 132 -142 13 0zm-36 41l-95 103 65 0 30 -103z"/>
    <circle class="fil0 str1" cx="1912" cy="3701" r="167"/>
   </g>
   <g>
    <path class="fil1" d="M3962 1351l73 0 -7 27 -67 0 -12 27c18,3 31,8 41,16 15,13 23,31 23,53 0,16 -3,29 -8,41 -6,13 -13,23 -21,31 -8,8 -17,15 -26,20 -12,6 -25,9 -38,9 -11,0 -19,-2 -26,-7 -4,-3 -6,-7 -6,-12 0,-4 1,-7 4,-10 3,-3 6,-4 10,-4 6,0 12,3 19,8 5,4 8,6 11,8 2,1 5,1 8,1 13,0 24,-6 34,-18 10,-12 16,-28 16,-48 0,-13 -3,-25 -9,-35 -5,-9 -12,-16 -20,-20 -9,-4 -20,-6 -34,-8l35 -79z"/>
    <circle class="fil0 str1" cx="3961" cy="1463" r="167"/>
   </g>
   <g>
    <path class="fil1" d="M7806 2209l110 0 0 5 -124 219 -13 -6 108 -192 -52 0c-14,0 -24,1 -29,4 -6,2 -12,8 -19,18l-6 0 25 -48z"/>
    <circle class="fil0 str1" cx="7847" cy="2321" r="167"/>
   </g>
   <g>
    <path class="fil1" d="M7858 3919c11,11 18,21 23,31 5,10 7,20 7,30 0,18 -6,33 -20,46 -13,13 -30,20 -50,20 -17,0 -32,-5 -43,-16 -11,-11 -17,-23 -17,-38 0,-12 5,-24 14,-36 9,-12 26,-23 51,-34 -9,-12 -16,-22 -19,-29 -4,-8 -6,-16 -6,-23 0,-15 6,-27 17,-37 10,-11 24,-16 41,-16 15,0 28,5 38,14 10,8 15,19 15,31 0,12 -4,23 -12,32 -8,10 -21,18 -39,25zm-6 -7c12,-4 21,-11 27,-20 7,-9 10,-20 10,-31 0,-11 -3,-20 -10,-26 -6,-7 -14,-10 -24,-10 -10,0 -18,3 -24,9 -6,6 -9,14 -9,24 0,7 2,14 5,20 5,9 13,20 25,34zm-23 17c-16,6 -28,16 -36,29 -9,13 -13,26 -13,41 0,12 4,21 11,28 7,8 17,11 29,11 12,0 23,-4 31,-13 9,-8 13,-19 13,-31 0,-9 -2,-19 -7,-29 -5,-10 -14,-22 -28,-36z"/>
    <circle class="fil0 str1" cx="7834" cy="3931" r="167"/>
   </g>
   <polygon class="fil1" points="377,2582 434,2582 434,2525 482,2525 482,2582 539,2582 539,2630 482,2630 482,2687 434,2687 434,2630 377,2630 "/>
   <polygon class="fil1" points="388,3165 544,3165 544,3198 388,3198 "/>
   <path class="fil0 str0" d="M5931 478l0 -478m-217 469c151,-161 150,-283 -1,-441"/>
   <line class="fil0 str1" x1="6215" y1="4112" x2="6215" y2= "5020" />
   <line class="fil0 str1" x1="5234" y1="4561" x2="5234" y2= "5020" />
   <g>
    <circle class="fil0 str1" cx="4003" cy="2386" r="167"/>
    <path class="fil1" d="M4080 2271l0 6c-19,5 -37,14 -54,28 -17,14 -33,32 -46,54 12,-5 21,-8 29,-8 14,0 25,5 35,15 10,10 15,23 15,40 0,26 -9,48 -25,67 -17,18 -35,27 -54,27 -18,0 -31,-6 -40,-19 -9,-13 -14,-28 -14,-45 0,-23 5,-44 16,-66 10,-22 24,-40 41,-56 18,-15 36,-27 55,-34 12,-4 25,-7 42,-9zm-108 101c-15,33 -23,61 -23,83 0,12 3,21 9,27 6,7 12,10 20,10 13,0 24,-9 35,-27 11,-18 16,-39 16,-63 0,-12 -3,-22 -9,-29 -6,-7 -14,-11 -23,-11 -4,0 -7,1 -11,2 -3,2 -8,4 -14,8z"/>
   </g>
   <g>
    <path class="fil2" d="M2868 2538l-8 28 -45 0c3,10 5,19 5,28 0,24 -10,45 -31,64 -20,19 -49,29 -85,31 -18,6 -32,13 -42,21 -3,3 -5,6 -5,9 0,3 1,7 5,10 3,3 11,6 24,9l53 12c30,7 49,15 58,24 9,10 14,21 14,33 0,15 -6,29 -17,41 -11,12 -27,22 -48,29 -21,7 -44,10 -70,10 -22,0 -42,-2 -61,-8 -18,-5 -32,-12 -40,-21 -7,-9 -11,-19 -11,-28 0,-8 2,-16 7,-25 5,-8 12,-15 20,-20 5,-4 18,-12 41,-25 -8,-6 -12,-13 -12,-21 0,-7 3,-15 10,-23 7,-8 22,-17 45,-27 -19,-4 -34,-12 -46,-25 -11,-13 -17,-27 -17,-43 0,-26 12,-49 34,-69 23,-20 53,-30 91,-30 13,0 25,1 33,4 9,3 18,7 26,12l72 0zm-92 43c0,-14 -4,-26 -13,-34 -8,-8 -19,-12 -33,-12 -21,0 -39,10 -52,30 -14,21 -21,42 -21,64 0,14 4,26 13,35 9,8 20,13 32,13 10,0 20,-3 29,-8 9,-5 17,-13 24,-22 6,-9 11,-21 15,-35 4,-14 6,-25 6,-31zm-132 186c-15,7 -26,16 -34,26 -7,11 -11,21 -11,31 0,12 6,22 16,30 16,11 39,17 69,17 26,0 48,-5 67,-14 18,-8 27,-20 27,-34 0,-7 -3,-14 -10,-20 -7,-6 -20,-11 -39,-15 -11,-3 -39,-9 -85,-21z"/>
    <circle class="fil0 str2" cx="2716" cy="2705" r="261"/>
   </g>
   <polyline class="fil0 str0" points="6192,5019 6314,5068 6066,5167 6314,5266 6066,5365 6314,5463 6066,5562 6192,5611 "/>
   <polyline class="fil0 str0" points="5207,5019 5328,5068 5081,5167 5328,5266 5081,5365 5328,5463 5081,5562 5207,5611 "/>
   <path class="fil1" d="M6593 5057l-57 196 47 -43 16 -14c4,-5 7,-9 9,-12 1,-2 2,-4 2,-6 0,-3 -2,-5 -4,-7 -3,-2 -10,-4 -20,-4l2 -8 85 0 -2 8c-10,2 -18,5 -24,8 -5,2 -11,6 -18,11 -11,9 -19,15 -23,19l-9 9 12 56c5,22 9,34 11,38 2,2 4,3 6,3 5,0 10,-6 17,-18 1,-2 2,-4 4,-7l7 5c-10,21 -22,36 -35,47 -8,7 -16,11 -23,11 -7,0 -13,-3 -18,-8 -5,-5 -10,-18 -14,-40l-11 -47 -22 20 -21 72 -53 0 68 -235c3,-10 5,-17 5,-21 0,-3 -1,-5 -2,-7 -1,-2 -3,-4 -5,-5 -2,-1 -6,-1 -12,-1l1 -8 69 -12 12 0z"/>
   <path id="1" class="fil1" d="M6805 5446l-130 0 0 -4c40,-47 64,-79 73,-96 8,-16 13,-32 13,-47 0,-12 -4,-21 -11,-29 -7,-7 -16,-11 -26,-11 -17,0 -30,8 -39,25l-6 -2c6,-21 15,-37 27,-47 12,-9 26,-14 41,-14 11,0 22,2 31,7 9,5 16,13 21,22 6,9 8,17 8,25 0,15 -4,29 -12,44 -11,20 -35,48 -72,84l48 0c12,0 19,0 23,-1 4,-1 6,-3 9,-5 2,-3 5,-7 9,-15l6 0 -13 64z"/>
   <path id="2" class="fil1" d="M6956 5208l-25 85c-3,13 -5,22 -5,27 0,6 2,10 6,13 5,3 14,5 27,6l-3 7 -136 0 3 -7c14,0 24,-3 30,-9 6,-5 12,-17 17,-35l52 -182c3,-10 5,-18 5,-24 0,-5 -2,-10 -6,-13 -3,-3 -12,-5 -25,-6l2 -7 117 0c34,0 57,6 71,18 13,11 20,26 20,45 0,19 -8,36 -24,52 -10,10 -28,18 -53,25l25 86c7,23 13,37 18,42 5,4 13,7 25,8l0 7 -88 0 -40 -138 -6 0c-2,0 -4,0 -7,0zm3 -13c5,1 9,1 13,1 19,0 36,-7 49,-21 12,-14 19,-32 19,-55 0,-13 -4,-23 -11,-30 -6,-7 -15,-11 -27,-11 -2,0 -6,0 -9,1l-34 115z"/>
   <g>
    <path class="fil1" d="M5199 5893l0 -282 16 0 0 282 -16 0zm-111 0l0 -14 238 0 0 28 -238 0 0 -14z"/>
   </g>
   <g>
    <path class="fil1" d="M6163 5893l0 -282 16 0 0 282 -16 0zm-111 0l0 -14 238 0 0 28 -238 0 0 -14z"/>
   </g>
  </g>
 </g>
</svg>
