<?xml version="1.0" encoding="UTF-8"?>
<!DOCTYPE svg PUBLIC "-//W3C//DTD SVG 1.1//EN" "http://www.w3.org/Graphics/SVG/1.1/DTD/svg11.dtd">
<!-- Creator: CorelDRAW Home & Student X8 -->
<svg xmlns="http://www.w3.org/2000/svg" xml:space="preserve" width="127.847mm" height="34.1378mm" version="1.1" style="shape-rendering:geometricPrecision; text-rendering:geometricPrecision; image-rendering:optimizeQuality; fill-rule:evenodd; clip-rule:evenodd"
viewBox="0 0 7783 2078"
 xmlns:xlink="http://www.w3.org/1999/xlink">
 <defs>
  <style type="text/css">
   <![CDATA[
    .str0 {stroke:#2B2A29;stroke-width:18.2638}
    .str1 {stroke:#2B2A29;stroke-width:12.1759}
    .fil0 {fill:none}
    .fil1 {fill:#2B2A29;fill-rule:nonzero}
   ]]>
  </style>
 </defs>
 <g id="Warstwa_x0020_1">
  <metadata id="CorelCorpID_0Corel-Layer"/>
  <g id="_734488128">
   <g>
    <rect class="fil0 str0" transform="matrix(-0.725072 -0.725072 0.725072 -0.725072 843.832 1136.95)" width="464" height="464"/>
    <g>
     <polygon class="fil1" points="927,660 851,660 851,735 831,735 831,660 755,660 755,639 831,639 831,564 851,564 851,639 927,639 "/>
     <polygon class="fil1" points="925,993 758,993 758,974 925,974 "/>
    </g>
   </g>
   <g>
    <rect class="fil0 str0" transform="matrix(-0.725072 -0.725072 0.725072 -0.725072 1508.03 1610.67)" width="464" height="464"/>
    <g>
     <polygon class="fil1" points="1591,1134 1515,1134 1515,1209 1495,1209 1495,1134 1419,1134 1419,1113 1495,1113 1495,1038 1515,1038 1515,1113 1591,1113 "/>
     <polygon class="fil1" points="1589,1467 1423,1467 1423,1448 1589,1448 "/>
    </g>
   </g>
   <g>
    <path class="fil1" d="M845 292l5 172 -12 0 -5 -171 6 -7 6 6zm-12 1l0 -7 6 0 -6 7zm1209 5l-1203 0 0 -12 1203 0 0 12zm30 -49l0 22 0 0 -2 0 -1 0 -1 0 -1 0 -1 0 -1 1 -1 0 -1 0 -1 1 -1 0 -1 1 -1 0 0 1 -1 1 -1 0 -1 1 0 1 -1 1 -1 0 0 1 -1 1 -1 1 0 1 0 1 -1 1 0 1 0 1 -1 1 0 1 0 1 0 1 0 1 -22 0 0 -2 0 -2 1 -2 0 -2 1 -2 0 -3 1 -2 1 -2 1 -1 0 -2 2 -2 1 -2 1 -2 1 -1 2 -2 1 -1 1 -2 2 -1 2 -1 1 -2 2 -1 2 -1 2 -1 2 -1 2 0 2 -1 2 -1 2 0 2 0 2 -1 2 0 3 0 0 0zm43 43l-22 0 0 0 0 -1 0 -1 0 -1 0 -1 0 -1 -1 -1 0 -1 -1 -1 0 -1 0 -1 -1 -1 -1 -1 0 -1 -1 0 0 -1 -1 -1 -1 -1 -1 0 -1 -1 0 -1 -1 0 -1 -1 -1 0 -1 -1 -1 0 -1 0 -1 -1 -1 0 -1 0 -1 0 -1 0 -1 0 0 -22 2 0 2 0 2 1 2 0 2 0 2 1 2 1 2 0 2 1 2 1 2 1 2 1 1 2 2 1 2 1 1 2 2 1 1 2 1 1 1 2 2 2 1 2 1 2 0 1 1 2 1 2 0 3 1 2 0 2 1 2 0 2 0 2 0 0zm-43 44l0 -22 0 0 1 0 1 0 1 0 1 0 1 -1 1 0 1 0 1 -1 1 0 1 -1 1 0 1 -1 0 0 1 -1 1 -1 1 0 1 -1 0 -1 1 -1 0 -1 1 0 1 -1 0 -1 0 -1 1 -1 0 -1 1 -1 0 -1 0 -1 0 -1 0 -2 0 -1 22 0 0 3 0 2 -1 2 0 2 -1 2 0 2 -1 2 -1 2 0 2 -1 2 -1 2 -2 2 -1 1 -1 2 -1 1 -2 2 -1 1 -2 2 -2 1 -1 1 -2 1 -2 1 -2 1 -2 1 -2 1 -2 1 -2 0 -2 1 -2 0 -2 0 -2 1 -2 0 0 0zm-44 -44l22 0 0 1 0 2 0 1 0 1 1 1 0 1 0 1 1 1 0 1 0 1 1 1 1 0 0 1 1 1 1 1 0 1 1 0 1 1 1 1 0 0 1 1 1 0 1 1 1 0 1 1 1 0 1 0 1 1 1 0 1 0 1 0 2 0 0 22 -3 0 -2 -1 -2 0 -2 0 -2 -1 -2 0 -2 -1 -2 -1 -2 -1 -2 -1 -2 -1 -2 -1 -1 -1 -2 -1 -2 -2 -1 -1 -1 -2 -2 -1 -1 -2 -1 -1 -1 -2 -2 -2 0 -2 -1 -2 -1 -2 -1 -2 0 -2 -1 -2 0 -2 -1 -2 0 -2 0 -3z"/>
   </g>
   <g>
    <path class="fil1" d="M838 1749l0 -612 12 0 0 612 -6 6 -6 -6zm6 6l-6 0 0 -6 6 6zm1177 0l-1177 0 0 -12 1177 0 0 12zm30 -49l0 21 0 0 -1 0 -1 1 -1 0 -1 0 -1 0 -1 0 -1 1 -1 0 -1 1 -1 0 -1 1 -1 0 -1 1 -1 0 0 1 -1 1 -1 1 -1 0 0 1 -1 1 0 1 -1 1 0 1 -1 1 0 1 -1 1 0 1 0 1 0 1 0 1 0 1 0 1 -22 0 0 -2 0 -2 0 -3 1 -2 0 -2 1 -2 1 -2 0 -2 1 -2 1 -2 1 -1 1 -2 1 -2 2 -1 1 -2 2 -2 1 -1 2 -1 1 -2 2 -1 2 -1 2 -1 1 -1 2 -1 2 -1 2 0 2 -1 2 0 3 -1 2 0 2 0 2 0 0 0zm43 43l-21 0 0 0 0 -1 0 -1 0 -1 -1 -1 0 -1 0 -1 -1 -1 0 -1 0 -1 -1 -1 0 -1 -1 -1 0 -1 -1 -1 -1 0 -1 -1 0 -1 -1 -1 -1 0 -1 -1 -1 0 -1 -1 0 0 -1 -1 -1 0 -1 -1 -1 0 -1 0 -2 0 -1 0 -1 -1 -1 0 0 -21 2 0 3 0 2 0 2 1 2 0 2 1 2 0 2 1 2 1 2 1 2 1 1 1 2 1 2 2 1 1 2 1 1 2 2 2 1 1 1 2 1 2 1 1 1 2 1 2 1 2 1 2 0 2 1 2 0 2 0 3 0 2 0 2 0 0zm-43 43l0 -21 0 0 1 0 1 0 1 -1 2 0 1 0 1 0 1 -1 1 0 1 0 0 -1 1 0 1 -1 1 -1 1 0 1 -1 0 -1 1 0 1 -1 1 -1 0 -1 1 -1 0 -1 1 -1 0 -1 0 -1 1 -1 0 -1 0 -1 1 -1 0 -1 0 -1 0 -1 21 0 0 2 0 2 0 3 0 2 -1 2 0 2 -1 2 -1 2 -1 2 -1 2 -1 2 -1 1 -1 2 -1 2 -2 1 -1 2 -2 1 -1 1 -2 2 -2 1 -1 1 -2 1 -2 1 -2 1 -2 1 -2 0 -2 1 -2 0 -2 1 -2 0 -3 0 -2 0 0 0zm-43 -43l22 0 0 1 0 1 0 1 0 1 0 1 0 1 1 1 0 1 1 1 0 1 1 1 0 1 1 1 0 1 1 1 1 0 1 1 0 1 1 0 1 1 1 1 1 0 1 1 1 0 1 0 1 1 1 0 1 0 1 0 1 1 1 0 1 0 0 21 -2 0 -2 0 -2 0 -3 -1 -2 0 -2 -1 -2 0 -2 -1 -2 -1 -1 -1 -2 -1 -2 -1 -2 -1 -1 -2 -2 -1 -1 -1 -2 -2 -1 -1 -2 -2 -1 -2 -1 -1 -1 -2 -1 -2 -1 -2 0 -2 -1 -2 -1 -2 0 -2 -1 -2 0 -3 0 -2 0 -2z"/>
   </g>
   <g>
    <path class="fil1" d="M1502 1749l0 -138 12 0 0 138 -12 0zm49 0l0 0 0 2 0 2 0 3 -1 2 0 2 -1 2 0 2 -1 2 -1 2 -1 2 -1 1 -1 2 -1 2 -2 2 -1 1 -1 2 -2 1 -1 1 -2 2 -2 1 -2 1 -1 1 -2 1 -2 1 -2 1 -2 0 -2 1 -2 0 -2 1 -3 0 -2 0 -2 0 0 0 -2 0 -2 0 -3 0 -2 -1 -2 0 -2 -1 -2 0 -2 -1 -2 -1 -2 -1 -1 -1 -2 -1 -2 -1 -1 -2 -2 -1 -2 -1 -1 -2 -1 -1 -2 -2 -1 -2 -1 -2 -1 -1 -1 -2 -1 -2 -1 -2 0 -2 -1 -2 0 -2 -1 -2 0 -3 0 -2 0 -2 0 0 0 -2 0 -2 0 -3 1 -2 0 -2 1 -2 0 -2 1 -2 1 -2 1 -2 1 -1 1 -2 1 -2 2 -1 1 -2 1 -2 2 -1 2 -1 1 -2 2 -1 2 -1 1 -1 2 -1 2 -1 2 -1 2 0 2 -1 2 0 2 -1 3 0 2 0 2 0 0 0 2 0 2 0 3 0 2 1 2 0 2 1 2 0 2 1 2 1 2 1 1 1 2 1 2 1 2 2 1 1 2 1 1 2 1 2 2 1 1 2 1 2 1 1 1 2 1 2 1 2 0 2 1 2 0 2 1 2 0 3 0 2 0 2z"/>
   </g>
   <g>
    <path class="fil1" d="M1514 805l0 133 -12 0 0 -133 6 -6 6 6zm-12 0l0 -6 6 0 -6 6zm363 6l-357 0 0 -12 357 0 6 6 -6 6zm0 -12l6 0 0 6 -6 -6zm-6 218l0 -212 12 0 0 212 -6 6 -6 -6zm6 6l-6 0 0 -6 6 6zm1782 7l-1782 -7 0 -12 1782 7 0 12zm0 -49l0 0 2 0 2 0 2 0 3 1 2 0 2 1 2 1 2 0 2 1 1 1 2 1 2 1 2 2 1 1 2 1 1 2 2 1 1 2 2 1 1 2 1 2 1 2 1 2 1 1 0 2 1 2 1 3 0 2 1 2 0 2 0 2 0 2 0 0 0 3 0 2 0 2 -1 2 0 2 -1 2 -1 2 0 2 -1 2 -1 2 -1 2 -1 1 -2 2 -1 2 -1 1 -2 2 -1 1 -2 2 -2 1 -1 1 -2 1 -2 1 -2 1 -2 1 -2 1 -2 1 -2 0 -2 1 -2 0 -2 0 -2 0 -2 0 0 0 -3 0 -2 0 -2 0 -2 0 -2 -1 -2 -1 -2 0 -2 -1 -2 -1 -2 -1 -2 -1 -2 -1 -1 -1 -2 -2 -1 -1 -2 -1 -1 -2 -2 -1 -1 -2 -1 -2 -1 -2 -1 -1 -1 -2 -1 -2 -1 -2 -1 -2 0 -2 -1 -2 0 -2 0 -3 -1 -2 0 -2 0 0 1 -2 0 -2 0 -3 0 -2 1 -2 0 -2 1 -2 1 -2 1 -2 1 -2 1 -1 1 -2 1 -2 1 -2 2 -1 1 -2 2 -1 1 -1 2 -2 2 -1 1 -1 2 -1 2 -1 2 -1 2 -1 2 0 2 -1 2 0 2 -1 2 0 3 0 2 0z"/>
   </g>
   <g>
    <path class="fil1" d="M523 328l0 -65 65 0 0 65 -65 0zm-416 -39l448 0 0 13 -448 0 0 -13zm-30 50l0 -22 0 0 2 0 1 0 1 0 1 0 1 0 1 -1 1 0 1 0 1 -1 1 0 1 -1 1 0 0 -1 1 -1 1 0 1 -1 0 -1 1 -1 1 -1 0 0 1 -1 0 -1 1 -1 0 -1 1 -1 0 -1 0 -1 1 -1 0 -1 0 -1 0 -1 0 -1 22 0 0 2 0 2 -1 2 0 2 -1 2 0 2 -1 2 -1 2 -1 2 -1 2 -1 2 -1 2 -1 1 -1 2 -2 2 -1 1 -1 2 -2 1 -2 1 -1 1 -2 2 -2 1 -2 1 -2 0 -2 1 -2 1 -2 0 -2 1 -2 0 -2 1 -2 0 -3 0 0 0zm-43 -43l22 0 0 0 0 1 0 1 0 1 0 1 0 1 1 1 0 1 0 1 1 1 0 1 1 1 0 1 1 0 1 1 0 1 1 1 1 1 1 0 1 1 0 1 1 0 1 1 1 0 1 1 1 0 1 0 1 1 1 0 1 0 1 0 1 0 1 0 0 22 -2 0 -2 0 -2 -1 -2 0 -2 -1 -2 0 -2 -1 -2 -1 -2 0 -2 -1 -2 -1 -2 -2 -1 -1 -2 -1 -2 -1 -1 -2 -2 -1 -1 -2 -1 -2 -1 -1 -2 -2 -1 -2 -1 -2 0 -2 -1 -2 -1 -2 0 -2 -1 -2 0 -2 -1 -2 0 -2 0 -2 0 0zm43 -44l0 22 0 0 -1 0 -1 0 -1 0 -1 0 -1 1 -1 0 -1 0 -1 1 -1 0 -1 1 -1 0 -1 1 0 0 -1 1 -1 1 -1 0 -1 1 0 1 -1 1 -1 0 0 1 -1 1 0 1 -1 1 0 1 0 1 -1 1 0 1 0 1 0 1 0 1 0 2 -22 0 0 -3 0 -2 1 -2 0 -2 1 -2 0 -2 1 -2 1 -2 0 -2 1 -2 1 -2 2 -2 1 -1 1 -2 1 -2 2 -1 1 -1 2 -2 2 -1 1 -1 2 -1 2 -2 2 0 2 -1 2 -1 2 -1 2 0 2 -1 2 0 2 -1 2 0 2 0 0 0zm44 44l-22 0 0 -2 0 -1 0 -1 0 -1 -1 -1 0 -1 0 -1 -1 -1 0 -1 -1 -1 0 -1 -1 -1 0 0 -1 -1 -1 -1 0 -1 -1 0 -1 -1 -1 -1 0 0 -1 -1 -1 0 -1 -1 -1 0 -1 -1 -1 0 -1 0 -1 -1 -1 0 -1 0 -1 0 -2 0 0 -22 3 0 2 0 2 1 2 0 2 1 2 0 2 1 2 1 2 1 2 0 2 2 2 1 1 1 2 1 2 2 1 1 1 1 2 2 1 2 1 1 1 2 1 2 1 2 1 2 1 2 1 2 0 2 1 2 0 2 1 2 0 2 0 3z"/>
   </g>
   <g>
    <path class="fil1" d="M523 1778l0 -65 65 0 0 65 -65 0zm-416 -38l448 0 0 12 -448 0 0 -12zm-30 49l0 -21 0 0 2 0 1 -1 1 0 1 0 1 0 1 0 1 -1 1 0 1 -1 1 0 1 -1 1 0 0 -1 1 0 1 -1 1 -1 0 -1 1 0 1 -1 0 -1 1 -1 0 -1 1 -1 0 -1 1 -1 0 -1 0 -1 1 -1 0 -1 0 -1 0 -1 0 -1 22 0 0 2 0 2 -1 2 0 3 -1 2 0 2 -1 2 -1 2 -1 2 -1 2 -1 1 -1 2 -1 2 -1 1 -2 2 -1 2 -1 1 -2 1 -2 2 -1 1 -2 1 -2 1 -2 1 -2 1 -2 1 -2 0 -2 1 -2 0 -2 1 -2 0 -2 0 -3 0 0 0zm-43 -43l22 0 0 0 0 1 0 1 0 1 0 1 0 1 1 1 0 1 0 1 1 1 0 1 1 1 0 1 1 1 1 1 0 0 1 1 1 1 1 1 1 0 0 1 1 0 1 1 1 0 1 1 1 0 1 1 1 0 1 0 1 0 1 0 1 1 1 0 0 21 -2 0 -2 0 -2 0 -2 -1 -2 0 -2 -1 -2 0 -2 -1 -2 -1 -2 -1 -2 -1 -2 -1 -1 -1 -2 -2 -2 -1 -1 -1 -2 -2 -1 -2 -1 -1 -1 -2 -2 -2 -1 -1 -1 -2 0 -2 -1 -2 -1 -2 0 -2 -1 -2 0 -3 -1 -2 0 -2 0 -2 0 0zm43 -43l0 21 0 0 -1 0 -1 0 -1 0 -1 1 -1 0 -1 0 -1 1 -1 0 -1 0 -1 1 -1 0 -1 1 0 1 -1 0 -1 1 -1 1 -1 0 0 1 -1 1 -1 1 0 1 -1 1 0 1 -1 0 0 1 0 1 -1 1 0 2 0 1 0 1 0 1 0 1 -22 0 0 -2 0 -3 1 -2 0 -2 1 -2 0 -2 1 -2 1 -2 0 -2 1 -2 1 -2 2 -1 1 -2 1 -2 1 -1 2 -2 1 -1 2 -2 2 -1 1 -1 2 -1 2 -1 2 -1 2 -1 2 -1 2 0 2 -1 2 -1 2 0 2 0 2 0 2 0 0 0zm44 43l-22 0 0 -1 0 -1 0 -1 0 -1 -1 -2 0 -1 0 -1 -1 -1 0 0 -1 -1 0 -1 -1 -1 0 -1 -1 -1 -1 -1 0 0 -1 -1 -1 -1 -1 0 0 -1 -1 -1 -1 0 -1 -1 -1 0 -1 0 -1 -1 -1 0 -1 0 -1 -1 -1 0 -1 0 -2 0 0 -21 3 0 2 0 2 0 2 0 2 1 2 1 2 0 2 1 2 1 2 1 2 1 2 1 1 1 2 1 2 2 1 1 1 2 2 1 1 2 1 2 1 1 1 2 1 2 1 2 1 2 1 2 0 2 1 2 0 2 1 2 0 3 0 2z"/>
   </g>
   <g>
    <g>
     <path class="fil1" d="M3656 780l-18 0 -56 -85 18 -12 56 86 -18 0 18 11zm0 0l-9 14 -9 -14 18 0zm46 -91l9 6 -55 85 -18 -11 55 -86 9 6zm-46 -212l0 281 -18 0 0 -281 18 0z"/>
    </g>
    <rect class="fil0 str0" transform="matrix(0.725072 0.725072 -0.725072 0.725072 3646.73 295.556)" width="464" height="464"/>
   </g>
   <g>
    <g>
     <path class="fil1" d="M3638 1261l18 0 55 86 -18 11 -55 -85 18 0 -18 -12zm0 0l9 -14 9 14 -18 0zm-47 91l-9 -5 56 -86 18 12 -56 85 -9 -6zm47 213l0 -281 18 0 0 281 -18 0z"/>
    </g>
    <rect class="fil0 str0" transform="matrix(-0.725072 -0.725072 0.725072 -0.725072 3646.74 1745.92)" width="464" height="464"/>
   </g>
   <line class="fil0 str1" x1="3647" y1="969" x2="3647" y2= "1080" />
   <g>
    <path class="fil1" d="M4622 302l-968 0 0 -13 968 0 0 13zm30 -50l0 22 0 0 -1 0 -1 0 -1 0 -1 0 -1 1 -1 0 -1 0 -1 1 -1 0 -1 1 -1 0 -1 1 -1 0 -1 1 -1 1 0 0 -1 1 -1 1 0 1 -1 0 0 1 -1 1 0 1 -1 1 0 1 -1 1 0 1 0 1 0 1 -1 1 0 1 0 2 -21 0 0 -3 0 -2 0 -2 1 -2 0 -2 1 -2 0 -2 1 -2 1 -2 1 -2 1 -2 1 -2 1 -1 2 -2 1 -2 1 -1 2 -1 1 -2 2 -1 2 -1 2 -1 1 -2 2 0 2 -1 2 -1 2 -1 2 0 2 -1 2 0 3 -1 2 0 2 0 0 0zm43 44l-21 0 0 0 0 -2 0 -1 -1 -1 0 -1 0 -1 0 -1 -1 -1 0 -1 0 -1 -1 -1 0 -1 -1 -1 -1 0 0 -1 -1 -1 -1 -1 0 0 -1 -1 -1 -1 -1 0 -1 -1 -1 0 -1 -1 -1 0 -1 -1 -1 0 -1 0 -1 -1 -1 0 -1 0 -1 0 -1 0 0 -22 2 0 2 0 3 1 2 0 2 1 2 0 2 1 2 1 2 1 2 0 1 2 2 1 2 1 2 1 1 2 2 1 1 1 1 2 2 2 1 1 1 2 1 2 1 2 1 2 1 2 0 2 1 2 0 2 1 2 0 2 0 2 0 3 0 0zm-43 43l0 -22 0 0 1 0 1 0 1 0 1 0 1 0 1 -1 1 0 1 0 1 -1 1 0 1 -1 1 0 1 -1 1 -1 1 0 0 -1 1 -1 1 -1 0 -1 1 0 1 -1 0 -1 1 -1 0 -1 0 -1 1 -1 0 -1 0 -1 0 -1 1 -1 0 -1 0 -1 21 0 0 2 0 2 0 2 -1 2 0 2 -1 2 0 2 -1 2 -1 2 -1 2 -1 2 -1 2 -1 1 -2 2 -1 2 -1 1 -2 2 -1 1 -2 1 -2 1 -2 2 -1 1 -2 1 -2 0 -2 1 -2 1 -2 0 -2 1 -2 0 -3 1 -2 0 -2 0 0 0zm-43 -43l21 0 0 1 0 1 1 1 0 1 0 1 0 1 1 1 0 1 1 1 0 1 1 1 0 1 1 0 0 1 1 1 1 1 0 1 1 0 1 1 1 1 1 0 1 1 1 0 1 1 1 0 1 0 1 1 1 0 1 0 1 0 1 0 1 0 0 22 -2 0 -2 0 -3 -1 -2 0 -2 -1 -2 0 -2 -1 -2 -1 -2 0 -2 -1 -1 -1 -2 -2 -2 -1 -2 -1 -1 -1 -2 -2 -1 -1 -1 -2 -2 -2 -1 -1 -1 -2 -1 -2 -1 -2 -1 -2 -1 -2 0 -2 -1 -2 0 -2 -1 -2 0 -2 0 -2 0 -2z"/>
   </g>
   <g>
    <path class="fil1" d="M4727 1752l-1073 0 0 -12 1073 0 0 12zm30 -49l0 21 0 0 -1 0 -1 0 -2 1 -1 0 -1 0 -1 0 -1 1 -1 0 -1 0 -1 1 0 0 -1 1 -1 1 -1 0 -1 1 -1 1 0 0 -1 1 -1 1 0 1 -1 1 0 1 -1 1 0 0 -1 1 0 1 0 2 0 1 -1 1 0 1 0 1 0 1 -22 0 0 -2 1 -3 0 -2 0 -2 1 -2 0 -2 1 -2 1 -2 1 -2 1 -2 1 -2 1 -1 1 -2 1 -2 2 -1 1 -2 2 -1 1 -1 2 -2 2 -1 1 -1 2 -1 2 -1 2 -1 2 -1 2 0 2 -1 2 -1 2 0 2 0 3 0 2 0 0 0zm43 43l-22 0 0 0 0 -1 0 -1 0 -1 0 -1 0 -1 -1 -2 0 -1 0 -1 -1 0 0 -1 -1 -1 0 -1 -1 -1 -1 -1 0 -1 -1 0 -1 -1 -1 -1 0 0 -1 -1 -1 -1 -1 0 -1 -1 -1 0 -1 0 -1 -1 -1 0 -1 0 -1 0 -1 -1 -1 0 -1 0 0 -21 2 0 2 0 2 0 2 0 3 1 2 1 2 0 2 1 1 1 2 1 2 1 2 1 2 1 1 2 2 1 1 1 2 2 1 1 1 2 2 2 1 1 1 2 1 2 1 2 0 2 1 2 1 2 0 2 1 2 0 2 0 3 0 2 0 0zm-43 43l0 -21 0 0 1 0 1 -1 1 0 1 0 1 0 1 0 1 -1 1 0 1 -1 1 0 1 -1 1 0 1 -1 0 0 1 -1 1 -1 1 -1 0 0 1 -1 1 -1 0 -1 1 -1 0 -1 1 -1 0 -1 0 -1 1 -1 0 -1 0 -1 0 -1 0 -1 0 -1 22 0 0 2 0 2 0 2 -1 3 0 2 -1 2 -1 2 0 2 -1 2 -1 2 -1 1 -1 2 -2 2 -1 1 -1 2 -2 2 -1 1 -2 1 -1 2 -2 1 -2 1 -2 1 -2 1 -1 1 -2 1 -2 0 -2 1 -3 0 -2 1 -2 0 -2 0 -2 0 0 0zm-44 -43l22 0 0 1 0 1 0 1 1 1 0 1 0 1 0 1 1 1 0 1 1 1 0 1 1 1 0 1 1 1 1 0 0 1 1 1 1 1 1 0 1 1 1 0 0 1 1 0 1 1 1 0 1 1 1 0 1 0 1 0 2 0 1 1 1 0 0 21 -2 0 -3 0 -2 0 -2 -1 -2 0 -2 -1 -2 0 -2 -1 -2 -1 -2 -1 -2 -1 -1 -1 -2 -1 -2 -2 -1 -1 -2 -1 -1 -2 -2 -2 -1 -1 -1 -2 -1 -2 -1 -1 -1 -2 -1 -2 -1 -2 -1 -2 0 -2 -1 -2 0 -3 0 -2 -1 -2 0 -2z"/>
   </g>
   <line class="fil0 str1" x1="3647" y1="1024" x2="4418" y2= "1024" />
   <g>
    <rect class="fil0 str0" transform="matrix(-0.725072 -0.725072 0.725072 -0.725072 5679.48 1136.95)" width="464" height="464"/>
    <g>
     <polygon class="fil1" points="5762,660 5687,660 5687,735 5666,735 5666,660 5591,660 5591,639 5666,639 5666,564 5687,564 5687,639 5762,639 "/>
     <polygon class="fil1" points="5760,993 5594,993 5594,974 5760,974 "/>
    </g>
   </g>
   <g>
    <rect class="fil0 str0" transform="matrix(-0.725072 -0.725072 0.725072 -0.725072 6343.69 1610.67)" width="464" height="464"/>
    <g>
     <polygon class="fil1" points="6427,1134 6351,1134 6351,1209 6331,1209 6331,1134 6255,1134 6255,1113 6331,1113 6331,1038 6351,1038 6351,1113 6427,1113 "/>
     <polygon class="fil1" points="6424,1467 6258,1467 6258,1448 6424,1448 "/>
    </g>
   </g>
   <g>
    <path class="fil1" d="M5681 292l5 172 -13 0 -5 -171 7 -7 6 6zm-13 1l0 -7 7 0 -7 7zm1209 5l-1202 0 0 -12 1202 0 0 12zm30 -49l0 22 0 0 -1 0 -1 0 -1 0 -1 0 -1 0 -1 1 -1 0 -1 0 -1 1 -1 0 -1 1 -1 0 -1 1 -1 1 0 0 -1 1 -1 1 -1 1 0 0 -1 1 0 1 -1 1 0 1 -1 1 0 1 0 1 -1 1 0 1 0 1 0 1 0 1 0 1 -22 0 0 -2 0 -2 0 -2 1 -2 0 -2 1 -3 1 -2 0 -2 1 -1 1 -2 1 -2 1 -2 2 -2 1 -1 1 -2 2 -1 1 -2 2 -1 1 -1 2 -2 2 -1 2 -1 1 -1 2 -1 2 0 2 -1 2 -1 2 0 3 0 2 -1 2 0 2 0 0 0zm43 43l-21 0 0 0 0 -1 0 -1 0 -1 -1 -1 0 -1 0 -1 0 -1 -1 -1 0 -1 -1 -1 0 -1 -1 -1 0 -1 -1 0 -1 -1 -1 -1 0 -1 -1 0 -1 -1 -1 -1 -1 0 -1 -1 0 0 -1 -1 -1 0 -1 0 -1 -1 -1 0 -2 0 -1 0 -1 0 -1 0 0 -22 2 0 3 0 2 1 2 0 2 0 2 1 2 1 2 0 2 1 2 1 2 1 1 1 2 2 2 1 1 1 2 2 1 1 2 2 1 1 1 2 1 2 1 2 1 2 1 1 1 2 1 2 0 3 1 2 0 2 0 2 0 2 0 2 0 0zm-43 44l0 -22 0 0 1 0 1 0 1 0 2 0 1 -1 1 0 1 0 1 -1 1 0 0 -1 1 0 1 -1 1 0 1 -1 1 -1 0 0 1 -1 1 -1 1 -1 0 -1 1 0 0 -1 1 -1 0 -1 1 -1 0 -1 0 -1 0 -1 1 -1 0 -1 0 -2 0 -1 21 0 0 3 0 2 0 2 0 2 -1 2 0 2 -1 2 -1 2 -1 2 -1 2 -1 2 -1 2 -1 1 -1 2 -2 1 -1 2 -2 1 -1 2 -2 1 -2 1 -1 1 -2 1 -2 1 -2 1 -2 1 -2 1 -2 0 -2 1 -2 0 -2 0 -3 1 -2 0 0 0zm-43 -44l22 0 0 1 0 2 0 1 0 1 0 1 1 1 0 1 0 1 1 1 0 1 1 1 0 0 1 1 0 1 1 1 1 1 1 0 0 1 1 1 1 0 1 1 1 0 1 1 1 0 1 1 1 0 1 0 1 1 1 0 1 0 1 0 1 0 0 22 -2 0 -2 -1 -2 0 -3 0 -2 -1 -2 0 -2 -1 -2 -1 -2 -1 -1 -1 -2 -1 -2 -1 -2 -1 -1 -1 -2 -2 -1 -1 -2 -2 -1 -1 -1 -2 -2 -1 -1 -2 -1 -2 -1 -2 -1 -2 0 -2 -1 -2 -1 -2 0 -2 -1 -2 0 -2 0 -2 0 -3z"/>
   </g>
   <g>
    <path class="fil1" d="M5673 1749l0 -612 13 0 0 612 -7 6 -6 -6zm6 6l-6 0 0 -6 6 6zm1178 0l-1178 0 0 -12 1178 0 0 12zm30 -49l0 21 0 0 -1 0 -1 1 -1 0 -2 0 -1 0 -1 0 -1 1 -1 0 -1 1 0 0 -1 1 -1 0 -1 1 -1 0 -1 1 0 1 -1 1 -1 0 -1 1 0 1 -1 1 0 1 -1 1 0 1 -1 1 0 1 0 1 0 1 -1 1 0 1 0 1 0 1 -21 0 0 -2 0 -2 0 -3 0 -2 1 -2 0 -2 1 -2 1 -2 1 -2 1 -2 1 -1 1 -2 1 -2 1 -1 2 -2 1 -2 2 -1 1 -1 2 -2 2 -1 1 -1 2 -1 2 -1 2 -1 2 -1 2 0 2 -1 2 0 2 -1 2 0 3 0 2 0 0 0zm43 43l-22 0 0 0 0 -1 0 -1 0 -1 0 -1 0 -1 -1 -1 0 -1 0 -1 -1 -1 0 -1 -1 -1 0 -1 -1 -1 0 -1 -1 0 -1 -1 -1 -1 0 -1 -1 0 -1 -1 -1 0 -1 -1 -1 0 -1 -1 -1 0 -1 -1 -1 0 -1 0 -1 0 -1 0 -1 -1 -1 0 0 -21 2 0 2 0 2 0 3 1 2 0 2 1 2 0 2 1 2 1 1 1 2 1 2 1 2 1 1 2 2 1 1 1 2 2 1 2 1 1 2 2 1 2 1 1 1 2 1 2 0 2 1 2 1 2 0 2 1 2 0 3 0 2 0 2 0 0zm-43 43l0 -21 0 0 1 0 1 0 1 -1 1 0 1 0 1 0 1 -1 1 0 1 0 1 -1 1 0 1 -1 1 -1 1 0 0 -1 1 -1 1 0 1 -1 0 -1 1 -1 0 -1 1 -1 0 -1 1 -1 0 -1 0 -1 1 -1 0 -1 0 -1 0 -1 0 -1 0 -1 22 0 0 2 0 2 0 3 -1 2 0 2 -1 2 -1 2 0 2 -1 2 -1 2 -1 2 -1 1 -2 2 -1 2 -1 1 -2 2 -1 1 -2 1 -1 2 -2 1 -2 1 -2 1 -1 1 -2 1 -2 1 -2 0 -2 1 -2 0 -3 1 -2 0 -2 0 -2 0 0 0zm-43 -43l21 0 0 1 0 1 0 1 1 1 0 1 0 1 0 1 1 1 0 1 1 1 0 1 1 1 0 1 1 1 1 1 1 0 0 1 1 1 1 0 1 1 1 1 1 0 0 1 1 0 1 0 1 1 1 0 1 0 2 0 1 1 1 0 1 0 0 21 -2 0 -3 0 -2 0 -2 -1 -2 0 -2 -1 -2 0 -2 -1 -2 -1 -2 -1 -2 -1 -1 -1 -2 -1 -2 -2 -1 -1 -2 -1 -1 -2 -2 -1 -1 -2 -1 -2 -1 -1 -1 -2 -1 -2 -1 -2 -1 -2 -1 -2 0 -2 -1 -2 0 -2 0 -3 0 -2 0 -2z"/>
   </g>
   <g>
    <path class="fil1" d="M6338 1749l0 -138 12 0 0 138 -12 0zm49 0l0 0 0 2 0 2 -1 3 0 2 0 2 -1 2 -1 2 0 2 -1 2 -1 2 -1 1 -1 2 -2 2 -1 2 -1 1 -2 2 -1 1 -2 1 -1 2 -2 1 -2 1 -2 1 -2 1 -1 1 -2 1 -2 0 -3 1 -2 0 -2 1 -2 0 -2 0 -2 0 0 0 -3 0 -2 0 -2 0 -2 -1 -2 0 -2 -1 -2 0 -2 -1 -2 -1 -2 -1 -2 -1 -1 -1 -2 -1 -2 -2 -1 -1 -2 -1 -1 -2 -2 -1 -1 -2 -1 -2 -1 -2 -1 -1 -1 -2 -1 -2 -1 -2 -1 -2 0 -2 -1 -2 0 -2 0 -3 -1 -2 0 -2 0 0 0 -2 1 -2 0 -3 0 -2 1 -2 0 -2 1 -2 1 -2 1 -2 1 -2 1 -1 1 -2 1 -2 1 -1 2 -2 1 -2 2 -1 1 -1 2 -2 2 -1 1 -1 2 -1 2 -1 2 -1 2 -1 2 0 2 -1 2 0 2 -1 2 0 2 0 3 0 0 0 2 0 2 0 2 0 2 1 2 0 3 1 2 0 2 1 1 1 2 1 2 1 2 1 2 1 1 2 2 1 1 1 2 2 1 2 1 1 2 2 1 2 1 1 1 2 1 2 0 2 1 2 1 2 0 2 0 2 1 3 0 2 0 2z"/>
   </g>
   <g>
    <path class="fil1" d="M4658 1030l-240 0 0 -12 240 0 0 12zm0 51l-11 0 0 -113 22 0 0 113 -11 0z"/>
   </g>
   <g>
    <path class="fil1" d="M6350 804l0 134 -12 0 0 -134 6 -6 6 6zm-12 0l0 -6 6 0 -6 6zm569 6l-563 0 0 -12 563 0 0 12zm0 50l-11 0 0 -113 22 0 0 113 -11 0z"/>
   </g>
   <g>
    <path class="fil1" d="M111 523l0 1054 -12 0 0 -1054 12 0zm-6 -76l65 152 -4 -2 -4 -2 -4 -2 -4 -1 -5 -2 -4 -1 -4 -1 -4 -2 -4 -1 -4 0 -4 -1 -4 -1 -4 0 -4 0 -4 -1 -4 0 -4 0 -4 1 -4 0 -4 0 -4 1 -5 1 -4 0 -4 1 -4 2 -4 1 -4 1 -4 2 -4 1 -4 2 -4 2 -4 2 0 0 65 -152z"/>
   </g>
   <g>
    <path class="fil1" d="M2066 486l-80 424 -12 -2 80 -424 12 2zm9 -76l35 161 -4 -3 -3 -2 -4 -3 -4 -2 -3 -2 -4 -2 -4 -2 -4 -2 -3 -2 -4 -1 -4 -2 -4 -1 -4 -1 -4 -1 -4 -1 -4 -1 -4 -1 -4 0 -4 -1 -4 0 -4 0 -4 0 -4 0 -4 0 -5 0 -4 0 -4 1 -4 1 -5 0 -4 1 -4 1 -5 2 0 0 93 -137z"/>
   </g>
   <g>
    <path class="fil1" d="M4840 476l12 -4 10 36 11 36 9 35 10 36 9 37 8 36 8 36 8 37 7 36 6 37 5 36 5 37 4 36 3 36 2 37 2 36 1 36 -1 36 -1 35 -3 36 -3 35 -5 35 -6 35 -7 34 -8 34 -10 34 -11 34 -12 33 -14 32 -15 32 -16 32 -18 31 -11 -6 18 -31 16 -31 15 -32 14 -32 12 -32 11 -33 9 -34 8 -33 7 -34 6 -35 5 -34 3 -35 3 -35 1 -36 0 -35 0 -36 -2 -36 -2 -36 -3 -36 -4 -36 -5 -36 -5 -37 -6 -36 -7 -36 -8 -36 -8 -37 -8 -36 -9 -36 -9 -35 -10 -36 -10 -36 -11 -35zm-16 -75l106 127 -4 -1 -5 -1 -4 0 -5 -1 -4 0 -4 0 -4 0 -5 0 -4 1 -4 0 -4 0 -4 1 -4 1 -4 1 -4 1 -4 1 -4 1 -4 1 -3 2 -4 1 -4 2 -3 2 -4 2 -4 2 -3 2 -4 3 -3 2 -4 3 -3 2 -4 3 -3 3 -3 3 0 0 18 -164z"/>
   </g>
   <g>
    <path class="fil1" d="M1825 289l42 0 0 13 -42 0 0 -13zm-77 7l152 -65 -2 4 -2 4 -2 4 -1 4 -2 4 -1 4 -1 4 -1 4 -1 4 -1 4 -1 4 0 4 -1 4 0 4 0 4 0 5 0 4 0 4 0 4 1 4 0 4 1 4 1 4 1 4 1 4 1 4 1 4 2 4 1 4 2 4 2 4 2 5 0 0 -152 -65z"/>
   </g>
   <g>
    <path class="fil1" d="M1825 1740l42 0 0 12 -42 0 0 -12zm-77 6l152 -65 -2 4 -2 4 -2 4 -1 4 -2 4 -1 4 -1 4 -1 4 -1 5 -1 4 -1 4 0 4 -1 4 0 4 0 4 0 4 0 4 0 4 0 4 1 4 0 4 1 4 1 4 1 4 1 4 1 5 1 4 2 4 1 4 2 4 2 4 2 4 0 0 -152 -65z"/>
   </g>
   <path class="fil1" d="M0 208l1 -22c5,2 10,2 14,2 5,0 8,-1 11,-3 4,-3 8,-8 12,-15l8 -13 -23 -134 23 0 10 67c2,13 4,26 5,40l60 -107 23 0 -85 151c-8,15 -15,24 -22,29 -6,5 -13,7 -22,7 -5,0 -10,0 -15,-2z"/>
   <path id="1" class="fil1" d="M127 208l38 -185 22 0 -4 18c7,-8 14,-13 21,-17 6,-3 12,-4 19,-4 13,0 24,4 32,14 8,9 13,22 13,39 0,14 -3,27 -7,38 -5,12 -11,21 -17,28 -7,7 -14,12 -21,15 -7,4 -14,5 -21,5 -16,0 -29,-8 -37,-24l-16 73 -22 0zm45 -106c0,10 0,17 2,20 2,6 5,10 10,14 5,3 11,5 17,5 13,0 24,-8 32,-22 8,-15 12,-30 12,-46 0,-11 -3,-20 -8,-26 -6,-6 -12,-9 -21,-9 -5,0 -11,2 -16,5 -5,3 -9,7 -14,13 -4,6 -7,14 -10,23 -3,9 -4,16 -4,23z"/>
   <polygon class="fil1" points="1529,185 1568,0 1592,0 1554,185 "/>
   <path id="1" class="fil1" d="M1586 185l58 -68 -34 -66 26 0 11 23c4,9 8,18 11,26l39 -49 28 0 -56 67 34 67 -26 0 -13 -28c-3,-5 -6,-13 -10,-21l-40 49 -28 0z"/>
   <path id="2" class="fil1" d="M1713 236l38 -185 21 0 -4 18c8,-8 15,-13 21,-16 7,-4 13,-5 20,-5 13,0 23,5 32,14 8,9 12,22 12,40 0,13 -2,26 -7,38 -4,11 -10,20 -17,27 -6,7 -13,12 -20,15 -7,4 -14,5 -21,5 -16,0 -29,-8 -38,-24l-15 73 -22 0zm45 -106c0,10 0,17 2,21 2,5 5,9 10,13 5,3 10,5 17,5 13,0 23,-8 32,-22 8,-15 12,-30 12,-45 0,-12 -3,-20 -8,-27 -6,-6 -13,-9 -21,-9 -6,0 -11,2 -16,5 -5,3 -9,7 -14,14 -4,6 -8,13 -10,22 -3,9 -4,16 -4,23z"/>
   <polygon class="fil1" points="1671,2019 1709,1835 1734,1835 1695,2019 "/>
   <path id="1" class="fil1" d="M1727 2019l58 -67 -33 -66 25 0 12 23c4,9 8,18 11,26l38 -49 28 0 -56 67 34 66 -25 0 -14 -27c-3,-6 -6,-13 -9,-21l-40 48 -29 0z"/>
   <path id="2" class="fil1" d="M1865 2019l28 -133 21 0 -5 23c9,-9 17,-16 25,-20 8,-4 16,-6 24,-6 11,0 20,3 26,9 6,6 9,13 9,23 0,5 -1,13 -3,24l-18 80 -23 0 19 -84c2,-8 3,-14 3,-18 0,-5 -2,-8 -5,-11 -3,-3 -8,-4 -13,-4 -12,0 -23,4 -32,12 -10,9 -16,23 -21,43l-13 62 -22 0z"/>
   <path class="fil1" d="M6791 194l-14 -134 22 0 6 60 2 34c0,2 1,7 1,15 3,-9 5,-15 7,-20 1,-4 4,-11 8,-19l32 -70 25 0 4 67c1,10 1,23 2,40 4,-11 11,-26 20,-46l29 -61 23 0 -66 134 -24 0 -4 -79c-1,-5 -1,-14 -1,-28 -4,9 -8,18 -13,29l-35 78 -24 0z"/>
   <path id="1" class="fil1" d="M6941 245l39 -185 21 0 -4 19c8,-9 15,-14 21,-17 6,-3 13,-5 19,-5 13,0 24,5 32,14 9,9 13,22 13,40 0,14 -3,26 -7,38 -5,11 -10,20 -17,27 -7,7 -14,12 -21,16 -6,3 -14,4 -21,4 -16,0 -28,-8 -37,-24l-15 73 -23 0zm45 -106c0,10 1,17 2,21 2,5 6,10 10,13 5,3 11,5 17,5 13,0 24,-7 32,-22 8,-15 12,-30 12,-45 0,-12 -3,-20 -8,-26 -5,-7 -12,-10 -20,-10 -6,0 -11,2 -16,5 -5,3 -10,8 -14,14 -5,6 -8,13 -11,22 -3,9 -4,16 -4,23z"/>
   <path class="fil1" d="M6662 2009l-14 -134 22 0 6 61 2 33c1,3 1,8 1,15 3,-8 5,-14 7,-19 2,-5 4,-11 8,-20l32 -70 25 0 4 67c1,11 2,24 2,41 4,-11 11,-27 20,-47l29 -61 23 0 -65 134 -24 0 -5 -78c0,-5 -1,-15 -1,-29 -4,9 -8,19 -13,29l-35 78 -24 0z"/>
   <path id="1" class="fil1" d="M6823 2009l28 -134 21 0 -5 24c9,-9 17,-16 25,-20 8,-4 16,-6 24,-6 11,0 20,3 26,8 6,6 10,14 10,24 0,5 -2,13 -4,23l-18 81 -23 0 19 -84c2,-9 3,-15 3,-19 0,-4 -2,-8 -5,-10 -3,-3 -7,-5 -13,-5 -12,0 -23,5 -32,13 -9,8 -16,23 -21,43l-12 62 -23 0z"/>
   <g>
    <path class="fil1" d="M7044 434l8 -8 16 15 16 15 15 15 15 14 14 14 14 13 12 14 12 13 11 13 11 13 9 13 8 12 8 13 6 13 5 12 4 13 2 13 1 13 0 13 -2 13 -3 13 -4 13 -7 14 -8 13 -9 14 -11 14 -13 14 -15 15 -17 15 -18 15 -20 16 -23 16 -7 -10 22 -16 20 -15 18 -15 17 -15 14 -14 12 -14 11 -13 9 -13 7 -13 6 -12 5 -13 2 -12 2 -11 0 -12 -1 -12 -2 -11 -4 -12 -4 -12 -6 -11 -7 -12 -8 -12 -9 -13 -10 -12 -11 -13 -12 -13 -12 -13 -13 -14 -14 -13 -15 -15 -15 -14 -16 -15 -16 -16zm-52 -56l155 56 -4 2 -4 2 -4 1 -4 2 -4 2 -4 2 -3 2 -4 3 -4 2 -3 2 -3 3 -3 2 -3 3 -3 3 -3 3 -3 3 -3 3 -3 3 -2 3 -3 3 -2 3 -2 4 -2 3 -3 4 -2 4 -1 3 -2 4 -2 4 -2 4 -1 4 -2 5 -1 4 0 0 -66 -151z"/>
   </g>
   <path class="fil1" d="M4219 187l4 -17 71 -81c6,-6 11,-12 18,-18 -11,1 -19,2 -24,2l-49 0 4 -19 103 0 -3 14 -73 82c-4,4 -10,10 -18,18 13,0 22,-1 26,-1l53 0 -4 20 -108 0z"/>
   <path id="1" class="fil1" d="M4341 239l38 -185 21 0 -4 18c8,-8 15,-13 21,-17 7,-3 13,-4 20,-4 13,0 23,4 32,14 8,9 12,22 12,39 0,14 -2,27 -7,38 -4,12 -10,21 -17,28 -6,7 -13,12 -20,15 -7,4 -14,5 -21,5 -16,0 -29,-8 -38,-24l-15 73 -22 0zm45 -106c0,10 0,17 2,20 2,6 5,10 10,14 5,3 10,5 17,5 13,0 23,-8 32,-22 8,-15 12,-30 12,-46 0,-11 -3,-20 -8,-26 -6,-6 -13,-9 -21,-9 -6,0 -11,2 -16,5 -5,3 -9,7 -14,13 -4,6 -8,14 -10,23 -3,9 -4,16 -4,23z"/>
   <path class="fil1" d="M4249 2021l3 -18 72 -81c5,-5 11,-11 17,-18 -11,2 -18,2 -23,2l-50 0 4 -19 104 0 -3 14 -73 82c-4,5 -10,11 -18,19 13,-1 21,-1 26,-1l52 0 -4 20 -107 0z"/>
   <path id="1" class="fil1" d="M4381 2021l28 -134 21 0 -5 23c9,-9 17,-15 25,-20 8,-4 16,-6 24,-6 11,0 20,3 26,9 6,6 10,14 10,24 0,5 -2,12 -4,23l-18 81 -23 0 19 -85c2,-8 3,-14 3,-18 0,-4 -2,-8 -5,-11 -3,-3 -7,-4 -13,-4 -12,0 -23,4 -32,13 -9,8 -16,22 -21,43l-13 62 -22 0z"/>
   <path class="fil1" d="M201 1166l-36 -184 24 0 21 110c4,20 7,36 8,48 8,-15 14,-28 19,-37l66 -121 25 0 -101 184 -26 0z"/>
   <path id="1" class="fil1" d="M301 1218l1 -22c5,2 9,2 14,2 4,0 8,-1 11,-3 4,-2 8,-8 12,-15l7 -13 -22 -134 22 0 10 67c3,13 4,26 6,40l59 -107 24 0 -85 151c-8,15 -16,25 -22,29 -6,5 -14,8 -22,8 -5,0 -10,-1 -15,-3z"/>
   <path class="fil1" d="M5053 1166l-35 -184 24 0 21 110c4,20 6,36 8,48 8,-15 14,-28 19,-37l65 -121 26 0 -101 184 -27 0z"/>
   <path id="1" class="fil1" d="M5163 1166l4 -17 71 -81c5,-6 11,-12 17,-18 -10,1 -18,2 -23,2l-50 0 5 -19 103 0 -3 14 -73 82c-4,4 -10,11 -18,18 13,0 21,-1 26,-1l53 0 -4 20 -108 0z"/>
   <path class="fil1" d="M1083 447l21 0 -17 58c-1,3 -3,9 -5,17 3,13 6,20 7,23 3,5 7,7 12,7 3,0 6,-2 9,-4 3,-3 5,-7 5,-13l6 0c-2,12 -4,20 -8,25 -4,4 -8,7 -13,7 -5,0 -10,-2 -14,-6 -3,-4 -7,-13 -10,-26 -4,7 -7,13 -11,16 -5,6 -10,9 -16,12 -6,3 -12,4 -20,4 -18,0 -32,-6 -41,-19 -8,-12 -13,-26 -13,-42 0,-18 5,-33 16,-45 10,-11 22,-17 36,-17 9,0 18,3 25,9 7,6 14,17 20,33l11 -39zm-16 53c-4,-18 -10,-30 -17,-37 -7,-6 -14,-10 -22,-10 -8,0 -15,5 -20,14 -6,9 -8,23 -8,43 0,11 1,21 3,27 2,7 6,12 11,16 4,3 9,5 15,5 6,0 12,-3 17,-9 8,-8 15,-24 21,-49z"/>
   <path id="1" class="fil1" d="M1150 506l31 -16 3 0 0 108c0,7 1,12 1,14 1,2 2,3 4,4 2,1 6,1 12,1l0 4 -49 0 0 -4c6,0 10,0 12,-1 2,-1 3,-2 4,-4 1,-2 1,-6 1,-14l0 -69c0,-9 -1,-15 -1,-18 -1,-2 -1,-3 -3,-4 -1,-1 -2,-2 -4,-2 -2,0 -5,1 -10,3l-1 -2z"/>
   <polygon id="2" class="fil1" points="1254,483 1254,457 1280,457 1280,483 "/>
   <path id="3" class="fil1" d="M1377 563l-35 -185 24 0 21 110c4,20 6,37 8,49 8,-16 14,-28 19,-38l66 -121 25 0 -101 185 -27 0z"/>
   <path id="4" class="fil1" d="M1477 614l1 -21c5,1 10,2 14,2 5,0 9,-1 11,-3 4,-3 8,-8 13,-16l7 -13 -22 -134 22 0 10 67c2,14 4,27 5,40l60 -107 24 0 -86 151c-8,15 -15,25 -21,30 -7,5 -14,7 -22,7 -6,0 -11,-1 -16,-3z"/>
   <path class="fil1" d="M2194 875l-35 -185 24 0 21 110c4,20 6,36 8,48 8,-15 14,-28 19,-37l66 -121 25 0 -101 185 -27 0z"/>
   <path id="1" class="fil1" d="M2299 875l58 -68 -34 -66 26 0 11 24c4,8 8,17 11,25l39 -49 27 0 -55 67 34 67 -26 0 -13 -28c-3,-5 -6,-13 -10,-21l-40 49 -28 0z"/>
   <path id="2" class="fil1" d="M2426 926l38 -185 21 0 -4 19c8,-9 15,-14 21,-17 7,-3 13,-5 20,-5 13,0 23,5 32,14 8,9 12,22 12,40 0,13 -2,26 -7,38 -4,11 -10,20 -17,27 -6,7 -13,12 -20,16 -7,3 -14,4 -21,4 -16,0 -29,-8 -38,-24l-15 73 -22 0zm44 -106c0,10 1,17 3,21 2,5 5,10 10,13 5,3 10,5 17,5 13,0 23,-8 32,-22 8,-15 12,-30 12,-45 0,-12 -3,-20 -9,-26 -5,-7 -12,-10 -20,-10 -6,0 -11,2 -16,5 -5,3 -10,8 -14,14 -4,6 -8,13 -10,22 -3,9 -5,16 -5,23z"/>
   <path class="fil1" d="M2030 1253l-47 92 8 32c3,13 6,21 10,24 3,4 7,5 13,5 6,0 11,-2 15,-5 4,-4 6,-10 6,-18l5 0c0,2 0,4 0,5 0,11 -3,20 -10,28 -4,5 -9,8 -16,8 -5,0 -9,-1 -12,-4 -4,-2 -7,-6 -9,-11 -4,-8 -7,-14 -8,-20l-8 -33 -33 66 -22 0 48 -95 -10 -38c-2,-8 -4,-13 -7,-16 -3,-2 -7,-3 -12,-3 -5,0 -10,1 -13,5 -4,3 -6,9 -6,17l-5 0c0,-15 3,-26 9,-33 4,-6 9,-8 16,-8 6,0 12,2 15,7 4,5 7,11 9,19l10 38 32 -62 22 0z"/>
   <path id="1" class="fil1" d="M2072 1311l32 -15 3 0 0 108c0,7 0,11 1,13 0,2 1,3 3,4 2,1 6,2 12,2l0 3 -48 0 0 -3c6,0 9,-1 11,-2 2,-1 4,-2 4,-4 1,-1 1,-6 1,-13l0 -69c0,-10 0,-16 -1,-18 0,-2 -1,-4 -2,-5 -2,-1 -3,-1 -5,-1 -2,0 -5,1 -9,3l-2 -3z"/>
   <polygon id="2" class="fil1" points="2176,1288 2176,1262 2202,1262 2202,1288 "/>
   <path id="3" class="fil1" d="M2299 1368l-35 -184 24 0 21 110c4,20 7,36 8,48 8,-16 14,-28 19,-37l66 -121 25 0 -101 184 -27 0z"/>
   <path id="4" class="fil1" d="M2404 1368l58 -67 -33 -66 25 0 11 23c5,9 8,18 12,26l38 -49 28 0 -56 67 34 66 -25 0 -14 -27c-3,-6 -6,-13 -10,-21l-40 48 -28 0z"/>
   <path id="5" class="fil1" d="M2531 1420l39 -185 21 0 -4 18c7,-8 14,-13 21,-17 6,-3 12,-4 19,-4 13,0 24,4 32,14 8,9 13,22 13,39 0,14 -3,27 -7,38 -5,12 -11,21 -17,28 -7,7 -14,12 -21,15 -7,4 -14,5 -21,5 -16,0 -29,-8 -37,-24l-16 73 -22 0zm45 -106c0,10 0,17 2,20 2,6 5,10 10,14 5,3 11,5 17,5 13,0 24,-8 32,-22 8,-15 12,-30 12,-46 0,-11 -3,-20 -8,-26 -6,-6 -12,-9 -21,-9 -5,0 -11,2 -16,5 -5,3 -9,7 -14,13 -4,6 -7,14 -10,23 -3,9 -4,16 -4,23z"/>
   <path class="fil1" d="M5913 397l21 0 -16 57c-1,4 -3,9 -5,17 3,13 5,21 7,23 3,5 7,7 11,7 4,0 7,-1 10,-4 2,-3 4,-7 5,-13l5 0c-1,12 -3,20 -7,25 -4,5 -9,7 -14,7 -5,0 -9,-2 -13,-6 -4,-4 -7,-13 -10,-26 -4,7 -8,13 -11,17 -5,5 -10,9 -16,11 -6,3 -13,4 -20,4 -19,0 -32,-6 -41,-19 -9,-12 -13,-26 -13,-42 0,-18 5,-33 15,-45 11,-11 23,-17 36,-17 10,0 18,3 26,9 7,6 14,17 20,33l10 -38zm-15 52c-4,-17 -10,-30 -17,-36 -7,-7 -15,-11 -22,-11 -8,0 -15,5 -21,14 -5,9 -8,23 -8,43 0,12 1,21 4,27 2,7 6,12 10,16 5,4 10,5 15,5 7,0 13,-3 18,-8 7,-8 15,-25 21,-50z"/>
   <path id="1" class="fil1" d="M6047 545l-9 25 -76 0 0 -4c26,-23 43,-43 52,-57 6,-10 9,-19 9,-27 0,-8 -3,-15 -8,-20 -5,-5 -11,-8 -18,-8 -6,0 -12,2 -17,5 -5,4 -8,9 -11,17l-3 0c1,-12 6,-21 12,-27 7,-6 15,-10 24,-10 11,0 19,4 26,10 7,7 11,15 11,24 0,7 -2,13 -5,20 -5,10 -12,21 -23,32 -15,17 -25,27 -29,31l34 0c9,0 15,-1 19,-3 3,-1 6,-4 8,-8l4 0z"/>
   <polygon id="2" class="fil1" points="6085,432 6085,406 6110,406 6110,432 "/>
   <path id="3" class="fil1" d="M6208 512l-35 -184 23 0 22 110c4,20 6,36 8,48 7,-16 14,-28 19,-37l65 -121 26 0 -101 184 -27 0z"/>
   <path id="4" class="fil1" d="M6318 512l3 -18 72 -80c5,-6 11,-12 17,-18 -10,1 -18,1 -23,1l-50 0 4 -19 104 0 -3 15 -73 81c-4,5 -10,11 -18,19 13,-1 21,-1 26,-1l53 0 -5 20 -107 0z"/>
   <path class="fil1" d="M7354 784l-35 -184 23 0 22 110c4,20 6,36 8,48 7,-16 14,-28 19,-37l65 -121 26 0 -101 184 -27 0z"/>
   <path id="1" class="fil1" d="M7493 784l-14 -134 21 0 6 61 3 33c0,3 0,8 1,15 2,-8 5,-14 6,-19 2,-5 5,-11 9,-20l32 -70 24 0 5 67c0,11 1,24 1,41 4,-11 11,-27 20,-47l29 -61 23 0 -65 134 -24 0 -5 -78c0,-5 -1,-15 -1,-29 -3,9 -8,19 -12,29l-36 78 -23 0z"/>
   <path id="2" class="fil1" d="M7643 836l38 -186 21 0 -4 19c8,-8 15,-14 21,-17 6,-3 13,-4 20,-4 13,0 23,4 32,14 8,9 12,22 12,39 0,14 -2,27 -7,38 -4,12 -10,21 -17,28 -6,7 -13,12 -20,15 -7,3 -14,5 -21,5 -16,0 -29,-8 -38,-24l-15 73 -22 0zm44 -106c0,10 1,17 3,20 2,6 5,10 10,13 5,4 10,6 17,6 13,0 23,-8 31,-23 9,-14 13,-29 13,-45 0,-11 -3,-20 -9,-26 -5,-6 -12,-9 -20,-9 -6,0 -11,1 -16,5 -5,3 -10,7 -14,13 -4,6 -8,14 -10,23 -3,8 -5,16 -5,23z"/>
   <path class="fil1" d="M6799 1416l-47 92 8 32c4,13 7,21 10,24 3,4 8,5 13,5 7,0 12,-2 15,-5 4,-4 6,-10 7,-18l5 0c0,2 0,4 0,5 0,11 -4,20 -10,28 -4,5 -10,8 -16,8 -5,0 -9,-1 -13,-4 -4,-2 -7,-6 -9,-11 -4,-8 -6,-14 -8,-20l-8 -33 -33 66 -22 0 48 -95 -9 -37c-2,-9 -5,-14 -7,-17 -3,-2 -7,-3 -12,-3 -6,0 -10,1 -14,5 -3,3 -5,9 -6,17l-5 0c1,-15 4,-26 9,-33 4,-5 10,-8 16,-8 7,0 12,2 16,7 4,5 7,11 9,19l9 38 32 -62 22 0z"/>
   <path id="1" class="fil1" d="M6908 1565l-9 24 -76 0 0 -4c26,-23 43,-42 52,-57 6,-10 9,-19 9,-27 0,-8 -3,-15 -8,-20 -5,-5 -11,-8 -18,-8 -6,0 -12,2 -17,6 -5,3 -8,9 -11,16l-3 0c1,-12 6,-21 12,-27 7,-6 15,-9 24,-9 11,0 19,3 26,10 7,6 11,14 11,23 0,7 -2,13 -5,20 -5,10 -12,21 -23,32 -15,17 -25,27 -29,31l34 0c9,0 15,-1 19,-2 3,-2 6,-4 8,-8l4 0z"/>
   <polygon id="2" class="fil1" points="6946,1451 6946,1425 6971,1425 6971,1451 "/>
   <path id="3" class="fil1" d="M7069 1531l-35 -184 23 0 22 110c4,20 6,36 8,48 7,-16 14,-28 19,-37l65 -121 26 0 -101 184 -27 0z"/>
   <path id="4" class="fil1" d="M7208 1531l-14 -133 22 0 5 60 3 33c0,3 0,8 1,16 2,-9 5,-15 6,-20 2,-5 5,-11 9,-20l32 -69 24 0 5 66c0,11 1,24 1,41 4,-11 11,-27 21,-47l28 -60 23 0 -65 133 -24 0 -5 -78c0,-5 -1,-14 -1,-29 -3,9 -8,19 -12,30l-36 77 -23 0z"/>
   <path id="5" class="fil1" d="M7358 1583l38 -185 21 0 -4 18c8,-8 15,-13 21,-17 6,-3 13,-4 20,-4 13,0 23,4 32,14 8,9 12,22 12,39 0,14 -2,27 -7,38 -4,12 -10,21 -17,28 -6,7 -13,12 -20,15 -7,4 -14,5 -21,5 -16,0 -29,-8 -38,-24l-15 73 -22 0zm44 -106c0,10 1,17 3,20 2,6 5,10 10,14 5,3 10,5 17,5 13,0 23,-8 31,-22 9,-15 13,-30 13,-46 0,-11 -3,-20 -9,-26 -5,-6 -12,-9 -20,-9 -6,0 -11,2 -16,5 -5,3 -10,7 -14,13 -4,6 -8,14 -10,23 -3,9 -5,16 -5,23z"/>
   <path class="fil1" d="M2046 208l58 -67 -34 -66 26 0 11 23c5,9 8,18 11,26l39 -49 28 0 -56 67 34 66 -26 0 -13 -27c-3,-6 -6,-13 -10,-21l-40 48 -28 0z"/>
   <path id="1" class="fil1" d="M2173 260l38 -185 22 0 -4 18c7,-8 14,-13 21,-16 6,-4 12,-5 19,-5 13,0 24,4 32,14 8,9 13,22 13,39 0,14 -3,27 -7,38 -5,12 -11,21 -17,28 -7,7 -14,12 -21,15 -7,4 -14,5 -21,5 -16,0 -29,-8 -37,-24l-16 73 -22 0zm45 -106c0,10 0,17 2,21 2,5 5,9 10,13 5,3 11,5 17,5 13,0 24,-8 32,-22 8,-15 12,-30 12,-45 0,-12 -3,-20 -8,-27 -6,-6 -12,-9 -21,-9 -5,0 -11,2 -16,5 -5,3 -9,7 -14,13 -4,7 -7,14 -10,23 -3,9 -4,16 -4,23z"/>
   <path class="fil1" d="M2120 1905l59 -68 -34 -66 25 0 12 24c4,9 8,17 11,25l39 -49 27 0 -55 68 34 66 -26 0 -13 -27c-3,-6 -6,-13 -10,-22l-40 49 -29 0z"/>
   <path id="1" class="fil1" d="M2258 1905l28 -134 21 0 -5 23c9,-9 18,-15 26,-20 7,-4 15,-6 24,-6 11,0 19,3 25,9 7,6 10,14 10,24 0,5 -1,12 -4,23l-18 81 -22 0 18 -85c2,-8 3,-14 3,-18 0,-4 -1,-8 -4,-11 -4,-3 -8,-4 -14,-4 -12,0 -23,4 -32,13 -9,8 -16,22 -20,43l-13 62 -23 0z"/>
   <path class="fil1" d="M2836 444l0 22c0,13 -1,28 -5,44l-21 0c2,-10 4,-18 4,-21 1,-12 2,-21 2,-26l0 -129c0,-15 1,-26 4,-33 3,-8 9,-14 16,-19 8,-4 17,-7 28,-7 15,0 27,4 36,12 9,8 13,18 13,29 0,7 -1,14 -5,20 -4,7 -9,12 -17,17 23,11 34,27 34,50 0,10 -2,20 -7,28 -5,9 -11,16 -19,20 -9,5 -17,7 -26,7 -5,0 -11,-1 -17,-3 -5,-2 -12,-5 -20,-11zm0 -9c9,5 16,9 22,12 4,2 9,3 13,3 9,0 16,-4 22,-11 5,-7 8,-18 8,-33 0,-10 -1,-18 -4,-25 -3,-7 -7,-15 -14,-24 -6,2 -11,3 -15,3 -5,0 -9,-1 -11,-2 -2,-2 -3,-3 -3,-5 0,-2 1,-3 3,-5 1,-1 4,-1 7,-1 4,0 10,1 19,3 5,-12 8,-23 8,-33 0,-11 -2,-19 -8,-25 -5,-5 -11,-8 -19,-8 -9,0 -17,4 -22,12 -4,5 -6,14 -6,26l0 113z"/>
   <path id="1" class="fil1" d="M2959 397l31 -15 3 0 0 108c0,7 1,11 1,13 1,2 2,3 4,4 2,1 6,2 12,2l0 3 -49 0 0 -3c6,0 10,-1 12,-2 2,-1 3,-2 4,-4 0,-1 1,-6 1,-13l0 -69c0,-10 -1,-16 -1,-18 -1,-2 -2,-4 -3,-5 -1,-1 -2,-1 -4,-1 -2,0 -5,1 -10,3l-1 -3z"/>
   <polygon id="2" class="fil1" points="3063,374 3063,348 3089,348 3089,374 "/>
   <polygon id="3" class="fil1" points="3134,454 3172,270 3197,270 3158,454 "/>
   <path id="4" class="fil1" d="M3190 454l58 -67 -33 -66 25 0 12 23c4,9 8,18 11,26l38 -49 28 0 -56 67 34 66 -25 0 -14 -27c-3,-6 -6,-13 -9,-21l-40 48 -29 0z"/>
   <path id="5" class="fil1" d="M3317 506l39 -185 21 0 -4 18c8,-8 15,-13 21,-17 6,-3 13,-4 20,-4 12,0 23,4 31,14 9,9 13,22 13,39 0,14 -2,27 -7,38 -5,12 -10,21 -17,28 -7,7 -14,12 -21,15 -6,4 -13,5 -21,5 -16,0 -28,-8 -37,-24l-15 73 -23 0zm45 -106c0,10 1,17 2,20 2,6 6,10 11,14 4,3 10,5 16,5 13,0 24,-8 32,-23 8,-14 12,-29 12,-45 0,-11 -2,-20 -8,-26 -5,-6 -12,-9 -20,-9 -6,0 -11,2 -16,5 -5,3 -10,7 -14,13 -4,6 -8,14 -11,23 -3,9 -4,16 -4,23z"/>
   <path class="fil1" d="M2858 1743l0 21c0,14 -2,29 -5,45l-22 0c3,-11 4,-18 5,-22 1,-11 1,-20 1,-26l0 -128c0,-15 2,-26 5,-34 3,-7 8,-13 16,-18 8,-5 17,-7 28,-7 15,0 27,4 36,12 9,8 13,18 13,29 0,7 -2,14 -5,20 -4,6 -10,12 -17,17 22,10 34,27 34,50 0,10 -3,19 -7,28 -5,9 -12,15 -20,20 -8,5 -17,7 -25,7 -6,0 -11,-1 -17,-3 -5,-2 -12,-6 -20,-11zm0 -10c8,6 15,10 21,13 5,1 9,2 14,2 8,0 15,-3 21,-10 6,-7 9,-18 9,-34 0,-9 -1,-17 -4,-25 -3,-7 -8,-15 -15,-23 -6,2 -11,3 -15,3 -5,0 -8,-1 -10,-3 -2,-1 -3,-3 -3,-5 0,-1 0,-3 2,-4 2,-1 4,-2 8,-2 4,0 10,1 18,3 6,-11 9,-22 9,-33 0,-10 -3,-18 -8,-24 -5,-6 -12,-9 -19,-9 -10,0 -17,4 -23,13 -3,5 -5,14 -5,26l0 112z"/>
   <path id="1" class="fil1" d="M3046 1786l-9 25 -75 0 0 -4c26,-24 43,-43 52,-57 5,-10 8,-19 8,-27 0,-9 -2,-15 -7,-20 -5,-6 -11,-8 -18,-8 -6,0 -12,2 -17,5 -5,4 -9,9 -11,16l-3 0c1,-11 5,-20 12,-26 6,-7 14,-10 24,-10 10,0 19,4 26,10 7,7 10,15 10,24 0,6 -1,13 -4,20 -5,10 -13,20 -23,32 -15,17 -25,27 -29,31l33 0c10,0 16,-1 19,-3 4,-1 7,-4 9,-8l3 0z"/>
   <polygon id="2" class="fil1" points="3084,1673 3084,1647 3110,1647 3110,1673 "/>
   <polygon id="3" class="fil1" points="3155,1753 3194,1568 3218,1568 3180,1753 "/>
   <path id="4" class="fil1" d="M3212 1753l58 -68 -34 -66 26 0 11 24c5,9 8,17 11,25l39 -49 28 0 -56 68 34 66 -26 0 -13 -27c-3,-6 -6,-13 -10,-22l-40 49 -28 0z"/>
   <path id="5" class="fil1" d="M3349 1753l28 -134 21 0 -5 24c9,-10 18,-16 26,-20 8,-5 16,-7 24,-7 11,0 19,3 26,9 6,6 9,14 9,24 0,5 -1,13 -3,23l-19 81 -22 0 19 -85c1,-8 2,-14 2,-18 0,-4 -1,-8 -4,-11 -3,-2 -8,-4 -14,-4 -12,0 -22,4 -32,13 -9,8 -16,22 -20,43l-13 62 -23 0z"/>
   <path class="fil1" d="M0 2076l1 -22c5,1 10,2 14,2 5,0 8,-1 11,-3 4,-3 8,-8 12,-16l8 -13 -23 -134 23 0 10 68c2,13 4,26 5,39l60 -107 23 0 -85 152c-8,14 -15,24 -22,29 -6,5 -13,7 -22,7 -5,0 -10,-1 -15,-2z"/>
   <path id="1" class="fil1" d="M137 2024l28 -134 21 0 -5 24c9,-9 18,-16 26,-20 8,-4 16,-6 24,-6 11,0 20,3 26,8 6,6 9,14 9,24 0,5 -1,13 -3,23l-18 81 -23 0 19 -84c2,-9 2,-15 2,-19 0,-4 -1,-8 -4,-10 -3,-3 -8,-5 -14,-5 -12,0 -22,5 -32,13 -9,8 -16,23 -20,43l-13 62 -23 0z"/>
  </g>
 </g>
</svg>
