<?xml version="1.0" encoding="UTF-8"?>
<!DOCTYPE svg PUBLIC "-//W3C//DTD SVG 1.1//EN" "http://www.w3.org/Graphics/SVG/1.1/DTD/svg11.dtd">
<!-- Creator: CorelDRAW Home & Student X8 -->
<svg xmlns="http://www.w3.org/2000/svg" xml:space="preserve" width="170.463mm" height="45.5171mm" version="1.1" style="shape-rendering:geometricPrecision; text-rendering:geometricPrecision; image-rendering:optimizeQuality; fill-rule:evenodd; clip-rule:evenodd"
viewBox="0 0 15700 4192"
 xmlns:xlink="http://www.w3.org/1999/xlink">
 <defs>
  <style type="text/css">
   <![CDATA[
    .str2 {stroke:#2B2A29;stroke-width:36.8403}
    .str0 {stroke:#2B2A29;stroke-width:27.6302}
    .str1 {stroke:#2B2A29;stroke-width:18.4202}
    .fil0 {fill:none}
    .fil1 {fill:#2B2A29;fill-rule:nonzero}
   ]]>
  </style>
 </defs>
 <g id="Warstwa_x0020_1">
  <metadata id="CorelCorpID_0Corel-Layer"/>
  <g id="_721113664">
   <g>
    <rect class="fil0 str0" transform="matrix(-0.966763 -0.966763 0.966763 -0.966763 1702.1 2293.36)" width="702" height="702"/>
    <g>
     <polygon class="fil1" points="1869,1331 1717,1331 1717,1483 1676,1483 1676,1331 1523,1331 1523,1289 1676,1289 1676,1139 1717,1139 1717,1289 1869,1289 "/>
     <polygon class="fil1" points="1865,2003 1530,2003 1530,1964 1865,1964 "/>
    </g>
   </g>
   <g>
    <rect class="fil0 str0" transform="matrix(-0.966763 -0.966763 0.966763 -0.966763 3041.87 3248.91)" width="702" height="702"/>
    <g>
     <polygon class="fil1" points="3209,2286 3057,2286 3057,2439 3016,2439 3016,2286 2863,2286 2863,2245 3016,2245 3016,2094 3057,2094 3057,2245 3209,2245 "/>
     <polygon class="fil1" points="3205,2958 2869,2958 2869,2920 3205,2920 "/>
    </g>
   </g>
   <g>
    <path class="fil1" d="M1701 589l10 346 -18 1 -10 -346 9 -10 9 9zm-18 1l0 -10 9 0 -9 10zm2450 9l-2441 0 0 -19 2441 0 0 19zm46 -75l0 33 0 0 -2 0 -2 0 -1 0 -2 1 -2 0 -1 0 -2 1 -1 1 -2 0 -1 1 -1 1 -2 1 -1 0 -1 1 -1 1 -2 2 -1 1 -1 1 -1 1 -1 1 0 2 -1 1 -1 2 -1 1 0 1 -1 2 0 2 -1 1 0 2 0 1 0 2 0 2 -33 0 0 -4 0 -3 1 -3 0 -3 1 -4 1 -3 1 -3 1 -3 2 -3 1 -3 2 -2 1 -3 2 -3 2 -2 2 -2 2 -3 3 -2 2 -2 2 -2 3 -2 3 -1 2 -2 3 -1 3 -2 3 -1 3 -1 3 -1 3 0 4 -1 3 0 3 -1 4 0 0 0zm65 66l-33 0 0 0 0 -2 0 -2 0 -1 0 -2 -1 -1 0 -2 -1 -2 0 -1 -1 -1 -1 -2 0 -1 -1 -2 -1 -1 -1 -1 -1 -1 -1 -1 -1 -2 -2 -1 -1 -1 -1 0 -2 -1 -1 -1 -1 -1 -2 0 -1 -1 -2 -1 -1 0 -2 0 -1 -1 -2 0 -2 0 -1 0 0 -33 3 0 3 1 3 0 4 1 3 0 3 1 3 1 3 1 3 2 3 1 2 2 3 1 3 2 2 2 3 2 2 2 2 3 2 2 2 2 2 3 1 3 2 2 2 3 1 3 1 3 1 3 1 3 1 4 0 3 1 3 0 3 0 4 0 0zm-65 65l0 -33 0 0 1 0 2 0 2 0 1 0 2 -1 1 0 2 -1 1 0 2 -1 1 0 1 -1 2 -1 1 -1 1 -1 2 -1 1 -1 1 -1 1 -1 1 -2 1 -1 1 -1 0 -2 1 -1 1 -2 0 -1 1 -2 0 -1 1 -2 0 -1 0 -2 0 -2 0 -1 33 0 0 3 0 3 -1 4 0 3 -1 3 -1 3 -1 3 -1 3 -1 3 -2 3 -2 3 -1 2 -2 3 -2 2 -2 3 -2 2 -2 2 -3 2 -2 2 -3 2 -3 2 -2 1 -3 2 -3 1 -3 1 -3 1 -3 1 -3 1 -4 0 -3 1 -3 0 -3 0 0 0zm-66 -65l33 0 0 1 0 2 0 2 0 1 1 2 0 1 1 2 0 1 1 2 1 1 1 2 0 1 1 1 1 2 1 1 1 1 2 1 1 1 1 1 1 1 2 1 1 1 1 0 2 1 1 0 2 1 1 0 2 1 2 0 1 0 2 0 2 0 0 33 -4 0 -3 0 -3 -1 -4 0 -3 -1 -3 -1 -3 -1 -3 -1 -3 -1 -3 -2 -2 -1 -3 -2 -3 -2 -2 -2 -2 -2 -3 -2 -2 -2 -2 -3 -2 -2 -2 -3 -1 -2 -2 -3 -1 -3 -2 -3 -1 -3 -1 -3 -1 -3 -1 -3 0 -3 -1 -4 0 -3 0 -3z"/>
   </g>
   <g>
    <path class="fil1" d="M1693 3528l0 -1235 18 0 0 1235 -9 9 -9 -9zm9 9l-9 0 0 -9 9 9zm2390 0l-2390 0 0 -18 2390 0 0 18zm45 -74l0 32 0 0 -1 0 -2 0 -2 1 -1 0 -2 0 -1 1 -2 0 -1 1 -2 1 -1 0 -2 1 -1 1 -1 1 -1 1 -2 1 -1 1 -1 1 -1 1 -1 1 -1 2 -1 1 0 1 -1 2 -1 1 0 2 -1 1 0 2 -1 1 0 2 0 2 0 1 0 2 -33 0 0 -3 0 -4 1 -3 0 -3 1 -3 1 -3 1 -3 1 -3 1 -3 2 -3 1 -3 2 -3 2 -2 2 -3 2 -2 2 -2 2 -2 3 -2 2 -2 3 -2 2 -2 3 -2 3 -1 3 -1 3 -1 3 -1 3 -1 3 -1 3 -1 4 0 3 0 3 0 0 0zm66 65l-33 0 0 0 0 -2 0 -1 0 -2 0 -2 -1 -1 0 -2 -1 -1 0 -2 -1 -1 -1 -2 -1 -1 0 -1 -1 -2 -1 -1 -1 -1 -1 -1 -2 -1 -1 -1 -1 -1 -1 -1 -2 -1 -1 -1 -1 0 -2 -1 -1 -1 -2 0 -1 -1 -2 0 -2 0 -1 -1 -2 0 -2 0 0 -32 4 0 3 0 3 0 4 1 3 1 3 1 3 1 3 1 3 1 3 1 2 2 3 2 3 2 2 2 2 2 3 2 2 2 2 2 2 3 2 2 1 3 2 3 1 3 2 3 1 3 1 3 1 3 1 3 0 3 1 3 0 4 0 3 0 0zm-66 66l0 -33 0 0 2 0 2 0 1 -1 2 0 2 0 1 -1 2 0 1 -1 2 0 1 -1 1 -1 2 -1 1 -1 1 -1 1 -1 2 -1 1 -1 1 -1 1 -1 1 -2 0 -1 1 -1 1 -2 1 -1 0 -2 1 -1 0 -2 1 -1 0 -2 0 -2 0 -1 0 -2 33 0 0 3 0 4 -1 3 0 3 -1 3 -1 4 -1 3 -1 3 -2 2 -1 3 -2 3 -1 3 -2 2 -2 3 -2 2 -2 2 -3 3 -2 2 -2 2 -3 1 -3 2 -2 2 -3 1 -3 1 -3 2 -3 1 -3 1 -3 0 -4 1 -3 0 -3 0 -4 1 0 0zm-65 -66l33 0 0 2 0 1 0 2 0 2 1 1 0 2 1 1 0 2 1 1 1 2 0 1 1 1 1 2 1 1 1 1 1 1 1 1 2 1 1 1 1 1 1 1 2 1 1 1 2 0 1 1 2 0 1 1 2 0 1 0 2 1 2 0 1 0 0 33 -3 -1 -3 0 -4 0 -3 -1 -3 0 -3 -1 -3 -1 -3 -2 -3 -1 -3 -1 -3 -2 -2 -2 -3 -1 -2 -2 -3 -2 -2 -3 -2 -2 -2 -2 -2 -3 -2 -2 -2 -3 -1 -3 -2 -3 -1 -2 -1 -3 -1 -3 -1 -4 -1 -3 0 -3 -1 -3 0 -4 0 -3z"/>
   </g>
   <g>
    <path class="fil1" d="M3033 3528l0 -279 18 0 0 279 -18 0zm74 0l0 0 0 3 0 4 0 3 -1 3 -1 3 -1 3 -1 4 -1 2 -1 3 -2 3 -1 3 -2 3 -2 2 -2 3 -2 2 -2 2 -2 3 -3 2 -2 2 -3 1 -2 2 -3 2 -3 1 -3 1 -3 2 -3 1 -3 0 -3 1 -3 1 -3 0 -4 0 -3 1 0 0 -3 -1 -4 0 -3 0 -3 -1 -3 -1 -4 0 -3 -1 -3 -2 -2 -1 -3 -1 -3 -2 -3 -2 -2 -1 -3 -2 -2 -2 -2 -3 -3 -2 -2 -2 -2 -3 -1 -2 -2 -3 -2 -3 -1 -3 -1 -3 -2 -2 -1 -4 -1 -3 0 -3 -1 -3 0 -3 -1 -4 0 -3 0 0 0 -3 1 -4 0 -3 1 -3 0 -3 1 -3 1 -3 2 -3 1 -3 1 -3 2 -3 2 -2 1 -3 2 -3 2 -2 3 -2 2 -2 2 -2 3 -2 2 -2 3 -2 3 -1 3 -2 2 -1 3 -1 3 -1 4 -1 3 -1 3 -1 3 0 4 0 3 0 0 0 3 0 4 0 3 0 3 1 3 1 3 1 3 1 3 1 3 1 3 2 3 1 2 2 3 2 2 2 3 2 2 2 2 2 2 2 2 3 2 3 2 2 1 3 2 3 1 3 1 3 1 3 1 3 1 3 1 3 0 3 0 4 0 3z"/>
   </g>
   <g>
    <path class="fil1" d="M3051 1624l0 267 -18 0 0 -267 9 -9 9 9zm-18 0l0 -9 9 0 -9 9zm729 9l-720 0 0 -18 720 0 9 9 -9 9zm0 -18l9 0 0 9 -9 -9zm-10 437l0 -428 19 0 0 428 -9 9 -10 -9zm10 9l-10 0 0 -9 10 9zm3594 14l-3594 -14 0 -19 3594 15 0 18zm0 -75l0 0 4 0 3 1 3 0 3 1 3 0 4 1 3 1 3 2 2 1 3 1 3 2 3 2 2 2 3 1 2 3 2 2 2 2 3 2 1 3 2 2 2 3 2 3 1 3 1 3 1 3 2 3 0 3 1 3 1 3 0 3 0 4 0 3 0 0 0 3 0 4 0 3 -1 3 -1 3 -1 4 -1 3 -1 3 -1 2 -2 3 -1 3 -2 3 -2 2 -2 3 -2 2 -2 2 -2 2 -3 3 -2 1 -3 2 -2 2 -3 2 -3 1 -3 1 -3 1 -3 1 -3 1 -3 1 -3 1 -4 0 -3 0 -3 0 0 0 -4 0 -3 0 -3 0 -4 -1 -3 -1 -3 -1 -3 -1 -3 -1 -3 -1 -3 -2 -2 -1 -3 -2 -2 -2 -3 -2 -2 -2 -3 -2 -2 -2 -2 -3 -2 -2 -2 -3 -1 -2 -2 -3 -1 -3 -2 -3 -1 -3 -1 -3 -1 -3 0 -3 -1 -3 0 -4 -1 -3 0 -3 0 0 0 -4 1 -3 0 -3 1 -4 1 -3 0 -3 1 -3 2 -3 1 -3 1 -3 2 -2 2 -3 2 -3 2 -2 2 -2 2 -3 2 -2 2 -2 3 -2 3 -2 2 -1 3 -2 3 -1 3 -2 3 -1 3 -1 3 -1 3 0 3 -1 3 0 4 -1 3 0z"/>
   </g>
   <g>
    <path class="fil1" d="M1071 645l0 -98 98 0 0 98 -98 0zm-870 -58l919 0 0 18 -919 0 0 -18zm-45 75l0 -33 0 0 2 0 2 0 1 0 2 -1 1 0 2 -1 1 0 2 -1 1 0 2 -1 1 -1 1 -1 2 -1 1 -1 1 -1 1 -1 1 -1 1 -1 1 -1 1 -2 1 -1 1 -1 1 -2 0 -1 1 -2 0 -1 1 -2 0 -1 1 -2 0 -1 0 -2 0 -2 33 0 0 4 -1 3 0 3 -1 3 0 4 -1 3 -1 3 -1 3 -2 3 -1 2 -2 3 -2 3 -1 2 -2 3 -2 2 -3 3 -2 2 -2 2 -3 2 -2 1 -3 2 -3 2 -2 1 -3 2 -3 1 -3 1 -3 1 -4 0 -3 1 -3 0 -3 1 -4 0 0 0zm-65 -66l32 0 0 0 0 2 1 2 0 1 0 2 0 1 1 2 0 1 1 2 1 1 0 2 1 1 1 1 1 2 1 1 1 1 1 1 1 1 1 1 2 1 1 1 1 1 2 1 1 1 1 0 2 1 1 0 2 1 2 0 1 1 2 0 2 0 1 0 0 33 -3 0 -3 -1 -4 0 -3 -1 -3 0 -3 -1 -3 -1 -3 -1 -3 -2 -3 -1 -3 -2 -2 -2 -3 -1 -2 -2 -3 -2 -2 -2 -2 -3 -2 -2 -2 -3 -2 -2 -2 -3 -1 -3 -2 -2 -1 -3 -1 -3 -1 -3 -1 -3 -1 -4 -1 -3 0 -3 0 -3 0 -4 0 0zm65 -65l0 32 0 0 -1 0 -2 1 -2 0 -1 0 -2 0 -2 1 -1 0 -2 1 -1 1 -1 0 -2 1 -1 1 -1 1 -2 1 -1 1 -1 1 -1 1 -1 1 -1 2 -1 1 -1 1 -1 2 0 1 -1 1 -1 2 0 1 -1 2 0 2 0 1 0 2 -1 1 0 2 -32 0 0 -3 0 -3 0 -4 1 -3 1 -3 1 -3 1 -3 1 -3 1 -3 2 -3 1 -3 2 -2 2 -3 2 -2 2 -3 2 -2 2 -2 3 -2 2 -2 3 -2 2 -2 3 -1 3 -2 3 -1 3 -1 3 -1 3 -1 3 -1 3 -1 4 0 3 0 3 0 0 0zm66 65l-33 0 0 -2 0 -1 0 -2 -1 -1 0 -2 -1 -2 0 -1 -1 -2 0 -1 -1 -1 -1 -2 -1 -1 -1 -1 -1 -2 -1 -1 -1 -1 -1 -1 -1 -1 -1 -1 -2 -1 -1 -1 -1 -1 -2 0 -1 -1 -2 -1 -1 0 -2 -1 -1 0 -2 0 -1 0 -2 -1 -2 0 0 -32 4 0 3 0 3 0 3 1 4 1 3 1 3 1 3 1 3 1 2 2 3 1 3 2 2 2 3 2 2 2 2 2 3 2 2 3 2 2 1 3 2 2 2 3 1 3 2 3 1 3 1 3 1 3 0 3 1 3 0 4 1 3 0 3z"/>
   </g>
   <g>
    <path class="fil1" d="M1071 3571l0 -98 98 0 0 98 -98 0zm-870 -59l919 0 0 19 -919 0 0 -19zm-45 75l0 -33 0 0 2 0 2 0 1 0 2 0 1 -1 2 0 1 -1 2 0 1 -1 2 -1 1 0 1 -1 2 -1 1 -1 1 -1 1 -1 1 -1 1 -2 1 -1 1 -1 1 -1 1 -2 1 -1 0 -2 1 -1 0 -2 1 -1 0 -2 1 -1 0 -2 0 -2 0 -1 33 0 0 3 -1 3 0 4 -1 3 0 3 -1 3 -1 3 -1 3 -2 3 -1 3 -2 3 -2 2 -1 3 -2 2 -2 3 -3 2 -2 2 -2 2 -3 2 -2 2 -3 2 -3 1 -2 2 -3 1 -3 1 -3 1 -3 1 -4 1 -3 0 -3 1 -3 0 -4 0 0 0zm-65 -65l32 0 0 0 0 1 1 2 0 2 0 1 0 2 1 1 0 2 1 1 1 2 0 1 1 2 1 1 1 1 1 1 1 2 1 1 1 1 1 1 2 1 1 1 1 1 2 0 1 1 1 1 2 0 1 1 2 0 2 1 1 0 2 0 2 0 1 0 0 33 -3 0 -3 0 -4 -1 -3 0 -3 -1 -3 -1 -3 -1 -3 -1 -3 -1 -3 -2 -3 -1 -2 -2 -3 -2 -2 -2 -3 -2 -2 -2 -2 -2 -2 -3 -2 -2 -2 -3 -2 -2 -1 -3 -2 -3 -1 -3 -1 -3 -1 -3 -1 -3 -1 -3 -1 -3 0 -4 0 -3 0 -3 0 0zm65 -66l0 33 0 0 -1 0 -2 0 -2 0 -1 1 -2 0 -2 0 -1 1 -2 0 -1 1 -1 1 -2 1 -1 1 -1 0 -2 1 -1 1 -1 2 -1 1 -1 1 -1 1 -1 1 -1 2 -1 1 0 2 -1 1 -1 1 0 2 -1 1 0 2 0 2 0 1 -1 2 0 2 -32 0 0 -4 0 -3 0 -3 1 -4 1 -3 1 -3 1 -3 1 -3 1 -3 2 -3 1 -2 2 -3 2 -3 2 -2 2 -2 2 -3 2 -2 3 -2 2 -2 3 -2 2 -1 3 -2 3 -1 3 -2 3 -1 3 -1 3 -1 3 0 3 -1 4 0 3 -1 3 0 0 0zm66 66l-33 0 0 -2 0 -2 0 -1 -1 -2 0 -2 -1 -1 0 -2 -1 -1 0 -1 -1 -2 -1 -1 -1 -2 -1 -1 -1 -1 -1 -1 -1 -1 -1 -2 -1 -1 -1 -1 -2 0 -1 -1 -1 -1 -2 -1 -1 -1 -2 0 -1 -1 -2 0 -1 0 -2 -1 -1 0 -2 0 -2 0 0 -33 4 0 3 1 3 0 3 1 4 0 3 1 3 1 3 1 3 2 2 1 3 2 3 1 2 2 3 2 2 2 2 2 3 3 2 2 2 2 1 3 2 3 2 2 1 3 2 3 1 3 1 3 1 3 0 3 1 4 0 3 1 3 0 4z"/>
   </g>
   <g>
    <g>
     <path class="fil1" d="M7370 1578l-28 0 -84 -130 28 -17 84 129 -28 0 28 18zm0 0l-14 21 -14 -21 28 0zm70 -138l13 8 -83 130 -28 -18 84 -129 14 9zm-70 -478l0 581 -28 0 0 -581 28 0z"/>
    </g>
    <rect class="fil0 str0" transform="matrix(0.966762 0.966762 -0.966762 0.966762 7355.88 596.178)" width="702" height="702"/>
   </g>
   <g>
    <g>
     <path class="fil1" d="M7342 2540l28 0 83 130 -27 17 -84 -129 28 0 -28 -18zm0 0l14 -21 14 21 -28 0zm-70 138l-14 -8 84 -130 28 18 -84 129 -14 -9zm70 478l0 -581 28 0 0 581 -28 0z"/>
    </g>
    <rect class="fil0 str0" transform="matrix(-0.966762 -0.966762 0.966762 -0.966762 7355.89 3521.74)" width="702" height="702"/>
   </g>
   <line class="fil0 str1" x1="7356" y1="1954" x2="7356" y2= "2178" />
   <g>
    <path class="fil1" d="M9338 605l-1968 0 0 -18 1968 0 0 18zm46 -74l0 32 0 0 -2 0 -2 1 -1 0 -2 0 -1 0 -2 1 -2 0 -1 1 -1 1 -2 0 -1 1 -2 1 -1 1 -1 1 -1 1 -1 1 -2 1 -1 1 -1 2 0 1 -1 1 -1 2 -1 1 -1 1 0 2 -1 1 0 2 0 2 -1 1 0 2 0 1 0 2 -33 0 0 -3 1 -3 0 -4 1 -3 0 -3 1 -3 1 -3 1 -3 2 -3 1 -3 2 -3 1 -2 2 -3 2 -2 2 -3 2 -2 3 -2 2 -2 3 -2 2 -2 3 -2 2 -1 3 -2 3 -1 3 -1 3 -1 3 -1 4 -1 3 -1 3 0 3 0 4 0 0 0zm65 65l-33 0 0 0 0 -2 0 -1 0 -2 0 -1 -1 -2 0 -2 -1 -1 0 -2 -1 -1 -1 -1 0 -2 -1 -1 -1 -1 -1 -2 -1 -1 -1 -1 -1 -1 -2 -1 -1 -1 -1 -1 -1 -1 -2 -1 -1 0 -2 -1 -1 -1 -2 0 -1 -1 -2 0 -1 0 -2 0 -2 -1 -1 0 0 -32 3 0 3 0 4 0 3 1 3 1 3 1 3 1 3 1 3 1 3 2 3 1 2 2 3 2 2 2 3 2 2 2 2 2 2 3 2 2 2 3 2 2 1 3 2 3 1 3 1 3 1 3 1 3 1 3 0 3 1 4 0 3 0 3 0 0zm-65 66l0 -33 0 0 1 0 2 0 2 0 1 -1 2 0 1 -1 2 0 1 -1 2 0 1 -1 2 -1 1 -1 1 -1 1 -1 2 -1 1 -1 1 -1 1 -1 1 -1 1 -2 1 -1 0 -1 1 -2 1 -1 0 -2 1 -1 0 -2 1 -1 0 -2 0 -1 0 -2 0 -2 33 0 0 4 0 3 -1 3 0 3 -1 4 -1 3 -1 3 -1 3 -1 3 -2 2 -1 3 -2 3 -2 2 -2 3 -2 2 -2 3 -2 2 -3 2 -2 2 -3 1 -2 2 -3 2 -3 1 -3 2 -3 1 -3 1 -3 1 -3 0 -3 1 -4 0 -3 1 -3 0 0 0zm-66 -66l33 0 0 2 0 2 0 1 1 2 0 1 0 2 1 1 0 2 1 1 1 2 1 1 1 1 0 2 1 1 1 1 2 1 1 1 1 1 1 1 1 1 2 1 1 1 2 1 1 0 1 1 2 0 2 1 1 0 2 1 1 0 2 0 2 0 0 33 -4 0 -3 -1 -3 0 -3 -1 -4 0 -3 -1 -3 -1 -3 -1 -3 -2 -3 -1 -2 -2 -3 -2 -2 -1 -3 -2 -2 -2 -3 -2 -2 -3 -2 -2 -2 -3 -2 -2 -1 -3 -2 -3 -1 -2 -2 -3 -1 -3 -1 -3 -1 -3 0 -4 -1 -3 0 -3 -1 -3 0 -4z"/>
   </g>
   <g>
    <path class="fil1" d="M9550 3531l-2180 0 0 -18 2180 0 0 18zm45 -75l0 33 0 0 -2 0 -1 0 -2 0 -2 1 -1 0 -2 0 -1 1 -2 1 -1 0 -2 1 -1 1 -1 1 -2 0 -1 1 -1 1 -1 2 -1 1 -1 1 -1 1 -1 1 -1 2 -1 1 -1 2 0 1 -1 1 0 2 -1 2 0 1 -1 2 0 1 0 2 0 2 -33 0 0 -4 1 -3 0 -3 1 -3 0 -4 1 -3 1 -3 2 -3 1 -3 1 -3 2 -2 2 -3 1 -2 2 -3 2 -2 3 -3 2 -2 2 -2 3 -2 2 -2 3 -1 3 -2 2 -1 3 -2 3 -1 3 -1 4 -1 3 0 3 -1 3 0 4 -1 3 0 0 0zm65 66l-32 0 0 0 0 -2 -1 -2 0 -1 0 -2 0 -1 -1 -2 0 -2 -1 -1 -1 -1 0 -2 -1 -1 -1 -2 -1 -1 -1 -1 -1 -1 -1 -1 -1 -2 -1 -1 -2 -1 -1 0 -1 -1 -2 -1 -1 -1 -1 0 -2 -1 -1 -1 -2 0 -2 0 -1 -1 -2 0 -1 0 -2 0 0 -33 3 0 4 1 3 0 3 1 3 0 3 1 3 1 3 1 3 2 3 1 3 2 2 1 3 2 2 2 3 2 2 2 2 3 2 2 2 3 2 2 2 3 1 2 2 3 1 3 1 3 1 3 1 3 1 4 1 3 0 3 0 3 0 4 0 0zm-65 65l0 -33 0 0 2 0 1 0 2 0 1 0 2 -1 2 0 1 -1 2 0 1 -1 1 0 2 -1 1 -1 1 -1 2 -1 1 -1 1 -1 1 -1 1 -1 1 -2 1 -1 1 -1 1 -2 0 -1 1 -2 1 -1 0 -2 1 -1 0 -2 0 -1 0 -2 1 -2 0 -1 32 0 0 3 0 3 0 4 -1 3 -1 3 -1 3 -1 3 -1 3 -1 3 -2 3 -1 3 -2 2 -2 3 -2 2 -2 3 -2 2 -2 2 -3 2 -2 2 -3 2 -2 2 -3 1 -3 2 -3 1 -3 1 -3 1 -3 1 -3 1 -3 0 -3 1 -4 0 -3 0 0 0zm-66 -65l33 0 0 1 0 2 0 2 1 1 0 2 1 1 0 2 1 1 0 2 1 1 1 2 1 1 1 1 1 2 1 1 1 1 1 1 1 1 1 1 2 1 1 1 1 1 2 0 1 1 2 0 1 1 2 0 1 1 2 0 2 0 1 0 2 0 0 33 -3 0 -4 0 -3 -1 -3 0 -3 -1 -4 -1 -3 -1 -3 -1 -3 -1 -2 -2 -3 -1 -3 -2 -2 -2 -3 -2 -2 -2 -2 -2 -3 -2 -2 -3 -2 -2 -1 -3 -2 -2 -2 -3 -1 -3 -1 -3 -2 -3 -1 -3 -1 -3 0 -3 -1 -3 0 -4 -1 -3 0 -3z"/>
   </g>
   <polyline class="fil0 str2" points="8913,1622 8770,1564 9060,1448 8770,1333 9060,1217 8770,1102 9060,986 8912,928 "/>
   <polyline class="fil0 str2" points="8913,3189 8770,3132 9060,3016 8770,2901 9060,2785 8770,2670 9060,2554 8912,2496 "/>
   <line class="fil0 str1" x1="8913" y1="1622" x2="8913" y2= "2496" />
   <g>
    <path class="fil1" d="M8921 596l0 332 -18 0 0 -332 18 0zm-74 0l0 0 0 -3 0 -3 1 -4 0 -3 1 -3 1 -3 1 -3 1 -3 1 -3 2 -3 1 -3 2 -2 2 -3 2 -2 2 -3 2 -2 2 -2 3 -2 2 -2 3 -2 2 -2 3 -1 3 -2 3 -1 3 -1 3 -1 3 -1 3 -1 3 -1 4 0 3 0 3 0 0 0 4 0 3 0 3 0 3 1 4 1 3 1 3 1 3 1 3 1 2 2 3 1 3 2 2 2 3 2 2 2 3 2 2 2 2 3 2 2 2 3 1 2 2 3 1 3 2 3 1 3 1 3 1 3 0 3 1 3 0 4 1 3 0 3 0 0 0 4 -1 3 0 3 -1 3 0 4 -1 3 -1 3 -1 3 -2 3 -1 2 -2 3 -1 3 -2 2 -2 3 -2 2 -2 2 -3 3 -2 2 -3 2 -2 1 -3 2 -3 2 -2 1 -3 2 -3 1 -3 1 -3 1 -4 0 -3 1 -3 0 -3 1 -4 0 0 0 -3 0 -3 -1 -4 0 -3 -1 -3 0 -3 -1 -3 -1 -3 -1 -3 -2 -3 -1 -3 -2 -2 -2 -3 -1 -2 -2 -3 -2 -2 -3 -2 -2 -2 -2 -2 -3 -2 -2 -2 -3 -1 -3 -2 -2 -1 -3 -1 -3 -1 -3 -1 -3 -1 -4 0 -3 -1 -3 0 -3 0 -4z"/>
   </g>
   <g>
    <path class="fil1" d="M8903 3522l0 -333 19 0 0 333 -19 0zm75 0l0 0 0 3 0 3 -1 4 0 3 -1 3 -1 3 -1 3 -1 3 -1 3 -2 3 -2 3 -1 2 -2 3 -2 2 -2 3 -2 2 -2 2 -3 2 -2 2 -3 2 -3 2 -2 1 -3 2 -3 1 -3 1 -3 1 -3 1 -3 1 -4 0 -3 1 -3 0 -3 0 0 0 -4 0 -3 0 -3 -1 -4 0 -3 -1 -3 -1 -3 -1 -3 -1 -3 -1 -3 -2 -2 -1 -3 -2 -3 -2 -2 -2 -3 -2 -2 -2 -2 -2 -2 -3 -2 -2 -2 -3 -1 -2 -2 -3 -2 -3 -1 -3 -1 -3 -1 -3 -1 -3 -1 -3 0 -3 -1 -4 0 -3 0 -3 0 0 0 -4 0 -3 1 -3 0 -3 1 -4 1 -3 1 -3 1 -3 1 -3 2 -2 2 -3 1 -3 2 -2 2 -3 2 -2 2 -3 2 -2 3 -2 2 -2 3 -2 3 -1 2 -2 3 -1 3 -2 3 -1 3 -1 3 -1 3 0 4 -1 3 0 3 -1 4 0 0 0 3 0 3 1 3 0 4 1 3 0 3 1 3 1 3 1 3 2 3 1 2 2 3 1 3 2 2 2 3 2 2 2 2 3 2 2 2 3 2 2 1 3 2 3 2 2 1 3 1 3 1 3 1 3 1 4 0 3 1 3 0 3 0 4z"/>
   </g>
   <g>
    <path class="fil1" d="M8913 2075l-1557 0 0 -18 1557 0 0 18zm0 -75l0 0 3 0 3 1 3 0 4 1 3 0 3 1 3 1 3 1 3 2 3 1 2 2 3 2 3 1 2 2 2 2 3 3 2 2 2 2 2 3 2 2 1 3 2 3 2 2 1 3 1 3 1 3 1 3 1 4 0 3 1 3 0 3 0 4 0 0 0 3 0 4 -1 3 0 3 -1 3 -1 3 -1 3 -1 3 -1 3 -2 3 -2 3 -1 2 -2 3 -2 2 -2 3 -2 2 -3 2 -2 2 -2 2 -3 2 -3 2 -2 1 -3 2 -3 1 -3 1 -3 1 -3 1 -3 1 -4 1 -3 0 -3 0 -3 0 0 0 -4 0 -3 0 -3 0 -4 -1 -3 -1 -3 -1 -3 -1 -3 -1 -3 -1 -3 -2 -2 -1 -3 -2 -3 -2 -2 -2 -2 -2 -3 -2 -2 -2 -2 -3 -2 -2 -2 -3 -1 -2 -2 -3 -2 -3 -1 -3 -1 -3 -1 -3 -1 -3 -1 -3 0 -3 -1 -3 0 -4 0 -3 0 0 0 -4 0 -3 1 -3 0 -3 1 -4 1 -3 1 -3 1 -3 1 -3 2 -2 2 -3 1 -3 2 -2 2 -3 2 -2 2 -2 3 -3 2 -2 2 -2 3 -1 3 -2 2 -2 3 -1 3 -2 3 -1 3 -1 3 -1 3 0 4 -1 3 0 3 -1 4 0z"/>
   </g>
   <g>
    <rect class="fil0 str0" transform="matrix(-0.966763 -0.966763 0.966763 -0.966763 11456.2 2293.36)" width="702" height="702"/>
    <g>
     <polygon class="fil1" points="11624,1331 11471,1331 11471,1483 11430,1483 11430,1331 11277,1331 11277,1289 11430,1289 11430,1139 11471,1139 11471,1289 11624,1289 "/>
     <polygon class="fil1" points="11619,2003 11284,2003 11284,1964 11619,1964 "/>
    </g>
   </g>
   <g>
    <rect class="fil0 str0" transform="matrix(-0.966763 -0.966763 0.966763 -0.966763 12796 3248.91)" width="702" height="702"/>
    <g>
     <polygon class="fil1" points="12963,2286 12811,2286 12811,2439 12770,2439 12770,2286 12617,2286 12617,2245 12770,2245 12770,2094 12811,2094 12811,2245 12963,2245 "/>
     <polygon class="fil1" points="12959,2958 12623,2958 12623,2920 12959,2920 "/>
    </g>
   </g>
   <g>
    <path class="fil1" d="M11455 589l10 346 -18 1 -10 -346 9 -10 9 9zm-18 1l0 -10 9 0 -9 10zm2450 9l-2441 0 0 -19 2441 0 0 19zm46 -75l0 33 0 0 -2 0 -2 0 -1 0 -2 1 -2 0 -1 0 -2 1 -1 1 -2 0 -1 1 -1 1 -2 1 -1 0 -1 1 -1 1 -2 2 -1 1 -1 1 -1 1 -1 1 0 2 -1 1 -1 2 -1 1 0 1 -1 2 0 2 0 1 -1 2 0 1 0 2 0 2 -33 0 0 -4 0 -3 1 -3 0 -3 1 -4 1 -3 1 -3 1 -3 2 -3 1 -3 2 -2 1 -3 2 -3 2 -2 2 -2 2 -3 3 -2 2 -2 2 -2 3 -2 3 -1 2 -2 3 -1 3 -2 3 -1 3 -1 3 -1 3 0 4 -1 3 0 3 -1 4 0 0 0zm65 66l-33 0 0 0 0 -2 0 -2 0 -1 0 -2 -1 -1 0 -2 -1 -2 0 -1 -1 -1 -1 -2 0 -1 -1 -2 -1 -1 -1 -1 -1 -1 -1 -1 -1 -2 -2 -1 -1 -1 -1 0 -1 -1 -2 -1 -1 -1 -2 0 -1 -1 -2 -1 -1 0 -2 0 -1 -1 -2 0 -2 0 -1 0 0 -33 3 0 3 1 4 0 3 1 3 0 3 1 3 1 3 1 3 2 3 1 3 2 2 1 3 2 2 2 3 2 2 2 2 3 2 2 2 2 2 3 2 3 1 2 2 3 1 3 1 3 1 3 1 3 1 4 0 3 1 3 0 3 0 4 0 0zm-65 65l0 -33 0 0 1 0 2 0 2 0 1 0 2 -1 1 0 2 -1 1 0 2 -1 1 0 2 -1 1 -1 1 -1 1 -1 2 -1 1 -1 1 -1 1 -1 1 -2 1 -1 1 -1 0 -2 1 -1 1 -2 0 -1 1 -2 0 -1 1 -2 0 -1 0 -2 0 -2 0 -1 33 0 0 3 0 3 -1 4 0 3 -1 3 -1 3 -1 3 -1 3 -1 3 -2 3 -1 3 -2 2 -2 3 -2 2 -2 3 -2 2 -2 2 -3 2 -2 2 -3 2 -2 2 -3 1 -3 2 -3 1 -3 1 -3 1 -3 1 -3 1 -3 0 -4 1 -3 0 -3 0 0 0zm-66 -65l33 0 0 1 0 2 0 2 1 1 0 2 0 1 1 2 0 1 1 2 1 1 1 2 0 1 1 1 1 2 1 1 1 1 2 1 1 1 1 1 1 1 2 1 1 1 1 0 2 1 1 0 2 1 1 0 2 1 2 0 1 0 2 0 2 0 0 33 -4 0 -3 0 -3 -1 -4 0 -3 -1 -3 -1 -3 -1 -3 -1 -3 -1 -3 -2 -2 -1 -3 -2 -3 -2 -2 -2 -2 -2 -3 -2 -2 -2 -2 -3 -2 -2 -2 -3 -1 -2 -2 -3 -1 -3 -2 -3 -1 -3 -1 -3 -1 -3 -1 -3 0 -3 -1 -4 0 -3 0 -3z"/>
   </g>
   <g>
    <path class="fil1" d="M11447 3528l0 -1235 18 0 0 1235 -9 9 -9 -9zm9 9l-9 0 0 -9 9 9zm2390 0l-2390 0 0 -18 2390 0 0 18zm46 -74l0 32 0 0 -2 0 -2 0 -1 1 -2 0 -2 0 -1 1 -2 0 -1 1 -2 1 -1 0 -1 1 -2 1 -1 1 -1 1 -1 1 -2 1 -1 1 -1 1 -1 1 -1 2 -1 1 0 1 -1 2 -1 1 0 2 -1 1 0 2 -1 1 0 2 0 2 0 1 0 2 -33 0 0 -3 0 -4 1 -3 0 -3 1 -3 1 -3 1 -3 1 -3 1 -3 2 -3 2 -3 1 -3 2 -2 2 -3 2 -2 2 -2 2 -2 3 -2 2 -2 3 -2 3 -2 2 -2 3 -1 3 -1 3 -1 3 -1 3 -1 3 -1 4 -1 3 0 3 0 4 0 0 0zm65 65l-33 0 0 0 0 -2 0 -1 0 -2 0 -2 -1 -1 0 -2 -1 -1 0 -2 -1 -1 -1 -2 0 -1 -1 -1 -1 -2 -1 -1 -1 -1 -1 -1 -2 -1 -1 -1 -1 -1 -1 -1 -2 -1 -1 -1 -1 0 -2 -1 -1 -1 -2 0 -1 -1 -2 0 -2 0 -1 -1 -2 0 -1 0 0 -32 3 0 3 0 3 0 4 1 3 1 3 1 3 1 3 1 3 1 3 1 2 2 3 2 3 2 2 2 3 2 2 2 2 2 2 2 2 3 2 2 1 3 2 3 2 3 1 3 1 3 1 3 1 3 1 3 0 3 1 3 0 4 0 3 0 0zm-65 66l0 -33 0 0 1 0 2 0 1 -1 2 0 2 0 1 -1 2 0 1 -1 2 0 1 -1 1 -1 2 -1 1 -1 1 -1 1 -1 2 -1 1 -1 1 -1 1 -1 1 -2 1 -1 0 -1 1 -2 1 -1 0 -2 1 -1 0 -2 1 -1 0 -2 0 -2 0 -1 0 -2 33 0 0 3 0 4 -1 3 0 3 -1 3 -1 4 -1 3 -1 3 -1 2 -2 3 -2 3 -1 3 -2 2 -2 3 -2 2 -2 2 -2 3 -3 2 -2 2 -3 1 -3 2 -2 2 -3 1 -3 1 -3 2 -3 1 -3 1 -3 0 -4 1 -3 0 -3 0 -3 1 0 0zm-66 -66l33 0 0 2 0 1 0 2 0 2 1 1 0 2 1 1 0 2 1 1 1 2 0 1 1 1 1 2 1 1 1 1 1 1 2 1 1 1 1 1 1 1 2 1 1 1 1 1 2 0 1 1 2 0 1 1 2 0 2 0 1 1 2 0 2 0 0 33 -4 -1 -3 0 -3 0 -4 -1 -3 0 -3 -1 -3 -1 -3 -2 -3 -1 -3 -1 -2 -2 -3 -2 -3 -1 -2 -2 -3 -2 -2 -3 -2 -2 -2 -2 -2 -3 -2 -2 -1 -3 -2 -3 -2 -3 -1 -2 -1 -3 -1 -3 -1 -4 -1 -3 0 -3 -1 -3 0 -4 0 -3z"/>
   </g>
   <g>
    <path class="fil1" d="M12787 3528l0 -279 18 0 0 279 -18 0zm74 0l0 0 0 3 0 4 0 3 -1 3 -1 3 -1 3 -1 4 -1 2 -1 3 -1 3 -2 3 -2 3 -2 2 -2 3 -2 2 -2 2 -2 3 -2 2 -3 2 -2 1 -3 2 -3 2 -3 1 -3 1 -3 2 -3 1 -3 0 -3 1 -3 1 -3 0 -4 0 -3 1 0 0 -3 -1 -4 0 -3 0 -3 -1 -3 -1 -4 0 -3 -1 -3 -2 -2 -1 -3 -1 -3 -2 -3 -2 -2 -1 -3 -2 -2 -2 -2 -3 -3 -2 -2 -2 -2 -3 -1 -2 -2 -3 -2 -3 -1 -3 -1 -3 -2 -2 -1 -4 0 -3 -1 -3 -1 -3 0 -3 0 -4 -1 -3 0 0 1 -3 0 -4 0 -3 1 -3 1 -3 0 -3 1 -3 2 -3 1 -3 1 -3 2 -3 2 -2 1 -3 2 -3 2 -2 3 -2 2 -2 2 -2 3 -2 2 -2 3 -2 3 -1 3 -2 2 -1 3 -1 3 -1 4 -1 3 -1 3 -1 3 0 4 0 3 0 0 0 3 0 4 0 3 0 3 1 3 1 3 1 3 1 3 1 3 1 3 2 3 1 3 2 2 2 3 2 2 2 2 2 2 2 2 2 2 3 2 3 2 2 2 3 1 3 1 3 1 3 1 3 1 3 1 3 1 3 0 3 0 4 0 3z"/>
   </g>
   <g>
    <path class="fil1" d="M9396 2075l-483 0 0 -18 483 0 0 18zm0 76l-17 0 0 -171 33 0 0 171 -16 0z"/>
   </g>
   <g>
    <path class="fil1" d="M12805 1622l0 269 -18 0 0 -269 9 -10 9 10zm-18 0l0 -10 9 0 -9 10zm1145 9l-1136 0 0 -19 1136 0 0 19zm0 76l-16 0 0 -171 33 0 0 171 -17 0z"/>
   </g>
   <g>
    <path class="fil1" d="M221 1017l0 2164 -19 0 0 -2164 19 0zm-10 -115l99 229 -6 -3 -7 -3 -6 -2 -6 -3 -6 -2 -6 -2 -6 -2 -6 -1 -7 -2 -6 -1 -6 -1 -6 -1 -6 -1 -6 0 -6 0 -7 -1 -6 1 -6 0 -6 0 -6 1 -6 1 -6 1 -7 1 -6 2 -6 1 -6 2 -6 2 -6 2 -6 3 -6 2 -7 3 -6 3 0 0 98 -229z"/>
   </g>
   <g>
    <path class="fil1" d="M4172 942l-170 894 -18 -3 170 -895 18 4zm13 -115l53 243 -5 -4 -6 -4 -5 -3 -6 -4 -5 -3 -6 -3 -6 -3 -6 -3 -5 -2 -6 -3 -6 -2 -6 -2 -6 -2 -6 -1 -6 -2 -6 -1 -6 -1 -6 -1 -6 -1 -6 0 -6 0 -6 -1 -7 0 -6 1 -6 0 -7 1 -6 1 -7 1 -6 1 -7 1 -6 2 -7 2 0 0 140 -207z"/>
   </g>
   <path class="fil1" d="M8602 1520l0 57 -279 -58 0 -124c0,-21 2,-38 7,-50 4,-12 12,-21 24,-29 11,-7 26,-10 42,-10 24,0 43,7 59,21 15,14 25,36 29,64 6,-7 15,-14 26,-20 21,-13 52,-27 92,-43l0 61c-16,5 -40,15 -73,30 -18,7 -31,16 -37,25 -3,5 -5,15 -5,28l0 24 115 24zm-157 -33l0 -30c0,-31 -2,-52 -5,-62 -4,-10 -10,-18 -18,-24 -8,-5 -16,-8 -25,-8 -10,0 -17,4 -23,12 -3,5 -4,16 -4,33l0 63 75 16z"/>
   <path id="1" class="fil1" d="M8400 1257l0 -52 24 4c-19,-20 -29,-41 -29,-63 0,-15 3,-27 9,-35 7,-8 15,-14 27,-16 -11,-7 -19,-17 -26,-30 -7,-13 -10,-27 -10,-41 0,-16 4,-29 13,-38 9,-9 20,-13 35,-13 7,0 19,2 36,5l123 27 0 54 -123 -26c-16,-3 -24,-5 -27,-5 -5,0 -10,2 -13,5 -4,4 -5,9 -5,16 0,13 7,26 21,36 11,8 29,15 56,20l91 20 0 54 -122 -25c-15,-3 -24,-5 -28,-5 -5,0 -10,2 -13,6 -4,3 -5,8 -5,15 0,6 2,12 5,18 4,6 9,12 15,17 6,5 14,9 24,12 5,2 15,4 31,8l93 19 0 55 -202 -42z"/>
   <g>
    <path class="fil1" d="M9766 959l18 -5 21 71 21 72 19 72 19 73 19 73 17 73 16 73 15 74 13 73 13 74 11 73 10 74 8 73 6 74 5 73 3 73 1 72 -1 72 -3 72 -5 72 -7 71 -9 70 -12 70 -14 70 -17 69 -19 68 -22 67 -25 66 -27 66 -31 65 -33 64 -37 63 -15 -10 36 -62 33 -63 30 -64 27 -65 24 -66 22 -67 19 -67 17 -68 14 -69 11 -69 10 -70 7 -71 5 -71 3 -71 0 -72 -1 -72 -3 -72 -4 -73 -7 -73 -8 -73 -9 -73 -11 -73 -13 -73 -13 -74 -15 -73 -16 -73 -17 -73 -18 -72 -19 -73 -20 -72 -21 -72 -21 -71zm-24 -113l160 191 -7 -1 -6 -1 -7 -1 -6 0 -7 0 -6 -1 -7 0 -6 1 -7 0 -6 1 -6 0 -6 1 -6 2 -6 1 -6 1 -6 2 -6 2 -6 2 -5 2 -6 3 -6 2 -5 3 -6 3 -5 3 -6 3 -5 4 -5 4 -6 4 -5 4 -5 4 -5 4 -5 5 0 0 28 -248z"/>
   </g>
   <g>
    <path class="fil1" d="M3642 587l125 0 0 18 -125 0 0 -18zm-115 9l229 -98 -3 6 -3 6 -2 6 -3 6 -2 7 -2 6 -2 6 -1 6 -2 6 -1 6 -1 6 -1 7 -1 6 0 6 0 6 0 6 0 6 0 6 0 7 1 6 1 6 1 6 1 6 2 6 1 6 2 7 2 6 2 6 3 6 2 6 3 6 3 6 0 0 -229 -98z"/>
   </g>
   <g>
    <path class="fil1" d="M3642 3513l125 0 0 18 -125 0 0 -18zm-115 9l229 -99 -3 7 -3 6 -2 6 -3 6 -2 6 -2 6 -2 6 -1 7 -2 6 -1 6 -1 6 -1 6 -1 6 0 6 0 7 0 6 0 6 0 6 0 6 1 6 1 6 1 7 1 6 2 6 1 6 2 6 2 6 2 6 3 7 2 6 3 6 3 6 0 0 -229 -98z"/>
   </g>
   <path class="fil1" d="M0 419l3 -43c9,2 18,4 27,4 10,0 17,-2 23,-7 7,-5 16,-16 24,-31l15 -26 -45 -270 46 0 20 135c4,27 7,54 10,81l121 -216 47 0 -171 305c-17,30 -32,49 -44,59 -13,10 -28,15 -45,15 -10,0 -21,-2 -31,-6z"/>
   <path id="1" class="fil1" d="M256 419l78 -373 42 0 -8 37c16,-16 30,-27 43,-34 12,-6 25,-9 39,-9 26,0 47,9 64,28 17,19 26,45 26,80 0,28 -5,54 -14,77 -10,23 -21,41 -35,55 -13,14 -27,25 -41,31 -14,7 -28,10 -43,10 -32,0 -57,-16 -75,-49l-31 147 -45 0zm90 -214c0,20 2,34 5,42 4,11 11,20 21,27 9,6 20,10 33,10 27,0 48,-15 64,-45 17,-30 25,-60 25,-91 0,-23 -6,-40 -17,-53 -11,-12 -24,-18 -40,-18 -12,0 -23,3 -33,9 -10,6 -19,15 -28,28 -9,12 -16,27 -21,45 -6,18 -9,33 -9,46z"/>
   <polygon class="fil1" points="3085,372 3163,0 3212,0 3134,372 "/>
   <path id="1" class="fil1" d="M3198 372l118 -136 -68 -134 51 0 24 48c8,18 16,35 22,51l77 -99 57 0 -113 137 68 133 -51 0 -27 -55c-6,-11 -12,-26 -19,-43l-81 98 -58 0z"/>
   <path id="2" class="fil1" d="M3455 476l78 -374 42 0 -8 38c16,-16 30,-28 43,-34 12,-6 25,-9 39,-9 26,0 47,9 64,28 17,18 25,45 25,80 0,28 -4,53 -14,77 -9,23 -20,41 -34,55 -13,14 -27,24 -41,31 -14,7 -28,10 -43,10 -32,0 -57,-17 -75,-49l-31 147 -45 0zm90 -214c0,20 2,34 4,42 5,11 12,20 21,26 10,7 21,11 34,11 26,0 48,-15 64,-45 17,-30 25,-60 25,-91 0,-23 -6,-40 -17,-53 -11,-12 -24,-18 -41,-18 -11,0 -22,3 -32,9 -10,6 -20,15 -28,28 -9,12 -16,27 -21,45 -6,18 -9,33 -9,46z"/>
   <polygon class="fil1" points="3370,4073 3448,3701 3497,3701 3419,4073 "/>
   <path id="1" class="fil1" d="M3484 4073l117 -136 -67 -133 51 0 23 47c9,18 16,35 22,51l78 -98 56 0 -112 136 68 133 -51 0 -28 -55c-5,-11 -12,-25 -19,-42l-81 97 -57 0z"/>
   <path id="2" class="fil1" d="M3761 4073l57 -269 42 0 -10 47c18,-19 35,-32 51,-41 16,-8 32,-12 49,-12 22,0 40,6 52,18 13,12 19,27 19,47 0,10 -2,26 -7,47l-36 163 -46 0 38 -170c3,-17 5,-29 5,-37 0,-9 -3,-16 -9,-22 -6,-5 -16,-8 -27,-8 -24,0 -46,8 -65,25 -18,17 -32,46 -41,87l-26 125 -46 0z"/>
   <path class="fil1" d="M13698 390l-28 -269 44 0 12 121 5 68c0,5 1,15 2,31 5,-17 10,-31 13,-40 4,-9 9,-22 17,-39l65 -141 50 0 8 135c2,20 3,47 3,81 8,-22 22,-53 41,-94l58 -122 46 0 -131 269 -49 0 -9 -158c-1,-10 -2,-29 -2,-57 -7,18 -16,38 -25,59l-71 156 -49 0z"/>
   <path id="1" class="fil1" d="M14001 494l78 -373 42 0 -7 37c15,-16 29,-27 42,-34 12,-6 25,-9 39,-9 26,0 47,9 64,28 17,19 26,45 26,80 0,28 -5,54 -14,77 -9,23 -21,41 -35,55 -13,14 -27,25 -41,31 -14,7 -28,10 -42,10 -33,0 -58,-16 -76,-49l-30 147 -46 0zm91 -214c0,21 1,34 4,42 4,11 11,20 21,27 9,6 21,10 33,10 27,0 48,-15 65,-45 16,-29 24,-60 24,-91 0,-22 -5,-40 -16,-53 -11,-12 -25,-18 -41,-18 -12,0 -23,3 -33,9 -10,6 -19,16 -28,28 -8,12 -15,27 -21,45 -6,18 -8,33 -8,46z"/>
   <path class="fil1" d="M13439 4053l-29 -270 45 0 11 121 5 68c1,5 1,16 2,31 6,-17 10,-30 13,-39 4,-10 9,-23 17,-40l65 -141 50 0 8 135c2,20 3,48 3,82 9,-23 22,-54 42,-94l57 -123 47 0 -132 270 -48 0 -10 -158c-1,-10 -1,-29 -2,-58 -7,18 -16,38 -25,59l-71 157 -48 0z"/>
   <path id="1" class="fil1" d="M13763 4053l56 -270 42 0 -10 47c19,-18 36,-32 52,-40 15,-8 32,-13 48,-13 22,0 40,6 52,18 13,12 19,28 19,48 0,10 -2,25 -7,47l-36 163 -46 0 38 -171c4,-16 6,-29 6,-37 0,-9 -4,-16 -10,-21 -6,-6 -15,-9 -27,-9 -24,0 -46,9 -64,26 -19,16 -33,45 -42,86l-26 126 -45 0z"/>
   <g>
    <path class="fil1" d="M14210 874l12 -13 33 31 32 30 31 29 30 29 28 28 27 28 26 27 24 26 22 26 21 26 19 26 16 25 15 26 12 25 10 25 8 26 5 25 2 26 0 26 -3 26 -7 26 -9 27 -13 26 -16 28 -19 27 -22 28 -26 29 -30 29 -33 30 -37 31 -41 32 -45 32 -11 -15 45 -32 40 -31 37 -31 33 -29 28 -29 26 -28 22 -27 18 -26 15 -26 12 -25 9 -25 6 -25 3 -24 0 -24 -2 -23 -5 -24 -7 -24 -10 -24 -11 -24 -14 -24 -17 -25 -18 -25 -20 -25 -22 -26 -24 -26 -25 -26 -27 -28 -28 -28 -30 -28 -30 -30 -32 -30 -33 -31zm-78 -86l234 86 -6 2 -6 3 -6 3 -6 3 -6 2 -6 4 -5 3 -6 3 -5 4 -5 3 -5 4 -5 4 -5 4 -4 4 -5 4 -4 5 -4 4 -4 5 -4 5 -4 5 -3 5 -4 5 -3 5 -3 6 -3 5 -3 6 -3 6 -2 6 -3 6 -2 6 -2 7 -2 6 0 0 -100 -229z"/>
   </g>
   <path class="fil1" d="M8510 378l8 -36 144 -163c11,-11 22,-23 35,-36 -22,2 -37,4 -47,4l-100 0 8 -39 208 0 -6 29 -146 165c-8,9 -21,22 -37,38 26,-2 43,-3 53,-3l106 0 -9 41 -217 0z"/>
   <path id="1" class="fil1" d="M8756 481l78 -373 42 0 -8 38c16,-17 30,-28 42,-34 13,-7 26,-10 40,-10 26,0 47,10 64,28 17,19 25,46 25,81 0,28 -4,53 -14,76 -9,23 -20,42 -34,56 -14,14 -27,24 -41,31 -14,6 -28,10 -43,10 -32,0 -57,-17 -75,-50l-31 147 -45 0zm90 -213c0,20 2,34 4,41 5,11 12,20 21,27 10,7 21,10 34,10 26,0 48,-15 64,-44 16,-30 25,-60 25,-91 0,-23 -6,-41 -17,-53 -11,-13 -24,-19 -41,-19 -11,0 -22,3 -32,10 -10,6 -20,15 -28,27 -9,13 -16,28 -22,45 -5,18 -8,34 -8,47z"/>
   <path class="fil1" d="M8570 4076l7 -36 145 -162c11,-12 22,-24 35,-37 -22,3 -38,4 -47,4l-101 0 9 -39 208 0 -6 29 -146 165c-9,9 -21,22 -37,38 26,-2 43,-2 53,-2l106 0 -9 40 -217 0z"/>
   <path id="1" class="fil1" d="M8837 4076l56 -270 42 0 -10 47c19,-18 36,-31 52,-40 16,-8 32,-12 48,-12 22,0 40,6 52,17 13,12 19,28 19,48 0,10 -2,26 -7,47l-36 163 -46 0 38 -170c4,-17 6,-29 6,-37 0,-9 -4,-16 -10,-22 -6,-6 -15,-8 -27,-8 -24,0 -46,8 -64,25 -19,17 -33,46 -42,87l-26 125 -45 0z"/>
   <path class="fil1" d="M405 2353l-72 -372 48 0 43 222c8,40 13,72 16,97 16,-32 29,-57 39,-75l132 -244 52 0 -205 372 -53 0z"/>
   <path id="1" class="fil1" d="M606 2457l3 -44c9,3 19,4 28,4 9,0 17,-2 22,-6 8,-6 16,-16 25,-31l14 -27 -44 -270 45 0 20 136c4,27 8,53 10,80l121 -216 48 0 -172 305c-17,30 -31,50 -44,59 -13,10 -28,15 -45,15 -10,0 -21,-2 -31,-5z"/>
   <path class="fil1" d="M10193 2353l-72 -372 48 0 43 222c8,40 13,72 16,97 16,-32 29,-57 39,-75l132 -244 51 0 -204 372 -53 0z"/>
   <path id="1" class="fil1" d="M10414 2353l7 -36 145 -163c11,-11 22,-23 35,-36 -22,2 -38,4 -47,4l-100 0 8 -39 208 0 -6 29 -146 165c-9,9 -21,22 -37,38 26,-2 43,-3 53,-3l106 0 -9 41 -217 0z"/>
   <path class="fil1" d="M2184 903l42 0 -33 115c-3,8 -6,19 -11,35 7,26 12,41 15,46 6,10 14,14 23,14 7,0 13,-3 19,-8 5,-6 9,-14 11,-26l10 0c-2,24 -7,41 -15,50 -8,10 -17,14 -27,14 -10,0 -19,-4 -27,-12 -7,-8 -14,-25 -21,-52 -7,14 -14,26 -21,33 -11,11 -21,18 -33,24 -12,5 -25,7 -40,7 -37,0 -65,-12 -82,-37 -18,-25 -27,-53 -27,-85 0,-37 11,-67 31,-91 21,-23 45,-34 73,-34 19,0 36,6 51,18 15,11 28,33 40,66l22 -77zm-31 105c-9,-35 -21,-59 -35,-73 -14,-14 -29,-21 -44,-21 -17,0 -30,9 -41,27 -11,19 -17,48 -17,87 0,24 2,42 7,56 5,13 12,24 22,31 9,7 19,11 30,11 13,0 25,-6 36,-18 15,-16 29,-49 42,-100z"/>
   <path id="1" class="fil1" d="M2320 1020l63 -31 6 0 0 218c0,14 1,23 2,27 1,4 4,6 8,8 3,2 11,3 23,3l0 7 -98 0 0 -7c12,0 20,-1 24,-3 4,-2 7,-4 8,-8 1,-3 2,-12 2,-27l0 -139c0,-19 -1,-31 -2,-37 -1,-4 -3,-7 -5,-9 -3,-1 -6,-2 -9,-2 -5,0 -11,2 -19,6l-3 -6z"/>
   <polygon id="2" class="fil1" points="2529,974 2529,922 2581,922 2581,974 "/>
   <path id="3" class="fil1" d="M2778 1135l-71 -372 48 0 43 222c7,41 13,73 15,98 16,-32 29,-57 39,-76l133 -244 51 0 -204 372 -54 0z"/>
   <path id="4" class="fil1" d="M2980 1239l2 -43c10,3 19,4 28,4 9,0 17,-2 23,-6 7,-6 15,-16 24,-32l15 -26 -45 -270 45 0 20 135c4,27 8,54 11,81l120 -216 48 0 -172 305c-16,30 -31,49 -44,59 -13,10 -28,15 -44,15 -11,0 -21,-2 -31,-6z"/>
   <path class="fil1" d="M4426 1764l-71 -372 48 0 43 222c7,40 13,73 15,97 16,-31 29,-57 39,-75l133 -244 51 0 -204 372 -54 0z"/>
   <path id="1" class="fil1" d="M4636 1764l118 -137 -68 -133 51 0 24 48c8,18 16,35 22,51l77 -99 57 0 -113 136 68 134 -51 0 -27 -55c-6,-11 -12,-26 -19,-43l-81 98 -58 0z"/>
   <path id="2" class="fil1" d="M4893 1868l78 -374 42 0 -8 38c16,-16 30,-28 43,-34 12,-6 25,-9 39,-9 26,0 47,9 64,28 17,18 26,45 26,80 0,28 -5,53 -14,76 -10,23 -21,42 -35,56 -13,14 -27,24 -41,31 -14,7 -28,10 -43,10 -32,0 -57,-17 -75,-50l-31 148 -45 0zm90 -214c0,20 2,34 5,42 4,11 11,20 20,26 10,7 21,10 34,10 27,0 48,-14 64,-44 17,-30 25,-60 25,-91 0,-23 -6,-40 -17,-53 -11,-12 -24,-19 -41,-19 -11,0 -22,4 -32,10 -10,6 -19,15 -28,27 -9,13 -16,28 -21,46 -6,17 -9,33 -9,46z"/>
   <path class="fil1" d="M4094 2527l-94 185 16 65c7,26 13,43 20,49 6,7 15,10 26,10 13,0 23,-3 30,-11 8,-7 12,-19 14,-35l9 0c0,4 0,8 0,10 0,21 -6,40 -19,56 -9,11 -20,16 -33,16 -10,0 -18,-2 -26,-7 -7,-5 -13,-12 -18,-22 -7,-16 -12,-30 -15,-41l-16 -66 -68 132 -44 0 97 -192 -19 -75c-4,-16 -9,-27 -14,-32 -6,-6 -14,-8 -24,-8 -11,0 -21,3 -28,11 -7,7 -11,18 -12,34l-9 0c0,-30 6,-52 18,-67 8,-11 19,-16 32,-16 13,0 24,5 31,14 8,10 14,23 18,39l19 77 64 -126 45 0z"/>
   <path id="1" class="fil1" d="M4180 2644l63 -31 6 0 0 218c0,15 1,24 2,27 2,4 4,7 8,9 4,2 11,3 23,3l0 7 -97 0 0 -7c12,0 20,-1 23,-3 4,-2 7,-5 8,-9 1,-3 2,-12 2,-27l0 -139c0,-19 -1,-31 -2,-36 -1,-4 -3,-7 -5,-9 -2,-2 -5,-3 -9,-3 -4,0 -11,2 -19,6l-3 -6z"/>
   <polygon id="2" class="fil1" points="4390,2598 4390,2546 4442,2546 4442,2598 "/>
   <path id="3" class="fil1" d="M4638 2760l-71 -372 48 0 43 222c8,40 13,73 16,97 16,-31 28,-57 38,-75l133 -244 51 0 -204 372 -54 0z"/>
   <path id="4" class="fil1" d="M4849 2760l117 -137 -67 -133 51 0 23 48c9,18 16,35 22,51l78 -99 56 0 -112 136 68 134 -51 0 -28 -55c-5,-12 -12,-26 -19,-43l-81 98 -57 0z"/>
   <path id="5" class="fil1" d="M5105 2863l78 -373 42 0 -7 38c15,-16 29,-28 42,-34 12,-6 26,-9 39,-9 26,0 48,9 64,28 17,18 26,45 26,80 0,28 -5,53 -14,76 -9,23 -21,42 -34,56 -14,14 -28,24 -42,31 -14,6 -28,10 -42,10 -33,0 -58,-17 -76,-50l-30 147 -46 0zm91 -213c0,20 1,34 4,42 4,11 11,20 21,26 9,7 21,10 33,10 27,0 48,-14 65,-44 16,-30 24,-60 24,-91 0,-23 -5,-40 -16,-53 -11,-12 -25,-19 -41,-19 -12,0 -23,4 -33,10 -10,6 -19,15 -28,27 -8,13 -15,28 -21,46 -6,17 -8,33 -8,46z"/>
   <path class="fil1" d="M11928 800l42 0 -33 116c-2,7 -6,19 -10,34 6,26 11,42 14,47 6,9 14,14 23,14 7,0 13,-3 19,-9 6,-5 9,-14 11,-26l11 0c-3,25 -8,41 -16,51 -8,9 -17,14 -27,14 -10,0 -18,-4 -26,-12 -8,-9 -15,-26 -21,-53 -8,15 -15,26 -22,34 -10,10 -21,18 -33,23 -12,5 -25,8 -40,8 -37,0 -65,-13 -82,-38 -18,-24 -27,-53 -27,-85 0,-37 11,-67 31,-90 21,-23 45,-35 73,-35 19,0 36,6 51,18 15,12 28,34 40,66l22 -77zm-31 106c-9,-35 -21,-60 -35,-74 -14,-14 -29,-20 -44,-20 -16,0 -30,9 -41,27 -11,18 -17,47 -17,87 0,23 3,42 7,55 5,14 12,24 22,32 9,7 20,11 30,11 13,0 25,-6 36,-18 15,-17 29,-50 42,-100z"/>
   <path id="1" class="fil1" d="M12197 1100l-18 50 -152 0 0 -8c52,-48 87,-86 104,-116 11,-19 17,-37 17,-54 0,-17 -5,-30 -15,-41 -10,-10 -22,-15 -36,-15 -12,0 -24,3 -34,11 -10,7 -17,18 -22,32l-7 0c3,-23 11,-41 24,-54 14,-12 30,-19 50,-19 20,0 38,7 52,21 14,13 21,29 21,47 0,13 -3,27 -10,40 -9,20 -24,42 -46,65 -31,34 -50,55 -58,62l67 0c19,0 31,-1 38,-5 7,-3 13,-8 18,-16l7 0z"/>
   <polygon id="2" class="fil1" points="12274,871 12274,819 12326,819 12326,871 "/>
   <path id="3" class="fil1" d="M12522 1033l-71 -372 48 0 43 222c8,40 13,73 16,97 15,-32 28,-57 38,-75l133 -244 51 0 -204 372 -54 0z"/>
   <path id="4" class="fil1" d="M12744 1033l7 -36 145 -163c10,-11 22,-23 34,-36 -21,3 -37,4 -47,4l-100 0 8 -39 209 0 -6 29 -147 165c-8,9 -20,22 -36,38 25,-2 43,-3 52,-3l106 0 -8 41 -217 0z"/>
   <path class="fil1" d="M14834 1582l-72 -372 48 0 43 222c8,40 13,72 16,97 16,-32 29,-57 39,-75l132 -244 52 0 -205 372 -53 0z"/>
   <path id="1" class="fil1" d="M15113 1582l-28 -270 44 0 12 121 5 68c0,6 1,16 2,31 5,-17 10,-30 13,-39 4,-10 9,-23 17,-40l65 -141 50 0 8 135c2,21 3,48 3,82 8,-22 22,-54 41,-94l58 -123 46 0 -131 270 -49 0 -9 -158c-1,-10 -2,-29 -2,-58 -8,18 -16,38 -25,59l-71 157 -49 0z"/>
   <path id="2" class="fil1" d="M15416 1685l78 -373 42 0 -7 38c15,-17 29,-28 42,-34 12,-7 25,-10 39,-10 26,0 47,10 64,28 17,19 26,46 26,81 0,28 -5,53 -14,76 -10,23 -21,42 -35,56 -13,14 -27,24 -41,31 -14,6 -28,10 -43,10 -32,0 -57,-17 -75,-50l-30 147 -46 0zm90 -213c0,20 2,34 5,42 4,11 11,19 21,26 9,7 21,10 33,10 27,0 48,-15 65,-44 16,-30 24,-60 24,-91 0,-23 -5,-41 -16,-53 -11,-12 -25,-19 -41,-19 -12,0 -23,3 -33,10 -10,6 -19,15 -28,27 -8,13 -16,28 -21,45 -6,18 -9,34 -9,47z"/>
   <path class="fil1" d="M13715 2856l-95 185 16 65c7,26 14,43 20,49 7,7 16,10 27,10 12,0 22,-3 30,-11 7,-7 12,-19 13,-35l10 0c0,4 0,7 0,10 0,21 -7,40 -20,56 -8,11 -19,16 -33,16 -9,0 -18,-2 -25,-7 -7,-5 -14,-13 -18,-22 -8,-16 -13,-30 -16,-41l-16 -66 -67 131 -44 0 97 -191 -19 -75c-4,-17 -9,-27 -15,-33 -5,-5 -13,-7 -24,-7 -11,0 -20,3 -27,11 -7,7 -11,18 -12,34l-10 0c1,-30 7,-52 18,-67 9,-11 19,-16 32,-16 14,0 24,5 32,14 8,10 13,23 17,39l20 77 64 -126 45 0z"/>
   <path id="1" class="fil1" d="M13934 3156l-19 50 -152 0 0 -8c52,-48 87,-86 105,-116 11,-19 17,-37 17,-55 0,-16 -5,-29 -15,-40 -10,-10 -22,-15 -36,-15 -13,0 -24,3 -34,11 -10,7 -18,18 -22,32l-7 0c3,-23 11,-41 24,-54 13,-12 30,-19 49,-19 21,0 39,7 53,20 14,14 21,30 21,48 0,13 -4,26 -10,40 -9,20 -25,42 -46,65 -31,34 -51,55 -58,62l67 0c18,0 31,-2 38,-5 7,-3 13,-8 17,-16l8 0z"/>
   <polygon id="2" class="fil1" points="14010,2927 14010,2875 14062,2875 14062,2927 "/>
   <path id="3" class="fil1" d="M14259 3089l-71 -372 48 0 42 222c8,40 14,72 16,97 16,-32 29,-57 39,-75l132 -244 52 0 -204 372 -54 0z"/>
   <path id="4" class="fil1" d="M14538 3089l-28 -270 45 0 11 121 5 68c0,6 1,16 2,31 5,-17 10,-30 13,-39 4,-10 9,-23 17,-40l65 -141 50 0 8 135c2,21 3,48 3,82 8,-22 22,-54 41,-94l58 -123 46 0 -131 270 -49 0 -9 -158c-1,-10 -2,-29 -2,-58 -7,18 -16,38 -25,59l-71 157 -49 0z"/>
   <path id="5" class="fil1" d="M14841 3192l78 -373 42 0 -7 38c15,-17 29,-28 42,-34 12,-7 26,-10 39,-10 26,0 48,10 64,28 17,19 26,46 26,81 0,28 -5,53 -14,76 -9,23 -21,42 -34,56 -14,14 -28,24 -42,31 -14,6 -28,10 -42,10 -33,0 -58,-17 -76,-50l-30 147 -46 0zm91 -213c0,20 1,34 4,42 4,11 11,19 21,26 9,7 21,10 33,10 27,0 48,-15 65,-44 16,-30 24,-60 24,-91 0,-23 -5,-41 -16,-53 -11,-12 -25,-19 -41,-19 -12,0 -23,3 -33,10 -10,6 -19,15 -28,27 -8,13 -15,28 -21,45 -6,18 -8,34 -8,47z"/>
   <path class="fil1" d="M4127 420l117 -136 -68 -133 51 0 24 47c8,18 16,35 22,52l78 -99 56 0 -113 136 69 133 -51 0 -28 -55c-6,-11 -12,-25 -19,-42l-81 97 -57 0z"/>
   <path id="1" class="fil1" d="M4383 524l78 -373 42 0 -8 37c16,-16 30,-27 43,-34 12,-6 25,-9 39,-9 26,0 47,9 64,28 17,19 26,45 26,80 0,28 -5,54 -14,77 -10,23 -21,41 -35,55 -13,14 -27,25 -41,31 -14,7 -28,10 -43,10 -32,0 -57,-16 -75,-49l-31 147 -45 0zm90 -214c0,21 2,34 5,42 4,11 11,20 21,27 9,6 21,10 33,10 27,0 48,-15 64,-45 17,-29 25,-60 25,-91 0,-22 -6,-40 -17,-53 -10,-12 -24,-18 -40,-18 -12,0 -23,3 -33,9 -10,6 -19,16 -28,28 -9,12 -16,27 -21,45 -6,18 -9,33 -9,46z"/>
   <path class="fil1" d="M4277 3842l118 -136 -68 -134 51 0 24 48c8,18 16,35 22,51l77 -99 56 0 -112 137 68 133 -51 0 -27 -55c-6,-11 -12,-26 -19,-43l-81 98 -58 0z"/>
   <path id="1" class="fil1" d="M4555 3842l56 -270 42 0 -9 48c18,-19 35,-32 51,-41 16,-8 32,-12 49,-12 22,0 39,6 52,18 12,11 19,27 19,47 0,10 -3,26 -7,47l-37 163 -46 0 38 -170c4,-17 6,-29 6,-37 0,-9 -3,-16 -10,-22 -6,-6 -15,-8 -27,-8 -24,0 -45,8 -64,25 -19,17 -33,46 -41,87l-26 125 -46 0z"/>
   <path class="fil1" d="M5721 897l0 43c0,27 -3,57 -10,89l-43 0c5,-21 7,-36 8,-43 3,-24 4,-41 4,-52l0 -260c0,-30 3,-53 9,-67 6,-15 17,-27 32,-37 16,-10 34,-15 56,-15 30,0 55,8 73,24 18,17 27,36 27,58 0,15 -4,28 -11,41 -8,13 -19,25 -35,34 46,22 69,55 69,101 0,20 -5,39 -14,57 -10,18 -23,31 -39,40 -17,10 -34,14 -51,14 -12,0 -23,-2 -34,-6 -11,-4 -25,-11 -41,-21zm0 -20c17,11 31,19 43,24 9,4 19,6 28,6 17,0 31,-7 43,-21 11,-14 17,-37 17,-67 0,-20 -2,-37 -8,-51 -6,-15 -15,-30 -30,-48 -11,4 -21,6 -29,6 -11,0 -18,-1 -22,-4 -4,-4 -6,-7 -6,-10 0,-4 2,-7 5,-9 3,-3 8,-4 15,-4 8,0 21,2 37,7 12,-24 18,-46 18,-67 0,-21 -5,-38 -16,-49 -10,-12 -23,-18 -39,-18 -19,0 -34,9 -45,25 -7,11 -11,29 -11,53l0 227z"/>
   <path id="1" class="fil1" d="M5969 801l63 -31 6 0 0 218c0,14 0,23 2,27 1,3 3,6 7,8 4,2 12,3 24,3l0 7 -98 0 0 -7c12,0 20,-1 24,-3 4,-2 6,-5 8,-8 1,-3 1,-12 1,-27l0 -139c0,-19 0,-31 -2,-37 0,-4 -2,-7 -5,-9 -2,-2 -5,-2 -8,-2 -5,0 -11,1 -20,5l-2 -5z"/>
   <polygon id="2" class="fil1" points="6178,755 6178,703 6230,703 6230,755 "/>
   <polygon id="3" class="fil1" points="6321,916 6399,544 6448,544 6370,916 "/>
   <path id="4" class="fil1" d="M6435 916l117 -136 -67 -133 51 0 23 47c9,18 16,35 23,51l77 -98 56 0 -112 136 68 133 -51 0 -28 -55c-5,-11 -12,-25 -19,-42l-80 97 -58 0z"/>
   <path id="5" class="fil1" d="M6691 1020l78 -373 43 0 -8 37c15,-16 30,-27 42,-34 12,-6 26,-9 40,-9 25,0 47,9 64,28 17,19 25,45 25,80 0,28 -5,54 -14,77 -9,23 -21,41 -34,55 -14,14 -28,25 -42,31 -13,7 -28,10 -42,10 -33,0 -58,-16 -76,-49l-30 147 -46 0zm91 -214c0,20 1,34 4,42 4,11 11,20 21,27 10,6 21,10 34,10 26,0 47,-15 64,-45 16,-30 24,-60 24,-91 0,-23 -5,-40 -16,-53 -11,-12 -25,-18 -41,-18 -12,0 -23,3 -33,9 -10,6 -19,15 -28,28 -8,12 -15,27 -21,45 -5,18 -8,33 -8,46z"/>
   <path class="fil1" d="M5765 3516l0 43c0,28 -4,57 -11,89l-43 0c5,-21 8,-35 9,-43 2,-23 3,-41 3,-52l0 -260c0,-30 3,-52 9,-67 6,-15 17,-27 33,-37 15,-9 34,-14 56,-14 30,0 54,8 72,24 18,16 27,36 27,58 0,14 -3,28 -11,41 -7,13 -19,24 -34,34 46,21 69,55 69,101 0,20 -5,39 -15,57 -9,17 -22,31 -39,40 -16,9 -33,14 -51,14 -11,0 -23,-2 -34,-6 -11,-4 -24,-11 -40,-22zm0 -20c16,12 31,20 43,25 9,4 18,6 27,6 17,0 32,-8 43,-22 12,-14 18,-36 18,-67 0,-19 -3,-36 -9,-51 -5,-14 -15,-30 -29,-47 -12,4 -22,6 -30,6 -10,0 -17,-2 -21,-5 -4,-3 -6,-6 -6,-10 0,-3 1,-6 4,-9 4,-2 9,-3 16,-3 8,0 20,2 37,6 12,-23 18,-45 18,-66 0,-22 -6,-38 -16,-50 -11,-11 -24,-17 -39,-17 -20,0 -35,8 -46,25 -7,11 -10,28 -10,53l0 226z"/>
   <path id="1" class="fil1" d="M6145 3603l-18 50 -152 0 0 -8c52,-48 87,-86 104,-116 12,-19 17,-37 17,-54 0,-17 -5,-30 -15,-41 -10,-10 -22,-15 -36,-15 -12,0 -24,3 -34,11 -10,7 -17,18 -22,32l-7 0c3,-23 11,-41 24,-54 14,-12 30,-19 50,-19 20,0 38,7 52,20 14,14 21,30 21,48 0,13 -3,27 -10,40 -9,20 -24,42 -46,65 -31,34 -50,55 -58,62l67 0c19,0 32,-2 38,-5 7,-3 13,-8 18,-16l7 0z"/>
   <polygon id="2" class="fil1" points="6222,3374 6222,3322 6274,3322 6274,3374 "/>
   <polygon id="3" class="fil1" points="6365,3536 6443,3164 6492,3164 6414,3536 "/>
   <path id="4" class="fil1" d="M6478 3536l118 -137 -68 -133 51 0 24 48c8,18 16,35 22,51l77 -99 57 0 -113 136 68 134 -51 0 -27 -55c-6,-12 -12,-26 -19,-43l-81 98 -58 0z"/>
   <path id="5" class="fil1" d="M6756 3536l56 -270 42 0 -9 47c18,-18 35,-32 51,-40 16,-8 32,-13 49,-13 22,0 39,6 52,18 12,12 19,28 19,48 0,10 -3,26 -7,47l-37 163 -46 0 38 -171c4,-16 6,-29 6,-37 0,-8 -3,-16 -9,-21 -7,-6 -16,-9 -28,-9 -24,0 -45,9 -64,26 -19,17 -32,45 -41,86l-26 126 -46 0z"/>
   <path class="fil1" d="M0 4187l3 -44c9,3 18,4 27,4 10,0 17,-2 23,-6 7,-5 16,-16 24,-31l15 -26 -45 -271 46 0 20 136c4,27 7,53 10,80l121 -216 47 0 -171 305c-17,30 -32,50 -44,60 -13,9 -28,14 -45,14 -10,0 -21,-2 -31,-5z"/>
   <path id="1" class="fil1" d="M277 4083l57 -270 42 0 -10 47c18,-18 35,-31 51,-40 16,-8 32,-13 49,-13 22,0 39,6 52,18 12,12 19,28 19,48 0,10 -3,26 -7,47l-37 163 -45 0 37 -171c4,-16 6,-28 6,-36 0,-9 -3,-17 -9,-22 -7,-6 -16,-9 -28,-9 -24,0 -45,9 -64,26 -19,17 -32,46 -41,87l-26 125 -46 0z"/>
   <path class="fil1" d="M8602 3088l0 57 -279 -58 0 -124c0,-22 2,-38 7,-50 4,-12 12,-21 24,-29 11,-7 26,-11 42,-11 24,0 43,7 59,22 15,14 25,35 29,64 6,-7 15,-14 26,-21 21,-12 52,-27 92,-42l0 61c-16,5 -40,15 -73,29 -18,8 -31,17 -37,26 -3,5 -5,15 -5,28l0 24 115 24zm-157 -33l0 -31c0,-30 -2,-51 -5,-61 -4,-10 -10,-18 -18,-24 -8,-5 -16,-8 -25,-8 -10,0 -17,4 -23,12 -3,5 -4,16 -4,33l0 63 75 16z"/>
   <path id="1" class="fil1" d="M8400 2824l0 -51 24 4c-19,-20 -29,-41 -29,-63 0,-15 3,-27 9,-35 7,-9 15,-14 27,-16 -11,-7 -19,-17 -26,-30 -7,-13 -10,-27 -10,-41 0,-16 4,-29 13,-38 9,-9 20,-13 35,-13 7,0 19,2 36,5l123 27 0 54 -123 -26c-16,-3 -24,-5 -27,-5 -5,0 -10,2 -13,5 -4,3 -5,9 -5,15 0,14 7,26 21,37 11,8 29,15 56,20l91 19 0 55 -122 -26c-15,-3 -24,-4 -28,-4 -5,0 -10,2 -13,5 -4,4 -5,9 -5,15 0,6 2,13 5,19 4,6 9,12 15,17 6,4 14,9 24,12 5,2 15,4 31,8l93 19 0 55 -202 -43z"/>
  </g>
 </g>
</svg>
