<?xml version="1.0" encoding="UTF-8"?>
<!DOCTYPE svg PUBLIC "-//W3C//DTD SVG 1.1//EN" "http://www.w3.org/Graphics/SVG/1.1/DTD/svg11.dtd">
<!-- Creator: CorelDRAW Home & Student X8 -->
<svg xmlns="http://www.w3.org/2000/svg" xml:space="preserve" width="135.525mm" height="76.1763mm" version="1.1" style="shape-rendering:geometricPrecision; text-rendering:geometricPrecision; image-rendering:optimizeQuality; fill-rule:evenodd; clip-rule:evenodd"
viewBox="0 0 12123 6814"
 xmlns:xlink="http://www.w3.org/1999/xlink">
 <defs>
  <style type="text/css">
   <![CDATA[
    .str0 {stroke:#2B2A29;stroke-width:35.7806}
    .str1 {stroke:#2B2A29;stroke-width:17.8903}
    .fil0 {fill:none}
    .fil1 {fill:#2B2A29;fill-rule:nonzero}
   ]]>
  </style>
 </defs>
 <g id="Warstwa_x0020_1">
  <metadata id="CorelCorpID_0Corel-Layer"/>
  <g id="_704758752">
   <polygon class="fil0 str0" points="6486,1346 6486,5720 10846,3547 "/>
   <polyline class="fil0 str0" points="3366,1921 3310,2059 3198,1778 3085,2059 2973,1778 2861,2059 2749,1778 2693,1921 "/>
   <polyline class="fil0 str0" points="4843,1921 4786,2059 4674,1778 4562,2059 4450,1778 4338,2059 4225,1778 4169,1921 "/>
   <polyline class="fil0 str0" points="4843,4651 4786,4790 4674,4508 4562,4790 4450,4508 4338,4790 4225,4508 4169,4651 "/>
   <polyline class="fil0 str0" points="3366,4651 3310,4790 3198,4508 3085,4790 2973,4508 2861,4790 2749,4508 2693,4651 "/>
   <polyline class="fil0 str0" points="8478,5696 8422,5834 8310,5553 8198,5834 8085,5553 7973,5834 7861,5553 7805,5696 "/>
   <polyline class="fil0 str0" points="5957,4952 5818,4896 6100,4784 5818,4672 6100,4560 5818,4447 6100,4335 5957,4279 "/>
   <path class="fil0 str0" d="M5141 1552l543 0m-534 -246c184,171 323,170 502,-2"/>
   <path class="fil0 str0" d="M5684 4982l-543 0m533 246c-183,-171 -322,-170 -501,2"/>
   <polygon class="fil1" points="6816,1876 6881,1876 6881,1811 6935,1811 6935,1876 7000,1876 7000,1930 6935,1930 6935,1995 6881,1995 6881,1930 6816,1930 "/>
   <polygon class="fil1" points="9128,2948 9193,2948 9193,2883 9248,2883 9248,2948 9313,2948 9313,3003 9248,3003 9248,3068 9193,3068 9193,3003 9128,3003 "/>
   <polygon class="fil1" points="7499,4759 7563,4759 7563,4694 7618,4694 7618,4759 7683,4759 7683,4814 7618,4814 7618,4879 7563,4879 7563,4814 7499,4814 "/>
   <polygon class="fil1" points="6816,4063 6881,4063 6881,3998 6935,3998 6935,4063 7000,4063 7000,4117 6935,4117 6935,4182 6881,4182 6881,4117 6816,4117 "/>
   <polygon class="fil1" points="6815,2970 6992,2970 6992,3008 6815,3008 "/>
   <polygon class="fil1" points="9155,4071 9332,4071 9332,4108 9155,4108 "/>
   <polygon class="fil1" points="11217,4349 11394,4349 11394,4387 11217,4387 "/>
   <polyline class="fil0 str1" points="9787,2990 10873,2990 10873,273 8338,273 "/>
   <g>
    <path class="fil1" d="M3797 278l4374 0 0 18 -4374 0 -9 -9 9 -9zm-9 9l0 -9 9 0 -9 9zm0 1616l0 -1616 18 0 0 1616 -18 0zm73 0l0 0 0 3 -1 4 0 3 -1 3 0 3 -1 3 -1 3 -1 3 -2 3 -1 2 -2 3 -1 3 -2 2 -2 2 -2 3 -2 2 -2 2 -3 2 -2 2 -2 2 -3 1 -3 2 -2 1 -3 2 -3 1 -3 1 -3 1 -3 0 -3 1 -3 0 -4 1 -3 0 0 0 -3 0 -3 -1 -4 0 -3 -1 -3 0 -3 -1 -3 -1 -3 -1 -2 -2 -3 -1 -3 -2 -2 -1 -3 -2 -2 -2 -3 -2 -2 -2 -2 -2 -2 -3 -2 -2 -2 -2 -1 -3 -2 -3 -1 -2 -2 -3 -1 -3 -1 -3 -1 -3 0 -3 -1 -3 0 -3 0 -4 -1 -3 0 0 1 -3 0 -3 0 -4 1 -3 0 -3 1 -3 1 -3 1 -3 2 -2 1 -3 2 -3 1 -2 2 -3 2 -2 2 -3 2 -2 2 -2 3 -2 2 -2 3 -2 2 -1 3 -2 3 -1 2 -2 3 -1 3 -1 3 -1 3 0 3 -1 4 0 3 -1 3 0 0 0 3 0 4 1 3 0 3 1 3 0 3 1 3 1 3 1 3 2 2 1 3 2 3 1 2 2 2 2 3 2 2 2 2 2 2 3 2 2 2 3 1 2 2 3 1 3 2 2 1 3 1 3 1 3 0 3 1 3 0 4 1 3 0 3z"/>
   </g>
   <line class="fil0 str1" x1="5412" y1="1428" x2="5412" y2= "594" />
   <line class="fil0 str1" x1="6458" y1="1889" x2="4842" y2= "1889" />
   <g>
    <path class="fil1" d="M5377 1917l0 -3 0 -4 1 -3 0 -3 1 -3 1 -3 1 -3 1 -3 1 -3 2 -2 1 -3 2 -3 2 -2 2 -3 2 -2 2 -2 2 -2 2 -2 3 -2 2 -2 3 -1 2 -2 3 -1 3 -2 3 -1 3 -1 3 -1 3 0 3 -1 3 0 4 -1 3 0 0 0 3 0 3 1 3 0 4 1 3 0 3 1 3 1 3 1 2 2 3 1 3 2 2 1 3 2 2 2 3 2 2 2 2 2 2 2 2 3 2 2 1 3 2 3 1 2 1 3 2 3 1 3 0 3 1 3 1 3 0 3 0 4 0 3 0 0 0 3 0 3 0 4 -1 3 -1 3 0 3 -1 3 -2 3 -1 2 -1 3 -2 3 -1 2 -2 3 -2 2 -2 3 -2 2 -2 2 -3 2 -2 2 -3 2 -2 1 -3 2 -3 1 -2 2 -3 1 -3 1 -3 1 -3 0 -4 1 -3 0 -3 0 -3 1 0 0 -3 -1 -4 0 -3 0 -3 -1 -3 0 -3 -1 -3 -1 -3 -1 -3 -2 -3 -1 -2 -2 -3 -1 -2 -2 -3 -2 -2 -2 -2 -2 -2 -2 -2 -3 -2 -2 -2 -3 -2 -2 -1 -3 -2 -3 -1 -2 -1 -3 -1 -3 -1 -3 -1 -3 0 -3 -1 -4 0 -3 0 -3 0 0zm73 -363l0 363 -18 0 0 -363 18 0z"/>
   </g>
   <path class="fil0 str0" d="M8350 543l0 -543m-246 533c172,-183 170,-322 -2,-501"/>
   <path class="fil0 str0" d="M8308 6812l0 -544m-246 534c172,-183 170,-323 -1,-501"/>
   <polygon class="fil1" points="11176,2725 11241,2725 11241,2660 11295,2660 11295,2725 11361,2725 11361,2780 11295,2780 11295,2845 11241,2845 11241,2780 11176,2780 "/>
   <line class="fil0 str1" x1="4169" y1="1921" x2="3366" y2= "1921" />
   <polygon class="fil1" points="8570,4349 8747,4349 8747,4387 8570,4387 "/>
   <polygon class="fil1" points="6829,5143 7006,5143 7006,5181 6829,5181 "/>
   <polyline class="fil0 str1" points="6499,3003 5399,3003 5399,4940 "/>
   <g>
    <path class="fil1" d="M5403 5915l0 -809 18 0 0 809 -18 0zm-74 0l0 -16 166 0 0 32 -166 0 0 -16z"/>
   </g>
   <g>
    <path class="fil1" d="M5413 4683l-3 0 -4 0 -3 -1 -3 0 -3 -1 -3 -1 -3 -1 -3 -1 -3 -1 -2 -2 -3 -1 -3 -2 -2 -2 -2 -2 -3 -2 -2 -2 -2 -2 -2 -2 -2 -3 -2 -2 -1 -3 -2 -2 -1 -3 -2 -3 -1 -3 -1 -3 -1 -3 0 -3 -1 -3 0 -3 -1 -3 0 -4 0 0 0 -3 1 -3 0 -3 1 -3 0 -4 1 -3 1 -3 1 -2 2 -3 1 -3 2 -3 1 -2 2 -3 2 -2 2 -2 2 -3 2 -2 3 -2 2 -2 2 -1 3 -2 3 -2 2 -1 3 -1 3 -1 3 -1 3 -1 3 -1 3 -1 3 0 4 0 3 0 0 0 3 0 3 0 4 0 3 1 3 1 3 1 3 1 3 1 2 1 3 1 3 2 2 2 3 1 2 2 3 2 2 2 2 3 2 2 2 2 2 3 1 2 2 3 1 3 2 3 1 2 1 3 1 3 0 4 1 3 0 3 0 3 1 3 0 0 -1 4 0 3 0 3 -1 3 0 3 -1 3 -1 3 -1 3 -2 3 -1 3 -2 2 -1 3 -2 2 -2 3 -2 2 -2 2 -2 2 -3 2 -2 2 -3 2 -2 2 -3 1 -3 2 -2 1 -3 1 -3 1 -3 1 -3 1 -3 0 -4 1 -3 0 -3 0 0 0zm-570 -73l570 0 0 18 -570 0 0 -18z"/>
   </g>
   <line class="fil0 str1" x1="4169" y1="4651" x2="3366" y2= "4651" />
   <polyline class="fil0 str1" points="6527,4104 5956,4104 5956,4279 "/>
   <polyline class="fil0 str1" points="6473,5177 5970,5177 5970,4952 "/>
   <polyline class="fil0 str1" points="8673,4674 8673,5706 8478,5706 "/>
   <polyline class="fil0 str1" points="7558,5183 7558,5706 7805,5706 "/>
   <polyline class="fil0 str1" points="9787,4062 10846,4062 10846,6528 8352,6528 "/>
   <g>
    <path class="fil1" d="M3755 6531l4429 0 0 18 -4429 0 -9 -9 9 -9zm0 18l-9 0 0 -9 9 9zm9 -1898l0 1889 -18 0 0 -1889 18 0zm-73 0l0 0 1 -3 0 -3 0 -3 1 -3 0 -3 1 -3 1 -3 1 -3 2 -3 1 -3 2 -3 1 -2 2 -3 2 -2 2 -2 2 -3 2 -2 3 -2 2 -2 3 -1 2 -2 3 -2 3 -1 2 -1 3 -1 3 -1 3 -1 3 -1 3 0 4 -1 3 0 3 0 0 0 3 0 4 0 3 1 3 0 3 1 3 1 3 1 3 1 3 1 2 1 3 2 3 2 2 1 3 2 2 2 2 2 2 3 2 2 2 2 2 3 1 2 2 3 1 3 2 3 1 3 1 3 1 3 0 3 1 3 0 3 1 3 0 3 0 0 0 4 -1 3 0 3 -1 3 0 3 -1 3 -1 3 -1 3 -2 3 -1 3 -2 2 -1 3 -2 2 -2 3 -2 2 -2 2 -2 2 -2 2 -3 2 -2 2 -3 2 -3 1 -2 2 -3 1 -3 1 -3 1 -3 1 -3 1 -3 0 -3 1 -4 0 -3 0 0 0 -3 0 -3 0 -4 -1 -3 0 -3 -1 -3 -1 -3 -1 -3 -1 -2 -1 -3 -2 -3 -1 -2 -2 -3 -2 -2 -2 -3 -2 -2 -2 -2 -2 -2 -2 -2 -3 -2 -2 -1 -3 -2 -2 -1 -3 -2 -3 -1 -3 -1 -3 -1 -3 0 -3 -1 -3 0 -3 0 -3 -1 -4z"/>
   </g>
   <path class="fil1" d="M7109 4542l88 131c15,23 25,36 31,41 7,5 14,8 23,9l0 8 -157 0 0 -8c12,-1 20,-3 24,-6 4,-3 5,-7 5,-11 0,-3 0,-5 -1,-7 -3,-5 -8,-14 -17,-27l-47 -69 -48 59c-15,19 -22,31 -22,38 0,4 1,8 5,12 4,4 10,7 17,9 3,1 10,2 20,2l0 8 -123 0 0 -8c14,-3 25,-6 33,-12 11,-7 26,-23 44,-46l64 -77 -81 -121c-14,-20 -22,-31 -23,-33 -5,-5 -9,-9 -13,-11 -4,-2 -10,-4 -17,-5l0 -8 159 0 0 8 -8 0c-9,0 -16,1 -19,4 -4,3 -6,7 -6,11 0,4 1,7 2,9l16 25 41 60 33 -41c17,-21 26,-36 26,-45 0,-4 -1,-8 -4,-12 -2,-3 -6,-6 -10,-8 -5,-2 -12,-3 -22,-3l0 -8 118 0 0 8c-9,0 -16,1 -22,3 -6,2 -12,6 -18,12 -4,4 -15,16 -31,36l-60 73z"/>
   <path class="fil1" d="M7220 2334l0 8c-10,2 -18,5 -24,9 -8,7 -20,25 -37,55l-70 117 0 77c0,17 1,27 2,32 2,4 5,7 11,10 5,3 12,5 20,5l18 0 0 8 -180 0 0 -8 17 0c9,0 17,-2 22,-5 5,-2 8,-6 10,-12 2,-3 3,-13 3,-30l0 -64 -76 -138c-15,-27 -25,-43 -32,-48 -6,-5 -14,-8 -24,-8l0 -8 154 0 0 8 -7 0c-10,0 -16,2 -20,4 -4,3 -5,6 -5,9 0,6 6,20 19,43l58 106 58 -96c14,-24 21,-40 21,-48 0,-4 -2,-8 -6,-11 -5,-4 -15,-6 -30,-7l0 -8 98 0z"/>
   <path class="fil1" d="M8258 4159l-189 303 61 0c29,0 49,-2 61,-5 19,-6 35,-17 48,-32 14,-15 23,-36 28,-61l10 0 -13 116 -294 0 189 -304 -48 0c-18,0 -30,1 -36,2 -11,2 -22,6 -31,12 -10,6 -18,14 -24,24 -7,10 -12,23 -16,39l-8 0 8 -94 254 0z"/>
   <path class="fil1" d="M9445 3365l0 8c-6,1 -11,2 -15,5 -4,3 -8,8 -11,14 -1,1 -6,14 -14,36l-101 265 -9 0 -79 -209 -88 209 -8 0 -106 -262c-11,-26 -19,-43 -23,-48 -4,-6 -11,-9 -21,-10l0 -8 139 0 0 8c-12,0 -19,2 -23,5 -3,3 -5,7 -5,12 0,6 4,19 11,38l63 156 51 -123 -13 -33c-7,-19 -12,-31 -16,-38 -4,-6 -9,-10 -14,-13 -5,-3 -13,-4 -22,-4l0 -8 154 0 0 8c-11,0 -19,1 -24,3 -3,1 -6,3 -7,5 -2,3 -3,6 -3,9 0,4 3,15 10,34l59 152 52 -138c5,-14 9,-24 10,-29 1,-5 2,-10 2,-14 0,-7 -2,-12 -7,-16 -4,-4 -12,-6 -25,-6l0 -8 83 0z"/>
   <path class="fil1" d="M2921 4179l-28 97c-4,14 -6,24 -6,31 0,6 2,11 7,14 5,4 15,6 31,6l-3 9 -155 0 3 -9c15,0 27,-3 34,-9 7,-6 14,-19 20,-40l59 -207c3,-11 5,-20 5,-27 0,-6 -2,-11 -6,-15 -5,-3 -14,-5 -29,-6l2 -9 133 0c38,0 65,7 81,20 15,14 23,31 23,51 0,22 -9,42 -27,60 -12,11 -32,20 -61,28l28 98c8,26 15,42 21,48 5,5 15,8 28,8l0 9 -99 0 -46 -157 -7 0c-2,0 -4,0 -8,0zm4 -14c5,0 10,0 14,0 22,0 41,-8 56,-24 14,-15 21,-36 21,-62 0,-15 -4,-26 -11,-34 -8,-8 -18,-12 -31,-12 -3,0 -7,0 -11,0l-38 132z"/>
   <path id="1" class="fil1" d="M3323 4008l-80 269c-4,15 -6,24 -6,28 0,3 2,7 4,11 3,4 6,7 10,8 3,1 13,2 30,3l-2 9 -162 0 3 -9c16,0 27,-1 33,-4 6,-2 12,-6 16,-11 4,-6 8,-17 13,-35l47 -159c8,-25 12,-38 12,-39 1,-4 1,-8 1,-12 0,-7 -2,-12 -6,-17 -4,-4 -11,-6 -19,-6 -4,0 -12,1 -23,2l-2 -9 121 -29 10 0z"/>
   <path class="fil1" d="M4318 1422l-28 97c-4,14 -6,24 -6,31 0,6 2,11 7,14 5,4 15,6 30,6l-3 9 -154 0 3 -9c15,0 26,-3 34,-9 7,-6 13,-19 19,-40l59 -207c4,-11 5,-20 5,-27 0,-6 -2,-11 -6,-15 -4,-3 -13,-5 -28,-6l2 -9 133 0c38,0 65,7 80,20 16,14 24,31 24,51 0,22 -9,42 -28,60 -11,11 -31,20 -60,28l28 98c8,26 15,42 20,48 6,5 16,8 29,8l0 9 -100 0 -45 -157 -8 0c-1,0 -4,0 -7,0zm4 -14c5,0 10,0 13,0 23,0 42,-8 56,-24 15,-15 22,-36 22,-62 0,-15 -4,-26 -12,-34 -7,-8 -18,-12 -31,-12 -3,0 -6,0 -11,0l-37 132z"/>
   <path id="1" class="fil1" d="M4674 1579l-170 0 0 -9c44,-41 82,-79 112,-113 26,-29 42,-51 48,-66 7,-15 10,-30 10,-45 0,-15 -4,-26 -13,-35 -10,-9 -21,-14 -34,-14 -22,0 -41,12 -57,36l-8 -4c8,-23 18,-41 31,-53 19,-17 40,-25 64,-25 23,0 42,7 57,21 15,14 22,30 22,49 0,16 -4,32 -11,48 -7,16 -22,36 -45,60 -17,18 -52,50 -105,95l62 0c19,0 33,-2 41,-6 8,-5 16,-14 23,-28l11 0 -38 89z"/>
   <path class="fil1" d="M8401 658l-24 101 -8 0c-1,-27 -8,-48 -21,-62 -12,-13 -29,-20 -49,-20 -22,0 -44,9 -66,28 -22,18 -41,47 -56,85 -12,31 -18,62 -18,93 0,27 7,48 20,62 14,14 32,21 55,21 19,0 37,-4 52,-12 16,-8 32,-21 48,-40l11 0c-20,29 -39,50 -59,62 -20,12 -45,18 -74,18 -38,0 -70,-12 -93,-36 -24,-23 -36,-54 -36,-91 0,-36 10,-69 29,-102 18,-32 45,-58 81,-78 35,-19 70,-29 105,-29 14,0 30,3 50,8 10,3 17,4 21,4 8,0 16,-4 24,-12l8 0z"/>
   <path id="1" class="fil1" d="M8592 659l-79 269c-4,14 -6,23 -6,27 0,4 1,8 4,12 3,4 6,7 9,8 4,1 14,2 31,3l-3 8 -162 0 3 -8c16,0 27,-2 34,-4 6,-2 11,-6 15,-12 4,-5 9,-17 14,-34l47 -160c7,-24 11,-37 11,-38 1,-5 2,-8 2,-12 0,-7 -2,-13 -7,-17 -4,-4 -10,-6 -18,-6 -4,0 -12,0 -24,2l-2 -9 121 -29 10 0z"/>
   <path class="fil1" d="M6016 1032l-24 102 -8 0c-1,-28 -8,-48 -21,-62 -13,-14 -29,-21 -50,-21 -22,0 -44,10 -66,28 -21,19 -40,48 -55,86 -12,31 -19,62 -19,92 0,28 7,48 21,63 13,14 32,21 55,21 19,0 36,-4 52,-12 16,-8 31,-22 47,-40l11 0c-19,29 -39,50 -59,61 -20,12 -44,18 -73,18 -39,0 -70,-11 -94,-35 -23,-23 -35,-54 -35,-92 0,-35 9,-69 28,-101 19,-32 46,-58 81,-78 36,-20 71,-30 106,-30 13,0 30,3 49,9 10,3 17,4 21,4 8,0 16,-4 24,-13l9 0z"/>
   <path id="1" class="fil1" d="M6162 1361l-171 0 0 -9c45,-41 82,-78 112,-113 26,-28 42,-50 49,-65 6,-15 9,-31 9,-46 0,-14 -4,-26 -13,-35 -9,-9 -21,-14 -34,-14 -22,0 -41,13 -56,37l-9 -4c8,-24 19,-41 32,-54 18,-16 39,-25 64,-25 22,0 41,7 56,22 15,14 22,30 22,48 0,17 -3,33 -10,48 -8,16 -23,36 -45,60 -18,19 -53,50 -106,96l62 0c20,0 34,-3 42,-7 8,-5 15,-14 22,-27l11 0 -37 88z"/>
   <path class="fil1" d="M8140 5442l-139 0 2 -8c10,-1 16,-4 21,-8 4,-5 6,-10 6,-17 0,-7 -2,-19 -7,-34l-34 -110 -34 118c-4,13 -6,23 -6,28 0,7 3,13 8,17 5,4 15,6 28,6l-2 8 -156 0 3 -8c12,0 22,-2 28,-5 6,-3 11,-8 14,-14 4,-7 8,-19 13,-37l54 -187c6,-22 9,-35 9,-41 0,-6 -2,-10 -7,-14 -5,-4 -15,-6 -29,-7l3 -8 151 0 -2 8c-11,0 -18,2 -24,5 -7,4 -13,10 -17,18 -3,5 -7,17 -12,37l-22 76 84 -77c16,-15 25,-24 27,-27 2,-4 4,-8 4,-12 0,-5 -2,-9 -6,-13 -3,-3 -9,-6 -17,-7l2 -8 121 0 -2 8c-10,1 -17,2 -23,4 -8,3 -17,7 -27,13 -10,6 -20,13 -30,22l-22 20 -50 46 38 118c12,40 21,63 28,70 7,7 16,11 27,12l-3 8z"/>
   <path id="1" class="fil1" d="M8305 5285l-28 98c-4,13 -6,24 -6,30 0,6 2,11 7,15 5,4 15,6 31,6l-4 8 -154 0 3 -8c15,0 27,-3 34,-9 7,-6 13,-20 19,-41l60 -206c3,-12 4,-21 4,-28 0,-6 -2,-11 -6,-14 -4,-4 -13,-6 -28,-7l2 -8 133 0c38,0 65,7 80,20 16,13 24,30 24,51 0,22 -9,42 -28,59 -11,11 -31,21 -60,29l28 97c8,27 15,43 20,48 6,5 16,8 29,9l0 8 -100 0 -45 -157 -8 1c-1,0 -4,-1 -7,-1zm4 -14c5,0 10,1 14,1 22,0 41,-8 55,-24 15,-16 22,-37 22,-62 0,-15 -4,-27 -12,-35 -7,-8 -18,-12 -30,-12 -4,0 -7,0 -11,1l-38 131z"/>
   <path class="fil1" d="M2885 1458l-28 97c-4,14 -6,25 -6,31 0,6 2,11 7,15 5,3 15,5 31,6l-4 8 -154 0 3 -8c15,0 26,-3 34,-9 7,-6 13,-20 19,-41l59 -206c4,-12 5,-21 5,-28 0,-6 -2,-11 -6,-14 -4,-4 -13,-6 -28,-7l2 -8 133 0c38,0 65,6 80,20 16,13 24,30 24,51 0,22 -9,41 -28,59 -11,11 -31,21 -60,29l28 97c8,26 15,42 20,48 6,5 16,8 29,9l0 8 -100 0 -45 -157 -8 0c-1,0 -4,0 -7,0zm4 -14c5,0 10,0 14,0 22,0 41,-8 55,-23 15,-16 22,-37 22,-62 0,-16 -4,-27 -12,-35 -7,-8 -18,-12 -31,-12 -3,0 -6,0 -10,0l-38 132z"/>
   <path id="1" class="fil1" d="M3287 1287l-80 270c-4,14 -6,23 -6,27 0,4 1,8 4,12 3,4 6,6 10,7 3,2 13,3 30,4l-2 8 -162 0 2 -8c16,-1 28,-2 34,-4 6,-3 11,-7 15,-12 4,-6 9,-17 14,-34l47 -160c8,-24 11,-37 12,-39 1,-4 1,-8 1,-11 0,-8 -2,-13 -6,-17 -5,-5 -11,-7 -19,-7 -4,0 -12,1 -24,2l-2 -9 122 -29 10 0z"/>
   <path class="fil1" d="M4372 4197l-28 97c-4,14 -6,24 -6,31 0,6 3,11 7,15 5,3 15,5 31,6l-3 8 -155 0 3 -8c16,0 27,-4 34,-10 7,-6 14,-19 20,-40l59 -206c3,-12 5,-21 5,-28 0,-6 -2,-11 -6,-14 -4,-4 -14,-6 -29,-7l2 -8 133 0c39,0 65,6 81,19 15,14 23,31 23,52 0,21 -9,41 -27,59 -12,11 -32,21 -61,29l29 97c7,26 14,42 20,48 5,5 15,8 28,9l0 8 -99 0 -46 -157 -7 0c-2,0 -4,0 -8,0zm4 -14c6,0 10,0 14,0 22,0 41,-8 56,-23 14,-16 21,-37 21,-63 0,-15 -3,-26 -11,-34 -8,-8 -18,-12 -31,-12 -3,0 -7,0 -11,0l-38 132z"/>
   <path id="1" class="fil1" d="M4729 4354l-171 0 0 -9c45,-41 82,-79 113,-113 25,-29 41,-50 48,-66 6,-15 10,-30 10,-45 0,-15 -5,-26 -14,-35 -9,-9 -20,-14 -34,-14 -22,0 -41,12 -56,37l-9 -4c8,-24 19,-41 32,-54 18,-16 39,-25 64,-25 23,0 41,7 56,21 15,14 23,31 23,49 0,16 -4,32 -11,48 -8,16 -23,36 -45,60 -18,18 -53,50 -106,96l62 0c20,0 34,-3 42,-7 8,-5 15,-14 22,-27l11 0 -37 88z"/>
   <path class="fil1" d="M8764 6027l-24 101 -8 0c-1,-27 -8,-48 -21,-62 -13,-14 -29,-20 -49,-20 -23,0 -45,9 -66,28 -22,18 -41,47 -56,85 -12,31 -18,62 -18,93 0,27 6,48 20,62 13,14 32,21 55,21 19,0 37,-4 52,-12 16,-8 32,-22 48,-40l11 0c-20,29 -40,50 -60,62 -20,12 -44,17 -73,17 -39,0 -70,-11 -93,-35 -24,-23 -36,-54 -36,-91 0,-36 10,-70 28,-102 19,-32 46,-58 82,-78 35,-19 70,-29 105,-29 13,0 30,2 50,8 10,3 17,4 21,4 8,0 16,-4 24,-12l8 0z"/>
   <path id="1" class="fil1" d="M8955 6028l-80 269c-4,14 -6,23 -6,27 0,4 2,8 5,12 3,4 6,7 9,8 4,1 14,2 31,3l-3 8 -162 0 3 -8c16,0 27,-2 33,-4 7,-3 12,-6 16,-12 4,-5 8,-17 14,-34l47 -160c7,-24 11,-37 11,-39 1,-4 2,-8 2,-11 0,-7 -3,-13 -7,-17 -4,-4 -10,-6 -19,-6 -3,0 -11,0 -23,1l-2 -8 121 -29 10 0z"/>
   <path class="fil1" d="M4855 5105l-24 102 -8 0c-1,-28 -8,-49 -21,-62 -13,-14 -29,-21 -50,-21 -22,0 -44,9 -66,28 -21,19 -40,47 -55,86 -12,31 -19,62 -19,92 0,27 7,48 21,62 13,15 32,22 55,22 19,0 36,-4 52,-12 16,-9 31,-22 47,-41l12 0c-20,30 -40,50 -60,62 -20,12 -44,18 -73,18 -39,0 -70,-12 -94,-35 -23,-24 -35,-54 -35,-92 0,-35 9,-69 28,-101 19,-32 46,-58 81,-78 36,-20 71,-30 106,-30 13,0 30,3 49,9 11,2 18,4 21,4 8,0 16,-4 24,-13l9 0z"/>
   <path id="1" class="fil1" d="M5001 5434l-171 0 0 -9c45,-41 82,-79 113,-113 25,-29 41,-51 48,-66 6,-15 10,-30 10,-45 0,-15 -5,-26 -14,-35 -9,-9 -20,-14 -34,-14 -22,0 -41,12 -56,36l-9 -4c8,-23 19,-41 32,-53 18,-17 39,-25 64,-25 23,0 41,7 56,21 15,14 23,31 23,49 0,16 -4,32 -11,48 -8,16 -23,36 -45,60 -18,18 -53,50 -106,95l62 0c20,0 34,-2 42,-6 8,-5 15,-14 22,-27l11 0 -37 88z"/>
   <path class="fil1" d="M5986 3743l-27 98c-5,14 -7,24 -7,31 0,6 3,10 8,14 5,4 15,6 30,6l-3 8 -154 0 2 -8c16,0 27,-3 34,-9 7,-6 14,-20 20,-41l59 -206c3,-11 5,-21 5,-27 0,-7 -2,-12 -6,-15 -4,-3 -14,-5 -29,-7l3 -8 133 0c38,0 65,7 80,20 16,13 23,30 23,51 0,22 -9,42 -27,59 -11,12 -32,21 -61,29l29 98c8,26 14,42 20,47 6,6 15,9 29,9l0 8 -100 0 -45 -157 -8 1c-2,0 -4,0 -8,-1zm4 -14c6,1 10,1 14,1 23,0 41,-8 56,-24 14,-16 22,-36 22,-62 0,-15 -4,-27 -12,-35 -8,-7 -18,-11 -31,-11 -3,0 -7,0 -11,0l-38 131z"/>
   <path class="fil1" d="M10964 3599l26 -267c1,-14 2,-23 2,-28 0,-7 -3,-13 -8,-17 -6,-5 -14,-7 -25,-7l-9 0 3 -9 126 0 -2 9c-14,0 -23,1 -29,4 -5,3 -9,7 -12,14 -1,3 -3,13 -5,29l-19 192 126 -171c14,-18 22,-31 26,-39 2,-5 3,-9 3,-13 0,-4 -1,-8 -5,-11 -4,-3 -10,-5 -20,-5l2 -9 97 0 -3 9c-8,0 -14,2 -18,4 -9,4 -18,10 -26,19 -9,8 -22,25 -41,50l-181 246 -8 0z"/>
   <path id="1" class="fil1" d="M11357 3461c15,0 29,3 40,10 12,7 21,16 28,29 7,13 10,27 10,40 0,25 -7,51 -22,78 -14,27 -32,47 -55,62 -23,14 -47,21 -72,21 -17,0 -32,-4 -44,-12 -12,-8 -21,-18 -27,-31 -5,-13 -8,-25 -8,-37 0,-22 5,-43 15,-64 11,-21 23,-38 37,-52 15,-14 30,-25 46,-32 16,-8 34,-12 52,-12zm-6 11c-11,0 -23,3 -33,8 -11,6 -22,15 -33,28 -10,12 -20,29 -28,50 -11,25 -16,49 -16,71 0,16 4,30 13,43 8,12 20,18 38,18 10,0 20,-2 30,-7 10,-5 20,-14 31,-26 13,-16 25,-36 34,-60 9,-24 14,-46 14,-67 0,-15 -5,-29 -13,-40 -8,-12 -20,-18 -37,-18z"/>
   <path id="2" class="fil1" d="M11635 3454l-59 203c-4,11 -5,19 -5,22 0,1 0,2 1,3 0,1 1,1 2,1 1,0 2,-1 3,-2 3,-2 7,-9 13,-20l6 4c-7,11 -13,19 -20,26 -7,6 -13,9 -19,9 -3,0 -6,-2 -8,-4 -3,-3 -4,-7 -4,-12 0,-6 2,-15 5,-26l7 -21c-18,25 -35,43 -50,53 -10,6 -20,10 -29,10 -9,0 -17,-4 -25,-12 -7,-7 -10,-18 -10,-31 0,-16 6,-34 17,-53 12,-19 27,-35 46,-47 15,-9 29,-14 42,-14 6,0 12,1 17,4 5,2 9,6 14,12l16 -56c2,-6 3,-11 4,-15 2,-5 2,-8 2,-11 0,-3 0,-5 -2,-6 -2,-2 -6,-3 -9,-3 -3,0 -7,0 -13,1l0 -6 58 -9zm-65 121c0,-7 -3,-13 -7,-17 -5,-5 -11,-7 -18,-7 -16,0 -32,12 -49,35 -17,24 -25,46 -25,68 0,8 2,15 6,19 4,5 10,7 16,7 13,0 30,-13 48,-38 19,-26 29,-48 29,-67z"/>
   <g>
    <path class="fil1" d="M12031 2885l92 224 0 0 -6 -3 -6 -2 -6 -3 -6 -3 -6 -2 -6 -2 -6 -2 -6 -1 -5 -2 -6 -1 -6 -1 -6 -1 -6 -1 -6 0 -6 -1 -6 0 -6 0 -6 0 -6 1 -6 0 -6 1 -6 1 -6 1 -6 1 -6 2 -6 1 -6 2 -6 2 -6 3 -6 2 -6 3 -6 2 99 -221zm-28 1314l17 -1202 18 0 -18 1203 -17 -1z"/>
   </g>
   <g>
    <path class="fil1" d="M5421 594l0 834 -18 0 0 -834 18 0zm74 0l0 15 -166 0 0 -31 166 0 0 16z"/>
   </g>
   <g>
    <path class="fil1" d="M3820 2343l0 -6c29,-4 52,-13 66,-26 11,-10 16,-21 16,-34 0,-9 -3,-18 -9,-24 -6,-6 -14,-9 -22,-9 -14,0 -26,8 -37,25l-7 -2c7,-14 15,-25 25,-32 10,-8 21,-11 33,-11 14,0 26,4 35,13 9,9 14,20 14,33 0,11 -5,22 -13,33 -9,10 -23,19 -44,28 13,5 23,13 29,22 7,10 10,22 10,36 0,16 -4,31 -13,46 -9,16 -21,28 -37,36 -15,9 -32,13 -49,13 -15,0 -27,-3 -35,-8 -5,-4 -8,-8 -8,-13 0,-4 2,-8 5,-11 3,-3 7,-5 11,-5 4,0 7,1 10,2 2,0 7,3 15,7 7,5 13,7 18,9 4,1 8,2 13,2 11,0 20,-6 27,-19 8,-13 11,-27 11,-42 0,-11 -2,-22 -7,-31 -5,-9 -13,-17 -23,-23 -11,-5 -22,-8 -34,-9z"/>
    <circle class="fil0 str1" cx="3854" cy="2354" r="190"/>
   </g>
   <g>
    <path class="fil1" d="M3855 4091l-47 165 29 0 -6 23 -30 0 -20 67 -27 0 20 -67 -91 0 7 -26 151 -162 14 0zm-41 48l-108 117 74 0 34 -117z"/>
    <circle class="fil0 str1" cx="3783" cy="4206" r="190"/>
   </g>
   <g>
    <path class="fil1" d="M5454 2205l83 0 -8 31 -76 0 -14 31c20,3 36,9 47,18 17,15 26,35 26,61 0,17 -3,33 -10,46 -6,14 -14,26 -23,35 -9,10 -19,17 -29,22 -15,8 -29,12 -44,12 -12,0 -22,-3 -29,-9 -5,-3 -8,-8 -8,-13 0,-5 2,-9 5,-12 3,-3 7,-5 12,-5 7,0 14,4 22,10 5,4 9,7 12,8 3,1 6,2 9,2 14,0 27,-7 39,-21 11,-14 17,-32 17,-54 0,-15 -3,-29 -9,-39 -6,-11 -14,-19 -24,-23 -9,-5 -22,-8 -38,-10l40 -90z"/>
    <circle class="fil0 str1" cx="5453" cy="2333" r="190"/>
   </g>
   <g>
    <path class="fil1" d="M10482 2510l124 0 0 7 -140 249 -15 -7 123 -219 -60 0c-16,0 -27,1 -33,4 -6,3 -13,10 -21,21l-8 0 30 -55z"/>
    <circle class="fil0 str1" cx="10528" cy="2638" r="190"/>
   </g>
   <g>
    <path class="fil1" d="M10541 4453c11,13 20,25 26,37 5,11 8,22 8,33 0,20 -8,38 -23,53 -15,15 -34,22 -57,22 -20,0 -36,-6 -49,-18 -12,-12 -19,-26 -19,-43 0,-14 5,-27 16,-41 10,-13 29,-26 58,-39 -11,-13 -19,-24 -22,-33 -4,-9 -6,-17 -6,-26 0,-16 6,-30 18,-42 12,-12 28,-18 47,-18 17,0 32,5 43,15 11,11 17,23 17,36 0,14 -4,26 -14,37 -9,11 -23,20 -43,27zm-8 -7c14,-5 24,-12 31,-23 8,-10 11,-22 11,-35 0,-13 -3,-23 -10,-30 -7,-7 -17,-11 -28,-11 -11,0 -20,4 -27,11 -7,6 -10,15 -10,26 0,9 2,16 5,23 6,11 15,23 28,39zm-25 19c-19,8 -33,19 -42,33 -9,15 -14,30 -14,47 0,13 4,24 12,32 9,8 20,13 33,13 14,0 26,-5 36,-15 10,-10 14,-22 14,-36 0,-10 -3,-21 -8,-32 -6,-12 -16,-26 -31,-42z"/>
    <circle class="fil0 str1" cx="10513" cy="4468" r="190"/>
   </g>
   <polyline class="fil0 str0" points="8478,5696 8422,5834 8310,5553 8198,5834 8085,5553 7973,5834 7861,5553 7805,5696 "/>
   <path class="fil0 str0" d="M8350 543l0 -543m-246 533c172,-183 170,-322 -2,-501"/>
   <polyline class="fil0 str1" points="8673,4674 8673,5706 8478,5706 "/>
   <polyline class="fil0 str1" points="7558,5183 7558,5706 7805,5706 "/>
   <g>
    <circle class="fil0 str1" cx="5124" cy="4193" r="190"/>
    <path class="fil1" d="M5211 4062l0 8c-21,5 -41,15 -61,31 -20,16 -37,36 -52,61 13,-6 24,-9 32,-9 16,0 29,6 40,17 12,12 17,27 17,46 0,29 -9,55 -28,75 -19,21 -40,32 -62,32 -20,0 -35,-8 -45,-22 -10,-15 -16,-32 -16,-52 0,-25 6,-50 18,-74 12,-25 27,-46 47,-64 20,-17 41,-30 63,-39 13,-5 28,-8 47,-10zm-122 115c-18,38 -27,69 -27,95 0,13 4,23 11,31 6,7 14,11 22,11 15,0 28,-10 40,-31 13,-21 19,-44 19,-71 0,-15 -4,-26 -11,-34 -7,-8 -16,-12 -26,-12 -4,0 -9,1 -12,2 -4,2 -10,5 -16,9z"/>
   </g>
   <g>
    <path class="fil1" d="M5076 674c16,0 29,7 40,20 11,13 16,34 16,63 0,24 -4,49 -12,74 -8,26 -19,48 -33,66 -12,15 -24,26 -37,32 -7,4 -16,6 -26,6 -16,0 -29,-7 -40,-20 -11,-13 -16,-34 -16,-63 0,-28 6,-56 16,-85 13,-33 29,-58 49,-76 13,-11 27,-17 43,-17zm1 10c-7,0 -15,3 -22,8 -7,6 -15,18 -23,35 -8,18 -15,41 -22,69 -10,37 -14,68 -14,94 0,12 3,22 8,28 6,7 12,10 20,10 8,0 14,-3 20,-8 14,-13 26,-36 36,-68 17,-52 25,-95 25,-128 0,-14 -3,-24 -9,-30 -5,-7 -12,-10 -19,-10z"/>
    <circle class="fil0 str1" cx="5050" cy="804" r="190"/>
   </g>
   <g>
    <path class="fil1" d="M5076 5755c16,0 29,6 40,20 11,13 16,34 16,62 0,24 -4,49 -12,75 -8,25 -19,47 -33,66 -12,14 -24,25 -37,31 -7,4 -16,6 -26,6 -16,0 -29,-7 -40,-20 -11,-13 -16,-34 -16,-62 0,-29 6,-57 16,-85 13,-34 29,-59 49,-76 13,-11 27,-17 43,-17zm1 9c-7,0 -15,3 -22,9 -7,5 -15,17 -23,35 -8,18 -15,40 -22,68 -10,37 -14,68 -14,94 0,13 3,22 8,29 6,6 12,9 20,9 8,0 14,-2 20,-7 14,-14 26,-36 36,-68 17,-53 25,-96 25,-129 0,-13 -3,-24 -9,-30 -5,-6 -12,-10 -19,-10z"/>
    <circle class="fil0 str1" cx="5050" cy="5885" r="190"/>
   </g>
   <polyline class="fil0 str1" points="2653,4627 2113,4627 2106,3146 2099,1896 2653,1896 "/>
   <g>
    <ellipse class="fil0 str0" cx="524" cy="3772" rx="507" ry="510"/>
    <polygon class="fil1" points="428,3438 493,3438 493,3373 548,3373 548,3438 613,3438 613,3492 548,3492 548,3557 493,3557 493,3492 428,3492 "/>
    <polygon class="fil1" points="441,4100 618,4100 618,4138 441,4138 "/>
    <ellipse class="fil0 str0" cx="524" cy="3772" rx="507" ry="510"/>
    <polygon class="fil1" points="428,3438 493,3438 493,3373 548,3373 548,3438 613,3438 613,3492 548,3492 548,3557 493,3557 493,3492 428,3492 "/>
    <polygon class="fil1" points="441,4100 618,4100 618,4138 441,4138 "/>
   </g>
   <g>
    <path class="fil1" d="M2379 1374l-60 208c-3,12 -5,21 -5,26 0,5 2,8 5,10 3,3 10,4 22,5l-2 7 -95 0 3 -7c10,0 16,-1 20,-2 5,-2 9,-5 11,-9 4,-6 8,-16 13,-30l43 -149c2,-9 4,-15 4,-16 0,-2 0,-5 0,-7 0,-4 -1,-8 -3,-10 -3,-3 -6,-4 -10,-4 -3,0 -8,1 -15,2l-2 -6 62 -18 9 0z"/>
    <circle class="fil0 str1" cx="2312" cy="1502" r="190"/>
   </g>
   <g>
    <path class="fil1" d="M2650 5074l-133 0 0 -7c35,-32 64,-61 88,-88 20,-22 32,-39 37,-51 6,-12 8,-24 8,-36 0,-11 -3,-20 -10,-27 -8,-7 -16,-11 -27,-11 -17,0 -32,10 -44,29l-7 -4c7,-18 15,-32 25,-41 14,-13 31,-20 50,-20 18,0 33,6 44,17 12,11 18,23 18,38 0,13 -3,25 -9,37 -6,13 -17,28 -35,47 -14,14 -41,39 -83,75l49 0c15,0 26,-2 32,-5 7,-4 12,-11 18,-22l9 0 -30 69z"/>
    <circle class="fil0 str1" cx="2608" cy="4946" r="190"/>
   </g>
   <g>
    <path class="fil1" d="M2106 1960l-4 0 -3 0 -3 -1 -3 0 -3 -1 -3 -1 -3 -1 -3 -1 -3 -1 -3 -2 -2 -1 -3 -2 -2 -2 -3 -2 -2 -2 -2 -2 -2 -2 -2 -2 -2 -3 -2 -2 -2 -3 -1 -2 -2 -3 -1 -3 -1 -3 -1 -3 -1 -3 -1 -3 0 -3 -1 -3 0 -3 0 -4 0 0 0 -3 0 -3 1 -3 0 -3 1 -3 1 -4 1 -2 1 -3 1 -3 2 -3 1 -3 2 -2 2 -3 2 -2 2 -2 2 -3 2 -2 2 -2 3 -2 2 -1 3 -2 2 -2 3 -1 3 -1 3 -1 3 -1 3 -1 3 -1 3 0 3 -1 3 0 4 0 0 0 3 0 3 0 3 1 3 0 3 1 3 1 3 1 3 1 3 1 3 1 2 2 3 2 3 1 2 2 2 2 2 2 3 3 2 2 1 2 2 3 2 2 1 3 2 3 1 3 1 3 1 2 1 4 1 3 0 3 1 3 0 3 0 3 0 0 0 4 0 3 -1 3 0 3 -1 3 -1 3 -1 3 -1 3 -1 3 -2 3 -1 2 -2 3 -2 2 -1 3 -2 2 -3 2 -2 2 -2 2 -2 2 -3 2 -3 2 -2 1 -3 2 -3 1 -3 1 -3 1 -3 1 -3 1 -3 0 -3 1 -3 0 -3 0 0 0zm-1585 -73l1585 0 0 18 -1585 0 -9 -9 9 -9zm-9 9l0 -9 9 0 -9 9zm0 1366l0 -1366 18 0 0 1366 -18 0z"/>
   </g>
   <g>
    <path class="fil1" d="M516 5010l0 -728 17 0 0 728 -17 0zm-127 0l0 -16 271 0 0 32 -271 0 0 -16z"/>
   </g>
   <path class="fil1" d="M1222 3969l34 -348c1,-18 2,-30 2,-36 0,-9 -3,-17 -10,-23 -7,-7 -18,-10 -33,-10l-11 0 3 -11 165 0 -3 11c-18,1 -30,3 -37,6 -7,4 -12,10 -16,18 -2,5 -4,18 -6,39l-25 250 164 -223c18,-24 29,-41 34,-51 3,-6 4,-12 4,-16 0,-6 -2,-11 -7,-15 -5,-4 -14,-7 -27,-8l4 -11 125 0 -3 11c-10,1 -18,3 -24,6 -11,6 -22,14 -33,25 -12,11 -29,33 -54,66l-235 320 -11 0z"/>
   <path id="1" class="fil1" d="M1682 4045c-15,18 -30,31 -45,39 -15,9 -32,13 -49,13 -20,0 -36,-6 -47,-17 -12,-12 -18,-27 -18,-47 0,-22 7,-43 19,-65 12,-21 29,-38 50,-51 20,-14 41,-20 61,-20 16,0 27,3 35,10 8,6 12,14 12,24 0,9 -3,16 -9,22 -3,5 -8,8 -14,8 -5,0 -8,-2 -11,-5 -3,-2 -5,-6 -5,-10 0,-3 1,-6 2,-8 1,-2 3,-5 6,-8 4,-3 6,-6 7,-7 0,-2 1,-3 1,-5 0,-3 -2,-5 -4,-7 -5,-3 -11,-5 -18,-5 -15,0 -29,5 -43,15 -14,10 -26,24 -35,43 -12,22 -18,44 -18,66 0,15 4,26 12,35 9,8 20,12 35,12 11,0 22,-2 33,-8 11,-5 23,-15 37,-30l6 6z"/>
  </g>
 </g>
</svg>
