<?xml version="1.0" encoding="UTF-8"?>
<!DOCTYPE svg PUBLIC "-//W3C//DTD SVG 1.1//EN" "http://www.w3.org/Graphics/SVG/1.1/DTD/svg11.dtd">
<!-- Creator: CorelDRAW Home & Student X8 -->
<svg xmlns="http://www.w3.org/2000/svg" xml:space="preserve" width="74.3277mm" height="43.2506mm" version="1.1" style="shape-rendering:geometricPrecision; text-rendering:geometricPrecision; image-rendering:optimizeQuality; fill-rule:evenodd; clip-rule:evenodd"
viewBox="0 0 3083 1794"
 xmlns:xlink="http://www.w3.org/1999/xlink">
 <defs>
  <style type="text/css">
   <![CDATA[
    .str0 {stroke:#2B2A29;stroke-width:16.5889}
    .str1 {stroke:#2B2A29;stroke-width:8.29445}
    .str2 {stroke:#E31E24;stroke-width:8.29445}
    .fil0 {fill:none}
    .fil1 {fill:#2B2A29;fill-rule:nonzero}
    .fil2 {fill:#E31E24;fill-rule:nonzero}
   ]]>
  </style>
 </defs>
 <g id="Warstwa_x0020_1">
  <metadata id="CorelCorpID_0Corel-Layer"/>
  <g id="_674267032">
   <polygon class="fil0 str0" points="1754,312 1754,1326 2765,822 "/>
   <polyline class="fil0 str0" points="1031,445 1018,477 992,412 966,477 940,412 914,477 888,412 875,445 "/>
   <polyline class="fil0 str0" points="1373,445 1360,477 1334,412 1308,477 1282,412 1256,477 1230,412 1217,445 "/>
   <polyline class="fil0 str0" points="1373,1078 1360,1110 1334,1045 1308,1110 1282,1045 1256,1110 1230,1045 1217,1078 "/>
   <polyline class="fil0 str0" points="1031,1078 1018,1110 992,1045 966,1110 940,1045 914,1110 888,1045 875,1078 "/>
   <polyline class="fil0 str0" points="1632,1148 1600,1135 1665,1109 1600,1083 1665,1057 1600,1031 1665,1005 1632,992 "/>
   <path class="fil0 str0" d="M1371 529l125 0m-123 57c42,-40 75,-39 116,0"/>
   <path class="fil0 str0" d="M1496 987l-125 0m123 -57c-42,39 -75,39 -116,-1"/>
   <polygon class="fil1" points="1831,435 1846,435 1846,420 1859,420 1859,435 1874,435 1874,447 1859,447 1859,462 1846,462 1846,447 1831,447 "/>
   <polygon class="fil1" points="2367,683 2382,683 2382,668 2395,668 2395,683 2410,683 2410,696 2395,696 2395,711 2382,711 2382,696 2367,696 "/>
   <polygon class="fil1" points="1989,1103 2004,1103 2004,1088 2017,1088 2017,1103 2032,1103 2032,1116 2017,1116 2017,1131 2004,1131 2004,1116 1989,1116 "/>
   <polygon class="fil1" points="1831,942 1846,942 1846,927 1859,927 1859,942 1874,942 1874,954 1859,954 1859,969 1846,969 1846,954 1831,954 "/>
   <polygon class="fil1" points="1831,689 1872,689 1872,697 1831,697 "/>
   <polygon class="fil1" points="2373,944 2414,944 2414,952 2373,952 "/>
   <polygon class="fil1" points="2851,1008 2892,1008 2892,1017 2851,1017 "/>
   <polyline class="fil0 str1" points="2520,693 2772,693 2772,63 2184,63 "/>
   <g>
    <path class="fil1" d="M1131 62l1014 0 0 9 -1014 0 -4 -4 4 -5zm-4 5l0 -5 4 0 -4 5zm0 374l0 -374 8 0 0 374 -8 0zm34 0l0 0 0 2 -1 1 0 2 0 1 0 1 -1 2 0 1 -1 2 0 1 -1 1 -1 1 0 2 -1 1 -1 1 -1 1 -1 1 -1 1 -1 1 -1 1 -1 1 -2 0 -1 1 -1 1 -1 0 -2 1 -1 0 -2 1 -1 0 -1 0 -2 0 -1 1 -2 0 0 0 -1 0 -2 -1 -1 0 -2 0 -1 0 -2 -1 -1 0 -1 -1 -2 0 -1 -1 -1 -1 -1 0 -2 -1 -1 -1 -1 -1 -1 -1 -1 -1 -1 -1 -1 -1 0 -1 -1 -2 -1 -1 0 -1 -1 -1 -1 -2 0 -1 0 -2 -1 -1 0 -1 0 -2 0 -1 0 -2 0 0 0 -1 0 -2 0 -1 0 -2 1 -1 0 -2 0 -1 1 -1 1 -2 0 -1 1 -1 1 -1 0 -1 1 -2 1 -1 1 -1 1 -1 1 -1 1 0 2 -1 1 -1 1 -1 1 0 2 -1 1 -1 1 0 2 0 1 -1 2 0 1 0 2 0 1 0 0 0 2 0 1 0 2 0 1 0 1 1 2 0 1 0 2 1 1 1 1 0 1 1 2 1 1 1 1 0 1 1 1 1 1 1 1 1 1 2 1 1 0 1 1 1 1 1 0 2 1 1 0 1 1 2 0 1 0 2 0 1 1 2 0 1z"/>
   </g>
   <line class="fil0 str1" x1="1434" y1="558" x2="1434" y2= "751" />
   <line class="fil0 str1" x1="1748" y1="438" x2="1373" y2= "438" />
   <g>
    <path class="fil1" d="M1470 444l0 2 -1 1 0 2 0 1 0 2 -1 1 0 1 -1 2 0 1 -1 1 -1 2 0 1 -1 1 -1 1 -1 1 -1 1 -1 1 -1 1 -1 1 -1 1 -2 1 -1 0 -1 1 -1 1 -2 0 -1 1 -2 0 -1 0 -1 1 -2 0 -1 0 -2 0 0 0 -1 0 -2 0 -1 0 -2 -1 -1 0 -2 0 -1 -1 -1 0 -2 -1 -1 -1 -1 0 -1 -1 -2 -1 -1 -1 -1 -1 -1 -1 -1 -1 -1 -1 -1 -1 0 -1 -1 -1 -1 -2 0 -1 -1 -1 -1 -2 0 -1 0 -1 -1 -2 0 -1 0 -2 0 -1 0 -2 0 0 0 -1 0 -2 0 -1 0 -2 1 -1 0 -1 0 -2 1 -1 1 -1 0 -2 1 -1 1 -1 0 -1 1 -1 1 -1 1 -1 1 -1 1 -1 1 -1 2 -1 1 -1 1 -1 1 0 2 -1 1 0 1 -1 2 0 1 -1 2 0 1 0 2 0 1 0 0 0 2 0 1 0 2 0 1 0 1 1 2 0 1 1 2 0 1 1 1 0 1 1 2 1 1 1 1 1 1 1 1 1 1 1 1 1 1 1 1 1 0 1 1 1 1 2 0 1 1 1 0 2 1 1 0 1 0 2 0 1 1 2 0 1 0 0zm-34 84l0 -84 8 0 0 84 -8 0z"/>
   </g>
   <path class="fil0 str0" d="M2187 126l0 -126m-57 124c39,-43 39,-75 -1,-117"/>
   <polygon class="fil1" points="2842,632 2857,632 2857,617 2869,617 2869,632 2884,632 2884,644 2869,644 2869,659 2857,659 2857,644 2842,644 "/>
   <line class="fil0 str1" x1="1217" y1="445" x2="1031" y2= "445" />
   <polygon class="fil1" points="2238,1008 2279,1008 2279,1017 2238,1017 "/>
   <polygon class="fil1" points="1834,1192 1875,1192 1875,1201 1834,1201 "/>
   <g>
    <path class="fil1" d="M1401 1071l0 -2 0 -1 0 -2 1 -1 0 -2 0 -1 1 -1 0 -2 1 -1 0 -1 1 -1 1 -2 1 -1 1 -1 1 -1 1 -1 1 -1 1 -1 1 -1 1 -1 1 0 1 -1 2 -1 1 0 1 -1 2 0 1 -1 1 0 2 0 1 -1 2 0 1 0 0 0 2 0 1 0 2 1 1 0 2 0 1 1 2 0 1 1 1 0 1 1 2 1 1 0 1 1 1 1 1 1 1 1 1 1 1 1 1 1 1 1 1 2 0 1 1 1 1 1 0 2 1 1 0 1 0 2 1 1 0 2 0 1 0 2 0 0 0 1 0 2 0 1 -1 2 0 1 0 2 -1 1 0 1 -1 2 -1 1 0 1 -1 1 -1 1 -1 2 -1 1 -1 1 -1 1 -1 1 -1 0 -1 1 -1 1 -2 1 -1 0 -1 1 -1 1 -2 0 -1 0 -2 1 -1 0 -2 0 -1 0 -2 0 0 0 -1 0 -2 0 -1 0 -2 0 -1 -1 -1 0 -2 0 -1 -1 -1 -1 -2 0 -1 -1 -1 -1 -1 -1 -1 0 -1 -1 -1 -1 -1 -1 -1 -1 -1 -2 -1 -1 -1 -1 -1 -1 0 -1 -1 -2 0 -1 -1 -1 0 -2 0 -1 -1 -2 0 -1 0 -2 0 -1 0 0zm34 -74l0 74 -9 0 0 -74 9 0z"/>
   </g>
   <polyline class="fil0 str1" points="1433,958 1433,761 1434,558 "/>
   <polyline class="fil0 str1" points="1373,1071 1549,1071 1549,701 1754,701 "/>
   <line class="fil0 str1" x1="1217" y1="1078" x2="1031" y2= "1078" />
   <polyline class="fil0 str1" points="1764,951 1632,951 1632,992 "/>
   <polyline class="fil0 str1" points="1752,1200 1635,1200 1635,1148 "/>
   <path class="fil1" d="M1899 1053l20 30c4,6 6,9 8,10 1,1 3,2 5,2l0 2 -37 0 0 -2c3,0 5,-1 6,-2 1,0 1,-1 1,-2 0,-1 0,-1 0,-2 -1,-1 -2,-3 -4,-6l-11 -16 -11 14c-4,4 -5,7 -5,8 0,1 0,2 1,3 1,1 2,2 4,2 1,1 2,1 5,1l0 2 -29 0 0 -2c3,-1 6,-2 8,-3 2,-2 6,-5 10,-11l15 -17 -19 -28c-3,-5 -5,-8 -5,-8 -1,-1 -2,-2 -3,-3 -1,0 -3,-1 -4,-1l0 -2 37 0 0 2 -2 0c-2,0 -4,0 -5,1 -1,1 -1,2 -1,3 0,1 0,1 0,2l4 6 9 13 8 -9c4,-5 6,-8 6,-10 0,-1 0,-2 -1,-3 0,-1 -1,-2 -2,-2 -1,-1 -3,-1 -5,-1l0 -2 27 0 0 2c-2,0 -4,0 -5,1 -1,0 -3,1 -4,3 -1,1 -3,3 -7,8l-14 17z"/>
   <path class="fil1" d="M1925 541l0 2c-3,0 -5,1 -6,2 -2,2 -5,6 -9,13l-16 27 0 18c0,4 0,6 1,7 0,1 1,2 2,3 1,0 3,1 5,1l4 0 0 2 -42 0 0 -2 4 0c2,0 4,-1 5,-2 1,0 2,-1 3,-2 0,-1 0,-3 0,-7l0 -15 -17 -32c-4,-6 -6,-10 -8,-11 -1,-1 -3,-2 -5,-2l0 -2 35 0 0 2 -1 0c-2,0 -4,0 -5,1 -1,1 -1,1 -1,2 0,1 1,5 4,10l14 25 13 -23c4,-5 5,-9 5,-11 0,-1 0,-2 -1,-2 -1,-1 -4,-2 -7,-2l0 -2 23 0z"/>
   <path class="fil1" d="M2165 964l-44 70 15 0c6,0 11,0 14,-1 4,-1 8,-4 11,-7 3,-4 5,-8 6,-14l3 0 -3 27 -69 0 44 -71 -11 0c-4,0 -7,0 -8,1 -3,0 -5,1 -7,2 -3,2 -5,4 -6,6 -2,2 -3,5 -4,9l-2 0 2 -22 59 0z"/>
   <path class="fil1" d="M2440 780l0 2c-1,0 -2,0 -3,1 -1,1 -2,2 -3,3 0,1 -1,3 -3,9l-23 61 -2 0 -19 -48 -20 48 -2 0 -25 -61c-2,-6 -4,-10 -5,-11 -1,-1 -2,-2 -5,-2l0 -2 32 0 0 2c-2,0 -4,0 -5,1 -1,1 -1,2 -1,3 0,1 1,4 3,9l14 36 12 -29 -3 -7c-2,-5 -3,-8 -4,-9 -1,-1 -2,-3 -3,-3 -1,-1 -3,-1 -5,-1l0 -2 36 0 0 2c-3,0 -5,0 -6,1 -1,0 -1,0 -2,1 0,0 0,1 0,2 0,1 0,3 2,8l14 35 12 -32c1,-3 2,-6 2,-7 0,-1 1,-2 1,-3 0,-2 -1,-3 -2,-4 -1,-1 -3,-1 -6,-1l0 -2 19 0z"/>
   <path class="fil1" d="M900 969l-6 22c-1,3 -2,6 -2,7 0,2 1,3 2,4 1,1 3,1 7,1l-1 2 -36 0 1 -2c4,0 6,-1 8,-2 1,-1 3,-5 4,-9l14 -48c1,-3 1,-5 1,-7 0,-1 0,-2 -1,-3 -1,-1 -3,-1 -7,-1l1 -2 31 0c8,0 15,1 18,4 4,3 6,7 6,12 0,5 -3,10 -7,14 -2,2 -7,5 -14,6l7 23c2,6 3,10 4,11 2,1 4,2 7,2l0 2 -23 0 -10 -36 -2 0c-1,0 -1,0 -2,0zm1 -4c1,0 2,1 3,1 5,0 10,-2 13,-6 3,-4 5,-8 5,-14 0,-4 -1,-7 -3,-8 -1,-2 -4,-3 -7,-3 -1,0 -1,0 -2,0l-9 30z"/>
   <path id="1" class="fil1" d="M993 929l-18 63c-1,3 -2,5 -2,6 0,1 1,2 1,3 1,1 2,1 2,1 1,1 4,1 8,1l-1 2 -38 0 1 -2c4,0 6,0 8,-1 1,0 2,-1 3,-2 1,-2 2,-4 4,-8l10 -37c2,-6 3,-9 3,-9 0,-1 0,-2 0,-3 0,-2 0,-3 -1,-4 -1,-1 -2,-2 -4,-2 -1,0 -3,1 -6,1l0 -2 28 -7 2 0z"/>
   <path id="2" class="fil1" d="M1036 929l-10 33c3,-3 5,-5 7,-6 2,-1 4,-2 6,-2 4,0 7,2 9,5 3,3 4,7 4,11 0,10 -4,19 -11,26 -6,7 -13,11 -21,11 -6,0 -12,-2 -19,-6l17 -58c1,-2 1,-4 1,-5 0,-1 0,-2 -1,-3 -1,0 -3,-1 -5,-1l1 -2 19 -3 3 0zm-22 73c2,1 4,1 5,1 2,0 3,0 5,-1 2,-1 4,-3 6,-7 2,-3 4,-7 5,-11 2,-5 3,-10 3,-14 0,-3 -1,-5 -2,-6 -1,-1 -2,-2 -4,-2 -2,0 -4,1 -6,4 -1,1 -3,5 -4,10l-8 26z"/>
   <path class="fil1" d="M1224 330l-7 22c-1,3 -1,6 -1,7 0,2 0,3 2,4 1,0 3,1 7,1l-1 2 -36 0 1 -2c3,0 6,-1 8,-2 1,-1 3,-5 4,-10l14 -47c1,-3 1,-5 1,-7 0,-1 0,-2 -1,-3 -1,-1 -4,-1 -7,-2l0 -2 31 0c9,0 15,2 19,5 4,3 5,7 5,12 0,5 -2,10 -6,14 -3,2 -7,4 -14,6l7 23c1,6 3,10 4,11 2,1 4,2 7,2l0 2 -23 0 -11 -36 -1 0c-1,0 -1,0 -2,0zm1 -4c1,0 2,0 3,0 5,0 9,-1 13,-5 3,-4 5,-9 5,-14 0,-4 -1,-7 -3,-8 -2,-2 -4,-3 -7,-3 -1,0 -2,0 -3,0l-8 30z"/>
   <path id="1" class="fil1" d="M1306 366l-39 0 0 -2c10,-10 19,-18 26,-26 6,-7 10,-12 11,-15 2,-4 2,-7 2,-11 0,-3 -1,-6 -3,-8 -2,-2 -5,-3 -8,-3 -5,0 -9,3 -13,8l-2 -1c2,-5 5,-9 8,-12 4,-4 9,-6 14,-6 6,0 10,2 14,5 3,3 5,7 5,11 0,4 -1,8 -3,11 -1,4 -5,9 -10,14 -4,4 -12,12 -25,22l15 0c4,0 7,0 9,-1 2,-1 4,-3 5,-6l3 0 -9 20z"/>
   <path id="2" class="fil1" d="M1377 316l-11 36 -1 5c0,0 0,1 0,1 0,0 0,1 0,1 0,0 1,1 1,1 1,0 2,-1 3,-2 1,-1 2,-2 4,-5l2 1c-3,5 -5,8 -8,10 -3,2 -6,3 -10,3 -2,0 -3,0 -5,-1 -1,-1 -1,-3 -1,-4 0,-2 0,-4 2,-8l1 -5c-4,8 -8,13 -12,16 -3,2 -5,2 -8,2 -3,0 -5,-1 -7,-4 -1,-2 -2,-6 -2,-9 0,-5 1,-11 5,-18 3,-6 7,-12 12,-16 4,-3 8,-5 12,-5 2,0 4,1 5,2 1,1 2,3 3,6l2 -6 13 -1zm-18 10c0,-3 0,-5 -1,-6 -1,-1 -2,-1 -3,-1 -1,0 -2,0 -4,1 -2,2 -5,7 -8,14 -2,7 -4,13 -4,18 0,2 0,3 1,4 1,1 1,1 2,1 2,0 4,-1 5,-3 3,-2 5,-6 7,-9 3,-7 5,-13 5,-19z"/>
   <path class="fil1" d="M2170 152l-5 24 -2 0c0,-6 -2,-11 -5,-14 -3,-4 -7,-5 -11,-5 -6,0 -11,2 -16,6 -5,5 -9,11 -13,20 -2,7 -4,15 -4,22 0,6 2,11 5,14 3,3 7,5 13,5 4,0 8,-1 12,-3 3,-2 7,-5 11,-9l2 0c-4,7 -9,11 -13,14 -5,3 -11,4 -17,4 -9,0 -17,-2 -22,-8 -6,-5 -8,-12 -8,-21 0,-8 2,-16 6,-24 5,-7 11,-13 19,-18 8,-4 16,-7 24,-7 4,0 7,1 12,2 2,1 4,1 5,1 2,0 4,-1 5,-3l2 0z"/>
   <path id="1" class="fil1" d="M2215 153l-19 62c-1,3 -1,5 -1,6 0,1 0,2 1,3 0,1 1,2 2,2 1,0 3,0 7,1l-1 2 -37 0 1 -2c3,0 6,-1 7,-1 2,-1 3,-2 4,-3 1,-1 2,-4 3,-8l11 -37c2,-6 3,-9 3,-9 0,-1 0,-2 0,-3 0,-1 0,-3 -2,-4 -1,0 -2,-1 -4,-1 -1,0 -3,0 -5,0l-1 -2 28 -6 3 0z"/>
   <path id="2" class="fil1" d="M2274 179l-10 36 -1 4c-1,1 -1,1 -1,2 0,0 1,0 1,1 0,0 0,0 1,0 1,0 2,0 3,-1 0,-1 2,-3 4,-6l2 1c-3,5 -6,9 -9,11 -2,2 -6,3 -9,3 -2,0 -4,0 -5,-2 -1,-1 -1,-2 -1,-4 0,-1 0,-4 1,-7l2 -5c-5,7 -9,12 -13,15 -2,2 -4,3 -7,3 -3,0 -6,-1 -7,-4 -2,-3 -2,-6 -2,-9 0,-6 1,-11 4,-18 4,-7 8,-12 13,-16 4,-4 8,-5 12,-5 2,0 4,0 5,2 1,1 2,3 3,6l2 -7 12 0zm-17 10c0,-3 -1,-5 -1,-6 -1,-1 -2,-2 -3,-2 -1,0 -3,1 -4,2 -2,2 -5,7 -8,14 -3,7 -4,12 -4,18 0,1 0,3 1,4 1,1 1,1 2,1 2,0 3,-1 5,-3 2,-3 5,-6 7,-10 3,-7 5,-13 5,-18z"/>
   <path class="fil1" d="M1231 545l-5 24 -2 0c-1,-7 -2,-12 -5,-15 -3,-3 -7,-5 -12,-5 -5,0 -10,3 -15,7 -5,4 -9,11 -13,20 -3,7 -4,14 -4,21 0,7 1,11 5,15 3,3 7,5 12,5 5,0 9,-1 12,-3 4,-2 8,-5 11,-10l3 0c-5,7 -9,12 -14,15 -4,3 -10,4 -17,4 -9,0 -16,-3 -21,-8 -6,-6 -9,-13 -9,-22 0,-8 3,-16 7,-23 4,-7 11,-13 19,-18 8,-5 16,-7 24,-7 3,0 7,1 12,2 2,1 4,1 5,1 1,0 3,-1 5,-3l2 0z"/>
   <path id="1" class="fil1" d="M1265 621l-40 0 0 -2c11,-9 19,-18 26,-26 6,-7 10,-12 12,-15 1,-4 2,-7 2,-11 0,-3 -1,-6 -3,-8 -2,-2 -5,-3 -8,-3 -5,0 -10,3 -13,8l-2 -1c2,-5 4,-9 7,-12 4,-4 9,-6 15,-6 5,0 10,2 13,5 4,3 5,7 5,11 0,4 -1,8 -2,12 -2,3 -5,8 -11,13 -4,5 -12,12 -24,23l14 0c5,0 8,-1 10,-2 2,-1 3,-3 5,-6l3 0 -9 20z"/>
   <path id="2" class="fil1" d="M1335 571l-11 37 -1 4c0,1 0,1 0,1 0,1 0,1 1,1 0,1 0,1 1,1 0,0 1,-1 3,-2 0,0 2,-2 4,-5l1 1c-2,5 -5,8 -8,10 -3,3 -6,4 -9,4 -2,0 -4,-1 -5,-2 -1,-1 -2,-2 -2,-4 0,-1 1,-4 2,-8l1 -4c-4,7 -8,12 -12,15 -2,2 -4,3 -7,3 -3,0 -6,-2 -7,-4 -2,-3 -3,-6 -3,-10 0,-5 2,-11 5,-18 3,-6 7,-12 13,-16 4,-3 8,-5 12,-5 2,0 3,1 4,2 2,1 3,3 3,7l2 -7 13 -1zm-17 11c0,-3 -1,-5 -2,-7 0,-1 -1,-1 -2,-1 -2,0 -3,0 -4,1 -3,3 -5,7 -8,14 -3,7 -4,13 -4,18 0,2 0,3 1,4 0,1 1,2 2,2 1,0 3,-1 5,-3 2,-3 4,-6 6,-10 4,-7 6,-13 6,-18z"/>
   <path class="fil1" d="M892 338l-7 23c-1,3 -1,5 -1,7 0,1 0,2 1,3 2,1 4,1 7,1l0 2 -36 0 1 -2c3,0 6,0 7,-2 2,-1 4,-4 5,-9l14 -48c0,-3 1,-5 1,-6 0,-2 -1,-3 -2,-4 -1,0 -3,-1 -6,-1l0 -2 31 0c9,0 15,1 19,5 3,3 5,7 5,11 0,5 -2,10 -6,14 -3,3 -7,5 -14,7l6 22c2,6 4,10 5,11 1,2 4,2 7,2l0 2 -23 0 -11 -36 -2 0c0,0 -1,0 -1,0zm0 -3c2,0 3,0 4,0 5,0 9,-2 13,-6 3,-3 5,-8 5,-14 0,-4 -1,-6 -3,-8 -2,-2 -4,-3 -7,-3 -1,0 -2,0 -3,0l-9 31z"/>
   <path id="1" class="fil1" d="M985 298l-19 63c-1,3 -1,5 -1,6 0,1 0,2 1,3 1,1 1,1 2,2 1,0 3,0 7,0l0 2 -38 0 1 -2c3,0 6,0 7,0 2,-1 3,-2 4,-3 1,-1 2,-4 3,-8l11 -37c2,-6 3,-9 3,-9 0,-1 0,-2 0,-3 0,-2 0,-3 -1,-4 -1,-1 -3,-1 -5,-1 -1,0 -3,0 -5,0l-1 -2 28 -7 3 0z"/>
   <path id="2" class="fil1" d="M1045 324l-11 37 -1 4c0,1 -1,1 -1,1 0,1 1,1 1,2 0,0 1,0 1,0 1,0 2,-1 3,-2 1,0 2,-2 4,-5l2 1c-3,5 -6,8 -8,11 -3,2 -7,3 -10,3 -2,0 -4,-1 -5,-2 -1,-1 -1,-2 -1,-4 0,-1 0,-4 1,-8l2 -4c-4,7 -9,12 -12,15 -3,2 -5,3 -8,3 -3,0 -6,-2 -7,-4 -2,-3 -2,-6 -2,-10 0,-5 1,-11 4,-17 4,-7 8,-12 13,-16 4,-4 8,-6 12,-6 2,0 4,1 5,2 1,1 2,4 3,7l2 -7 13 -1zm-18 11c0,-3 -1,-5 -1,-7 -1,-1 -2,-1 -3,-1 -1,0 -3,1 -4,2 -2,2 -5,6 -8,13 -3,7 -4,13 -4,18 0,2 0,4 1,4 1,1 1,2 2,2 2,0 3,-1 5,-3 3,-3 5,-6 7,-10 3,-7 5,-13 5,-18z"/>
   <path class="fil1" d="M1208 973l-6 22c-1,4 -2,6 -2,8 0,1 1,2 2,3 1,1 4,1 7,1l-1 2 -35 0 0 -2c4,0 6,0 8,-2 2,-1 3,-4 5,-9l13 -48c1,-3 2,-5 2,-6 0,-2 -1,-3 -2,-4 -1,-1 -3,-1 -7,-1l1 -2 31 0c9,0 15,1 19,4 3,3 5,7 5,12 0,5 -2,10 -6,14 -3,3 -8,5 -15,7l7 22c2,6 3,10 5,11 1,2 3,2 6,2l0 2 -23 0 -10 -36 -2 0c0,0 -1,0 -2,0zm1 -3c1,0 3,0 3,0 6,0 10,-2 13,-6 4,-3 5,-8 5,-14 0,-4 -1,-6 -2,-8 -2,-2 -5,-3 -8,-3 0,0 -1,0 -2,0l-9 31z"/>
   <path id="1" class="fil1" d="M1291 1009l-40 0 0 -2c11,-9 19,-18 26,-26 6,-7 10,-12 12,-15 1,-4 2,-7 2,-11 0,-3 -1,-6 -3,-8 -2,-2 -5,-3 -8,-3 -5,0 -10,3 -13,8l-2 -1c2,-5 4,-9 7,-12 4,-4 9,-6 15,-6 5,0 10,2 13,5 4,3 5,7 5,12 0,3 -1,7 -2,11 -2,3 -5,8 -11,14 -4,4 -12,11 -24,22l14 0c5,0 8,-1 10,-2 2,-1 3,-3 5,-6l3 0 -9 20z"/>
   <path id="2" class="fil1" d="M1344 933l-9 33c2,-3 5,-5 6,-6 2,-1 4,-2 6,-2 5,0 8,2 10,5 2,3 3,7 3,11 0,10 -4,19 -11,26 -6,7 -13,11 -21,11 -6,0 -12,-2 -19,-6l17 -57c1,-3 2,-5 2,-6 0,-1 -1,-2 -1,-2 -2,-1 -3,-1 -6,-1l1 -3 19 -3 3 0zm-21 73c1,1 3,2 4,2 2,0 4,-1 5,-2 2,-1 4,-3 6,-6 2,-4 4,-7 6,-12 1,-5 2,-9 2,-14 0,-3 -1,-4 -2,-6 -1,-1 -2,-2 -4,-2 -2,0 -4,1 -6,4 -1,2 -2,5 -4,11l-7 25z"/>
   <path class="fil1" d="M1331 806l-6 23 -2 0c0,-6 -2,-11 -5,-14 -2,-3 -6,-5 -11,-5 -5,0 -10,2 -15,7 -5,4 -10,10 -13,19 -3,8 -4,15 -4,22 0,6 1,11 4,14 3,4 8,5 13,5 4,0 8,-1 12,-3 4,-2 7,-5 11,-9l3 0c-5,7 -9,12 -14,14 -5,3 -10,4 -17,4 -9,0 -16,-2 -22,-8 -5,-5 -8,-12 -8,-21 0,-8 2,-16 7,-23 4,-8 10,-14 18,-18 9,-5 17,-7 25,-7 3,0 7,0 11,2 3,0 4,1 5,1 2,0 4,-1 6,-3l2 0z"/>
   <path id="1" class="fil1" d="M1365 882l-40 0 0 -2c10,-10 19,-18 26,-26 6,-7 10,-12 11,-16 2,-3 2,-7 2,-10 0,-4 -1,-6 -3,-8 -2,-2 -4,-3 -8,-3 -5,0 -9,2 -13,8l-2 -1c2,-5 5,-9 8,-12 4,-4 9,-6 15,-6 5,0 9,2 13,5 3,3 5,7 5,11 0,4 -1,8 -3,11 -1,4 -5,9 -10,14 -4,4 -12,12 -25,22l15 0c4,0 8,0 9,-1 2,-1 4,-3 6,-7l2 0 -8 21z"/>
   <path id="2" class="fil1" d="M1418 806l-10 33c3,-3 5,-5 7,-7 2,-1 4,-1 6,-1 4,0 7,2 9,5 2,3 3,6 3,11 0,9 -3,18 -10,26 -6,7 -13,10 -21,10 -6,0 -12,-1 -19,-5l17 -58c1,-3 1,-4 1,-6 0,-1 0,-1 -1,-2 -1,-1 -3,-1 -5,-1l0 -2 19 -3 4 0zm-22 72c2,2 4,2 5,2 2,0 3,0 4,-1 2,-1 5,-4 7,-7 2,-3 4,-7 5,-12 2,-4 2,-9 2,-13 0,-3 0,-5 -1,-6 -1,-2 -3,-2 -4,-2 -2,0 -4,1 -6,4 -1,1 -3,5 -4,10l-8 25z"/>
   <path class="fil1" d="M1639 868l-7 22c-1,4 -1,6 -1,7 0,2 0,3 1,4 2,1 4,1 8,1l-1 2 -36 0 1 -2c3,0 6,0 8,-2 1,-1 3,-4 4,-9l14 -48c1,-3 1,-5 1,-6 0,-2 -1,-3 -2,-4 0,-1 -3,-1 -6,-1l0 -2 31 0c9,0 15,1 19,4 3,3 5,7 5,12 0,5 -2,10 -6,14 -3,2 -7,5 -14,7l6 22c2,6 4,10 5,11 1,1 4,2 7,2l0 2 -23 0 -11 -36 -2 0c0,0 -1,0 -1,0zm1 -3c1,0 2,0 3,0 5,0 9,-2 13,-6 3,-4 5,-8 5,-14 0,-4 -1,-6 -3,-8 -2,-2 -4,-3 -7,-3 -1,0 -2,0 -3,0l-8 31z"/>
   <path class="fil1" d="M896 775l6 -61c0,-4 1,-6 1,-7 0,-2 -1,-3 -2,-4 -1,-1 -3,-2 -6,-2l-2 0 1 -2 29 0 -1 2c-3,0 -5,1 -6,1 -1,1 -2,2 -3,4 0,0 -1,3 -1,6l-5 45 30 -40c3,-4 5,-7 6,-9 0,-1 0,-2 0,-3 0,-1 0,-2 -1,-2 -1,-1 -2,-1 -5,-2l1 -2 22 0 0 2c-2,1 -3,1 -5,1 -2,1 -4,3 -6,5 -2,2 -5,6 -9,11l-42 57 -2 0z"/>
   <path id="1" class="fil1" d="M967 796l0 2 -22 0 1 -2c2,0 3,0 4,0 1,-1 2,-1 3,-2 0,-1 1,-3 2,-7l9 -32c1,-2 2,-4 2,-6 0,0 -1,-1 -1,-1 0,-1 -1,-1 -1,-1 -1,-1 -2,-1 -4,-1l0 -1 20 0 0 1c-2,0 -3,0 -4,1 -1,0 -2,1 -3,2 0,1 -1,4 -2,7l-9 32c-1,3 -1,5 -1,5 0,1 0,1 0,2 0,0 1,1 2,1 0,0 2,0 4,0z"/>
   <path id="2" class="fil1" d="M1021 742l-14 47c-1,2 -1,4 -1,5 0,0 0,0 0,1 0,0 0,0 0,0 1,0 1,0 1,-1 1,0 2,-2 3,-4l1 1c-1,2 -3,4 -4,6 -2,1 -3,2 -5,2 0,0 -1,-1 -1,-1 -1,-1 -1,-2 -1,-3 0,-1 0,-3 1,-6l1 -5c-4,6 -8,10 -11,12 -2,2 -5,3 -7,3 -2,0 -4,-1 -6,-3 -1,-2 -2,-4 -2,-7 0,-4 1,-8 4,-13 3,-4 6,-7 11,-10 3,-2 6,-4 9,-4 2,0 3,1 4,1 1,1 2,2 4,3l3 -13c1,-1 1,-2 1,-3 1,-1 1,-2 1,-3 0,0 0,-1 -1,-1 0,-1 -1,-1 -2,-1 -1,0 -2,0 -3,0l0 -1 14 -2zm-16 28c0,-2 0,-3 -1,-4 -1,-1 -3,-2 -4,-2 -4,0 -8,3 -12,9 -4,5 -6,10 -6,15 0,2 1,4 2,5 1,1 2,1 4,1 3,0 6,-3 11,-9 4,-6 6,-11 6,-15z"/>
   <path class="fil1" d="M2792 834l7 -62c0,-3 0,-5 0,-6 0,-2 -1,-3 -2,-4 -1,-1 -3,-2 -6,-2l-2 0 1 -2 29 0 0 2c-4,0 -6,1 -7,1 -1,1 -2,2 -3,3 0,1 0,4 -1,7l-4 45 29 -40c3,-4 5,-7 6,-9 0,-1 1,-2 1,-3 0,-1 -1,-2 -2,-2 0,-1 -2,-2 -4,-2l0 -2 23 0 -1 2c-2,0 -3,1 -4,1 -2,1 -4,3 -6,5 -2,2 -5,5 -10,11l-42 57 -2 0z"/>
   <path id="1" class="fil1" d="M2884 802c3,0 6,1 9,3 3,1 5,3 6,6 2,3 3,7 3,10 0,5 -2,11 -5,18 -4,6 -8,11 -13,14 -6,3 -11,5 -17,5 -4,0 -7,-1 -10,-3 -3,-2 -5,-4 -6,-7 -2,-3 -2,-6 -2,-9 0,-5 1,-10 3,-14 3,-5 6,-9 9,-13 3,-3 7,-5 11,-7 3,-2 7,-3 12,-3zm-2 3c-2,0 -5,0 -7,2 -3,1 -5,3 -8,6 -2,3 -5,7 -7,12 -2,6 -3,11 -3,16 0,4 1,7 3,10 2,3 4,4 8,4 3,0 5,0 7,-1 3,-1 5,-4 8,-6 3,-4 5,-9 8,-14 2,-6 3,-11 3,-16 0,-3 -1,-6 -3,-9 -2,-3 -5,-4 -9,-4z"/>
   <path id="2" class="fil1" d="M2948 801l-14 47c0,2 -1,4 -1,5 0,0 0,0 0,0 1,1 1,1 1,1 0,0 0,0 1,-1 0,0 1,-2 3,-4l1 1c-2,2 -3,4 -5,6 -1,1 -3,2 -4,2 -1,0 -1,-1 -2,-1 0,-1 -1,-2 -1,-3 0,-1 1,-3 1,-6l2 -5c-4,6 -8,10 -11,12 -3,2 -5,3 -7,3 -2,0 -4,-1 -6,-3 -2,-2 -2,-4 -2,-7 0,-4 1,-8 4,-13 2,-4 6,-8 10,-10 4,-3 7,-4 10,-4 1,0 3,1 4,1 1,1 2,2 3,3l4 -13c0,-1 1,-3 1,-3 0,-2 0,-2 0,-3 0,-1 0,-1 0,-1 -1,-1 -2,-1 -2,-1 -1,0 -2,0 -3,0l0 -1 13 -2zm-15 28c0,-2 -1,-3 -2,-4 -1,-1 -2,-2 -4,-2 -3,0 -7,3 -11,8 -4,6 -6,11 -6,16 0,2 0,3 1,4 1,2 3,2 4,2 3,0 7,-3 11,-9 5,-6 7,-11 7,-15z"/>
   <g>
    <path class="fil1" d="M3040 669l43 104 0 0 -3 -2 -3 -1 -3 -1 -2 -1 -3 -1 -3 -1 -3 -1 -2 -1 -3 -1 -3 0 -3 -1 -2 0 -3 0 -3 -1 -3 0 -3 0 -2 0 -3 0 -3 0 -3 1 -2 0 -3 0 -3 1 -3 0 -2 1 -3 1 -3 1 -3 1 -3 1 -2 1 -3 1 -3 1 46 -102zm-9 304l4 -252 8 0 -4 253 -8 -1z"/>
   </g>
   <g>
    <path class="fil1" d="M1190 145l0 -1c7,-1 12,-3 15,-6 3,-2 4,-5 4,-8 0,-2 -1,-4 -2,-5 -2,-2 -3,-3 -5,-3 -4,0 -6,2 -9,6l-1 0c1,-3 3,-6 5,-8 3,-1 5,-2 8,-2 3,0 6,1 8,3 2,2 3,4 3,8 0,2 -1,5 -3,7 -2,3 -5,5 -10,7 3,1 5,3 7,5 1,2 2,5 2,8 0,4 -1,7 -3,11 -2,3 -5,6 -8,8 -4,2 -8,3 -12,3 -3,0 -6,0 -8,-2 -1,-1 -2,-2 -2,-3 0,-1 1,-2 1,-2 1,-1 2,-1 3,-1 1,0 2,0 2,0 1,0 2,1 4,2 1,1 3,1 4,2 1,0 2,0 3,0 3,0 5,-1 6,-4 2,-3 3,-6 3,-10 0,-3 -1,-5 -2,-7 -1,-2 -3,-4 -5,-5 -3,-2 -5,-2 -8,-3z"/>
    <circle class="fil0 str1" cx="1198" cy="148" r="44"/>
   </g>
   <g>
    <path class="fil1" d="M1145 948l-11 39 6 0 -1 5 -7 0 -4 15 -7 0 5 -15 -21 0 1 -6 35 -38 4 0zm-10 11l-25 28 17 0 8 -28z"/>
    <circle class="fil0 str1" cx="1128" cy="975" r="44"/>
   </g>
   <g>
    <path class="fil1" d="M1668 356l19 0 -2 7 -17 0 -4 7c5,1 9,2 11,4 4,4 6,8 6,14 0,4 0,8 -2,11 -1,3 -3,6 -5,8 -2,3 -5,4 -7,5 -3,2 -7,3 -10,3 -3,0 -5,-1 -7,-2 -1,-1 -2,-2 -2,-3 0,-1 1,-2 1,-3 1,0 2,-1 3,-1 2,0 3,1 5,2 1,1 2,2 3,2 1,1 1,1 2,1 3,0 6,-2 9,-5 3,-3 4,-7 4,-13 0,-3 -1,-6 -2,-9 -1,-2 -3,-4 -6,-5 -2,-1 -5,-2 -8,-2l9 -21z"/>
    <circle class="fil0 str1" cx="1668" cy="385" r="44"/>
   </g>
   <g>
    <path class="fil1" d="M2681 582l29 0 0 1 -33 58 -3 -1 28 -51 -14 0c-4,0 -6,0 -8,1 -1,0 -3,2 -4,5l-2 0 7 -13z"/>
    <circle class="fil0 str1" cx="2692" cy="612" r="44"/>
   </g>
   <path class="fil0 str0" d="M2187 126l0 -126m-57 124c39,-43 39,-75 -1,-117"/>
   <g>
    <circle class="fil0 str1" cx="1679" cy="629" r="44"/>
    <path class="fil1" d="M1699 598l0 2c-5,1 -10,4 -14,7 -5,4 -9,9 -12,14 3,-1 5,-2 7,-2 4,0 7,2 10,4 2,3 3,7 3,11 0,7 -2,13 -6,17 -5,5 -9,8 -14,8 -5,0 -9,-2 -11,-5 -2,-4 -4,-8 -4,-12 0,-6 2,-12 4,-18 3,-5 7,-10 12,-14 4,-4 9,-7 14,-9 3,-1 7,-2 11,-3zm-28 27c-4,9 -7,16 -7,22 0,3 1,5 3,7 1,2 3,3 5,3 3,0 6,-3 9,-8 3,-4 5,-10 5,-16 0,-3 -1,-6 -3,-8 -2,-2 -4,-3 -6,-3 -1,0 -2,1 -3,1 -1,0 -2,1 -3,2z"/>
   </g>
   <g>
    <path class="fil2" d="M1380 669l-2 7 -12 0c1,3 1,5 1,7 0,7 -3,12 -8,17 -5,5 -13,8 -22,8 -5,2 -9,4 -12,6 -1,1 -1,1 -1,2 0,1 0,2 1,3 1,1 3,2 7,2l14 4c7,1 13,3 15,6 2,2 4,5 4,9 0,4 -2,7 -5,10 -3,4 -7,6 -12,8 -6,2 -12,3 -19,3 -6,0 -11,-1 -16,-2 -5,-2 -8,-4 -10,-6 -3,-3 -4,-5 -4,-7 0,-3 1,-5 2,-7 2,-2 4,-4 6,-5 1,-1 5,-3 11,-7 -3,-1 -4,-3 -4,-5 0,-2 1,-4 3,-6 2,-3 6,-5 12,-8 -5,-1 -9,-3 -12,-6 -3,-4 -5,-7 -5,-11 0,-7 3,-13 9,-19 6,-5 14,-8 24,-8 4,0 7,1 9,1 2,1 4,2 7,4l19 0zm-25 11c0,-4 -1,-7 -3,-9 -2,-2 -5,-3 -9,-3 -5,0 -10,2 -14,8 -3,5 -5,11 -5,17 0,3 1,6 4,9 2,2 5,3 8,3 3,0 5,0 8,-2 2,-1 4,-3 6,-6 1,-2 3,-5 4,-9 1,-4 1,-6 1,-8zm-34 49c-4,2 -7,4 -9,7 -2,3 -3,5 -3,8 0,3 1,6 4,8 4,3 10,4 18,4 7,0 13,-1 18,-3 5,-3 7,-6 7,-9 0,-2 -1,-4 -3,-5 -1,-2 -5,-3 -10,-5 -3,0 -10,-2 -22,-5z"/>
    <circle class="fil0 str2" cx="1340" cy="713" r="69"/>
   </g>
   <polyline class="fil0 str1" points="867,443 738,443 738,199 373,199 373,351 "/>
   <polyline class="fil0 str1" points="867,1076 741,1076 741,1154 373,1154 373,1003 "/>
   <g>
    <ellipse class="fil0 str0" cx="373" cy="469" rx="117" ry="118"/>
    <polygon class="fil1" points="351,392 366,392 366,377 379,377 379,392 394,392 394,404 379,404 379,419 366,419 366,404 351,404 "/>
    <polygon class="fil1" points="354,545 395,545 395,554 354,554 "/>
    <ellipse class="fil0 str0" cx="373" cy="469" rx="117" ry="118"/>
    <polygon class="fil1" points="351,392 366,392 366,377 379,377 379,392 394,392 394,404 379,404 379,419 366,419 366,404 351,404 "/>
    <polygon class="fil1" points="354,545 395,545 395,554 354,554 "/>
   </g>
   <g>
    <ellipse class="fil0 str0" cx="373" cy="882" rx="117" ry="118"/>
    <polygon class="fil1" points="351,804 366,804 366,789 379,789 379,804 394,804 394,817 379,817 379,832 366,832 366,817 351,817 "/>
    <polygon class="fil1" points="354,958 395,958 395,967 354,967 "/>
    <ellipse class="fil0 str0" cx="373" cy="882" rx="117" ry="118"/>
    <polygon class="fil1" points="351,804 366,804 366,789 379,789 379,804 394,804 394,817 379,817 379,832 366,832 366,817 351,817 "/>
    <polygon class="fil1" points="354,958 395,958 395,967 354,967 "/>
   </g>
   <line class="fil0 str1" x1="373" y1="763" x2="373" y2= "588" />
   <g>
    <path class="fil1" d="M373 713l-1 0 -2 -1 -1 0 -2 0 -1 0 -1 -1 -2 0 -1 -1 -1 0 -2 -1 -1 -1 -1 -1 -1 0 -1 -1 -1 -1 -1 -1 -1 -1 -1 -1 -1 -1 -1 -1 -1 -2 -1 -1 0 -1 -1 -1 0 -2 -1 -1 0 -2 -1 -1 0 -1 0 -2 0 -1 0 -2 0 0 0 -1 0 -2 0 -1 0 -2 1 -1 0 -2 1 -1 0 -1 1 -2 0 -1 1 -1 1 -1 1 -2 1 -1 1 -1 1 -1 1 -1 1 -1 1 -1 1 0 1 -1 1 -1 2 -1 1 0 1 -1 2 0 1 -1 1 0 2 0 1 0 2 0 1 0 0 0 2 0 1 0 2 0 1 0 2 0 1 1 1 0 2 1 1 0 1 1 2 1 1 1 1 0 1 1 1 1 1 1 1 1 1 1 1 1 1 2 1 1 0 1 1 1 1 2 0 1 1 1 0 2 0 1 1 2 0 1 0 2 0 1 0 0 0 2 0 1 0 2 -1 1 0 1 0 2 -1 1 0 2 -1 1 -1 1 0 1 -1 2 -1 1 -1 1 -1 1 -1 1 -1 1 -1 1 -1 1 -1 0 -1 1 -2 1 -1 1 -1 0 -2 1 -1 0 -1 1 -2 0 -1 0 -2 0 -1 1 -2 0 0 0zm-216 -34l216 0 0 8 -216 0 0 -8zm0 -34l7 0 0 77 -14 0 0 -77 7 0z"/>
   </g>
   <g>
    <path class="fil1" d="M803 322l-14 48c-1,3 -1,5 -1,6 0,1 0,2 1,2 1,1 3,1 5,2l0 1 -22 0 0 -1c3,0 4,-1 5,-1 1,0 2,-1 3,-2 1,-1 2,-4 3,-7l10 -35c0,-2 0,-3 1,-3 0,-1 0,-1 0,-2 0,-1 -1,-2 -1,-2 -1,-1 -1,-1 -2,-1 -1,0 -2,0 -4,0l0 -1 14 -4 2 0z"/>
    <circle class="fil0 str1" cx="787" cy="352" r="44"/>
   </g>
   <g>
    <path class="fil1" d="M866 1180l-31 0 0 -2c8,-7 15,-14 20,-21 5,-5 8,-9 9,-11 1,-3 2,-6 2,-9 0,-2 -1,-4 -3,-6 -1,-2 -3,-2 -6,-2 -4,0 -7,2 -10,6l-1 -1c1,-4 3,-7 5,-9 4,-3 7,-5 12,-5 4,0 7,1 10,4 3,3 4,6 4,9 0,3 0,6 -2,9 -1,2 -4,6 -8,10 -3,4 -9,9 -19,18l11 0c4,0 6,-1 8,-2 1,0 2,-2 4,-4l2 0 -7 16z"/>
    <circle class="fil0 str1" cx="856" cy="1150" r="44"/>
   </g>
   <path class="fil1" d="M10 919l6 -65c0,-3 0,-5 0,-7 0,-1 0,-3 -2,-4 -1,-1 -3,-2 -6,-2l-2 0 1 -2 30 0 0 2c-3,0 -6,1 -7,1 -1,1 -2,2 -3,4 0,1 -1,3 -1,7l-5 46 31 -41c3,-5 5,-8 6,-9 0,-2 1,-3 1,-4 0,-1 -1,-1 -2,-2 0,-1 -2,-1 -4,-2l0 -2 23 0 0 2c-2,1 -4,1 -5,1 -2,1 -4,3 -6,5 -2,2 -5,6 -10,12l-43 60 -2 0z"/>
   <path id="1" class="fil1" d="M203 917l-39 0 0 -2c20,-17 33,-31 39,-41 3,-4 5,-9 5,-14 0,-4 -1,-7 -4,-10 -2,-2 -5,-3 -9,-3 -6,0 -10,2 -14,7l-2 -1c2,-5 5,-8 9,-11 4,-3 8,-4 12,-4 5,0 9,1 12,5 4,3 5,7 5,12 0,3 0,7 -1,9 -2,5 -6,10 -10,15 -8,9 -18,19 -30,30l19 0c3,0 6,-1 8,-2 2,-2 3,-3 4,-6l3 0 -7 16z"/>
   <path id="2" class="fil1" d="M83 939l-1 2 -21 0 0 -2c2,0 4,0 5,0 1,-1 2,-1 2,-2 1,-1 2,-3 3,-6l9 -33c1,-2 1,-4 1,-6 0,0 0,-1 0,-1 -1,-1 -1,-1 -2,-1 0,-1 -2,-1 -4,-1l1 -1 20 0 -1 1c-1,0 -2,0 -3,1 -1,0 -2,1 -3,2 -1,1 -1,4 -2,7l-10 32c0,3 -1,5 -1,5 0,1 0,2 1,2 0,0 1,1 1,1 1,0 2,0 5,0z"/>
   <path id="3" class="fil1" d="M136 885l-14 47c0,3 -1,4 -1,5 0,0 0,0 0,1 1,0 1,0 1,0 0,0 0,0 1,0 0,-1 1,-3 3,-5l1 1c-2,2 -3,4 -5,6 -1,1 -3,2 -4,2 -1,0 -1,-1 -2,-1 0,-1 -1,-2 -1,-3 0,-1 1,-3 1,-6l2 -5c-4,6 -8,10 -11,12 -3,2 -5,3 -7,3 -2,0 -4,-1 -6,-3 -2,-2 -2,-4 -2,-7 0,-4 1,-8 4,-12 2,-5 6,-8 10,-11 4,-2 7,-4 10,-4 1,0 3,1 4,1 1,1 2,2 3,3l4 -13c0,-1 1,-2 1,-3 0,-1 0,-2 0,-3 0,0 0,-1 0,-1 -1,-1 -2,-1 -2,-1 -1,0 -2,0 -3,0l0 -1 13 -2zm-15 28c0,-2 -1,-3 -2,-4 -1,-1 -2,-2 -4,-2 -3,0 -7,3 -11,9 -4,5 -6,10 -6,15 0,2 1,4 2,5 1,1 2,1 3,1 3,0 7,-3 11,-9 5,-5 7,-11 7,-15z"/>
   <polygon id="4" class="fil1" points="163,836 135,918 130,918 158,836 "/>
   <path class="fil1" d="M3 495l7 -64c0,-4 0,-6 0,-7 0,-2 -1,-3 -2,-4 -1,-1 -3,-2 -6,-2l-2 0 1 -2 30 0 0 2c-4,0 -6,0 -7,1 -2,1 -3,2 -3,3 -1,1 -1,4 -1,8l-5 46 30 -41c4,-5 6,-8 7,-10 0,-1 0,-2 0,-3 0,-1 0,-2 -1,-3 -1,0 -2,-1 -5,-1l1 -2 23 0 0 2c-2,0 -4,0 -5,1 -2,1 -4,3 -6,5 -2,2 -6,6 -10,12l-44 59 -2 0z"/>
   <path id="1" class="fil1" d="M197 493l-39 0 0 -2c20,-17 33,-30 39,-40 3,-5 4,-9 4,-14 0,-4 -1,-8 -3,-10 -3,-3 -6,-4 -10,-4 -5,0 -9,3 -13,8l-2 -1c2,-5 5,-9 9,-12 3,-2 7,-4 12,-4 5,0 9,2 12,5 4,4 5,8 5,13 0,3 0,6 -2,9 -1,4 -5,9 -10,15 -7,8 -17,18 -30,29l20 0c3,0 6,0 8,-2 2,-1 3,-3 4,-5l2 0 -6 15z"/>
   <path id="2" class="fil1" d="M76 516l0 2 -22 0 1 -2c2,0 4,0 4,0 1,-1 2,-2 3,-2 1,-2 2,-4 3,-7l9 -32c1,-3 1,-5 1,-6 0,-1 0,-1 -1,-2 0,0 0,-1 -1,-1 -1,0 -2,0 -4,0l0 -2 21 0 -1 2c-2,0 -3,0 -4,0 -1,1 -2,2 -2,3 -1,1 -2,3 -3,7l-9 32c-1,3 -1,4 -1,5 0,1 0,1 0,2 1,0 1,0 2,1 1,0 2,0 4,0z"/>
   <path id="3" class="fil1" d="M130 461l-14 48c-1,2 -1,4 -1,5 0,0 0,0 0,0 0,1 0,1 1,1 0,0 0,-1 0,-1 1,0 2,-2 3,-4l2 0c-2,3 -3,5 -5,6 -1,2 -3,2 -4,2 -1,0 -2,0 -2,-1 -1,0 -1,-1 -1,-2 0,-2 0,-4 1,-6l2 -5c-5,6 -8,10 -12,12 -2,2 -4,2 -7,2 -2,0 -4,0 -5,-2 -2,-2 -3,-4 -3,-7 0,-4 2,-8 4,-13 3,-4 7,-8 11,-11 3,-2 7,-3 10,-3 1,0 2,0 4,1 1,1 2,1 3,3l4 -13c0,-2 0,-3 1,-4 0,-1 0,-2 0,-2 0,-1 0,-1 -1,-2 0,0 -1,0 -2,0 0,0 -1,0 -3,0l0 -1 14 -3zm-15 29c0,-2 -1,-3 -2,-4 -1,-1 -2,-2 -4,-2 -4,0 -7,3 -11,8 -4,6 -6,11 -6,16 0,2 0,3 1,4 1,1 2,2 4,2 3,0 7,-3 11,-9 4,-6 7,-11 7,-15z"/>
   <polygon id="4" class="fil1" points="157,412 128,495 124,495 152,412 "/>
   <path class="fil0 str0" d="M2177 1790l0 -126m-57 124c40,-42 39,-75 -1,-116"/>
   <polyline class="fil0 str1" points="2520,948 2765,948 2765,1725 2187,1725 "/>
   <g>
    <path class="fil1" d="M1121 1723l1027 0 0 8 -1027 0 -4 -4 4 -4zm0 8l-4 0 0 -4 4 4zm5 -662l0 658 -9 0 0 -658 9 0zm-34 0l0 0 0 -2 0 -1 0 -2 0 -1 1 -2 0 -1 1 -2 0 -1 1 -1 0 -1 1 -2 1 -1 1 -1 1 -1 1 -1 1 -1 1 -1 1 -1 1 -1 1 -1 1 -1 1 0 2 -1 1 -1 1 0 2 -1 1 0 1 0 2 -1 1 0 2 0 1 0 0 0 2 0 1 0 2 0 1 1 2 0 1 0 2 1 1 0 1 1 1 1 2 0 1 1 1 1 1 1 1 1 1 1 1 1 1 1 1 1 1 1 1 1 0 2 1 1 1 1 0 1 1 2 0 1 0 2 1 1 0 2 0 1 0 2 0 0 0 1 0 2 0 1 -1 1 0 2 0 1 -1 2 0 1 -1 1 -1 2 0 1 -1 1 -1 1 -1 1 -1 1 -1 1 -1 1 -1 1 -1 1 -1 1 -1 1 -2 0 -1 1 -1 1 -1 0 -2 1 -1 0 -2 0 -1 1 -2 0 -1 0 -2 0 0 0 -1 0 -2 0 -1 0 -2 -1 -1 0 -1 0 -2 -1 -1 0 -1 -1 -2 -1 -1 0 -1 -1 -1 -1 -1 -1 -1 -1 -1 -1 -1 -1 -1 -1 -1 -1 -1 -1 -1 -1 -1 -1 0 -2 -1 -1 0 -1 -1 -2 0 -1 -1 -2 0 -1 0 -1 0 -2 0 -1z"/>
   </g>
   <path class="fil1" d="M1804 1347l-15 52 12 -11 4 -4c2,-1 2,-2 3,-3 0,-1 0,-1 0,-2 0,0 0,-1 -1,-2 0,0 -2,0 -5,-1l1 -2 22 0 0 2c-3,1 -5,2 -7,3 -1,0 -3,1 -5,3 -2,2 -4,3 -6,5l-2 2 3 15c2,5 3,9 3,10 1,0 1,0 2,0 1,0 2,-1 4,-4 0,-1 1,-1 1,-2l2 1c-3,6 -6,10 -9,13 -2,1 -4,2 -6,2 -2,0 -4,0 -5,-2 -1,-1 -3,-4 -4,-10l-2 -13 -6 6 -6 19 -14 0 18 -62c1,-3 1,-5 1,-6 0,0 0,-1 0,-2 0,0 -1,-1 -1,-1 -1,0 -2,0 -4,0l1 -2 18 -4 3 0z"/>
   <path id="1" class="fil1" d="M1852 1391l0 47c0,4 0,6 1,7 0,1 1,2 2,2 1,1 2,1 4,1l2 0 0 2 -31 0 0 -2 2 0c2,0 4,0 5,0 1,-1 2,-2 2,-3 0,-1 1,-3 1,-7l0 -30c0,-3 0,-4 -1,-5 0,-1 0,-1 -1,-2 -1,0 -2,-1 -3,-1 -1,0 -3,1 -5,2l-1 -2 22 -9 1 0z"/>
   <path id="2" class="fil1" d="M1900 1387l-7 23c-1,3 -1,5 -1,7 0,1 0,2 1,3 2,1 4,2 7,2l0 2 -36 0 1 -2c3,0 6,-1 7,-2 2,-2 4,-5 5,-10l14 -48c0,-2 1,-4 1,-6 0,-1 -1,-3 -2,-3 -1,-1 -3,-2 -6,-2l0 -2 31 0c9,0 15,2 19,5 3,3 5,7 5,12 0,5 -2,9 -6,13 -3,3 -7,5 -14,7l6 23c2,6 4,9 5,11 1,1 4,2 7,2l0 2 -23 0 -11 -37 -2 0c0,0 -1,0 -1,0zm1 -3c1,0 2,0 3,0 5,0 9,-2 13,-5 3,-4 5,-9 5,-15 0,-3 -1,-6 -3,-8 -2,-2 -4,-3 -7,-3 -1,0 -2,0 -3,0l-8 31z"/>
   <path class="fil1" d="M2287 1613l-5 23 -2 0c0,-6 -2,-11 -5,-14 -3,-3 -7,-5 -11,-5 -5,0 -11,2 -16,7 -5,4 -9,11 -12,20 -3,7 -5,14 -5,21 0,6 2,11 5,14 3,4 7,5 13,5 4,0 8,-1 12,-3 3,-1 7,-5 11,-9l2 0c-4,7 -9,12 -13,14 -5,3 -11,5 -17,5 -9,0 -17,-3 -22,-9 -6,-5 -8,-12 -8,-21 0,-8 2,-16 6,-23 5,-8 11,-14 19,-18 8,-5 16,-7 25,-7 3,0 6,0 11,2 2,0 4,1 5,1 2,0 4,-1 5,-3l2 0z"/>
   <path id="1" class="fil1" d="M2332 1613l-19 62c-1,4 -1,6 -1,7 0,1 0,1 1,2 1,1 1,2 2,2 1,1 3,1 7,1l0 2 -38 0 1 -2c3,0 6,0 7,-1 2,0 3,-1 4,-3 1,-1 2,-4 3,-8l11 -37c2,-5 3,-8 3,-9 0,-1 0,-1 0,-2 0,-2 0,-3 -1,-4 -1,-1 -3,-2 -5,-2 -1,0 -2,0 -5,1l-1 -2 28 -7 3 0z"/>
   <path id="2" class="fil1" d="M2375 1613l-10 33c3,-3 5,-5 7,-6 2,-1 4,-2 6,-2 4,0 7,2 9,5 2,3 3,7 3,11 0,10 -3,18 -10,26 -7,7 -14,10 -22,10 -5,0 -12,-1 -18,-5l17 -58c0,-2 1,-4 1,-5 0,-1 0,-2 -1,-3 -1,-1 -3,-1 -5,-1l0 -2 19 -3 4 0zm-22 73c2,1 3,1 5,1 1,0 3,0 4,-1 2,-1 4,-3 6,-7 3,-3 4,-7 6,-11 1,-5 2,-10 2,-14 0,-3 0,-5 -2,-6 -1,-2 -2,-2 -3,-2 -3,0 -5,1 -7,4 -1,1 -2,5 -3,10l-8 26z"/>
   <g>
    <path class="fil1" d="M2694 1023c3,3 5,5 6,8 2,3 2,5 2,8 0,4 -1,9 -5,12 -4,3 -8,5 -13,5 -5,0 -9,-1 -11,-4 -3,-3 -5,-6 -5,-10 0,-3 1,-6 4,-9 2,-4 7,-7 13,-9 -2,-4 -4,-6 -5,-8 -1,-2 -1,-4 -1,-6 0,-4 1,-7 4,-10 3,-3 6,-4 11,-4 4,0 7,1 10,3 2,3 4,6 4,9 0,3 -1,6 -3,8 -3,3 -6,5 -11,7zm-1 -2c3,-1 5,-3 7,-5 2,-3 2,-5 2,-9 0,-2 0,-5 -2,-6 -2,-2 -4,-3 -6,-3 -3,0 -5,1 -7,2 -1,2 -2,4 -2,7 0,2 0,3 1,5 1,2 4,5 7,9zm-6 4c-5,2 -8,5 -10,8 -2,3 -3,7 -3,11 0,3 1,5 3,7 2,2 4,3 7,3 4,0 6,-1 9,-3 2,-2 3,-5 3,-8 0,-3 -1,-5 -2,-8 -1,-3 -4,-6 -7,-10z"/>
    <circle class="fil0 str1" cx="2688" cy="1026" r="44"/>
   </g>
   <line class="fil0 str1" x1="2261" y1="1074" x2="2261" y2= "1313" />
   <line class="fil0 str1" x1="2003" y1="1192" x2="2003" y2= "1313" />
   <polyline class="fil0 str0" points="2255,1313 2288,1326 2222,1352 2288,1378 2222,1404 2288,1430 2222,1456 2255,1469 "/>
   <polyline class="fil0 str0" points="1996,1313 2028,1326 1963,1352 2028,1378 1963,1404 2028,1430 1963,1456 1996,1469 "/>
   <path class="fil1" d="M2361 1323l-15 51 12 -11 5 -4c1,-1 2,-2 2,-3 0,-1 0,-1 0,-2 0,0 0,-1 -1,-1 0,-1 -2,-1 -5,-1l1 -3 22 0 0 3c-3,0 -5,1 -7,2 -1,0 -3,1 -5,3 -2,2 -4,4 -6,5l-2 2 3 15c2,6 3,9 3,10 1,0 1,1 2,1 1,0 2,-2 4,-5 0,-1 1,-1 1,-2l2 1c-2,6 -6,10 -9,13 -2,2 -4,2 -6,2 -2,0 -4,0 -5,-2 -1,-1 -2,-4 -4,-10l-2 -12 -6 5 -6 19 -14 0 18 -62c1,-3 1,-5 1,-6 0,0 0,-1 0,-2 0,0 -1,-1 -1,-1 -1,0 -2,0 -4,0l1 -2 18 -3 3 0z"/>
   <path id="1" class="fil1" d="M2417 1425l-34 0 0 -1c10,-12 17,-21 19,-25 2,-4 3,-9 3,-13 0,-3 -1,-5 -3,-7 -1,-2 -4,-3 -6,-3 -5,0 -8,2 -11,6l-1 0c1,-6 4,-10 7,-12 3,-3 7,-4 11,-4 3,0 5,0 8,2 2,1 4,3 5,5 2,3 2,5 2,7 0,4 -1,8 -3,12 -3,5 -9,12 -19,22l13 0c3,0 5,0 6,-1 1,0 2,0 2,-1 1,0 2,-2 3,-4l1 0 -3 17z"/>
   <path id="2" class="fil1" d="M2457 1362l-7 23c-1,3 -1,6 -1,7 0,1 0,3 1,3 2,1 4,2 8,2l-1 2 -36 0 1 -2c3,0 6,-1 8,-2 1,-2 3,-5 4,-10l14 -48c1,-2 1,-4 1,-6 0,-1 -1,-3 -1,-3 -1,-1 -4,-2 -7,-2l0 -2 31 0c9,0 15,2 19,5 3,3 5,7 5,12 0,5 -2,9 -6,13 -3,3 -7,5 -14,7l6 23c2,6 4,9 5,11 1,1 4,2 7,2l0 2 -23 0 -11 -37 -2 0c0,0 -1,0 -1,0zm1 -3c1,0 2,0 3,0 5,0 9,-2 13,-5 3,-4 5,-9 5,-15 0,-3 -1,-6 -3,-8 -2,-2 -4,-2 -7,-2 -1,0 -2,0 -3,0l-8 30z"/>
   <g>
    <path class="fil1" d="M1992 1543l0 -74 8 0 0 74 -8 0zm-59 0l0 -8 125 0 0 15 -125 0 0 -7z"/>
   </g>
   <g>
    <path class="fil1" d="M2246 1543l0 -74 8 0 0 74 -8 0zm-59 0l0 -8 125 0 0 15 -125 0 0 -7z"/>
   </g>
  </g>
 </g>
</svg>
