<?xml version="1.0" encoding="UTF-8"?>
<!DOCTYPE svg PUBLIC "-//W3C//DTD SVG 1.1//EN" "http://www.w3.org/Graphics/SVG/1.1/DTD/svg11.dtd">
<!-- Creator: CorelDRAW Home & Student X8 -->
<svg xmlns="http://www.w3.org/2000/svg" xml:space="preserve" width="117.531mm" height="76.1763mm" version="1.1" style="shape-rendering:geometricPrecision; text-rendering:geometricPrecision; image-rendering:optimizeQuality; fill-rule:evenodd; clip-rule:evenodd"
viewBox="0 0 10346 6706"
 xmlns:xlink="http://www.w3.org/1999/xlink">
 <defs>
  <style type="text/css">
   <![CDATA[
    .str0 {stroke:#2B2A29;stroke-width:35.212}
    .str1 {stroke:#2B2A29;stroke-width:17.606}
    .fil0 {fill:none}
    .fil1 {fill:#2B2A29;fill-rule:nonzero}
   ]]>
  </style>
 </defs>
 <g id="Warstwa_x0020_1">
  <metadata id="CorelCorpID_0Corel-Layer"/>
  <g id="_704753424">
   <polygon class="fil0 str0" points="4798,1324 4798,5629 9089,3490 "/>
   <polyline class="fil0 str0" points="1729,1890 1673,2027 1563,1750 1452,2027 1342,1750 1232,2027 1121,1750 1066,1891 "/>
   <polyline class="fil0 str0" points="3182,1890 3126,2027 3016,1750 2905,2027 2795,1750 2685,2027 2574,1750 2519,1891 "/>
   <polyline class="fil0 str0" points="3182,4577 3126,4714 3016,4437 2905,4714 2795,4437 2685,4714 2574,4437 2519,4578 "/>
   <polyline class="fil0 str0" points="1729,4577 1673,4714 1563,4437 1452,4714 1342,4437 1232,4714 1121,4437 1066,4578 "/>
   <polyline class="fil0 str0" points="6760,5605 6704,5742 6594,5465 6483,5742 6373,5465 6263,5742 6152,5465 6097,5606 "/>
   <polyline class="fil0 str0" points="4278,4874 4142,4818 4419,4708 4142,4598 4419,4487 4142,4377 4419,4266 4278,4211 "/>
   <path class="fil0 str0" d="M3475 1527l535 0m-525 -242c180,169 317,167 493,-2"/>
   <path class="fil0 str0" d="M4009 4903l-534 0m525 242c-180,-169 -317,-167 -493,2"/>
   <ellipse class="fil0 str0" cx="516" cy="3217" rx="499" ry="502"/>
   <polygon class="fil1" points="5124,1846 5187,1846 5187,1782 5241,1782 5241,1846 5305,1846 5305,1900 5241,1900 5241,1963 5187,1963 5187,1900 5124,1900 "/>
   <polygon class="fil1" points="7399,2901 7463,2901 7463,2837 7517,2837 7517,2901 7581,2901 7581,2955 7517,2955 7517,3019 7463,3019 7463,2955 7399,2955 "/>
   <polygon class="fil1" points="5795,4684 5859,4684 5859,4620 5913,4620 5913,4684 5977,4684 5977,4737 5913,4737 5913,4801 5859,4801 5859,4737 5795,4737 "/>
   <polygon class="fil1" points="5124,3998 5187,3998 5187,3934 5241,3934 5241,3998 5305,3998 5305,4052 5241,4052 5241,4116 5187,4116 5187,4052 5124,4052 "/>
   <polygon class="fil1" points="422,2888 485,2888 485,2824 539,2824 539,2888 603,2888 603,2942 539,2942 539,3005 485,3005 485,2942 422,2942 "/>
   <polygon class="fil1" points="434,3540 608,3540 608,3577 434,3577 "/>
   <polygon class="fil1" points="5122,2923 5297,2923 5297,2960 5122,2960 "/>
   <polygon class="fil1" points="7425,4006 7600,4006 7600,4043 7425,4043 "/>
   <polygon class="fil1" points="9454,4280 9629,4280 9629,4317 9454,4317 "/>
   <polyline class="fil0 str1" points="8047,2942 9117,2942 9117,269 6622,269 "/>
   <g>
    <path class="fil1" d="M2153 274l4304 0 0 17 -4304 0 -9 -8 9 -9zm-9 9l0 -9 9 0 -9 9zm0 1590l0 -1590 17 0 0 1590 -17 0zm71 0l0 0 0 3 0 3 0 3 -1 3 -1 3 -1 3 -1 3 -1 3 -1 3 -1 3 -2 2 -1 3 -2 2 -2 3 -2 2 -2 2 -2 2 -3 2 -2 2 -2 2 -3 1 -2 2 -3 1 -3 1 -3 2 -3 1 -3 0 -3 1 -3 1 -3 0 -3 0 -3 0 0 0 -4 0 -3 0 -3 0 -3 -1 -3 -1 -3 0 -3 -1 -3 -2 -2 -1 -3 -1 -3 -2 -2 -1 -3 -2 -2 -2 -2 -2 -3 -2 -2 -2 -2 -2 -1 -3 -2 -2 -2 -3 -1 -2 -2 -3 -1 -3 -1 -3 -1 -3 -1 -3 -1 -3 0 -3 -1 -3 0 -3 0 -3 0 0 0 -3 0 -4 1 -3 0 -3 1 -3 1 -3 1 -3 1 -3 1 -2 2 -3 1 -3 2 -2 2 -3 1 -2 2 -2 2 -2 3 -3 2 -1 2 -2 3 -2 2 -2 3 -1 3 -2 2 -1 3 -1 3 -1 3 -1 3 -1 3 0 3 0 3 -1 4 0 0 0 3 0 3 1 3 0 3 0 3 1 3 1 3 1 3 1 3 1 3 2 2 1 3 2 2 2 2 2 3 1 2 3 2 2 2 2 2 2 2 3 1 2 2 3 1 3 1 2 1 3 1 3 1 3 1 3 1 3 0 3 0 4 0 3z"/>
   </g>
   <line class="fil0 str1" x1="3742" y1="1405" x2="3742" y2= "584" />
   <line class="fil0 str1" x1="4771" y1="1859" x2="3181" y2= "1859" />
   <g>
    <path class="fil1" d="M3708 1886l0 -3 0 -3 0 -3 1 -3 1 -3 1 -3 1 -3 1 -3 1 -3 1 -2 2 -3 1 -3 2 -2 2 -2 2 -3 2 -2 2 -2 3 -2 2 -2 2 -1 3 -2 2 -2 3 -1 3 -1 3 -1 3 -1 3 -1 3 -1 3 0 3 -1 3 0 3 0 0 0 4 0 3 0 3 1 3 0 3 1 3 1 3 1 3 1 2 1 3 1 3 2 2 2 3 1 2 2 2 2 3 2 2 2 2 3 1 2 2 2 2 3 1 3 2 2 1 3 1 3 1 3 1 3 1 3 0 3 1 3 0 3 0 3 0 0 0 4 0 3 -1 3 0 3 -1 3 -1 3 -1 3 -1 3 -1 3 -2 2 -1 3 -2 2 -2 3 -1 2 -2 2 -2 3 -3 2 -2 2 -2 2 -3 1 -2 2 -3 1 -3 2 -2 1 -3 1 -3 1 -3 1 -3 1 -3 0 -3 1 -3 0 -4 0 0 0 -3 0 -3 0 -3 -1 -3 0 -3 -1 -3 -1 -3 -1 -3 -1 -3 -1 -3 -2 -2 -1 -3 -2 -2 -1 -2 -2 -3 -2 -2 -2 -2 -3 -2 -2 -2 -2 -2 -3 -1 -2 -2 -3 -1 -2 -1 -3 -1 -3 -1 -3 -1 -3 -1 -3 -1 -3 0 -3 0 -3 0 -4 0 0zm71 -356l0 356 -18 0 0 -356 18 0z"/>
   </g>
   <path class="fil0 str0" d="M6633 534l0 -534m-242 525c169,-180 167,-317 -1,-493"/>
   <path class="fil0 str0" d="M6592 6703l0 -534m-242 525c169,-180 167,-317 -2,-494"/>
   <polygon class="fil1" points="9414,2682 9478,2682 9478,2618 9532,2618 9532,2682 9596,2682 9596,2736 9532,2736 9532,2800 9478,2800 9478,2736 9414,2736 "/>
   <line class="fil0 str1" x1="2519" y1="1891" x2="1729" y2= "1891" />
   <polyline class="fil0 str1" points="1066,1891 521,1891 521,2715 "/>
   <polygon class="fil1" points="6850,4280 7024,4280 7024,4317 6850,4317 "/>
   <polygon class="fil1" points="5136,5062 5310,5062 5310,5098 5136,5098 "/>
   <polyline class="fil0 str1" points="4812,2956 3729,2956 3729,4861 "/>
   <g>
    <path class="fil1" d="M3733 5821l0 -796 18 0 0 796 -18 0zm-72 0l0 -16 163 0 0 31 -163 0 0 -15z"/>
   </g>
   <g>
    <path class="fil1" d="M3743 4608l-3 0 -3 0 -4 0 -3 -1 -3 0 -3 -1 -3 -1 -2 -1 -3 -2 -3 -1 -3 -2 -2 -1 -3 -2 -2 -2 -2 -2 -2 -2 -2 -2 -2 -2 -2 -3 -2 -2 -2 -3 -1 -2 -2 -3 -1 -3 -1 -3 -1 -3 -1 -2 0 -4 -1 -3 0 -3 -1 -3 0 -3 0 0 0 -3 1 -3 0 -4 1 -3 0 -3 1 -3 1 -3 1 -2 1 -3 2 -3 1 -3 2 -2 2 -3 2 -2 2 -2 2 -2 2 -2 2 -2 2 -2 3 -2 2 -2 3 -1 3 -2 3 -1 2 -1 3 -1 3 -1 3 0 3 -1 4 0 3 -1 3 0 0 0 3 0 3 1 3 0 3 1 3 0 3 1 3 1 3 1 3 1 3 2 2 1 3 2 2 2 3 2 2 2 2 2 2 2 2 2 2 2 2 3 1 2 2 3 1 3 2 3 1 2 1 3 1 3 0 3 1 3 0 4 0 3 0 3 0 0 0 3 0 3 0 3 -1 3 0 4 -1 2 -1 3 -1 3 -2 3 -1 3 -2 2 -1 3 -2 2 -2 3 -2 2 -2 2 -2 2 -2 2 -3 2 -2 2 -3 1 -2 2 -3 1 -3 2 -3 1 -3 1 -3 1 -3 0 -3 1 -3 0 -3 0 -3 0 0 0zm-561 -71l561 0 0 18 -561 0 0 -18z"/>
   </g>
   <line class="fil0 str1" x1="2519" y1="4578" x2="1729" y2= "4578" />
   <polyline class="fil0 str1" points="1066,4578 535,4578 535,3719 "/>
   <polyline class="fil0 str1" points="4840,4039 4278,4039 4278,4211 "/>
   <polyline class="fil0 str1" points="4786,5094 4291,5094 4291,4873 "/>
   <polyline class="fil0 str1" points="6951,4599 6951,5615 6759,5615 "/>
   <polyline class="fil0 str1" points="5854,5101 5854,5615 6097,5615 "/>
   <polyline class="fil0 str1" points="8047,3998 9089,3998 9089,6424 6635,6424 "/>
   <g>
    <path class="fil1" d="M2111 6427l4359 0 0 18 -4359 0 -8 -9 8 -9zm0 18l-8 0 0 -9 8 9zm9 -1868l0 1859 -17 0 0 -1859 17 0zm-71 0l0 0 0 -3 0 -3 0 -3 1 -3 1 -3 1 -3 1 -3 1 -3 1 -3 1 -2 2 -3 1 -2 2 -3 2 -2 2 -3 2 -2 2 -2 3 -2 2 -2 2 -1 3 -2 3 -2 2 -1 3 -1 3 -1 3 -1 3 -1 3 -1 3 0 3 -1 3 0 3 0 0 0 4 0 3 0 3 1 3 0 3 1 3 1 3 1 3 1 2 1 3 1 3 2 2 2 3 1 2 2 2 2 3 2 2 2 2 3 2 2 1 3 2 2 1 3 2 2 1 3 1 3 1 3 1 3 1 3 0 3 1 3 0 3 0 3 0 0 0 4 0 3 -1 3 0 3 -1 3 -1 3 -1 3 -1 3 -1 3 -2 2 -1 3 -2 2 -1 3 -2 2 -2 3 -2 2 -3 2 -2 2 -2 2 -3 1 -2 2 -3 1 -3 2 -2 1 -3 1 -3 1 -3 1 -3 1 -3 0 -3 1 -3 0 -4 0 0 0 -3 0 -3 0 -3 -1 -3 0 -3 -1 -3 -1 -3 -1 -3 -1 -3 -1 -2 -2 -3 -1 -3 -2 -2 -1 -2 -2 -3 -2 -2 -2 -2 -2 -2 -3 -2 -2 -2 -3 -1 -2 -2 -3 -1 -2 -1 -3 -1 -3 -1 -3 -1 -3 -1 -3 -1 -3 0 -3 0 -3 0 -4z"/>
   </g>
   <path class="fil1" d="M5412 4470l87 129c14,22 24,35 31,40 6,5 13,8 21,8l0 9 -154 0 0 -9c12,0 20,-2 24,-5 3,-3 5,-6 5,-11 0,-2 0,-5 -2,-7 -2,-5 -7,-14 -16,-27l-46 -67 -48 58c-14,18 -22,30 -22,37 0,4 2,9 6,13 4,3 9,6 17,8 3,1 10,1 20,1l0 9 -122 0 0 -9c14,-2 25,-5 33,-11 10,-7 25,-22 43,-45l63 -76 -80 -119c-13,-19 -21,-30 -23,-32 -4,-6 -8,-9 -12,-12 -4,-2 -10,-3 -17,-4l0 -9 157 0 0 9 -8 0c-9,0 -16,1 -19,4 -4,3 -5,6 -5,11 0,3 0,6 1,9l16 24 40 59 32 -40c18,-21 26,-36 26,-44 0,-4 -1,-8 -4,-12 -2,-3 -5,-6 -10,-8 -4,-2 -11,-3 -21,-3l0 -9 116 0 0 9c-9,0 -16,1 -22,3 -5,2 -11,6 -18,12 -4,4 -14,15 -30,35l-59 72z"/>
   <path class="fil1" d="M5521 2297l0 8c-10,1 -18,4 -24,9 -7,7 -20,25 -36,54l-69 115 0 76c0,17 1,27 3,31 1,4 5,7 10,10 5,3 11,5 20,5l18 0 0 8 -177 0 0 -8 16 0c9,0 17,-2 22,-5 4,-2 7,-6 10,-11 1,-4 2,-14 2,-30l0 -63 -74 -136c-15,-27 -25,-43 -31,-48 -6,-4 -14,-7 -25,-7l0 -8 152 0 0 8 -7 0c-9,0 -16,1 -19,4 -4,3 -6,6 -6,9 0,5 7,19 19,42l57 105 57 -95c14,-24 21,-40 21,-47 0,-5 -2,-8 -6,-11 -5,-4 -15,-6 -29,-7l0 -8 96 0z"/>
   <path class="fil1" d="M6543 4093l-186 298 60 0c28,0 48,-2 60,-5 18,-6 34,-16 47,-31 14,-15 23,-35 28,-61l9 0 -13 115 -289 0 186 -299 -47 0c-18,0 -30,0 -36,2 -10,2 -21,5 -30,11 -10,6 -18,14 -24,24 -6,10 -11,23 -15,38l-8 0 8 -92 250 0z"/>
   <path class="fil1" d="M7711 3311l0 8c-6,1 -11,3 -15,5 -4,3 -7,8 -10,14 -1,2 -6,14 -15,36l-99 261 -8 0 -79 -206 -86 206 -8 0 -105 -258c-10,-27 -18,-42 -22,-48 -4,-5 -11,-9 -21,-10l0 -8 137 0 0 8c-11,1 -18,2 -22,6 -4,3 -6,6 -6,11 0,6 4,18 12,38l62 153 50 -121 -13 -33c-7,-18 -12,-30 -16,-36 -4,-7 -9,-11 -14,-14 -5,-2 -12,-4 -22,-4l0 -8 152 0 0 8c-11,1 -18,1 -23,3 -3,1 -6,3 -8,6 -2,2 -2,5 -2,8 0,4 3,15 10,34l57 149 52 -135c5,-14 9,-24 10,-29 1,-5 2,-10 2,-14 0,-7 -2,-12 -7,-16 -4,-3 -12,-5 -25,-6l0 -8 82 0z"/>
   <path class="fil1" d="M1291 4112l-28 96c-4,14 -6,24 -6,30 0,6 3,11 7,15 5,3 15,5 30,6l-3 8 -152 0 3 -8c15,0 26,-3 33,-9 7,-6 14,-20 20,-40l58 -203c3,-12 5,-21 5,-27 0,-7 -2,-11 -6,-15 -4,-3 -14,-5 -28,-6l2 -8 131 0c37,0 64,6 79,19 15,13 23,30 23,50 0,22 -9,41 -27,59 -11,11 -31,20 -60,28l28 96c8,26 14,42 20,47 6,5 15,8 28,9l0 8 -98 0 -44 -155 -8 1c-2,0 -4,0 -7,-1zm4 -14c5,1 9,1 13,1 22,0 41,-8 55,-23 14,-16 21,-36 21,-62 0,-14 -3,-26 -11,-34 -8,-7 -18,-11 -31,-11 -3,0 -6,0 -10,0l-37 129z"/>
   <path id="1" class="fil1" d="M1686 3944l-78 265c-4,14 -6,23 -6,27 0,4 1,8 4,12 3,4 6,6 9,7 4,2 14,3 30,4l-2 8 -160 0 3 -8c16,-1 27,-2 33,-4 6,-3 11,-7 15,-12 4,-5 9,-16 14,-34l46 -157c7,-24 11,-36 11,-38 1,-4 2,-8 2,-11 0,-7 -2,-13 -7,-17 -4,-4 -10,-6 -18,-6 -4,0 -12,0 -23,2l-2 -9 119 -29 10 0z"/>
   <path class="fil1" d="M2665 1399l-27 96c-4,14 -6,24 -6,30 0,6 2,11 7,15 5,3 15,5 30,5l-3 9 -152 0 2 -9c16,0 27,-3 34,-9 7,-5 13,-19 19,-40l58 -202c4,-12 5,-21 5,-27 0,-7 -2,-12 -6,-15 -4,-3 -13,-5 -28,-6l2 -9 131 0c38,0 64,7 79,20 16,13 23,30 23,50 0,22 -9,41 -27,59 -11,11 -31,20 -59,28l28 96c7,26 14,41 20,47 5,5 15,8 28,8l0 9 -98 0 -45 -155 -7 1c-2,0 -5,-1 -8,-1zm4 -14c5,1 10,1 14,1 22,0 40,-8 54,-24 15,-15 22,-36 22,-61 0,-15 -4,-26 -12,-34 -7,-8 -17,-11 -30,-11 -3,0 -7,0 -11,0l-37 129z"/>
   <path id="1" class="fil1" d="M3016 1554l-168 0 0 -9c44,-40 81,-77 111,-111 25,-28 41,-50 47,-65 7,-15 10,-30 10,-45 0,-14 -5,-25 -14,-34 -9,-9 -20,-13 -33,-13 -22,0 -40,11 -55,35l-9 -4c8,-23 19,-40 31,-52 18,-17 39,-25 63,-25 23,0 41,7 56,21 15,14 22,30 22,48 0,16 -4,32 -11,47 -7,16 -22,36 -44,59 -17,18 -52,49 -104,94l61 0c19,0 33,-2 41,-7 8,-4 15,-13 22,-26l11 0 -37 87z"/>
   <path class="fil1" d="M6684 647l-24 100 -8 0c-1,-27 -8,-47 -20,-61 -13,-13 -29,-20 -49,-20 -22,0 -43,9 -65,27 -21,19 -40,47 -55,85 -12,30 -18,61 -18,91 0,26 7,47 20,61 13,14 32,21 55,21 18,0 35,-4 51,-12 15,-8 31,-21 46,-39l11 0c-19,28 -38,49 -58,60 -20,12 -44,18 -72,18 -38,0 -69,-12 -92,-35 -24,-23 -35,-53 -35,-90 0,-35 9,-68 28,-100 18,-31 45,-57 80,-76 34,-20 69,-30 103,-30 13,0 30,3 49,8 10,3 17,5 21,5 8,0 16,-5 23,-13l9 0z"/>
   <path id="1" class="fil1" d="M6872 648l-79 265c-4,14 -6,23 -6,27 0,4 2,8 5,11 3,5 6,7 9,8 3,1 13,3 30,3l-2 9 -160 0 3 -9c15,0 27,-1 33,-4 6,-2 11,-6 15,-11 4,-5 8,-17 13,-34l47 -157c7,-24 11,-37 11,-38 1,-4 2,-8 2,-11 0,-8 -3,-13 -7,-17 -4,-4 -10,-6 -18,-6 -4,0 -12,0 -23,1l-2 -8 119 -29 10 0z"/>
   <path class="fil1" d="M4336 1016l-23 100 -8 0c-2,-27 -8,-48 -21,-61 -12,-14 -29,-20 -49,-20 -21,0 -43,9 -65,27 -21,19 -39,47 -54,85 -12,30 -18,61 -18,90 0,27 6,48 19,62 14,14 32,21 55,21 19,0 36,-4 51,-12 16,-8 31,-21 47,-40l11 0c-20,29 -39,49 -59,61 -19,12 -43,17 -72,17 -38,0 -69,-11 -92,-34 -23,-23 -35,-53 -35,-90 0,-35 10,-68 28,-100 19,-32 45,-57 80,-77 35,-19 69,-29 104,-29 13,0 29,3 49,8 9,3 16,4 20,4 8,0 16,-4 24,-12l8 0z"/>
   <path id="1" class="fil1" d="M4480 1339l-168 0 0 -8c44,-41 81,-78 110,-112 26,-28 41,-49 48,-64 6,-15 10,-30 10,-45 0,-14 -5,-25 -14,-34 -9,-9 -20,-14 -33,-14 -22,0 -40,12 -56,36l-8 -4c8,-23 18,-40 31,-52 18,-17 39,-25 63,-25 22,0 41,7 56,21 14,14 22,30 22,48 0,16 -4,32 -11,47 -7,16 -22,35 -44,59 -18,18 -52,49 -104,94l61 0c19,0 33,-2 41,-7 7,-4 15,-13 22,-26l11 0 -37 86z"/>
   <path class="fil1" d="M6427 5356l-137 0 2 -8c9,-1 16,-4 20,-8 5,-5 7,-10 7,-17 0,-7 -3,-18 -8,-34l-33 -107 -33 115c-4,13 -6,23 -6,28 0,7 3,12 8,16 5,4 14,6 28,7l-3 8 -153 0 2 -8c13,-1 22,-2 28,-5 6,-3 11,-8 14,-14 4,-7 8,-19 13,-36l53 -185c6,-21 9,-34 9,-40 0,-5 -3,-10 -8,-14 -4,-4 -14,-6 -27,-6l2 -8 149 0 -3 8c-10,0 -17,1 -22,4 -7,4 -13,10 -17,18 -3,5 -7,17 -13,36l-21 76 82 -76c16,-15 25,-24 27,-27 3,-4 4,-8 4,-12 0,-5 -2,-9 -5,-13 -4,-3 -9,-5 -18,-6l3 -8 119 0 -3 8c-9,0 -16,2 -22,4 -8,2 -16,6 -26,12 -10,6 -20,13 -30,22l-22 20 -49 44 37 117c12,39 21,62 28,69 7,7 16,11 26,12l-2 8z"/>
   <path id="1" class="fil1" d="M6589 5201l-28 96c-4,14 -6,24 -6,30 0,6 3,11 7,15 5,3 15,5 31,6l-4 8 -152 0 3 -8c15,0 26,-4 34,-9 7,-6 13,-20 19,-41l58 -202c3,-12 5,-21 5,-27 0,-7 -2,-12 -6,-15 -4,-3 -14,-5 -28,-6l2 -8 131 0c38,0 64,6 79,19 15,13 23,30 23,50 0,22 -9,41 -27,59 -11,11 -31,20 -60,28l28 96c8,26 15,41 20,47 6,5 15,8 29,9l0 8 -99 0 -44 -155 -8 1c-1,0 -4,-1 -7,-1zm4 -14c5,1 10,1 13,1 23,0 41,-8 55,-24 14,-15 22,-35 22,-61 0,-15 -4,-26 -12,-34 -8,-7 -18,-11 -30,-11 -3,0 -7,0 -11,0l-37 129z"/>
   <path class="fil1" d="M1255 1435l-28 96c-4,13 -6,23 -6,30 0,6 3,11 8,14 4,4 14,6 30,6l-4 8 -152 0 3 -8c15,0 27,-3 34,-9 7,-6 13,-19 19,-40l58 -203c4,-11 5,-20 5,-27 0,-6 -2,-11 -6,-14 -4,-3 -13,-6 -28,-7l2 -8 131 0c38,0 64,7 79,20 15,13 23,29 23,50 0,22 -9,41 -27,58 -11,11 -31,21 -60,29l29 96c7,25 14,41 19,46 6,6 16,9 29,9l0 8 -99 0 -44 -154 -8 0c-1,0 -4,0 -7,0zm4 -14c5,0 10,0 13,0 23,0 41,-7 55,-23 15,-15 22,-36 22,-61 0,-15 -4,-26 -12,-34 -7,-8 -18,-12 -30,-12 -3,0 -7,0 -11,1l-37 129z"/>
   <path id="1" class="fil1" d="M1650 1267l-78 265c-4,14 -6,23 -6,27 0,3 1,7 4,11 3,4 6,7 10,8 3,1 13,2 30,3l-3 8 -159 0 2 -8c16,0 27,-2 33,-4 6,-2 12,-6 16,-11 4,-6 8,-17 13,-34l46 -157c8,-24 11,-37 12,-38 1,-4 1,-8 1,-12 0,-7 -2,-12 -6,-17 -5,-4 -11,-6 -19,-6 -4,0 -11,1 -23,2l-2 -8 120 -29 9 0z"/>
   <path class="fil1" d="M2719 4130l-28 96c-4,14 -6,24 -6,30 0,6 3,11 7,15 5,3 15,5 30,6l-3 8 -152 0 3 -8c15,0 26,-4 33,-9 7,-6 14,-20 20,-41l58 -202c3,-12 5,-21 5,-27 0,-7 -2,-12 -6,-15 -4,-3 -14,-5 -28,-6l2 -8 131 0c37,0 64,6 79,19 15,13 23,30 23,50 0,22 -9,41 -27,59 -11,11 -31,20 -60,28l28 96c8,26 14,41 20,47 6,5 15,8 28,9l0 8 -98 0 -44 -155 -8 1c-2,0 -4,-1 -7,-1zm4 -14c5,1 9,1 13,1 22,0 41,-8 55,-24 14,-15 21,-35 21,-61 0,-15 -3,-26 -11,-34 -8,-7 -18,-11 -31,-11 -3,0 -6,0 -10,0l-37 129z"/>
   <path id="1" class="fil1" d="M3070 4285l-168 0 0 -9c44,-40 80,-77 110,-111 25,-28 41,-50 48,-65 6,-15 9,-30 9,-45 0,-14 -4,-25 -13,-34 -9,-9 -20,-13 -33,-13 -22,0 -40,12 -56,35l-8 -4c8,-23 18,-40 31,-52 18,-17 39,-25 63,-25 22,0 41,7 55,21 15,14 22,30 22,48 0,16 -3,32 -10,47 -7,16 -22,36 -45,59 -17,18 -51,50 -103,94l60 0c20,0 34,-2 41,-6 8,-5 16,-14 22,-27l11 0 -36 87z"/>
   <path class="fil1" d="M7041 5931l-24 100 -8 0c-1,-27 -8,-48 -20,-61 -13,-14 -29,-20 -49,-20 -22,0 -43,9 -65,27 -21,18 -40,46 -55,84 -12,31 -18,61 -18,91 0,27 7,47 20,61 13,15 32,22 55,22 18,0 35,-4 51,-12 15,-9 31,-22 46,-40l11 0c-19,29 -38,49 -58,61 -20,12 -44,17 -72,17 -38,0 -69,-11 -92,-34 -24,-23 -35,-53 -35,-91 0,-34 9,-68 28,-99 18,-32 45,-57 80,-77 34,-19 69,-29 103,-29 13,0 30,3 49,8 10,3 17,4 21,4 8,0 16,-4 23,-12l9 0z"/>
   <path id="1" class="fil1" d="M7229 5932l-79 265c-4,14 -6,23 -6,27 0,3 2,7 5,11 3,4 6,7 9,8 3,1 13,2 30,3l-2 8 -160 0 3 -8c15,0 27,-2 33,-4 6,-2 11,-6 15,-11 4,-6 8,-17 13,-34l47 -157c7,-24 11,-37 11,-38 1,-4 2,-8 2,-12 0,-7 -3,-13 -7,-17 -4,-4 -10,-6 -18,-6 -4,0 -12,1 -23,2l-2 -9 119 -28 10 0z"/>
   <path class="fil1" d="M3194 5024l-24 100 -8 0c-1,-27 -8,-48 -20,-61 -13,-14 -29,-20 -49,-20 -22,0 -44,9 -65,27 -22,19 -40,47 -55,85 -12,30 -18,60 -18,90 0,27 7,48 20,62 13,14 31,21 55,21 18,0 35,-4 51,-12 15,-8 31,-22 46,-40l11 0c-19,29 -39,49 -58,61 -20,12 -44,17 -72,17 -38,0 -69,-11 -92,-34 -24,-23 -35,-53 -35,-90 0,-35 9,-68 28,-100 18,-32 45,-57 80,-77 34,-19 69,-29 103,-29 13,0 30,3 49,8 10,3 17,4 21,4 8,0 15,-4 23,-12l9 0z"/>
   <path id="1" class="fil1" d="M3337 5347l-167 0 0 -8c43,-41 80,-78 110,-112 25,-28 41,-49 47,-64 7,-15 10,-30 10,-45 0,-14 -4,-26 -13,-34 -9,-9 -20,-14 -34,-14 -21,0 -40,12 -55,36l-9 -4c8,-23 19,-40 32,-52 18,-17 39,-25 63,-25 22,0 40,7 55,21 15,14 22,30 22,48 0,16 -3,32 -11,47 -7,16 -22,35 -44,59 -17,18 -52,49 -104,94l61 0c20,0 33,-2 41,-7 8,-4 15,-13 22,-26l11 0 -37 86z"/>
   <path class="fil1" d="M4307 3684l-27 96c-4,13 -6,24 -6,30 0,6 2,11 7,14 5,4 15,6 30,6l-3 8 -152 0 3 -8c15,0 26,-3 33,-9 7,-6 14,-19 19,-40l59 -203c3,-11 4,-20 4,-27 0,-6 -2,-11 -6,-14 -4,-3 -13,-6 -28,-7l3 -8 131 0c37,0 63,7 79,20 15,13 22,30 22,50 0,22 -8,41 -26,59 -12,10 -32,20 -60,28l28 96c7,26 14,41 20,47 5,5 15,8 28,8l0 8 -98 0 -45 -154 -7 0c-2,0 -4,0 -8,0zm4 -14c6,0 10,1 14,1 22,0 40,-8 55,-24 14,-15 21,-36 21,-61 0,-15 -4,-26 -11,-34 -8,-8 -18,-12 -31,-12 -3,0 -7,0 -11,1l-37 129z"/>
   <path class="fil1" d="M1155 3292l26 -263c1,-13 2,-22 2,-27 0,-7 -3,-13 -8,-18 -5,-4 -14,-7 -25,-7l-8 0 2 -8 125 0 -3 8c-13,1 -22,2 -28,5 -5,2 -9,7 -12,13 -1,4 -3,14 -4,30l-19 188 124 -168c13,-18 22,-31 25,-38 2,-5 4,-9 4,-13 0,-4 -2,-8 -6,-11 -3,-3 -10,-5 -20,-6l3 -8 94 0 -2 8c-7,1 -13,3 -18,5 -9,4 -17,10 -25,18 -9,9 -22,25 -41,50l-177 242 -9 0z"/>
   <path id="1" class="fil1" d="M1457 3381l-2 6 -92 0 3 -6c9,0 15,-1 18,-2 5,-2 9,-5 11,-8 3,-5 7,-15 11,-28l39 -136c4,-12 5,-20 5,-26 0,-3 0,-5 -2,-7 -1,-2 -3,-4 -6,-5 -3,-1 -9,-1 -18,-1l2 -7 86 0 -1 7c-7,-1 -13,0 -16,2 -5,3 -9,6 -12,10 -2,5 -5,15 -10,30l-39 136c-3,12 -5,19 -5,22 0,3 1,5 2,7 1,1 4,3 7,4 3,1 9,1 19,2z"/>
   <path id="2" class="fil1" d="M1683 3149l-58 200c-4,11 -5,18 -5,22 0,1 0,2 1,2 0,1 1,2 2,2 1,0 2,-1 3,-2 3,-3 7,-9 13,-20l6 4c-7,11 -13,19 -20,25 -7,6 -13,9 -19,9 -3,0 -6,-1 -8,-4 -2,-3 -3,-6 -3,-11 0,-7 1,-15 5,-26l6 -20c-18,24 -34,42 -48,51 -10,7 -20,10 -29,10 -9,0 -18,-4 -24,-11 -7,-8 -11,-18 -11,-31 0,-16 6,-34 17,-53 12,-18 27,-34 46,-45 14,-10 28,-14 40,-14 7,0 12,1 17,3 5,3 9,7 14,12l16 -54c2,-7 3,-12 4,-15 1,-5 2,-9 2,-11 0,-3 -1,-5 -2,-6 -3,-2 -6,-3 -9,-3 -3,0 -7,0 -13,1l0 -6 57 -9zm-64 119c0,-7 -2,-12 -7,-17 -4,-4 -10,-6 -17,-6 -16,0 -32,11 -49,35 -16,23 -25,45 -25,66 0,8 3,15 7,19 4,4 9,7 15,7 14,0 30,-13 48,-38 19,-25 28,-47 28,-66z"/>
   <path class="fil1" d="M9205 3542l26 -263c1,-13 2,-22 2,-27 0,-7 -3,-13 -8,-18 -5,-4 -13,-7 -24,-7l-9 0 3 -8 124 0 -2 8c-14,1 -23,2 -28,5 -5,2 -9,7 -12,13 -2,4 -3,13 -5,30l-19 188 124 -168c14,-18 22,-31 25,-38 3,-5 4,-9 4,-13 0,-4 -2,-8 -5,-11 -4,-3 -11,-5 -20,-6l2 -8 95 0 -2 8c-8,1 -14,2 -19,5 -8,4 -17,10 -25,18 -9,8 -22,25 -40,50l-178 242 -9 0z"/>
   <path id="1" class="fil1" d="M9592 3406c15,0 29,3 40,10 12,6 21,16 27,29 7,12 10,26 10,39 0,24 -7,50 -21,76 -14,27 -32,47 -55,61 -23,14 -46,21 -70,21 -18,0 -32,-4 -44,-11 -12,-8 -20,-18 -26,-31 -5,-13 -8,-25 -8,-37 0,-21 5,-42 15,-62 10,-21 22,-38 36,-52 14,-14 29,-24 45,-32 16,-7 33,-11 51,-11zm-6 11c-11,0 -22,2 -32,8 -11,5 -21,15 -32,27 -10,12 -20,29 -28,49 -10,25 -16,48 -16,71 0,15 5,29 13,41 8,13 20,19 37,19 10,0 20,-3 30,-8 10,-5 20,-13 30,-26 14,-15 25,-34 34,-58 9,-23 13,-45 13,-66 0,-15 -4,-28 -12,-40 -8,-11 -20,-17 -37,-17z"/>
   <path id="2" class="fil1" d="M9866 3399l-58 200c-4,11 -5,18 -5,22 0,1 0,1 1,2 0,1 1,2 2,2 1,0 2,-1 3,-2 3,-3 7,-9 13,-20l6 4c-7,10 -14,19 -20,25 -7,6 -13,9 -19,9 -3,0 -6,-1 -8,-4 -2,-3 -3,-7 -3,-11 0,-7 1,-15 5,-26l6 -21c-18,25 -34,42 -48,52 -10,7 -20,10 -29,10 -10,0 -18,-4 -25,-11 -6,-8 -10,-18 -10,-31 0,-16 6,-34 17,-53 12,-18 27,-34 45,-45 15,-10 29,-14 41,-14 7,0 12,1 17,3 5,3 9,7 14,12l16 -54c1,-7 3,-12 4,-16 1,-4 2,-8 2,-11 0,-2 -1,-4 -2,-5 -3,-2 -6,-3 -9,-3 -3,0 -7,0 -13,1l0 -6 57 -9zm-64 119c0,-7 -2,-12 -7,-17 -5,-4 -10,-6 -17,-6 -16,0 -32,11 -49,34 -16,24 -25,46 -25,67 0,8 2,14 7,19 4,4 9,6 15,6 14,0 30,-12 48,-37 19,-25 28,-47 28,-66z"/>
   <g>
    <path class="fil1" d="M10256 2839l90 221 0 0 -6 -3 -5 -3 -6 -2 -6 -3 -6 -2 -6 -2 -6 -2 -5 -1 -6 -2 -6 -1 -6 -1 -6 -1 -6 -1 -6 0 -5 -1 -6 0 -6 0 -6 0 -6 1 -6 0 -6 1 -6 1 -5 1 -6 1 -6 2 -6 1 -6 2 -6 2 -6 2 -6 3 -6 2 -6 3 98 -218zm-28 1294l17 -1184 18 1 -18 1183 -17 0z"/>
   </g>
   <g>
    <path class="fil1" d="M3751 584l0 821 -17 0 0 -821 17 0zm73 0l0 16 -163 0 0 -32 163 0 0 16z"/>
   </g>
   <g>
    <path class="fil1" d="M319 2237l-59 204c-3,12 -5,21 -5,26 0,5 2,8 5,10 3,3 10,4 22,5l-2 7 -94 0 3 -7c10,0 16,-1 19,-2 5,-2 9,-5 12,-9 4,-5 8,-15 12,-30l42 -146c3,-9 4,-14 4,-16 1,-2 1,-4 1,-7 0,-4 -1,-7 -4,-10 -2,-2 -5,-3 -9,-3 -3,0 -8,1 -15,2l-2 -7 61 -17 9 0z"/>
    <circle class="fil0 str1" cx="253" cy="2363" r="187"/>
   </g>
   <g>
    <path class="fil1" d="M324 4094l-123 0 0 -6c62,-55 104,-98 124,-129 9,-15 14,-30 14,-46 0,-13 -4,-23 -12,-31 -8,-8 -18,-12 -30,-12 -17,0 -31,9 -42,25l-7 -3c7,-16 16,-28 28,-37 11,-8 24,-13 38,-13 16,0 29,6 40,16 10,11 16,24 16,40 0,10 -2,20 -6,29 -6,14 -17,30 -32,48 -24,27 -56,58 -95,93l62 0c10,0 18,-2 24,-6 7,-4 11,-10 14,-17l8 0 -21 49z"/>
    <circle class="fil0 str1" cx="285" cy="3968" r="187"/>
   </g>
   <g>
    <path class="fil1" d="M2175 2306l0 -6c29,-4 51,-13 65,-26 11,-9 16,-20 16,-33 0,-10 -3,-17 -9,-24 -6,-6 -13,-9 -22,-9 -13,0 -26,8 -36,25l-7 -2c7,-14 15,-25 25,-32 9,-7 20,-11 32,-11 14,0 26,5 35,13 9,9 13,20 13,33 0,11 -4,22 -12,32 -9,10 -23,19 -43,28 12,5 22,12 28,22 7,10 10,22 10,35 0,15 -4,31 -13,46 -9,15 -21,27 -36,35 -15,8 -32,13 -48,13 -16,0 -27,-3 -35,-8 -5,-4 -8,-8 -8,-13 0,-4 2,-8 5,-11 3,-3 7,-5 11,-5 3,0 6,1 10,2 2,0 6,3 14,7 7,4 13,7 18,9 4,1 8,2 13,2 11,0 20,-7 27,-19 7,-13 11,-26 11,-41 0,-11 -3,-22 -8,-31 -4,-9 -12,-16 -22,-22 -11,-6 -22,-9 -34,-9z"/>
    <circle class="fil0 str1" cx="2209" cy="2317" r="187"/>
   </g>
   <g>
    <path class="fil1" d="M2210 4026l-47 162 29 0 -6 23 -30 0 -19 66 -26 0 19 -66 -90 0 8 -26 148 -159 14 0zm-40 47l-107 115 73 0 34 -115z"/>
    <circle class="fil0 str1" cx="2138" cy="4140" r="187"/>
   </g>
   <g>
    <path class="fil1" d="M3783 2170l82 0 -8 30 -75 0 -13 31c20,3 35,9 46,18 17,14 25,34 25,60 0,16 -3,32 -9,45 -6,14 -14,25 -23,35 -9,9 -19,16 -29,22 -14,7 -28,10 -43,10 -12,0 -21,-2 -29,-7 -4,-4 -7,-9 -7,-14 0,-5 2,-8 5,-11 3,-4 7,-5 11,-5 7,0 14,3 22,10 5,4 9,6 12,8 2,1 5,1 9,1 14,0 26,-7 38,-20 11,-14 17,-32 17,-54 0,-15 -3,-28 -9,-38 -6,-11 -14,-19 -23,-23 -10,-4 -22,-7 -38,-9l39 -89z"/>
    <circle class="fil0 str1" cx="3783" cy="2296" r="187"/>
   </g>
   <g>
    <path class="fil1" d="M8731 2470l123 0 0 7 -139 245 -14 -7 121 -216 -59 0c-16,0 -27,2 -33,5 -6,3 -13,9 -20,20l-8 0 29 -54z"/>
    <circle class="fil0 str1" cx="8777" cy="2596" r="187"/>
   </g>
   <g>
    <path class="fil1" d="M8789 4383c12,12 20,24 26,35 5,11 8,22 8,33 0,20 -8,37 -23,52 -15,15 -33,22 -55,22 -20,0 -36,-6 -49,-18 -12,-12 -18,-26 -18,-42 0,-14 5,-27 15,-40 10,-13 29,-26 57,-38 -11,-14 -18,-25 -22,-33 -4,-9 -6,-17 -6,-26 0,-16 6,-30 18,-41 13,-12 28,-18 46,-18 18,0 32,5 43,15 11,10 17,22 17,35 0,14 -5,26 -14,37 -9,11 -23,20 -43,27zm-7 -8c13,-4 23,-12 30,-22 8,-10 11,-22 11,-35 0,-12 -3,-22 -10,-29 -7,-7 -16,-11 -28,-11 -10,0 -19,4 -26,10 -7,7 -10,16 -10,27 0,8 2,15 5,22 6,10 15,23 28,38zm-25 19c-18,8 -32,18 -41,33 -10,14 -14,29 -14,46 0,13 4,23 12,32 8,8 19,12 32,12 14,0 26,-5 35,-15 10,-10 15,-21 15,-35 0,-10 -3,-21 -9,-32 -5,-11 -15,-25 -30,-41z"/>
    <circle class="fil0 str1" cx="8762" cy="4397" r="187"/>
   </g>
   <polyline class="fil0 str0" points="6760,5605 6704,5742 6594,5465 6483,5742 6373,5465 6263,5742 6152,5465 6097,5606 "/>
   <polygon class="fil1" points="422,2888 485,2888 485,2824 539,2824 539,2888 603,2888 603,2942 539,2942 539,3005 485,3005 485,2942 422,2942 "/>
   <polygon class="fil1" points="434,3540 608,3540 608,3577 434,3577 "/>
   <path class="fil0 str0" d="M6633 534l0 -534m-242 525c169,-180 167,-317 -1,-493"/>
   <polyline class="fil0 str1" points="6951,4599 6951,5615 6759,5615 "/>
   <polyline class="fil0 str1" points="5854,5101 5854,5615 6097,5615 "/>
   <g>
    <circle class="fil0 str1" cx="3458" cy="4126" r="187"/>
    <path class="fil1" d="M3544 3998l0 7c-20,5 -40,15 -60,31 -19,15 -37,35 -51,60 13,-6 24,-9 32,-9 15,0 28,6 39,17 11,11 17,26 17,45 0,29 -10,54 -28,74 -19,21 -39,31 -61,31 -19,0 -34,-7 -44,-22 -11,-14 -16,-31 -16,-50 0,-25 6,-49 18,-74 11,-24 27,-45 46,-62 20,-17 41,-30 62,-38 12,-5 28,-8 46,-10zm-120 113c-17,37 -26,68 -26,93 0,13 3,23 10,30 6,8 14,11 22,11 14,0 28,-10 40,-30 12,-20 18,-44 18,-70 0,-15 -4,-26 -11,-33 -7,-8 -15,-12 -25,-12 -5,0 -9,1 -13,2 -3,1 -9,4 -15,9z"/>
   </g>
   <g>
    <path class="fil1" d="M3412 664c15,0 28,6 39,19 11,13 16,34 16,62 0,24 -4,48 -12,73 -8,25 -19,47 -33,65 -12,14 -24,25 -36,31 -7,4 -16,6 -25,6 -16,0 -29,-7 -40,-20 -11,-13 -16,-33 -16,-61 0,-28 5,-56 16,-84 13,-33 29,-58 48,-75 13,-11 27,-16 43,-16zm0 9c-7,0 -14,3 -21,8 -8,6 -15,17 -23,35 -8,17 -15,40 -22,67 -9,36 -14,67 -14,92 0,13 3,22 9,29 5,6 12,9 19,9 8,0 14,-2 19,-7 14,-13 26,-36 36,-67 17,-52 25,-94 25,-127 0,-13 -3,-23 -9,-29 -5,-7 -11,-10 -19,-10z"/>
    <circle class="fil0 str1" cx="3386" cy="792" r="187"/>
   </g>
   <g>
    <path class="fil1" d="M3412 5663c15,0 28,7 39,20 11,13 16,33 16,61 0,24 -4,49 -12,74 -8,25 -19,46 -33,65 -12,14 -24,25 -36,31 -7,4 -16,5 -25,5 -16,0 -29,-6 -40,-19 -11,-13 -16,-34 -16,-62 0,-27 5,-55 16,-83 13,-33 29,-58 48,-75 13,-11 27,-17 43,-17zm0 10c-7,0 -14,2 -21,8 -8,5 -15,17 -23,34 -8,18 -15,40 -22,68 -9,36 -14,67 -14,92 0,13 3,22 9,28 5,7 12,10 19,10 8,0 14,-3 19,-8 14,-13 26,-35 36,-67 17,-52 25,-94 25,-126 0,-13 -3,-23 -9,-30 -5,-6 -11,-9 -19,-9z"/>
    <circle class="fil0 str1" cx="3386" cy="5791" r="187"/>
   </g>
  </g>
 </g>
</svg>
