<?xml version="1.0" encoding="UTF-8"?>
<!DOCTYPE svg PUBLIC "-//W3C//DTD SVG 1.1//EN" "http://www.w3.org/Graphics/SVG/1.1/DTD/svg11.dtd">
<!-- Creator: CorelDRAW Home & Student X8 -->
<svg xmlns="http://www.w3.org/2000/svg" xml:space="preserve" width="78.065mm" height="80.1074mm" version="1.1" style="shape-rendering:geometricPrecision; text-rendering:geometricPrecision; image-rendering:optimizeQuality; fill-rule:evenodd; clip-rule:evenodd"
viewBox="0 0 13428 13779"
 xmlns:xlink="http://www.w3.org/1999/xlink">
 <defs>
  <style type="text/css">
   <![CDATA[
    .str0 {stroke:#2B2A29;stroke-width:68.8046}
    .str1 {stroke:#2B2A29;stroke-width:51.6034}
    .str2 {stroke:#2B2A29;stroke-width:34.4023}
    .fil0 {fill:none}
    .fil1 {fill:#2B2A29;fill-rule:nonzero}
   ]]>
  </style>
 </defs>
 <g id="Warstwa_x0020_1">
  <metadata id="CorelCorpID_0Corel-Layer"/>
  <g id="_704768880">
   <polyline class="fil0 str0" points="7990,12966 7724,12858 8265,12642 7724,12426 8265,12211 7724,11995 8265,11779 7990,11671 "/>
   <g>
    <ellipse class="fil0 str1" cx="1871" cy="8017" rx="738" ry="382"/>
    <g>
     <circle class="fil0 str1" cx="3628" cy="8017" r="364"/>
     <circle class="fil0 str1" cx="4356" cy="8017" r="364"/>
    </g>
    <polyline class="fil0 str0" points="2933,9779 2666,9671 3207,9455 2666,9240 3207,9024 2666,8808 3207,8592 2932,8484 "/>
    <line class="fil0 str2" x1="2609" y1="8017" x2="3264" y2= "8017" />
    <g>
     <path class="fil1" d="M2949 8017l0 467 -34 0 0 -467 34 0zm-139 0l0 0 0 -6 1 -7 0 -6 1 -6 2 -6 1 -5 2 -6 3 -6 2 -5 3 -5 3 -5 3 -5 3 -5 4 -5 4 -4 4 -4 4 -5 4 -3 5 -4 5 -3 5 -4 5 -3 5 -2 6 -3 5 -2 6 -2 6 -2 6 -1 6 -1 6 -1 6 0 6 0 0 0 6 0 7 0 6 1 6 1 6 1 6 2 5 2 6 2 5 3 5 2 6 3 5 4 4 3 5 4 4 3 5 5 4 4 4 4 3 5 4 5 3 5 3 5 2 5 3 5 2 6 2 6 2 5 1 6 1 6 1 6 0 7 1 6 0 0 -1 6 0 6 -1 6 -1 7 -1 5 -2 6 -2 6 -2 5 -3 6 -2 5 -3 5 -3 5 -4 5 -3 5 -4 4 -4 4 -5 4 -4 4 -5 4 -4 3 -5 4 -6 2 -5 3 -5 3 -6 2 -5 2 -6 1 -6 2 -6 1 -6 1 -7 0 -6 0 0 0 -6 0 -6 0 -6 -1 -6 -1 -6 -2 -6 -1 -6 -2 -5 -2 -6 -3 -5 -3 -5 -2 -5 -4 -5 -3 -5 -4 -4 -4 -4 -4 -4 -4 -4 -4 -4 -5 -3 -5 -3 -5 -3 -5 -3 -5 -2 -6 -3 -5 -2 -6 -1 -6 -2 -5 -1 -7 0 -6 -1 -6 0 -6z"/>
    </g>
    <g>
     <path class="fil1" d="M2915 10220l0 -441 35 0 0 441 -35 0zm-142 0l0 -31 319 0 0 61 -319 0 0 -30z"/>
    </g>
   </g>
   <g>
    <ellipse class="fil0 str1" cx="1871" cy="5359" rx="738" ry="382"/>
    <polyline class="fil0 str0" points="2933,7121 2666,7013 3207,6798 2666,6582 3207,6366 2666,6150 3207,5935 2932,5827 "/>
    <line class="fil0 str2" x1="2609" y1="5359" x2="3264" y2= "5359" />
    <g>
     <path class="fil1" d="M2949 5359l0 468 -34 0 0 -468 34 0zm-139 0l0 0 0 -6 1 -6 0 -6 1 -6 2 -6 1 -6 2 -6 3 -5 2 -6 3 -5 3 -5 3 -5 3 -5 4 -4 4 -5 4 -4 4 -4 4 -4 5 -4 5 -3 5 -3 5 -3 5 -3 6 -2 5 -3 6 -2 6 -1 6 -2 6 -1 6 0 6 -1 6 0 0 0 6 0 7 1 6 0 6 1 6 2 6 1 5 2 6 3 5 2 5 3 6 3 5 3 4 3 5 4 4 4 5 4 4 4 4 5 3 4 4 5 3 5 3 5 2 5 3 6 2 5 2 6 2 6 1 6 1 6 1 6 0 6 1 6 0 0 -1 7 0 6 -1 6 -1 6 -1 6 -2 6 -2 5 -2 6 -3 5 -2 5 -3 6 -3 4 -4 5 -3 5 -4 4 -4 5 -5 4 -4 4 -5 3 -4 4 -5 3 -6 3 -5 2 -5 3 -6 2 -5 2 -6 2 -6 1 -6 1 -6 1 -7 0 -6 1 0 0 -6 -1 -6 0 -6 -1 -6 -1 -6 -1 -6 -2 -6 -2 -5 -2 -6 -3 -5 -2 -5 -3 -5 -3 -5 -4 -5 -3 -4 -4 -4 -4 -4 -5 -4 -4 -4 -5 -3 -5 -3 -4 -3 -6 -3 -5 -2 -5 -3 -6 -2 -5 -1 -6 -2 -6 -1 -6 0 -6 -1 -6 0 -7z"/>
    </g>
    <g>
     <path class="fil1" d="M2915 7562l0 -441 35 0 0 441 -35 0zm-142 0l0 -31 319 0 0 62 -319 0 0 -31z"/>
    </g>
    <g>
     <circle class="fil0 str1" transform="matrix(2.90528E-14 -1.09697 1.09697 2.90528E-14 3653.66 5322.86)" r="343"/>
     <circle class="fil0 str1" transform="matrix(2.90528E-14 -1.09697 1.09697 2.90528E-14 4236.28 5322.86)" r="343"/>
    </g>
   </g>
   <ellipse class="fil0 str1" transform="matrix(-1.11235E-13 1.4 -1.4 -1.11235E-13 5291.18 4105.26)" rx="527" ry="273"/>
   <g>
    <ellipse class="fil0 str1" cx="5291" cy="8925" rx="367" ry="550"/>
    <ellipse class="fil0 str1" cx="5291" cy="9494" rx="367" ry="550"/>
   </g>
   <line class="fil0 str2" x1="5291" y1="4844" x2="5291" y2= "8381" />
   <g>
    <path class="fil1" d="M5291 5340l-679 0 0 -34 679 0 0 34zm0 -139l0 0 6 0 7 0 6 1 6 1 6 1 5 2 6 2 6 2 5 3 5 2 5 3 5 3 5 4 5 4 4 3 5 4 4 5 3 4 4 5 4 5 3 4 3 6 2 5 3 5 2 6 2 6 2 5 1 6 1 6 1 6 0 7 1 6 0 0 -1 6 0 6 -1 6 -1 6 -1 6 -2 6 -2 6 -2 5 -3 6 -2 5 -3 5 -3 5 -4 5 -4 5 -3 4 -4 4 -5 4 -4 4 -5 4 -5 3 -5 3 -5 3 -5 3 -5 3 -6 2 -6 2 -5 1 -6 2 -6 1 -6 1 -7 0 -6 0 0 0 -6 0 -6 0 -6 -1 -6 -1 -6 -2 -6 -1 -6 -2 -5 -2 -6 -3 -5 -3 -5 -3 -5 -3 -5 -3 -5 -4 -4 -4 -4 -4 -4 -4 -4 -4 -4 -5 -3 -5 -3 -5 -3 -5 -3 -5 -3 -6 -2 -5 -2 -6 -1 -6 -2 -6 -1 -6 -1 -6 0 -6 0 -6 0 0 0 -6 0 -7 1 -6 1 -6 2 -6 1 -5 2 -6 2 -6 3 -5 3 -5 3 -6 3 -4 3 -5 4 -5 4 -4 4 -5 4 -4 4 -3 5 -4 5 -4 5 -3 5 -3 5 -2 6 -3 5 -2 6 -2 6 -2 6 -1 6 -1 6 -1 6 0 6 0z"/>
   </g>
   <g>
    <path class="fil1" d="M5291 8034l-571 0 0 -34 571 0 0 34zm0 -139l0 0 6 0 7 0 6 1 6 1 6 1 5 2 6 2 6 2 5 3 5 2 5 3 5 4 5 3 5 4 4 3 5 4 4 5 3 4 4 5 4 5 3 5 3 5 2 5 3 5 2 6 2 6 2 5 1 6 1 6 1 6 0 7 1 6 0 0 -1 6 0 6 -1 7 -1 6 -1 5 -2 6 -2 6 -2 5 -3 6 -2 5 -3 5 -3 5 -4 5 -4 5 -3 4 -4 4 -5 4 -4 4 -5 4 -5 3 -5 4 -5 2 -5 3 -5 3 -6 2 -6 2 -5 1 -6 2 -6 1 -6 1 -7 0 -6 0 0 0 -6 0 -6 0 -6 -1 -6 -1 -6 -2 -6 -1 -6 -2 -5 -2 -6 -3 -5 -3 -5 -2 -5 -4 -5 -3 -5 -4 -4 -4 -4 -4 -4 -4 -4 -4 -4 -5 -3 -5 -3 -5 -3 -5 -3 -5 -3 -6 -2 -5 -2 -6 -1 -6 -2 -5 -1 -6 -1 -7 0 -6 0 -6 0 0 0 -6 0 -7 1 -6 1 -6 2 -6 1 -5 2 -6 2 -6 3 -5 3 -5 3 -5 3 -5 3 -5 4 -5 4 -4 4 -5 4 -4 4 -3 5 -4 5 -3 5 -4 5 -3 5 -2 6 -3 5 -2 6 -2 6 -2 6 -1 6 -1 6 -1 6 0 6 0z"/>
   </g>
   <polyline class="fil0 str0" points="6995,6617 6887,6883 6672,6342 6456,6883 6240,6342 6024,6883 5809,6342 5701,6617 "/>
   <g>
    <path class="fil1" d="M5314 6600l387 0 0 34 -387 0 0 -34zm0 139l0 0 -6 0 -6 0 -6 -1 -6 -1 -6 -2 -6 -1 -6 -2 -5 -2 -6 -3 -5 -2 -5 -3 -5 -4 -5 -3 -5 -4 -4 -3 -4 -5 -4 -4 -4 -4 -4 -5 -3 -5 -3 -5 -3 -5 -3 -5 -2 -5 -3 -6 -2 -6 -1 -5 -2 -6 -1 -6 -1 -7 0 -6 0 -6 0 0 0 -6 0 -6 1 -7 1 -6 2 -6 1 -5 2 -6 3 -6 2 -5 3 -5 3 -5 3 -5 3 -5 4 -5 4 -4 4 -4 4 -4 4 -4 5 -4 5 -3 5 -4 5 -3 5 -2 6 -3 5 -2 6 -2 6 -1 6 -2 6 -1 6 -1 6 0 6 0 0 0 6 0 7 0 6 1 6 1 6 2 5 1 6 2 6 2 5 3 5 2 6 3 4 4 5 3 5 4 4 4 5 4 4 4 4 4 3 5 4 5 3 5 3 5 2 5 3 5 2 6 2 6 2 5 1 6 1 6 1 7 0 6 1 6 0 0 -1 6 0 6 -1 7 -1 6 -1 6 -2 5 -2 6 -2 6 -3 5 -2 5 -3 5 -3 5 -4 5 -3 5 -4 4 -4 4 -5 5 -4 3 -5 4 -5 3 -4 4 -6 3 -5 2 -5 3 -6 2 -6 2 -5 1 -6 2 -6 1 -6 1 -7 0 -6 0z"/>
   </g>
   <g>
    <path class="fil1" d="M7401 6634l-406 0 0 -35 406 0 0 35zm0 142l-31 0 0 -319 61 0 0 319 -30 0z"/>
   </g>
   <g>
    <circle class="fil0 str1" transform="matrix(2.90528E-14 -1.09697 1.09697 2.90528E-14 6596.88 2912.09)" r="343"/>
    <circle class="fil0 str1" transform="matrix(2.90528E-14 -1.09697 1.09697 2.90528E-14 7179.5 2912.09)" r="343"/>
   </g>
   <g>
    <circle class="fil0 str1" transform="matrix(2.90528E-14 -1.09697 1.09697 2.90528E-14 6596.88 10867.5)" r="343"/>
    <circle class="fil0 str1" transform="matrix(2.90528E-14 -1.09697 1.09697 2.90528E-14 7179.5 10867.5)" r="343"/>
   </g>
   <g>
    <path class="fil1" d="M412 2895l5809 0 0 34 -5809 0 0 -34zm-85 139l0 -61 0 0 4 0 3 0 3 0 3 -1 3 -1 3 0 2 -1 3 -2 3 -1 3 -1 2 -2 3 -1 2 -2 2 -2 3 -2 2 -2 2 -2 2 -2 1 -2 2 -3 2 -2 1 -3 2 -2 1 -3 1 -3 1 -3 1 -3 0 -3 1 -3 0 -3 1 -3 0 -3 61 0 0 6 -1 7 -1 6 -1 6 -1 6 -2 5 -2 6 -2 6 -2 5 -3 5 -3 6 -3 5 -4 4 -3 5 -4 4 -4 5 -4 4 -5 3 -4 4 -5 4 -5 3 -5 3 -6 2 -5 3 -6 2 -5 2 -6 2 -6 1 -6 1 -6 1 -6 0 -7 0 0 0zm-122 -122l61 0 0 0 0 3 1 3 0 3 1 3 0 3 1 3 1 3 1 3 1 3 2 2 1 3 2 2 1 3 2 2 2 2 2 2 2 2 3 2 2 2 2 2 3 1 2 2 3 1 3 1 2 2 3 1 3 0 3 1 3 1 3 0 3 0 3 0 0 61 -6 0 -6 0 -6 -1 -6 -1 -6 -1 -6 -2 -6 -2 -5 -2 -6 -3 -5 -2 -5 -3 -5 -3 -5 -4 -4 -4 -5 -3 -4 -4 -4 -5 -4 -4 -4 -5 -3 -4 -3 -5 -3 -6 -3 -5 -2 -5 -2 -6 -2 -6 -2 -5 -1 -6 -1 -6 -1 -6 -1 -7 0 -6 0 0zm122 -122l0 61 0 0 -3 0 -3 0 -3 1 -3 0 -3 1 -3 1 -3 1 -2 1 -3 1 -3 1 -2 2 -3 1 -2 2 -2 2 -3 2 -2 2 -2 2 -2 2 -2 3 -1 2 -2 2 -1 3 -2 3 -1 2 -1 3 -1 3 -1 3 0 3 -1 3 0 3 -1 3 0 3 -61 0 0 -6 1 -6 1 -7 1 -6 1 -5 2 -6 2 -6 2 -6 2 -5 3 -5 3 -5 3 -5 3 -5 4 -5 4 -4 4 -4 4 -4 5 -4 4 -4 5 -3 5 -4 5 -2 5 -3 6 -3 5 -2 6 -2 6 -1 6 -2 6 -1 6 -1 6 0 6 0 0 0zm123 122l-61 0 0 -3 -1 -3 0 -3 -1 -3 0 -3 -1 -3 -1 -3 -1 -3 -1 -2 -2 -3 -1 -3 -2 -2 -2 -2 -1 -3 -2 -2 -2 -2 -2 -2 -3 -2 -2 -2 -2 -2 -3 -1 -2 -2 -3 -1 -3 -1 -3 -1 -2 -1 -3 -1 -3 -1 -3 0 -3 -1 -3 0 -4 0 0 -61 7 0 6 0 6 1 6 1 6 2 6 1 5 2 6 2 5 3 6 3 5 2 5 4 5 3 4 4 5 4 4 4 4 4 4 4 3 5 4 5 3 5 3 5 3 5 2 5 2 6 2 6 2 6 1 5 1 6 1 7 1 6 0 6z"/>
   </g>
   <g>
    <path class="fil1" d="M334 5342l798 0 0 34 -798 0 0 -34zm-85 140l0 -62 0 0 4 0 3 0 3 0 3 -1 3 -1 3 0 2 -1 3 -1 3 -2 2 -1 3 -1 2 -2 3 -2 2 -2 2 -2 3 -2 2 -2 2 -2 1 -2 2 -3 2 -2 1 -3 2 -2 1 -3 1 -3 1 -3 1 -3 0 -2 1 -3 0 -3 0 -4 1 -3 61 0 0 6 -1 7 -1 6 -1 6 -1 6 -2 6 -2 5 -2 6 -2 5 -3 6 -3 5 -3 5 -4 4 -3 5 -4 4 -4 5 -4 4 -5 4 -4 3 -5 4 -5 3 -5 3 -6 2 -5 3 -6 2 -5 2 -6 2 -6 1 -6 1 -6 1 -6 0 -7 1 0 0zm-122 -123l61 0 0 0 0 3 1 4 0 3 0 3 1 2 1 3 1 3 1 3 1 3 2 2 1 3 2 2 1 3 2 2 2 2 2 2 2 2 3 2 2 2 2 2 3 2 2 1 3 1 3 2 2 1 3 1 3 0 3 1 3 1 3 0 3 0 3 0 0 62 -6 -1 -6 0 -6 -1 -6 -1 -6 -1 -6 -2 -6 -2 -5 -2 -6 -3 -5 -2 -5 -3 -5 -3 -5 -4 -4 -3 -5 -4 -4 -4 -4 -5 -4 -4 -4 -5 -3 -4 -3 -5 -3 -5 -3 -6 -2 -5 -2 -6 -2 -5 -2 -6 -1 -6 -2 -6 0 -6 -1 -7 0 -6 0 0zm122 -122l0 61 0 0 -3 0 -3 0 -3 1 -3 0 -3 1 -3 1 -3 1 -2 1 -3 1 -3 1 -2 2 -3 1 -2 2 -2 2 -3 2 -2 2 -2 2 -2 2 -2 3 -1 2 -2 3 -1 2 -2 3 -1 2 -1 3 -1 3 -1 3 -1 3 0 3 0 3 -1 3 0 3 -61 0 0 -6 1 -6 0 -6 2 -6 1 -6 2 -6 2 -6 2 -5 2 -6 3 -5 3 -5 3 -5 3 -5 4 -5 4 -4 4 -4 4 -4 5 -4 4 -4 5 -3 5 -3 5 -3 5 -3 6 -2 5 -3 6 -2 6 -1 6 -2 6 -1 6 0 6 -1 6 0 0 0zm123 122l-61 0 -1 -3 0 -3 0 -3 -1 -3 0 -3 -1 -3 -1 -3 -1 -3 -1 -2 -2 -3 -1 -2 -2 -3 -2 -2 -1 -3 -2 -2 -2 -2 -3 -2 -2 -2 -2 -2 -3 -2 -2 -1 -3 -2 -2 -1 -3 -1 -3 -1 -2 -1 -3 -1 -3 -1 -3 0 -3 -1 -3 0 -4 0 0 -61 7 0 6 1 6 0 6 1 6 2 6 1 5 2 6 3 5 2 6 3 5 3 5 3 5 3 4 4 5 4 4 4 4 4 4 4 3 5 4 5 3 5 3 5 3 5 2 6 2 5 2 6 2 6 1 6 1 6 1 6 1 6 0 6z"/>
   </g>
   <g>
    <path class="fil1" d="M412 10850l5809 0 0 35 -5809 0 0 -35zm-85 140l0 -61 0 0 4 0 3 -1 3 0 3 -1 3 0 3 -1 2 -1 3 -1 3 -1 3 -2 2 -1 3 -2 2 -1 2 -2 3 -2 2 -2 2 -2 2 -3 1 -2 2 -2 2 -3 1 -2 2 -3 1 -3 1 -2 1 -3 1 -3 0 -3 1 -3 0 -3 1 -3 0 -3 61 0 0 6 -1 6 -1 6 -1 6 -1 6 -2 6 -2 6 -2 5 -2 6 -3 5 -3 5 -3 5 -4 5 -3 4 -4 5 -4 4 -4 4 -5 4 -4 4 -5 3 -5 3 -5 3 -6 3 -5 2 -6 2 -5 2 -6 2 -6 1 -6 1 -6 1 -6 1 -7 0 0 0zm-122 -122l61 0 0 0 0 3 1 3 0 3 1 3 0 3 1 3 1 3 1 2 1 3 2 3 1 2 2 3 1 2 2 2 2 3 2 2 2 2 3 2 2 2 2 1 3 2 2 1 3 2 3 1 2 1 3 1 3 1 3 0 3 1 3 0 3 1 3 0 0 61 -6 0 -6 -1 -6 -1 -6 -1 -6 -1 -6 -2 -6 -2 -5 -2 -6 -2 -5 -3 -5 -3 -5 -3 -5 -3 -4 -4 -5 -4 -4 -4 -4 -4 -4 -5 -4 -4 -3 -5 -3 -5 -3 -5 -3 -5 -2 -6 -2 -5 -2 -6 -2 -6 -1 -6 -1 -6 -1 -6 -1 -6 0 -6 0 0zm122 -123l0 61 0 0 -3 0 -3 1 -3 0 -3 1 -3 0 -3 1 -3 1 -2 1 -3 1 -3 2 -2 1 -3 2 -2 1 -2 2 -3 2 -2 2 -2 2 -2 3 -2 2 -1 2 -2 3 -1 2 -2 3 -1 3 -1 3 -1 2 -1 3 0 3 -1 3 0 3 -1 3 0 4 -61 0 0 -7 1 -6 1 -6 1 -6 1 -6 2 -6 2 -6 2 -5 2 -6 3 -5 3 -5 3 -5 3 -5 4 -4 4 -5 4 -4 4 -4 5 -4 4 -3 5 -4 5 -3 5 -3 5 -3 6 -2 5 -2 6 -2 6 -2 6 -1 6 -1 6 -1 6 -1 6 0 0 0zm123 123l-61 0 0 -4 -1 -3 0 -3 -1 -3 0 -3 -1 -3 -1 -2 -1 -3 -1 -3 -2 -3 -1 -2 -2 -3 -2 -2 -1 -2 -2 -3 -2 -2 -2 -2 -3 -2 -2 -2 -2 -1 -3 -2 -2 -1 -3 -2 -3 -1 -3 -1 -2 -1 -3 -1 -3 0 -3 -1 -3 0 -3 -1 -4 0 0 -61 7 0 6 1 6 1 6 1 6 1 6 2 5 2 6 2 5 2 6 3 5 3 5 3 5 4 4 3 5 4 4 4 4 4 4 5 3 4 4 5 3 5 3 5 3 5 2 6 2 5 2 6 2 6 1 6 1 6 1 6 1 6 0 7z"/>
   </g>
   <g>
    <path class="fil1" d="M412 8000l720 0 0 34 -720 0 0 -34zm-85 139l0 -61 0 0 4 0 3 0 3 -1 3 0 3 -1 3 -1 2 -1 3 -1 3 -1 3 -1 2 -2 3 -1 2 -2 2 -2 3 -2 2 -2 2 -2 2 -2 1 -3 2 -2 2 -2 1 -3 2 -3 1 -2 1 -3 1 -3 1 -3 0 -3 1 -3 0 -3 1 -3 0 -3 61 0 0 6 -1 6 -1 7 -1 6 -1 6 -2 5 -2 6 -2 6 -2 5 -3 5 -3 5 -3 5 -4 5 -3 5 -4 4 -4 4 -4 4 -5 4 -4 4 -5 3 -5 4 -5 2 -6 3 -5 3 -6 2 -5 2 -6 1 -6 2 -6 1 -6 1 -6 0 -7 0 0 0zm-122 -122l61 0 0 0 0 3 1 3 0 3 1 3 0 3 1 3 1 3 1 3 1 2 2 3 1 3 2 2 1 2 2 3 2 2 2 2 2 2 3 2 2 2 2 2 3 1 2 2 3 1 3 1 2 1 3 1 3 1 3 1 3 0 3 1 3 0 3 0 0 61 -6 0 -6 0 -6 -1 -6 -1 -6 -2 -6 -1 -6 -2 -5 -2 -6 -3 -5 -3 -5 -2 -5 -4 -5 -3 -4 -4 -5 -4 -4 -4 -4 -4 -4 -4 -4 -5 -3 -5 -3 -5 -3 -5 -3 -5 -2 -5 -2 -6 -2 -6 -2 -5 -1 -6 -1 -6 -1 -7 -1 -6 0 -6 0 0zm122 -122l0 61 0 0 -3 0 -3 0 -3 0 -3 1 -3 1 -3 1 -3 0 -2 2 -3 1 -3 1 -2 2 -3 1 -2 2 -2 2 -3 2 -2 2 -2 2 -2 2 -2 2 -1 3 -2 2 -1 3 -2 2 -1 3 -1 3 -1 3 -1 3 0 3 -1 3 0 3 -1 3 0 3 -61 0 0 -6 1 -7 1 -6 1 -6 1 -6 2 -5 2 -6 2 -6 2 -5 3 -5 3 -6 3 -4 3 -5 4 -5 4 -4 4 -5 4 -4 5 -3 4 -4 5 -3 5 -4 5 -3 5 -2 6 -3 5 -2 6 -2 6 -2 6 -1 6 -1 6 -1 6 0 6 0 0 0zm123 122l-61 0 0 -3 -1 -3 0 -3 -1 -3 0 -3 -1 -3 -1 -3 -1 -3 -1 -3 -2 -2 -1 -3 -2 -2 -2 -3 -1 -2 -2 -2 -2 -2 -2 -2 -3 -2 -2 -2 -2 -2 -3 -1 -2 -2 -3 -1 -3 -1 -3 -2 -2 0 -3 -1 -3 -1 -3 -1 -3 0 -3 0 -4 0 0 -61 7 0 6 0 6 1 6 1 6 1 6 2 5 2 6 2 5 3 6 2 5 3 5 4 5 3 4 4 5 3 4 4 4 5 4 4 3 5 4 5 3 4 3 6 3 5 2 5 2 6 2 6 2 5 1 6 1 6 1 6 1 7 0 6z"/>
   </g>
   <g>
    <path class="fil1" d="M5308 2912l0 455 -34 0 0 -455 34 0zm-139 0l0 0 0 -6 0 -6 1 -6 1 -6 2 -6 1 -6 2 -6 2 -5 3 -6 3 -5 3 -5 3 -5 3 -5 4 -5 4 -4 4 -4 4 -4 4 -4 5 -4 5 -3 5 -3 5 -3 5 -3 6 -3 5 -2 6 -2 6 -1 6 -2 6 -1 6 -1 6 0 6 0 0 0 6 0 7 0 6 1 6 1 6 2 6 1 5 2 6 2 5 3 5 3 6 3 4 3 5 3 5 4 4 4 5 4 4 4 4 4 3 5 4 5 3 5 3 5 2 5 3 6 2 5 2 6 2 6 1 6 1 6 1 6 0 6 1 6 0 0 -1 6 0 7 -1 6 -1 6 -1 6 -2 5 -2 6 -2 6 -3 5 -2 5 -3 5 -3 5 -4 5 -3 5 -4 4 -4 4 -5 5 -4 3 -5 4 -5 3 -4 4 -6 3 -5 2 -5 3 -6 2 -5 2 -6 2 -6 1 -6 1 -6 1 -7 0 -6 0 0 0 -6 0 -6 0 -6 -1 -6 -1 -6 -1 -6 -2 -6 -2 -5 -2 -6 -3 -5 -2 -5 -3 -5 -4 -5 -3 -5 -4 -4 -3 -4 -5 -4 -4 -4 -4 -4 -5 -3 -5 -3 -5 -3 -5 -3 -5 -3 -5 -2 -6 -2 -6 -1 -5 -2 -6 -1 -6 -1 -6 0 -7 0 -6z"/>
   </g>
   <g>
    <path class="fil1" d="M5274 10868l0 -824 34 0 0 824 -34 0zm140 0l0 0 -1 6 0 6 -1 6 -1 6 -1 6 -2 6 -2 5 -2 6 -3 5 -2 6 -3 5 -3 5 -4 5 -3 4 -4 5 -4 4 -5 4 -4 4 -5 3 -5 4 -4 3 -6 3 -5 3 -5 2 -6 2 -5 2 -6 2 -6 1 -6 1 -6 1 -7 1 -6 0 0 0 -6 0 -6 -1 -6 -1 -6 -1 -6 -1 -6 -2 -6 -2 -5 -2 -6 -2 -5 -3 -5 -3 -5 -3 -5 -4 -5 -3 -4 -4 -4 -4 -4 -4 -4 -5 -4 -4 -3 -5 -3 -5 -3 -5 -3 -6 -3 -5 -2 -6 -2 -5 -1 -6 -2 -6 -1 -6 -1 -6 0 -6 0 -6 0 0 0 -7 0 -6 1 -6 1 -6 2 -6 1 -6 2 -5 2 -6 3 -5 3 -6 3 -5 3 -5 3 -5 4 -4 4 -5 4 -4 4 -4 4 -4 5 -3 5 -4 5 -3 5 -3 5 -3 6 -2 5 -2 6 -2 6 -2 6 -1 6 -1 6 -1 6 -1 6 0 0 0 6 0 7 1 6 1 6 1 6 1 6 2 5 2 6 2 5 2 5 3 6 3 4 3 5 4 5 3 4 4 5 4 4 4 4 5 3 4 4 5 3 5 3 5 2 6 3 5 2 6 2 5 2 6 1 6 1 6 1 6 0 6 1 7z"/>
   </g>
   <ellipse class="fil0 str1" cx="9069" cy="4337" rx="738" ry="382"/>
   <ellipse class="fil0 str1" cx="9069" cy="7668" rx="738" ry="382"/>
   <g>
    <circle class="fil0 str1" transform="matrix(3.70784E-14 1.4 -1.4 3.70784E-14 10786 5251.28)" r="260"/>
    <circle class="fil0 str1" transform="matrix(3.70784E-14 1.4 -1.4 3.70784E-14 10786 5979.22)" r="260"/>
   </g>
   <g>
    <circle class="fil0 str1" transform="matrix(3.70784E-14 1.4 -1.4 3.70784E-14 10786 8656.35)" r="260"/>
    <circle class="fil0 str1" transform="matrix(3.70784E-14 1.4 -1.4 3.70784E-14 10786 9384.29)" r="260"/>
   </g>
   <g>
    <path class="fil1" d="M12965 2929l-5409 0 0 -34 5409 0 0 34zm84 -139l0 61 0 0 -3 0 -3 0 -3 1 -3 0 -3 1 -3 1 -3 1 -2 1 -3 1 -3 1 -2 2 -3 1 -2 2 -2 2 -3 2 -2 2 -2 2 -2 2 -2 3 -1 2 -2 2 -1 3 -2 3 -1 2 -1 3 -1 3 -1 3 0 3 -1 3 0 3 -1 3 0 3 -61 0 0 -6 1 -6 1 -7 1 -6 1 -5 2 -6 2 -6 2 -6 2 -5 3 -5 3 -5 3 -5 3 -5 4 -5 4 -4 4 -4 4 -4 5 -4 4 -4 5 -3 5 -4 5 -2 5 -3 6 -3 5 -2 6 -2 6 -1 6 -2 6 -1 6 -1 6 0 6 0 0 0zm123 122l-61 0 0 0 0 -3 -1 -3 0 -3 -1 -3 0 -3 -1 -3 -1 -3 -1 -3 -1 -2 -2 -3 -1 -3 -2 -2 -2 -2 -1 -3 -2 -2 -2 -2 -2 -2 -3 -2 -2 -2 -2 -2 -3 -1 -2 -2 -3 -1 -3 -1 -3 -1 -2 -1 -3 -1 -3 -1 -3 0 -3 -1 -3 0 -4 0 0 -61 7 0 6 0 6 1 6 1 6 2 6 1 5 2 6 2 5 3 6 3 5 2 5 4 5 3 4 4 5 4 4 4 4 4 4 4 3 5 4 5 3 5 3 5 3 5 2 5 2 6 2 6 2 6 1 5 1 6 1 7 1 6 0 6 0 0zm-123 122l0 -61 0 0 4 0 3 0 3 0 3 -1 3 -1 3 0 2 -1 3 -2 3 -1 3 -1 2 -2 3 -1 2 -2 2 -2 3 -2 2 -2 2 -2 2 -2 1 -2 2 -3 2 -2 1 -3 2 -2 1 -3 1 -3 1 -3 1 -3 0 -3 1 -3 0 -3 1 -3 0 -3 61 0 0 6 -1 7 -1 6 -1 6 -1 6 -2 5 -2 6 -2 6 -2 5 -3 5 -3 6 -3 5 -4 4 -3 5 -4 4 -4 5 -4 4 -5 3 -4 4 -5 4 -5 3 -5 3 -6 2 -5 3 -6 2 -5 2 -6 2 -6 1 -6 1 -6 1 -6 0 -7 0 0 0zm-122 -122l61 0 0 3 1 3 0 3 1 3 0 3 1 3 1 3 1 3 1 3 2 2 1 3 2 2 1 3 2 2 2 2 2 2 2 2 3 2 2 2 2 2 3 1 2 2 3 1 3 1 2 2 3 1 3 0 3 1 3 1 3 0 3 0 3 0 0 61 -6 0 -6 0 -6 -1 -6 -1 -6 -1 -6 -2 -6 -2 -5 -2 -6 -3 -5 -2 -5 -3 -5 -3 -5 -4 -4 -4 -5 -3 -4 -4 -4 -5 -4 -4 -4 -5 -3 -4 -3 -5 -3 -6 -3 -5 -2 -5 -2 -6 -2 -6 -2 -5 -1 -6 -1 -6 -1 -6 -1 -7 0 -6z"/>
   </g>
   <g>
    <path class="fil1" d="M12965 4355l-3158 0 0 -35 3158 0 0 35zm84 -140l0 61 0 0 -3 0 -3 1 -3 0 -3 0 -3 1 -3 1 -3 1 -2 1 -3 1 -3 2 -2 1 -3 2 -2 1 -2 2 -3 2 -2 2 -2 2 -2 3 -2 2 -1 2 -2 3 -1 2 -2 3 -1 3 -1 2 -1 3 -1 3 0 3 -1 3 0 3 -1 3 0 3 -61 0 0 -6 1 -6 1 -6 1 -6 1 -6 2 -6 2 -6 2 -5 2 -6 3 -5 3 -5 3 -5 3 -5 4 -4 4 -5 4 -4 4 -4 5 -4 4 -4 5 -3 5 -3 5 -3 5 -3 6 -2 5 -2 6 -2 6 -2 6 -1 6 -2 6 0 6 -1 6 0 0 0zm123 122l-61 0 0 0 0 -3 -1 -3 0 -3 -1 -3 0 -3 -1 -3 -1 -3 -1 -2 -1 -3 -2 -3 -1 -2 -2 -3 -2 -2 -1 -2 -2 -3 -2 -2 -2 -2 -3 -2 -2 -2 -2 -1 -3 -2 -2 -1 -3 -2 -3 -1 -3 -1 -2 -1 -3 -1 -3 -1 -3 0 -3 0 -3 -1 -4 0 0 -61 7 0 6 1 6 0 6 2 6 1 6 2 5 2 6 2 5 2 6 3 5 3 5 3 5 3 4 4 5 4 4 4 4 4 4 5 3 4 4 5 3 5 3 5 3 5 2 6 2 5 2 6 2 6 1 6 1 6 1 6 1 6 0 6 0 0zm-123 123l0 -61 0 0 4 -1 3 0 3 0 3 -1 3 0 3 -1 2 -1 3 -1 3 -1 3 -2 2 -1 3 -2 2 -2 2 -1 3 -2 2 -2 2 -2 2 -3 1 -2 2 -2 2 -3 1 -2 2 -3 1 -3 1 -3 1 -2 1 -3 0 -3 1 -3 0 -3 1 -3 0 -4 61 0 0 7 -1 6 -1 6 -1 6 -1 6 -2 6 -2 5 -2 6 -2 5 -3 6 -3 5 -3 5 -4 5 -3 4 -4 5 -4 4 -4 4 -5 4 -4 3 -5 4 -5 3 -5 3 -6 3 -5 2 -6 2 -5 2 -6 2 -6 1 -6 1 -6 1 -6 1 -7 0 0 0zm-122 -123l61 0 0 4 1 3 0 3 1 3 0 3 1 3 1 2 1 3 1 3 2 3 1 2 2 3 1 2 2 2 2 3 2 2 2 2 3 2 2 1 2 2 3 2 2 1 3 2 3 1 2 1 3 1 3 1 3 0 3 1 3 0 3 0 3 1 0 61 -6 0 -6 -1 -6 -1 -6 -1 -6 -1 -6 -2 -6 -2 -5 -2 -6 -2 -5 -3 -5 -3 -5 -3 -5 -4 -4 -3 -5 -4 -4 -4 -4 -4 -4 -5 -4 -4 -3 -5 -3 -5 -3 -5 -3 -6 -2 -5 -2 -6 -2 -5 -2 -6 -1 -6 -1 -6 -1 -6 -1 -6 0 -7z"/>
   </g>
   <g>
    <path class="fil1" d="M12965 7685l-3158 0 0 -35 3158 0 0 35zm84 -140l0 61 0 0 -3 0 -3 1 -3 0 -3 1 -3 0 -3 1 -3 1 -2 1 -3 1 -3 2 -2 1 -3 2 -2 1 -2 2 -3 2 -2 2 -2 2 -2 3 -2 2 -1 2 -2 3 -1 2 -2 3 -1 3 -1 3 -1 2 -1 3 0 3 -1 3 0 3 -1 3 0 4 -61 0 0 -7 1 -6 1 -6 1 -6 1 -6 2 -6 2 -6 2 -5 2 -6 3 -5 3 -5 3 -5 3 -5 4 -4 4 -5 4 -4 4 -4 5 -4 4 -3 5 -4 5 -3 5 -3 5 -3 6 -2 5 -2 6 -2 6 -2 6 -1 6 -1 6 -1 6 -1 6 0 0 0zm123 123l-61 0 0 0 0 -4 -1 -3 0 -3 -1 -3 0 -3 -1 -3 -1 -2 -1 -3 -1 -3 -2 -3 -1 -2 -2 -3 -2 -2 -1 -2 -2 -3 -2 -2 -2 -2 -3 -2 -2 -2 -2 -1 -3 -2 -2 -1 -3 -2 -3 -1 -3 -1 -2 -1 -3 -1 -3 0 -3 -1 -3 0 -3 -1 -4 0 0 -61 7 0 6 1 6 1 6 1 6 1 6 2 5 2 6 2 5 2 6 3 5 3 5 3 5 4 4 3 5 4 4 4 4 4 4 5 3 4 4 5 3 5 3 5 3 5 2 6 2 5 2 6 2 6 1 6 1 6 1 6 1 6 0 7 0 0zm-123 122l0 -61 0 0 4 0 3 -1 3 0 3 -1 3 0 3 -1 2 -1 3 -1 3 -1 3 -2 2 -1 3 -2 2 -1 2 -2 3 -2 2 -2 2 -2 2 -3 1 -2 2 -2 2 -3 1 -2 2 -3 1 -3 1 -2 1 -3 1 -3 0 -3 1 -3 0 -3 1 -3 0 -3 61 0 0 6 -1 6 -1 6 -1 6 -1 6 -2 6 -2 6 -2 5 -2 6 -3 5 -3 5 -3 5 -4 5 -3 4 -4 5 -4 4 -4 4 -5 4 -4 4 -5 3 -5 3 -5 3 -6 3 -5 2 -6 2 -5 2 -6 2 -6 1 -6 1 -6 1 -6 1 -7 0 0 0zm-122 -122l61 0 0 3 1 3 0 3 1 3 0 3 1 3 1 3 1 2 1 3 2 3 1 2 2 3 1 2 2 2 2 3 2 2 2 2 3 2 2 2 2 1 3 2 2 1 3 2 3 1 2 1 3 1 3 1 3 0 3 1 3 0 3 1 3 0 0 61 -6 0 -6 -1 -6 -1 -6 -1 -6 -1 -6 -2 -6 -2 -5 -2 -6 -2 -5 -3 -5 -3 -5 -3 -5 -3 -4 -4 -5 -4 -4 -4 -4 -4 -4 -5 -4 -4 -3 -5 -3 -5 -3 -5 -3 -5 -2 -6 -2 -5 -2 -6 -2 -6 -1 -6 -1 -6 -1 -6 -1 -6 0 -6z"/>
   </g>
   <g>
    <path class="fil1" d="M12965 10885l-5409 0 0 -35 5409 0 0 35zm84 -140l0 61 0 0 -3 0 -3 1 -3 0 -3 1 -3 0 -3 1 -3 1 -2 1 -3 1 -3 2 -2 1 -3 2 -2 1 -2 2 -3 2 -2 2 -2 2 -2 3 -2 2 -1 2 -2 3 -1 2 -2 3 -1 3 -1 3 -1 2 -1 3 0 3 -1 3 0 3 -1 3 0 4 -61 0 0 -7 1 -6 1 -6 1 -6 1 -6 2 -6 2 -6 2 -5 2 -6 3 -5 3 -5 3 -5 3 -5 4 -4 4 -5 4 -4 4 -4 5 -4 4 -3 5 -4 5 -3 5 -3 5 -3 6 -2 5 -2 6 -2 6 -2 6 -1 6 -1 6 -1 6 -1 6 0 0 0zm123 123l-61 0 0 0 0 -4 -1 -3 0 -3 -1 -3 0 -3 -1 -3 -1 -2 -1 -3 -1 -3 -2 -3 -1 -2 -2 -3 -2 -2 -1 -2 -2 -3 -2 -2 -2 -2 -3 -2 -2 -2 -2 -1 -3 -2 -2 -1 -3 -2 -3 -1 -3 -1 -2 -1 -3 -1 -3 0 -3 -1 -3 0 -3 -1 -4 0 0 -61 7 0 6 1 6 1 6 1 6 1 6 2 5 2 6 2 5 2 6 3 5 3 5 3 5 4 4 3 5 4 4 4 4 4 4 5 3 4 4 5 3 5 3 5 3 5 2 6 2 5 2 6 2 6 1 6 1 6 1 6 1 6 0 7 0 0zm-123 122l0 -61 0 0 4 0 3 -1 3 0 3 -1 3 0 3 -1 2 -1 3 -1 3 -1 3 -2 2 -1 3 -2 2 -1 2 -2 3 -2 2 -2 2 -2 2 -3 1 -2 2 -2 2 -3 1 -2 2 -3 1 -3 1 -2 1 -3 1 -3 0 -3 1 -3 0 -3 1 -3 0 -3 61 0 0 6 -1 6 -1 6 -1 6 -1 6 -2 6 -2 6 -2 5 -2 6 -3 5 -3 5 -3 5 -4 5 -3 4 -4 5 -4 4 -4 4 -5 4 -4 4 -5 3 -5 3 -5 3 -6 3 -5 2 -6 2 -5 2 -6 2 -6 1 -6 1 -6 1 -6 1 -7 0 0 0zm-122 -122l61 0 0 3 1 3 0 3 1 3 0 3 1 3 1 3 1 2 1 3 2 3 1 2 2 3 1 2 2 2 2 3 2 2 2 2 3 2 2 2 2 1 3 2 2 1 3 2 3 1 2 1 3 1 3 1 3 0 3 1 3 0 3 1 3 0 0 61 -6 0 -6 -1 -6 -1 -6 -1 -6 -1 -6 -2 -6 -2 -5 -2 -6 -2 -5 -3 -5 -3 -5 -3 -5 -3 -4 -4 -5 -4 -4 -4 -4 -4 -4 -5 -4 -4 -3 -5 -3 -5 -3 -5 -3 -5 -2 -6 -2 -5 -2 -6 -2 -6 -1 -6 -1 -6 -1 -6 -1 -6 0 -6z"/>
   </g>
   <g>
    <path class="fil1" d="M10803 4337l0 550 -34 0 0 -550 34 0zm-139 0l0 0 0 -6 0 -6 1 -6 1 -6 2 -6 1 -6 2 -6 2 -5 3 -6 2 -5 3 -5 4 -5 3 -5 4 -4 4 -5 4 -4 4 -4 4 -4 5 -4 5 -3 5 -3 5 -3 5 -3 5 -2 6 -2 6 -2 5 -2 6 -1 6 -2 7 0 6 -1 6 0 0 0 6 0 7 1 6 0 6 2 6 1 5 2 6 2 6 2 5 2 5 3 5 3 5 3 5 3 5 4 4 4 4 4 5 4 3 5 4 4 3 5 4 5 3 5 2 5 3 6 2 5 2 6 1 6 2 6 1 6 1 6 0 6 0 6 0 0 0 7 0 6 -1 6 -1 6 -2 6 -1 6 -2 5 -2 6 -3 5 -2 6 -3 5 -4 5 -3 4 -4 5 -3 5 -5 4 -4 4 -4 4 -5 3 -5 4 -5 3 -5 3 -5 3 -5 2 -6 2 -6 2 -5 2 -6 1 -6 1 -6 1 -7 1 -6 0 0 0 -6 0 -6 -1 -7 -1 -6 -1 -6 -1 -5 -2 -6 -2 -6 -2 -5 -2 -5 -3 -5 -3 -5 -3 -5 -4 -5 -3 -4 -4 -4 -4 -4 -4 -4 -5 -4 -5 -3 -4 -4 -5 -3 -5 -2 -6 -3 -5 -2 -6 -2 -5 -1 -6 -2 -6 -1 -6 -1 -6 0 -6 0 -7z"/>
   </g>
   <g>
    <path class="fil1" d="M10803 7668l0 624 -34 0 0 -624 34 0zm-139 0l0 0 0 -7 0 -6 1 -6 1 -6 2 -6 1 -6 2 -5 2 -6 3 -5 2 -6 3 -5 4 -5 3 -5 4 -4 4 -5 4 -4 4 -4 4 -4 5 -3 5 -4 5 -3 5 -3 5 -3 5 -2 6 -2 6 -2 5 -2 6 -1 6 -1 7 -1 6 -1 6 0 0 0 6 0 7 1 6 1 6 1 6 1 5 2 6 2 6 2 5 2 5 3 5 3 5 3 5 4 5 3 4 4 4 4 5 4 3 5 4 4 3 5 4 5 3 5 2 6 3 5 2 6 2 5 1 6 2 6 1 6 1 6 0 6 0 7 0 0 0 6 0 6 -1 6 -1 6 -2 6 -1 6 -2 5 -2 6 -3 5 -2 6 -3 5 -4 5 -3 5 -4 4 -3 5 -5 4 -4 4 -4 4 -5 3 -5 4 -5 3 -5 3 -5 3 -5 2 -6 2 -6 2 -5 2 -6 1 -6 1 -6 1 -7 1 -6 0 0 0 -6 0 -6 -1 -7 -1 -6 -1 -6 -1 -5 -2 -6 -2 -6 -2 -5 -2 -5 -3 -5 -3 -5 -3 -5 -4 -5 -3 -4 -4 -4 -4 -4 -4 -4 -5 -4 -4 -3 -5 -4 -5 -3 -5 -2 -6 -3 -5 -2 -6 -2 -5 -1 -6 -2 -6 -1 -6 -1 -6 0 -6 0 -6z"/>
   </g>
   <g>
    <path class="fil1" d="M10769 6743l0 -400 34 0 0 400 -34 0zm-143 0l0 -30 320 0 0 61 -320 0 0 -31z"/>
   </g>
   <g>
    <path class="fil1" d="M10769 10194l0 -446 34 0 0 446 -34 0zm-143 0l0 -31 320 0 0 61 -320 0 0 -30z"/>
   </g>
   <g>
    <path class="fil1" d="M7995 4320l335 0 0 35 -335 0 -18 -18 18 -17zm0 35l-18 0 0 -18 18 18zm17 -1443l0 1425 -35 0 0 -1425 35 0zm-140 0l0 0 0 -6 1 -6 1 -6 1 -6 1 -6 2 -6 2 -6 2 -5 2 -6 3 -5 3 -5 3 -5 4 -5 3 -5 4 -4 4 -4 4 -4 5 -4 5 -4 4 -3 5 -3 5 -3 6 -3 5 -3 6 -2 5 -2 6 -1 6 -2 6 -1 6 -1 6 0 7 0 0 0 6 0 6 0 6 1 6 1 6 2 6 1 6 2 5 2 6 3 5 3 5 3 5 3 5 3 4 4 5 4 4 4 4 4 4 4 4 5 3 5 3 5 3 5 3 5 2 6 3 5 1 6 2 6 1 6 2 6 0 6 1 6 0 6 0 0 0 6 -1 7 0 6 -2 6 -1 6 -2 5 -1 6 -3 6 -2 5 -3 5 -3 5 -3 5 -3 5 -4 5 -4 4 -4 4 -4 5 -5 3 -4 4 -5 3 -5 4 -5 3 -5 2 -6 3 -5 2 -6 2 -6 2 -6 1 -6 1 -6 1 -6 0 -6 0 0 0 -7 0 -6 0 -6 -1 -6 -1 -6 -1 -6 -2 -5 -2 -6 -2 -5 -3 -6 -2 -5 -3 -5 -4 -4 -3 -5 -4 -5 -3 -4 -5 -4 -4 -4 -4 -3 -5 -4 -5 -3 -5 -3 -5 -3 -5 -2 -5 -2 -6 -2 -6 -2 -5 -1 -6 -1 -6 -1 -6 -1 -7 0 -6z"/>
   </g>
   <g>
    <path class="fil1" d="M7995 7650l335 0 0 35 -335 0 -18 -17 18 -18zm-18 18l0 -18 18 0 -18 18zm0 3200l0 -3200 35 0 0 3200 -35 0zm140 0l0 0 0 6 -1 6 0 6 -2 6 -1 6 -2 6 -1 5 -3 6 -2 5 -3 6 -3 5 -3 5 -3 5 -4 4 -4 5 -4 4 -4 4 -5 4 -4 3 -5 4 -5 3 -5 3 -5 3 -6 2 -5 2 -6 2 -6 2 -6 1 -6 1 -6 1 -6 1 -6 0 0 0 -7 0 -6 -1 -6 -1 -6 -1 -6 -1 -6 -2 -5 -2 -6 -2 -5 -2 -6 -3 -5 -3 -5 -3 -4 -4 -5 -3 -5 -4 -4 -4 -4 -4 -4 -5 -3 -4 -4 -5 -3 -5 -3 -5 -3 -6 -2 -5 -2 -6 -2 -5 -2 -6 -1 -6 -1 -6 -1 -6 -1 -6 0 -6 0 0 0 -7 1 -6 1 -6 1 -6 1 -6 2 -6 2 -5 2 -6 2 -5 3 -6 3 -5 3 -5 4 -5 3 -4 4 -5 4 -4 4 -4 5 -4 5 -3 4 -4 5 -3 5 -3 6 -3 5 -2 6 -2 5 -2 6 -2 6 -1 6 -1 6 -1 6 -1 7 0 0 0 6 0 6 1 6 1 6 1 6 1 6 2 6 2 5 2 6 2 5 3 5 3 5 3 5 4 4 3 5 4 4 4 4 4 4 5 4 4 3 5 3 5 3 5 3 6 2 5 3 6 1 5 2 6 1 6 2 6 0 6 1 6 0 7z"/>
   </g>
   <polyline class="fil0 str0" points="7990,2162 7724,2054 8265,1838 7724,1622 8265,1407 7724,1191 8265,975 7990,867 "/>
   <line class="fil0 str2" x1="7990" y1="2162" x2="7990" y2= "2912" />
   <g>
    <path class="fil1" d="M8007 31l0 836 -34 0 0 -836 34 0zm143 0l0 30 -320 0 0 -61 320 0 0 31z"/>
   </g>
   <line class="fil0 str2" x1="7990" y1="11671" x2="7990" y2= "10868" />
   <g>
    <path class="fil1" d="M7973 13749l0 -783 35 0 0 783 -35 0zm-142 0l0 -31 319 0 0 61 -319 0 0 -30z"/>
   </g>
   <path class="fil1" d="M2258 6267l0 395c0,29 1,49 4,57 2,8 8,15 16,20 8,5 22,8 40,8l11 0 0 12 -254 0 0 -12 13 0c21,0 35,-3 44,-7 9,-5 15,-12 18,-20 3,-8 4,-28 4,-58l0 -251c0,-22 -1,-36 -3,-42 -2,-6 -6,-10 -12,-14 -6,-4 -12,-6 -20,-6 -12,0 -27,4 -44,11l-6 -12 177 -81 12 0z"/>
   <path class="fil1" d="M2204 8810l0 395c0,30 1,49 4,57 2,8 8,15 16,20 8,5 22,8 40,8l11 0 0 12 -254 0 0 -12 13 0c20,0 35,-2 44,-7 9,-5 15,-11 18,-20 3,-8 4,-28 4,-58l0 -251c0,-22 -1,-36 -3,-42 -2,-6 -6,-10 -12,-14 -6,-4 -12,-6 -20,-6 -12,0 -27,4 -44,11l-7 -12 178 -81 12 0z"/>
   <path class="fil1" d="M6424 5618l0 394c0,30 2,49 4,57 3,9 8,15 17,21 8,5 21,7 40,7l11 0 0 13 -254 0 0 -13 12 0c21,0 36,-2 44,-7 9,-4 15,-11 18,-19 3,-9 5,-28 5,-59l0 -250c0,-23 -1,-37 -3,-42 -2,-6 -6,-11 -12,-15 -6,-4 -13,-6 -20,-6 -13,0 -27,4 -45,12l-6 -13 178 -80 11 0z"/>
   <path id="1" class="fil1" d="M6726 5757c-1,-13 -2,-24 -4,-31 -2,-7 -7,-18 -15,-33 -8,-15 -12,-27 -12,-35 0,-11 4,-20 12,-29 8,-8 16,-12 25,-12 11,0 19,4 27,11 7,8 11,18 11,31 0,9 -3,21 -11,35 -7,14 -12,24 -14,31 -2,7 -3,18 -5,32 14,-5 23,-10 29,-14 6,-4 14,-12 25,-24 15,-16 29,-23 43,-23 11,0 19,3 27,10 7,7 10,15 10,24 0,11 -4,20 -13,27 -9,8 -20,12 -34,12 -5,0 -13,0 -25,-1 -6,0 -12,0 -19,0 -9,0 -22,0 -40,1 10,12 18,20 24,24 6,4 16,10 30,17 14,7 24,15 30,23 4,6 7,13 7,22 0,10 -4,19 -11,26 -7,7 -15,10 -25,10 -10,0 -19,-4 -27,-12 -8,-8 -14,-23 -17,-45 -2,-14 -4,-24 -6,-30 -2,-7 -7,-16 -15,-28 -7,12 -13,22 -15,29 -3,7 -5,17 -7,29 -3,22 -9,37 -17,45 -7,8 -17,12 -27,12 -10,0 -18,-4 -25,-10 -7,-7 -11,-15 -11,-24 0,-9 3,-18 8,-25 6,-8 15,-15 30,-23 14,-8 24,-14 30,-18 5,-4 13,-12 24,-22l-38 -1c-7,0 -13,0 -19,0 -14,1 -24,2 -29,2 -14,0 -25,-4 -33,-12 -9,-7 -13,-16 -13,-27 0,-10 4,-18 11,-25 7,-7 15,-10 26,-10 15,0 29,7 43,21 14,14 23,23 27,26 5,4 15,9 28,14z"/>
   <path class="fil1" d="M8727 1518l-42 146c-6,21 -9,37 -9,46 0,9 4,17 11,22 7,6 23,9 46,9l-5 13 -232 0 4 -13c23,0 40,-4 51,-13 11,-10 21,-30 30,-62l89 -309c5,-18 7,-32 7,-42 0,-9 -3,-17 -9,-22 -6,-5 -21,-8 -43,-10l3 -12 200 0c58,0 98,10 121,30 23,20 35,45 35,77 0,32 -14,62 -41,89 -17,16 -48,31 -91,43l43 146c11,40 21,64 30,72 9,8 23,13 43,13l0 13 -150 0 -68 -236 -11 0c-3,0 -7,0 -12,0zm6 -21c8,0 15,0 21,0 34,0 62,-12 84,-35 21,-24 32,-55 32,-94 0,-22 -5,-40 -17,-52 -12,-11 -27,-17 -47,-17 -4,0 -10,0 -16,0l-57 198z"/>
   <path id="1" class="fil1" d="M9202 1424l-47 153c30,-47 53,-79 67,-95 20,-24 38,-40 51,-47 13,-8 27,-11 40,-11 16,0 27,5 34,14 7,9 10,20 10,31 0,12 -3,29 -10,51l-16 57c33,-48 57,-79 71,-95 22,-24 42,-40 58,-49 12,-6 24,-9 37,-9 14,0 25,4 34,14 9,9 13,21 13,36 0,15 -4,35 -11,58l-44 131c-6,19 -9,31 -9,37 0,2 0,4 2,5 2,2 3,3 5,3 3,0 5,-1 7,-3 9,-7 18,-16 27,-30 2,-2 6,-7 10,-12l12 7c-16,30 -34,52 -54,66 -20,14 -38,21 -55,21 -14,0 -26,-4 -35,-11 -9,-8 -13,-18 -13,-28 0,-10 3,-26 10,-47l44 -139c6,-19 9,-31 9,-36 0,-2 -1,-4 -3,-5 -1,-2 -3,-2 -5,-2 -4,0 -7,0 -11,2 -5,2 -13,8 -23,18 -11,10 -26,28 -46,54 -20,26 -34,46 -41,61 -7,14 -13,33 -20,56l-23 74 -90 0 69 -233c3,-12 5,-21 5,-26 0,-1 -1,-3 -2,-4 -2,-2 -3,-2 -5,-2 -9,0 -23,11 -42,34 -29,36 -55,79 -79,129l-30 102 -91 0 69 -229c6,-22 10,-38 10,-48 0,-4 -1,-7 -3,-10 -2,-2 -6,-4 -10,-6 -5,-2 -13,-2 -26,-2l3 -14 125 -21 22 0z"/>
   <path class="fil1" d="M8727 12286l-42 146c-6,21 -9,36 -9,46 0,9 4,17 11,22 7,6 23,9 46,9l-5 13 -232 0 4 -13c23,0 40,-4 51,-14 11,-9 21,-29 30,-61l89 -310c5,-17 7,-31 7,-41 0,-9 -3,-17 -9,-22 -6,-5 -21,-8 -43,-10l3 -12 200 0c58,0 98,10 121,30 23,20 35,45 35,76 0,33 -14,63 -41,90 -17,16 -48,31 -91,43l43 146c11,40 21,64 30,72 9,8 23,12 43,13l0 13 -150 0 -68 -236 -11 0c-3,0 -7,0 -12,0zm6 -22c8,1 15,1 21,1 34,0 62,-12 84,-35 21,-24 32,-55 32,-94 0,-23 -5,-40 -17,-52 -12,-12 -27,-18 -47,-18 -4,0 -10,1 -16,1l-57 197z"/>
   <path id="1" class="fil1" d="M9202 12192l-47 153c30,-47 53,-79 67,-95 20,-24 38,-40 51,-47 13,-8 27,-11 40,-11 16,0 27,4 34,14 7,9 10,20 10,31 0,12 -3,29 -10,51l-16 57c33,-48 57,-79 71,-95 22,-24 42,-41 58,-49 12,-6 24,-9 37,-9 14,0 25,4 34,14 9,9 13,21 13,36 0,15 -4,34 -11,58l-44 130c-6,20 -9,32 -9,38 0,2 0,4 2,5 2,2 3,3 5,3 3,0 5,-1 7,-3 9,-7 18,-17 27,-30 2,-2 6,-7 10,-13l12 8c-16,30 -34,52 -54,66 -20,14 -38,21 -55,21 -14,0 -26,-4 -35,-12 -9,-8 -13,-17 -13,-27 0,-11 3,-26 10,-47l44 -139c6,-20 9,-32 9,-36 0,-2 -1,-4 -3,-5 -1,-2 -3,-3 -5,-3 -4,0 -7,1 -11,3 -5,2 -13,8 -23,18 -11,10 -26,28 -46,54 -20,26 -34,46 -41,61 -7,14 -13,33 -20,56l-23 74 -90 0 69 -233c3,-12 5,-21 5,-26 0,-1 -1,-3 -2,-4 -2,-2 -3,-3 -5,-3 -9,0 -23,12 -42,35 -29,36 -55,79 -79,129l-30 102 -91 0 69 -229c6,-22 10,-38 10,-48 0,-4 -1,-7 -3,-10 -2,-2 -6,-5 -10,-6 -5,-2 -13,-2 -26,-2l3 -14 125 -21 22 0z"/>
   <path class="fil1" d="M568 2014c15,17 27,33 35,49 5,12 14,42 27,90l42 -63c11,-15 24,-29 40,-43 16,-14 30,-23 43,-28 7,-3 16,-5 25,-5 14,0 24,4 33,11 8,7 12,16 12,26 0,12 -3,21 -7,25 -9,8 -20,12 -31,12 -7,0 -14,-2 -22,-4 -15,-5 -25,-8 -30,-8 -8,0 -17,5 -27,14 -20,16 -44,48 -71,95l39 163c6,25 12,40 16,45 4,4 8,7 12,7 7,0 15,-4 24,-11 18,-14 33,-33 45,-56l17 8c-20,37 -46,68 -77,92 -17,14 -32,21 -44,21 -18,0 -32,-10 -42,-29 -7,-13 -21,-66 -41,-160 -49,85 -89,141 -119,165 -19,16 -38,24 -56,24 -12,0 -24,-5 -34,-14 -8,-7 -12,-16 -12,-28 0,-10 4,-19 11,-26 7,-7 15,-11 25,-11 10,0 21,5 32,15 9,8 15,12 19,12 4,0 9,-3 15,-8 15,-12 35,-38 60,-77 26,-39 43,-68 50,-86 -19,-76 -29,-117 -31,-122 -7,-20 -16,-35 -28,-43 -12,-9 -29,-13 -51,-13 -7,0 -15,0 -25,1l0 -18 126 -22z"/>
   <path id="1" class="fil1" d="M1044 2014l-31 109c34,-40 65,-69 92,-85 27,-16 55,-24 83,-24 28,0 52,11 72,33 20,23 30,52 30,87 0,70 -29,140 -85,212 -57,72 -123,108 -198,108 -16,0 -30,-2 -42,-5 -12,-3 -26,-9 -41,-18l-35 122c-7,24 -11,40 -11,47 0,7 2,13 6,18 4,5 9,9 18,12 8,2 24,4 48,4l-4 17 -223 0 5 -17c29,-2 49,-7 59,-16 10,-9 21,-33 33,-73l119 -415c7,-27 11,-43 11,-49 0,-9 -2,-16 -7,-20 -5,-5 -13,-8 -23,-8 -9,0 -22,2 -38,4l0 -19 162 -24zm-109 379c20,23 47,35 80,35 17,0 34,-5 51,-14 17,-9 34,-23 51,-41 16,-18 31,-38 44,-62 13,-24 25,-51 35,-83 11,-32 16,-64 16,-95 0,-25 -6,-45 -18,-58 -11,-13 -25,-20 -41,-20 -35,0 -69,19 -103,59 -34,39 -59,85 -74,138l-41 141z"/>
   <path class="fil1" d="M322 11367c15,17 27,33 35,50 5,11 14,41 27,89l42 -62c11,-15 25,-30 41,-44 15,-13 30,-23 42,-28 7,-3 16,-5 25,-5 14,0 25,4 33,11 8,7 12,16 12,27 0,12 -3,20 -7,24 -9,8 -19,12 -31,12 -7,0 -14,-1 -21,-4 -16,-5 -26,-8 -31,-8 -7,0 -16,5 -27,14 -20,16 -43,48 -71,95l39 163c6,25 12,40 16,45 4,5 8,7 12,7 7,0 15,-3 24,-11 18,-14 33,-33 45,-56l17 8c-20,37 -46,68 -76,92 -18,14 -33,21 -45,21 -18,0 -32,-10 -42,-29 -7,-12 -20,-66 -41,-160 -49,86 -89,141 -119,165 -19,16 -37,24 -55,24 -13,0 -25,-4 -35,-14 -8,-7 -11,-16 -11,-28 0,-10 3,-19 10,-26 7,-7 15,-10 26,-10 10,0 20,5 32,15 8,7 14,11 18,11 4,0 9,-3 15,-8 15,-12 35,-37 60,-77 26,-39 43,-68 50,-85 -19,-77 -29,-118 -31,-122 -7,-21 -16,-35 -28,-44 -11,-9 -28,-13 -51,-13 -7,0 -15,0 -25,1l0 -17 126 -23z"/>
   <path id="1" class="fil1" d="M799 11367l-62 215c63,-88 111,-145 145,-173 33,-28 66,-42 97,-42 16,0 30,6 41,17 11,12 17,27 17,45 0,19 -5,44 -16,76l-65 197c-7,23 -11,37 -11,42 0,4 1,8 3,11 3,2 5,4 8,4 3,0 7,-2 12,-6 15,-13 31,-33 48,-60l15 9c-28,41 -54,71 -79,88 -18,11 -33,17 -47,17 -11,0 -20,-3 -27,-10 -6,-7 -10,-17 -10,-29 0,-15 7,-41 19,-78l63 -190c8,-23 12,-42 12,-55 0,-6 -3,-11 -7,-15 -4,-4 -10,-6 -16,-6 -10,0 -22,3 -35,11 -25,14 -52,38 -79,70 -28,33 -57,74 -87,125 -16,27 -30,56 -40,88l-23 78 -71 0 86 -298c10,-35 15,-56 15,-63 0,-7 -3,-13 -8,-18 -6,-5 -13,-8 -21,-8 -3,0 -10,1 -19,2l-18 3 -4 -18 164 -29z"/>
   <path class="fil1" d="M261 4341c11,18 18,35 22,51 4,16 8,48 12,94l21 233c19,-22 47,-58 83,-108 18,-24 39,-56 65,-98 16,-25 25,-43 28,-53 2,-5 3,-10 3,-15 0,-4 -1,-7 -3,-9 -2,-2 -8,-5 -17,-8 -10,-3 -17,-8 -23,-16 -7,-8 -10,-18 -10,-28 0,-13 4,-23 12,-31 7,-8 17,-12 28,-12 14,0 26,6 36,17 10,12 15,28 15,48 0,25 -9,53 -26,85 -17,33 -50,82 -99,148 -49,66 -108,139 -177,217 -48,54 -83,89 -106,103 -23,14 -43,21 -59,21 -10,0 -19,-4 -26,-11 -8,-8 -11,-16 -11,-26 0,-12 5,-24 15,-34 10,-10 21,-15 33,-15 7,0 12,2 16,4 3,2 5,7 8,14 3,7 6,12 9,15 1,1 3,2 5,2 2,0 5,-1 10,-5 18,-10 38,-28 61,-51 30,-31 52,-57 67,-78l-27 -299c-4,-50 -11,-80 -19,-91 -9,-10 -24,-16 -45,-16 -6,0 -18,1 -35,3l-4 -17 138 -34z"/>
   <path id="1" class="fil1" d="M751 4341l-31 109c34,-41 65,-69 92,-85 27,-16 54,-24 83,-24 28,0 52,11 72,33 20,23 30,51 30,87 0,69 -29,140 -85,212 -57,72 -123,108 -198,108 -16,0 -30,-2 -42,-5 -12,-4 -26,-10 -41,-18l-35 122c-7,24 -11,40 -11,47 0,7 2,13 6,18 3,5 9,8 17,11 9,3 25,4 49,4l-4 18 -223 0 5 -18c29,-1 49,-6 59,-15 10,-9 21,-33 32,-74l120 -415c7,-26 11,-42 11,-49 0,-8 -2,-15 -7,-20 -5,-4 -13,-7 -23,-7 -9,0 -22,1 -38,4l0 -19 162 -24zm-109 378c20,24 46,35 80,35 17,0 34,-4 51,-13 17,-9 34,-23 51,-41 16,-18 31,-39 44,-62 13,-24 25,-52 35,-83 11,-32 16,-64 16,-95 0,-25 -6,-45 -18,-58 -12,-14 -25,-20 -41,-20 -35,0 -69,19 -104,59 -34,39 -58,85 -73,137l-41 141z"/>
   <path class="fil1" d="M232 8915c11,19 18,36 22,52 4,16 9,47 13,94l20 233c19,-23 47,-59 83,-108 18,-24 39,-57 65,-98 16,-25 25,-43 29,-53 2,-5 3,-10 3,-16 0,-3 -1,-6 -4,-8 -2,-2 -8,-5 -17,-8 -9,-3 -17,-9 -23,-17 -6,-8 -9,-17 -9,-27 0,-13 3,-24 11,-32 8,-8 17,-12 29,-12 13,0 25,6 35,18 10,11 15,27 15,47 0,25 -9,54 -26,86 -17,32 -50,81 -99,148 -49,66 -108,139 -177,217 -48,54 -83,88 -106,102 -23,14 -43,21 -59,21 -10,0 -18,-3 -26,-11 -7,-7 -11,-16 -11,-26 0,-12 5,-23 15,-33 11,-10 22,-15 34,-15 6,0 11,1 15,4 3,2 6,6 9,14 3,7 5,12 8,14 2,2 3,3 6,3 2,0 5,-2 10,-5 17,-11 37,-28 60,-52 30,-31 52,-57 67,-77l-26 -300c-5,-49 -11,-79 -20,-90 -9,-11 -24,-16 -44,-16 -7,0 -19,1 -36,3l-4 -18 138 -34z"/>
   <path id="1" class="fil1" d="M723 8915l-62 215c63,-88 111,-145 145,-173 33,-28 66,-42 97,-42 16,0 30,6 41,18 11,11 17,26 17,44 0,19 -5,44 -16,76l-65 197c-7,23 -11,37 -11,42 0,4 1,8 4,11 2,3 4,4 7,4 3,0 7,-2 12,-6 15,-13 31,-33 48,-60l15 9c-28,41 -54,71 -79,88 -18,11 -33,17 -47,17 -11,0 -20,-3 -27,-10 -6,-7 -10,-17 -10,-28 0,-15 7,-41 19,-78l63 -190c8,-24 12,-43 12,-56 0,-6 -2,-11 -7,-15 -4,-4 -10,-6 -16,-6 -10,0 -22,4 -35,11 -25,14 -52,38 -79,70 -28,33 -57,75 -87,125 -16,27 -30,56 -40,88l-23 79 -71 0 86 -298c10,-36 15,-57 15,-64 0,-7 -3,-13 -8,-18 -6,-5 -13,-8 -21,-8 -3,0 -10,1 -19,2l-18 3 -4 -17 164 -30z"/>
   <path class="fil1" d="M12728 4680l33 355c55,-65 99,-125 132,-182 19,-33 29,-57 29,-71 0,-7 -2,-13 -5,-19 -1,-3 -6,-7 -15,-12 -8,-6 -14,-12 -17,-17 -4,-6 -5,-13 -5,-19 0,-10 3,-18 10,-25 7,-7 17,-10 28,-10 13,0 24,5 33,14 8,10 13,23 13,39 0,16 -2,32 -7,46 -10,27 -28,62 -56,105 -33,51 -68,99 -103,143 -36,44 -62,75 -80,93l-17 0 -31 -328 -196 328 -21 0c-2,-135 -9,-241 -20,-319 -5,-32 -13,-54 -24,-64 -8,-7 -20,-11 -36,-11 -9,0 -21,1 -35,3l0 -17 136 -32c19,52 31,133 37,242 2,41 3,67 4,77l196 -319 17 0z"/>
   <path id="1" class="fil1" d="M13183 4680l-32 109c35,-41 65,-69 92,-85 27,-16 55,-24 83,-24 28,0 52,11 72,33 20,23 30,51 30,87 0,69 -28,140 -85,212 -56,72 -122,108 -198,108 -15,0 -29,-2 -42,-5 -12,-4 -25,-10 -40,-18l-36 122c-7,24 -10,40 -10,47 0,7 2,13 5,18 4,5 10,8 18,11 8,3 25,4 49,4l-4 18 -224 0 5 -18c30,-1 49,-6 60,-15 10,-9 21,-33 32,-74l120 -415c7,-26 11,-42 11,-49 0,-8 -3,-15 -8,-20 -5,-4 -12,-7 -22,-7 -9,0 -22,1 -39,4l0 -19 163 -24zm-109 378c19,24 46,35 80,35 16,0 33,-4 50,-13 18,-9 35,-23 51,-41 17,-18 31,-39 45,-62 13,-24 24,-52 35,-83 10,-32 15,-64 15,-95 0,-25 -5,-45 -17,-58 -12,-14 -26,-20 -42,-20 -34,0 -69,19 -103,59 -34,39 -59,85 -74,137l-40 141z"/>
   <path class="fil1" d="M12517 8302l33 354c55,-64 99,-124 132,-181 19,-33 28,-57 28,-72 0,-7 -1,-13 -4,-18 -1,-3 -6,-7 -15,-13 -8,-5 -14,-11 -18,-17 -3,-6 -5,-12 -5,-19 0,-9 4,-17 11,-24 7,-7 16,-10 28,-10 12,0 23,4 32,14 9,10 14,22 14,39 0,16 -3,31 -7,45 -10,28 -28,63 -56,106 -33,51 -68,99 -104,143 -35,44 -62,75 -79,92l-17 0 -32 -327 -195 327 -21 0c-2,-134 -9,-240 -20,-318 -5,-33 -13,-54 -24,-64 -8,-7 -20,-11 -36,-11 -10,0 -21,1 -36,3l0 -17 136 -32c19,52 32,133 37,241 2,41 4,67 5,78l195 -319 18 0z"/>
   <path id="1" class="fil1" d="M12972 8302l-62 214c63,-88 111,-145 145,-173 33,-28 65,-41 97,-41 16,0 30,5 41,17 11,11 17,26 17,44 0,19 -5,44 -16,76l-65 197c-7,23 -11,37 -11,42 0,4 1,8 3,11 3,3 5,4 8,4 3,0 7,-2 12,-6 15,-13 31,-33 48,-60l15 9c-28,41 -54,71 -79,88 -18,11 -33,17 -47,17 -11,0 -20,-3 -27,-10 -6,-7 -10,-17 -10,-28 0,-15 6,-41 19,-78l63 -190c8,-24 12,-43 12,-56 0,-6 -3,-11 -7,-15 -4,-4 -10,-6 -16,-6 -10,0 -22,4 -35,11 -25,14 -52,38 -79,70 -28,33 -57,75 -87,125 -16,27 -30,56 -41,88l-22 79 -71 0 86 -298c10,-36 15,-57 15,-64 0,-7 -3,-13 -8,-18 -6,-5 -13,-8 -21,-8 -3,0 -10,1 -19,2l-18 3 -4 -17 164 -29z"/>
   <path class="fil1" d="M12221 2107l302 0 0 11 -328 343 140 0c32,0 53,-1 62,-4 9,-2 17,-8 24,-16 8,-8 16,-23 25,-44l18 0 -42 128 -309 0 0 -13 328 -343 -137 0c-29,0 -46,1 -52,2 -9,2 -18,7 -27,15 -8,8 -17,21 -26,40l-18 0 40 -119z"/>
   <path id="1" class="fil1" d="M12732 2096l-31 109c34,-41 65,-69 92,-85 27,-16 54,-24 82,-24 29,0 53,11 72,33 20,23 30,52 30,87 0,70 -28,140 -85,212 -56,72 -122,108 -197,108 -16,0 -30,-2 -42,-5 -12,-4 -26,-10 -41,-18l-35 122c-7,24 -11,40 -11,47 0,7 2,13 6,18 3,5 9,9 17,11 9,3 25,4 49,4l-4 18 -223 0 4 -18c30,-1 50,-6 60,-15 10,-9 21,-33 32,-73l120 -416c7,-26 11,-42 11,-49 0,-8 -3,-15 -8,-19 -4,-5 -12,-8 -22,-8 -9,0 -22,1 -38,4l0 -19 162 -24zm-109 379c20,23 46,35 80,35 17,0 34,-5 51,-14 17,-9 34,-23 50,-41 17,-18 32,-39 45,-62 13,-24 25,-51 35,-83 11,-32 16,-64 16,-95 0,-25 -6,-45 -18,-58 -12,-14 -25,-20 -41,-20 -35,0 -70,19 -104,59 -34,39 -58,85 -74,138l-40 141z"/>
   <path class="fil1" d="M12390 11415l301 0 0 12 -328 343 140 0c33,0 53,-2 62,-4 9,-3 17,-8 25,-16 7,-8 15,-23 24,-44l18 0 -41 128 -310 0 0 -14 329 -343 -137 0c-29,0 -47,1 -53,3 -9,2 -18,7 -26,15 -9,8 -18,21 -27,40l-18 0 41 -120z"/>
   <path id="1" class="fil1" d="M12900 11405l-61 214c63,-88 111,-145 144,-173 34,-28 66,-41 97,-41 17,0 31,5 42,17 11,11 16,26 16,45 0,18 -5,43 -15,75l-65 198c-7,22 -11,36 -11,41 0,4 1,8 3,11 2,3 5,4 7,4 4,0 8,-2 13,-6 14,-13 31,-33 48,-60l15 9c-28,41 -54,71 -79,88 -18,12 -33,17 -47,17 -11,0 -20,-3 -27,-10 -7,-7 -10,-16 -10,-28 0,-15 6,-41 19,-78l63 -190c8,-24 12,-43 12,-56 0,-6 -3,-11 -7,-15 -5,-4 -10,-6 -17,-6 -9,0 -21,4 -34,11 -25,14 -52,38 -79,70 -28,33 -57,75 -87,126 -17,26 -30,56 -41,87l-22 79 -71 0 86 -298c10,-35 15,-57 15,-64 0,-7 -3,-13 -9,-18 -5,-5 -12,-8 -20,-8 -4,0 -10,1 -19,2l-18 3 -5 -17 164 -29z"/>
  </g>
 </g>
</svg>
