<?xml version="1.0" encoding="UTF-8"?>
<!DOCTYPE svg PUBLIC "-//W3C//DTD SVG 1.1//EN" "http://www.w3.org/Graphics/SVG/1.1/DTD/svg11.dtd">
<!-- Creator: CorelDRAW Home & Student X8 -->
<svg xmlns="http://www.w3.org/2000/svg" xml:space="preserve" width="117.399mm" height="44.7081mm" version="1.1" style="shape-rendering:geometricPrecision; text-rendering:geometricPrecision; image-rendering:optimizeQuality; fill-rule:evenodd; clip-rule:evenodd"
viewBox="0 0 6563 2499"
 xmlns:xlink="http://www.w3.org/1999/xlink">
 <defs>
  <style type="text/css">
   <![CDATA[
    .str0 {stroke:#2B2A29;stroke-width:16.7713}
    .str1 {stroke:#2B2A29;stroke-width:11.1809}
    .fil0 {fill:none}
    .fil1 {fill:#2B2A29;fill-rule:nonzero}
   ]]>
  </style>
 </defs>
 <g id="Warstwa_x0020_1">
  <metadata id="CorelCorpID_0Corel-Layer"/>
  <g id="_734493792">
   <g>
    <rect class="fil0 str0" transform="matrix(-0.725072 -0.725072 0.725072 -0.725072 774.87 1359.74)" width="426" height="426"/>
    <g>
     <polygon class="fil1" points="851,922 782,922 782,991 763,991 763,922 693,922 693,903 763,903 763,834 782,834 782,903 851,903 "/>
     <polygon class="fil1" points="849,1227 696,1227 696,1210 849,1210 "/>
    </g>
   </g>
   <g>
    <rect class="fil0 str0" transform="matrix(-0.725072 -0.725072 0.725072 -0.725072 1384.79 1794.75)" width="426" height="426"/>
    <g>
     <polygon class="fil1" points="1461,1357 1391,1357 1391,1426 1373,1426 1373,1357 1303,1357 1303,1338 1373,1338 1373,1269 1391,1269 1391,1338 1461,1338 "/>
     <polygon class="fil1" points="1459,1662 1306,1662 1306,1645 1459,1645 "/>
    </g>
   </g>
   <g>
    <path class="fil1" d="M776 584l4 157 -11 1 -4 -158 5 -5 6 5zm-11 0l0 -5 5 0 -5 5zm1110 6l-1105 0 0 -11 1105 0 0 11zm27 -46l0 20 0 0 -1 0 -1 0 -1 1 -1 0 -1 0 -1 0 -1 0 0 1 -1 0 -1 1 -1 0 -1 1 -1 0 0 1 -1 0 -1 1 0 1 -1 1 -1 0 0 1 -1 1 0 1 -1 1 0 0 0 1 -1 1 0 1 0 1 0 1 -1 1 0 1 0 1 -20 0 1 -2 0 -2 0 -2 0 -2 1 -2 0 -2 1 -2 1 -1 0 -2 1 -2 1 -1 1 -2 1 -2 2 -1 1 -2 1 -1 2 -1 1 -2 1 -1 2 -1 2 -1 1 -1 2 -1 2 0 2 -1 1 -1 2 0 2 -1 2 0 2 0 2 -1 2 0 0 0zm40 40l-20 0 0 0 0 -1 0 -1 0 -1 0 -1 -1 -1 0 -1 0 -1 0 -1 -1 0 0 -1 -1 -1 0 -1 -1 -1 0 0 -1 -1 -1 -1 0 -1 -1 0 -1 -1 -1 0 0 -1 -1 0 -1 -1 -1 0 -1 -1 -1 0 -1 0 -1 0 -1 0 -1 -1 -1 0 -1 0 0 -20 2 0 2 1 2 0 2 0 2 1 2 0 2 1 2 1 1 0 2 1 2 1 1 1 2 1 2 1 1 2 1 1 2 1 1 2 1 1 1 2 1 2 1 1 1 2 1 2 1 1 0 2 1 2 0 2 1 2 0 2 0 2 0 2 0 0zm-40 40l0 -20 0 0 1 0 1 0 1 0 1 0 1 -1 1 0 1 0 1 -1 1 0 1 0 1 -1 0 0 1 -1 1 0 1 -1 0 -1 1 0 1 -1 0 -1 1 -1 0 -1 1 0 0 -1 1 -1 0 -1 0 -1 0 -1 1 -1 0 -1 0 -1 0 -1 0 -1 20 0 0 2 0 2 0 2 -1 2 0 2 -1 2 0 2 -1 2 -1 1 -1 2 -1 2 -1 1 -1 2 -1 1 -1 2 -2 1 -1 2 -1 1 -2 1 -2 1 -1 1 -2 1 -2 1 -1 1 -2 1 -2 0 -2 1 -2 0 -2 0 -2 1 -2 0 -2 0 0 0zm-40 -40l20 0 0 1 0 1 1 1 0 1 0 1 0 1 1 1 0 1 0 1 1 1 0 0 1 1 0 1 1 1 1 1 0 0 1 1 1 1 0 0 1 1 1 0 1 1 1 0 1 0 0 1 1 0 1 0 1 1 1 0 1 0 1 0 1 0 0 20 -2 0 -2 0 -2 -1 -2 0 -2 0 -2 -1 -1 0 -2 -1 -2 -1 -2 -1 -1 -1 -2 -1 -2 -1 -1 -1 -1 -1 -2 -2 -1 -1 -1 -2 -2 -1 -1 -2 -1 -1 -1 -2 -1 -2 0 -1 -1 -2 -1 -2 0 -2 -1 -2 0 -2 0 -2 0 -2 -1 -2z"/>
   </g>
   <g>
    <path class="fil1" d="M769 1922l0 -562 11 0 0 562 -5 5 -6 -5zm6 5l-6 0 0 -5 6 5zm1081 0l-1081 0 0 -11 1081 0 0 11zm28 -45l0 20 0 0 -1 0 -2 0 0 0 -1 0 -1 1 -1 0 -1 0 -1 1 -1 0 -1 0 -1 1 -1 0 0 1 -1 0 -1 1 -1 1 0 0 -1 1 0 1 -1 1 0 1 -1 0 0 1 -1 1 0 1 0 1 -1 1 0 1 0 1 0 1 0 1 0 1 -20 0 0 -2 0 -2 0 -2 1 -2 0 -2 1 -2 0 -2 1 -2 1 -1 1 -2 1 -2 1 -1 1 -2 1 -1 1 -2 1 -1 2 -2 1 -1 2 -1 1 -1 2 -1 2 -1 1 -1 2 -1 2 -1 2 0 2 -1 2 0 2 0 1 -1 2 0 3 0 0 0zm39 40l-20 0 0 0 0 -1 0 -1 0 -1 0 -1 0 -1 0 -1 -1 -1 0 -1 -1 -1 0 -1 0 0 -1 -1 -1 -1 0 -1 -1 -1 0 0 -1 -1 -1 -1 -1 0 0 -1 -1 0 -1 -1 -1 0 -1 0 -1 -1 -1 0 -1 0 0 -1 -1 0 -1 0 -1 0 -1 0 0 -20 2 0 2 0 2 1 2 0 1 0 2 1 2 0 2 1 2 1 1 1 2 1 2 1 1 1 2 1 1 1 2 2 1 1 1 2 1 1 1 2 2 1 0 2 1 2 1 1 1 2 0 2 1 2 0 2 1 2 0 2 0 2 0 2 0 0zm-39 40l0 -20 0 0 1 0 1 0 1 -1 1 0 0 0 1 0 1 0 1 -1 1 0 1 -1 1 0 1 -1 0 0 1 -1 1 0 1 -1 0 -1 1 -1 0 0 1 -1 1 -1 0 -1 0 -1 1 0 0 -1 1 -1 0 -1 0 -1 0 -1 0 -1 0 -1 0 -1 20 0 0 2 0 2 0 2 -1 2 0 2 -1 2 0 2 -1 1 -1 2 -1 2 0 1 -2 2 -1 2 -1 1 -1 2 -1 1 -2 1 -1 2 -2 1 -1 1 -2 1 -2 1 -1 1 -2 0 -2 1 -2 1 -2 0 -1 1 -2 0 -2 0 -2 1 -2 0 0 0zm-40 -40l20 0 0 1 0 1 0 1 0 1 0 1 1 1 0 1 0 1 1 0 0 1 1 1 0 1 1 1 0 0 1 1 0 1 1 1 1 0 1 1 0 0 1 1 1 0 1 1 1 0 1 1 1 0 1 0 1 0 1 0 0 1 2 0 1 0 0 20 -3 0 -2 -1 -1 0 -2 0 -2 -1 -2 0 -2 -1 -2 -1 -2 0 -1 -1 -2 -1 -2 -1 -1 -1 -2 -1 -1 -2 -2 -1 -1 -1 -1 -2 -1 -1 -1 -2 -1 -2 -1 -1 -1 -2 -1 -2 -1 -1 0 -2 -1 -2 0 -2 -1 -2 0 -2 0 -2 0 -2z"/>
   </g>
   <g>
    <path class="fil1" d="M1379 1922l0 -127 11 0 0 127 -11 0zm46 0l0 0 -1 2 0 2 0 2 0 2 -1 2 0 2 -1 1 -1 2 0 2 -1 2 -1 1 -1 2 -1 2 -2 1 -1 2 -1 1 -2 1 -1 1 -1 2 -2 1 -2 1 -1 1 -2 1 -2 0 -2 1 -1 1 -2 0 -2 1 -2 0 -2 0 -2 1 -2 0 0 0 -2 0 -2 -1 -2 0 -2 0 -2 -1 -2 0 -2 -1 -2 -1 -1 0 -2 -1 -2 -1 -1 -1 -2 -1 -1 -2 -2 -1 -1 -1 -2 -1 -1 -2 -1 -1 -1 -2 -1 -2 -1 -1 -1 -2 -1 -2 -1 -2 0 -1 -1 -2 0 -2 -1 -2 0 -2 0 -2 0 -2 0 0 0 -2 0 -2 0 -2 1 -2 0 -2 1 -2 0 -2 1 -2 1 -1 1 -2 1 -2 1 -1 1 -2 1 -1 1 -2 2 -1 1 -2 2 -1 1 -1 2 -1 1 -1 2 -1 2 -1 1 -1 2 -1 2 0 2 -1 2 0 2 0 2 -1 2 0 2 0 0 0 2 0 2 0 2 1 2 0 2 0 2 1 1 0 2 1 2 1 2 1 1 1 2 1 2 1 1 1 1 1 2 2 1 1 1 2 2 1 1 2 1 1 1 2 1 2 0 1 1 2 1 2 0 2 1 2 0 2 0 2 0 2 1 2z"/>
   </g>
   <g>
    <path class="fil1" d="M1390 1055l0 122 -11 0 0 -122 6 -5 5 5zm-11 0l0 -5 6 0 -6 5zm333 6l-327 0 0 -11 327 0 6 5 -6 6zm0 -11l6 0 0 5 -6 -5zm-5 200l0 -195 11 0 0 195 -6 5 -5 -5zm5 5l-5 0 0 -5 5 5zm1703 0l-1703 0 0 -11 1703 0 0 11zm0 -45l0 0 2 0 2 0 2 0 2 1 2 0 1 1 2 0 2 1 2 1 2 1 1 1 2 1 1 1 2 1 1 1 2 2 1 1 1 1 1 2 2 1 1 2 1 2 0 1 1 2 1 2 1 2 0 2 1 2 0 2 0 2 0 2 0 2 0 0 0 2 0 2 0 2 0 2 -1 2 0 1 -1 2 -1 2 -1 2 0 2 -1 1 -1 2 -2 1 -1 2 -1 1 -1 2 -2 1 -1 1 -2 1 -1 2 -2 1 -1 1 -2 0 -2 1 -2 1 -2 1 -1 0 -2 1 -2 0 -2 0 -2 0 -2 0 0 0 -2 0 -2 0 -2 0 -2 0 -2 -1 -2 0 -2 -1 -2 -1 -2 -1 -1 0 -2 -1 -2 -1 -1 -2 -2 -1 -1 -1 -1 -1 -2 -2 -1 -1 -1 -2 -1 -1 -1 -2 -1 -1 -1 -2 -1 -2 -1 -2 0 -2 -1 -1 0 -2 -1 -2 0 -2 0 -2 0 -2 0 0 0 -2 0 -2 0 -2 1 -2 0 -2 1 -2 0 -2 1 -2 1 -2 1 -1 1 -2 1 -2 1 -1 1 -2 1 -1 2 -1 1 -2 1 -1 2 -1 1 -1 2 -1 2 -1 1 -1 2 -1 2 -1 2 0 2 -1 2 0 2 -1 2 0 2 0 2 0z"/>
   </g>
   <g>
    <path class="fil1" d="M480 617l0 -60 60 0 0 60 -60 0zm-381 -35l411 0 0 11 -411 0 0 -11zm-28 45l0 -20 0 0 1 0 1 0 1 0 1 0 1 -1 1 0 1 0 1 -1 1 0 1 0 0 -1 1 0 1 -1 1 -1 0 0 1 -1 1 -1 0 0 1 -1 1 -1 0 -1 1 0 0 -1 0 -1 1 -1 0 -1 0 -1 1 -1 0 -1 0 -1 0 -1 0 -1 20 0 0 2 0 2 -1 2 0 2 0 2 -1 2 -1 2 0 2 -1 1 -1 2 -1 2 -1 1 -1 2 -1 1 -1 2 -2 1 -1 2 -2 1 -1 1 -2 1 -1 1 -2 1 -2 1 -1 1 -2 0 -2 1 -2 1 -2 0 -2 0 -2 1 -2 0 -2 0 0 0zm-40 -40l20 0 0 0 0 1 0 1 0 1 1 1 0 1 0 1 0 1 1 1 0 1 1 1 0 0 1 1 0 1 1 1 0 0 1 1 1 1 0 0 1 1 1 1 1 0 1 1 1 0 0 0 1 1 1 0 1 0 1 1 1 0 1 0 1 0 1 0 0 20 -2 0 -2 0 -2 -1 -2 0 -2 0 -2 -1 -2 -1 -1 0 -2 -1 -2 -1 -1 -1 -2 -1 -2 -1 -1 -1 -2 -1 -1 -2 -1 -1 -2 -2 -1 -1 -1 -2 -1 -1 -1 -2 -1 -2 -1 -1 0 -2 -1 -2 0 -2 -1 -2 0 -2 0 -2 -1 -2 0 -2 0 0zm40 -40l0 20 0 0 -1 0 -1 0 -1 0 -1 1 -1 0 -1 0 -1 0 -1 1 0 0 -1 1 -1 0 -1 1 -1 0 -1 1 0 0 -1 1 -1 1 0 0 -1 1 0 1 -1 1 0 1 -1 1 0 0 -1 1 0 1 0 1 0 1 -1 1 0 1 0 1 0 1 -20 0 0 -2 1 -2 0 -2 0 -2 1 -2 0 -2 1 -2 0 -1 1 -2 1 -2 1 -2 1 -1 1 -2 1 -1 2 -2 1 -1 1 -1 2 -2 1 -1 2 -1 2 -1 1 -1 2 -1 2 -1 1 0 2 -1 2 0 2 -1 2 0 2 0 2 -1 2 0 0 0zm40 40l-20 0 0 -1 0 -1 0 -1 0 -1 -1 -1 0 -1 0 -1 -1 -1 0 0 0 -1 -1 -1 0 -1 -1 -1 -1 -1 0 0 -1 -1 -1 -1 0 0 -1 -1 -1 0 -1 -1 0 0 -1 -1 -1 0 -1 -1 -1 0 -1 0 -1 0 -1 -1 -1 0 -1 0 -1 0 0 -20 2 0 2 1 2 0 2 0 2 1 2 0 2 1 2 0 1 1 2 1 2 1 1 1 2 1 1 1 2 2 1 1 2 1 1 2 1 1 1 2 1 1 1 2 1 2 1 2 0 1 1 2 1 2 0 2 0 2 1 2 0 2 0 2z"/>
   </g>
   <g>
    <path class="fil1" d="M480 1949l0 -60 60 0 0 60 -60 0zm-381 -36l411 0 0 12 -411 0 0 -12zm-28 46l0 -20 0 0 1 0 1 0 1 0 1 -1 1 0 1 0 1 0 1 -1 1 0 1 -1 0 0 1 -1 1 0 1 -1 0 0 1 -1 1 -1 0 0 1 -1 1 -1 0 -1 1 -1 0 0 0 -1 1 -1 0 -1 0 -1 1 -1 0 -1 0 -1 0 -1 0 -1 20 0 0 2 0 2 -1 2 0 2 0 2 -1 2 -1 2 0 1 -1 2 -1 2 -1 2 -1 1 -1 2 -1 1 -1 2 -2 1 -1 1 -2 2 -1 1 -2 1 -1 1 -2 1 -2 1 -1 1 -2 0 -2 1 -2 0 -2 1 -2 0 -2 0 -2 1 -2 0 0 0zm-40 -40l20 0 0 0 0 1 0 1 0 1 1 1 0 1 0 1 0 1 1 1 0 1 1 0 0 1 1 1 0 1 1 1 0 0 1 1 1 1 0 0 1 1 1 0 1 1 1 0 1 1 0 0 1 1 1 0 1 0 1 0 1 1 1 0 1 0 1 0 0 20 -2 0 -2 -1 -2 0 -2 0 -2 -1 -2 0 -2 -1 -1 0 -2 -1 -2 -1 -1 -1 -2 -1 -2 -1 -1 -1 -2 -2 -1 -1 -1 -1 -2 -2 -1 -1 -1 -2 -1 -1 -1 -2 -1 -2 -1 -2 0 -1 -1 -2 0 -2 -1 -2 0 -2 0 -2 -1 -2 0 -2 0 0zm40 -40l0 20 0 0 -1 0 -1 0 -1 0 -1 0 -1 1 -1 0 -1 0 -1 1 0 0 -1 0 -1 1 -1 0 -1 1 -1 1 0 0 -1 1 -1 1 0 0 -1 1 0 1 -1 1 0 0 -1 1 0 1 -1 1 0 1 0 1 0 1 -1 1 0 1 0 1 0 1 -20 0 0 -2 1 -2 0 -2 0 -2 1 -2 0 -2 1 -2 0 -2 1 -1 1 -2 1 -2 1 -1 1 -2 1 -1 2 -2 1 -1 1 -2 2 -1 1 -1 2 -1 2 -1 1 -1 2 -1 2 -1 1 0 2 -1 2 -1 2 0 2 0 2 -1 2 0 2 0 0 0zm40 40l-20 0 0 -1 0 -1 0 -1 0 -1 -1 -1 0 -1 0 -1 -1 -1 0 -1 0 -1 -1 0 0 -1 -1 -1 -1 -1 0 0 -1 -1 -1 -1 0 0 -1 -1 -1 -1 -1 0 0 -1 -1 0 -1 0 -1 -1 -1 0 -1 0 -1 -1 -1 0 -1 0 -1 0 -1 0 0 -20 2 0 2 0 2 1 2 0 2 0 2 1 2 1 2 0 1 1 2 1 2 1 1 1 2 1 1 1 2 1 1 2 2 1 1 2 1 1 1 2 1 1 1 2 1 2 1 1 0 2 1 2 1 2 0 2 0 2 1 2 0 2 0 2z"/>
   </g>
   <g>
    <g>
     <path class="fil1" d="M3423 1032l-17 0 -51 -78 17 -11 51 79 -17 0 17 10zm0 0l-8 13 -9 -13 17 0zm43 -84l8 6 -51 78 -17 -10 51 -79 9 5zm-43 -194l0 257 -17 0 0 -257 17 0z"/>
    </g>
    <rect class="fil0 str0" transform="matrix(0.725072 0.725072 -0.725072 0.725072 3414.64 587.114)" width="426" height="426"/>
   </g>
   <g>
    <g>
     <path class="fil1" d="M3406 1474l17 0 51 78 -17 11 -51 -78 17 0 -17 -11zm0 0l9 -13 8 13 -17 0zm-42 84l-9 -6 51 -78 17 11 -51 78 -8 -5zm42 194l0 -257 17 0 0 257 -17 0z"/>
    </g>
    <rect class="fil0 str0" transform="matrix(-0.725072 -0.725072 0.725072 -0.725072 3414.64 1918.95)" width="426" height="426"/>
   </g>
   <line class="fil0 str1" x1="3415" y1="1205" x2="3415" y2= "1307" />
   <g>
    <path class="fil1" d="M4310 593l-889 0 0 -11 889 0 0 11zm28 -46l0 20 0 0 -1 0 -1 0 -1 0 -1 1 -1 0 -1 0 -1 0 -1 1 -1 0 -1 1 -1 0 0 1 -1 0 -1 1 -1 0 0 1 -1 1 -1 0 0 1 -1 1 0 1 -1 1 0 1 -1 0 0 1 0 1 0 1 -1 1 0 1 0 1 0 1 0 1 -20 0 0 -2 0 -2 0 -2 1 -2 0 -2 1 -2 0 -2 1 -1 1 -2 1 -2 1 -2 1 -1 1 -2 1 -1 1 -2 2 -1 1 -1 2 -2 1 -1 2 -1 1 -1 2 -1 2 -1 1 -1 2 0 2 -1 2 0 2 -1 2 0 2 0 2 -1 2 0 0 0zm40 40l-20 0 0 0 0 -1 0 -1 -1 -1 0 -1 0 -1 0 -1 -1 -1 0 -1 0 0 -1 -1 0 -1 -1 -1 0 -1 -1 -1 -1 0 0 -1 -1 -1 -1 0 0 -1 -1 0 -1 -1 -1 0 -1 -1 -1 0 0 -1 -1 0 -1 0 -1 0 -1 -1 -1 0 -1 0 -1 0 0 -20 2 0 2 1 2 0 2 0 2 1 2 0 1 1 2 0 2 1 2 1 1 1 2 1 2 1 1 1 1 2 2 1 1 1 1 2 2 1 1 2 1 1 1 2 1 2 0 2 1 1 1 2 0 2 1 2 0 2 0 2 0 2 1 2 0 0zm-40 40l0 -20 0 0 1 0 1 0 1 0 1 0 1 -1 1 0 1 0 0 -1 1 0 1 0 1 -1 1 0 1 -1 0 -1 1 0 1 -1 0 -1 1 0 1 -1 0 -1 1 -1 0 0 1 -1 0 -1 0 -1 1 -1 0 -1 0 -1 0 -1 1 -1 0 -1 0 -1 20 0 -1 2 0 2 0 2 0 2 -1 2 0 2 -1 2 -1 2 0 1 -1 2 -1 2 -1 1 -1 2 -2 1 -1 2 -1 1 -2 2 -1 1 -1 1 -2 1 -2 1 -1 1 -2 1 -2 1 -2 0 -1 1 -2 1 -2 0 -2 0 -2 1 -2 0 -2 0 0 0zm-40 -40l20 0 0 1 0 1 0 1 0 1 1 1 0 1 0 1 0 1 1 1 0 1 1 0 0 1 1 1 0 1 1 0 1 1 0 1 1 0 1 1 1 1 0 0 1 1 1 0 1 0 1 1 1 0 1 0 1 1 1 0 1 0 1 0 1 0 0 20 -2 0 -2 0 -2 -1 -2 0 -2 0 -2 -1 -2 -1 -2 0 -1 -1 -2 -1 -2 -1 -1 -1 -2 -1 -1 -1 -2 -1 -1 -2 -2 -1 -1 -2 -1 -1 -1 -2 -1 -1 -1 -2 -1 -2 -1 -1 -1 -2 0 -2 -1 -2 0 -2 -1 -2 0 -2 0 -2 0 -2z"/>
   </g>
   <g>
    <path class="fil1" d="M4406 1925l-985 0 0 -12 985 0 0 12zm28 -46l0 20 0 0 -1 0 -1 0 -1 0 -1 0 -1 1 -1 0 -1 0 -1 1 -1 0 -1 0 0 1 -1 0 -1 1 -1 1 0 0 -1 1 -1 1 0 0 -1 1 -1 1 0 1 -1 0 0 1 0 1 -1 1 0 1 0 1 -1 1 0 1 0 1 0 1 0 1 -20 0 0 -2 0 -2 1 -2 0 -2 0 -2 1 -2 1 -2 0 -2 1 -1 1 -2 1 -2 1 -1 1 -2 1 -1 2 -2 1 -1 1 -1 2 -2 1 -1 2 -1 1 -1 2 -1 2 -1 1 -1 2 0 2 -1 2 -1 2 0 2 0 2 -1 2 0 2 0 0 0zm40 40l-20 0 0 0 0 -1 0 -1 0 -1 -1 -1 0 -1 0 -1 0 -1 -1 -1 0 -1 -1 -1 0 0 -1 -1 0 -1 -1 -1 0 0 -1 -1 -1 -1 0 0 -1 -1 -1 -1 -1 0 -1 -1 0 0 -1 0 -1 -1 -1 0 -1 0 -1 -1 -1 0 -1 0 -1 0 -1 0 0 -20 2 0 2 0 2 1 2 0 2 0 2 1 2 1 1 0 2 1 2 1 2 1 1 1 2 1 1 1 2 2 1 1 1 1 2 2 1 1 1 2 1 1 1 2 1 2 1 1 0 2 1 2 0 2 1 2 0 2 0 2 1 2 0 2 0 0zm-40 40l0 -20 0 0 1 0 1 0 1 0 1 -1 1 0 1 0 1 0 1 -1 1 0 0 -1 1 0 1 -1 1 0 1 -1 0 0 1 -1 1 -1 0 0 1 -1 0 -1 1 -1 0 -1 1 0 0 -1 1 -1 0 -1 0 -1 0 -1 1 -1 0 -1 0 -1 0 -1 20 0 0 2 -1 2 0 2 0 2 -1 2 0 2 -1 2 0 1 -1 2 -1 2 -1 2 -1 1 -1 2 -1 1 -2 2 -1 1 -1 1 -2 2 -1 1 -2 1 -1 1 -2 1 -2 1 -2 1 -1 0 -2 1 -2 0 -2 1 -2 0 -2 0 -2 1 -2 0 0 0zm-40 -40l20 0 0 1 0 1 0 1 0 1 1 1 0 1 0 1 1 1 0 1 0 0 1 1 0 1 1 1 1 1 0 0 1 1 1 1 0 0 1 1 1 0 1 1 0 0 1 1 1 0 1 1 1 0 1 0 1 0 1 1 1 0 1 0 1 0 0 20 -2 0 -2 -1 -2 0 -2 0 -2 -1 -2 0 -2 -1 -2 0 -1 -1 -2 -1 -2 -1 -1 -1 -2 -1 -1 -1 -2 -2 -1 -1 -1 -1 -2 -2 -1 -1 -1 -2 -1 -1 -1 -2 -1 -2 -1 -2 0 -1 -1 -2 -1 -2 0 -2 0 -2 -1 -2 0 -2 0 -2z"/>
   </g>
   <line class="fil0 str1" x1="3415" y1="1256" x2="4123" y2= "1256" />
   <g>
    <path class="fil1" d="M5242 1262l-1119 0 0 -11 1119 0 0 11zm0 -46l0 0 2 0 2 1 2 0 2 0 2 1 2 0 2 1 2 1 1 0 2 1 2 1 1 1 2 1 2 1 1 2 1 1 2 1 1 2 1 1 1 2 1 2 1 1 1 2 1 2 1 2 0 1 1 2 0 2 1 2 0 2 0 2 0 2 0 0 0 2 0 2 0 2 -1 2 0 2 -1 2 0 2 -1 2 -1 1 -1 2 -1 2 -1 1 -1 2 -1 1 -1 2 -2 1 -1 2 -1 1 -2 1 -2 1 -1 1 -2 1 -2 1 -1 1 -2 0 -2 1 -2 1 -2 0 -2 0 -2 1 -2 0 -2 0 0 0 -2 0 -2 0 -2 -1 -2 0 -2 0 -1 -1 -2 -1 -2 0 -2 -1 -2 -1 -1 -1 -2 -1 -1 -1 -2 -1 -1 -1 -2 -2 -1 -1 -1 -2 -2 -1 -1 -2 -1 -1 -1 -2 -1 -2 0 -1 -1 -2 -1 -2 0 -2 -1 -2 0 -2 0 -2 0 -2 0 -2 0 0 0 -2 0 -2 0 -2 0 -2 1 -2 0 -2 1 -1 1 -2 0 -2 1 -2 1 -1 1 -2 1 -2 2 -1 1 -2 1 -1 2 -1 1 -2 2 -1 1 -1 2 -1 1 -1 2 -1 2 0 2 -1 2 -1 1 0 2 -1 2 0 2 0 2 -1 2 0z"/>
   </g>
   <g>
    <path class="fil1" d="M102 796l0 968 -11 0 0 -968 11 0zm-6 -70l60 139 -4 -1 -4 -2 -3 -2 -4 -1 -4 -1 -3 -2 -4 -1 -4 -1 -4 -1 -3 0 -4 -1 -4 -1 -4 0 -3 0 -4 0 -4 -1 -3 1 -4 0 -4 0 -4 0 -3 1 -4 1 -4 0 -4 1 -3 1 -4 1 -4 2 -3 1 -4 1 -4 2 -4 2 -3 1 0 0 59 -139z"/>
   </g>
   <g>
    <path class="fil1" d="M1908 762l-14 370 -12 -1 15 -369 11 0zm-3 -70l54 141 -3 -1 -4 -2 -4 -2 -3 -2 -4 -1 -4 -1 -3 -2 -4 -1 -4 -1 -4 -1 -3 -1 -4 0 -4 -1 -3 0 -4 -1 -4 0 -4 0 -3 0 -4 0 -4 1 -3 0 -4 0 -4 1 -4 1 -3 1 -4 1 -4 1 -4 1 -4 1 -3 2 -4 1 -4 2 0 0 65 -137z"/>
   </g>
   <g>
    <path class="fil1" d="M1675 582l40 0 0 11 -40 0 0 -11zm-69 5l139 -60 -2 4 -2 4 -1 4 -2 3 -1 4 -1 4 -1 4 -1 3 -1 4 -1 4 -1 3 0 4 -1 4 0 4 0 3 0 4 0 4 0 4 0 3 1 4 0 4 1 3 1 4 1 4 1 4 1 3 1 4 1 4 2 4 1 3 2 4 2 4 0 0 -139 -60z"/>
   </g>
   <g>
    <path class="fil1" d="M1675 1913l40 0 0 12 -40 0 0 -12zm-69 6l139 -60 -2 4 -2 4 -1 3 -2 4 -1 4 -1 4 -1 3 -1 4 -1 4 -1 4 -1 3 0 4 -1 4 0 3 0 4 0 4 0 4 0 3 0 4 1 4 0 4 1 3 1 4 1 4 1 3 1 4 1 4 1 4 2 3 1 4 2 4 2 4 0 0 -139 -60z"/>
   </g>
   <path class="fil1" d="M0 507l1 -20c5,1 9,2 13,2 4,0 7,-1 10,-3 4,-3 7,-8 11,-15l7 -11 -20 -124 20 0 9 62c2,12 4,25 5,37l55 -99 22 0 -79 139c-7,14 -14,23 -20,27 -5,5 -12,7 -20,7 -5,0 -9,-1 -14,-2z"/>
   <path id="1" class="fil1" d="M116 506l36 -170 19 0 -3 18c7,-8 13,-13 19,-16 6,-3 12,-4 18,-4 12,0 21,4 29,13 8,8 12,20 12,36 0,13 -2,24 -7,35 -4,10 -9,19 -15,25 -7,7 -13,11 -19,14 -6,3 -13,5 -20,5 -14,0 -26,-8 -34,-23l-14 67 -21 0zm42 -97c0,9 0,16 2,19 2,5 5,9 9,12 5,3 10,5 15,5 13,0 22,-7 30,-20 7,-14 11,-28 11,-42 0,-10 -3,-18 -8,-24 -5,-6 -11,-8 -18,-8 -6,0 -11,1 -15,4 -5,3 -9,7 -13,12 -4,6 -7,13 -10,21 -2,8 -3,15 -3,21z"/>
   <polygon class="fil1" points="1404,485 1440,316 1462,316 1427,485 "/>
   <path id="1" class="fil1" d="M1456 485l53 -62 -30 -61 23 0 11 22c3,8 7,16 10,23l35 -45 26 0 -52 62 31 61 -23 0 -12 -25c-3,-5 -6,-12 -9,-19l-37 44 -26 0z"/>
   <path id="2" class="fil1" d="M1573 532l35 -170 20 0 -4 18c7,-8 14,-13 19,-16 6,-3 12,-4 18,-4 12,0 22,4 29,12 8,9 12,21 12,37 0,13 -2,24 -6,35 -5,10 -10,19 -16,25 -6,7 -13,11 -19,14 -6,3 -13,5 -19,5 -15,0 -27,-8 -35,-23l-14 67 -20 0zm41 -97c0,9 1,16 2,19 2,5 5,9 9,12 5,3 10,5 16,5 12,0 22,-7 29,-21 7,-13 11,-27 11,-41 0,-10 -2,-18 -7,-24 -5,-6 -12,-8 -19,-8 -5,0 -10,1 -15,4 -4,3 -9,7 -13,12 -3,6 -7,13 -9,21 -3,8 -4,15 -4,21z"/>
   <polygon class="fil1" points="1534,2170 1570,2001 1592,2001 1557,2170 "/>
   <path id="1" class="fil1" d="M1586 2170l53 -62 -30 -61 23 0 11 22c3,8 7,16 10,23l35 -45 25 0 -51 62 31 61 -23 0 -12 -25c-3,-5 -6,-12 -9,-19l-37 44 -26 0z"/>
   <path id="2" class="fil1" d="M1712 2170l26 -123 19 0 -4 22c8,-9 16,-15 23,-19 7,-3 15,-5 22,-5 10,0 18,2 24,8 6,5 9,12 9,21 0,5 -2,12 -4,22l-16 74 -21 0 17 -78c2,-7 3,-13 3,-16 0,-4 -2,-8 -5,-10 -2,-3 -7,-4 -12,-4 -11,0 -21,4 -29,11 -9,8 -15,21 -19,40l-12 57 -21 0z"/>
   <path class="fil1" d="M6296 476l-13 -123 20 0 6 55 2 31c0,2 0,7 1,14 2,-8 4,-14 6,-18 1,-4 4,-10 8,-18l29 -64 23 0 4 61c0,10 1,22 1,38 4,-11 10,-25 19,-43l26 -56 21 0 -60 123 -22 0 -4 -72c-1,-5 -1,-13 -1,-26 -3,8 -7,17 -11,26l-33 72 -22 0z"/>
   <path id="1" class="fil1" d="M6434 523l35 -170 20 0 -4 17c7,-7 14,-12 19,-15 6,-3 12,-5 18,-5 12,0 22,5 30,13 7,9 11,21 11,37 0,12 -2,24 -6,34 -5,11 -10,19 -16,26 -6,6 -12,11 -19,14 -6,3 -12,4 -19,4 -15,0 -26,-7 -34,-22l-14 67 -21 0zm41 -97c0,9 1,15 2,19 2,5 5,9 10,12 4,3 9,4 15,4 12,0 22,-6 29,-20 8,-13 11,-27 11,-41 0,-11 -2,-19 -7,-24 -5,-6 -11,-9 -19,-9 -5,0 -10,2 -15,4 -4,3 -8,7 -12,13 -4,6 -8,12 -10,21 -3,8 -4,15 -4,21z"/>
   <path class="fil1" d="M6272 2125l-13 -123 20 0 5 55 3 31c0,2 0,7 1,14 2,-8 4,-14 6,-18 1,-4 4,-10 7,-18l30 -64 22 0 4 61c1,10 1,22 2,37 3,-10 10,-24 18,-42l27 -56 21 0 -60 123 -22 0 -4 -72c-1,-5 -1,-14 -1,-27 -4,9 -8,18 -12,27l-32 72 -22 0z"/>
   <path id="1" class="fil1" d="M6419 2125l26 -123 19 0 -4 21c8,-8 16,-14 23,-18 7,-4 15,-6 22,-6 10,0 18,3 24,8 6,6 8,13 8,22 0,5 -1,12 -3,21l-16 75 -21 0 17 -78c2,-8 3,-13 3,-17 0,-4 -2,-7 -5,-10 -2,-2 -7,-4 -12,-4 -11,0 -21,4 -29,12 -9,8 -15,21 -19,39l-12 58 -21 0z"/>
   <path class="fil1" d="M3940 488l4 -17 65 -74c5,-5 10,-10 16,-16 -10,1 -17,1 -21,1l-46 0 4 -17 95 0 -3 13 -67 75c-3,4 -9,10 -16,17 11,0 19,-1 24,-1l48 0 -4 19 -99 0z"/>
   <path id="1" class="fil1" d="M4052 535l35 -170 20 0 -4 17c7,-7 14,-13 19,-15 6,-3 12,-5 18,-5 12,0 22,5 29,13 8,9 12,21 12,37 0,12 -2,24 -6,34 -5,11 -10,19 -16,26 -6,6 -12,11 -19,14 -6,3 -13,4 -19,4 -15,0 -26,-7 -35,-22l-13 67 -21 0zm41 -97c0,9 1,15 2,19 2,5 5,9 10,12 4,3 9,4 15,4 12,0 22,-6 29,-20 8,-13 11,-27 11,-41 0,-11 -2,-19 -7,-24 -5,-6 -11,-9 -19,-9 -5,0 -10,2 -15,4 -4,3 -9,7 -12,13 -4,6 -8,12 -10,20 -3,9 -4,16 -4,22z"/>
   <path class="fil1" d="M3967 2171l4 -16 66 -74c4,-5 10,-11 15,-16 -10,1 -17,1 -21,1l-46 0 4 -17 95 0 -3 13 -66 75c-4,4 -10,10 -17,17 12,-1 19,-1 24,-1l48 0 -4 18 -99 0z"/>
   <path id="1" class="fil1" d="M4089 2171l25 -122 20 0 -5 21c8,-8 16,-15 23,-18 8,-4 15,-6 23,-6 10,0 18,3 23,8 6,5 9,13 9,22 0,4 -1,11 -3,21l-17 74 -21 0 18 -77c1,-8 2,-13 2,-17 0,-4 -1,-7 -4,-10 -3,-3 -7,-4 -13,-4 -11,0 -20,4 -29,12 -8,7 -15,21 -19,39l-11 57 -21 0z"/>
   <path class="fil1" d="M184 1387l-32 -170 22 0 19 101c4,19 6,34 7,45 8,-15 13,-26 18,-35l60 -111 24 0 -93 170 -25 0z"/>
   <path id="1" class="fil1" d="M276 1434l1 -20c5,2 9,2 13,2 4,0 8,-1 10,-3 4,-2 7,-7 11,-14l7 -12 -20 -123 20 0 9 62c2,12 4,24 5,36l55 -98 22 0 -79 139c-7,13 -14,23 -20,27 -5,4 -12,7 -20,7 -5,0 -9,-1 -14,-3z"/>
   <path class="fil1" d="M4696 696l-33 -169 22 0 20 101c3,18 6,33 7,44 7,-14 13,-26 17,-34l61 -111 23 0 -93 169 -24 0z"/>
   <path id="1" class="fil1" d="M4796 696l4 -16 66 -74c5,-6 10,-11 16,-17 -10,1 -18,2 -22,2l-46 0 4 -18 95 0 -3 14 -66 74c-4,5 -10,10 -17,18 12,-1 20,-1 24,-1l48 0 -4 18 -99 0z"/>
   <path id="2" class="fil1" d="M4908 743l36 -170 19 0 -4 17c8,-7 14,-12 20,-15 5,-3 11,-4 18,-4 11,0 21,4 29,12 8,9 11,21 11,37 0,13 -2,24 -6,35 -4,10 -9,19 -16,25 -6,7 -12,11 -18,14 -7,3 -13,5 -20,5 -15,0 -26,-8 -34,-23l-14 67 -21 0zm41 -97c0,9 1,15 2,19 2,5 5,9 10,12 4,3 9,5 15,5 12,0 22,-7 29,-21 8,-13 12,-27 12,-41 0,-10 -3,-18 -8,-24 -5,-6 -11,-9 -19,-9 -5,0 -10,2 -14,5 -5,2 -9,7 -13,12 -4,6 -7,13 -10,21 -2,8 -4,15 -4,21z"/>
   <path class="fil1" d="M994 727l19 0 -15 52c-1,4 -2,9 -4,16 2,12 5,19 6,21 3,4 6,6 11,6 3,0 6,-1 8,-3 3,-3 4,-7 5,-12l5 0c-1,11 -3,19 -7,23 -4,4 -8,6 -12,6 -5,0 -9,-2 -12,-5 -4,-4 -7,-12 -10,-24 -3,7 -7,12 -10,15 -4,5 -9,8 -15,11 -5,2 -11,3 -18,3 -17,0 -29,-5 -37,-17 -8,-11 -12,-24 -12,-39 0,-16 4,-30 14,-41 9,-10 20,-15 33,-15 9,0 16,2 23,8 7,5 13,15 18,30l10 -35zm-14 48c-4,-16 -9,-27 -16,-34 -6,-6 -13,-9 -20,-9 -7,0 -14,4 -19,12 -5,9 -7,22 -7,40 0,11 1,19 3,25 2,6 5,11 10,14 4,4 9,5 14,5 6,0 11,-2 16,-8 7,-7 13,-22 19,-45z"/>
   <path id="1" class="fil1" d="M1056 780l29 -14 3 0 0 99c0,7 0,11 0,12 1,2 2,3 4,4 2,1 5,2 11,2l0 3 -45 0 0 -3c6,0 9,-1 11,-2 2,-1 3,-2 4,-4 0,-1 0,-5 0,-12l0 -63c0,-9 0,-14 -1,-17 0,-2 -1,-3 -2,-4 -1,-1 -2,-1 -4,-1 -2,0 -5,1 -9,3l-1 -3z"/>
   <polygon id="2" class="fil1" points="1151,759 1151,735 1175,735 1175,759 "/>
   <path id="3" class="fil1" d="M1265 833l-33 -170 22 0 20 101c3,19 6,33 7,45 7,-15 13,-26 17,-35l61 -111 23 0 -93 170 -24 0z"/>
   <path id="4" class="fil1" d="M1356 880l2 -20c4,1 8,2 12,2 4,0 8,-1 11,-3 3,-2 7,-7 11,-14l6 -12 -20 -123 21 0 9 62c2,12 3,24 5,36l54 -98 22 0 -78 139c-8,13 -14,22 -20,27 -6,4 -13,6 -20,6 -5,0 -10,0 -15,-2z"/>
   <path class="fil1" d="M2002 1126l-32 -169 22 0 19 101c4,18 6,33 7,44 7,-14 13,-26 18,-34l60 -111 23 0 -92 169 -25 0z"/>
   <path id="1" class="fil1" d="M2098 1126l53 -62 -30 -61 23 0 10 22c4,8 8,16 11,23l35 -45 25 0 -51 62 31 61 -23 0 -12 -25c-3,-5 -6,-12 -9,-19l-37 44 -26 0z"/>
   <path id="2" class="fil1" d="M2215 1173l35 -170 19 0 -3 18c7,-8 13,-13 19,-16 6,-3 12,-4 18,-4 12,0 22,4 29,12 8,9 12,21 12,37 0,13 -2,24 -7,35 -4,10 -9,19 -15,25 -6,7 -13,11 -19,14 -6,3 -13,5 -19,5 -15,0 -27,-8 -35,-23l-14 67 -20 0zm41 -97c0,9 0,16 2,19 2,5 5,9 9,12 5,3 10,5 16,5 12,0 21,-7 29,-21 7,-13 11,-27 11,-41 0,-10 -2,-18 -8,-24 -4,-6 -11,-8 -18,-8 -5,0 -10,1 -15,4 -5,3 -9,7 -13,12 -4,6 -7,13 -9,21 -3,8 -4,15 -4,21z"/>
   <path class="fil1" d="M1844 1425l-43 85 7 29c3,12 6,20 9,23 3,3 7,4 12,4 6,0 10,-1 14,-5 3,-3 5,-8 6,-16l4 0c0,2 0,4 0,5 0,9 -3,18 -9,25 -3,5 -9,8 -15,8 -4,0 -8,-2 -11,-4 -4,-2 -6,-5 -8,-10 -4,-7 -6,-13 -7,-18l-8 -31 -30 60 -21 0 45 -87 -9 -34c-2,-7 -4,-12 -7,-15 -2,-2 -6,-3 -11,-3 -5,0 -9,1 -12,5 -3,3 -5,8 -6,15l-4 0c0,-13 3,-23 8,-30 4,-5 9,-7 15,-7 6,0 11,2 14,6 4,5 6,10 8,18l9 35 29 -58 21 0z"/>
   <path id="1" class="fil1" d="M1883 1479l28 -14 3 0 0 99c0,7 1,11 1,12 1,2 2,3 4,4 1,1 5,1 10,2l0 3 -44 0 0 -3c5,-1 9,-1 11,-2 1,-1 3,-2 3,-4 1,-1 1,-5 1,-12l0 -63c0,-9 0,-14 -1,-17 0,-2 -1,-3 -2,-4 -1,-1 -3,-1 -4,-1 -2,0 -5,1 -9,2l-1 -2z"/>
   <polygon id="2" class="fil1" points="1978,1458 1978,1434 2002,1434 2002,1458 "/>
   <path id="3" class="fil1" d="M2091 1531l-32 -169 22 0 19 101c4,18 6,33 8,44 7,-14 13,-25 17,-34l60 -111 24 0 -93 169 -25 0z"/>
   <path id="4" class="fil1" d="M2187 1531l54 -62 -31 -60 23 0 11 21c4,9 7,16 10,24l35 -45 26 0 -51 62 31 60 -24 0 -12 -25c-3,-5 -6,-11 -9,-19l-37 44 -26 0z"/>
   <path id="5" class="fil1" d="M2304 1579l35 -170 20 0 -4 17c7,-8 14,-13 19,-16 6,-3 12,-4 18,-4 12,0 22,4 30,13 7,8 11,20 11,36 0,13 -2,25 -6,35 -5,11 -10,19 -16,26 -6,6 -12,11 -19,14 -6,3 -13,4 -19,4 -15,0 -26,-7 -34,-22l-14 67 -21 0zm41 -98c0,10 1,16 2,19 2,5 5,9 10,12 4,4 9,5 15,5 12,0 22,-7 29,-20 8,-14 11,-28 11,-42 0,-10 -2,-18 -7,-24 -5,-5 -11,-8 -19,-8 -5,0 -10,1 -15,4 -4,3 -9,7 -12,13 -4,5 -8,12 -10,20 -3,8 -4,15 -4,21z"/>
   <path class="fil1" d="M1879 507l53 -62 -31 -61 23 0 11 22c4,8 7,16 10,23l36 -45 25 0 -51 62 31 61 -23 0 -13 -25c-2,-5 -5,-12 -8,-19l-37 44 -26 0z"/>
   <path id="1" class="fil1" d="M1995 554l36 -170 19 0 -3 17c7,-7 13,-12 19,-15 5,-3 11,-4 18,-4 11,0 21,4 29,12 8,9 11,21 11,37 0,13 -2,24 -6,35 -4,10 -9,19 -16,25 -6,7 -12,11 -18,14 -7,3 -13,5 -20,5 -15,0 -26,-8 -34,-23l-14 67 -21 0zm41 -97c0,9 1,15 2,19 2,5 6,9 10,12 4,3 9,5 15,5 12,0 22,-7 30,-21 7,-13 11,-27 11,-41 0,-10 -3,-18 -8,-24 -5,-6 -11,-9 -18,-9 -6,0 -11,2 -15,5 -5,3 -9,7 -13,12 -4,6 -7,13 -10,21 -2,8 -4,15 -4,21z"/>
   <path class="fil1" d="M1947 2065l54 -62 -31 -61 23 0 11 22c4,8 7,16 10,23l35 -45 26 0 -51 62 31 61 -24 0 -12 -25c-3,-5 -6,-12 -9,-20l-37 45 -26 0z"/>
   <path id="1" class="fil1" d="M2074 2065l25 -123 19 0 -4 21c8,-8 16,-14 23,-18 8,-4 15,-6 23,-6 10,0 17,3 23,9 6,5 9,12 9,21 0,5 -1,12 -3,22l-17 74 -21 0 17 -78c2,-7 3,-13 3,-17 0,-4 -1,-7 -4,-9 -3,-3 -7,-4 -13,-4 -11,0 -20,4 -29,11 -8,8 -15,21 -19,40l-12 57 -20 0z"/>
   <path class="fil1" d="M2503 916l0 20c0,12 -2,26 -5,40l-20 0c2,-9 4,-16 4,-19 1,-11 2,-19 2,-24l0 -118c0,-14 1,-24 4,-31 2,-6 7,-12 14,-16 8,-5 16,-7 26,-7 14,0 25,4 33,11 8,7 12,16 12,26 0,7 -1,13 -5,19 -3,6 -8,11 -15,15 20,10 31,26 31,46 0,10 -2,18 -7,26 -4,8 -10,14 -17,19 -8,4 -16,6 -24,6 -5,0 -10,-1 -15,-3 -5,-2 -11,-5 -18,-10zm0 -9c7,5 14,9 19,11 4,2 8,3 13,3 7,0 14,-3 19,-10 5,-6 8,-16 8,-30 0,-9 -1,-17 -4,-23 -2,-7 -7,-14 -13,-22 -5,2 -10,3 -14,3 -4,0 -8,-1 -9,-2 -2,-2 -3,-3 -3,-5 0,-1 1,-3 2,-4 1,-1 4,-2 7,-2 4,0 9,1 17,3 5,-10 8,-20 8,-30 0,-10 -2,-17 -7,-22 -5,-6 -11,-8 -18,-8 -9,0 -16,3 -21,11 -3,5 -4,13 -4,24l0 103z"/>
   <path id="1" class="fil1" d="M2615 873l29 -14 3 0 0 99c0,6 0,10 0,12 1,2 2,3 4,4 2,1 5,1 11,1l0 4 -45 0 0 -4c6,0 9,0 11,-1 2,-1 3,-2 4,-4 0,-1 0,-5 0,-12l0 -64c0,-8 0,-14 -1,-16 0,-2 -1,-3 -2,-4 -1,-1 -2,-1 -4,-1 -2,0 -5,0 -9,2l-1 -2z"/>
   <polygon id="2" class="fil1" points="2710,852 2710,828 2734,828 2734,852 "/>
   <polygon id="3" class="fil1" points="2776,925 2811,756 2834,756 2798,925 "/>
   <path id="4" class="fil1" d="M2827 925l54 -62 -31 -61 23 0 11 22c4,8 7,16 10,23l35 -45 26 0 -51 62 31 61 -23 0 -13 -25c-3,-5 -5,-11 -9,-19l-36 44 -27 0z"/>
   <path id="5" class="fil1" d="M2944 972l36 -170 19 0 -4 18c7,-8 14,-13 20,-16 5,-3 11,-4 18,-4 11,0 21,4 29,13 7,8 11,20 11,36 0,13 -2,25 -6,35 -4,11 -10,19 -16,25 -6,7 -12,11 -19,14 -6,3 -12,5 -19,5 -15,0 -26,-8 -34,-23l-14 67 -21 0zm41 -97c0,9 1,16 2,19 2,5 5,9 10,12 4,3 9,5 15,5 12,0 22,-7 29,-20 8,-14 11,-28 11,-42 0,-10 -2,-18 -7,-24 -5,-5 -11,-8 -19,-8 -5,0 -10,1 -15,4 -4,3 -8,7 -12,13 -4,5 -7,12 -10,20 -2,8 -4,15 -4,21z"/>
   <path class="fil1" d="M2498 1771l0 19c0,13 -2,26 -5,41l-20 0c3,-10 4,-16 4,-20 1,-11 2,-18 2,-23l0 -119c0,-14 1,-24 4,-30 3,-7 8,-13 15,-17 7,-5 15,-7 25,-7 14,0 25,4 33,11 8,8 12,16 12,27 0,6 -1,12 -5,18 -3,6 -8,11 -15,16 21,10 31,25 31,46 0,9 -2,18 -6,26 -5,8 -11,14 -18,18 -8,4 -15,6 -23,6 -6,0 -11,-1 -16,-2 -5,-2 -11,-6 -18,-10zm0 -9c7,5 14,9 19,11 4,2 9,2 13,2 8,0 14,-3 19,-9 6,-7 8,-17 8,-31 0,-9 -1,-16 -3,-23 -3,-7 -7,-14 -14,-22 -5,2 -10,3 -13,3 -5,0 -8,-1 -10,-2 -2,-1 -3,-3 -3,-5 0,-1 1,-2 2,-4 2,-1 4,-1 7,-1 4,0 10,1 17,3 5,-11 8,-21 8,-31 0,-9 -2,-17 -7,-22 -5,-5 -11,-8 -18,-8 -9,0 -16,4 -20,11 -4,5 -5,13 -5,24l0 104z"/>
   <path id="1" class="fil1" d="M2671 1810l-9 23 -69 0 0 -4c24,-21 40,-39 48,-53 5,-8 8,-16 8,-24 0,-8 -3,-14 -7,-19 -5,-4 -10,-7 -17,-7 -5,0 -10,2 -15,5 -5,4 -8,9 -10,15l-3 0c1,-11 5,-19 11,-25 6,-5 13,-8 22,-8 10,0 18,3 24,9 6,6 10,13 10,22 0,6 -2,12 -5,18 -4,9 -11,19 -21,30 -14,15 -23,25 -26,28l30 0c9,0 14,-1 18,-2 3,-2 5,-4 8,-8l3 0z"/>
   <polygon id="2" class="fil1" points="2706,1706 2706,1682 2729,1682 2729,1706 "/>
   <polygon id="3" class="fil1" points="2771,1780 2806,1610 2829,1610 2793,1780 "/>
   <path id="4" class="fil1" d="M2823 1780l53 -63 -31 -60 23 0 11 22c4,8 7,15 10,23l36 -45 25 0 -51 62 31 61 -23 0 -13 -25c-2,-6 -5,-12 -8,-20l-37 45 -26 0z"/>
   <path id="5" class="fil1" d="M2949 1780l26 -123 19 0 -5 21c9,-8 16,-14 24,-18 7,-4 14,-6 22,-6 10,0 18,3 24,8 5,6 8,13 8,22 0,5 -1,12 -3,22l-17 74 -20 0 17 -78c2,-8 2,-13 2,-17 0,-4 -1,-7 -4,-10 -3,-2 -7,-3 -12,-3 -11,0 -21,3 -30,11 -8,8 -14,21 -18,40l-12 57 -21 0z"/>
   <path class="fil1" d="M0 2222l1 -20c5,1 9,2 13,2 4,0 7,-1 10,-3 4,-3 7,-7 11,-14l7 -12 -20 -123 20 0 9 61c2,13 4,25 5,37l55 -98 22 0 -79 139c-7,13 -14,22 -20,27 -5,4 -12,6 -20,6 -5,0 -9,-1 -14,-2z"/>
   <path id="1" class="fil1" d="M126 2174l26 -122 19 0 -4 21c8,-8 16,-14 23,-18 7,-4 15,-6 22,-6 10,0 18,3 24,8 5,6 8,13 8,22 0,4 -1,12 -3,21l-16 74 -21 0 17 -77c2,-8 3,-13 3,-17 0,-4 -2,-7 -5,-10 -3,-2 -7,-4 -12,-4 -11,0 -21,4 -29,12 -9,8 -15,21 -19,39l-12 57 -21 0z"/>
   <path class="fil1" d="M3982 1721l0 27 -127 -27 0 -56c0,-10 1,-18 3,-23 2,-6 6,-10 11,-13 5,-4 12,-5 19,-5 11,0 20,3 27,10 7,6 11,16 13,29 3,-3 7,-7 12,-10 10,-5 24,-12 42,-19l0 28c-7,2 -18,7 -33,13 -9,4 -14,8 -17,12 -2,2 -3,7 -3,13l0 10 53 11zm-72 -15l0 -13c0,-15 0,-24 -2,-28 -2,-5 -4,-9 -8,-11 -4,-3 -7,-4 -11,-4 -5,0 -8,2 -11,6 -1,2 -2,7 -2,15l0 28 34 7z"/>
   <path id="1" class="fil1" d="M3890 1601l0 -23 11 2c-9,-9 -13,-19 -13,-29 0,-7 1,-12 4,-16 3,-4 7,-6 12,-7 -5,-3 -9,-8 -12,-14 -3,-6 -4,-12 -4,-18 0,-8 2,-13 6,-18 4,-4 9,-6 15,-6 4,0 9,1 17,3l56 12 0 25 -56 -12c-7,-2 -11,-2 -12,-3 -3,0 -5,1 -6,3 -2,1 -3,4 -3,7 0,6 4,12 10,17 5,3 13,6 25,9l42 8 0 25 -56 -11c-6,-2 -10,-2 -12,-2 -3,0 -5,0 -6,2 -2,2 -3,4 -3,7 0,3 1,5 3,8 1,3 4,6 7,8 2,2 6,4 10,6 3,0 7,1 15,3l42 9 0 25 -92 -20z"/>
   <g>
    <path class="fil1" d="M4521 668l8 -7 13 17 12 17 12 18 10 17 10 17 8 17 8 17 7 17 6 16 5 17 5 17 3 17 3 16 2 17 1 16 0 17 -1 16 -1 17 -2 16 -3 16 -4 16 -5 16 -5 16 -6 16 -7 16 -8 16 -9 16 -9 16 -10 15 -11 16 -11 15 -13 16 -8 -7 12 -16 11 -15 11 -15 9 -15 10 -16 8 -15 7 -15 7 -16 6 -15 6 -16 4 -16 4 -15 3 -16 2 -16 1 -15 1 -16 0 -16 -1 -16 -2 -16 -3 -16 -3 -17 -5 -16 -5 -16 -6 -16 -6 -17 -8 -16 -8 -17 -10 -17 -10 -16 -11 -17 -12 -17 -12 -17zm-39 -59l132 74 -4 0 -4 1 -3 1 -4 2 -4 1 -4 1 -3 2 -4 1 -3 2 -4 1 -3 2 -3 2 -4 2 -3 2 -3 2 -3 2 -3 3 -2 2 -3 3 -3 2 -3 3 -2 3 -3 3 -2 3 -2 3 -3 3 -2 3 -2 3 -2 4 -2 3 -2 4 -2 4 0 0 -38 -147z"/>
   </g>
   <g>
    <path class="fil1" d="M4529 1815l-8 -7 12 -17 12 -17 11 -17 10 -16 10 -17 8 -17 8 -16 6 -17 6 -16 5 -16 5 -17 3 -16 3 -16 2 -16 1 -16 0 -16 -1 -16 -1 -15 -2 -16 -3 -16 -4 -16 -4 -15 -6 -16 -6 -15 -7 -16 -7 -15 -8 -15 -10 -16 -9 -15 -11 -15 -11 -16 -12 -15 8 -7 13 16 11 15 11 16 10 15 9 16 9 16 8 16 7 16 6 15 5 17 5 16 4 16 3 16 2 16 1 17 1 16 0 17 -1 16 -2 17 -3 16 -3 17 -5 17 -5 17 -6 16 -7 17 -8 17 -8 17 -10 17 -10 17 -12 17 -12 18 -13 17zm-47 52l38 -147 2 4 2 3 2 4 2 3 2 4 2 3 3 3 2 3 2 3 3 3 2 3 3 3 3 2 3 3 2 2 3 2 3 3 3 2 3 2 4 2 3 2 3 2 4 1 3 2 4 1 3 2 4 1 4 1 4 1 3 2 4 0 4 1 0 0 -132 74z"/>
   </g>
   <path class="fil1" d="M4696 1857l-33 -169 22 0 20 101c3,18 6,33 7,44 7,-14 13,-26 17,-34l61 -111 23 0 -93 169 -24 0z"/>
   <path id="1" class="fil1" d="M4796 1857l4 -16 66 -74c5,-5 10,-11 16,-17 -10,1 -18,2 -22,2l-46 0 4 -18 95 0 -3 14 -66 75c-4,4 -10,9 -17,17 12,-1 20,-1 24,-1l48 0 -4 18 -99 0z"/>
   <path id="2" class="fil1" d="M4918 1857l26 -123 19 0 -5 22c9,-9 16,-15 24,-18 7,-4 14,-6 22,-6 10,0 18,3 23,8 6,5 9,13 9,22 0,4 -1,11 -3,21l-17 74 -20 0 17 -77c1,-8 2,-14 2,-17 0,-4 -1,-8 -4,-10 -3,-3 -7,-4 -12,-4 -11,0 -21,4 -30,12 -8,7 -14,20 -18,39l-12 57 -21 0z"/>
   <g>
    <rect class="fil0 str0" transform="matrix(0.725072 -0.725072 0.725072 0.725072 5390.73 575.758)" width="426" height="426"/>
    <g>
     <polygon class="fil1" points="5829,652 5829,582 5760,582 5760,564 5829,564 5829,494 5848,494 5848,564 5916,564 5916,582 5848,582 5848,652 "/>
     <polygon class="fil1" points="5523,650 5523,497 5541,497 5541,650 "/>
    </g>
   </g>
   <g>
    <rect class="fil0 str0" transform="matrix(0.725072 -0.725072 0.725072 0.725072 5390.73 1892.19)" width="426" height="426"/>
    <g>
     <polygon class="fil1" points="5829,1968 5829,1899 5760,1899 5760,1880 5829,1880 5829,1811 5848,1811 5848,1880 5916,1880 5916,1899 5848,1899 5848,1968 "/>
     <polygon class="fil1" points="5523,1966 5523,1814 5541,1814 5541,1966 "/>
    </g>
   </g>
   <polyline class="fil0 str1" points="5391,576 5242,576 5242,1892 5391,1892 "/>
   <g>
    <path class="fil1" d="M5559 1262l-296 0 0 -11 296 0 0 11zm0 79l-10 0 0 -169 20 0 0 169 -10 0z"/>
   </g>
   <g>
    <path class="fil1" d="M6366 581l-357 0 0 -11 357 0 0 11zm27 -45l0 20 0 0 -1 0 -1 0 -1 0 -1 0 -1 1 -1 0 -1 0 -1 0 0 1 -1 0 -1 1 -1 0 -1 1 -1 0 0 1 -1 1 -1 0 0 1 -1 1 0 1 -1 0 0 1 -1 1 0 1 -1 1 0 1 0 1 0 1 -1 1 0 1 0 1 0 1 -20 0 0 -2 1 -2 0 -2 0 -2 1 -2 0 -2 1 -2 0 -2 1 -1 1 -2 1 -2 1 -1 1 -2 1 -2 2 -1 1 -1 1 -2 2 -1 1 -1 2 -1 2 -1 1 -1 2 -1 2 -1 1 -1 2 0 2 -1 2 0 2 -1 2 0 2 0 2 0 0 0zm40 40l-20 0 0 0 0 -1 0 -1 0 -1 0 -1 -1 -1 0 -1 0 -1 -1 -1 0 -1 0 -1 -1 -1 0 0 -1 -1 -1 -1 0 -1 -1 0 -1 -1 0 -1 -1 0 -1 -1 -1 0 0 -1 -1 0 -1 -1 -1 0 -1 0 -1 0 -1 -1 -1 0 -1 0 -1 0 -1 0 0 -20 2 0 2 0 2 0 2 1 2 0 2 1 2 0 2 1 1 1 2 1 2 1 1 1 2 1 1 1 2 1 1 2 2 1 1 1 1 2 1 2 1 1 1 2 1 2 1 1 0 2 1 2 1 2 0 2 0 2 1 2 0 2 0 2 0 0zm-40 40l0 -20 0 0 1 0 1 0 1 -1 1 0 1 0 1 0 1 -1 1 0 1 0 1 -1 0 0 1 -1 1 0 1 -1 0 -1 1 0 1 -1 0 -1 1 0 1 -1 0 -1 1 -1 0 -1 0 -1 1 0 0 -1 0 -1 1 -1 0 -1 0 -1 0 -1 0 -1 20 0 0 2 0 2 -1 2 0 2 0 2 -1 2 -1 1 0 2 -1 2 -1 2 -1 1 -1 2 -1 2 -1 1 -1 1 -2 2 -1 1 -2 1 -1 2 -2 1 -1 1 -2 1 -2 1 -1 0 -2 1 -2 1 -2 0 -2 1 -2 0 -2 0 -2 0 -2 1 0 0zm-40 -40l20 0 0 1 0 1 0 1 1 1 0 1 0 1 0 1 1 0 0 1 1 1 0 1 1 1 0 1 1 0 0 1 1 1 1 0 0 1 1 1 1 0 1 1 1 0 1 1 0 0 1 0 1 1 1 0 1 0 1 0 1 1 1 0 1 0 0 20 -2 -1 -2 0 -2 0 -2 0 -2 -1 -2 0 -2 -1 -1 -1 -2 0 -2 -1 -1 -1 -2 -1 -2 -1 -1 -2 -2 -1 -1 -1 -1 -2 -2 -1 -1 -1 -1 -2 -1 -2 -1 -1 -1 -2 -1 -2 0 -2 -1 -1 0 -2 -1 -2 0 -2 0 -2 -1 -2 0 -2z"/>
   </g>
   <g>
    <path class="fil1" d="M6366 1894l-357 0 0 -11 357 0 0 11zm27 -46l0 20 0 0 -1 0 -1 0 -1 0 -1 1 -1 0 -1 0 -1 0 -1 1 0 0 -1 1 -1 0 -1 1 -1 0 -1 1 0 0 -1 1 -1 1 0 0 -1 1 0 1 -1 1 0 1 -1 1 0 0 -1 1 0 1 0 1 0 1 -1 1 0 1 0 1 0 1 -20 0 0 -2 1 -2 0 -2 0 -2 1 -2 0 -2 1 -2 0 -1 1 -2 1 -2 1 -2 1 -1 1 -2 1 -1 2 -2 1 -1 1 -1 2 -2 1 -1 2 -1 2 -1 1 -1 2 -1 2 -1 1 0 2 -1 2 0 2 -1 2 0 2 0 2 -1 2 0 0 0zm40 40l-20 0 0 0 0 -1 0 -1 0 -1 0 -1 -1 -1 0 -1 0 -1 -1 -1 0 0 0 -1 -1 -1 0 -1 -1 -1 -1 -1 0 0 -1 -1 -1 -1 0 0 -1 -1 -1 0 -1 -1 0 0 -1 -1 -1 0 -1 -1 -1 0 -1 0 -1 0 -1 -1 -1 0 -1 0 -1 0 0 -20 2 0 2 1 2 0 2 0 2 1 2 0 2 1 2 0 1 1 2 1 2 1 1 1 2 1 1 1 2 2 1 1 2 1 1 2 1 1 1 2 1 1 1 2 1 2 1 2 0 1 1 2 1 2 0 2 0 2 1 2 0 2 0 2 0 0zm-40 40l0 -20 0 0 1 0 1 0 1 0 1 0 1 -1 1 0 1 0 1 -1 1 0 1 0 0 -1 1 0 1 -1 1 -1 0 0 1 -1 1 -1 0 0 1 -1 1 -1 0 -1 1 0 0 -1 0 -1 1 -1 0 -1 0 -1 1 -1 0 -1 0 -1 0 -1 0 -1 20 0 0 2 0 2 -1 2 0 2 0 2 -1 2 -1 2 0 2 -1 1 -1 2 -1 2 -1 1 -1 2 -1 1 -1 2 -2 1 -1 2 -2 1 -1 1 -2 1 -1 1 -2 1 -2 1 -1 1 -2 0 -2 1 -2 1 -2 0 -2 0 -2 1 -2 0 -2 0 0 0zm-40 -40l20 0 0 1 0 1 0 1 1 1 0 1 0 1 0 1 1 1 0 1 1 1 0 0 1 1 0 1 1 1 0 0 1 1 1 1 0 0 1 1 1 1 1 0 1 1 1 0 0 0 1 1 1 0 1 0 1 1 1 0 1 0 1 0 1 0 0 20 -2 0 -2 0 -2 -1 -2 0 -2 0 -2 -1 -2 -1 -1 0 -2 -1 -2 -1 -1 -1 -2 -1 -2 -1 -1 -1 -2 -1 -1 -2 -1 -1 -2 -2 -1 -1 -1 -2 -1 -1 -1 -2 -1 -2 -1 -1 0 -2 -1 -2 0 -2 -1 -2 0 -2 0 -2 -1 -2 0 -2z"/>
   </g>
   <path class="fil1" d="M5399 63l19 0 -15 53c-1,3 -3,9 -5,16 3,12 5,19 7,21 2,4 6,6 10,6 3,0 6,-1 9,-4 2,-2 4,-6 5,-11l4 0c-1,11 -3,18 -6,23 -4,4 -8,6 -13,6 -4,0 -8,-2 -12,-6 -3,-3 -7,-11 -10,-23 -3,6 -6,11 -9,15 -5,5 -10,8 -15,10 -6,3 -12,4 -18,4 -17,0 -30,-6 -38,-17 -8,-11 -12,-24 -12,-39 0,-17 5,-30 14,-41 10,-10 21,-16 33,-16 9,0 17,3 23,8 7,6 13,16 19,30l10 -35zm-14 49c-4,-16 -10,-28 -16,-34 -7,-6 -14,-9 -20,-9 -8,0 -14,4 -19,12 -5,8 -8,22 -8,40 0,10 1,19 4,25 2,6 5,11 9,14 5,3 9,5 14,5 6,0 11,-3 16,-8 7,-7 14,-23 20,-45z"/>
   <path id="1" class="fil1" d="M5521 200l-8 23 -70 0 0 -4c24,-22 40,-39 48,-53 5,-8 8,-17 8,-25 0,-7 -2,-13 -7,-18 -5,-5 -10,-7 -16,-7 -6,0 -11,2 -16,5 -4,3 -8,8 -10,15l-3 0c1,-11 5,-19 11,-25 6,-5 13,-8 22,-8 10,0 18,3 24,9 7,6 10,13 10,22 0,6 -2,12 -5,18 -4,9 -11,19 -21,29 -14,16 -23,25 -26,29l30 0c9,0 15,-1 18,-3 3,-1 6,-3 8,-7l3 0z"/>
   <path id="2" class="fil1" d="M5549 117l29 -14 3 0 0 99c0,7 0,11 1,12 0,2 1,3 3,4 2,1 5,1 11,1l0 4 -45 0 0 -4c6,0 9,0 11,-1 2,-1 3,-2 4,-4 0,-1 0,-5 0,-12l0 -63c0,-9 0,-15 0,-17 -1,-2 -2,-3 -3,-4 -1,-1 -2,-1 -4,-1 -2,0 -5,1 -8,2l-2 -2z"/>
   <polygon id="3" class="fil1" points="5645,96 5645,72 5668,72 5668,96 "/>
   <path id="4" class="fil1" d="M5758 169l-33 -169 22 0 20 101c3,18 6,33 7,44 7,-14 13,-25 18,-34l60 -111 23 0 -93 169 -24 0z"/>
   <path id="5" class="fil1" d="M5859 169l3 -16 66 -74c5,-5 10,-11 16,-16 -10,1 -17,1 -22,1l-45 0 3 -17 95 0 -2 13 -67 75c-4,4 -9,10 -17,17 12,-1 20,-1 24,-1l48 0 -3 18 -99 0z"/>
   <path id="6" class="fil1" d="M5970 217l36 -170 19 0 -3 17c7,-8 13,-13 19,-16 6,-3 11,-4 18,-4 12,0 21,4 29,13 8,8 12,20 12,36 0,13 -3,25 -7,35 -4,11 -9,19 -15,25 -7,7 -13,12 -19,15 -7,3 -13,4 -20,4 -14,0 -26,-7 -34,-22l-14 67 -21 0zm42 -98c0,10 0,16 2,19 1,5 5,9 9,12 4,3 10,5 15,5 12,0 22,-7 30,-20 7,-14 11,-28 11,-42 0,-10 -3,-18 -8,-24 -5,-5 -11,-8 -18,-8 -6,0 -11,1 -15,4 -5,3 -9,7 -13,13 -4,5 -7,12 -10,20 -2,8 -3,15 -3,21z"/>
   <path class="fil1" d="M5405 2340l20 0 -16 53c-1,3 -2,8 -4,15 3,12 5,19 6,22 3,4 7,6 11,6 3,0 6,-1 8,-4 3,-2 5,-6 5,-12l5 0c-1,11 -3,19 -7,23 -3,5 -7,7 -12,7 -5,0 -9,-2 -12,-6 -4,-4 -7,-11 -10,-24 -3,7 -7,12 -10,16 -4,4 -9,8 -15,10 -5,2 -11,4 -18,4 -17,0 -29,-6 -37,-17 -8,-12 -12,-25 -12,-39 0,-17 4,-31 14,-41 9,-11 20,-16 33,-16 9,0 16,3 23,8 7,6 13,16 18,30l10 -35zm-14 48c-4,-16 -9,-27 -16,-33 -6,-7 -13,-10 -20,-10 -7,0 -13,4 -18,13 -5,8 -8,21 -8,39 0,11 1,19 3,26 2,6 6,10 10,14 4,3 9,5 14,5 6,0 11,-3 16,-8 7,-8 13,-23 19,-46z"/>
   <path id="1" class="fil1" d="M5528 2477l-9 22 -69 0 0 -3c24,-22 40,-39 48,-53 5,-9 8,-17 8,-25 0,-7 -3,-13 -7,-18 -5,-5 -10,-7 -17,-7 -5,0 -11,1 -15,5 -5,3 -8,8 -10,15l-3 0c1,-11 5,-19 11,-25 6,-6 13,-9 22,-9 10,0 18,3 24,10 6,6 9,13 9,21 0,6 -1,12 -4,18 -4,10 -11,20 -21,30 -14,16 -23,25 -26,28l30 0c9,0 14,0 18,-2 3,-1 5,-4 7,-7l4 0z"/>
   <path id="2" class="fil1" d="M5616 2477l-8 22 -69 0 0 -3c24,-22 40,-39 48,-53 5,-9 7,-17 7,-25 0,-7 -2,-13 -7,-18 -4,-5 -9,-7 -16,-7 -6,0 -11,1 -15,5 -5,3 -8,8 -11,15l-3 0c2,-11 5,-19 11,-25 6,-6 14,-9 23,-9 9,0 17,3 24,10 6,6 9,13 9,21 0,6 -1,12 -4,18 -4,10 -11,20 -21,30 -14,16 -23,25 -27,28l31 0c8,0 14,0 17,-2 4,-1 6,-4 8,-7l3 0z"/>
   <polygon id="3" class="fil1" points="5651,2373 5651,2349 5675,2349 5675,2373 "/>
   <path id="4" class="fil1" d="M5765 2446l-33 -169 22 0 20 101c3,18 5,33 7,44 7,-14 13,-26 17,-34l61 -111 23 0 -93 169 -24 0z"/>
   <path id="5" class="fil1" d="M5865 2446l4 -16 66 -74c4,-5 10,-11 15,-17 -10,1 -17,2 -21,2l-46 0 4 -18 95 0 -3 14 -66 74c-4,5 -10,10 -17,18 12,-1 20,-1 24,-1l48 0 -4 18 -99 0z"/>
   <path id="6" class="fil1" d="M5987 2446l25 -123 20 0 -5 22c8,-9 16,-15 23,-19 8,-3 15,-5 23,-5 10,0 18,2 23,8 6,5 9,12 9,22 0,4 -1,11 -3,21l-17 74 -21 0 18 -78c1,-7 2,-13 2,-16 0,-4 -1,-8 -4,-10 -3,-3 -7,-4 -13,-4 -11,0 -20,4 -29,11 -8,8 -15,21 -19,40l-11 57 -21 0z"/>
  </g>
 </g>
</svg>
