<?xml version="1.0" encoding="UTF-8"?>
<!DOCTYPE svg PUBLIC "-//W3C//DTD SVG 1.1//EN" "http://www.w3.org/Graphics/SVG/1.1/DTD/svg11.dtd">
<!-- Creator: CorelDRAW Home & Student X8 -->
<svg xmlns="http://www.w3.org/2000/svg" xml:space="preserve" width="147.613mm" height="76.1763mm" version="1.1" style="shape-rendering:geometricPrecision; text-rendering:geometricPrecision; image-rendering:optimizeQuality; fill-rule:evenodd; clip-rule:evenodd"
viewBox="0 0 13336 6882"
 xmlns:xlink="http://www.w3.org/1999/xlink">
 <defs>
  <style type="text/css">
   <![CDATA[
    .str0 {stroke:#2B2A29;stroke-width:36.1365}
    .str1 {stroke:#2B2A29;stroke-width:18.0683}
    .fil0 {fill:none}
    .fil1 {fill:#2B2A29;fill-rule:nonzero}
   ]]>
  </style>
 </defs>
 <g id="Warstwa_x0020_1">
  <metadata id="CorelCorpID_0Corel-Layer"/>
  <g id="_704772576">
   <polygon class="fil0 str0" points="7642,1359 7642,5777 12046,3582 "/>
   <polyline class="fil0 str0" points="4492,1940 4435,2080 4321,1796 4208,2080 4095,1796 3982,2080 3868,1796 3812,1940 "/>
   <polyline class="fil0 str0" points="5983,1940 5926,2080 5813,1796 5699,2080 5586,1796 5473,2080 5359,1796 5303,1940 "/>
   <polyline class="fil0 str0" points="5983,4697 5926,4837 5813,4553 5699,4837 5586,4553 5473,4837 5359,4553 5303,4698 "/>
   <polyline class="fil0 str0" points="4492,4697 4435,4837 4321,4553 4208,4837 4095,4553 3982,4837 3868,4553 3812,4698 "/>
   <polyline class="fil0 str0" points="9655,5753 9598,5892 9485,5608 9371,5892 9258,5608 9145,5892 9031,5608 8975,5753 "/>
   <polyline class="fil0 str0" points="7108,5002 6968,4945 7252,4832 6968,4718 7252,4605 6968,4492 7252,4378 7108,4322 "/>
   <path class="fil0 str0" d="M6284 1567l548 0m-538 -248c185,173 325,171 506,-2"/>
   <path class="fil0 str0" d="M6832 5032l-548 0m539 248c-185,-173 -326,-171 -507,2"/>
   <polygon class="fil1" points="7976,1894 8041,1894 8041,1829 8096,1829 8096,1894 8162,1894 8162,1950 8096,1950 8096,2015 8041,2015 8041,1950 7976,1950 "/>
   <polygon class="fil1" points="10311,2978 10377,2978 10377,2912 10432,2912 10432,2978 10498,2978 10498,3033 10432,3033 10432,3098 10377,3098 10377,3033 10311,3033 "/>
   <polygon class="fil1" points="8665,4807 8731,4807 8731,4741 8786,4741 8786,4807 8851,4807 8851,4862 8786,4862 8786,4927 8731,4927 8731,4862 8665,4862 "/>
   <polygon class="fil1" points="7976,4103 8041,4103 8041,4037 8096,4037 8096,4103 8162,4103 8162,4158 8096,4158 8096,4224 8041,4224 8041,4158 7976,4158 "/>
   <polygon class="fil1" points="7975,3000 8153,3000 8153,3038 7975,3038 "/>
   <polygon class="fil1" points="10338,4111 10517,4111 10517,4149 10338,4149 "/>
   <polygon class="fil1" points="12420,4393 12599,4393 12599,4430 12420,4430 "/>
   <polyline class="fil0 str1" points="10976,3019 12074,3019 12074,276 9513,276 "/>
   <g>
    <path class="fil1" d="M4927 281l4417 0 0 18 -4417 0 -9 -9 9 -9zm-9 9l0 -9 9 0 -9 9zm0 1632l0 -1632 18 0 0 1632 -18 0zm73 0l0 0 0 3 0 3 -1 4 0 3 -1 3 -1 3 -1 3 -1 3 -1 3 -2 3 -1 2 -2 3 -2 2 -2 3 -2 2 -2 2 -2 2 -2 2 -3 2 -2 2 -3 2 -3 1 -2 2 -3 1 -3 1 -3 1 -3 1 -3 1 -3 0 -4 1 -3 0 -3 0 0 0 -3 0 -4 0 -3 -1 -3 0 -3 -1 -3 -1 -3 -1 -3 -1 -3 -1 -3 -2 -2 -1 -3 -2 -3 -2 -2 -2 -2 -2 -3 -2 -2 -2 -2 -2 -2 -3 -1 -2 -2 -3 -2 -2 -1 -3 -1 -3 -1 -3 -1 -3 -1 -3 -1 -3 -1 -3 0 -4 0 -3 0 -3 0 0 0 -3 0 -4 0 -3 1 -3 1 -3 1 -3 1 -3 1 -3 1 -3 1 -3 2 -2 2 -3 1 -2 2 -3 2 -2 2 -2 3 -3 2 -2 2 -1 3 -2 3 -2 2 -2 3 -1 3 -1 3 -1 3 -1 3 -1 3 -1 3 -1 3 0 4 0 3 0 0 0 3 0 3 0 4 0 3 1 3 1 3 1 3 1 3 1 3 1 2 1 3 2 3 2 2 2 3 1 2 2 2 3 2 2 2 2 2 3 2 2 2 3 1 2 2 3 1 3 1 3 1 3 1 3 1 3 0 3 1 3 0 4 0 3z"/>
   </g>
   <line class="fil0 str1" x1="6558" y1="1442" x2="6558" y2= "599" />
   <line class="fil0 str1" x1="7614" y1="1908" x2="5983" y2= "1908" />
   <g>
    <path class="fil1" d="M6523 1936l0 -3 0 -4 0 -3 1 -3 1 -3 1 -3 1 -3 1 -3 1 -3 1 -3 2 -2 2 -3 2 -2 1 -3 2 -2 3 -2 2 -3 2 -2 3 -1 2 -2 3 -2 2 -1 3 -2 3 -1 3 -1 3 -1 3 -1 3 -1 3 -1 3 0 4 0 3 0 0 0 3 0 4 0 3 0 3 1 3 1 3 1 3 1 3 1 3 1 3 2 2 1 3 2 2 2 3 1 2 2 2 3 2 2 3 2 1 3 2 2 2 3 1 2 2 3 1 3 1 3 1 3 1 3 1 3 0 3 1 3 0 4 0 3 0 0 0 3 0 4 -1 3 0 3 -1 3 -1 3 -1 3 -1 3 -1 3 -2 3 -1 2 -2 3 -2 2 -1 3 -3 2 -2 2 -2 2 -2 3 -3 1 -2 2 -3 2 -2 1 -3 2 -3 1 -3 1 -3 1 -3 1 -3 1 -3 0 -3 1 -4 0 -3 0 0 0 -3 0 -4 0 -3 -1 -3 0 -3 -1 -3 -1 -3 -1 -3 -1 -3 -1 -3 -2 -2 -1 -3 -2 -2 -2 -3 -1 -2 -3 -2 -2 -3 -2 -2 -2 -1 -3 -2 -2 -2 -3 -2 -2 -1 -3 -1 -3 -1 -3 -1 -3 -1 -3 -1 -3 -1 -3 0 -3 0 -4 0 -3 0 0zm73 -366l0 366 -18 0 0 -366 18 0z"/>
   </g>
   <path class="fil0 str0" d="M9525 548l0 -548m-248 539c173,-185 171,-326 -2,-507"/>
   <path class="fil0 str0" d="M9483 6879l0 -548m-249 539c174,-185 172,-326 -1,-507"/>
   <polygon class="fil1" points="12379,2753 12445,2753 12445,2687 12500,2687 12500,2753 12566,2753 12566,2808 12500,2808 12500,2873 12445,2873 12445,2808 12379,2808 "/>
   <line class="fil0 str1" x1="5303" y1="1940" x2="4492" y2= "1940" />
   <polygon class="fil1" points="9747,4393 9926,4393 9926,4430 9747,4430 "/>
   <polygon class="fil1" points="7989,5194 8168,5194 8168,5232 7989,5232 "/>
   <polyline class="fil0 str1" points="7656,3033 6545,3033 6545,4989 "/>
   <g>
    <path class="fil1" d="M6549 5974l0 -817 18 0 0 817 -18 0zm-75 0l0 -16 168 0 0 32 -168 0 0 -16z"/>
   </g>
   <g>
    <path class="fil1" d="M6559 4730l-3 -1 -4 0 -3 0 -3 -1 -3 -1 -3 0 -3 -1 -3 -2 -3 -1 -3 -1 -2 -2 -3 -1 -3 -2 -2 -2 -2 -2 -3 -2 -2 -3 -2 -2 -2 -2 -1 -3 -2 -2 -2 -3 -1 -3 -1 -3 -2 -3 -1 -3 0 -3 -1 -3 -1 -3 0 -3 0 -3 0 -4 0 0 0 -3 0 -3 0 -4 1 -3 1 -3 0 -3 1 -3 2 -3 1 -3 1 -2 2 -3 2 -3 1 -2 2 -3 2 -2 2 -2 3 -2 2 -2 2 -2 3 -2 3 -2 2 -1 3 -2 3 -1 3 -1 3 -1 3 -1 3 -1 3 0 3 -1 4 0 3 0 0 0 3 0 3 0 4 1 3 0 3 1 3 1 3 1 3 1 3 1 2 2 3 1 3 2 2 2 3 2 2 2 2 2 2 2 2 2 2 3 2 2 2 3 1 3 2 2 1 3 1 3 1 3 1 3 1 3 0 3 1 4 0 3 0 3 0 0 0 4 0 3 -1 3 0 3 -1 3 -1 3 -1 3 -1 3 -1 3 -2 3 -1 3 -2 2 -2 3 -2 2 -2 2 -2 3 -2 2 -2 2 -3 2 -2 2 -3 1 -3 2 -2 1 -3 1 -3 2 -3 1 -3 0 -3 1 -3 1 -4 0 -3 0 -3 1 0 0zm-576 -74l576 0 0 18 -576 0 0 -18z"/>
   </g>
   <line class="fil0 str1" x1="5303" y1="4698" x2="4492" y2= "4698" />
   <polyline class="fil0 str1" points="7684,4145 7107,4145 7107,4322 "/>
   <polyline class="fil0 str1" points="7630,5228 7122,5228 7122,5001 "/>
   <polyline class="fil0 str1" points="9851,4720 9851,5763 9654,5763 "/>
   <polyline class="fil0 str1" points="8725,5235 8725,5763 8975,5763 "/>
   <polyline class="fil0 str1" points="10976,4103 12046,4103 12046,6593 9527,6593 "/>
   <g>
    <path class="fil1" d="M4884 6596l4474 0 0 18 -4474 0 -9 -9 9 -9zm0 18l-9 0 0 -9 9 9zm10 -1916l0 1907 -19 0 0 -1907 19 0zm-74 0l0 0 0 -4 1 -3 0 -3 1 -3 0 -3 1 -3 1 -3 1 -3 2 -3 1 -3 2 -3 1 -2 2 -3 2 -2 2 -2 2 -3 2 -2 3 -2 2 -2 3 -2 2 -1 3 -2 3 -1 3 -2 2 -1 3 -1 3 -1 4 0 3 -1 3 0 3 -1 3 0 0 0 4 0 3 1 3 0 3 1 4 0 3 1 3 1 2 1 3 2 3 1 3 2 2 1 3 2 2 2 3 2 2 2 2 3 2 2 2 2 2 3 1 2 2 3 1 3 2 3 1 3 1 3 1 3 0 3 1 3 0 3 1 3 0 4 0 0 0 3 -1 3 0 3 -1 4 0 3 -1 3 -1 3 -1 3 -2 2 -1 3 -2 3 -1 3 -2 2 -2 2 -2 3 -2 2 -2 2 -3 2 -2 2 -3 2 -2 2 -3 1 -3 2 -3 1 -2 1 -3 1 -3 1 -4 1 -3 0 -3 1 -3 0 -4 0 0 0 -3 0 -3 0 -3 -1 -3 0 -4 -1 -3 -1 -3 -1 -2 -1 -3 -1 -3 -2 -3 -1 -2 -2 -3 -2 -2 -2 -3 -2 -2 -2 -2 -2 -2 -3 -2 -2 -2 -2 -1 -3 -2 -3 -1 -3 -2 -2 -1 -3 -1 -3 -1 -3 0 -3 -1 -4 0 -3 -1 -3 0 -3z"/>
   </g>
   <path class="fil1" d="M8271 4587l90 133c15,22 25,36 31,41 7,5 14,8 23,8l0 9 -159 0 0 -9c13,0 21,-2 25,-5 3,-3 5,-7 5,-11 0,-3 0,-5 -1,-8 -3,-5 -8,-14 -17,-27l-47 -69 -50 60c-15,18 -22,31 -22,37 0,5 2,9 6,13 4,4 9,7 17,9 3,1 10,1 20,1l0 9 -124 0 0 -9c14,-2 25,-5 33,-11 11,-8 26,-23 45,-46l64 -79 -82 -121c-14,-20 -21,-32 -23,-34 -5,-5 -9,-9 -13,-11 -4,-2 -10,-4 -17,-5l0 -9 161 0 0 9 -9 0c-9,0 -15,1 -19,4 -4,3 -5,7 -5,11 0,4 0,7 1,10l17 25 40 60 34 -41c17,-22 26,-37 26,-45 0,-5 -1,-9 -4,-12 -2,-4 -6,-7 -10,-9 -5,-2 -12,-3 -22,-3l0 -9 119 0 0 9c-9,0 -16,1 -22,3 -6,2 -12,7 -19,12 -4,4 -14,16 -31,36l-61 74z"/>
   <path class="fil1" d="M8384 2357l0 9c-11,1 -19,4 -25,9 -7,7 -20,25 -37,55l-71 118 0 78c0,17 1,28 3,32 2,4 5,7 10,11 5,3 12,4 21,4l18 0 0 9 -181 0 0 -9 17 0c9,0 17,-1 22,-5 4,-2 7,-6 10,-11 2,-4 3,-14 3,-31l0 -65 -77 -139c-15,-28 -26,-44 -32,-49 -6,-5 -14,-7 -25,-7l0 -9 156 0 0 9 -7 0c-10,0 -16,1 -20,4 -4,2 -6,5 -6,8 0,6 7,21 19,44l59 107 59 -97c14,-24 21,-40 21,-48 0,-5 -2,-8 -6,-11 -5,-4 -15,-7 -30,-7l0 -9 99 0z"/>
   <path class="fil1" d="M9432 4200l-190 306 61 0c29,0 50,-1 61,-5 19,-6 36,-16 49,-32 14,-15 23,-36 29,-62l9 0 -13 118 -297 0 191 -307 -48 0c-19,0 -31,0 -37,1 -11,3 -21,7 -31,13 -10,6 -18,14 -25,24 -6,10 -11,23 -15,39l-9 0 9 -95 256 0z"/>
   <path class="fil1" d="M10631 3398l0 9c-6,0 -11,2 -15,5 -4,3 -8,7 -11,13 -1,2 -6,15 -15,37l-101 268 -9 0 -80 -211 -89 211 -9 0 -107 -265c-11,-27 -18,-43 -22,-49 -5,-5 -12,-8 -22,-9l0 -9 140 0 0 9c-11,0 -18,2 -22,5 -4,3 -6,7 -6,11 0,7 4,20 12,39l63 158 52 -125 -13 -33c-7,-19 -13,-32 -17,-38 -4,-6 -9,-11 -14,-13 -5,-3 -12,-4 -23,-4l0 -9 156 0 0 9c-11,0 -19,1 -23,2 -4,1 -6,3 -8,6 -2,3 -3,6 -3,9 0,4 3,15 11,34l59 154 52 -139c6,-15 9,-25 11,-30 1,-5 1,-10 1,-15 0,-6 -2,-11 -6,-15 -5,-4 -13,-6 -26,-6l0 -9 84 0z"/>
   <path class="fil1" d="M4042 4220l-28 99c-4,14 -6,24 -6,31 0,6 2,11 7,14 5,4 15,6 31,6l-3 9 -156 0 3 -9c15,0 27,-3 34,-9 7,-6 14,-20 20,-41l60 -208c3,-12 4,-21 4,-28 0,-6 -2,-11 -6,-15 -4,-3 -14,-5 -29,-6l3 -9 134 0c39,0 66,7 81,20 16,14 24,31 24,52 0,22 -9,42 -28,60 -11,11 -32,21 -61,29l29 98c7,27 14,43 20,49 6,5 16,8 29,8l0 9 -101 0 -45 -159 -8 1c-2,0 -4,0 -8,-1zm4 -14c6,0 10,1 14,1 23,0 42,-8 56,-24 15,-16 22,-37 22,-63 0,-15 -4,-27 -11,-35 -8,-8 -19,-12 -32,-12 -3,0 -6,0 -11,0l-38 133z"/>
   <path id="1" class="fil1" d="M4448 4048l-80 272c-5,14 -7,23 -7,27 0,4 2,8 5,12 3,4 6,7 9,8 4,1 14,2 31,3l-2 9 -164 0 3 -9c16,0 27,-1 34,-4 6,-2 11,-6 15,-11 4,-6 9,-17 14,-35l48 -161c7,-25 11,-38 11,-39 1,-5 2,-9 2,-12 0,-7 -2,-13 -7,-17 -4,-5 -11,-7 -19,-7 -4,0 -12,1 -24,2l-1 -9 122 -29 10 0z"/>
   <path class="fil1" d="M5453 1436l-28 98c-5,14 -7,25 -7,31 0,6 3,11 8,15 5,4 15,6 31,6l-4 8 -156 0 3 -8c16,0 27,-3 34,-9 8,-6 14,-20 20,-41l60 -208c3,-12 5,-21 5,-28 0,-7 -2,-12 -6,-15 -4,-3 -14,-6 -29,-7l2 -8 135 0c38,0 65,7 81,20 15,13 23,31 23,52 0,22 -9,42 -27,60 -12,11 -32,20 -62,29l29 98c8,27 15,43 21,48 5,6 15,9 29,9l0 8 -101 0 -46 -158 -8 0c-1,0 -4,0 -7,0zm4 -14c5,0 10,0 14,0 22,0 41,-8 56,-24 15,-16 22,-37 22,-63 0,-15 -4,-26 -12,-34 -8,-8 -18,-12 -31,-12 -3,0 -7,0 -11,0l-38 133z"/>
   <path id="1" class="fil1" d="M5813 1594l-172 0 0 -8c45,-42 82,-80 113,-115 26,-29 42,-51 49,-66 6,-15 10,-30 10,-46 0,-14 -5,-26 -14,-35 -9,-9 -21,-14 -34,-14 -22,0 -41,12 -57,37l-9 -4c8,-24 19,-42 32,-54 19,-17 40,-25 65,-25 23,0 42,7 57,21 15,14 22,30 22,49 0,17 -3,33 -11,49 -7,16 -22,36 -45,60 -18,19 -53,51 -107,97l63 0c20,0 34,-3 42,-7 8,-5 15,-14 22,-28l12 0 -38 89z"/>
   <path class="fil1" d="M9577 664l-24 103 -9 0c-1,-28 -8,-49 -20,-63 -13,-14 -30,-21 -51,-21 -22,0 -44,10 -66,29 -22,19 -41,47 -56,86 -13,32 -19,63 -19,93 0,28 7,49 20,63 14,15 33,22 56,22 20,0 37,-4 53,-12 16,-9 32,-22 48,-41l11 0c-20,30 -40,51 -60,62 -20,12 -45,18 -74,18 -39,0 -71,-11 -94,-35 -24,-24 -36,-55 -36,-93 0,-36 9,-70 28,-102 19,-32 47,-59 82,-79 36,-20 72,-30 107,-30 13,0 30,3 50,9 10,2 17,4 21,4 8,0 16,-4 24,-13l9 0z"/>
   <path id="1" class="fil1" d="M9770 665l-81 272c-4,15 -6,24 -6,28 0,3 2,7 5,11 3,5 6,7 9,8 4,2 14,3 31,4l-2 8 -164 0 3 -8c16,-1 27,-2 33,-4 7,-3 12,-7 16,-12 4,-6 9,-17 14,-35l48 -161c7,-25 11,-38 11,-39 1,-4 2,-8 2,-12 0,-7 -3,-13 -7,-17 -4,-4 -11,-6 -19,-6 -4,0 -12,0 -24,1l-2 -8 123 -30 10 0z"/>
   <path class="fil1" d="M7168 1043l-24 103 -9 0c-1,-29 -8,-50 -21,-63 -13,-14 -29,-21 -50,-21 -22,0 -44,9 -66,28 -22,19 -41,48 -57,87 -12,31 -18,62 -18,93 0,27 7,48 20,63 14,14 33,21 56,21 19,0 37,-4 53,-12 15,-8 31,-22 48,-40l11 0c-20,29 -40,50 -60,62 -20,12 -45,18 -74,18 -39,0 -71,-12 -95,-36 -24,-23 -35,-54 -35,-92 0,-36 9,-70 28,-103 19,-32 46,-58 82,-78 36,-20 71,-30 107,-30 13,0 30,3 50,8 10,3 17,4 21,4 8,0 16,-4 24,-12l9 0z"/>
   <path id="1" class="fil1" d="M7315 1375l-172 0 0 -9c45,-42 83,-80 113,-115 26,-28 42,-50 49,-66 6,-15 10,-30 10,-46 0,-14 -5,-26 -14,-35 -9,-9 -21,-14 -34,-14 -22,0 -41,12 -57,37l-9 -4c8,-24 19,-42 32,-54 19,-17 40,-25 65,-25 23,0 42,7 57,21 15,14 22,31 22,49 0,17 -3,33 -11,49 -7,16 -22,36 -45,60 -18,19 -53,51 -107,97l63 0c20,0 34,-3 42,-7 8,-5 16,-14 23,-28l11 0 -38 90z"/>
   <path class="fil1" d="M9313 5496l-141 0 3 -8c9,-1 16,-4 21,-8 4,-5 6,-10 6,-17 0,-7 -2,-19 -7,-35l-35 -110 -34 119c-4,13 -5,22 -5,28 0,7 2,12 7,17 6,4 15,6 29,6l-3 8 -157 0 3 -8c12,0 22,-2 28,-5 6,-3 11,-8 15,-14 3,-7 8,-19 13,-37l54 -189c6,-22 9,-36 9,-42 0,-5 -2,-10 -7,-14 -5,-4 -15,-6 -29,-7l3 -8 152 0 -2 8c-10,0 -18,2 -24,5 -7,4 -13,10 -17,18 -3,6 -7,18 -12,37l-23 78 85 -78c16,-15 26,-24 27,-27 3,-5 4,-9 4,-13 0,-5 -1,-9 -5,-13 -3,-3 -9,-6 -18,-7l3 -8 122 0 -3 8c-9,1 -17,2 -23,4 -7,3 -16,7 -26,13 -10,7 -21,14 -31,22l-22 21 -51 46 38 120c12,39 22,63 29,70 7,7 16,11 27,12l-3 8z"/>
   <path id="1" class="fil1" d="M9480 5338l-29 98c-4,14 -6,25 -6,31 0,6 3,11 7,15 5,4 16,6 31,6l-3 8 -156 0 3 -8c16,0 27,-3 34,-9 7,-6 14,-20 20,-41l60 -209c3,-11 5,-21 5,-27 0,-7 -2,-12 -6,-15 -5,-4 -14,-6 -29,-7l2 -8 134 0c39,0 66,7 82,20 15,13 23,30 23,52 0,22 -9,42 -27,59 -12,12 -33,21 -62,29l29 99c8,26 15,42 20,48 6,5 16,8 29,9l0 8 -100 0 -46 -158 -8 0c-2,0 -4,0 -7,0zm4 -14c5,0 10,0 13,0 23,0 42,-8 57,-24 14,-16 22,-37 22,-63 0,-15 -4,-27 -12,-35 -8,-8 -18,-12 -31,-12 -3,0 -7,1 -11,1l-38 133z"/>
   <path class="fil1" d="M4006 1472l-29 99c-4,14 -6,24 -6,31 0,6 3,11 8,15 5,3 15,5 30,6l-3 8 -156 0 3 -8c16,0 27,-3 34,-10 7,-6 14,-19 20,-41l60 -208c3,-12 5,-21 5,-28 0,-6 -2,-11 -6,-14 -5,-4 -14,-6 -29,-7l2 -8 135 0c38,0 65,6 81,20 15,13 23,30 23,51 0,22 -9,42 -27,60 -12,11 -32,21 -62,29l29 99c8,26 15,42 20,48 6,5 16,8 29,9l0 8 -100 0 -46 -159 -8 1c-1,0 -4,0 -7,-1zm4 -14c5,1 10,1 13,1 23,0 42,-8 57,-24 14,-16 22,-37 22,-63 0,-15 -4,-27 -12,-35 -8,-8 -18,-12 -31,-12 -3,0 -7,0 -11,0l-38 133z"/>
   <path id="1" class="fil1" d="M4411 1300l-80 272c-4,15 -6,24 -6,28 0,3 1,7 4,11 3,5 6,7 10,8 3,2 13,3 31,4l-3 8 -164 0 3 -8c16,-1 28,-2 34,-4 6,-3 11,-7 16,-12 4,-6 8,-17 13,-35l48 -161c7,-25 11,-38 12,-39 1,-4 1,-8 1,-12 0,-7 -2,-13 -7,-17 -4,-4 -10,-6 -18,-6 -4,0 -12,0 -24,1l-2 -8 122 -30 10 0z"/>
   <path class="fil1" d="M5508 4239l-28 98c-5,14 -7,24 -7,31 0,6 3,11 8,15 5,3 15,5 30,6l-3 8 -156 0 3 -8c16,0 27,-3 34,-9 8,-7 14,-20 20,-42l60 -208c3,-11 5,-21 5,-27 0,-7 -2,-12 -6,-15 -4,-4 -14,-6 -29,-7l2 -8 135 0c38,0 65,6 81,20 15,13 23,30 23,51 0,22 -9,42 -27,60 -12,11 -32,21 -62,29l29 99c8,26 15,42 21,48 5,5 15,8 29,9l0 8 -101 0 -46 -158 -8 0c-1,0 -4,0 -7,0zm4 -15c5,1 10,1 14,1 22,0 41,-8 56,-24 15,-16 22,-37 22,-63 0,-15 -4,-27 -12,-35 -8,-8 -18,-12 -31,-12 -3,0 -7,0 -11,1l-38 132z"/>
   <path id="1" class="fil1" d="M5868 4397l-172 0 0 -9c45,-41 82,-79 113,-114 26,-29 42,-51 49,-66 6,-15 10,-31 10,-46 0,-15 -5,-26 -14,-36 -9,-9 -21,-13 -34,-13 -23,0 -42,12 -57,36l-9 -4c8,-23 19,-41 32,-53 19,-17 40,-26 65,-26 23,0 42,7 57,22 15,14 22,30 22,49 0,16 -3,33 -11,48 -7,17 -22,37 -45,61 -18,18 -53,50 -107,96l63 0c20,0 34,-2 42,-7 8,-4 15,-13 22,-27l12 0 -38 89z"/>
   <path class="fil1" d="M9943 6087l-24 102 -8 0c-1,-28 -8,-49 -21,-63 -13,-13 -30,-20 -50,-20 -23,0 -45,9 -67,28 -22,19 -41,48 -56,87 -12,31 -19,62 -19,93 0,27 7,48 21,63 13,14 32,21 56,21 19,0 37,-4 52,-12 16,-8 32,-22 48,-41l11 0c-19,30 -39,51 -60,63 -20,12 -44,18 -74,18 -39,0 -70,-12 -94,-36 -24,-23 -36,-54 -36,-92 0,-36 10,-70 29,-103 19,-32 46,-58 82,-78 35,-20 71,-30 106,-30 14,0 30,2 50,8 10,3 18,4 22,4 8,0 16,-4 24,-12l8 0z"/>
   <path id="1" class="fil1" d="M10136 6088l-80 272c-4,14 -6,23 -6,27 0,4 1,8 4,12 3,4 6,7 10,8 3,1 13,2 30,3l-2 8 -164 0 3 -8c16,0 27,-2 34,-4 6,-2 11,-6 15,-12 5,-5 9,-17 14,-34l48 -162c7,-24 11,-37 12,-39 1,-4 1,-8 1,-12 0,-7 -2,-13 -7,-17 -4,-4 -10,-6 -18,-6 -4,0 -12,0 -24,2l-2 -9 122 -29 10 0z"/>
   <path class="fil1" d="M5995 5156l-24 103 -8 0c-1,-28 -8,-49 -21,-63 -13,-14 -30,-21 -50,-21 -23,0 -45,10 -67,28 -22,19 -41,48 -56,87 -12,31 -19,62 -19,93 0,28 7,49 21,63 13,14 32,22 56,22 19,0 36,-4 52,-13 16,-8 32,-21 48,-40l11 0c-20,29 -39,50 -60,62 -20,12 -44,18 -74,18 -39,0 -70,-12 -94,-35 -24,-24 -36,-55 -36,-93 0,-36 10,-70 29,-102 19,-33 46,-59 82,-79 35,-20 71,-30 106,-30 14,0 30,3 50,8 10,3 18,5 22,5 8,0 16,-5 24,-13l8 0z"/>
   <path id="1" class="fil1" d="M6143 5488l-172 0 0 -9c44,-41 82,-80 113,-114 26,-29 42,-51 48,-66 7,-16 10,-31 10,-47 0,-14 -4,-26 -13,-35 -10,-9 -21,-14 -35,-14 -22,0 -41,13 -57,37l-8 -4c8,-24 19,-41 32,-54 18,-17 40,-25 64,-25 23,0 42,7 57,21 15,14 23,31 23,50 0,16 -4,32 -11,48 -7,16 -22,36 -45,60 -18,19 -54,51 -107,97l63 0c19,0 34,-2 42,-7 8,-4 15,-14 22,-27l11 0 -37 89z"/>
   <path class="fil1" d="M7138 3781l-28 98c-4,14 -6,24 -6,31 0,6 2,11 7,15 5,3 15,6 31,6l-3 8 -156 0 2 -8c16,0 28,-3 35,-9 7,-7 14,-20 20,-41l59 -209c4,-11 5,-21 5,-27 0,-7 -2,-12 -6,-15 -4,-4 -14,-6 -29,-7l3 -8 134 0c39,0 66,6 81,20 16,13 24,30 24,51 0,23 -10,42 -28,60 -11,12 -32,21 -61,29l29 99c7,26 14,42 20,48 6,5 15,8 29,9l0 8 -101 0 -45 -158 -8 0c-2,0 -4,0 -8,0zm4 -15c6,1 10,1 14,1 23,0 42,-8 56,-24 15,-16 22,-37 22,-63 0,-15 -4,-27 -12,-35 -7,-8 -18,-12 -31,-12 -3,0 -7,0 -11,1l-38 132z"/>
   <path class="fil1" d="M12165 3635l26 -270c1,-14 2,-23 2,-28 0,-7 -3,-13 -8,-18 -5,-5 -14,-7 -25,-7l-9 0 3 -9 128 0 -3 9c-14,0 -23,2 -29,4 -5,3 -9,8 -12,14 -1,4 -3,14 -5,31l-19 193 127 -172c14,-19 22,-32 26,-40 2,-5 4,-9 4,-13 0,-4 -2,-8 -6,-11 -4,-3 -10,-5 -21,-6l3 -9 97 0 -2 9c-8,1 -14,2 -19,5 -8,4 -17,10 -26,19 -8,8 -22,25 -41,51l-182 248 -9 0z"/>
   <path id="1" class="fil1" d="M12562 3496c15,0 29,3 41,10 12,6 21,16 28,29 6,13 10,27 10,41 0,25 -8,51 -22,78 -14,27 -33,48 -56,62 -24,15 -48,22 -72,22 -18,0 -33,-4 -45,-12 -12,-8 -21,-18 -27,-31 -6,-13 -9,-26 -9,-38 0,-22 6,-43 16,-64 10,-21 23,-39 37,-53 15,-14 30,-25 47,-33 16,-8 33,-11 52,-11zm-6 10c-12,0 -23,3 -34,9 -11,6 -22,15 -32,28 -11,12 -21,29 -29,50 -11,25 -16,50 -16,72 0,16 4,31 13,43 8,13 21,19 38,19 10,0 21,-3 31,-8 10,-5 20,-14 31,-26 13,-16 25,-36 34,-60 9,-24 14,-47 14,-68 0,-15 -4,-29 -12,-41 -9,-12 -21,-18 -38,-18z"/>
   <path id="2" class="fil1" d="M12843 3488l-60 206c-4,11 -5,18 -5,22 0,1 0,2 1,2 0,1 1,2 2,2 1,0 2,-1 3,-2 3,-3 7,-9 13,-20l6 3c-6,11 -13,20 -20,26 -7,6 -13,9 -19,9 -3,0 -6,-1 -8,-4 -3,-2 -4,-6 -4,-11 0,-7 2,-15 5,-26l7 -22c-19,26 -35,44 -50,53 -10,7 -20,10 -30,10 -9,0 -17,-3 -25,-11 -7,-8 -10,-18 -10,-31 0,-17 6,-35 17,-55 12,-19 28,-34 47,-46 15,-10 29,-15 42,-15 6,0 12,1 17,4 5,2 9,6 14,12l16 -56c2,-6 4,-12 5,-15 1,-5 2,-9 2,-12 0,-2 -1,-4 -3,-6 -2,-2 -5,-3 -9,-3 -3,0 -7,1 -13,2l0 -7 59 -9zm-66 123c0,-7 -2,-13 -7,-18 -5,-4 -11,-7 -18,-7 -16,0 -32,12 -49,36 -18,24 -26,47 -26,68 0,9 2,15 6,20 5,4 10,6 16,6 14,0 30,-12 49,-38 19,-26 29,-48 29,-67z"/>
   <g>
    <path class="fil1" d="M13243 2914l93 226 0 0 -6 -3 -6 -3 -6 -2 -6 -3 -6 -2 -6 -2 -6 -2 -6 -2 -6 -1 -6 -1 -6 -2 -6 0 -6 -1 -6 -1 -6 0 -6 0 -6 0 -6 0 -7 0 -6 1 -6 1 -6 1 -6 1 -6 1 -6 2 -6 1 -6 2 -6 2 -6 2 -6 3 -6 3 -6 2 100 -223zm-29 1327l18 -1214 18 0 -18 1214 -18 0z"/>
   </g>
   <g>
    <path class="fil1" d="M6567 599l0 843 -18 0 0 -843 18 0zm75 0l0 17 -168 0 0 -33 168 0 0 16z"/>
   </g>
   <g>
    <path class="fil1" d="M4950 2366l0 -5c30,-5 52,-14 67,-27 11,-10 16,-21 16,-34 0,-10 -3,-18 -9,-25 -7,-6 -14,-9 -23,-9 -14,0 -26,8 -37,25l-7 -1c7,-15 15,-26 25,-33 10,-7 21,-11 33,-11 15,0 27,4 36,13 9,9 14,20 14,33 0,12 -5,23 -13,33 -9,11 -23,20 -44,29 13,5 23,13 29,23 7,10 10,22 10,36 0,16 -4,31 -13,47 -9,15 -22,27 -37,36 -16,8 -32,13 -50,13 -15,0 -27,-3 -35,-9 -6,-3 -8,-8 -8,-13 0,-4 1,-8 4,-11 4,-3 8,-4 12,-4 3,0 7,0 10,1 2,1 7,3 15,8 7,4 13,7 18,8 4,2 9,2 13,2 12,0 21,-6 28,-19 7,-13 11,-27 11,-42 0,-11 -2,-22 -7,-31 -5,-10 -13,-17 -24,-23 -10,-6 -22,-9 -34,-10z"/>
    <circle class="fil0 str1" cx="4984" cy="2377" r="192"/>
   </g>
   <g>
    <path class="fil1" d="M4985 4132l-47 166 30 0 -7 23 -30 0 -20 68 -27 0 19 -68 -92 0 8 -26 152 -163 14 0zm-41 48l-109 118 75 0 34 -118z"/>
    <circle class="fil0 str1" cx="4912" cy="4248" r="192"/>
   </g>
   <g>
    <path class="fil1" d="M6600 2227l84 0 -8 31 -77 0 -14 31c21,3 36,10 48,19 17,15 26,35 26,61 0,17 -3,33 -10,47 -6,14 -14,26 -23,35 -10,10 -20,17 -30,23 -15,7 -29,11 -44,11 -12,0 -22,-3 -30,-8 -5,-4 -7,-9 -7,-14 0,-5 2,-9 5,-12 3,-3 7,-4 12,-4 6,0 14,3 22,9 5,5 9,7 12,9 3,1 6,1 9,1 14,0 27,-7 39,-21 12,-14 18,-32 18,-54 0,-16 -3,-29 -9,-40 -7,-11 -15,-19 -24,-23 -10,-5 -23,-8 -39,-10l40 -91z"/>
    <circle class="fil0 str1" cx="6600" cy="2356" r="192"/>
   </g>
   <g>
    <path class="fil1" d="M11678 2535l126 0 0 7 -142 251 -15 -7 124 -221 -60 0c-17,0 -28,2 -34,4 -6,3 -13,10 -21,22l-8 0 30 -56z"/>
    <circle class="fil0 str1" cx="11725" cy="2664" r="192"/>
   </g>
   <g>
    <path class="fil1" d="M11738 4498c12,13 20,25 26,36 5,12 8,23 8,34 0,20 -8,38 -23,53 -15,15 -34,23 -57,23 -21,0 -37,-6 -50,-18 -13,-13 -19,-27 -19,-44 0,-14 5,-27 16,-41 10,-14 30,-27 58,-39 -11,-14 -18,-25 -22,-34 -4,-9 -6,-17 -6,-26 0,-17 6,-31 19,-43 12,-12 28,-18 46,-18 18,0 33,5 45,16 11,10 17,22 17,36 0,14 -5,26 -14,37 -9,11 -24,21 -44,28zm-8 -8c14,-5 24,-12 32,-23 7,-10 11,-22 11,-36 0,-12 -4,-22 -11,-30 -7,-7 -17,-11 -28,-11 -11,0 -20,4 -27,11 -7,7 -11,16 -11,27 0,8 2,16 6,23 5,11 15,24 28,39zm-26 19c-18,8 -32,19 -42,34 -9,15 -14,30 -14,47 0,14 4,25 13,33 8,8 19,12 33,12 14,0 26,-5 36,-15 9,-10 14,-22 14,-35 0,-11 -3,-22 -8,-33 -6,-12 -16,-26 -32,-43z"/>
    <circle class="fil0 str1" cx="11709" cy="4513" r="192"/>
   </g>
   <polyline class="fil0 str0" points="9655,5753 9598,5892 9485,5608 9371,5892 9258,5608 9145,5892 9031,5608 8975,5753 "/>
   <path class="fil0 str0" d="M9525 548l0 -548m-248 539c173,-185 171,-326 -2,-507"/>
   <polyline class="fil0 str1" points="9851,4720 9851,5763 9654,5763 "/>
   <polyline class="fil0 str1" points="8725,5235 8725,5763 8975,5763 "/>
   <g>
    <circle class="fil0 str1" cx="6267" cy="4234" r="192"/>
    <path class="fil1" d="M6355 4103l0 7c-21,5 -42,16 -62,32 -20,16 -37,36 -52,61 13,-5 24,-8 32,-8 16,0 30,5 41,17 11,11 17,27 17,46 0,30 -10,55 -29,76 -19,21 -40,32 -62,32 -20,0 -35,-8 -46,-23 -10,-15 -15,-32 -15,-51 0,-26 5,-51 17,-76 12,-25 28,-46 48,-64 20,-17 41,-31 63,-39 13,-5 29,-8 48,-10zm-123 116c-18,38 -27,69 -27,95 0,13 3,24 10,31 7,8 15,12 23,12 15,0 28,-11 40,-31 13,-21 19,-45 19,-73 0,-14 -4,-26 -11,-33 -7,-8 -16,-12 -26,-12 -4,0 -9,0 -13,2 -3,1 -9,4 -15,9z"/>
   </g>
   <g>
    <path class="fil1" d="M6219 681c16,0 29,7 40,20 11,13 17,34 17,63 0,25 -4,50 -13,76 -8,25 -19,47 -34,66 -11,15 -24,26 -37,32 -7,4 -16,6 -26,6 -16,0 -29,-7 -40,-20 -11,-13 -16,-35 -16,-63 0,-29 5,-57 16,-86 13,-34 29,-59 49,-77 13,-11 28,-17 44,-17zm0 10c-7,0 -14,2 -22,8 -7,6 -15,18 -23,36 -8,18 -15,41 -22,69 -10,37 -15,68 -15,94 0,13 3,23 9,29 6,7 12,10 20,10 8,0 14,-3 20,-7 14,-14 26,-37 37,-69 16,-54 25,-97 25,-130 0,-14 -3,-24 -9,-31 -5,-6 -12,-9 -20,-9z"/>
    <circle class="fil0 str1" cx="6193" cy="812" r="192"/>
   </g>
   <g>
    <path class="fil1" d="M6219 5812c16,0 29,7 40,20 11,13 17,34 17,63 0,25 -4,50 -13,75 -8,26 -19,48 -34,67 -11,15 -24,26 -37,32 -7,4 -16,6 -26,6 -16,0 -29,-7 -40,-20 -11,-13 -16,-35 -16,-63 0,-29 5,-58 16,-86 13,-34 29,-59 49,-77 13,-11 28,-17 44,-17zm0 10c-7,0 -14,2 -22,8 -7,6 -15,18 -23,35 -8,18 -15,42 -22,70 -10,37 -15,68 -15,94 0,13 3,23 9,29 6,7 12,10 20,10 8,0 14,-3 20,-8 14,-13 26,-36 37,-68 16,-54 25,-97 25,-130 0,-14 -3,-24 -9,-31 -5,-6 -12,-9 -20,-9z"/>
    <circle class="fil0 str1" cx="6193" cy="5943" r="192"/>
   </g>
   <polyline class="fil0 str1" points="3775,1909 3216,1909 3216,847 1626,847 1626,1508 "/>
   <polyline class="fil0 str1" points="3775,4666 3230,4666 3230,5009 1626,5009 1626,4348 "/>
   <g>
    <ellipse class="fil0 str0" cx="1626" cy="2024" rx="512" ry="516"/>
    <polygon class="fil1" points="1529,1686 1594,1686 1594,1620 1649,1620 1649,1686 1715,1686 1715,1741 1649,1741 1649,1806 1594,1806 1594,1741 1529,1741 "/>
    <polygon class="fil1" points="1542,2355 1721,2355 1721,2393 1542,2393 "/>
    <ellipse class="fil0 str0" cx="1626" cy="2024" rx="512" ry="516"/>
    <polygon class="fil1" points="1529,1686 1594,1686 1594,1620 1649,1620 1649,1686 1715,1686 1715,1741 1649,1741 1649,1806 1594,1806 1594,1741 1529,1741 "/>
    <polygon class="fil1" points="1542,2355 1721,2355 1721,2393 1542,2393 "/>
   </g>
   <g>
    <ellipse class="fil0 str0" cx="1626" cy="3821" rx="512" ry="516"/>
    <polygon class="fil1" points="1529,3483 1594,3483 1594,3418 1649,3418 1649,3483 1715,3483 1715,3539 1649,3539 1649,3604 1594,3604 1594,3539 1529,3539 "/>
    <polygon class="fil1" points="1542,4153 1721,4153 1721,4190 1542,4190 "/>
    <ellipse class="fil0 str0" cx="1626" cy="3821" rx="512" ry="516"/>
    <polygon class="fil1" points="1529,3483 1594,3483 1594,3418 1649,3418 1649,3483 1715,3483 1715,3539 1649,3539 1649,3604 1594,3604 1594,3539 1529,3539 "/>
    <polygon class="fil1" points="1542,4153 1721,4153 1721,4190 1542,4190 "/>
   </g>
   <line class="fil0 str1" x1="1626" y1="3306" x2="1626" y2= "2539" />
   <g>
    <path class="fil1" d="M1627 3020l-4 -1 -3 0 -3 0 -3 -1 -3 0 -3 -1 -3 -1 -3 -2 -3 -1 -3 -1 -3 -2 -2 -1 -3 -2 -2 -2 -3 -2 -2 -2 -2 -3 -2 -2 -2 -2 -2 -3 -1 -2 -2 -3 -1 -3 -2 -3 -1 -3 -1 -3 -1 -3 0 -3 -1 -3 0 -3 -1 -3 0 -4 0 0 0 -3 1 -3 0 -3 1 -4 0 -3 1 -3 1 -3 1 -3 2 -3 1 -2 2 -3 1 -3 2 -2 2 -3 2 -2 2 -2 2 -2 3 -2 2 -2 3 -2 2 -2 3 -1 3 -2 3 -1 3 -1 3 -1 3 -1 3 -1 3 0 3 -1 3 0 4 0 0 0 3 0 3 0 3 1 4 0 3 1 3 1 3 1 3 1 2 1 3 2 3 1 2 2 3 2 2 2 3 2 2 2 2 2 2 2 2 3 2 2 2 3 1 3 2 2 1 3 1 3 1 3 1 3 1 3 0 4 1 3 0 3 0 3 0 0 0 4 0 3 -1 3 0 3 -1 3 -1 3 -1 3 -1 3 -1 3 -2 3 -1 3 -2 2 -2 3 -2 2 -2 2 -2 3 -2 2 -3 2 -2 2 -3 2 -2 1 -3 2 -3 1 -2 1 -3 2 -3 1 -3 1 -3 0 -4 1 -3 0 -3 0 -3 1 0 0zm-943 -74l943 0 0 18 -943 0 0 -18zm0 -75l16 0 0 168 -32 0 0 -168 16 0z"/>
   </g>
   <g>
    <path class="fil1" d="M3499 1382l-60 209c-4,12 -6,21 -6,27 0,4 2,8 5,10 3,3 11,4 22,5l-1 7 -97 0 3 -7c10,0 17,-1 20,-2 5,-2 9,-5 12,-9 4,-6 8,-16 13,-31l43 -151c3,-9 4,-14 4,-15 1,-3 1,-5 1,-7 0,-5 -1,-8 -4,-11 -2,-2 -5,-3 -10,-3 -3,0 -8,1 -15,2l-2 -7 63 -17 9 0z"/>
    <circle class="fil0 str1" cx="3431" cy="1511" r="192"/>
   </g>
   <g>
    <path class="fil1" d="M3773 5118l-135 0 0 -7c35,-32 65,-62 89,-89 20,-22 33,-40 38,-52 5,-11 8,-23 8,-36 0,-11 -4,-20 -11,-27 -7,-7 -16,-11 -27,-11 -17,0 -32,10 -44,29l-7 -3c6,-19 15,-33 25,-42 14,-14 31,-20 50,-20 18,0 33,5 45,16 12,12 18,24 18,39 0,13 -3,25 -9,38 -6,12 -18,28 -36,47 -13,15 -41,40 -83,76l49 0c16,0 27,-2 33,-6 6,-3 12,-11 18,-21l8 0 -29 69z"/>
    <circle class="fil0 str1" cx="3730" cy="4989" r="192"/>
   </g>
   <path class="fil1" d="M42 3982l27 -282c1,-14 2,-24 2,-29 0,-7 -3,-14 -8,-19 -6,-5 -15,-7 -27,-7l-9 0 3 -9 133 0 -3 9c-14,0 -24,2 -29,4 -6,3 -10,8 -13,15 -2,4 -4,14 -5,31l-20 202 132 -180c15,-19 24,-33 27,-41 3,-5 4,-9 4,-13 0,-5 -2,-9 -6,-12 -4,-3 -11,-5 -21,-6l3 -9 101 0 -3 9c-8,1 -14,2 -19,5 -9,4 -18,11 -27,19 -9,9 -24,27 -43,54l-190 259 -9 0z"/>
   <path id="1" class="fil1" d="M885 3974l-168 0 0 -9c85,-75 142,-134 169,-177 13,-20 19,-40 19,-62 0,-17 -5,-31 -16,-42 -10,-11 -24,-17 -41,-17 -23,0 -42,12 -57,34l-9 -4c8,-21 21,-38 37,-50 16,-12 34,-18 53,-18 21,0 39,7 54,22 14,15 22,33 22,54 0,14 -3,28 -8,40 -8,20 -23,41 -44,66 -33,36 -76,79 -130,127l85 0c13,0 24,-3 33,-9 9,-5 15,-13 19,-22l10 0 -28 67z"/>
   <path id="2" class="fil1" d="M361 4072l-2 7 -94 0 2 -7c10,0 16,-1 19,-2 5,-2 9,-5 11,-8 4,-5 8,-15 12,-29l40 -139c3,-12 5,-21 5,-27 0,-3 -1,-5 -2,-7 -2,-2 -4,-4 -7,-5 -3,-1 -9,-2 -18,-2l2 -6 89 0 -2 6c-7,0 -13,1 -16,3 -5,2 -9,6 -12,11 -3,4 -6,15 -10,30l-41 140c-3,12 -5,19 -5,22 0,3 1,5 2,7 2,2 4,3 7,4 3,1 10,2 20,2z"/>
   <path id="3" class="fil1" d="M593 3834l-60 206c-3,11 -5,18 -5,22 0,1 0,2 1,3 1,1 1,1 2,1 1,0 2,-1 4,-2 2,-3 6,-9 13,-20l5 3c-6,12 -13,20 -20,26 -7,7 -13,10 -19,10 -3,0 -6,-2 -8,-4 -3,-3 -4,-7 -4,-12 0,-6 2,-15 5,-26l7 -21c-18,25 -35,43 -50,53 -10,6 -20,10 -29,10 -10,0 -18,-4 -25,-12 -7,-8 -11,-18 -11,-31 0,-17 6,-35 18,-54 11,-20 27,-35 46,-47 15,-10 29,-15 42,-15 7,0 12,1 17,4 5,3 10,7 14,12l17 -56c1,-6 3,-11 4,-15 1,-5 2,-9 2,-12 0,-2 -1,-4 -3,-5 -2,-2 -5,-3 -9,-3 -2,0 -7,0 -13,1l0 -6 59 -10zm-66 123c0,-7 -2,-13 -7,-18 -5,-4 -11,-6 -18,-6 -16,0 -32,12 -49,35 -18,24 -26,47 -26,68 0,9 2,15 7,20 4,4 9,7 15,7 14,0 31,-13 50,-39 19,-25 28,-48 28,-67z"/>
   <polygon id="4" class="fil1" points="709,3619 587,3981 567,3981 690,3619 "/>
   <path class="fil1" d="M14 2137l28 -282c1,-14 2,-23 2,-28 0,-8 -3,-14 -9,-19 -5,-5 -14,-8 -26,-8l-9 0 3 -9 133 0 -3 9c-14,1 -24,2 -30,5 -5,3 -9,8 -13,15 -1,3 -3,14 -5,31l-20 202 133 -180c14,-20 23,-33 27,-41 2,-5 4,-10 4,-14 0,-4 -2,-8 -6,-12 -4,-3 -11,-5 -22,-6l3 -9 101 0 -2 9c-8,1 -15,3 -19,5 -10,5 -19,11 -28,20 -9,9 -23,26 -43,53l-190 259 -9 0z"/>
   <path id="1" class="fil1" d="M858 2129l-169 0 0 -9c86,-75 142,-134 170,-176 12,-20 19,-41 19,-63 0,-17 -5,-31 -16,-42 -11,-11 -24,-16 -41,-16 -24,0 -43,11 -58,34l-9 -4c9,-22 21,-39 37,-51 17,-11 34,-17 53,-17 22,0 40,7 54,22 15,14 22,32 22,53 0,15 -2,28 -8,41 -8,19 -22,41 -44,65 -32,37 -76,79 -130,127l85 0c14,0 25,-3 34,-8 9,-6 15,-14 19,-23l10 0 -28 67z"/>
   <path id="2" class="fil1" d="M333 2228l-2 6 -94 0 3 -6c9,0 16,-1 19,-3 5,-1 8,-4 11,-8 3,-5 7,-14 11,-28l40 -140c4,-12 6,-21 6,-26 0,-3 -1,-6 -3,-8 -1,-2 -3,-4 -6,-5 -3,-1 -9,-1 -18,-1l2 -7 88 0 -2 7c-7,0 -12,0 -16,2 -5,3 -9,6 -11,11 -3,5 -7,15 -11,31l-40 139c-4,12 -5,19 -5,23 0,2 0,4 2,6 1,2 3,4 7,4 3,1 9,2 19,3z"/>
   <path id="3" class="fil1" d="M565 1990l-60 205c-3,11 -4,19 -4,22 0,1 0,2 1,3 0,1 1,1 2,1 1,0 2,0 3,-2 3,-2 7,-9 13,-20l6 4c-7,11 -13,20 -20,26 -7,6 -13,9 -19,9 -4,0 -6,-1 -9,-4 -2,-3 -3,-7 -3,-12 0,-6 1,-15 5,-26l6 -21c-18,25 -34,43 -49,53 -11,7 -20,10 -30,10 -9,0 -18,-4 -25,-11 -7,-8 -10,-19 -10,-32 0,-17 5,-35 17,-54 12,-19 27,-35 47,-47 15,-9 29,-14 41,-14 7,0 13,1 18,3 4,3 9,7 14,13l16 -56c2,-7 3,-12 5,-16 1,-4 2,-8 2,-11 0,-3 -1,-4 -3,-6 -2,-2 -5,-3 -9,-3 -3,0 -7,0 -13,1l0 -6 58 -9zm-65 122c0,-7 -3,-13 -7,-17 -5,-5 -11,-7 -18,-7 -16,0 -33,12 -50,36 -17,23 -26,46 -26,68 0,8 3,15 7,19 4,5 10,7 16,7 14,0 30,-13 49,-38 19,-26 29,-48 29,-68z"/>
   <polygon id="4" class="fil1" points="682,1775 560,2136 540,2136 662,1775 "/>
  </g>
 </g>
</svg>
