<?xml version="1.0" encoding="UTF-8"?>
<!DOCTYPE svg PUBLIC "-//W3C//DTD SVG 1.1//EN" "http://www.w3.org/Graphics/SVG/1.1/DTD/svg11.dtd">
<!-- Creator: CorelDRAW Home & Student X8 -->
<svg xmlns="http://www.w3.org/2000/svg" xml:space="preserve" width="147.212mm" height="61.0635mm" version="1.1" style="shape-rendering:geometricPrecision; text-rendering:geometricPrecision; image-rendering:optimizeQuality; fill-rule:evenodd; clip-rule:evenodd"
viewBox="0 0 11034 4577"
 xmlns:xlink="http://www.w3.org/1999/xlink">
 <defs>
  <style type="text/css">
   <![CDATA[
    .str0 {stroke:#2B2A29;stroke-width:29.9805}
    .str2 {stroke:#2B2A29;stroke-width:22.4854}
    .str1 {stroke:#2B2A29;stroke-width:14.9902}
    .fil0 {fill:none}
    .fil1 {fill:#2B2A29;fill-rule:nonzero}
   ]]>
  </style>
 </defs>
 <g id="Warstwa_x0020_1">
  <metadata id="CorelCorpID_0Corel-Layer"/>
  <g id="_577943136">
   <polyline class="fil0 str0" points="3696,1610 3649,1726 3555,1490 3461,1726 3367,1490 3273,1726 3179,1490 3132,1610 "/>
   <polyline class="fil0 str0" points="4934,1610 4886,1726 4792,1490 4698,1726 4604,1490 4510,1726 4416,1490 4369,1610 "/>
   <polyline class="fil0 str0" points="4934,3897 4886,4013 4792,3778 4698,4013 4604,3778 4510,4013 4416,3778 4369,3897 "/>
   <polyline class="fil0 str0" points="3696,3897 3649,4013 3555,3778 3461,4013 3367,3778 3273,4013 3179,3778 3132,3897 "/>
   <path class="fil0 str0" d="M5183 1300l455 0m-446 -206c153,144 270,142 420,-1"/>
   <path class="fil0 str0" d="M5745 3639l0 455m207 -447c-144,153 -143,270 1,420"/>
   <polygon class="fil1" points="10274,2810 10423,2810 10423,2841 10274,2841 "/>
   <polyline class="fil0 str1" points="8164,1451 9987,1451 9987,229 7863,229 "/>
   <g>
    <path class="fil1" d="M4058 233l3664 0 0 15 -3664 0 -8 -7 8 -8zm-8 8l0 -8 8 0 -8 8zm0 1354l0 -1354 15 0 0 1354 -15 0zm61 0l0 0 0 2 0 3 -1 3 0 2 -1 3 -1 2 0 3 -1 2 -1 3 -2 2 -1 2 -1 2 -2 2 -1 2 -2 2 -2 2 -2 2 -2 2 -2 1 -2 2 -2 1 -2 1 -2 2 -3 1 -2 1 -3 0 -2 1 -3 1 -2 0 -3 1 -3 0 -2 0 0 0 -3 0 -3 0 -3 -1 -2 0 -3 -1 -2 -1 -3 0 -2 -1 -3 -1 -2 -2 -2 -1 -2 -1 -2 -2 -2 -1 -2 -2 -2 -2 -2 -2 -2 -2 -1 -2 -2 -2 -1 -2 -1 -2 -2 -2 -1 -3 -1 -2 0 -3 -1 -2 -1 -3 0 -2 -1 -3 0 -3 0 -2 0 0 0 -3 0 -3 1 -3 0 -2 1 -3 1 -2 0 -3 1 -2 1 -3 2 -2 1 -2 1 -2 2 -2 1 -2 2 -2 2 -2 2 -2 2 -2 2 -1 2 -2 2 -1 2 -1 2 -1 3 -2 2 -1 3 0 2 -1 3 -1 2 0 3 0 3 -1 3 0 0 0 2 0 3 1 3 0 2 0 3 1 2 1 3 0 2 1 3 2 2 1 2 1 2 1 2 2 2 1 2 2 2 2 2 2 2 2 1 2 2 2 1 2 1 2 2 2 1 3 1 2 0 3 1 2 1 3 0 2 1 3 0 3 0 3z"/>
   </g>
   <line class="fil0 str1" x1="5411" y1="1196" x2="5411" y2= "497" />
   <g>
    <path class="fil1" d="M6287 1636l0 0 -3 0 -3 0 -2 0 -3 -1 -2 -1 -3 0 -2 -1 -3 -1 -2 -1 -3 -1 -2 -2 -2 -1 -2 -1 -2 -2 -2 -2 -2 -1 -2 -2 -1 -2 -2 -2 -1 -2 -2 -3 -1 -2 -1 -2 -1 -2 -1 -3 -1 -2 -1 -3 0 -2 -1 -3 0 -3 0 -2 0 -3 26 0 0 1 0 2 0 1 1 1 0 1 0 2 1 1 0 1 1 1 0 2 1 1 1 1 0 1 1 1 1 1 1 1 1 1 1 0 1 1 1 1 1 1 1 0 1 1 1 0 2 1 1 0 1 1 1 0 2 0 1 0 1 0 2 0 0 0 0 27zm53 -53l0 0 0 3 0 2 0 3 -1 3 -1 2 0 3 -1 2 -1 3 -1 2 -1 2 -2 2 -1 3 -1 2 -2 2 -2 2 -1 2 -2 1 -2 2 -2 2 -2 1 -3 1 -2 2 -2 1 -2 1 -3 1 -2 1 -3 0 -2 1 -3 1 -3 0 -2 0 -3 0 0 -27 1 0 2 0 1 0 1 0 1 0 2 -1 1 0 1 -1 1 0 2 -1 1 0 1 -1 1 -1 1 -1 1 0 1 -1 1 -1 0 -1 1 -1 1 -1 1 -1 0 -1 1 -2 0 -1 1 -1 0 -1 1 -2 0 -1 0 -1 0 -1 0 -2 0 -1 0 0 27 0zm-53 -53l0 0 3 0 2 0 3 0 3 1 2 0 3 1 2 1 3 1 2 1 2 1 2 1 3 2 2 1 2 2 2 1 2 2 1 2 2 2 2 2 1 2 1 2 2 2 1 3 1 2 1 2 1 3 0 3 1 2 1 3 0 2 0 3 0 3 -27 0 0 -2 0 -1 0 -1 0 -2 0 -1 -1 -1 0 -1 -1 -2 0 -1 -1 -1 0 -1 -1 -1 -1 -1 -1 -1 0 -1 -1 -1 -1 -1 -1 -1 -1 -1 -1 0 -1 -1 -1 -1 -2 0 -1 -1 -1 0 -1 -1 -2 0 -1 0 -1 -1 -1 0 -2 0 -1 0 0 0 0 -26zm-53 53l0 -3 0 -3 0 -2 1 -3 0 -2 1 -3 1 -3 1 -2 1 -2 1 -3 1 -2 2 -2 1 -2 2 -2 1 -2 2 -2 2 -2 2 -1 2 -2 2 -1 2 -2 2 -1 3 -1 2 -1 3 -1 2 -1 3 -1 2 0 3 -1 2 0 3 0 3 0 0 26 -2 0 -1 0 -1 0 -2 1 -1 0 -1 0 -1 1 -2 0 -1 1 -1 0 -1 1 -1 1 -1 0 -1 1 -1 1 -1 1 -1 1 -1 1 -1 1 0 1 -1 1 -1 1 0 1 -1 1 0 2 -1 1 0 1 0 1 -1 2 0 1 0 1 0 2 -26 0zm-1301 -8l1317 0 0 15 -1317 0 0 -15z"/>
   </g>
   <g>
    <path class="fil1" d="M5381 1606l1 -3 0 -2 0 -3 1 -3 0 -2 1 -3 1 -2 1 -3 1 -2 1 -2 1 -2 2 -3 1 -2 2 -2 1 -2 2 -1 2 -2 2 -2 2 -2 2 -1 2 -1 2 -2 3 -1 2 -1 2 -1 3 -1 2 0 3 -1 3 -1 2 0 3 0 3 0 0 0 3 0 2 0 3 0 3 1 2 1 3 0 2 1 3 1 2 1 2 1 2 2 3 1 2 1 2 2 2 2 1 2 2 1 2 2 1 2 2 2 1 3 2 2 1 2 1 2 1 3 1 2 0 3 1 2 0 3 1 3 0 2 0 3 0 0 0 3 0 3 -1 2 0 3 -1 2 0 3 -1 2 -1 3 -1 2 -1 3 -2 2 -1 2 -2 2 -1 2 -2 2 -2 2 -1 2 -2 1 -2 2 -2 1 -3 2 -2 1 -2 1 -2 1 -3 1 -2 1 -3 1 -2 0 -3 1 -3 0 -2 0 -3 0 0 0 -3 0 -3 0 -2 0 -3 -1 -3 0 -2 -1 -3 -1 -2 -1 -2 -1 -3 -1 -2 -1 -2 -2 -2 -1 -2 -2 -2 -1 -2 -2 -2 -2 -1 -2 -2 -2 -1 -2 -2 -2 -1 -2 -1 -3 -1 -2 -1 -3 -1 -2 -1 -3 0 -2 -1 -3 0 -2 0 -3 -1 -3 0 0zm61 -304l0 304 -15 0 0 -304 15 0z"/>
   </g>
   <path class="fil0 str0" d="M7872 455l0 -455m-206 447c144,-154 143,-270 -1,-420"/>
   <path class="fil0 str0" d="M7837 4575l0 -455m-206 447c144,-154 143,-271 -1,-420"/>
   <polygon class="fil1" points="10240,1449 10295,1449 10295,1394 10340,1394 10340,1449 10395,1449 10395,1495 10340,1495 10340,1549 10295,1549 10295,1495 10240,1495 "/>
   <line class="fil0 str1" x1="4369" y1="1610" x2="3696" y2= "1610" />
   <polyline class="fil0 str1" points="3132,1610 2669,1610 2669,728 1349,728 1349,1277 "/>
   <g>
    <path class="fil1" d="M6322 2570l0 0 -3 0 -3 0 -2 -1 -3 0 -2 -1 -3 -1 -2 0 -3 -1 -2 -1 -3 -2 -2 -1 -2 -1 -2 -2 -2 -1 -2 -2 -2 -2 -2 -2 -1 -2 -2 -2 -1 -2 -2 -2 -1 -2 -1 -2 -1 -3 -1 -2 -1 -3 -1 -2 0 -3 -1 -2 0 -3 0 -3 0 -2 26 0 0 1 0 1 1 2 0 1 0 1 0 1 1 2 0 1 1 1 0 1 1 1 1 1 0 2 1 1 1 0 1 1 1 1 1 1 1 1 1 1 1 0 1 1 1 1 2 0 1 1 1 0 1 0 1 1 2 0 1 0 1 0 2 0 0 0 0 27zm53 -53l0 0 0 2 0 3 0 3 -1 2 -1 3 0 2 -1 3 -1 2 -1 3 -1 2 -2 2 -1 2 -1 2 -2 2 -2 2 -1 2 -2 2 -2 2 -2 1 -2 2 -3 1 -2 1 -2 2 -2 1 -3 1 -2 0 -3 1 -2 1 -3 0 -3 1 -2 0 -3 0 0 -27 1 0 2 0 1 0 1 0 1 -1 2 0 1 0 1 -1 1 0 2 -1 1 -1 1 0 1 -1 1 -1 1 -1 1 -1 1 -1 0 0 1 -1 1 -2 1 -1 0 -1 1 -1 0 -1 1 -1 0 -2 1 -1 0 -1 0 -1 0 -2 0 -1 1 -1 0 0 26 0zm-53 -54l0 0 3 0 2 1 3 0 3 0 2 1 3 1 2 1 3 0 2 2 2 1 2 1 3 1 2 2 2 1 2 2 2 2 1 2 2 2 2 2 1 2 1 2 2 2 1 2 1 3 1 2 1 3 0 2 1 3 1 2 0 3 0 3 0 3 -26 0 -1 -2 0 -1 0 -1 0 -2 0 -1 -1 -1 0 -2 -1 -1 0 -1 -1 -1 0 -1 -1 -1 -1 -1 -1 -1 0 -1 -1 -1 -1 -1 -1 -1 -1 -1 -1 -1 -1 0 -1 -1 -2 0 -1 -1 -1 0 -1 -1 -2 0 -1 -1 -1 0 -1 0 -2 0 -1 0 0 0 0 -27zm-53 54l0 -3 0 -3 0 -3 1 -2 0 -3 1 -2 1 -3 1 -2 1 -3 1 -2 1 -2 2 -2 1 -2 2 -2 1 -2 2 -2 2 -2 2 -2 2 -1 2 -2 2 -1 2 -1 3 -1 2 -2 3 0 2 -1 3 -1 2 -1 3 0 2 0 3 -1 3 0 0 27 -2 0 -1 0 -1 0 -2 0 -1 1 -1 0 -1 1 -1 0 -2 1 -1 0 -1 1 -1 0 -1 1 -1 1 -1 1 -1 1 -1 1 -1 1 -1 1 0 1 -1 1 -1 1 0 1 -1 1 0 1 -1 2 0 1 0 1 0 2 -1 1 0 1 0 2 -26 0zm-869 -8l885 0 0 15 -885 0 -8 -7 8 -8zm-8 8l0 -8 8 0 -8 8zm0 1353l0 -1353 15 0 0 1353 -7 7 -8 -7zm8 7l-8 0 0 -7 8 7zm340 1l-340 -1 0 -15 340 1 0 15z"/>
   </g>
   <g>
    <path class="fil1" d="M6527 3874l-678 0 0 -15 678 0 0 15zm0 62l-13 0 0 -139 26 0 0 139 -13 0z"/>
   </g>
   <g>
    <path class="fil1" d="M5411 3924l-2 0 -3 0 -3 -1 -2 0 -3 -1 -2 -1 -3 0 -2 -1 -3 -1 -2 -2 -2 -1 -2 -1 -2 -2 -2 -1 -2 -2 -2 -2 -2 -2 -2 -2 -1 -2 -2 -2 -1 -2 -1 -2 -2 -2 -1 -3 -1 -2 0 -3 -1 -2 -1 -3 0 -2 -1 -3 0 -3 0 -2 0 0 0 -3 0 -3 1 -3 0 -2 1 -3 1 -2 0 -3 1 -2 1 -3 2 -2 1 -2 1 -2 2 -2 1 -2 2 -2 2 -2 2 -2 2 -2 2 -1 2 -2 2 -1 2 -1 2 -2 3 -1 2 -1 3 0 2 -1 3 -1 2 0 3 -1 3 0 2 0 0 0 3 0 3 0 3 1 2 0 3 1 2 1 3 0 2 1 3 1 2 2 2 1 2 1 2 2 2 1 2 2 2 2 2 2 2 2 1 2 2 2 1 2 1 2 1 2 2 3 1 2 0 3 1 2 1 3 0 2 0 3 1 3 0 3 0 0 0 2 -1 3 0 3 0 2 -1 3 -1 2 0 3 -1 2 -2 3 -1 2 -1 2 -1 2 -2 2 -1 2 -2 2 -2 2 -2 2 -2 2 -2 1 -2 2 -2 1 -2 1 -2 2 -3 1 -2 1 -3 0 -2 1 -3 1 -2 0 -3 1 -3 0 -3 0 0 0zm-477 -61l477 0 0 15 -477 0 0 -15z"/>
   </g>
   <line class="fil0 str1" x1="4369" y1="3897" x2="3696" y2= "3897" />
   <polyline class="fil0 str1" points="3132,3897 2680,3897 2680,4182 1349,4182 1349,3633 "/>
   <polyline class="fil0 str1" points="8164,2615 9964,2628 9983,4353 7894,4353 "/>
   <g>
    <path class="fil1" d="M4022 4349l3712 0 0 15 -3712 0 -7 -8 7 -7zm0 15l-7 0 0 -8 7 8zm8 -467l0 459 -15 0 0 -459 15 0zm-61 0l0 0 0 -2 0 -3 1 -3 0 -2 1 -3 0 -2 1 -3 1 -2 1 -3 1 -2 2 -2 1 -2 2 -2 1 -2 2 -2 2 -2 2 -2 1 -2 2 -1 3 -2 2 -1 2 -1 2 -2 3 -1 2 -1 3 -1 2 0 3 -1 2 0 3 -1 3 0 2 0 0 0 3 0 3 0 2 1 3 0 3 1 2 0 3 1 2 1 2 1 3 2 2 1 2 1 2 2 2 1 2 2 2 2 2 2 1 2 2 2 2 2 1 2 1 2 1 2 1 3 1 2 1 3 1 2 1 3 0 2 0 3 1 3 0 2 0 0 0 3 -1 3 0 2 0 3 -1 3 -1 2 -1 3 -1 2 -1 2 -1 3 -1 2 -1 2 -2 2 -2 2 -1 2 -2 2 -2 2 -2 1 -2 2 -2 2 -2 1 -2 1 -3 1 -2 1 -2 1 -3 1 -2 1 -3 1 -3 0 -2 0 -3 1 -3 0 0 0 -2 0 -3 -1 -3 0 -2 0 -3 -1 -2 -1 -3 -1 -2 -1 -3 -1 -2 -1 -2 -1 -2 -1 -3 -2 -2 -2 -1 -1 -2 -2 -2 -2 -2 -2 -1 -2 -2 -2 -1 -2 -2 -2 -1 -3 -1 -2 -1 -2 -1 -3 0 -2 -1 -3 0 -3 -1 -2 0 -3 0 -3z"/>
   </g>
   <path class="fil1" d="M3324 3501l-24 82c-3,12 -5,20 -5,26 0,5 2,9 6,12 4,3 13,5 26,5l-3 7 -129 0 2 -7c13,0 22,-3 28,-8 6,-5 12,-16 17,-34l49 -173c3,-9 5,-17 5,-23 0,-5 -2,-9 -6,-12 -3,-3 -11,-4 -24,-5l2 -7 112 0c32,0 54,5 67,16 13,11 20,26 20,43 0,19 -8,35 -23,50 -10,9 -27,17 -51,24l24 82c6,22 12,35 17,39 5,5 13,8 24,8l0 7 -84 0 -38 -132 -6 1c-1,0 -4,0 -6,-1zm3 -11c4,0 8,0 11,0 19,0 35,-7 47,-20 12,-13 18,-31 18,-52 0,-13 -3,-22 -9,-29 -7,-7 -16,-10 -26,-10 -3,0 -6,0 -10,0l-31 111z"/>
   <path id="1" class="fil1" d="M3660 3358l-67 226c-3,12 -5,19 -5,23 0,3 2,6 4,10 2,3 5,5 8,6 3,1 11,2 26,3l-3 7 -135 0 2 -7c13,0 23,-1 28,-3 5,-2 10,-6 13,-10 3,-5 7,-14 11,-29l40 -134c6,-20 9,-31 10,-32 0,-4 1,-7 1,-10 0,-6 -2,-11 -6,-14 -3,-4 -9,-5 -15,-5 -4,0 -10,0 -20,1l-2 -7 102 -25 8 0z"/>
   <path class="fil1" d="M4494 1191l-24 82c-3,12 -5,20 -5,26 0,5 2,9 6,12 4,3 13,5 26,5l-3 7 -129 0 2 -7c13,0 23,-3 29,-8 6,-5 11,-16 16,-34l50 -173c2,-9 4,-17 4,-23 0,-5 -2,-9 -5,-12 -4,-3 -12,-5 -24,-6l2 -6 111 0c32,0 55,5 68,16 12,11 19,26 19,43 0,18 -8,35 -23,50 -9,9 -26,17 -51,24l24 81c7,23 12,36 17,40 5,5 13,7 24,8l0 7 -84 0 -37 -132 -7 1c-1,0 -3,-1 -6,-1zm3 -12c5,1 9,1 12,1 19,0 34,-7 46,-20 13,-13 19,-31 19,-52 0,-13 -4,-22 -10,-29 -7,-7 -15,-10 -26,-10 -3,0 -6,0 -9,0l-32 110z"/>
   <path id="1" class="fil1" d="M4793 1323l-143 0 0 -8c37,-34 68,-65 94,-94 21,-24 35,-43 40,-55 6,-13 8,-26 8,-38 0,-13 -3,-22 -11,-30 -8,-7 -17,-11 -28,-11 -19,0 -35,10 -48,30l-7 -3c7,-20 16,-34 27,-45 15,-14 33,-21 53,-21 19,0 35,6 48,18 12,12 18,25 18,41 0,13 -3,27 -9,40 -6,13 -18,30 -37,50 -15,16 -44,42 -89,80l52 0c17,0 28,-2 35,-5 7,-4 13,-12 19,-23l9 0 -31 74z"/>
   <path class="fil1" d="M7915 551l-20 85 -7 0c0,-23 -6,-40 -17,-52 -11,-11 -24,-17 -42,-17 -18,0 -36,8 -55,23 -18,16 -34,40 -46,72 -11,26 -16,52 -16,78 0,22 6,40 17,52 12,12 27,18 47,18 16,0 30,-4 43,-11 13,-6 26,-18 40,-33l9 0c-16,24 -33,42 -50,52 -16,10 -37,14 -61,14 -32,0 -59,-9 -78,-29 -20,-20 -30,-45 -30,-77 0,-30 8,-58 24,-85 15,-27 38,-48 68,-65 29,-17 59,-25 88,-25 11,0 25,2 42,7 8,2 14,4 17,4 7,0 14,-4 20,-11l7 0z"/>
   <path id="1" class="fil1" d="M8076 552l-67 226c-4,11 -5,19 -5,22 0,3 1,7 3,10 3,4 5,6 8,7 3,1 12,2 26,2l-2 7 -136 0 2 -7c14,0 23,-1 28,-3 6,-2 10,-5 13,-10 4,-4 7,-14 12,-28l39 -134c6,-21 10,-31 10,-33 1,-3 1,-6 1,-9 0,-6 -2,-11 -5,-15 -4,-3 -9,-5 -16,-5 -3,0 -10,1 -20,2l-1 -8 101 -24 9 0z"/>
   <path class="fil1" d="M5916 865l-19 85 -7 0c-1,-23 -7,-40 -18,-52 -10,-11 -24,-17 -41,-17 -19,0 -37,8 -56,23 -18,16 -33,40 -46,72 -10,26 -16,52 -16,78 0,22 6,40 17,52 12,12 27,18 47,18 16,0 30,-4 43,-11 13,-6 27,-18 40,-33l9 0c-16,24 -33,42 -49,52 -17,10 -38,14 -62,14 -32,0 -58,-9 -78,-29 -20,-20 -30,-45 -30,-77 0,-30 8,-58 24,-85 16,-27 38,-48 68,-65 30,-17 59,-25 88,-25 11,0 25,2 42,7 8,2 14,4 17,4 7,0 14,-4 21,-11l6 0z"/>
   <path id="1" class="fil1" d="M6039 1140l-143 0 0 -7c37,-34 69,-66 94,-95 22,-24 35,-42 40,-55 6,-12 9,-25 9,-38 0,-12 -4,-22 -12,-29 -7,-8 -17,-11 -28,-11 -19,0 -34,10 -47,30l-8 -3c7,-20 16,-35 27,-45 15,-14 33,-21 54,-21 19,0 34,6 47,18 12,11 19,25 19,40 0,14 -3,28 -10,41 -6,13 -18,30 -37,50 -15,15 -44,42 -89,80l52 0c17,0 28,-2 35,-6 7,-4 13,-11 19,-23l9 0 -31 74z"/>
   <path class="fil1" d="M3293 1222l-23 81c-4,12 -5,21 -5,26 0,5 2,9 6,12 4,3 12,5 25,5l-2 7 -130 0 3 -7c13,0 22,-2 28,-7 6,-5 12,-17 17,-35l49 -172c3,-10 4,-18 4,-23 0,-6 -2,-10 -5,-12 -3,-3 -11,-5 -24,-6l2 -7 112 0c31,0 54,6 67,17 13,11 19,25 19,42 0,19 -7,35 -23,50 -9,9 -26,17 -50,24l23 82c7,22 13,35 17,40 5,4 13,7 24,7l0 7 -83 0 -38 -131 -6 0c-2,0 -4,0 -7,0zm4 -12c4,0 8,0 11,0 19,0 35,-6 47,-20 12,-13 18,-30 18,-52 0,-12 -3,-22 -10,-29 -6,-6 -15,-10 -26,-10 -2,0 -5,0 -9,1l-31 110z"/>
   <path id="1" class="fil1" d="M3630 1079l-67 225c-3,12 -5,20 -5,23 0,3 1,7 4,10 2,3 5,6 8,7 2,1 11,1 25,2l-2 7 -136 0 2 -7c14,0 23,-1 29,-3 5,-2 9,-5 13,-10 3,-5 7,-14 11,-29l40 -133c6,-21 9,-32 9,-33 1,-3 1,-7 1,-10 0,-6 -1,-10 -5,-14 -4,-3 -9,-5 -16,-5 -3,0 -10,0 -19,1l-2 -7 101 -24 9 0z"/>
   <path class="fil1" d="M4539 3517l-23 81c-3,12 -5,20 -5,26 0,5 2,9 6,12 4,3 13,5 26,5l-3 7 -130 0 3 -7c13,0 22,-2 28,-8 6,-5 12,-16 17,-34l49 -172c3,-10 4,-18 4,-23 0,-6 -1,-10 -5,-13 -3,-2 -11,-4 -24,-5l2 -7 112 0c32,0 54,5 67,17 13,11 20,25 20,42 0,19 -8,35 -23,50 -10,9 -27,17 -51,24l24 82c6,22 12,35 17,40 4,4 12,7 24,7l0 7 -84 0 -38 -131 -6 0c-2,0 -4,0 -7,0zm4 -12c4,0 8,0 11,0 19,0 35,-6 47,-20 12,-13 18,-30 18,-52 0,-12 -3,-22 -10,-29 -6,-6 -15,-10 -25,-10 -3,0 -6,0 -10,1l-31 110z"/>
   <path id="1" class="fil1" d="M4838 3648l-142 0 0 -7c37,-35 68,-66 93,-95 22,-24 35,-42 41,-55 5,-13 8,-25 8,-38 0,-12 -4,-22 -11,-30 -8,-7 -17,-11 -29,-11 -18,0 -34,10 -47,31l-7 -4c7,-19 15,-34 26,-44 16,-14 33,-21 54,-21 19,0 35,6 47,17 13,12 19,26 19,41 0,14 -3,27 -9,40 -6,14 -19,30 -38,51 -14,15 -44,42 -88,80l52 0c16,0 28,-2 35,-6 6,-4 12,-11 18,-23l10 0 -32 74z"/>
   <path class="fil1" d="M7783 3609l-20 85 -7 0c-1,-23 -7,-41 -17,-52 -11,-12 -25,-17 -42,-17 -18,0 -37,7 -55,23 -18,16 -34,40 -47,72 -10,26 -15,52 -15,77 0,23 6,40 17,52 11,12 27,18 46,18 16,0 31,-3 44,-10 13,-7 26,-18 40,-34l9 0c-17,25 -33,42 -50,52 -17,10 -37,15 -61,15 -33,0 -59,-10 -79,-29 -19,-20 -29,-46 -29,-77 0,-30 8,-58 23,-85 16,-27 39,-49 68,-65 30,-17 59,-25 89,-25 11,0 25,2 41,7 9,2 15,3 18,3 7,0 13,-3 20,-10l7 0z"/>
   <path id="1" class="fil1" d="M7943 3610l-67 225c-3,12 -5,20 -5,23 0,3 2,6 4,10 2,3 5,5 8,6 3,1 11,2 26,3l-3 7 -135 0 2 -7c13,0 23,-1 28,-3 5,-2 10,-6 13,-10 3,-5 7,-14 11,-29l40 -134c6,-20 9,-31 10,-32 0,-4 1,-7 1,-10 0,-6 -2,-11 -6,-14 -3,-4 -9,-5 -15,-5 -4,0 -10,0 -20,1l-2 -7 102 -24 8 0z"/>
   <path class="fil1" d="M5905 3335l-19 85 -7 0c-1,-23 -7,-41 -18,-52 -10,-12 -24,-17 -41,-17 -19,0 -37,8 -56,23 -18,16 -33,40 -46,72 -10,26 -16,52 -16,77 0,23 6,40 17,52 12,12 27,18 47,18 16,0 30,-3 43,-10 13,-7 27,-18 40,-33l9 0c-16,24 -33,41 -49,51 -17,10 -38,15 -62,15 -32,0 -58,-10 -78,-29 -20,-20 -30,-46 -30,-77 0,-30 8,-58 24,-85 16,-27 38,-49 68,-65 30,-17 59,-25 88,-25 11,0 25,2 42,7 8,2 14,3 17,3 7,0 14,-3 21,-10l6 0z"/>
   <path id="1" class="fil1" d="M6028 3610l-143 0 0 -7c37,-35 69,-66 94,-95 21,-24 35,-42 40,-55 6,-13 9,-25 9,-38 0,-12 -4,-22 -12,-29 -7,-8 -17,-12 -28,-12 -19,0 -34,10 -47,31l-8 -4c7,-19 16,-34 27,-44 15,-14 33,-21 54,-21 19,0 34,6 47,17 12,12 19,26 19,41 0,14 -3,27 -10,41 -6,13 -18,29 -37,50 -15,15 -44,42 -89,80l52 0c17,0 28,-2 35,-6 7,-4 13,-11 19,-23l9 0 -31 74z"/>
   <path class="fil1" d="M10062 2181l22 -224c1,-11 2,-19 2,-23 0,-6 -2,-11 -7,-15 -4,-4 -11,-6 -21,-6l-7 0 2 -7 106 0 -2 7c-11,0 -19,2 -24,4 -4,2 -7,6 -10,11 -1,3 -3,12 -4,25l-16 161 106 -143c11,-16 18,-27 21,-33 2,-4 3,-8 3,-11 0,-3 -1,-6 -4,-9 -4,-3 -9,-4 -18,-5l3 -7 80 0 -2 7c-6,1 -11,2 -15,4 -7,3 -15,9 -22,16 -7,7 -18,21 -34,42l-151 206 -8 0z"/>
   <path id="1" class="fil1" d="M10392 2065c13,0 24,3 34,9 10,5 17,13 23,24 5,11 8,22 8,34 0,20 -6,42 -18,65 -12,22 -27,40 -47,52 -19,11 -39,17 -59,17 -15,0 -28,-3 -38,-9 -10,-7 -17,-16 -22,-26 -4,-11 -7,-22 -7,-32 0,-18 4,-35 13,-53 9,-18 19,-32 31,-44 12,-12 25,-21 39,-27 13,-6 28,-10 43,-10zm-5 9c-10,0 -19,3 -28,7 -9,5 -18,13 -27,23 -9,11 -17,25 -24,42 -9,21 -13,41 -13,60 0,14 3,25 10,36 7,10 18,15 32,15 9,0 17,-2 26,-6 8,-4 17,-12 26,-22 11,-13 20,-29 28,-49 8,-21 12,-39 12,-57 0,-13 -4,-24 -11,-34 -7,-10 -17,-15 -31,-15z"/>
   <path id="2" class="fil1" d="M10625 2059l-50 171c-3,9 -4,15 -4,18 0,1 0,2 1,2 0,1 1,1 2,1 0,0 1,0 2,-1 3,-2 6,-8 11,-17l5 3c-5,9 -11,16 -17,22 -5,5 -11,7 -16,7 -2,0 -4,-1 -6,-3 -2,-2 -3,-6 -3,-10 0,-5 1,-12 4,-21l5 -18c-15,21 -29,36 -41,44 -9,5 -17,8 -25,8 -7,0 -14,-3 -20,-9 -6,-7 -9,-15 -9,-26 0,-14 5,-29 15,-45 9,-16 22,-29 38,-39 13,-8 24,-12 35,-12 5,0 10,1 14,3 4,2 8,5 12,10l13 -46c2,-6 3,-10 4,-13 1,-4 2,-7 2,-10 0,-2 -1,-3 -2,-4 -2,-2 -5,-3 -8,-3 -2,0 -6,0 -11,1l0 -5 49 -8zm-55 102c0,-6 -2,-11 -6,-15 -3,-3 -8,-5 -14,-5 -13,0 -27,10 -41,29 -15,20 -22,39 -22,57 0,7 2,12 6,16 3,4 8,6 13,6 11,0 25,-11 41,-32 15,-22 23,-40 23,-56z"/>
   <g>
    <path class="fil1" d="M10957 1583l77 188 0 0 -5 -3 -5 -2 -5 -2 -5 -2 -5 -2 -5 -2 -5 -2 -5 -1 -5 -1 -5 -1 -5 -1 -5 -1 -5 -1 -5 0 -5 0 -5 -1 -5 0 -5 1 -5 0 -5 0 -5 1 -5 1 -5 1 -5 1 -5 1 -5 1 -5 2 -5 2 -5 2 -5 2 -5 2 -5 2 83 -185zm-24 1101l15 -1008 15 1 -15 1007 -15 0z"/>
   </g>
   <g>
    <path class="fil1" d="M5418 497l0 699 -15 0 0 -699 15 0zm63 0l0 14 -140 0 0 -27 140 0 0 13z"/>
   </g>
   <g>
    <path class="fil1" d="M6538 1751l75 189 0 0 -4 -3 -5 -2 -5 -3 -5 -2 -5 -2 -5 -1 -5 -2 -5 -1 -5 -2 -5 -1 -5 -1 -5 -1 -5 0 -5 -1 -5 0 -5 0 -5 0 -5 0 -5 0 -5 0 -5 1 -5 1 -5 1 -5 1 -5 1 -5 1 -5 2 -5 1 -5 2 -5 2 -5 2 -5 3 84 -185zm-24 662l14 -568 15 0 -14 568 -15 0z"/>
   </g>
   <path class="fil1" d="M7917 2787l-74 258 30 -25c33,-28 54,-48 64,-61 3,-5 5,-8 5,-11 0,-1 -1,-3 -2,-4 -1,-2 -3,-3 -6,-4 -3,-1 -8,-1 -16,-1l-9 0 3 -10 115 0 -3 10c-13,1 -24,3 -34,6 -10,4 -19,9 -28,16 -17,13 -29,23 -35,28l-22 20c3,13 8,30 14,53 9,37 16,59 19,66 3,7 7,10 10,10 3,0 7,-1 11,-4 9,-7 19,-17 29,-32l9 7c-19,24 -34,40 -44,47 -10,8 -19,12 -28,12 -7,0 -13,-3 -17,-9 -7,-10 -18,-51 -35,-122l-36 31 -27 94 -41 0 87 -301 7 -26c1,-4 1,-8 1,-11 0,-4 -1,-8 -4,-10 -4,-3 -8,-4 -14,-4 -4,0 -11,0 -19,2l-1 -10 91 -15z"/>
   <path id="1" class="fil1" d="M8015 2939l75 -16c5,13 10,27 13,40 5,20 9,43 12,71 1,13 3,42 6,86 22,-24 35,-39 39,-45 24,-31 37,-49 41,-55 5,-9 9,-17 12,-24 2,-6 3,-11 3,-15 0,-5 -4,-10 -12,-16 -8,-6 -12,-13 -12,-20 0,-6 2,-11 6,-15 5,-5 10,-7 16,-7 8,0 14,3 20,9 5,6 8,14 8,23 0,9 -1,17 -4,26 -5,13 -13,29 -26,48 -12,20 -32,45 -60,78 -4,4 -23,24 -59,61l-10 0c-4,-111 -13,-181 -26,-208 -4,-9 -12,-14 -22,-14 -4,0 -10,1 -18,3l-2 -10z"/>
   <path id="2" class="fil1" d="M8363 2979c8,0 14,3 19,8 5,5 8,11 8,19 0,7 -3,13 -8,18 -5,6 -12,8 -19,8 -7,0 -13,-2 -18,-8 -6,-5 -8,-11 -8,-18 0,-8 2,-14 7,-19 6,-5 12,-8 19,-8zm12 105l-56 187c-3,12 -5,20 -5,22 0,3 1,5 2,7 2,2 3,3 5,3 3,0 6,-2 9,-4 9,-8 18,-19 27,-34l10 6c-12,18 -25,33 -41,45 -11,9 -22,13 -32,13 -7,0 -13,-2 -17,-6 -4,-4 -7,-9 -7,-16 0,-6 3,-17 7,-33l37 -119c6,-19 9,-31 9,-36 0,-4 -2,-7 -4,-9 -3,-3 -7,-4 -12,-4 -4,0 -12,1 -24,3l0 -10 92 -15z"/>
   <polygon class="fil1" points="8159,1639 8159,1738 8258,1738 8258,1765 8159,1765 8159,1864 8132,1864 8132,1765 8034,1765 8034,1738 8132,1738 8132,1639 "/>
   <polygon class="fil1" points="8172,2341 8172,2448 8141,2448 8141,2341 "/>
   <rect class="fil0 str2" transform="matrix(-0.966762 -0.966762 0.966762 -0.966762 8164.19 2615.26)" width="571" height="571"/>
   <path class="fil1" d="M5825 1886l88 -19c6,15 11,31 15,46 6,24 11,51 14,83 2,16 4,51 7,103 26,-29 42,-47 47,-53 27,-37 43,-59 47,-65 7,-11 12,-21 14,-29 3,-6 4,-12 4,-18 0,-5 -4,-11 -14,-18 -9,-7 -14,-15 -14,-24 0,-7 2,-12 8,-18 5,-5 11,-7 18,-7 9,0 16,3 23,10 6,7 10,16 10,27 0,10 -2,20 -5,30 -6,16 -16,35 -30,58 -15,22 -39,52 -71,90 -5,5 -28,29 -69,72l-12 0c-5,-130 -15,-212 -31,-244 -5,-11 -14,-16 -25,-16 -6,0 -13,1 -22,3l-2 -11z"/>
   <path id="1" class="fil1" d="M6234 1933c9,0 17,3 23,9 6,6 9,13 9,22 0,8 -4,15 -10,22 -6,6 -13,9 -22,9 -8,0 -15,-3 -21,-9 -7,-7 -10,-14 -10,-22 0,-9 3,-16 9,-22 6,-6 14,-9 22,-9zm14 123l-65 220c-5,14 -7,23 -7,26 0,3 1,6 3,8 2,2 4,3 6,3 3,0 6,-2 10,-5 11,-9 22,-22 32,-39l11 7c-13,21 -29,39 -47,53 -13,10 -26,15 -38,15 -8,0 -15,-2 -20,-7 -5,-5 -8,-11 -8,-19 0,-7 3,-20 8,-38l44 -141c6,-22 10,-36 10,-42 0,-5 -2,-8 -5,-11 -4,-3 -8,-4 -13,-4 -5,0 -14,1 -29,3l0 -12 108 -17z"/>
   <g>
    <path class="fil1" d="M4076 2013l0 -4c25,-4 44,-11 56,-23 9,-7 14,-17 14,-28 0,-8 -3,-15 -8,-20 -5,-5 -12,-8 -19,-8 -11,0 -22,7 -31,21l-5 -1c5,-12 12,-21 20,-27 9,-6 18,-9 28,-9 12,0 22,3 30,10 7,8 11,17 11,28 0,10 -4,19 -11,28 -7,8 -19,16 -36,23 10,5 19,11 24,19 6,9 8,19 8,30 0,13 -3,26 -11,39 -7,13 -18,23 -31,30 -13,7 -26,11 -40,11 -13,0 -23,-3 -30,-7 -4,-3 -7,-7 -7,-11 0,-4 2,-7 4,-9 3,-3 6,-4 10,-4 3,0 5,0 8,1 2,1 6,3 12,6 7,4 12,6 15,7 4,2 8,2 12,2 9,0 16,-5 23,-16 6,-11 9,-22 9,-34 0,-10 -2,-19 -7,-27 -4,-8 -10,-14 -19,-19 -9,-4 -18,-7 -29,-8z"/>
    <circle class="fil0 str1" cx="4105" cy="2023" r="159"/>
   </g>
   <path class="fil1" d="M4047 3688l12 -58 -93 0 6 -27 128 -142 23 0 -31 145 33 0 -5 24 -33 0 -12 58 -28 0zm17 -82l21 -95 -86 95 65 0z"/>
   <circle class="fil0 str1" cx="4045" cy="3575" r="159"/>
   <circle class="fil0 str1" cx="5445" cy="2005" r="159"/>
   <circle class="fil0 str1" cx="5169" cy="3563" r="159"/>
   <g>
    <path class="fil1" d="M9658 1056l105 0 0 6 -118 208 -12 -6 103 -183 -50 0c-14,0 -23,1 -28,4 -5,2 -11,8 -18,17l-6 0 24 -46z"/>
    <circle class="fil0 str1" cx="9698" cy="1163" r="159"/>
   </g>
   <g>
    <path class="fil1" d="M9708 2909c10,11 17,21 22,30 4,10 7,19 7,29 0,16 -7,31 -20,44 -12,12 -28,19 -47,19 -17,0 -31,-6 -41,-16 -11,-10 -16,-22 -16,-36 0,-11 4,-23 13,-34 8,-11 25,-22 49,-32 -10,-12 -16,-21 -19,-28 -3,-8 -5,-15 -5,-22 0,-14 5,-26 15,-36 11,-9 24,-14 39,-14 15,0 27,4 37,12 9,9 14,19 14,30 0,12 -4,22 -11,31 -8,10 -20,17 -37,23zm-6 -6c11,-4 20,-10 26,-19 6,-9 9,-19 9,-30 0,-10 -3,-19 -9,-25 -6,-6 -14,-9 -23,-9 -9,0 -17,3 -23,9 -5,6 -8,13 -8,22 0,7 1,14 4,20 5,8 13,19 24,32zm-22 16c-15,6 -27,16 -35,28 -7,12 -11,25 -11,39 0,11 3,20 10,27 7,7 16,10 28,10 11,0 21,-4 29,-12 9,-8 13,-18 13,-30 0,-8 -3,-17 -8,-27 -4,-10 -13,-21 -26,-35z"/>
    <circle class="fil0 str1" cx="9685" cy="2922" r="159"/>
   </g>
   <g>
    <path class="fil1" d="M4118 3468l-40 138 25 0 -6 19 -25 0 -16 57 -23 0 16 -57 -76 0 7 -22 126 -135 12 0zm-35 40l-90 98 62 0 28 -98z"/>
    <circle class="fil0 str1" cx="4045" cy="3575" r="159"/>
   </g>
   <g>
    <path class="fil1" d="M5445 1898l71 0 -8 26 -63 0 -11 25c16,3 29,8 39,16 14,12 21,29 21,51 0,14 -2,27 -8,39 -5,11 -11,21 -19,29 -8,8 -16,14 -25,19 -12,6 -24,9 -36,9 -10,0 -19,-2 -25,-7 -4,-3 -6,-7 -6,-12 0,-3 1,-6 4,-9 3,-3 6,-4 10,-4 5,0 12,3 18,8 4,4 8,6 10,7 3,1 5,1 8,1 12,0 23,-5 32,-17 10,-12 15,-27 15,-45 0,-13 -2,-24 -8,-33 -5,-10 -12,-16 -20,-20 -8,-3 -18,-6 -32,-7l33 -76z"/>
    <circle class="fil0 str1" cx="5445" cy="2005" r="159"/>
   </g>
   <g>
    <path class="fil1" d="M5243 3454l0 6c-18,4 -35,13 -52,26 -17,14 -31,31 -44,51 12,-4 21,-7 28,-7 13,0 24,5 33,15 10,9 14,22 14,38 0,25 -8,46 -24,63 -16,17 -33,26 -51,26 -17,0 -29,-6 -38,-18 -9,-13 -13,-27 -13,-43 0,-21 5,-42 15,-63 9,-20 23,-38 39,-53 17,-15 35,-25 53,-33 10,-4 24,-6 40,-8zm-103 96c-15,32 -22,58 -22,79 0,11 3,20 8,26 6,7 12,10 19,10 12,0 24,-9 34,-26 10,-17 15,-37 15,-60 0,-12 -3,-21 -9,-28 -6,-7 -13,-10 -22,-10 -3,0 -7,1 -10,2 -3,1 -8,4 -13,7z"/>
    <circle class="fil0 str1" cx="5169" cy="3563" r="159"/>
   </g>
   <path class="fil1" d="M5029 601c0,-19 3,-38 9,-58 6,-20 12,-36 19,-48 7,-11 14,-21 22,-27 7,-7 15,-12 22,-15 7,-3 15,-5 24,-5 17,0 32,7 44,20 11,12 17,31 17,55 0,25 -4,50 -12,75 -10,29 -23,51 -40,65 -13,11 -28,17 -44,17 -17,0 -31,-7 -43,-20 -12,-14 -18,-33 -18,-59zm27 8c0,14 3,25 7,32 6,11 16,17 28,17 11,0 21,-5 30,-15 13,-14 22,-34 29,-61 6,-26 9,-48 9,-65 0,-16 -3,-28 -9,-35 -6,-8 -15,-11 -25,-11 -7,0 -14,2 -21,5 -6,4 -12,11 -18,20 -8,13 -16,33 -22,59 -5,22 -8,40 -8,54z"/>
   <circle class="fil0 str1" cx="5108" cy="564" r="159"/>
   <g>
    <path class="fil1" d="M6541 3371c14,0 25,6 34,17 9,11 13,28 13,52 0,21 -3,41 -10,63 -6,21 -16,39 -28,55 -10,12 -20,21 -30,27 -7,3 -14,4 -22,4 -13,0 -25,-5 -34,-16 -9,-11 -13,-29 -13,-53 0,-23 4,-47 13,-71 11,-28 25,-49 41,-64 11,-9 23,-14 36,-14zm1 8c-6,0 -12,3 -18,7 -7,5 -13,15 -20,30 -6,14 -12,34 -18,57 -8,31 -12,57 -12,78 0,11 2,19 7,25 5,5 10,8 17,8 6,0 12,-3 16,-7 12,-11 22,-30 31,-57 13,-44 20,-80 20,-107 0,-12 -2,-20 -7,-26 -4,-5 -10,-8 -16,-8z"/>
    <circle class="fil0 str1" cx="6520" cy="3480" r="159"/>
   </g>
   <g>
    <ellipse class="fil0 str0" cx="1349" cy="1705" rx="424" ry="428"/>
    <polygon class="fil1" points="1268,1425 1323,1425 1323,1370 1368,1370 1368,1425 1423,1425 1423,1470 1368,1470 1368,1525 1323,1525 1323,1470 1268,1470 "/>
    <polygon class="fil1" points="1279,1980 1427,1980 1427,2011 1279,2011 "/>
    <ellipse class="fil0 str0" cx="1349" cy="1705" rx="424" ry="428"/>
    <polygon class="fil1" points="1268,1425 1323,1425 1323,1370 1368,1370 1368,1425 1423,1425 1423,1470 1368,1470 1368,1525 1323,1525 1323,1470 1268,1470 "/>
    <polygon class="fil1" points="1279,1980 1427,1980 1427,2011 1279,2011 "/>
   </g>
   <g>
    <ellipse class="fil0 str0" cx="1349" cy="3196" rx="424" ry="428"/>
    <polygon class="fil1" points="1268,2916 1323,2916 1323,2862 1368,2862 1368,2916 1423,2916 1423,2962 1368,2962 1368,3016 1323,3016 1323,2962 1268,2962 "/>
    <polygon class="fil1" points="1279,3471 1427,3471 1427,3503 1279,3503 "/>
    <ellipse class="fil0 str0" cx="1349" cy="3196" rx="424" ry="428"/>
    <polygon class="fil1" points="1268,2916 1323,2916 1323,2862 1368,2862 1368,2916 1423,2916 1423,2962 1368,2962 1368,3016 1323,3016 1323,2962 1268,2962 "/>
    <polygon class="fil1" points="1279,3471 1427,3471 1427,3503 1279,3503 "/>
   </g>
   <line class="fil0 str1" x1="1349" y1="2769" x2="1349" y2= "2133" />
   <g>
    <path class="fil1" d="M1350 2531l-3 0 -3 0 -3 0 -2 -1 -3 -1 -2 0 -3 -1 -2 -1 -3 -1 -2 -1 -2 -2 -2 -1 -2 -1 -2 -2 -2 -2 -2 -1 -2 -2 -2 -2 -1 -2 -2 -2 -1 -3 -1 -2 -2 -2 -1 -2 -1 -3 0 -2 -1 -3 -1 -2 0 -3 -1 -3 0 -2 0 -3 0 0 0 -3 0 -3 1 -2 0 -3 1 -2 1 -3 0 -2 1 -3 1 -2 2 -3 1 -2 1 -2 2 -2 1 -2 2 -2 2 -2 2 -2 2 -1 2 -2 2 -1 2 -2 2 -1 2 -1 3 -1 2 -1 3 -1 2 -1 3 0 2 -1 3 0 3 0 3 0 0 0 2 0 3 0 3 0 2 1 3 0 2 1 3 1 2 1 3 1 2 1 2 1 2 2 2 1 2 2 2 1 2 2 2 2 2 2 1 2 2 2 1 2 1 2 2 3 1 2 1 3 0 2 1 3 1 2 0 3 1 2 0 3 0 3 0 0 0 3 0 2 -1 3 0 3 -1 2 -1 3 0 2 -1 3 -1 2 -2 2 -1 2 -1 3 -2 2 -1 2 -2 2 -2 2 -2 1 -2 2 -2 2 -2 1 -2 1 -2 2 -2 1 -3 1 -2 1 -3 1 -2 0 -3 1 -2 1 -3 0 -3 0 -2 0 0 0zm-783 -61l783 0 0 15 -783 0 0 -15zm0 -62l14 0 0 139 -27 0 0 -139 13 0z"/>
   </g>
   <g>
    <path class="fil1" d="M2903 1172l-50 174c-3,10 -5,18 -5,22 0,4 2,7 4,9 3,2 9,3 19,4l-2 6 -79 0 2 -6c8,0 14,-1 17,-2 4,-2 7,-4 9,-7 4,-5 7,-14 11,-26l36 -125c2,-7 3,-12 3,-13 1,-2 1,-4 1,-6 0,-3 -1,-6 -3,-8 -2,-2 -5,-3 -8,-3 -3,0 -7,0 -13,2l-2 -6 52 -15 8 0z"/>
    <circle class="fil0 str1" cx="2846" cy="1279" r="159"/>
   </g>
   <g>
    <path class="fil1" d="M3130 4272l-111 0 0 -5c29,-27 53,-52 73,-74 17,-19 27,-33 32,-43 4,-10 6,-20 6,-30 0,-10 -3,-17 -9,-23 -6,-6 -13,-9 -22,-9 -15,0 -27,8 -37,24l-6 -3c6,-15 13,-27 21,-35 12,-11 26,-16 42,-16 15,0 27,5 37,14 10,9 15,20 15,32 0,10 -3,21 -8,31 -4,11 -14,24 -29,39 -11,12 -34,33 -69,63l40 0c13,0 22,-2 28,-5 5,-3 10,-8 14,-17l8 0 -25 57z"/>
    <circle class="fil0 str1" cx="3095" cy="4165" r="159"/>
   </g>
   <path class="fil1" d="M34 3329l23 -233c1,-12 2,-20 2,-24 0,-6 -2,-12 -7,-16 -5,-4 -12,-6 -22,-6l-7 0 2 -8 110 0 -2 8c-12,0 -20,1 -25,4 -4,2 -8,6 -10,12 -2,3 -3,12 -5,26l-16 167 110 -149c12,-16 19,-27 22,-34 2,-4 3,-8 3,-11 0,-4 -1,-7 -4,-10 -4,-3 -10,-4 -18,-5l2 -8 84 0 -2 8c-7,1 -12,2 -16,4 -8,4 -15,9 -23,16 -7,8 -19,22 -35,45l-158 214 -8 0z"/>
   <path id="1" class="fil1" d="M734 3323l-140 0 0 -8c71,-62 118,-111 141,-146 11,-17 16,-34 16,-52 0,-14 -4,-26 -13,-35 -9,-9 -20,-13 -34,-13 -20,0 -36,9 -48,28l-7 -4c7,-18 17,-31 30,-41 14,-10 28,-15 44,-15 18,0 33,6 45,18 12,12 18,27 18,45 0,12 -2,23 -6,33 -7,16 -19,34 -37,54 -27,31 -63,66 -108,106l71 0c11,0 20,-2 28,-7 7,-5 12,-11 15,-19l9 0 -24 56z"/>
   <path id="2" class="fil1" d="M299 3405l-1 5 -78 0 2 -5c7,0 13,-1 15,-2 4,-2 7,-4 9,-7 4,-4 7,-12 10,-24l33 -116c3,-9 5,-17 5,-22 0,-2 -1,-4 -2,-6 -1,-2 -3,-3 -6,-4 -2,-1 -7,-1 -14,-1l1 -5 74 0 -2 5c-6,0 -10,1 -13,2 -5,2 -8,5 -10,9 -2,4 -5,12 -9,25l-33 116c-3,10 -5,16 -5,19 0,2 1,4 2,5 1,2 3,3 6,4 2,1 8,1 16,2z"/>
   <path id="3" class="fil1" d="M492 3207l-50 171c-3,9 -4,15 -4,18 0,1 0,1 1,2 0,1 1,1 2,1 0,0 1,0 3,-1 2,-2 5,-8 10,-17l5 3c-5,9 -11,16 -17,21 -5,6 -11,8 -16,8 -2,0 -4,-1 -6,-3 -2,-2 -3,-6 -3,-10 0,-5 1,-12 4,-21l5 -18c-15,21 -29,36 -41,44 -8,5 -17,8 -24,8 -8,0 -15,-3 -21,-9 -6,-7 -9,-15 -9,-26 0,-14 5,-29 15,-45 9,-16 22,-29 38,-39 13,-8 24,-12 35,-12 5,0 10,1 14,3 4,2 8,5 12,10l13 -46c2,-6 3,-10 4,-13 1,-4 2,-7 2,-10 0,-2 -1,-3 -2,-5 -2,-1 -5,-2 -8,-2 -2,0 -6,0 -11,1l0 -5 49 -8zm-55 102c0,-6 -2,-11 -6,-15 -3,-3 -8,-5 -14,-5 -13,0 -27,10 -41,29 -15,20 -22,39 -22,57 0,7 2,12 6,16 3,4 8,6 13,6 11,0 25,-11 41,-32 15,-22 23,-40 23,-56z"/>
   <polygon id="4" class="fil1" points="589,3029 487,3328 471,3328 572,3029 "/>
   <path class="fil1" d="M12 1799l23 -234c1,-11 1,-19 1,-24 0,-6 -2,-11 -7,-15 -4,-4 -12,-6 -22,-6l-7 0 2 -8 111 0 -3 8c-12,0 -20,1 -24,3 -5,3 -8,7 -11,13 -1,3 -3,11 -4,26l-17 167 110 -149c12,-16 19,-28 23,-34 2,-5 3,-8 3,-11 0,-4 -2,-8 -5,-10 -3,-3 -9,-5 -18,-5l3 -8 83 0 -2 8c-6,0 -12,2 -16,4 -7,3 -15,9 -22,16 -8,7 -20,22 -36,44l-158 215 -7 0z"/>
   <path id="1" class="fil1" d="M712 1793l-140 0 0 -8c71,-62 118,-111 140,-146 11,-17 16,-34 16,-52 0,-14 -4,-26 -13,-35 -9,-9 -20,-14 -34,-14 -19,0 -35,10 -48,28l-7 -3c7,-18 17,-32 31,-42 13,-9 28,-14 43,-14 18,0 33,6 45,18 12,12 18,27 18,44 0,12 -2,24 -6,34 -7,16 -19,34 -37,54 -27,31 -63,66 -108,106l71 0c11,0 21,-3 28,-7 7,-5 12,-11 16,-19l8 0 -23 56z"/>
   <path id="2" class="fil1" d="M276 1874l-1 6 -78 0 2 -6c8,0 13,0 15,-2 5,-1 8,-3 10,-6 3,-5 6,-13 9,-24l34 -116c3,-10 4,-17 4,-22 0,-2 -1,-4 -2,-6 -1,-2 -3,-3 -6,-4 -2,-1 -7,-1 -14,-1l2 -6 73 0 -2 6c-6,-1 -10,0 -13,2 -4,2 -8,5 -10,9 -2,3 -5,12 -8,25l-34 116c-3,10 -4,16 -4,18 0,3 0,4 1,6 2,1 4,3 6,3 3,1 8,2 16,2z"/>
   <path id="3" class="fil1" d="M469 1677l-50 170c-2,10 -4,16 -4,19 0,0 1,1 1,2 1,1 1,1 2,1 1,0 2,-1 3,-2 2,-2 5,-7 11,-16l4 3c-5,9 -11,16 -16,21 -6,5 -11,8 -16,8 -3,0 -5,-1 -7,-4 -2,-2 -3,-5 -3,-9 0,-6 1,-13 4,-22l6 -18c-16,22 -29,36 -42,44 -8,6 -16,9 -24,9 -8,0 -15,-3 -21,-10 -6,-6 -9,-15 -9,-26 0,-14 5,-29 15,-45 10,-16 22,-29 38,-39 13,-8 25,-12 35,-12 6,0 10,1 14,4 4,2 8,5 12,10l14 -47c1,-5 2,-9 3,-13 1,-3 2,-7 2,-9 0,-2 -1,-4 -2,-5 -2,-2 -5,-2 -8,-2 -2,0 -5,0 -10,1l0 -6 48 -7zm-55 102c0,-7 -1,-11 -5,-15 -4,-4 -9,-6 -15,-6 -13,0 -27,10 -41,30 -14,20 -22,38 -22,56 0,8 2,13 6,17 4,3 8,5 13,5 11,0 25,-10 41,-32 16,-21 23,-40 23,-55z"/>
   <polygon id="4" class="fil1" points="566,1499 464,1798 448,1798 549,1499 "/>
  </g>
 </g>
</svg>
