<?xml version="1.0" encoding="UTF-8"?>
<!DOCTYPE svg PUBLIC "-//W3C//DTD SVG 1.1//EN" "http://www.w3.org/Graphics/SVG/1.1/DTD/svg11.dtd">
<!-- Creator: CorelDRAW Home & Student X8 -->
<svg xmlns="http://www.w3.org/2000/svg" xml:space="preserve" width="117.531mm" height="61.0635mm" version="1.1" style="shape-rendering:geometricPrecision; text-rendering:geometricPrecision; image-rendering:optimizeQuality; fill-rule:evenodd; clip-rule:evenodd"
viewBox="0 0 6719 3491"
 xmlns:xlink="http://www.w3.org/1999/xlink">
 <defs>
  <style type="text/css">
   <![CDATA[
    .str0 {stroke:#2B2A29;stroke-width:22.868}
    .str2 {stroke:#2B2A29;stroke-width:17.151}
    .str1 {stroke:#2B2A29;stroke-width:11.434}
    .fil0 {fill:none}
    .fil1 {fill:#2B2A29;fill-rule:nonzero}
   ]]>
  </style>
 </defs>
 <g id="Warstwa_x0020_1">
  <metadata id="CorelCorpID_0Corel-Layer"/>
  <g id="_578217312">
   <polyline class="fil0 str0" points="1123,1228 1087,1316 1015,1136 943,1316 872,1136 800,1316 728,1136 692,1228 "/>
   <polyline class="fil0 str0" points="2066,1228 2030,1316 1959,1136 1887,1316 1815,1136 1744,1316 1672,1136 1636,1228 "/>
   <polyline class="fil0 str0" points="2066,2973 2030,3061 1959,2881 1887,3061 1815,2881 1744,3061 1672,2881 1636,2973 "/>
   <polyline class="fil0 str0" points="1123,2973 1087,3061 1015,2881 943,3061 872,2881 800,3061 728,2881 692,2973 "/>
   <path class="fil0 str0" d="M2257 992l347 0m-341 -158c117,110 206,109 320,-1"/>
   <path class="fil0 str0" d="M2686 2776l0 347m157 -341c-110,117 -109,206 1,320"/>
   <ellipse class="fil0 str0" cx="335" cy="2089" rx="324" ry="326"/>
   <polygon class="fil1" points="274,1875 315,1875 315,1834 350,1834 350,1875 392,1875 392,1910 350,1910 350,1952 315,1952 315,1910 274,1910 "/>
   <polygon class="fil1" points="282,2299 395,2299 395,2323 282,2323 "/>
   <polygon class="fil1" points="6140,2143 6253,2143 6253,2167 6140,2167 "/>
   <polyline class="fil0 str1" points="4530,1107 5921,1107 5921,174 4300,174 "/>
   <g>
    <path class="fil1" d="M1398 178l2796 0 0 11 -2796 0 -6 -6 6 -5zm-6 5l0 -5 6 0 -6 5zm0 1033l0 -1033 12 0 0 1033 -12 0zm47 0l0 0 0 2 -1 2 0 2 0 2 -1 2 0 2 -1 2 -1 2 0 2 -1 2 -1 1 -1 2 -1 2 -2 1 -1 2 -1 1 -2 1 -1 2 -2 1 -1 1 -2 1 -2 1 -1 1 -2 1 -2 0 -2 1 -2 1 -2 0 -2 0 -2 1 -2 0 -2 0 0 0 -2 0 -2 0 -2 -1 -2 0 -2 0 -2 -1 -2 -1 -2 0 -2 -1 -1 -1 -2 -1 -2 -1 -1 -1 -2 -1 -1 -2 -2 -1 -1 -1 -1 -2 -2 -1 -1 -2 -1 -2 -1 -1 -1 -2 0 -2 -1 -2 -1 -2 0 -2 -1 -2 0 -2 0 -2 -1 -2 0 -2 0 0 0 -2 1 -2 0 -2 0 -2 1 -2 0 -2 1 -2 1 -2 0 -1 1 -2 1 -2 1 -1 1 -2 2 -2 1 -1 1 -1 2 -2 1 -1 2 -1 1 -1 2 -1 2 -1 1 -1 2 -1 2 -1 2 -1 2 0 2 -1 2 0 2 0 2 0 2 0 0 0 2 0 2 0 2 0 2 0 2 1 2 0 2 1 2 1 2 1 1 1 2 1 2 1 1 1 2 1 1 1 2 2 1 1 1 1 2 2 1 2 1 1 1 2 1 2 0 1 1 2 1 2 0 2 1 2 0 2 0 2 1 2 0 2z"/>
   </g>
   <line class="fil0 str1" x1="2430" y1="913" x2="2430" y2= "379" />
   <g>
    <path class="fil1" d="M3098 1248l0 0 -2 0 -2 0 -2 0 -2 -1 -2 0 -2 -1 -1 0 -2 -1 -2 -1 -2 -1 -2 -1 -1 -1 -2 -1 -1 -1 -2 -2 -1 -1 -2 -1 -1 -2 -1 -1 -1 -2 -1 -2 -1 -1 -1 -2 -1 -2 -1 -2 0 -2 -1 -2 0 -1 -1 -2 0 -3 0 -2 0 -2 20 0 0 1 0 1 0 1 1 1 0 1 0 1 0 1 1 1 0 1 1 1 0 1 1 1 0 0 1 1 0 1 1 1 1 0 1 1 0 1 1 0 1 1 1 0 1 1 1 0 1 0 0 1 1 0 1 0 1 0 1 1 1 0 1 0 0 0 0 20zm41 -41l0 0 0 2 0 2 0 3 -1 2 0 1 -1 2 0 2 -1 2 -1 2 -1 2 -1 1 -1 2 -1 2 -1 1 -1 2 -2 1 -1 1 -2 2 -1 1 -2 1 -1 1 -2 1 -2 1 -2 1 -2 1 -1 0 -2 1 -2 0 -2 1 -2 0 -2 0 -3 0 0 -20 2 0 1 0 1 -1 1 0 1 0 1 0 0 -1 1 0 1 0 1 -1 1 0 1 -1 1 0 0 -1 1 -1 1 0 1 -1 0 -1 1 -1 0 0 1 -1 0 -1 1 -1 0 -1 1 -1 0 -1 0 -1 0 -1 1 -1 0 -1 0 -1 0 -1 0 0 20 0zm-41 -40l0 0 3 0 2 0 2 0 2 0 2 1 2 0 1 1 2 1 2 1 2 1 2 1 1 1 2 1 1 1 2 1 1 2 2 1 1 1 1 2 1 2 1 1 1 2 1 2 1 1 1 2 0 2 1 2 0 2 1 2 0 2 0 2 0 2 -20 0 0 -1 0 -1 0 -1 -1 -1 0 -1 0 -1 0 -1 -1 -1 0 0 -1 -1 0 -1 -1 -1 0 -1 -1 -1 0 0 -1 -1 -1 -1 -1 0 0 -1 -1 -1 -1 0 -1 -1 -1 0 -1 0 -1 -1 0 0 -1 0 -1 -1 -1 0 -1 0 -1 0 -2 0 0 0 0 -20zm-40 40l0 -2 0 -2 0 -2 1 -2 0 -2 1 -2 0 -2 1 -2 1 -1 1 -2 1 -2 1 -1 1 -2 1 -2 1 -1 2 -1 1 -2 2 -1 1 -1 2 -1 1 -1 2 -1 2 -1 2 -1 2 -1 1 -1 2 0 2 -1 2 0 2 0 2 0 2 0 0 20 -1 0 -1 0 -1 0 -1 0 -1 1 -1 0 0 0 -1 1 -1 0 -1 0 -1 1 -1 0 -1 1 0 1 -1 0 -1 1 -1 1 0 0 -1 1 0 1 -1 1 0 1 -1 1 0 0 -1 1 0 1 0 1 0 1 -1 1 0 1 0 1 0 1 -20 0zm-992 -5l1004 0 0 11 -1004 0 0 -11z"/>
   </g>
   <g>
    <path class="fil1" d="M2408 1225l0 -2 0 -2 0 -2 1 -2 0 -2 1 -2 0 -2 1 -2 1 -1 1 -2 1 -2 1 -2 1 -1 1 -2 1 -1 2 -2 1 -1 2 -1 1 -1 2 -2 2 -1 1 -1 2 -1 2 0 2 -1 1 -1 2 0 2 -1 2 0 2 0 2 0 3 -1 0 0 2 1 2 0 2 0 2 0 2 1 2 0 2 1 1 1 2 0 2 1 2 1 1 1 2 2 1 1 2 1 1 1 2 2 1 1 1 2 1 1 1 2 1 2 1 2 1 1 1 2 0 2 1 2 0 2 1 2 0 2 0 2 0 2 0 0 0 2 0 2 0 2 -1 2 0 2 -1 2 0 2 -1 2 -1 2 -1 1 -1 2 -1 2 -1 1 -1 2 -1 1 -2 2 -1 1 -2 1 -1 2 -2 1 -1 1 -2 1 -2 1 -2 1 -1 0 -2 1 -2 0 -2 1 -2 0 -2 1 -2 0 -2 0 0 0 -3 0 -2 0 -2 -1 -2 0 -2 -1 -2 0 -1 -1 -2 0 -2 -1 -2 -1 -1 -1 -2 -1 -2 -1 -1 -2 -2 -1 -1 -1 -2 -2 -1 -1 -1 -2 -1 -1 -1 -2 -1 -2 -1 -1 -1 -2 -1 -2 0 -2 -1 -2 0 -2 -1 -2 0 -2 0 -2 0 -2 0 0zm46 -232l0 232 -11 0 0 -232 11 0z"/>
   </g>
   <path class="fil0 str0" d="M4308 347l0 -347m-157 341c109,-117 108,-206 -1,-320"/>
   <path class="fil0 str0" d="M4281 3489l0 -347m-157 341c110,-117 109,-206 -1,-320"/>
   <polygon class="fil1" points="6114,1105 6155,1105 6155,1064 6190,1064 6190,1105 6232,1105 6232,1140 6190,1140 6190,1182 6155,1182 6155,1140 6114,1140 "/>
   <line class="fil0 str1" x1="1636" y1="1228" x2="1123" y2= "1228" />
   <polyline class="fil0 str1" points="692,1228 339,1228 339,1763 "/>
   <g>
    <path class="fil1" d="M3125 1960l0 0 -2 0 -2 0 -2 0 -2 -1 -2 0 -2 -1 -2 0 -2 -1 -1 -1 -2 -1 -2 -1 -2 -1 -1 -1 -2 -1 -1 -1 -2 -2 -1 -1 -1 -2 -1 -1 -2 -2 -1 -1 -1 -2 0 -2 -1 -2 -1 -1 -1 -2 0 -2 -1 -2 0 -2 0 -2 0 -2 0 -2 20 0 0 1 0 1 0 1 0 1 0 1 1 1 0 1 0 0 1 1 0 1 1 1 0 1 1 1 1 0 0 1 1 1 1 1 0 0 1 1 1 0 1 1 1 0 0 1 1 0 1 1 1 0 1 0 1 0 1 1 1 0 1 0 1 0 0 0 0 20zm41 -40l0 0 0 2 0 2 -1 2 0 2 0 2 -1 2 -1 2 0 1 -1 2 -1 2 -1 2 -1 1 -1 2 -1 1 -2 2 -1 1 -2 2 -1 1 -2 1 -1 1 -2 1 -1 1 -2 1 -2 1 -2 1 -2 0 -2 1 -2 0 -2 1 -2 0 -2 0 -2 0 0 -20 1 0 1 0 1 0 1 -1 1 0 1 0 1 0 1 -1 1 0 1 -1 1 0 1 -1 0 0 1 -1 1 0 1 -1 0 -1 1 -1 0 0 1 -1 1 -1 0 -1 1 -1 0 -1 0 0 1 -1 0 -1 0 -1 0 -1 0 -1 0 -1 1 -1 0 0 20 0zm-41 -41l0 0 2 0 2 0 2 0 2 1 2 0 2 1 2 0 2 1 2 1 2 1 1 1 2 1 1 1 2 1 1 1 2 2 1 1 2 2 1 1 1 2 1 1 1 2 1 2 1 2 0 2 1 1 1 2 0 2 0 2 1 2 0 2 0 3 -20 0 -1 -2 0 -1 0 -1 0 -1 0 -1 0 0 -1 -1 0 -1 0 -1 -1 -1 0 -1 -1 -1 -1 -1 0 0 -1 -1 0 -1 -1 0 -1 -1 -1 -1 0 0 -1 -1 -1 0 -1 -1 -1 0 -1 -1 -1 0 -1 0 -1 0 -1 -1 -1 0 -1 0 -1 0 0 0 0 -20zm-40 41l0 -3 0 -2 0 -2 0 -2 1 -2 0 -2 1 -1 1 -2 1 -2 0 -2 1 -2 1 -1 2 -2 1 -1 1 -2 1 -1 2 -2 1 -1 2 -1 1 -1 2 -1 2 -1 2 -1 1 -1 2 -1 2 0 2 -1 2 0 2 -1 2 0 2 0 2 0 0 20 -1 0 -1 0 -1 0 -1 1 -1 0 -1 0 -1 0 -1 1 -1 0 0 1 -1 0 -1 1 -1 0 -1 1 0 1 -1 0 -1 1 0 1 -1 0 -1 1 0 1 -1 1 0 1 -1 1 0 1 0 1 -1 0 0 1 0 1 0 1 0 1 0 2 -20 0zm-663 -6l675 0 0 11 -675 0 -6 -5 6 -6zm-6 6l0 -6 6 0 -6 6zm0 1032l0 -1032 12 0 0 1032 -6 5 -6 -5zm6 5l-6 0 0 -5 6 5zm260 1l-260 -1 0 -11 260 1 0 11z"/>
   </g>
   <g>
    <path class="fil1" d="M3282 2955l-517 0 0 -12 517 0 0 12zm0 47l-11 0 0 -106 21 0 0 106 -10 0z"/>
   </g>
   <g>
    <path class="fil1" d="M2431 2993l-2 0 -2 0 -2 -1 -2 0 -2 0 -2 -1 -2 -1 -2 0 -2 -1 -2 -1 -1 -1 -2 -1 -2 -1 -1 -1 -2 -2 -1 -1 -1 -1 -2 -2 -1 -1 -1 -2 -1 -2 -1 -1 -1 -2 -1 -2 0 -2 -1 -2 -1 -2 0 -2 0 -2 -1 -2 0 -2 0 -2 0 0 0 -2 0 -2 1 -2 0 -2 0 -2 1 -2 1 -2 0 -2 1 -1 1 -2 1 -2 1 -1 1 -2 1 -2 2 -1 1 -1 1 -2 2 -1 1 -1 2 -1 2 -1 1 -1 2 -1 2 -1 2 -1 2 -1 2 0 2 -1 2 0 2 0 2 0 2 0 0 0 2 0 2 0 2 0 2 0 2 1 2 0 2 1 2 1 1 1 2 1 2 1 1 1 2 1 2 1 1 1 1 2 2 1 1 1 1 2 1 2 2 1 1 2 0 2 1 1 1 2 1 2 0 2 1 2 0 2 0 2 0 2 0 2 0 0 0 2 0 2 0 2 0 2 -1 2 0 2 -1 2 -1 2 -1 2 0 2 -1 1 -2 2 -1 2 -1 1 -1 2 -2 1 -1 1 -1 2 -2 1 -2 1 -1 1 -2 1 -2 1 -1 1 -2 0 -2 1 -2 1 -2 0 -2 0 -2 1 -2 0 -2 0 0 0zm-365 -46l365 0 0 11 -365 0 0 -11z"/>
   </g>
   <line class="fil0 str1" x1="1636" y1="2973" x2="1123" y2= "2973" />
   <polyline class="fil0 str1" points="692,2973 347,2973 347,2415 "/>
   <polyline class="fil0 str1" points="4530,1995 5903,2004 5918,3320 4324,3320 "/>
   <g>
    <path class="fil1" d="M1371 3317l2831 0 0 11 -2831 0 -6 -5 6 -6zm0 11l-6 0 0 -5 6 5zm6 -355l0 350 -12 0 0 -350 12 0zm-46 0l0 0 0 -2 0 -2 0 -2 0 -2 1 -2 0 -2 1 -2 1 -2 1 -2 0 -2 1 -1 2 -2 1 -2 1 -1 1 -2 1 -1 2 -1 1 -2 2 -1 2 -1 1 -1 2 -1 2 -1 1 -1 2 0 2 -1 2 -1 2 0 2 0 2 -1 2 0 2 0 0 0 2 0 2 0 2 1 2 0 2 0 2 1 2 1 2 0 2 1 2 1 1 1 2 1 2 1 1 1 2 2 1 1 1 1 2 2 1 1 1 2 1 2 1 1 1 2 1 2 0 2 1 2 1 2 0 2 0 2 1 2 0 2 0 2 0 0 0 2 0 2 -1 2 0 2 0 2 -1 2 -1 2 0 2 -1 1 -1 2 -1 2 -1 1 -1 2 -1 2 -2 1 -1 1 -1 2 -2 1 -1 1 -2 1 -2 2 -1 1 -2 0 -2 1 -2 1 -2 1 -2 0 -2 1 -2 0 -2 0 -2 0 -2 0 0 0 -2 0 -2 0 -2 0 -2 0 -2 -1 -2 0 -2 -1 -2 -1 -1 -1 -2 0 -2 -1 -1 -2 -2 -1 -2 -1 -1 -1 -2 -2 -1 -1 -1 -1 -1 -2 -1 -2 -2 -1 -1 -2 0 -2 -1 -1 -1 -2 -1 -2 0 -2 -1 -2 0 -2 0 -2 0 -2 0 -2z"/>
   </g>
   <path class="fil1" d="M838 2671l-18 62c-2,9 -4,15 -4,20 0,3 2,7 5,9 3,2 10,4 20,4l-3 5 -98 0 2 -5c10,0 17,-2 21,-6 5,-4 9,-13 13,-26l38 -132c2,-7 3,-13 3,-17 0,-4 -1,-8 -4,-10 -3,-2 -9,-3 -18,-4l1 -5 85 0c25,0 42,4 52,12 9,9 14,20 14,33 0,14 -5,27 -17,38 -7,7 -20,13 -39,18l18 63c5,16 10,27 13,30 4,4 10,5 19,6l0 5 -64 0 -29 -100 -5 0c-1,0 -3,0 -5,0zm3 -9c3,0 6,0 9,0 14,0 26,-5 35,-15 9,-10 14,-23 14,-40 0,-10 -2,-17 -7,-22 -5,-5 -12,-8 -20,-8 -2,0 -4,1 -7,1l-24 84z"/>
   <path id="1" class="fil1" d="M1095 2562l-51 172c-3,9 -4,15 -4,17 0,2 1,5 3,8 2,2 4,4 6,5 2,0 9,1 20,2l-2 5 -104 0 2 -5c10,0 17,-1 21,-3 5,-1 8,-4 10,-7 3,-4 6,-11 9,-22l30 -102c5,-16 7,-24 8,-25 0,-3 1,-5 1,-7 0,-5 -2,-9 -5,-11 -2,-3 -6,-4 -12,-4 -2,0 -7,0 -15,1l-1 -6 78 -18 6 0z"/>
   <path class="fil1" d="M1731 909l-18 62c-3,9 -4,15 -4,20 0,3 2,6 5,9 3,2 9,3 19,4l-2 5 -99 0 2 -5c10,0 17,-2 22,-6 5,-4 9,-13 13,-26l37 -132c2,-7 3,-13 3,-17 0,-5 -1,-8 -3,-10 -3,-2 -9,-3 -19,-4l2 -5 85 0c24,0 41,4 51,12 10,9 15,20 15,33 0,14 -6,27 -17,38 -8,7 -21,13 -39,18l18 63c5,16 9,27 13,30 4,3 10,5 18,6l0 5 -64 0 -28 -100 -5 0c-1,0 -3,0 -5,0zm2 -9c4,0 7,0 9,0 15,0 26,-5 36,-15 9,-10 14,-24 14,-40 0,-10 -3,-17 -8,-22 -5,-5 -11,-8 -20,-8 -1,0 -4,0 -7,1l-24 84z"/>
   <path id="1" class="fil1" d="M1959 1009l-109 0 0 -6c28,-26 52,-50 72,-72 16,-18 26,-32 30,-42 4,-9 7,-19 7,-29 0,-9 -3,-17 -9,-22 -6,-6 -13,-9 -22,-9 -14,0 -26,8 -36,23l-5 -2c5,-15 12,-27 20,-34 12,-11 25,-16 41,-16 14,0 26,4 36,13 9,9 14,19 14,31 0,11 -2,21 -7,31 -4,10 -14,23 -28,38 -12,12 -34,32 -68,61l40 0c12,0 21,-1 26,-4 5,-3 10,-9 15,-17l7 0 -24 56z"/>
   <path class="fil1" d="M4341 420l-16 65 -5 0c-1,-17 -5,-31 -13,-39 -8,-9 -19,-14 -32,-14 -14,0 -28,6 -42,18 -14,12 -26,31 -35,55 -8,20 -12,40 -12,59 0,17 4,31 13,40 8,9 20,14 35,14 12,0 23,-3 33,-8 10,-5 20,-14 31,-26l7 0c-13,19 -26,32 -38,40 -13,7 -29,11 -47,11 -25,0 -45,-8 -60,-22 -15,-15 -23,-35 -23,-59 0,-23 6,-44 19,-65 12,-20 29,-37 51,-50 23,-12 45,-19 68,-19 8,0 19,2 32,6 6,1 10,2 13,2 5,0 10,-2 15,-8l6 0z"/>
   <path id="1" class="fil1" d="M4463 421l-51 172c-3,9 -4,15 -4,17 0,3 1,5 3,8 2,3 4,4 6,5 2,1 8,1 19,2l-1 5 -104 0 2 -5c10,0 17,-1 21,-3 4,-1 8,-4 10,-7 3,-4 6,-11 9,-22l30 -102c5,-16 7,-24 7,-25 1,-2 1,-5 1,-7 0,-5 -1,-8 -4,-11 -3,-3 -7,-4 -12,-4 -2,0 -7,0 -15,1l-1 -5 77 -19 7 0z"/>
   <path class="fil1" d="M2816 660l-15 65 -5 0c-1,-18 -6,-31 -14,-40 -8,-9 -18,-13 -31,-13 -15,0 -29,6 -43,18 -14,12 -25,30 -35,55 -8,19 -12,39 -12,59 0,17 4,30 13,39 9,10 20,14 35,14 13,0 24,-3 34,-8 10,-5 20,-13 30,-25l7 0c-12,18 -25,32 -38,39 -13,8 -28,11 -47,11 -25,0 -44,-7 -60,-22 -15,-15 -22,-35 -22,-59 0,-22 6,-44 18,-64 12,-21 29,-37 52,-50 22,-13 45,-19 67,-19 9,0 19,2 32,5 6,2 11,3 13,3 5,0 11,-3 16,-8l5 0z"/>
   <path id="1" class="fil1" d="M2909 870l-109 0 0 -6c29,-26 53,-50 72,-72 16,-18 27,-32 31,-42 4,-10 6,-19 6,-29 0,-9 -3,-17 -9,-22 -5,-6 -13,-9 -21,-9 -14,0 -26,8 -36,23l-6 -2c5,-15 12,-27 21,-34 11,-11 25,-16 40,-16 15,0 27,4 37,13 9,9 14,19 14,31 0,11 -3,21 -7,31 -5,10 -14,23 -29,38 -11,12 -34,32 -67,61l39 0c13,0 22,-1 27,-4 5,-3 10,-9 14,-18l7 0 -24 57z"/>
   <path class="fil1" d="M815 932l-18 62c-2,9 -4,16 -4,20 0,4 2,7 5,9 3,2 10,4 19,4l-2 5 -98 0 1 -5c10,0 18,-2 22,-6 5,-4 9,-13 13,-26l38 -132c2,-7 3,-13 3,-17 0,-4 -2,-8 -4,-10 -3,-2 -9,-3 -19,-4l2 -5 85 0c24,0 41,4 51,13 10,8 15,19 15,32 0,14 -6,27 -17,38 -8,7 -20,13 -39,18l18 63c5,17 9,27 13,30 4,4 10,6 18,6l0 5 -63 0 -29 -100 -5 0c-1,0 -3,0 -5,0zm3 -9c3,0 6,0 8,0 15,0 27,-5 36,-15 9,-10 14,-23 14,-40 0,-9 -3,-17 -8,-22 -5,-5 -11,-7 -19,-7 -2,0 -5,0 -7,0l-24 84z"/>
   <path id="1" class="fil1" d="M1072 823l-51 172c-3,9 -4,15 -4,17 0,3 1,5 3,8 2,2 4,4 6,5 2,1 8,1 19,2l-1 5 -104 0 2 -5c10,0 17,-1 21,-3 4,-1 8,-4 10,-7 3,-4 6,-11 9,-22l30 -102c5,-16 7,-24 7,-25 1,-3 1,-5 1,-7 0,-5 -1,-9 -4,-11 -3,-3 -7,-4 -12,-4 -2,0 -7,0 -15,1l-1 -6 77 -18 7 0z"/>
   <path class="fil1" d="M1766 2682l-18 63c-3,8 -4,15 -4,19 0,4 1,7 4,10 4,2 10,3 20,3l-2 6 -99 0 2 -6c10,0 17,-2 22,-6 4,-3 9,-12 12,-26l38 -131c2,-8 3,-14 3,-18 0,-4 -1,-7 -4,-9 -2,-2 -8,-4 -18,-4l2 -6 85 0c24,0 41,5 51,13 10,8 15,19 15,33 0,14 -6,26 -18,38 -7,7 -20,13 -38,18l18 62c5,17 9,27 13,31 3,3 9,5 18,5l0 6 -64 0 -29 -101 -5 1c-1,0 -2,-1 -4,-1zm2 -9c4,0 7,1 9,1 14,0 26,-5 36,-16 9,-10 13,-23 13,-39 0,-10 -2,-17 -7,-22 -5,-5 -12,-8 -20,-8 -2,0 -4,0 -7,0l-24 84z"/>
   <path id="1" class="fil1" d="M1994 2783l-109 0 0 -6c28,-26 52,-50 71,-72 17,-19 27,-32 31,-42 4,-10 6,-19 6,-29 0,-9 -3,-17 -8,-23 -6,-5 -13,-8 -22,-8 -14,0 -26,7 -36,23l-6 -3c6,-15 12,-26 21,-34 11,-10 25,-16 41,-16 14,0 26,5 36,14 9,9 14,19 14,31 0,10 -2,21 -7,31 -5,10 -14,23 -29,38 -11,12 -33,32 -67,61l39 0c13,0 22,-2 27,-4 5,-3 10,-9 14,-18l7 0 -23 57z"/>
   <path class="fil1" d="M4240 2753l-16 65 -5 0c-1,-18 -5,-31 -13,-40 -8,-9 -19,-13 -32,-13 -14,0 -28,6 -42,18 -14,11 -26,30 -35,54 -8,20 -12,40 -12,59 0,18 4,31 13,40 8,9 20,14 35,14 12,0 23,-3 33,-8 10,-5 20,-14 31,-26l7 0c-13,19 -25,32 -38,40 -13,7 -29,11 -47,11 -25,0 -45,-7 -60,-22 -15,-15 -22,-35 -22,-59 0,-23 6,-44 18,-65 12,-20 29,-37 52,-49 22,-13 45,-19 67,-19 8,0 19,1 32,5 6,2 11,3 13,3 5,0 10,-3 15,-8l6 0z"/>
   <path id="1" class="fil1" d="M4362 2753l-51 172c-3,9 -4,15 -4,18 0,2 1,5 3,7 2,3 4,4 6,5 2,1 9,2 19,2l-1 6 -104 0 2 -6c10,0 17,-1 21,-2 4,-2 8,-4 10,-8 3,-3 6,-11 9,-22l30 -102c5,-15 7,-24 8,-25 0,-2 1,-5 1,-7 0,-5 -2,-8 -5,-11 -3,-2 -6,-4 -12,-4 -2,0 -7,1 -15,1l-1 -5 78 -19 6 0z"/>
   <path class="fil1" d="M2808 2544l-16 65 -5 0c-1,-18 -5,-31 -13,-40 -8,-9 -19,-13 -32,-13 -14,0 -28,6 -42,18 -14,12 -26,30 -36,54 -7,20 -11,40 -11,59 0,18 4,31 13,40 8,9 20,14 35,14 12,0 23,-3 33,-8 10,-5 20,-14 31,-25l7 0c-13,18 -26,31 -38,39 -13,8 -29,11 -47,11 -25,0 -45,-7 -60,-22 -15,-15 -23,-35 -23,-59 0,-22 6,-44 18,-65 13,-20 30,-37 52,-49 23,-13 45,-19 68,-19 8,0 19,1 31,5 7,2 11,3 14,3 5,0 10,-3 15,-8l6 0z"/>
   <path id="1" class="fil1" d="M2901 2754l-109 0 0 -6c28,-26 52,-50 72,-72 16,-19 26,-32 30,-42 5,-10 7,-19 7,-29 0,-9 -3,-17 -9,-23 -6,-5 -13,-8 -22,-8 -14,0 -26,7 -36,23l-5 -3c5,-15 12,-26 20,-34 12,-10 25,-16 41,-16 15,0 27,5 36,14 10,9 14,19 14,31 0,10 -2,21 -7,31 -4,10 -14,23 -28,38 -11,12 -34,32 -68,61l40 0c12,0 21,-1 26,-4 5,-3 10,-9 15,-18l7 0 -24 57z"/>
   <path class="fil1" d="M843 2146l17 -170c0,-9 1,-15 1,-18 0,-5 -2,-8 -5,-11 -4,-3 -9,-5 -16,-5l-6 0 2 -5 81 0 -2 5c-9,0 -15,1 -18,3 -3,2 -6,5 -8,9 -1,2 -2,8 -3,19l-12 122 81 -109c8,-12 14,-20 16,-25 1,-3 2,-6 2,-8 0,-3 -1,-5 -3,-7 -3,-2 -7,-3 -13,-4l1 -5 62 0 -2 5c-5,1 -8,1 -11,3 -6,3 -11,7 -17,12 -5,5 -14,16 -26,32l-115 157 -6 0z"/>
   <path id="1" class="fil1" d="M1039 2204l-1 4 -60 0 2 -4c6,0 10,0 12,-1 3,-2 5,-3 7,-5 2,-4 5,-10 7,-19l25 -88c3,-7 4,-13 4,-17 0,-2 -1,-3 -2,-4 -1,-2 -2,-3 -4,-3 -2,-1 -6,-1 -11,-1l1 -4 56 0 -1 4c-5,-1 -8,0 -10,1 -4,2 -6,4 -8,7 -1,3 -4,9 -6,19l-26 89c-2,7 -3,12 -3,14 0,2 0,3 1,4 1,1 3,2 4,3 2,0 7,1 13,1z"/>
   <path id="2" class="fil1" d="M1186 2053l-38 131c-2,7 -3,11 -3,13 0,1 0,2 0,2 1,1 1,1 2,1 0,0 1,0 2,-1 2,-2 4,-6 8,-13l4 2c-4,7 -9,13 -13,17 -4,4 -8,6 -12,6 -2,0 -4,-1 -5,-3 -2,-2 -2,-4 -2,-7 0,-4 1,-10 3,-17l4 -13c-12,16 -22,27 -32,33 -6,4 -12,7 -18,7 -6,0 -12,-3 -16,-8 -5,-5 -7,-11 -7,-19 0,-11 4,-23 11,-35 8,-12 18,-22 30,-29 9,-7 18,-10 26,-10 4,0 8,1 11,3 3,1 6,4 9,8l10 -36c2,-4 2,-7 3,-10 1,-3 1,-5 1,-7 0,-1 0,-3 -1,-4 -2,-1 -4,-1 -6,-1 -2,0 -4,0 -8,0l0 -4 37 -6zm-42 78c0,-4 -1,-8 -4,-11 -3,-3 -7,-4 -11,-4 -11,0 -21,7 -32,22 -11,15 -16,30 -16,43 0,6 1,10 4,13 3,3 6,4 10,4 9,0 19,-8 31,-24 12,-17 18,-31 18,-43z"/>
   <path class="fil1" d="M5978 1664l17 -171c1,-9 1,-15 1,-18 0,-4 -1,-8 -5,-11 -3,-3 -9,-5 -16,-5l-5 0 1 -5 81 0 -1 5c-9,0 -15,1 -19,3 -3,2 -5,5 -7,9 -1,2 -2,8 -3,19l-12 123 80 -110c9,-12 14,-20 16,-25 2,-3 3,-6 3,-8 0,-3 -2,-5 -4,-7 -2,-2 -7,-3 -13,-4l2 -5 61 0 -1 5c-5,1 -9,2 -12,3 -6,3 -11,7 -17,12 -5,5 -14,16 -26,33l-115 157 -6 0z"/>
   <path id="1" class="fil1" d="M6230 1575c9,0 18,3 26,7 7,4 13,10 17,18 4,9 7,17 7,26 0,16 -5,32 -14,50 -9,17 -21,30 -36,39 -15,9 -30,14 -46,14 -11,0 -20,-3 -28,-8 -8,-5 -13,-11 -17,-20 -3,-8 -5,-16 -5,-24 0,-13 3,-27 10,-40 6,-13 14,-25 23,-34 9,-9 19,-16 30,-20 10,-5 21,-8 33,-8zm-4 7c-7,0 -15,2 -21,6 -7,3 -14,9 -21,17 -7,8 -13,19 -18,32 -7,16 -10,31 -10,46 0,10 2,19 8,27 5,8 13,12 24,12 7,0 13,-2 19,-5 7,-3 13,-9 20,-17 9,-10 16,-22 22,-37 6,-16 9,-30 9,-43 0,-10 -3,-19 -8,-26 -6,-8 -14,-12 -24,-12z"/>
   <path id="2" class="fil1" d="M6407 1571l-38 130c-2,7 -3,11 -3,14 0,0 1,1 1,1 0,1 1,1 1,1 1,0 2,0 2,-1 2,-2 5,-6 9,-13l3 3c-4,7 -8,12 -12,16 -5,4 -9,6 -13,6 -2,0 -3,-1 -5,-3 -1,-1 -2,-4 -2,-7 0,-4 1,-10 3,-16l4 -14c-11,16 -22,27 -31,33 -7,5 -13,7 -19,7 -6,0 -11,-3 -16,-7 -4,-5 -6,-12 -6,-20 0,-11 3,-22 11,-35 7,-12 17,-22 29,-29 10,-6 19,-9 27,-9 4,0 7,0 11,2 3,2 6,4 9,8l10 -36c1,-4 2,-7 3,-10 0,-2 1,-5 1,-7 0,-1 -1,-2 -2,-3 -1,-2 -3,-2 -6,-2 -1,0 -4,0 -8,1l0 -4 37 -6zm-41 77c0,-4 -2,-8 -5,-11 -3,-3 -6,-4 -11,-4 -10,0 -21,7 -31,22 -11,15 -17,30 -17,44 0,5 2,9 4,12 3,3 7,4 10,4 9,0 20,-8 32,-24 12,-16 18,-31 18,-43z"/>
   <g>
    <path class="fil1" d="M6660 1207l59 144 0 0 -4 -2 -3 -2 -4 -2 -4 -1 -4 -2 -3 -1 -4 -1 -4 -1 -4 -1 -4 -1 -3 -1 -4 0 -4 -1 -4 0 -4 -1 -4 0 -3 0 -4 1 -4 0 -4 0 -4 1 -3 0 -4 1 -4 1 -4 1 -4 1 -4 1 -3 1 -4 2 -4 1 -4 2 -4 2 63 -142zm-18 840l12 -768 11 0 -11 768 -12 0z"/>
   </g>
   <g>
    <path class="fil1" d="M2436 379l0 534 -11 0 0 -534 11 0zm47 0l0 11 -106 0 0 -21 106 0 0 10z"/>
   </g>
   <g>
    <path class="fil1" d="M3290 1336l58 143 0 0 -4 -1 -4 -2 -4 -2 -3 -2 -4 -1 -4 -1 -4 -2 -4 -1 -3 -1 -4 -1 -4 0 -4 -1 -4 0 -3 -1 -4 0 -4 0 -4 0 -4 0 -3 0 -4 0 -4 1 -4 0 -4 1 -4 1 -3 1 -4 1 -4 1 -4 1 -4 2 -4 1 -3 2 -4 1 64 -140zm-18 505l11 -434 11 0 -11 434 -11 0z"/>
   </g>
   <path class="fil1" d="M4342 2126l-56 197 22 -19c25,-21 42,-37 49,-47 3,-4 4,-6 4,-8 0,-1 0,-2 -1,-4 -1,-1 -3,-2 -5,-2 -2,-1 -6,-1 -12,-1l-7 0 2 -8 88 0 -2 8c-10,0 -19,2 -26,5 -8,2 -15,6 -22,12 -13,10 -22,17 -26,21l-18 15c3,10 7,23 11,40 7,29 12,46 15,51 2,5 5,8 8,8 2,0 5,-1 8,-4 7,-5 14,-13 22,-24l7 5c-15,19 -26,31 -33,36 -8,6 -15,9 -22,9 -5,0 -10,-2 -13,-6 -5,-8 -14,-39 -26,-93l-28 23 -21 72 -31 0 66 -230 6 -19c0,-4 1,-6 1,-9 0,-3 -1,-6 -4,-8 -2,-2 -6,-3 -10,-3 -4,0 -8,1 -15,2l0 -7 69 -12z"/>
   <path id="1" class="fil1" d="M4417 2242l57 -12c4,10 7,20 10,30 3,15 7,33 9,54 1,10 2,32 4,66 17,-18 27,-30 30,-34 18,-24 29,-38 31,-42 5,-7 8,-14 10,-19 1,-4 2,-8 2,-11 0,-4 -3,-8 -9,-12 -6,-5 -9,-10 -9,-16 0,-4 1,-8 5,-11 3,-4 7,-5 12,-5 5,0 10,2 14,7 5,4 7,10 7,17 0,7 -1,13 -3,20 -4,10 -10,22 -20,37 -9,14 -25,34 -46,59 -3,3 -18,18 -45,46l-7 0c-3,-84 -10,-137 -20,-158 -4,-7 -9,-11 -17,-11 -3,0 -8,1 -14,2l-1 -7z"/>
   <path id="2" class="fil1" d="M4682 2273c6,0 11,1 15,5 4,4 5,9 5,15 0,5 -2,10 -5,14 -4,4 -9,6 -15,6 -5,0 -10,-2 -14,-6 -4,-4 -6,-9 -6,-14 0,-6 2,-11 6,-15 4,-4 9,-5 14,-5zm9 79l-42 143c-3,9 -4,15 -4,17 0,2 0,4 1,5 1,1 3,2 4,2 2,0 4,-1 7,-3 7,-6 14,-14 21,-26l7 5c-9,14 -19,25 -31,34 -9,7 -17,11 -25,11 -5,0 -9,-2 -13,-5 -3,-4 -5,-8 -5,-12 0,-5 2,-14 6,-25l28 -91c4,-15 6,-24 6,-28 0,-3 -1,-5 -3,-7 -2,-2 -5,-3 -8,-3 -3,0 -9,1 -19,2l0 -8 70 -11z"/>
   <polygon class="fil1" points="4527,1250 4527,1326 4602,1326 4602,1346 4527,1346 4527,1422 4506,1422 4506,1346 4431,1346 4431,1326 4506,1326 4506,1250 "/>
   <polygon class="fil1" points="4537,1785 4537,1867 4513,1867 4513,1785 "/>
   <rect class="fil0 str2" transform="matrix(-0.966762 -0.966762 0.966762 -0.966762 4530.45 1994.82)" width="436" height="436"/>
   <path class="fil1" d="M2746 1438l67 -14c5,11 9,23 12,35 4,18 8,39 11,64 1,12 3,38 5,78 20,-22 31,-35 35,-41 21,-28 33,-44 37,-49 5,-9 8,-16 10,-22 2,-5 3,-9 3,-14 0,-4 -3,-9 -10,-14 -8,-5 -11,-11 -11,-18 0,-5 2,-9 6,-13 4,-4 8,-6 14,-6 6,0 12,3 17,8 5,5 8,12 8,20 0,8 -2,16 -4,23 -4,12 -12,27 -23,44 -11,17 -29,40 -54,69 -3,4 -21,22 -53,55l-9 0c-3,-99 -11,-162 -23,-186 -4,-8 -11,-12 -20,-12 -4,0 -9,0 -17,2l-1 -9z"/>
   <path id="1" class="fil1" d="M3059 1474c6,0 12,2 16,7 5,5 7,10 7,17 0,6 -2,12 -7,17 -4,4 -10,7 -16,7 -7,0 -12,-3 -17,-7 -5,-5 -7,-11 -7,-17 0,-7 2,-12 7,-17 4,-5 10,-7 17,-7zm10 94l-50 168c-3,11 -5,18 -5,20 0,2 1,4 2,6 2,1 3,2 5,2 2,0 5,-1 8,-3 8,-7 16,-17 24,-31l8 6c-10,16 -22,30 -36,40 -10,8 -20,12 -29,12 -6,0 -11,-2 -15,-5 -4,-4 -6,-9 -6,-15 0,-6 2,-15 6,-29l33 -107c5,-17 8,-28 8,-32 0,-4 -1,-7 -4,-9 -2,-2 -5,-3 -10,-3 -3,0 -10,1 -21,2l0 -9 82 -13z"/>
   <g>
    <path class="fil1" d="M1412 1536l0 -4c19,-3 34,-8 43,-17 7,-6 10,-13 10,-21 0,-6 -2,-12 -6,-16 -4,-4 -8,-6 -14,-6 -9,0 -17,6 -23,16l-5 -1c4,-9 10,-16 16,-20 6,-5 13,-7 21,-7 9,0 17,2 23,8 5,5 8,13 8,21 0,7 -2,14 -8,21 -5,7 -15,13 -28,18 9,3 15,8 19,14 4,7 6,14 6,23 0,10 -3,20 -8,30 -6,10 -14,17 -24,23 -10,5 -20,8 -31,8 -10,0 -17,-2 -23,-5 -3,-3 -5,-5 -5,-9 0,-2 1,-5 3,-7 2,-2 5,-3 8,-3 2,0 4,1 6,1 1,1 4,2 9,5 5,3 9,5 12,6 3,1 5,1 8,1 7,0 13,-4 18,-12 4,-9 7,-17 7,-27 0,-7 -2,-14 -5,-20 -3,-6 -8,-11 -15,-14 -6,-4 -14,-6 -22,-6z"/>
    <circle class="fil0 str1" cx="1434" cy="1543" r="121"/>
   </g>
   <path class="fil1" d="M1390 2813l9 -44 -71 0 5 -21 98 -108 17 0 -23 110 24 0 -4 19 -25 0 -9 44 -21 0zm13 -63l16 -72 -65 72 49 0z"/>
   <circle class="fil0 str1" cx="1389" cy="2727" r="121"/>
   <circle class="fil0 str1" cx="2457" cy="1529" r="121"/>
   <circle class="fil0 str1" cx="2246" cy="2718" r="121"/>
   <g>
    <path class="fil1" d="M5670 806l80 0 0 4 -90 159 -9 -5 78 -139 -38 0c-10,0 -17,1 -21,2 -4,2 -9,7 -14,14l-4 0 18 -35z"/>
    <circle class="fil0 str1" cx="5700" cy="887" r="121"/>
   </g>
   <g>
    <path class="fil1" d="M5708 2219c8,8 13,16 17,23 3,7 5,14 5,22 0,12 -5,24 -15,33 -10,10 -22,15 -36,15 -13,0 -23,-4 -31,-12 -8,-8 -12,-17 -12,-27 0,-9 3,-18 9,-27 7,-8 19,-16 38,-24 -7,-9 -12,-16 -15,-22 -2,-5 -3,-11 -3,-16 0,-11 3,-20 11,-27 8,-8 18,-12 30,-12 11,0 21,4 28,10 7,7 11,14 11,23 0,9 -3,17 -9,24 -6,7 -15,13 -28,17zm-5 -5c9,-3 15,-8 20,-14 5,-7 7,-14 7,-23 0,-8 -2,-14 -7,-19 -4,-5 -10,-7 -17,-7 -7,0 -13,2 -18,7 -4,4 -6,10 -6,17 0,5 1,10 3,15 4,6 10,14 18,24zm-16 12c-12,5 -21,12 -27,22 -6,9 -9,19 -9,29 0,9 3,16 8,21 6,5 13,8 21,8 9,0 17,-3 23,-9 6,-7 9,-14 9,-23 0,-7 -2,-14 -5,-21 -4,-7 -10,-16 -20,-27z"/>
    <circle class="fil0 str1" cx="5690" cy="2228" r="121"/>
   </g>
   <polygon class="fil1" points="274,1875 315,1875 315,1834 350,1834 350,1875 392,1875 392,1910 350,1910 350,1952 315,1952 315,1910 274,1910 "/>
   <polygon class="fil1" points="282,2299 395,2299 395,2323 282,2323 "/>
   <g>
    <path class="fil1" d="M207 1491l-38 133c-2,8 -3,13 -3,17 0,3 1,5 3,6 2,2 6,3 14,3l-1 5 -61 0 1 -5c7,0 11,0 13,-1 4,-2 6,-3 8,-6 2,-3 5,-10 8,-19l27 -96c2,-5 3,-9 3,-9 0,-2 0,-3 0,-5 0,-3 -1,-5 -2,-6 -2,-2 -4,-3 -6,-3 -2,0 -6,1 -10,2l-1 -5 40 -11 5 0z"/>
    <circle class="fil0 str1" cx="164" cy="1573" r="121"/>
   </g>
   <g>
    <path class="fil1" d="M210 2697l-80 0 0 -4c41,-36 68,-64 81,-84 6,-9 9,-19 9,-29 0,-9 -3,-15 -8,-20 -5,-6 -11,-8 -19,-8 -11,0 -20,5 -27,16l-5 -2c4,-10 10,-18 18,-24 8,-5 16,-8 25,-8 10,0 19,3 26,10 7,7 10,16 10,26 0,6 -1,13 -4,19 -3,9 -10,19 -21,31 -15,17 -36,37 -61,60l40 0c7,0 12,-1 16,-4 4,-3 7,-6 9,-11l5 0 -14 32z"/>
    <circle class="fil0 str1" cx="185" cy="2616" r="121"/>
   </g>
   <g>
    <path class="fil1" d="M1444 2645l-31 105 19 0 -4 15 -19 0 -12 43 -18 0 13 -43 -58 0 5 -16 96 -104 9 0zm-26 31l-69 74 47 0 22 -74z"/>
    <circle class="fil0 str1" cx="1389" cy="2727" r="121"/>
   </g>
   <g>
    <path class="fil1" d="M2457 1448l53 0 -5 19 -49 0 -8 20c12,2 22,6 29,12 11,9 17,22 17,39 0,11 -2,20 -6,29 -4,9 -9,17 -15,23 -6,6 -12,10 -19,14 -9,5 -18,7 -27,7 -8,0 -15,-2 -19,-5 -3,-3 -5,-6 -5,-9 0,-3 1,-5 3,-7 2,-2 5,-3 8,-3 4,0 8,2 14,6 3,2 5,4 7,5 2,1 4,1 6,1 9,0 17,-4 25,-13 7,-9 11,-21 11,-35 0,-10 -2,-18 -6,-25 -4,-7 -9,-12 -15,-15 -6,-3 -14,-5 -25,-6l26 -57z"/>
    <circle class="fil0 str1" cx="2457" cy="1529" r="121"/>
   </g>
   <g>
    <path class="fil1" d="M2302 2635l0 4c-14,3 -27,10 -39,20 -13,10 -24,23 -34,39 9,-3 16,-5 21,-5 10,0 19,3 26,11 7,7 10,17 10,29 0,19 -6,35 -18,48 -12,13 -25,20 -39,20 -13,0 -22,-5 -29,-14 -7,-10 -10,-20 -10,-33 0,-16 4,-32 11,-48 8,-15 18,-29 31,-40 13,-11 26,-20 40,-25 8,-3 18,-5 30,-6zm-78 73c-12,24 -17,44 -17,60 0,9 2,15 6,20 4,5 9,7 15,7 9,0 17,-6 25,-19 8,-13 12,-29 12,-46 0,-9 -2,-16 -7,-21 -4,-5 -10,-8 -16,-8 -3,0 -6,0 -8,1 -3,1 -6,3 -10,6z"/>
    <circle class="fil0 str1" cx="2246" cy="2718" r="121"/>
   </g>
   <path class="fil1" d="M2139 459c0,-15 2,-30 7,-45 4,-15 9,-27 14,-36 6,-9 11,-16 17,-21 6,-5 11,-9 17,-12 5,-2 12,-3 18,-3 14,0 25,5 33,15 9,9 14,24 14,42 0,19 -3,38 -9,57 -8,22 -18,39 -31,50 -10,8 -21,13 -34,13 -13,0 -23,-6 -32,-16 -9,-10 -14,-25 -14,-44zm21 5c0,11 2,19 5,25 5,8 12,13 21,13 9,0 16,-4 23,-12 10,-10 17,-26 22,-46 5,-20 7,-37 7,-50 0,-12 -2,-21 -7,-27 -4,-5 -11,-8 -19,-8 -5,0 -11,1 -15,4 -5,3 -10,8 -15,15 -6,10 -11,25 -16,45 -4,17 -6,31 -6,41z"/>
   <circle class="fil0 str1" cx="2199" cy="430" r="121"/>
   <g>
    <path class="fil1" d="M3293 2571c10,0 18,5 25,13 7,9 11,22 11,40 0,16 -3,31 -8,48 -5,16 -13,30 -22,42 -7,9 -15,16 -23,20 -5,3 -10,4 -17,4 -10,0 -18,-4 -25,-13 -7,-8 -11,-22 -11,-40 0,-18 4,-36 11,-54 8,-22 18,-38 31,-49 8,-7 17,-11 28,-11zm0 7c-5,0 -9,1 -14,5 -5,3 -10,11 -15,22 -5,12 -9,26 -14,44 -6,24 -9,43 -9,60 0,8 2,14 5,18 4,4 8,6 13,6 5,0 9,-1 13,-4 9,-9 17,-23 23,-44 11,-34 16,-61 16,-82 0,-9 -2,-15 -5,-19 -4,-4 -8,-6 -13,-6z"/>
    <circle class="fil0 str1" cx="3276" cy="2655" r="121"/>
   </g>
  </g>
 </g>
</svg>
