<?xml version="1.0" encoding="UTF-8"?>
<!DOCTYPE svg PUBLIC "-//W3C//DTD SVG 1.1//EN" "http://www.w3.org/Graphics/SVG/1.1/DTD/svg11.dtd">
<!-- Creator: CorelDRAW Home & Student X8 -->
<svg xmlns="http://www.w3.org/2000/svg" xml:space="preserve" width="135.079mm" height="61.0635mm" version="1.1" style="shape-rendering:geometricPrecision; text-rendering:geometricPrecision; image-rendering:optimizeQuality; fill-rule:evenodd; clip-rule:evenodd"
viewBox="0 0 9891 4471"
 xmlns:xlink="http://www.w3.org/1999/xlink">
 <defs>
  <style type="text/css">
   <![CDATA[
    .str0 {stroke:#2B2A29;stroke-width:29.289}
    .str2 {stroke:#2B2A29;stroke-width:21.9668}
    .str1 {stroke:#2B2A29;stroke-width:14.6445}
    .fil0 {fill:none}
    .fil1 {fill:#2B2A29;fill-rule:nonzero}
   ]]>
  </style>
 </defs>
 <g id="Warstwa_x0020_1">
  <metadata id="CorelCorpID_0Corel-Layer"/>
  <g id="_717169208">
   <polyline class="fil0 str0" points="2723,1572 2677,1686 2585,1455 2493,1686 2401,1455 2309,1686 2217,1455 2172,1573 "/>
   <polyline class="fil0 str0" points="3931,1572 3885,1686 3793,1455 3702,1686 3610,1455 3518,1686 3426,1455 3380,1573 "/>
   <polyline class="fil0 str0" points="3931,3807 3885,3921 3793,3690 3702,3921 3610,3690 3518,3921 3426,3690 3380,3808 "/>
   <polyline class="fil0 str0" points="2723,3807 2677,3921 2585,3690 2493,3921 2401,3690 2309,3921 2217,3690 2172,3808 "/>
   <path class="fil0 str0" d="M4175 1270l445 0m-437 -201c150,140 264,139 411,-2"/>
   <path class="fil0 str0" d="M4724 3555l0 444m202 -436c-141,150 -139,264 1,410"/>
   <polygon class="fil1" points="9149,2745 9294,2745 9294,2775 9149,2775 "/>
   <polyline class="fil0 str1" points="7087,1418 8868,1418 8868,223 6793,223 "/>
   <g>
    <path class="fil1" d="M3076 228l3580 0 0 14 -3580 0 -8 -7 8 -7zm-8 7l0 -7 8 0 -8 7zm0 1323l0 -1323 15 0 0 1323 -15 0zm60 0l0 0 0 2 -1 3 0 3 0 2 -1 3 -1 2 -1 3 -1 2 -1 2 -1 3 -1 2 -1 2 -2 2 -1 2 -2 2 -2 2 -2 1 -1 2 -2 1 -2 2 -3 1 -2 2 -2 1 -2 1 -3 1 -2 0 -3 1 -2 1 -3 0 -2 1 -3 0 -2 0 0 0 -3 0 -3 0 -2 -1 -3 0 -2 -1 -3 -1 -2 0 -3 -1 -2 -1 -2 -1 -2 -2 -3 -1 -2 -2 -2 -1 -1 -2 -2 -1 -2 -2 -2 -2 -1 -2 -2 -2 -1 -2 -1 -2 -1 -3 -1 -2 -1 -2 -1 -3 -1 -2 -1 -3 0 -2 0 -3 -1 -3 0 -2 0 0 0 -3 1 -3 0 -2 0 -3 1 -2 1 -3 1 -2 1 -2 1 -3 1 -2 1 -2 1 -2 2 -2 1 -2 2 -2 2 -2 2 -2 1 -1 2 -2 2 -1 3 -2 2 -1 2 -1 2 -1 3 -1 2 -1 3 -1 2 0 3 -1 2 0 3 0 3 0 0 0 2 0 3 0 2 0 3 1 2 0 3 1 2 1 3 1 2 1 2 1 2 1 3 2 2 1 2 2 1 1 2 2 2 2 2 2 1 2 2 2 1 2 1 2 1 2 1 3 1 2 1 2 1 3 1 2 0 3 0 2 1 3 0 3z"/>
   </g>
   <line class="fil0 str1" x1="4398" y1="1169" x2="4398" y2= "486" />
   <g>
    <path class="fil1" d="M5253 1598l0 0 -2 0 -3 0 -2 0 -3 -1 -3 0 -2 -1 -2 -1 -3 -1 -2 -1 -2 -1 -3 -1 -2 -2 -2 -1 -2 -2 -2 -1 -1 -2 -2 -2 -2 -2 -1 -2 -2 -2 -1 -2 -1 -2 -2 -2 -1 -2 0 -3 -1 -2 -1 -3 -1 -2 0 -3 0 -2 -1 -3 0 -3 26 0 0 2 1 1 0 1 0 2 0 1 1 1 0 1 0 1 1 2 1 1 0 1 1 1 1 1 0 1 1 1 1 1 1 1 1 0 1 1 1 1 1 1 1 0 1 1 1 0 1 1 2 0 1 1 1 0 1 0 2 0 1 0 1 0 0 0 0 26zm52 -52l0 0 0 3 0 3 0 2 -1 3 0 2 -1 3 -1 2 -1 3 -1 2 -1 2 -1 2 -1 2 -2 2 -1 2 -2 2 -2 2 -2 2 -1 1 -2 2 -2 1 -3 2 -2 1 -2 1 -2 1 -3 1 -2 1 -3 1 -2 0 -3 1 -2 0 -3 0 -3 0 0 -26 2 0 1 0 1 0 2 0 1 0 1 -1 1 0 2 -1 1 0 1 -1 1 0 1 -1 1 -1 1 -1 1 0 1 -1 1 -1 0 -1 1 -1 1 -1 1 -1 0 -1 1 -1 0 -2 1 -1 0 -1 1 -1 0 -1 0 -2 0 -1 0 -1 0 -2 0 0 26 0zm-52 -52l0 0 3 0 3 1 2 0 3 0 2 1 3 1 2 0 3 1 2 1 2 2 2 1 3 1 2 2 2 1 1 2 2 1 2 2 2 2 1 2 2 2 1 2 1 2 1 3 1 2 1 2 1 3 1 2 0 3 1 2 0 3 0 3 0 2 -26 0 0 -1 0 -1 0 -2 0 -1 0 -1 -1 -1 0 -2 -1 -1 0 -1 -1 -1 0 -1 -1 -1 -1 -1 -1 -1 0 -1 -1 -1 -1 -1 -1 -1 -1 -1 -1 0 -1 -1 -1 -1 -1 0 -1 -1 -2 0 -1 -1 -1 0 -1 0 -2 0 -1 -1 -1 0 -2 0 0 0 0 -26zm-52 52l0 -2 1 -3 0 -3 0 -2 1 -3 1 -2 1 -3 0 -2 1 -2 2 -3 1 -2 1 -2 2 -2 1 -2 2 -2 2 -2 1 -1 2 -2 2 -1 2 -2 2 -1 3 -1 2 -2 2 -1 3 -1 2 0 2 -1 3 -1 3 0 2 0 3 -1 2 0 0 26 -1 0 -1 0 -2 1 -1 0 -1 0 -1 0 -2 1 -1 0 -1 1 -1 0 -1 1 -1 1 -1 0 -1 1 -1 1 -1 1 -1 1 -1 1 0 1 -1 1 -1 1 0 1 -1 1 -1 1 0 1 0 2 -1 1 0 1 0 1 0 2 -1 1 0 1 -26 0zm-1270 -7l1286 0 0 15 -1286 0 0 -15z"/>
   </g>
   <g>
    <path class="fil1" d="M4369 1569l0 -3 0 -2 1 -3 0 -2 1 -3 0 -2 1 -3 1 -2 1 -2 1 -3 1 -2 2 -2 1 -2 2 -2 1 -2 2 -2 2 -1 2 -2 2 -2 2 -1 2 -1 2 -2 2 -1 3 -1 2 -1 3 -1 2 0 3 -1 2 0 3 -1 2 0 3 0 0 0 3 0 2 0 3 1 2 0 3 1 2 0 3 1 2 1 3 1 2 1 2 2 2 1 2 1 2 2 2 2 2 1 2 2 1 2 2 2 1 2 2 2 1 2 1 3 1 2 1 2 1 3 0 2 1 3 0 2 1 3 0 2 0 3 0 0 0 3 0 2 -1 3 0 3 -1 2 0 3 -1 2 -1 2 -1 3 -1 2 -1 2 -2 2 -1 2 -2 2 -1 2 -2 2 -2 2 -2 1 -2 2 -2 1 -2 2 -2 1 -2 1 -3 1 -2 1 -3 1 -2 1 -3 0 -2 1 -3 0 -2 0 -3 0 0 0 -3 0 -2 0 -3 0 -2 -1 -3 0 -2 -1 -3 -1 -2 -1 -3 -1 -2 -1 -2 -1 -2 -2 -2 -1 -2 -2 -2 -1 -2 -2 -2 -2 -1 -2 -2 -2 -1 -2 -2 -2 -1 -2 -1 -2 -1 -3 -1 -2 -1 -2 0 -3 -1 -2 0 -3 -1 -3 0 -2 0 -3 0 0zm59 -297l0 297 -14 0 0 -297 14 0z"/>
   </g>
   <path class="fil0 str0" d="M6802 445l0 -445m-201 437c140,-150 139,-264 -1,-411"/>
   <path class="fil0 str0" d="M6768 4469l0 -444m-201 436c140,-150 139,-264 -2,-410"/>
   <polygon class="fil1" points="9116,1416 9169,1416 9169,1362 9213,1362 9213,1416 9267,1416 9267,1460 9213,1460 9213,1513 9169,1513 9169,1460 9116,1460 "/>
   <line class="fil0 str1" x1="3380" y1="1573" x2="2723" y2= "1573" />
   <g>
    <path class="fil1" d="M5288 2511l0 0 -3 0 -3 -1 -2 0 -3 0 -2 -1 -3 -1 -2 -1 -3 0 -2 -2 -2 -1 -2 -1 -2 -1 -3 -2 -1 -1 -2 -2 -2 -2 -2 -1 -2 -2 -1 -2 -2 -2 -1 -2 -1 -3 -1 -2 -1 -2 -1 -3 -1 -2 -1 -2 0 -3 -1 -3 0 -2 0 -3 0 -2 26 0 0 1 0 1 0 2 0 1 0 1 1 1 0 1 1 2 0 1 1 1 0 1 1 1 1 1 1 1 0 1 1 1 1 1 1 1 1 0 1 1 1 1 1 0 1 1 2 1 1 0 1 0 1 1 1 0 2 0 1 0 1 1 2 0 0 0 0 26zm52 -52l0 0 0 2 -1 3 0 2 0 3 -1 3 -1 2 0 2 -1 3 -1 2 -2 2 -1 3 -1 2 -2 2 -1 2 -2 2 -2 1 -1 2 -2 2 -2 1 -2 2 -2 1 -3 1 -2 1 -2 2 -3 0 -2 1 -2 1 -3 1 -2 0 -3 0 -3 1 -2 0 0 -26 1 0 1 -1 2 0 1 0 1 0 1 -1 2 0 1 0 1 -1 1 -1 1 0 1 -1 1 -1 1 0 1 -1 1 -1 1 -1 1 -1 0 -1 1 -1 1 -1 1 -1 0 -1 1 -1 0 -2 0 -1 1 -1 0 -1 0 -1 1 -2 0 -1 0 -1 0 0 26 0zm-52 -53l0 0 2 1 3 0 3 0 2 1 3 0 2 1 2 1 3 1 2 1 2 1 3 1 2 1 2 2 2 1 2 2 1 2 2 2 2 1 1 2 2 2 1 3 1 2 2 2 1 2 1 3 0 2 1 3 1 2 0 3 0 2 1 3 0 3 -26 0 0 -2 0 -1 -1 -1 0 -2 0 -1 -1 -1 0 -1 0 -2 -1 -1 0 -1 -1 -1 -1 -1 -1 -1 0 -1 -1 -1 -1 -1 -1 -1 -1 -1 -1 0 -1 -1 -1 -1 -1 0 -1 -1 -1 0 -1 -1 -2 0 -1 -1 -1 0 -1 0 -2 0 -1 0 -1 -1 0 0 0 -26zm-52 53l0 -3 0 -3 0 -2 1 -3 0 -2 1 -3 1 -2 1 -3 1 -2 1 -2 1 -2 1 -3 2 -2 1 -2 2 -1 2 -2 2 -2 2 -2 1 -1 3 -2 2 -1 2 -1 2 -1 2 -1 3 -1 2 -1 3 -1 2 0 3 -1 2 0 3 0 3 -1 0 26 -2 1 -1 0 -1 0 -2 0 -1 0 -1 1 -1 0 -1 1 -2 0 -1 1 -1 0 -1 1 -1 1 -1 0 -1 1 -1 1 -1 1 0 1 -1 1 -1 1 -1 1 0 1 -1 1 0 1 -1 2 0 1 -1 1 0 1 0 2 0 1 0 1 0 2 -26 0zm-849 -8l865 0 0 15 -865 0 -8 -7 8 -8zm-8 8l0 -8 8 0 -8 8zm0 1321l0 -1321 15 0 0 1321 -7 8 -8 -8zm8 8l-8 0 0 -8 8 8zm332 1l-332 -1 0 -15 333 1 -1 15z"/>
   </g>
   <g>
    <path class="fil1" d="M5488 3784l-662 0 0 -14 662 0 0 14zm0 61l-13 0 0 -136 26 0 0 136 -13 0z"/>
   </g>
   <g>
    <path class="fil1" d="M4398 3833l-2 0 -3 0 -3 0 -2 -1 -3 0 -2 -1 -3 -1 -2 -1 -2 -1 -3 -1 -2 -1 -2 -2 -2 -1 -2 -2 -2 -1 -2 -2 -1 -2 -2 -2 -1 -2 -2 -2 -1 -2 -2 -2 -1 -2 -1 -3 -1 -2 -1 -2 0 -3 -1 -2 0 -3 -1 -2 0 -3 0 -3 0 0 0 -2 0 -3 1 -3 0 -2 1 -3 0 -2 1 -3 1 -2 1 -2 1 -3 2 -2 1 -2 2 -2 1 -2 2 -2 1 -2 2 -1 2 -2 2 -1 2 -2 2 -1 2 -2 3 -1 2 -1 2 -1 3 0 2 -1 3 -1 2 0 3 -1 3 0 2 0 0 0 3 0 3 0 2 1 3 0 2 1 3 1 2 0 2 1 3 1 2 1 2 2 2 1 2 2 2 1 2 2 2 1 2 2 1 2 2 2 1 2 2 2 1 2 1 3 1 2 1 2 1 3 1 2 0 3 1 2 0 3 0 3 0 2 0 0 0 3 0 3 0 2 -1 3 0 2 -1 3 -1 2 -1 2 -1 3 -1 2 -1 2 -2 2 -1 2 -2 2 -1 2 -2 2 -2 2 -2 1 -2 2 -2 1 -2 2 -2 1 -2 1 -3 1 -2 1 -2 1 -3 1 -2 0 -3 1 -2 0 -3 0 -3 0 0 0zm-467 -59l467 0 0 15 -467 0 0 -15z"/>
   </g>
   <line class="fil0 str1" x1="3380" y1="3808" x2="2723" y2= "3808" />
   <polyline class="fil0 str1" points="2172,3808 1730,3808 1724,2596 1719,1573 2172,1573 "/>
   <polyline class="fil0 str1" points="7087,2555 8845,2567 8864,4253 6823,4253 "/>
   <g>
    <path class="fil1" d="M3041 4248l3626 0 0 15 -3626 0 -7 -7 7 -8zm0 15l-7 0 0 -7 7 7zm7 -456l0 449 -14 0 0 -449 14 0zm-59 0l0 0 0 -2 0 -3 1 -2 0 -3 1 -2 0 -3 1 -2 1 -3 1 -2 1 -2 2 -2 1 -3 1 -2 2 -2 2 -1 1 -2 2 -2 2 -2 2 -1 2 -2 2 -1 2 -1 3 -1 2 -1 2 -1 3 -1 2 -1 3 -1 2 0 3 0 2 -1 3 0 0 0 3 0 2 1 3 0 3 0 2 1 3 1 2 1 2 1 3 1 2 1 2 1 2 1 2 2 2 1 2 2 2 2 2 2 1 1 2 2 1 2 2 3 1 2 1 2 1 2 1 3 1 2 1 3 0 2 1 3 0 2 0 3 0 2 0 0 0 3 0 3 0 2 -1 3 0 2 -1 3 -1 2 -1 3 -1 2 -1 2 -1 2 -2 3 -1 2 -2 2 -1 1 -2 2 -2 2 -2 2 -2 1 -2 2 -2 1 -2 1 -2 1 -3 1 -2 1 -2 1 -3 1 -2 1 -3 0 -3 0 -2 1 -3 0 0 0 -3 0 -2 -1 -3 0 -2 0 -3 -1 -2 -1 -3 -1 -2 -1 -2 -1 -3 -1 -2 -1 -2 -1 -2 -2 -2 -1 -2 -2 -2 -2 -1 -2 -2 -1 -2 -2 -1 -2 -1 -3 -2 -2 -1 -2 -1 -2 -1 -3 -1 -2 0 -3 -1 -2 0 -3 -1 -2 0 -3 0 -3z"/>
   </g>
   <path class="fil1" d="M2358 3421l-22 79c-4,12 -5,20 -5,25 0,5 2,9 6,12 4,3 12,5 25,5l-3 7 -127 0 3 -7c12,0 22,-2 28,-7 5,-5 11,-16 16,-33l48 -169c3,-10 4,-17 4,-23 0,-5 -2,-9 -5,-12 -3,-2 -11,-4 -23,-5l2 -7 109 0c31,0 53,6 65,16 13,11 19,25 19,42 0,18 -7,34 -22,49 -9,9 -26,17 -50,23l24 80c6,22 11,35 16,39 5,4 13,7 24,7l0 7 -82 0 -37 -128 -6 0c-2,0 -4,0 -7,0zm4 -12c4,0 8,0 11,0 18,0 34,-6 46,-19 11,-13 17,-30 17,-51 0,-12 -3,-22 -9,-28 -7,-7 -15,-10 -25,-10 -3,0 -6,0 -9,0l-31 108z"/>
   <path id="1" class="fil1" d="M2687 3281l-65 220c-3,12 -5,19 -5,23 0,3 1,6 4,9 2,4 5,6 7,7 3,1 12,2 25,2l-2 7 -132 0 2 -7c13,0 22,-1 27,-3 6,-2 10,-5 13,-10 3,-4 7,-13 11,-28l39 -130c6,-20 9,-31 9,-32 1,-3 2,-7 2,-10 0,-5 -2,-10 -6,-14 -3,-3 -9,-5 -15,-5 -3,0 -10,1 -19,2l-2 -7 99 -24 8 0z"/>
   <path class="fil1" d="M3502 1164l-23 80c-3,11 -5,19 -5,25 0,5 2,9 6,12 4,3 12,4 25,4l-3 7 -126 0 2 -7c13,0 22,-2 28,-7 6,-5 11,-16 16,-33l48 -169c3,-10 4,-17 4,-23 0,-5 -1,-9 -5,-11 -3,-3 -11,-5 -23,-6l2 -7 109 0c31,0 53,6 66,17 12,10 19,24 19,41 0,18 -8,34 -23,49 -9,9 -26,17 -50,23l24 80c6,22 12,35 16,39 5,5 13,7 24,7l0 7 -82 0 -37 -128 -6 0c-1,0 -3,0 -6,0zm3 -12c4,1 8,1 11,1 19,0 34,-7 46,-20 12,-13 18,-30 18,-51 0,-12 -3,-21 -10,-28 -6,-6 -15,-10 -25,-10 -3,0 -6,0 -9,1l-31 107z"/>
   <path id="1" class="fil1" d="M3794 1292l-140 0 0 -7c37,-33 67,-64 92,-93 21,-23 34,-41 39,-53 6,-12 8,-25 8,-37 0,-12 -3,-22 -11,-29 -7,-7 -16,-11 -27,-11 -18,0 -34,10 -47,29l-7 -3c7,-19 16,-33 26,-43 15,-14 33,-21 53,-21 18,0 34,6 46,17 12,12 18,25 18,40 0,14 -3,27 -9,40 -6,13 -18,29 -37,49 -14,15 -43,41 -86,78l51 0c16,0 27,-2 34,-6 6,-3 12,-11 18,-22l9 0 -30 72z"/>
   <path class="fil1" d="M6844 538l-19 84 -7 0c-1,-23 -6,-40 -17,-51 -10,-11 -24,-17 -41,-17 -18,0 -36,8 -53,23 -18,15 -34,38 -46,70 -10,25 -15,51 -15,76 0,22 5,39 17,50 11,12 26,18 45,18 15,0 30,-3 42,-10 13,-7 26,-18 39,-33l9 0c-16,24 -32,41 -48,51 -17,9 -37,14 -60,14 -32,0 -58,-9 -77,-28 -19,-20 -29,-45 -29,-76 0,-29 8,-56 23,-82 16,-27 38,-48 67,-64 29,-16 57,-25 86,-25 11,0 24,3 41,7 8,2 14,4 17,4 6,0 13,-4 20,-11l6 0z"/>
   <path id="1" class="fil1" d="M7001 539l-65 221c-4,11 -5,19 -5,22 0,3 1,6 3,9 3,4 5,6 8,7 3,1 11,2 25,3l-2 6 -133 0 2 -6c14,-1 23,-2 28,-4 5,-2 9,-5 13,-9 3,-5 7,-14 11,-28l38 -131c6,-20 10,-31 10,-32 1,-3 1,-6 1,-9 0,-6 -2,-11 -5,-14 -4,-4 -9,-5 -16,-5 -3,0 -9,0 -19,1l-2 -7 100 -24 8 0z"/>
   <path class="fil1" d="M4892 845l-20 83 -7 0c-1,-22 -6,-39 -17,-51 -10,-11 -24,-16 -40,-16 -18,0 -36,7 -54,23 -18,15 -33,38 -46,70 -10,25 -15,50 -15,75 0,23 6,40 17,51 11,12 26,18 45,18 16,0 30,-4 43,-10 12,-7 25,-18 38,-33l10 0c-17,24 -33,41 -49,50 -16,10 -36,15 -60,15 -32,0 -57,-10 -77,-29 -19,-19 -29,-44 -29,-75 0,-29 8,-56 24,-83 15,-26 37,-47 66,-64 29,-16 58,-24 86,-24 11,0 25,2 41,7 8,2 14,3 17,3 7,0 13,-3 20,-10l7 0z"/>
   <path id="1" class="fil1" d="M5011 1114l-139 0 0 -7c36,-34 67,-64 91,-93 21,-23 35,-41 40,-53 5,-13 8,-25 8,-38 0,-11 -4,-21 -11,-28 -8,-8 -17,-11 -28,-11 -18,0 -33,10 -46,29l-7 -3c6,-19 15,-34 26,-44 15,-13 32,-20 52,-20 19,0 34,6 46,17 13,12 19,25 19,40 0,13 -3,27 -9,40 -6,13 -18,29 -37,48 -14,15 -43,41 -86,79l50 0c16,0 28,-2 34,-6 7,-4 13,-11 19,-22l9 0 -31 72z"/>
   <path class="fil1" d="M2329 1193l-23 80c-3,12 -5,20 -5,25 0,5 2,9 6,12 4,3 12,5 25,5l-3 7 -126 0 2 -7c13,0 22,-2 28,-7 6,-5 11,-16 16,-34l48 -168c3,-10 4,-17 4,-23 0,-5 -1,-9 -5,-12 -3,-3 -11,-4 -23,-5l2 -7 109 0c31,0 53,5 66,16 12,11 19,25 19,42 0,18 -8,34 -23,49 -9,9 -26,17 -49,23l23 80c6,21 12,34 16,39 5,4 13,7 24,7l0 7 -82 0 -37 -129 -6 1c-1,0 -3,0 -6,-1zm3 -11c4,0 8,0 11,0 19,0 34,-6 46,-19 12,-13 18,-30 18,-51 0,-12 -3,-22 -10,-28 -6,-7 -15,-10 -25,-10 -3,0 -6,0 -9,0l-31 108z"/>
   <path id="1" class="fil1" d="M2658 1054l-66 220c-3,12 -5,19 -5,22 0,4 2,7 4,10 2,3 5,6 8,7 3,1 11,1 25,2l-2 7 -133 0 2 -7c13,0 23,-1 28,-3 5,-2 9,-5 12,-10 4,-4 7,-14 12,-28l38 -130c6,-20 9,-31 10,-32 0,-4 1,-7 1,-10 0,-6 -2,-10 -6,-14 -3,-3 -8,-5 -15,-5 -3,0 -9,1 -19,2l-2 -7 99 -24 9 0z"/>
   <path class="fil1" d="M3546 3435l-23 80c-3,12 -5,20 -5,25 0,5 2,9 6,12 4,3 13,5 25,5l-2 7 -127 0 3 -7c12,0 21,-2 27,-7 6,-5 12,-16 17,-34l48 -168c3,-10 4,-17 4,-23 0,-5 -2,-9 -5,-12 -3,-3 -11,-4 -23,-5l1 -7 109 0c32,0 53,5 66,16 13,11 19,25 19,42 0,18 -7,34 -22,49 -10,9 -26,17 -50,23l23 80c7,21 12,34 17,39 5,4 13,7 23,7l0 7 -81 0 -37 -129 -6 1c-2,0 -4,0 -7,-1zm4 -11c4,0 8,0 11,0 18,0 33,-6 45,-19 12,-13 18,-30 18,-51 0,-12 -3,-22 -9,-28 -7,-7 -15,-10 -26,-10 -2,0 -5,0 -9,0l-30 108z"/>
   <path id="1" class="fil1" d="M3838 3564l-139 0 0 -7c36,-34 67,-65 92,-93 20,-23 34,-41 39,-53 5,-13 8,-25 8,-38 0,-12 -4,-21 -11,-28 -8,-8 -17,-12 -28,-12 -18,0 -33,10 -46,30l-7 -3c7,-19 15,-34 26,-44 15,-13 32,-20 52,-20 19,0 34,6 46,17 13,12 19,25 19,40 0,13 -3,26 -9,39 -6,13 -18,30 -37,49 -14,15 -43,41 -86,78l50 0c17,0 28,-1 34,-5 7,-4 13,-11 19,-22l9 0 -31 72z"/>
   <path class="fil1" d="M6715 3525l-19 84 -7 0c-1,-23 -7,-40 -17,-51 -11,-11 -24,-17 -41,-17 -18,0 -36,8 -54,23 -18,15 -33,38 -45,70 -10,25 -15,51 -15,76 0,22 5,39 16,51 11,11 26,17 46,17 15,0 29,-3 42,-10 13,-7 26,-18 39,-33l9 0c-16,24 -32,41 -49,51 -16,9 -36,14 -60,14 -31,0 -57,-9 -76,-28 -20,-20 -29,-45 -29,-76 0,-29 8,-56 23,-82 15,-27 38,-48 66,-64 29,-16 58,-25 87,-25 11,0 24,3 40,7 9,3 14,4 18,4 6,0 13,-4 19,-11l7 0z"/>
   <path id="1" class="fil1" d="M6872 3526l-66 221c-3,11 -5,19 -5,22 0,3 2,6 4,10 2,3 5,5 8,6 2,1 11,2 25,3l-2 6 -133 0 2 -6c13,-1 22,-2 28,-4 5,-2 9,-5 12,-9 4,-5 7,-14 11,-28l39 -131c6,-20 9,-31 9,-32 1,-3 2,-6 2,-9 0,-6 -2,-11 -6,-14 -3,-4 -8,-5 -15,-5 -3,0 -10,0 -19,1l-2 -7 99 -24 9 0z"/>
   <path class="fil1" d="M4881 3258l-20 83 -6 0c-1,-23 -7,-40 -17,-51 -11,-11 -24,-17 -41,-17 -18,0 -36,8 -54,23 -18,16 -33,39 -45,70 -10,26 -16,51 -16,76 0,22 6,39 17,51 11,12 26,18 45,18 16,0 30,-4 43,-10 13,-7 26,-18 39,-33l9 0c-16,24 -32,41 -49,50 -16,10 -36,15 -60,15 -32,0 -57,-10 -76,-29 -20,-19 -29,-44 -29,-75 0,-29 7,-57 23,-83 15,-26 37,-48 66,-64 29,-16 58,-24 87,-24 10,0 24,2 40,7 8,2 14,3 17,3 7,0 13,-3 20,-10l7 0z"/>
   <path id="1" class="fil1" d="M5000 3527l-139 0 0 -7c36,-34 67,-65 92,-93 21,-23 34,-41 39,-54 5,-12 8,-24 8,-37 0,-12 -4,-21 -11,-29 -7,-7 -17,-11 -28,-11 -18,0 -33,10 -46,30l-7 -3c7,-19 15,-34 26,-44 15,-13 32,-20 52,-20 19,0 34,5 47,17 12,11 18,25 18,40 0,13 -3,26 -9,39 -6,13 -18,30 -37,49 -14,15 -43,41 -86,78l50 0c17,0 28,-1 35,-5 6,-4 12,-11 18,-22l9 0 -31 72z"/>
   <path class="fil1" d="M8942 2131l21 -219c1,-11 2,-19 2,-23 0,-5 -2,-10 -7,-14 -4,-4 -11,-6 -20,-6l-7 0 2 -7 104 0 -3 7c-11,0 -19,1 -23,4 -4,2 -7,6 -10,11 -1,3 -2,11 -4,24l-15 157 103 -140c11,-15 18,-26 21,-32 2,-4 3,-7 3,-10 0,-4 -2,-7 -5,-9 -3,-3 -8,-4 -16,-5l2 -7 79 0 -2 7c-7,1 -12,2 -16,4 -7,3 -14,8 -21,15 -7,7 -18,21 -33,42l-148 201 -7 0z"/>
   <path id="1" class="fil1" d="M9264 2018c12,0 23,2 33,8 9,5 17,13 22,24 6,10 9,21 9,33 0,20 -6,41 -18,63 -12,22 -27,39 -46,51 -18,11 -38,17 -58,17 -15,0 -27,-3 -36,-10 -10,-6 -17,-14 -22,-25 -5,-10 -7,-21 -7,-31 0,-17 4,-34 13,-51 8,-18 18,-32 30,-43 12,-12 24,-21 37,-27 14,-6 28,-9 43,-9zm-5 9c-9,0 -18,2 -27,6 -9,5 -18,13 -27,23 -8,10 -16,24 -23,41 -9,20 -13,40 -13,58 0,13 3,25 10,35 7,10 17,15 31,15 9,0 17,-2 25,-6 8,-4 17,-11 25,-21 12,-13 21,-29 28,-49 8,-19 12,-38 12,-55 0,-12 -4,-23 -11,-33 -6,-10 -17,-14 -30,-14z"/>
   <path id="2" class="fil1" d="M9491 2012l-48 166c-3,9 -4,15 -4,18 0,1 0,2 1,2 0,1 1,1 1,1 1,0 2,0 3,-1 2,-2 6,-8 11,-16l4 3c-5,9 -11,16 -16,21 -6,4 -11,7 -16,7 -2,0 -4,-1 -6,-3 -2,-3 -3,-6 -3,-10 0,-5 1,-12 4,-21l5 -17c-14,21 -28,35 -40,43 -8,5 -16,8 -24,8 -8,0 -14,-3 -20,-9 -6,-7 -9,-15 -9,-26 0,-13 5,-28 14,-44 10,-15 22,-28 38,-38 12,-7 24,-11 34,-11 5,0 10,1 14,3 4,2 8,5 12,10l13 -46c1,-5 2,-9 3,-12 1,-4 2,-7 2,-10 0,-1 -1,-3 -2,-4 -2,-2 -5,-3 -8,-3 -2,0 -5,1 -10,1l0 -5 47 -7zm-53 99c0,-6 -2,-11 -6,-14 -3,-4 -8,-6 -14,-6 -13,0 -26,10 -40,29 -14,20 -21,38 -21,55 0,7 2,13 5,16 4,4 8,6 13,6 11,0 24,-11 40,-31 15,-21 23,-39 23,-55z"/>
   <g>
    <path class="fil1" d="M9815 1546l76 184 0 0 -5 -3 -5 -2 -5 -2 -5 -2 -4 -2 -5 -2 -5 -1 -5 -1 -5 -2 -5 -1 -5 -1 -4 0 -5 -1 -5 -1 -5 0 -5 0 -5 0 -5 0 -5 1 -5 0 -4 1 -5 0 -5 1 -5 1 -5 2 -5 1 -5 1 -5 2 -5 2 -5 2 -4 2 -5 2 80 -181zm-23 1076l15 -984 14 0 -14 984 -15 0z"/>
   </g>
   <g>
    <path class="fil1" d="M4405 486l0 683 -15 0 0 -683 15 0zm61 0l0 13 -136 0 0 -26 136 0 0 13z"/>
   </g>
   <g>
    <path class="fil1" d="M5499 1711l73 184 0 0 -4 -3 -5 -2 -5 -2 -5 -2 -5 -2 -5 -2 -4 -1 -5 -2 -5 -1 -5 -1 -5 -1 -5 -1 -5 -1 -4 0 -5 0 -5 -1 -5 0 -5 0 -5 1 -5 0 -5 1 -4 0 -5 1 -5 1 -5 2 -5 1 -5 1 -5 2 -5 2 -5 2 -5 2 -5 2 83 -180zm-23 646l13 -555 15 0 -14 556 -14 -1z"/>
   </g>
   <path class="fil1" d="M6846 2723l-72 252 29 -24c32,-28 53,-48 63,-60 3,-5 4,-8 4,-11 0,-1 0,-3 -1,-4 -1,-2 -3,-3 -6,-4 -3,0 -8,-1 -16,-1l-9 0 3 -9 112 0 -2 9c-13,1 -24,3 -34,6 -9,4 -18,9 -27,16 -17,13 -28,22 -34,27l-22 20c4,12 8,29 14,51 9,37 15,58 18,65 4,7 7,10 11,10 2,0 6,-1 10,-4 9,-7 18,-17 28,-31l9 6c-18,24 -33,39 -43,46 -10,8 -19,12 -27,12 -7,0 -13,-3 -17,-9 -6,-10 -18,-49 -34,-119l-35 30 -26 92 -41 0 85 -294 7 -25c1,-4 2,-8 2,-11 0,-4 -2,-7 -5,-10 -3,-3 -8,-4 -14,-4 -4,0 -10,1 -18,2l-1 -9 89 -15z"/>
   <path id="1" class="fil1" d="M6942 2872l73 -16c5,12 10,25 13,39 4,19 8,42 11,69 2,13 3,41 6,84 22,-23 34,-38 39,-44 22,-30 36,-48 39,-54 6,-9 10,-17 12,-23 2,-6 3,-10 3,-15 0,-5 -4,-10 -12,-15 -8,-6 -12,-13 -12,-20 0,-6 3,-10 7,-15 4,-4 9,-6 15,-6 8,0 14,3 19,9 6,6 8,13 8,22 0,8 -1,17 -4,25 -4,13 -12,29 -25,48 -12,18 -32,43 -59,75 -3,4 -22,24 -57,60l-9 0c-5,-109 -13,-177 -26,-203 -4,-9 -12,-13 -22,-13 -4,0 -10,0 -18,2l-1 -9z"/>
   <path id="2" class="fil1" d="M7282 2911c7,0 13,2 18,7 5,5 8,11 8,18 0,7 -3,14 -8,19 -5,5 -11,7 -18,7 -7,0 -13,-2 -18,-7 -5,-5 -8,-12 -8,-19 0,-7 3,-13 8,-18 5,-5 11,-7 18,-7zm11 102l-54 182c-4,13 -5,20 -5,23 0,2 0,4 2,6 1,2 3,2 5,2 2,0 5,-1 8,-4 9,-7 18,-18 27,-32l9 6c-11,17 -24,32 -39,44 -11,8 -22,13 -32,13 -7,0 -12,-2 -16,-7 -5,-4 -7,-9 -7,-15 0,-7 3,-17 7,-32l36 -117c5,-18 8,-30 8,-35 0,-4 -1,-7 -4,-9 -3,-3 -6,-4 -11,-4 -4,0 -11,1 -23,3l0 -10 89 -14z"/>
   <polygon class="fil1" points="7083,1601 7083,1698 7179,1698 7179,1724 7083,1724 7083,1821 7056,1821 7056,1724 6960,1724 6960,1698 7056,1698 7056,1601 "/>
   <polygon class="fil1" points="7095,2287 7095,2391 7065,2391 7065,2287 "/>
   <rect class="fil0 str2" transform="matrix(-0.966762 -0.966762 0.966762 -0.966762 7087.45 2554.94)" width="558" height="558"/>
   <path class="fil1" d="M4802 1842l86 -18c6,14 11,30 15,45 6,23 10,50 14,81 1,16 3,49 6,100 26,-28 41,-45 46,-52 27,-36 42,-57 46,-63 7,-11 12,-20 14,-28 3,-6 4,-12 4,-18 0,-5 -5,-11 -14,-18 -9,-7 -14,-14 -14,-23 0,-6 3,-12 8,-17 5,-5 11,-7 18,-7 8,0 16,3 22,10 7,7 10,16 10,26 0,10 -2,20 -5,29 -5,16 -15,34 -29,57 -15,22 -38,51 -70,88 -4,5 -26,28 -67,70l-11 0c-5,-127 -15,-207 -31,-238 -5,-11 -13,-16 -25,-16 -5,0 -12,1 -21,3l-2 -11z"/>
   <path id="1" class="fil1" d="M5202 1888c9,0 16,3 22,9 6,6 9,13 9,21 0,9 -3,16 -9,22 -6,6 -14,9 -22,9 -8,0 -15,-3 -21,-9 -6,-6 -9,-13 -9,-22 0,-8 3,-15 9,-21 6,-6 13,-9 21,-9zm13 120l-63 215c-4,14 -7,23 -7,26 0,3 1,6 3,8 2,1 4,3 6,3 3,0 6,-2 10,-5 10,-9 21,-22 31,-39l11 7c-13,21 -29,38 -46,52 -13,10 -26,15 -38,15 -8,0 -14,-2 -19,-7 -5,-5 -8,-11 -8,-18 0,-8 3,-20 9,-38l42 -137c6,-22 9,-36 9,-41 0,-5 -1,-8 -4,-11 -3,-3 -8,-4 -13,-4 -5,0 -14,1 -28,3l0 -12 105 -17z"/>
   <g>
    <path class="fil1" d="M3094 1967l0 -5c24,-3 42,-11 54,-21 9,-8 13,-17 13,-28 0,-8 -2,-14 -7,-20 -5,-5 -11,-7 -18,-7 -12,0 -22,6 -30,20l-6 -1c5,-12 12,-21 20,-27 9,-6 18,-9 27,-9 12,0 22,4 29,11 8,7 11,16 11,27 0,9 -3,18 -10,27 -7,8 -19,16 -36,23 11,4 19,10 24,19 5,8 8,17 8,29 0,12 -4,25 -11,38 -7,12 -17,22 -30,29 -13,7 -26,10 -40,10 -13,0 -22,-2 -29,-6 -4,-3 -6,-7 -6,-11 0,-3 1,-6 4,-9 2,-2 5,-4 9,-4 3,0 5,1 8,2 2,0 6,2 12,6 6,3 11,6 15,7 3,1 7,1 11,1 9,0 16,-5 22,-15 6,-11 9,-22 9,-34 0,-10 -2,-18 -6,-26 -4,-7 -10,-14 -19,-18 -9,-5 -18,-8 -28,-8z"/>
    <circle class="fil0 str1" cx="3122" cy="1976" r="155"/>
   </g>
   <path class="fil1" d="M3065 3603l12 -56 -91 0 6 -27 125 -139 23 0 -31 141 32 0 -5 25 -32 0 -12 56 -27 0zm17 -81l20 -92 -83 92 63 0z"/>
   <circle class="fil0 str1" cx="3064" cy="3492" r="155"/>
   <circle class="fil0 str1" cx="4431" cy="1959" r="155"/>
   <circle class="fil0 str1" cx="4162" cy="3481" r="155"/>
   <g>
    <path class="fil1" d="M8547 1032l102 0 0 5 -115 204 -12 -6 101 -179 -49 0c-13,0 -23,1 -27,4 -5,2 -11,8 -17,17l-7 0 24 -45z"/>
    <circle class="fil0 str1" cx="8586" cy="1136" r="155"/>
   </g>
   <g>
    <path class="fil1" d="M8596 2842c9,11 16,21 21,30 4,9 7,18 7,27 0,17 -7,31 -19,43 -13,13 -28,19 -46,19 -17,0 -30,-5 -41,-15 -10,-10 -15,-22 -15,-35 0,-12 4,-23 12,-34 9,-11 25,-21 48,-32 -9,-11 -15,-20 -18,-27 -3,-7 -5,-14 -5,-21 0,-14 5,-25 15,-35 10,-9 23,-14 38,-14 15,0 27,4 36,12 9,9 14,18 14,30 0,11 -4,21 -12,30 -7,9 -19,16 -35,22zm-6 -6c11,-4 19,-10 25,-18 6,-9 9,-19 9,-30 0,-10 -3,-18 -9,-24 -6,-6 -13,-9 -23,-9 -8,0 -16,3 -21,9 -6,5 -9,13 -9,22 0,6 2,13 5,18 4,9 12,19 23,32zm-21 16c-15,6 -27,15 -34,27 -8,12 -12,24 -12,38 0,11 3,20 10,26 7,7 16,11 27,11 12,0 21,-4 29,-13 8,-8 12,-17 12,-28 0,-9 -2,-18 -7,-27 -4,-9 -13,-21 -25,-34z"/>
    <circle class="fil0 str1" cx="8573" cy="2854" r="155"/>
   </g>
   <g>
    <path class="fil1" d="M3134 3388l-39 135 25 0 -6 19 -24 0 -16 55 -22 0 16 -55 -75 0 6 -22 124 -132 11 0zm-33 39l-89 96 61 0 28 -96z"/>
    <circle class="fil0 str1" cx="3064" cy="3492" r="155"/>
   </g>
   <g>
    <path class="fil1" d="M4431 1854l69 0 -7 25 -62 0 -11 26c16,2 29,7 38,15 14,12 21,28 21,49 0,14 -2,27 -8,38 -5,12 -11,21 -19,29 -7,8 -15,14 -24,18 -11,6 -23,9 -35,9 -10,0 -18,-2 -24,-6 -4,-3 -6,-7 -6,-12 0,-3 1,-7 4,-9 2,-3 5,-4 9,-4 6,0 12,3 18,8 4,3 7,6 10,7 2,1 5,1 8,1 11,0 21,-6 31,-17 10,-11 14,-26 14,-44 0,-13 -2,-24 -7,-33 -5,-8 -12,-15 -20,-18 -7,-4 -18,-7 -31,-8l32 -74z"/>
    <circle class="fil0 str1" cx="4431" cy="1959" r="155"/>
   </g>
   <g>
    <path class="fil1" d="M4233 3374l0 6c-17,4 -34,13 -50,26 -16,13 -31,30 -43,50 11,-5 20,-7 27,-7 13,0 24,5 33,14 9,9 13,22 13,37 0,24 -7,45 -23,62 -16,17 -32,25 -50,25 -17,0 -29,-6 -37,-18 -9,-12 -13,-26 -13,-41 0,-21 5,-42 14,-62 10,-20 23,-37 39,-51 17,-15 34,-25 51,-32 11,-4 24,-7 39,-9zm-100 94c-14,31 -22,57 -22,78 0,10 3,19 9,25 5,6 11,9 18,9 12,0 23,-8 33,-25 10,-17 15,-36 15,-58 0,-12 -3,-22 -9,-28 -6,-6 -13,-10 -21,-10 -4,0 -7,1 -10,2 -3,1 -8,4 -13,7z"/>
    <circle class="fil0 str1" cx="4162" cy="3481" r="155"/>
   </g>
   <path class="fil1" d="M4025 588c0,-19 3,-38 8,-58 6,-19 12,-34 19,-46 7,-12 14,-21 21,-27 8,-7 15,-11 22,-15 7,-3 15,-4 23,-4 17,0 32,6 43,19 11,12 17,31 17,54 0,25 -4,49 -12,73 -9,28 -22,50 -39,64 -12,11 -27,16 -43,16 -17,0 -31,-6 -42,-19 -11,-13 -17,-33 -17,-57zm26 7c0,13 2,24 7,32 6,10 15,15 27,15 11,0 21,-4 29,-14 13,-13 22,-33 28,-59 7,-26 10,-48 10,-64 0,-16 -3,-28 -9,-35 -6,-7 -14,-10 -24,-10 -8,0 -14,2 -21,5 -6,4 -12,11 -18,20 -8,12 -15,32 -21,57 -5,22 -8,39 -8,53z"/>
   <circle class="fil0 str1" cx="4101" cy="551" r="155"/>
   <g>
    <path class="fil1" d="M5502 3293c13,0 24,6 33,17 9,10 13,28 13,51 0,20 -3,40 -10,61 -6,21 -16,39 -27,54 -10,12 -20,21 -30,26 -6,3 -13,4 -21,4 -13,0 -24,-5 -33,-16 -9,-11 -14,-28 -14,-51 0,-23 5,-46 14,-70 10,-27 23,-47 40,-62 10,-9 22,-14 35,-14zm0 8c-5,0 -11,3 -17,7 -6,5 -13,14 -19,29 -6,14 -13,33 -19,56 -7,30 -11,55 -11,77 0,10 2,18 7,23 4,5 10,8 17,8 6,0 11,-2 15,-6 12,-11 22,-30 30,-56 14,-43 20,-78 20,-105 0,-11 -2,-20 -6,-25 -5,-5 -10,-8 -17,-8z"/>
    <circle class="fil0 str1" cx="5481" cy="3400" r="155"/>
   </g>
   <g>
    <ellipse class="fil0 str0" cx="429" cy="3108" rx="415" ry="418"/>
    <polygon class="fil1" points="351,2834 404,2834 404,2781 448,2781 448,2834 502,2834 502,2879 448,2879 448,2932 404,2932 404,2879 351,2879 "/>
    <polygon class="fil1" points="361,3377 506,3377 506,3407 361,3407 "/>
    <ellipse class="fil0 str0" cx="429" cy="3108" rx="415" ry="418"/>
    <polygon class="fil1" points="351,2834 404,2834 404,2781 448,2781 448,2834 502,2834 502,2879 448,2879 448,2932 404,2932 404,2879 351,2879 "/>
    <polygon class="fil1" points="361,3377 506,3377 506,3407 361,3407 "/>
   </g>
   <g>
    <path class="fil1" d="M1947 1145l-48 170c-3,10 -5,17 -5,22 0,3 2,6 4,8 3,2 9,3 18,4l-1 6 -78 0 2 -6c8,0 14,-1 16,-2 5,-2 8,-4 10,-7 3,-5 7,-13 10,-25l35 -122c2,-7 3,-12 4,-13 0,-2 0,-4 0,-6 0,-3 -1,-6 -3,-8 -2,-2 -4,-3 -8,-3 -2,0 -6,1 -12,2l-2 -6 51 -14 7 0z"/>
    <circle class="fil0 str1" cx="1892" cy="1250" r="155"/>
   </g>
   <g>
    <path class="fil1" d="M2169 4174l-108 0 0 -6c28,-26 52,-50 71,-72 17,-18 27,-32 31,-42 4,-10 6,-19 6,-29 0,-9 -3,-17 -8,-23 -6,-5 -13,-8 -22,-8 -14,0 -26,8 -36,23l-6 -3c6,-15 12,-26 21,-34 11,-10 25,-16 41,-16 14,0 26,5 36,14 9,9 14,19 14,31 0,10 -2,21 -7,31 -5,10 -14,23 -29,38 -11,12 -33,32 -67,61l39 0c13,0 22,-1 27,-4 5,-3 10,-9 14,-18l7 0 -24 57z"/>
    <circle class="fil0 str1" cx="2135" cy="4069" r="155"/>
   </g>
   <g>
    <path class="fil1" d="M1724 1625l-3 0 -3 -1 -2 0 -3 0 -2 -1 -3 -1 -2 0 -3 -1 -2 -1 -2 -2 -2 -1 -3 -1 -2 -2 -2 -1 -1 -2 -2 -2 -2 -1 -2 -2 -1 -2 -2 -2 -1 -2 -1 -3 -1 -2 -1 -2 -1 -3 -1 -2 -1 -2 0 -3 -1 -2 0 -3 0 -3 -1 -2 0 0 1 -3 0 -3 0 -2 1 -3 0 -2 1 -3 1 -2 1 -3 1 -2 1 -2 1 -2 1 -2 2 -3 1 -1 2 -2 2 -2 2 -2 1 -2 2 -1 2 -2 3 -1 2 -1 2 -1 2 -1 3 -1 2 -1 3 -1 2 0 3 -1 2 0 3 0 3 0 0 0 2 0 3 0 2 0 3 1 3 0 2 1 2 1 3 1 2 1 2 1 2 1 3 1 2 2 2 1 2 2 1 2 2 2 2 2 1 1 2 3 1 2 1 2 1 2 2 2 0 3 1 2 1 3 1 2 0 3 0 2 1 3 0 3 0 0 0 2 -1 3 0 3 0 2 -1 3 -1 2 -1 2 0 3 -2 2 -1 2 -1 3 -1 2 -2 2 -1 2 -2 2 -2 1 -1 2 -2 2 -2 1 -2 2 -3 1 -2 1 -2 2 -2 1 -3 1 -2 0 -2 1 -3 1 -3 0 -2 0 -3 1 -2 0 0 0zm-1297 -60l1297 0 0 15 -1297 0 -8 -7 8 -8zm-8 8l0 -8 8 0 -8 8zm0 1117l0 -1117 15 0 0 1117 -15 0z"/>
   </g>
   <g>
    <path class="fil1" d="M422 4122l0 -596 15 0 0 596 -15 0zm-103 0l0 -13 221 0 0 26 -221 0 0 -13z"/>
   </g>
   <path class="fil1" d="M1000 3269l28 -285c1,-14 2,-24 2,-29 0,-8 -3,-14 -8,-19 -6,-5 -15,-8 -27,-8l-9 0 2 -9 135 0 -2 9c-15,0 -25,2 -31,5 -5,3 -9,8 -13,15 -1,3 -3,14 -5,31l-20 205 134 -183c15,-19 24,-33 28,-41 2,-5 3,-10 3,-14 0,-4 -2,-8 -6,-12 -3,-3 -11,-5 -21,-6l3 -9 102 0 -2 9c-9,1 -15,2 -20,5 -9,4 -18,11 -27,20 -10,9 -24,27 -44,54l-193 262 -9 0z"/>
   <path id="1" class="fil1" d="M1377 3331c-12,15 -25,26 -37,32 -13,7 -26,11 -40,11 -16,0 -30,-5 -39,-14 -9,-10 -14,-22 -14,-38 0,-18 5,-36 15,-53 10,-18 24,-32 41,-43 17,-11 34,-16 50,-16 13,0 22,3 29,8 6,5 9,12 9,20 0,7 -2,13 -6,18 -4,4 -8,6 -13,6 -3,0 -6,-1 -9,-3 -2,-2 -3,-5 -3,-9 0,-2 0,-4 1,-6 1,-2 3,-4 6,-7 2,-2 4,-4 5,-6 0,-1 0,-2 0,-3 0,-3 -1,-5 -3,-6 -3,-3 -8,-4 -15,-4 -11,0 -23,4 -34,12 -12,8 -21,20 -29,35 -10,18 -15,36 -15,54 0,12 3,21 10,28 7,7 17,11 29,11 9,0 18,-2 27,-7 9,-4 19,-13 30,-24l5 4z"/>
  </g>
 </g>
</svg>
