<?xml version="1.0" encoding="UTF-8"?>
<!DOCTYPE svg PUBLIC "-//W3C//DTD SVG 1.1//EN" "http://www.w3.org/Graphics/SVG/1.1/DTD/svg11.dtd">
<!-- Creator: CorelDRAW Home & Student X8 -->
<svg xmlns="http://www.w3.org/2000/svg" xml:space="preserve" width="111.792mm" height="74.3967mm" version="1.1" style="shape-rendering:geometricPrecision; text-rendering:geometricPrecision; image-rendering:optimizeQuality; fill-rule:evenodd; clip-rule:evenodd"
viewBox="0 0 6170 4106"
 xmlns:xlink="http://www.w3.org/1999/xlink">
 <defs>
  <style type="text/css">
   <![CDATA[
    .str1 {stroke:#2B2A29;stroke-width:27.5976}
    .str0 {stroke:#2B2A29;stroke-width:16.5585}
    .str3 {stroke:black;stroke-width:78.9511}
    .str2 {stroke:black;stroke-width:78.9511}
    .fil0 {fill:none}
    .fil1 {fill:#2B2A29;fill-rule:nonzero}
   ]]>
  </style>
 </defs>
 <g id="Warstwa_x0020_1">
  <metadata id="CorelCorpID_0Corel-Layer"/>
  <g id="_594013056">
   <rect class="fil0 str0" x="2445" y="319" width="2339" height="1236" rx="142" ry="142"/>
   <path class="fil1" d="M2640 1266l45 66c12,18 21,30 27,35 6,4 13,7 23,8l0 5 -89 0 0 -5c6,-1 10,-1 13,-2 2,-1 4,-3 5,-4 2,-2 2,-4 2,-6 0,-3 0,-5 -1,-7 -1,-2 -4,-6 -8,-13l-36 -53 -42 55c-5,6 -8,10 -9,12 -1,2 -1,4 -1,6 0,3 1,6 4,8 3,2 8,3 16,4l0 5 -73 0 0 -5c5,-1 9,-2 13,-4 6,-2 12,-6 18,-10 5,-5 12,-12 19,-21l48 -61 -40 -60c-11,-16 -20,-27 -28,-32 -7,-5 -16,-8 -26,-8l0 -5 95 0 0 5c-8,0 -13,2 -16,4 -3,3 -5,5 -5,8 0,4 3,9 7,17l32 47 36 -47c5,-5 7,-9 8,-11 1,-2 2,-4 2,-6 0,-2 -1,-4 -2,-6 -2,-2 -4,-3 -6,-4 -2,-1 -7,-2 -14,-2l0 -5 73 0 0 5c-6,0 -11,1 -14,3 -6,2 -11,5 -15,9 -5,4 -11,12 -20,22l-41 53z"/>
   <path class="fil1" d="M2693 450l72 0 0 6 -4 0c-3,0 -7,1 -12,3 -5,3 -9,6 -14,11 -4,4 -9,11 -15,21l-50 78 0 52c0,13 2,21 5,24 4,4 10,6 18,6l7 0 0 6 -88 0 0 -6 7 0c9,0 15,-2 19,-8 2,-3 3,-10 3,-22l0 -48 -56 -88c-7,-10 -12,-16 -14,-18 -2,-3 -7,-6 -15,-10 -2,-1 -5,-1 -9,-1l0 -6 88 0 0 6 -4 0c-5,0 -9,1 -13,3 -4,3 -6,6 -6,10 0,4 3,11 9,20l43 67 40 -64c7,-9 10,-17 10,-21 0,-3 -1,-6 -3,-8 -1,-2 -3,-4 -6,-5 -3,-1 -7,-2 -12,-2l0 -6z"/>
   <path class="fil1" d="M4565 445l-136 194 85 0c13,0 23,-3 30,-9 7,-5 13,-17 18,-34l5 1 -10 54 -167 0 0 -5 132 -189 -66 0c-11,0 -19,1 -24,4 -5,2 -9,6 -11,10 -3,5 -5,13 -7,25l-6 0 4 -51 153 0z"/>
   <polygon id="1" class="fil1" points="4657,630 4657,554 4581,554 4581,541 4657,541 4657,466 4670,466 4670,541 4746,541 4746,554 4670,554 4670,630 "/>
   <path class="fil1" d="M2907 934c22,5 38,12 48,22 15,14 22,31 22,52 0,15 -4,30 -14,44 -10,14 -23,24 -40,31 -17,6 -43,10 -78,10l-146 0 0 -9 12 0c13,0 22,-4 27,-12 4,-5 6,-17 6,-34l0 -201c0,-19 -2,-31 -7,-36 -6,-7 -14,-10 -26,-10l-12 0 0 -8 134 0c25,0 45,1 60,5 23,6 40,15 52,29 12,14 18,30 18,48 0,16 -5,30 -14,42 -10,12 -24,21 -42,27zm-119 -12c5,1 12,1 19,2 7,1 15,1 24,1 22,0 39,-3 50,-7 11,-5 19,-12 25,-22 6,-10 9,-21 9,-33 0,-18 -7,-33 -22,-46 -15,-12 -36,-19 -64,-19 -16,0 -29,2 -41,5l0 119zm0 148c17,4 35,6 52,6 28,0 49,-6 63,-18 15,-13 22,-28 22,-46 0,-12 -3,-24 -10,-35 -7,-11 -18,-20 -32,-26 -15,-7 -33,-10 -55,-10 -9,0 -17,0 -24,1 -7,0 -12,0 -16,1l0 127z"/>
   <path id="1" class="fil1" d="M3174 776c40,0 75,15 104,45 30,31 44,69 44,115 0,47 -15,86 -44,117 -30,31 -66,47 -108,47 -42,0 -78,-16 -107,-46 -29,-30 -44,-69 -44,-118 0,-49 17,-89 51,-120 29,-27 63,-40 104,-40zm-5 16c-27,0 -49,10 -66,31 -21,26 -31,63 -31,112 0,51 10,90 32,117 17,21 38,31 66,31 29,0 53,-11 72,-34 18,-23 28,-58 28,-107 0,-53 -11,-93 -31,-119 -17,-21 -40,-31 -70,-31z"/>
   <path id="2" class="fil1" d="M3622 776l7 105 -7 0c-10,-32 -23,-54 -40,-68 -18,-14 -39,-21 -63,-21 -21,0 -39,5 -56,16 -16,10 -29,27 -39,50 -9,22 -14,51 -14,85 0,28 5,52 14,73 9,20 22,36 40,47 18,11 38,16 61,16 20,0 38,-4 53,-12 16,-9 32,-26 51,-52l7 5c-16,28 -34,48 -54,60 -21,13 -46,20 -74,20 -51,0 -91,-19 -119,-58 -21,-28 -31,-61 -31,-100 0,-30 7,-59 21,-85 13,-26 32,-46 56,-60 25,-14 51,-21 80,-21 22,0 44,5 66,16 6,3 11,5 13,5 4,0 8,-1 11,-4 4,-4 7,-10 8,-17l9 0z"/>
   <path id="3" class="fil1" d="M3934 776l7 105 -7 0c-10,-32 -23,-54 -41,-68 -17,-14 -38,-21 -62,-21 -21,0 -39,5 -56,16 -16,10 -29,27 -39,50 -9,22 -14,51 -14,85 0,28 4,52 13,73 9,20 23,36 41,47 18,11 38,16 61,16 20,0 38,-4 53,-12 15,-9 32,-26 50,-52l8 5c-16,28 -34,48 -55,60 -20,13 -45,20 -73,20 -51,0 -91,-19 -119,-58 -21,-28 -31,-61 -31,-100 0,-30 6,-59 20,-85 14,-26 33,-46 57,-60 24,-14 51,-21 79,-21 23,0 45,5 66,16 7,3 11,5 14,5 4,0 8,-1 11,-4 4,-4 7,-10 8,-17l9 0z"/>
   <path id="4" class="fil1" d="M4108 1084l0 9 -132 0 0 -9 11 0c12,0 22,-4 28,-11 3,-5 5,-17 5,-35l0 -201c0,-15 -1,-26 -3,-31 -2,-3 -5,-7 -9,-9 -7,-4 -14,-6 -21,-6l-11 0 0 -8 132 0 0 8 -11 0c-12,0 -22,4 -27,11 -4,5 -6,17 -6,35l0 201c0,16 1,26 3,31 1,4 5,7 9,10 7,3 14,5 21,5l11 0z"/>
   <path id="5" class="fil1" d="M4264 1084l0 9 -133 0 0 -9 11 0c13,0 22,-4 28,-11 4,-5 6,-17 6,-35l0 -201c0,-15 -1,-26 -3,-31 -2,-3 -5,-7 -10,-9 -6,-4 -13,-6 -21,-6l-11 0 0 -8 133 0 0 8 -11 0c-13,0 -22,4 -28,11 -4,5 -5,17 -5,35l0 201c0,16 1,26 3,31 1,4 4,7 9,10 7,3 13,5 21,5l11 0z"/>
   <polygon id="6" class="fil1" points="4397,1060 4397,946 4284,946 4284,928 4397,928 4397,814 4416,814 4416,928 4530,928 4530,946 4416,946 4416,1060 "/>
   <path class="fil1" d="M4565 1185l-136 194 85 0c13,0 23,-3 30,-9 7,-6 13,-17 18,-34l5 1 -10 54 -167 0 0 -5 132 -189 -66 0c-11,0 -19,1 -24,4 -5,2 -9,5 -11,10 -3,4 -5,13 -7,25l-6 0 4 -51 153 0z"/>
   <polygon id="1" class="fil1" points="4589,1310 4667,1310 4667,1333 4589,1333 "/>
   <g>
    <rect class="fil0 str0" x="2445" y="2208" width="2339" height="1236" rx="142" ry="142"/>
    <path class="fil1" d="M4558 3154l45 66c12,19 21,30 27,35 6,5 13,8 23,8l0 6 -89 0 0 -6c6,0 10,-1 13,-2 2,-1 4,-2 5,-4 2,-2 2,-4 2,-6 0,-2 0,-4 -1,-7 -1,-1 -4,-6 -8,-13l-36 -53 -43 55c-4,6 -7,10 -8,12 -1,2 -1,4 -1,6 0,4 1,6 4,8 3,3 8,4 16,4l0 6 -74 0 0 -6c6,0 10,-2 14,-3 6,-3 12,-6 18,-11 5,-4 12,-11 19,-20l48 -62 -40 -59c-11,-17 -20,-27 -28,-32 -7,-5 -16,-8 -26,-8l0 -6 95 0 0 6c-8,0 -13,1 -16,4 -3,2 -5,5 -5,7 0,4 2,10 7,17l32 47 36 -46c5,-6 7,-9 8,-11 1,-2 2,-5 2,-7 0,-2 -1,-4 -2,-5 -2,-2 -4,-4 -6,-5 -2,-1 -7,-1 -14,-1l0 -6 73 0 0 6c-6,0 -11,1 -14,2 -6,3 -11,6 -15,10 -5,4 -11,11 -20,22l-41 52z"/>
    <path class="fil1" d="M4611 2339l72 0 0 5 -4 0c-3,0 -7,2 -12,4 -5,2 -9,6 -14,10 -4,4 -9,12 -15,21l-50 78 0 53c0,12 2,20 5,23 4,5 10,7 18,7l7 0 0 5 -89 0 0 -5 8 0c9,0 15,-3 19,-8 2,-3 3,-11 3,-22l0 -49 -56 -87c-7,-10 -12,-16 -14,-19 -2,-3 -7,-6 -15,-9 -2,-1 -5,-2 -9,-2l0 -5 88 0 0 5 -4 0c-5,0 -9,2 -13,4 -4,2 -6,5 -6,10 0,4 3,10 9,20l43 66 40 -63c7,-10 10,-17 10,-22 0,-3 -1,-5 -3,-7 -1,-3 -3,-4 -6,-6 -3,-1 -7,-2 -12,-2l0 -5z"/>
    <path class="fil1" d="M2696 2333l-136 194 85 0c12,0 22,-2 29,-8 7,-6 13,-17 19,-35l5 1 -10 55 -168 0 0 -6 133 -188 -66 0c-11,0 -19,1 -24,3 -5,3 -9,6 -11,11 -3,4 -5,13 -8,25l-5 0 4 -52 153 0z"/>
    <polygon id="1" class="fil1" points="2788,2518 2788,2442 2712,2442 2712,2430 2788,2430 2788,2354 2800,2354 2800,2430 2876,2430 2876,2442 2800,2442 2800,2518 "/>
    <path class="fil1" d="M2907 2823c22,4 38,12 48,22 15,14 22,31 22,51 0,16 -4,30 -14,44 -10,15 -23,25 -40,31 -17,7 -43,10 -78,10l-146 0 0 -8 12 0c13,0 22,-5 27,-13 4,-5 6,-16 6,-34l0 -200c0,-19 -2,-31 -7,-36 -6,-7 -14,-10 -26,-10l-12 0 0 -9 134 0c25,0 45,2 60,6 23,5 40,15 52,29 12,14 18,30 18,48 0,15 -5,29 -14,42 -10,12 -24,21 -42,27zm-119 -13c5,1 12,2 19,2 7,1 15,1 24,1 22,0 39,-2 50,-7 11,-5 19,-12 25,-22 6,-10 9,-20 9,-32 0,-18 -7,-34 -22,-46 -15,-13 -36,-19 -64,-19 -16,0 -29,1 -41,5l0 118zm0 149c17,4 35,6 52,6 28,0 49,-7 63,-19 15,-12 22,-28 22,-46 0,-12 -3,-23 -10,-35 -7,-11 -18,-19 -32,-26 -15,-6 -33,-9 -55,-9 -9,0 -17,0 -24,0 -7,0 -12,1 -16,2l0 127z"/>
    <path id="1" class="fil1" d="M3174 2664c40,0 75,15 104,46 30,31 44,69 44,114 0,47 -15,86 -44,117 -30,32 -66,47 -108,47 -42,0 -78,-15 -107,-45 -29,-31 -44,-70 -44,-118 0,-49 17,-89 51,-120 29,-27 63,-41 104,-41zm-5 17c-27,0 -49,10 -66,30 -21,26 -31,63 -31,113 0,50 10,89 32,117 17,20 38,31 66,31 29,0 53,-12 72,-34 18,-23 28,-59 28,-108 0,-53 -11,-92 -31,-118 -17,-21 -40,-31 -70,-31z"/>
    <path id="2" class="fil1" d="M3622 2664l7 105 -7 0c-10,-31 -23,-54 -40,-68 -18,-14 -39,-20 -63,-20 -21,0 -39,5 -56,15 -16,11 -29,27 -39,50 -9,23 -14,51 -14,85 0,28 5,53 14,73 9,21 22,37 40,48 18,11 38,16 61,16 20,0 38,-4 53,-13 16,-8 32,-26 51,-51l7 5c-16,27 -34,47 -54,60 -21,13 -46,19 -74,19 -51,0 -91,-19 -119,-57 -21,-28 -31,-62 -31,-100 0,-31 7,-59 21,-85 13,-26 32,-46 56,-60 25,-15 51,-22 80,-22 22,0 44,6 66,17 6,3 11,5 13,5 4,0 8,-2 11,-5 4,-4 7,-9 8,-17l9 0z"/>
    <path id="3" class="fil1" d="M3934 2664l7 105 -7 0c-10,-31 -23,-54 -41,-68 -17,-14 -38,-20 -62,-20 -21,0 -39,5 -56,15 -16,11 -29,27 -39,50 -9,23 -14,51 -14,85 0,28 4,53 13,73 9,21 23,37 41,48 18,11 38,16 61,16 20,0 38,-4 53,-13 15,-8 32,-26 50,-51l8 5c-16,27 -34,47 -55,60 -20,13 -45,19 -73,19 -51,0 -91,-19 -119,-57 -21,-28 -31,-62 -31,-100 0,-31 6,-59 20,-85 14,-26 33,-46 57,-60 24,-15 51,-22 79,-22 23,0 45,6 66,17 7,3 11,5 14,5 4,0 8,-2 11,-5 4,-4 7,-9 8,-17l9 0z"/>
    <path id="4" class="fil1" d="M4108 2973l0 8 -132 0 0 -8 11 0c12,0 22,-4 28,-12 3,-4 5,-16 5,-35l0 -200c0,-16 -1,-26 -3,-31 -2,-4 -5,-7 -9,-10 -7,-4 -14,-5 -21,-5l-11 0 0 -9 132 0 0 9 -11 0c-12,0 -22,3 -27,11 -4,5 -6,16 -6,35l0 200c0,16 1,26 3,31 1,4 5,7 9,10 7,4 14,6 21,6l11 0z"/>
    <path id="5" class="fil1" d="M4264 2973l0 8 -133 0 0 -8 11 0c13,0 22,-4 28,-12 4,-4 6,-16 6,-35l0 -200c0,-16 -1,-26 -3,-31 -2,-4 -5,-7 -10,-10 -6,-4 -13,-5 -21,-5l-11 0 0 -9 133 0 0 9 -11 0c-13,0 -22,3 -28,11 -4,5 -5,16 -5,35l0 200c0,16 1,26 3,31 1,4 4,7 9,10 7,4 13,6 21,6l11 0z"/>
    <polygon id="6" class="fil1" points="4397,2949 4397,2835 4284,2835 4284,2816 4397,2816 4397,2703 4416,2703 4416,2816 4530,2816 4530,2835 4416,2835 4416,2949 "/>
    <path class="fil1" d="M2696 3073l-136 194 85 0c12,0 22,-3 29,-8 7,-6 13,-18 19,-35l5 1 -10 55 -168 0 0 -6 133 -188 -66 0c-11,0 -19,1 -24,3 -5,3 -9,6 -11,10 -3,5 -5,13 -8,26l-5 0 4 -52 153 0z"/>
    <polygon id="1" class="fil1" points="2719,3198 2798,3198 2798,3221 2719,3221 "/>
   </g>
   <polyline class="fil0 str1" points="2191,1321 2128,1477 2002,1160 1876,1477 1749,1160 1623,1477 1497,1160 1434,1321 "/>
   <polyline class="fil0 str1" points="5786,3235 5722,3391 5596,3074 5470,3391 5344,3074 5217,3391 5091,3074 5028,3235 "/>
   <g>
    <path class="fil1" d="M4993 2437l-224 0 0 -16 224 0 0 16zm0 75l-10 0 0 -166 19 0 0 166 -9 0z"/>
   </g>
   <g>
    <path class="fil1" d="M2206 539l224 0 0 17 -224 0 0 -17zm0 -75l10 0 0 167 -20 0 0 -167 10 0z"/>
   </g>
   <line class="fil0 str0" x1="2445" y1="1312" x2="2191" y2= "1321" />
   <line class="fil0 str0" x1="4784" y1="3216" x2="5036" y2= "3216" />
   <path class="fil0 str2" d="M1636 2222l0 -426m-158 426l0 -426"/>
   <g>
    <path class="fil1" d="M515 2421l1930 0 0 16 -1930 0 0 -16zm-53 72l0 -19 0 0 3 0 2 -1 2 0 2 0 2 -1 2 0 3 -1 2 -1 2 -1 1 -1 2 -1 2 -1 2 -1 2 -2 1 -1 2 -1 1 -2 2 -2 1 -1 1 -2 2 -2 1 -2 1 -2 0 -2 1 -2 1 -2 1 -2 0 -2 0 -2 1 -3 0 -2 0 -2 20 0 0 3 -1 3 0 4 -1 3 0 3 -1 3 -1 3 -1 3 -2 3 -1 3 -2 2 -1 3 -2 2 -2 3 -2 2 -2 2 -3 3 -2 2 -2 1 -3 2 -2 2 -3 2 -3 1 -3 1 -3 1 -3 1 -3 1 -3 1 -3 1 -3 0 -3 0 -4 0 0 0zm-64 -64l19 0 0 0 0 2 1 2 0 3 0 2 1 2 0 2 1 2 1 2 1 2 1 2 1 2 1 2 1 2 2 1 1 2 2 2 1 1 2 1 1 2 2 1 2 1 2 1 2 1 2 1 2 1 2 1 2 0 2 1 2 0 3 0 2 1 2 0 0 19 -3 0 -3 0 -4 0 -3 -1 -3 -1 -3 -1 -3 -1 -3 -1 -3 -1 -2 -1 -3 -2 -3 -2 -2 -2 -3 -1 -2 -2 -2 -3 -2 -2 -2 -2 -2 -3 -2 -2 -2 -3 -1 -2 -2 -3 -1 -3 -1 -3 -1 -3 -1 -3 -1 -3 0 -3 -1 -4 0 -3 0 -3 0 0zm64 -65l0 20 0 0 -2 0 -2 0 -3 1 -2 0 -2 1 -2 0 -2 1 -2 1 -2 1 -2 1 -2 1 -2 1 -2 1 -1 1 -2 2 -1 1 -2 2 -1 1 -2 2 -1 2 -1 2 -1 2 -1 2 -1 2 -1 2 -1 2 0 2 -1 2 0 2 0 2 -1 3 0 2 -19 0 0 -3 0 -4 1 -3 0 -3 1 -3 1 -3 1 -3 1 -3 1 -3 2 -3 1 -2 2 -3 2 -3 2 -2 2 -2 2 -3 2 -2 2 -2 3 -2 2 -1 3 -2 3 -2 2 -1 3 -1 3 -2 3 -1 3 0 3 -1 3 -1 4 0 3 0 3 -1 0 0zm65 65l-20 0 0 -2 0 -3 -1 -2 0 -2 0 -2 -1 -2 -1 -2 -1 -2 0 -2 -1 -2 -1 -2 -2 -2 -1 -2 -1 -2 -2 -1 -1 -2 -2 -1 -1 -2 -2 -1 -2 -1 -2 -1 -2 -1 -1 -1 -2 -1 -2 -1 -3 -1 -2 0 -2 -1 -2 0 -2 -1 -2 0 -3 0 0 -20 4 1 3 0 3 0 3 1 3 1 3 0 3 1 3 2 3 1 3 1 3 2 2 2 3 1 2 2 2 2 3 2 2 3 2 2 2 2 2 3 1 3 2 2 1 3 2 3 1 3 1 3 1 3 0 3 1 3 0 3 1 4 0 3z"/>
   </g>
   <g>
    <path class="fil1" d="M1134 1304l300 9 -1 17 -299 -10 -8 -8 8 -8zm-8 8l0 -8 8 0 -8 8zm0 1117l0 -1117 16 0 0 1117 -16 0zm47 0l0 0 0 2 0 2 0 2 0 2 -1 2 0 2 -1 1 -1 2 -1 2 0 2 -1 1 -1 2 -1 1 -2 2 -1 1 -1 2 -2 1 -1 1 -1 1 -2 1 -2 1 -1 1 -2 1 -2 1 -1 1 -2 0 -2 1 -2 0 -2 1 -2 0 -2 0 -2 0 0 0 -2 0 -2 0 -2 0 -2 -1 -2 0 -2 -1 -1 0 -2 -1 -2 -1 -2 -1 -1 -1 -2 -1 -1 -1 -2 -1 -1 -1 -2 -1 -1 -2 -1 -1 -1 -2 -1 -1 -1 -2 -1 -1 -1 -2 -1 -2 -1 -2 0 -1 -1 -2 0 -2 -1 -2 0 -2 0 -2 0 -2 0 0 0 -2 0 -2 0 -2 1 -2 0 -2 1 -2 0 -2 1 -1 1 -2 1 -2 1 -1 1 -2 1 -2 1 -1 1 -1 1 -2 2 -1 1 -1 2 -2 1 -1 2 -1 1 -1 2 0 2 -1 2 -1 1 -1 2 0 2 -1 2 0 2 0 2 0 2 0 0 0 2 0 2 0 2 0 2 0 2 1 2 0 2 1 1 1 2 1 2 0 1 1 2 1 2 1 1 2 1 1 2 1 1 2 1 1 2 1 1 2 1 2 1 1 0 2 1 2 1 1 1 2 0 2 1 2 0 2 0 2 0 2 0 2z"/>
   </g>
   <g>
    <path class="fil1" d="M6112 3274l-3 0 -2 -1 -3 0 -3 0 -3 -1 -3 -1 -2 -1 -3 -1 -3 -1 -2 -1 -3 -2 -2 -1 -2 -2 -2 -1 -2 -2 -2 -2 -2 -2 -2 -2 -2 -3 -2 -2 -1 -2 -1 -3 -2 -2 -1 -3 -1 -2 -1 -3 -1 -3 0 -2 -1 -3 0 -3 0 -3 0 -3 0 0 0 -3 0 -3 0 -3 1 -3 0 -3 1 -2 1 -3 1 -3 1 -2 2 -3 1 -2 1 -3 2 -2 2 -2 2 -2 2 -2 2 -2 2 -2 2 -2 2 -1 2 -2 3 -1 2 -1 3 -2 3 -1 2 0 3 -1 3 -1 3 0 3 -1 3 0 2 0 0 0 3 0 3 0 3 1 3 0 3 1 3 1 2 0 3 1 3 2 2 1 2 1 3 2 2 1 2 2 2 2 2 2 2 2 2 2 2 2 1 2 2 3 1 2 2 3 1 2 1 3 1 3 1 2 0 3 1 3 0 3 0 3 0 3 0 0 0 3 0 3 0 3 -1 3 0 2 -1 3 -1 3 -1 2 -1 3 -2 2 -1 3 -2 2 -1 2 -2 3 -2 2 -2 2 -2 2 -2 2 -2 1 -2 2 -3 1 -2 2 -2 1 -3 1 -3 1 -2 1 -3 1 -3 1 -3 0 -3 0 -3 1 -3 0 0 0zm-337 -66l337 0 0 16 -337 0 0 -16z"/>
   </g>
   <g>
    <path class="fil1" d="M503 3208l1902 0 0 16 -1902 0 0 -16zm-54 72l0 -19 0 0 3 0 2 -1 2 0 2 0 3 -1 2 0 2 -1 2 -1 2 -1 2 -1 2 -1 1 -1 2 -1 2 -2 2 -1 1 -2 2 -1 1 -2 1 -1 2 -2 1 -2 1 -2 1 -2 1 -2 1 -2 0 -2 1 -2 0 -2 1 -2 0 -3 0 -2 0 -2 20 0 0 3 0 3 -1 4 0 3 -1 3 -1 3 -1 3 -1 3 -2 3 -1 3 -1 2 -2 3 -2 2 -2 3 -2 2 -2 2 -2 2 -3 3 -2 1 -3 2 -2 2 -3 1 -3 2 -3 1 -2 1 -3 1 -3 1 -4 1 -3 1 -3 0 -3 0 -4 0 0 0zm-64 -64l20 0 0 0 0 2 0 2 0 3 1 2 0 2 1 2 0 2 1 2 1 2 1 2 1 2 1 2 2 2 1 1 1 2 2 1 1 2 2 1 2 2 1 1 2 1 2 1 2 1 2 1 2 1 2 1 2 0 2 1 3 0 2 0 2 1 2 0 0 19 -3 0 -3 0 -3 0 -3 -1 -4 -1 -3 -1 -3 -1 -3 -1 -2 -1 -3 -2 -3 -1 -3 -2 -2 -2 -2 -1 -3 -3 -2 -2 -2 -2 -2 -2 -2 -3 -2 -2 -2 -3 -1 -2 -2 -3 -1 -3 -1 -3 -1 -3 -1 -3 -1 -3 0 -3 -1 -4 0 -3 0 -3 0 0zm64 -65l0 20 0 0 -2 0 -2 0 -2 1 -3 0 -2 0 -2 1 -2 1 -2 1 -2 0 -2 1 -2 2 -2 1 -1 1 -2 1 -2 2 -1 1 -2 2 -1 1 -1 2 -2 2 -1 2 -1 2 -1 1 -1 2 -1 2 0 3 -1 2 0 2 -1 2 0 2 0 3 0 2 -20 0 0 -3 0 -4 1 -3 0 -3 1 -3 1 -3 1 -3 1 -3 1 -3 2 -3 1 -3 2 -2 2 -3 2 -2 2 -2 2 -3 2 -2 3 -2 2 -2 2 -2 3 -1 3 -2 3 -1 2 -1 3 -2 3 -1 3 -1 4 0 3 -1 3 0 3 0 3 -1 0 0zm65 65l-20 0 0 -2 0 -3 0 -2 -1 -2 0 -2 -1 -2 0 -3 -1 -2 -1 -2 -1 -1 -1 -2 -1 -2 -2 -2 -1 -2 -1 -1 -2 -2 -1 -1 -2 -2 -2 -1 -2 -1 -1 -1 -2 -2 -2 -1 -2 0 -2 -1 -2 -1 -2 -1 -3 0 -2 0 -2 -1 -2 0 -3 0 0 -20 4 1 3 0 3 0 3 1 4 0 3 1 3 1 2 2 3 1 3 1 3 2 2 1 3 2 2 2 3 2 2 2 2 3 2 2 2 2 2 3 2 2 1 3 1 3 2 3 1 3 1 3 1 3 1 3 0 3 1 3 0 4 0 3z"/>
   </g>
   <g>
    <path class="fil1" d="M1173 3216l0 2 0 2 0 2 0 2 -1 2 0 1 -1 2 -1 2 -1 2 0 2 -1 1 -1 2 -1 1 -2 2 -1 1 -1 2 -2 1 -1 1 -1 1 -2 1 -2 1 -1 1 -2 1 -2 1 -1 1 -2 0 -2 1 -2 0 -2 1 -2 0 -2 0 -2 0 0 0 -2 0 -2 0 -2 0 -2 -1 -2 0 -2 -1 -1 0 -2 -1 -2 -1 -2 -1 -1 -1 -2 -1 -1 -1 -2 -1 -1 -1 -2 -1 -1 -2 -1 -1 -1 -2 -1 -1 -1 -2 -1 -1 -1 -2 -1 -2 -1 -2 0 -2 -1 -1 0 -2 -1 -2 0 -2 0 -2 0 -2 0 0 0 -2 0 -2 0 -2 1 -2 0 -2 1 -2 0 -2 1 -1 1 -2 1 -2 1 -1 1 -2 1 -2 1 -1 1 -2 1 -1 2 -1 1 -1 2 -2 1 -1 2 -1 1 -1 2 -1 2 0 2 -1 1 -1 2 0 2 -1 2 0 2 0 2 0 2 0 0 0 2 0 2 0 2 0 2 0 2 1 2 0 2 1 1 1 2 0 2 1 1 1 2 1 2 1 1 2 1 1 2 1 1 1 1 2 2 1 1 2 1 2 1 1 0 2 1 2 1 1 1 2 0 2 1 2 0 2 0 2 0 2 0 2 0 0zm-47 882l0 -882 16 0 0 882 -8 8 -8 -8zm8 8l-8 0 0 -8 8 8zm4978 0l-4978 0 0 -16 4978 0 9 8 -9 8zm9 -8l0 8 -9 0 9 -8zm0 -2786l0 2786 -17 0 0 -2786 8 -8 9 8zm-9 -8l9 0 0 8 -9 -8zm-1328 0l1328 0 0 16 -1328 0 0 -16z"/>
   </g>
   <g>
    <path class="fil1" d="M6152 556l-1368 0 0 -17 1368 0 0 17zm0 75l-10 0 0 -167 20 0 0 167 -10 0z"/>
   </g>
   <g>
    <path class="fil1" d="M1134 2001l344 0 0 17 -344 0 0 -17zm0 48l0 0 -2 -1 -2 0 -2 0 -2 0 -2 -1 -2 0 -1 -1 -2 -1 -2 0 -2 -1 -1 -1 -2 -1 -1 -1 -2 -1 -1 -2 -2 -1 -1 -1 -1 -2 -1 -1 -1 -2 -1 -1 -1 -2 -1 -2 -1 -1 -1 -2 0 -2 -1 -2 0 -2 -1 -2 0 -2 0 -2 0 -2 0 0 0 -2 0 -2 0 -2 1 -2 0 -2 1 -1 0 -2 1 -2 1 -2 1 -1 1 -2 1 -2 1 -1 1 -2 1 -1 1 -1 2 -2 1 -1 2 -1 1 -1 2 -1 1 -1 2 -1 2 -1 2 -1 1 0 2 -1 2 0 2 -1 2 0 2 0 2 0 0 0 2 0 2 0 2 0 2 1 2 0 2 1 2 0 1 1 2 1 2 1 1 1 2 1 2 1 1 1 1 1 2 2 1 1 1 1 1 2 2 1 1 2 1 2 0 1 1 2 1 2 1 2 0 1 1 2 0 2 0 2 0 2 0 2 0 0 0 2 0 2 0 2 0 2 -1 2 0 2 -1 2 -1 2 -1 1 0 2 -1 2 -1 1 -2 2 -1 1 -1 2 -1 1 -2 1 -1 2 -1 1 -2 1 -2 1 -1 1 -2 1 -2 0 -1 1 -2 1 -2 0 -2 1 -2 0 -2 0 -2 0 -2 1z"/>
   </g>
   <g>
    <path class="fil1" d="M1945 2018l-309 0 0 -17 309 0 0 17zm0 75l-9 0 0 -167 19 0 0 167 -10 0z"/>
   </g>
   <path class="fil0 str3" d="M1636 3966l0 -426m-158 426l0 -426"/>
   <g>
    <path class="fil1" d="M1134 3745l344 0 0 17 -344 0 0 -17zm0 48l0 0 -2 -1 -2 0 -2 0 -2 0 -2 -1 -2 0 -1 -1 -2 -1 -2 0 -2 -1 -1 -1 -2 -1 -1 -1 -2 -1 -1 -2 -2 -1 -1 -1 -1 -2 -1 -1 -1 -2 -1 -1 -1 -2 -1 -2 -1 -1 -1 -2 0 -2 -1 -2 0 -2 -1 -2 0 -2 0 -2 0 -2 0 0 0 -2 0 -2 0 -2 1 -2 0 -2 1 -1 0 -2 1 -2 1 -2 1 -1 1 -2 1 -2 1 -1 1 -2 1 -1 1 -1 2 -2 1 -1 2 -1 1 -1 2 -1 1 -1 2 -1 2 -1 2 -1 1 0 2 -1 2 0 2 -1 2 0 2 0 2 0 0 0 2 0 2 0 2 0 2 1 2 0 2 1 2 0 1 1 2 1 2 1 1 1 2 1 2 1 1 1 1 1 2 2 1 1 1 1 1 2 2 1 1 2 1 2 0 1 1 2 1 2 1 2 0 1 1 2 0 2 0 2 0 2 0 2 0 0 0 2 0 2 0 2 0 2 -1 2 0 2 -1 2 -1 2 -1 1 0 2 -1 2 -1 1 -2 2 -1 1 -1 2 -1 1 -2 1 -1 2 -1 1 -2 1 -2 1 -1 1 -2 1 -2 0 -1 1 -2 1 -2 0 -2 1 -2 0 -2 0 -2 0 -2 1z"/>
   </g>
   <g>
    <path class="fil1" d="M1945 3762l-309 0 0 -17 309 0 0 17zm0 75l-9 0 0 -167 19 0 0 167 -10 0z"/>
   </g>
   <path class="fil1" d="M798 1858l6 88 -6 0c-8,-26 -19,-45 -33,-57 -15,-11 -32,-17 -53,-17 -17,0 -32,4 -46,13 -14,9 -25,23 -32,42 -8,19 -12,42 -12,71 0,23 3,43 11,60 7,18 19,31 34,40 15,9 32,13 51,13 16,0 31,-3 44,-10 13,-7 27,-22 42,-43l6 4c-13,23 -28,40 -45,50 -18,11 -38,16 -62,16 -42,0 -75,-16 -99,-47 -17,-24 -26,-52 -26,-84 0,-25 6,-49 17,-71 12,-21 28,-38 48,-50 20,-12 42,-18 66,-18 18,0 37,5 55,14 5,3 9,4 11,4 4,0 7,-1 9,-3 3,-4 6,-9 7,-15l7 0z"/>
   <path id="1" class="fil1" d="M869 1889l63 -30 6 0 0 218c0,14 1,23 2,27 1,3 3,6 7,8 4,2 12,3 24,3l0 7 -98 0 0 -7c13,0 20,-1 24,-3 3,-2 6,-4 7,-7 2,-3 2,-13 2,-28l0 -140c0,-18 0,-30 -1,-36 -1,-4 -3,-7 -5,-9 -3,-2 -6,-3 -9,-3 -5,0 -11,2 -19,6l-3 -6z"/>
   <path class="fil1" d="M680 3594l6 88 -6 0c-8,-27 -19,-45 -34,-57 -14,-12 -32,-17 -52,-17 -17,0 -33,4 -46,13 -14,8 -25,22 -33,41 -8,19 -12,43 -12,71 0,24 4,44 12,61 7,17 18,30 33,40 15,9 32,13 51,13 17,0 32,-3 44,-11 13,-7 27,-21 43,-42l5 4c-12,23 -28,39 -45,50 -17,11 -37,16 -61,16 -43,0 -76,-16 -99,-48 -17,-23 -26,-51 -26,-83 0,-26 6,-49 17,-71 11,-22 27,-38 47,-50 21,-12 43,-18 67,-18 18,0 36,5 55,14 5,3 9,4 11,4 3,0 6,-1 9,-4 3,-3 5,-8 7,-14l7 0z"/>
   <path id="1" class="fil1" d="M883 3808l-18 50 -152 0 0 -7c45,-41 77,-74 95,-100 18,-26 27,-49 27,-71 0,-16 -5,-30 -15,-40 -10,-11 -22,-16 -36,-16 -13,0 -24,4 -34,11 -10,7 -17,18 -22,32l-7 0c3,-23 11,-41 24,-53 13,-13 30,-19 49,-19 21,0 39,7 53,20 14,13 21,29 21,48 0,13 -3,26 -9,39 -10,20 -25,42 -46,65 -32,34 -51,55 -58,62l66 0c14,0 23,-1 29,-2 5,-1 10,-3 15,-6 4,-3 8,-7 11,-13l7 0z"/>
   <path class="fil1" d="M1817 1033l-69 0 -88 -120c-6,0 -11,0 -15,0 -2,0 -4,0 -5,0 -2,0 -4,0 -6,0l0 75c0,16 2,26 5,30 5,6 12,8 22,8l10 0 0 7 -111 0 0 -7 10 0c11,0 19,-3 23,-10 3,-4 4,-14 4,-28l0 -167c0,-17 -2,-27 -5,-30 -5,-6 -12,-9 -22,-9l-10 0 0 -7 94 0c28,0 48,2 61,6 13,4 24,12 33,22 9,11 14,24 14,39 0,16 -6,29 -16,41 -10,12 -26,20 -48,25l53 74c13,17 23,28 32,34 8,5 20,9 34,10l0 7zm-183 -132c2,0 4,0 6,0 2,0 3,0 4,0 25,0 43,-6 55,-16 13,-11 19,-25 19,-41 0,-16 -5,-29 -15,-39 -10,-10 -23,-15 -40,-15 -7,0 -17,1 -29,3l0 108z"/>
   <path id="1" class="fil1" d="M1858 800l64 -30 6 0 0 218c0,14 0,23 2,27 1,3 3,6 7,8 4,2 12,3 24,3l0 7 -98 0 0 -7c12,0 20,-1 24,-3 3,-2 6,-4 7,-7 2,-3 2,-13 2,-28l0 -140c0,-18 0,-30 -2,-36 -1,-4 -2,-7 -4,-9 -3,-2 -6,-3 -9,-3 -5,0 -11,2 -20,6l-3 -6z"/>
   <path class="fil1" d="M5506 2974l-69 0 -88 -121c-6,1 -11,1 -15,1 -2,0 -4,0 -5,0 -2,0 -4,-1 -6,-1l0 75c0,17 2,27 5,31 5,5 12,8 22,8l10 0 0 7 -111 0 0 -7 10 0c11,0 19,-4 23,-11 3,-3 4,-13 4,-28l0 -167c0,-16 -1,-26 -5,-30 -5,-5 -12,-8 -22,-8l-10 0 0 -7 94 0c28,0 48,2 61,6 13,4 24,11 33,22 9,11 14,23 14,38 0,16 -6,30 -16,42 -10,11 -26,20 -48,24l53 74c13,17 23,29 32,34 9,6 20,9 34,11l0 7zm-183 -133c2,0 4,0 6,0 2,0 3,0 4,0 25,0 43,-5 55,-16 13,-10 19,-24 19,-40 0,-16 -5,-29 -15,-40 -10,-10 -23,-15 -40,-15 -7,0 -17,1 -29,4l0 107z"/>
   <path id="1" class="fil1" d="M5681 2924l-18 50 -152 0 0 -7c44,-41 76,-74 94,-100 18,-26 27,-49 27,-71 0,-16 -5,-30 -15,-40 -10,-11 -22,-16 -35,-16 -13,0 -25,4 -35,11 -10,7 -17,18 -22,32l-7 0c3,-23 11,-41 24,-53 14,-13 30,-19 50,-19 21,0 38,7 52,20 14,13 21,29 21,48 0,13 -3,26 -9,39 -9,20 -25,42 -46,65 -31,34 -51,55 -58,62l67 0c13,0 23,-1 28,-2 6,-1 10,-3 15,-6 4,-3 8,-7 11,-13l8 0z"/>
   <g>
    <path class="fil1" d="M5678 556l-225 0 0 -17 225 0 0 17zm69 -8l-137 59 1 -4 2 -4 2 -3 1 -4 1 -4 2 -3 1 -4 1 -4 0 -4 1 -3 1 -4 0 -4 1 -3 0 -4 0 -4 0 -3 0 -4 0 -4 0 -3 -1 -4 0 -4 -1 -3 -1 -4 0 -4 -1 -3 -1 -4 -2 -4 -1 -3 -1 -4 -2 -4 -2 -3 -1 -4 0 0 137 59z"/>
   </g>
   <g>
    <path class="fil1" d="M818 2437l-153 0 0 -16 153 0 0 16zm69 -8l-137 59 2 -4 1 -4 2 -3 1 -4 2 -4 1 -3 1 -4 1 -4 1 -3 1 -4 0 -4 1 -3 0 -4 0 -4 1 -3 0 -4 0 -4 -1 -3 0 -4 0 -4 -1 -4 0 -3 -1 -4 -1 -4 -1 -3 -1 -4 -1 -4 -2 -3 -1 -4 -2 -4 -1 -3 -2 -4 0 0 137 59z"/>
   </g>
   <g>
    <path class="fil1" d="M818 3224l-153 0 0 -16 153 0 0 16zm69 -8l-137 59 2 -4 1 -4 2 -3 1 -4 2 -4 1 -3 1 -4 1 -4 1 -3 1 -4 0 -4 1 -3 0 -4 0 -4 1 -3 0 -4 0 -4 -1 -4 0 -3 0 -4 -1 -4 0 -3 -1 -4 -1 -4 -1 -3 -1 -4 -1 -4 -2 -3 -1 -4 -2 -4 -1 -3 -2 -4 0 0 137 59z"/>
   </g>
   <polygon class="fil1" points="5470,279 5529,0 5566,0 5507,279 "/>
   <path id="1" class="fil1" d="M5581 279c0,-35 10,-63 30,-85 20,-21 44,-32 73,-32 24,0 44,8 59,24 16,16 23,37 23,64 0,19 -3,36 -11,52 -6,13 -13,23 -22,32 -9,9 -18,16 -28,20 -14,7 -28,10 -43,10 -15,0 -30,-4 -42,-11 -13,-8 -23,-18 -30,-32 -6,-13 -9,-27 -9,-42zm25 1c0,12 2,22 7,32 5,9 12,17 21,22 10,6 20,8 30,8 10,0 20,-2 29,-7 9,-5 17,-11 24,-20 7,-8 13,-19 17,-31 4,-12 7,-25 7,-37 0,-19 -6,-34 -17,-46 -11,-12 -24,-17 -40,-17 -21,0 -39,8 -55,26 -15,17 -23,41 -23,70z"/>
   <polygon class="fil1" points="8,3355 66,3076 103,3076 45,3355 "/>
   <path id="1" class="fil1" d="M109 3437c3,-12 6,-22 11,-30 4,-7 10,-15 17,-22 7,-7 21,-19 42,-35 13,-10 21,-18 26,-23 6,-6 11,-13 14,-20 2,-4 3,-9 3,-15 0,-9 -3,-16 -9,-22 -6,-7 -14,-10 -23,-10 -10,0 -18,3 -24,10 -7,6 -12,16 -15,30l-23 -3c2,-17 9,-31 20,-41 11,-10 25,-15 41,-15 11,0 21,2 30,7 9,4 16,11 21,19 4,9 6,17 6,26 0,13 -4,25 -13,37 -6,8 -23,23 -50,44 -12,10 -21,18 -27,24 -6,6 -10,11 -13,17l87 0 -5 22 -116 0z"/>
   <polygon class="fil1" points="0,2553 58,2274 95,2274 37,2553 "/>
   <path id="1" class="fil1" d="M151 2635l31 -147c-13,10 -32,19 -56,25l4 -22c12,-5 24,-11 36,-19 12,-7 20,-14 26,-20 4,-3 7,-8 10,-13l14 0 -41 196 -24 0z"/>
   <path class="fil1" d="M1234 2629c0,-39 14,-72 42,-100 27,-27 60,-41 99,-41 39,0 72,14 100,41 27,28 41,61 41,100 0,39 -14,72 -41,100 -28,27 -61,41 -100,41 -39,0 -72,-14 -99,-41 -28,-28 -42,-61 -42,-100zm20 0c0,34 11,63 35,86 24,24 52,36 86,36 34,0 62,-12 86,-36 24,-23 36,-52 36,-86 0,-34 -12,-62 -36,-86 -24,-24 -52,-36 -86,-36 -34,0 -62,12 -86,36 -24,24 -35,52 -35,86zm135 -91l0 146c0,10 1,15 2,17 2,2 8,3 18,3l13 0 0 12 -91 0 0 -12 14 0c11,0 17,-1 18,-2 2,-2 2,-8 2,-18l0 -109c0,-10 0,-16 -2,-18 -1,-1 -7,-2 -18,-3l-14 0 0 -12 58 -4z"/>
   <path class="fil1" d="M1229 3012c0,-39 14,-72 41,-100 27,-27 61,-41 100,-41 39,0 72,14 99,41 28,28 41,61 41,100 0,39 -13,72 -41,100 -27,27 -60,41 -99,41 -39,0 -73,-14 -100,-41 -27,-28 -41,-61 -41,-100zm19 0c0,34 12,63 35,86 24,24 53,36 87,36 33,0 62,-12 86,-36 23,-23 35,-52 35,-86 0,-34 -12,-62 -35,-86 -24,-24 -53,-36 -86,-36 -34,0 -63,12 -87,36 -23,24 -35,52 -35,86zm68 87l0 -14c7,-20 17,-37 31,-49l12 -12c16,-14 26,-25 31,-32 4,-7 7,-16 7,-26 0,-12 -3,-21 -9,-27 -5,-6 -13,-9 -24,-9 -9,0 -17,2 -24,6 -3,2 -5,10 -6,23l0 5 -14 0 0 -36c17,-7 32,-10 47,-10 16,0 29,4 39,14 11,9 16,20 16,35 0,19 -12,36 -34,52l-14 9c-23,16 -36,31 -39,46l87 0 0 25 -106 0z"/>
   <path class="fil1" d="M2169 1649c0,-39 14,-72 42,-99 27,-28 60,-42 99,-42 39,0 72,14 100,42 27,27 41,60 41,99 0,39 -14,72 -41,100 -28,27 -61,41 -100,41 -39,0 -72,-14 -99,-41 -28,-28 -42,-61 -42,-100zm19 0c0,34 12,63 36,86 24,24 52,36 86,36 34,0 62,-12 86,-36 24,-23 36,-52 36,-86 0,-34 -12,-62 -36,-86 -24,-24 -52,-36 -86,-36 -34,0 -62,12 -86,36 -24,24 -36,52 -36,86zm77 88l0 -35 14 0 0 5c1,10 2,16 5,18 7,4 15,6 25,6 10,0 18,-4 25,-11 6,-8 9,-18 9,-30 0,-13 -4,-23 -12,-30 -7,-6 -19,-10 -35,-10l-15 0 0 -12 8 0c17,0 29,-3 37,-9 9,-6 13,-15 13,-27 0,-11 -3,-19 -8,-24 -5,-6 -13,-9 -24,-9 -11,0 -18,2 -21,4 -3,2 -5,8 -5,18l-1 4 -14 0 0 -31c13,-4 27,-7 43,-7 18,0 31,4 40,11 9,7 13,17 13,31 0,10 -2,19 -7,26 -5,7 -13,13 -23,18 12,3 21,8 27,16 6,8 9,18 9,30 0,16 -5,30 -16,39 -10,10 -25,15 -43,15 -17,0 -32,-2 -44,-6z"/>
   <path class="fil1" d="M4816 3485c0,-39 14,-72 41,-100 28,-27 61,-41 100,-41 39,0 72,14 100,41 27,28 41,61 41,100 0,39 -14,72 -41,100 -28,27 -61,41 -100,41 -39,0 -72,-14 -100,-41 -27,-28 -41,-61 -41,-100zm19 0c0,34 12,63 36,86 23,24 52,36 86,36 34,0 62,-12 86,-36 24,-23 36,-52 36,-86 0,-34 -12,-62 -36,-86 -24,-24 -52,-36 -86,-36 -34,0 -63,12 -86,36 -24,24 -36,52 -36,86zm125 38l-81 0 0 -15 88 -115 14 0 0 108 23 0 0 22 -23 0 0 17c0,10 0,16 2,17 1,1 7,3 18,3l2 0 0 12 -68 0 0 -12 1 0c8,0 13,0 14,0 4,0 7,-2 8,-4 1,-3 2,-8 2,-16l0 -17zm-63 -22l63 0 0 -81 -63 81z"/>
   <path class="fil1" d="M4991 827c0,-39 14,-72 41,-100 27,-27 61,-41 100,-41 39,0 72,14 99,41 28,28 41,61 41,100 0,39 -13,72 -41,99 -27,28 -60,42 -99,42 -39,0 -73,-14 -100,-42 -27,-27 -41,-60 -41,-99zm18 0c0,34 12,62 36,86 24,24 53,36 87,36 33,0 62,-12 86,-36 24,-24 36,-52 36,-86 0,-34 -12,-63 -36,-86 -24,-24 -53,-36 -86,-36 -34,0 -63,12 -87,36 -24,23 -36,52 -36,86zm80 90l0 -34 14 0 0 5c0,8 1,14 4,17 3,2 9,4 17,4 12,0 21,-4 27,-11 6,-8 9,-19 9,-33 0,-17 -5,-28 -15,-34 -11,-7 -28,-10 -54,-10l0 -81 89 0 0 24 -77 0 0 44 7 0c25,0 44,5 56,14 13,10 19,24 19,43 0,18 -6,31 -18,41 -11,10 -27,15 -48,15 -9,0 -19,-2 -30,-4z"/>
   <path class="fil1" d="M3593 1236l50 -25 5 0 0 175c0,11 1,18 2,21 1,3 3,5 6,7 3,1 9,2 18,2l0 6 -78 0 0 -6c10,0 16,-1 19,-2 3,-2 5,-4 6,-6 1,-3 2,-10 2,-22l0 -112c0,-15 -1,-25 -2,-29 0,-3 -2,-6 -3,-7 -2,-2 -5,-2 -7,-2 -4,0 -9,1 -16,4l-2 -4z"/>
   <path class="fil1" d="M3679 3273l-15 40 -121 0 0 -5c36,-33 61,-60 75,-80 15,-21 22,-40 22,-57 0,-13 -4,-24 -12,-32 -8,-9 -17,-13 -29,-13 -10,0 -19,3 -27,9 -8,6 -14,14 -18,26l-5 0c2,-19 9,-33 19,-43 11,-10 24,-15 40,-15 16,0 30,5 42,16 11,11 16,23 16,38 0,10 -2,21 -7,31 -7,17 -20,34 -36,53 -26,27 -41,44 -47,49l53 0c11,0 19,0 23,-1 4,-1 8,-3 12,-5 3,-3 6,-6 9,-11l6 0z"/>
  </g>
 </g>
</svg>
