<?xml version="1.0" encoding="UTF-8"?>
<!DOCTYPE svg PUBLIC "-//W3C//DTD SVG 1.1//EN" "http://www.w3.org/Graphics/SVG/1.1/DTD/svg11.dtd">
<!-- Creator: CorelDRAW Home & Student X8 -->
<svg xmlns="http://www.w3.org/2000/svg" xml:space="preserve" width="86.9286mm" height="48.6284mm" version="1.1" style="shape-rendering:geometricPrecision; text-rendering:geometricPrecision; image-rendering:optimizeQuality; fill-rule:evenodd; clip-rule:evenodd"
viewBox="0 0 3909 2187"
 xmlns:xlink="http://www.w3.org/1999/xlink">
 <defs>
  <style type="text/css">
   <![CDATA[
    .fil0 {fill:#2B2A29;fill-rule:nonzero}
   ]]>
  </style>
 </defs>
 <g id="Warstwa_x0020_1">
  <metadata id="CorelCorpID_0Corel-Layer"/>
  <g id="_595731704">
   <path class="fil0" d="M568 484l77 196 42 -146c3,-12 5,-21 5,-28 0,-5 -2,-8 -5,-11 -3,-2 -9,-4 -18,-4 -1,0 -3,0 -4,0l2 -7 81 0 -3 7c-8,0 -14,1 -18,3 -6,2 -11,6 -13,10 -4,6 -8,16 -12,30l-60 208 -6 0 -83 -212 -45 157c-3,12 -5,21 -5,27 0,5 1,8 4,11 3,2 11,4 22,5l-2 7 -80 0 3 -7c10,0 16,-1 20,-3 5,-2 9,-4 11,-7 4,-5 8,-15 12,-29l52 -179c-5,-8 -10,-13 -16,-16 -5,-3 -14,-5 -25,-5l2 -7 62 0z"/>
   <path id="1" class="fil0" d="M812 822l-95 0 0 -5c48,-42 80,-75 95,-99 7,-11 11,-22 11,-35 0,-9 -3,-17 -9,-23 -6,-6 -14,-9 -23,-9 -13,0 -24,6 -32,19l-5 -3c4,-12 11,-21 20,-28 10,-6 19,-10 30,-10 12,0 22,4 30,13 8,8 13,18 13,30 0,8 -2,15 -5,22 -4,11 -13,23 -25,37 -18,21 -42,44 -72,71l47 0c8,0 14,-2 19,-5 5,-3 9,-7 11,-12l5 0 -15 37z"/>
   <g>
    <g>
     <path class="fil0" d="M529 1473l-518 0 0 -22 518 0 11 11 -11 11zm0 -22l11 0 0 11 -11 -11zm-12 528l0 -517 23 0 0 517 -11 12 -12 -12zm23 0l0 12 -11 0 11 -12zm-529 -11l518 0 0 23 -518 0 -11 -12 11 -11zm0 23l-11 0 0 -12 11 12zm11 -529l0 517 -22 0 0 -517 11 -11 11 11zm-22 0l0 -11 11 0 -11 11z"/>
    </g>
    <path class="fil0" d="M247 1638l51 -25 5 0 0 178c0,12 1,19 2,22 1,3 3,5 6,6 3,2 9,3 19,3l0 6 -79 0 0 -6c10,0 16,-1 19,-2 3,-2 5,-4 6,-6 1,-3 2,-11 2,-23l0 -114c0,-15 -1,-25 -2,-29 -1,-4 -2,-6 -4,-8 -2,-1 -4,-2 -7,-2 -4,0 -9,2 -16,5l-2 -5z"/>
   </g>
   <g id="_595723568">
    <path class="fil0" d="M999 1532l0 48 -5 0c-4,-15 -9,-25 -16,-31 -6,-5 -13,-8 -23,-8 -7,0 -13,2 -17,6 -5,4 -7,8 -7,13 0,5 2,10 5,15 3,4 10,8 19,13l23 11c21,10 31,24 31,40 0,13 -4,24 -14,32 -10,8 -21,11 -33,11 -9,0 -19,-1 -30,-4 -3,-1 -6,-2 -8,-2 -2,0 -4,2 -6,4l-5 0 0 -51 5 0c3,15 9,26 17,33 8,8 17,11 27,11 7,0 13,-2 18,-6 4,-4 7,-9 7,-15 0,-7 -3,-13 -8,-18 -5,-5 -15,-11 -30,-18 -15,-8 -25,-14 -29,-20 -5,-6 -7,-14 -7,-23 0,-11 4,-21 12,-29 8,-8 18,-12 31,-12 5,0 12,1 20,4 5,1 9,2 10,2 2,0 3,0 4,-1 1,-1 2,-2 4,-5l5 0z"/>
    <path id="1" class="fil0" d="M1212 1463l4 72 -4 0c-7,-22 -16,-37 -28,-47 -12,-9 -26,-14 -42,-14 -14,0 -27,4 -38,11 -11,7 -20,18 -27,34 -6,15 -9,35 -9,58 0,19 3,35 9,49 6,14 15,25 27,32 13,8 26,11 42,11 14,0 26,-2 36,-8 10,-6 22,-18 34,-35l5 3c-10,19 -23,32 -37,41 -14,9 -30,13 -50,13 -34,0 -61,-13 -80,-39 -15,-19 -22,-42 -22,-68 0,-21 5,-40 14,-57 10,-18 23,-32 39,-41 16,-10 34,-15 54,-15 15,0 30,4 45,11 4,3 7,4 9,4 3,0 5,-1 7,-3 3,-3 5,-7 6,-12l6 0z"/>
    <path id="2" class="fil0" d="M1377 1638l-14 40 -124 0 0 -5c36,-34 62,-61 77,-82 15,-21 22,-40 22,-58 0,-13 -4,-24 -12,-32 -8,-9 -18,-13 -29,-13 -11,0 -20,3 -28,9 -8,6 -14,14 -18,26l-6 0c2,-19 9,-34 20,-44 10,-10 24,-15 40,-15 17,0 31,5 43,16 11,11 17,24 17,39 0,11 -3,21 -8,32 -7,17 -20,34 -37,53 -26,28 -41,45 -48,51l55 0c11,0 19,-1 23,-2 4,-1 9,-2 12,-5 4,-2 7,-6 9,-10l6 0z"/>
    <g>
     <path class="fil0" d="M1434 1573l14 0 0 0 0 17 -2 16 -2 16 -2 15 -4 16 -4 15 -5 14 -6 15 -6 14 -7 14 -8 13 -8 13 -9 12 -9 12 -10 12 -11 11 -11 10 -11 10 -12 10 -13 8 -13 9 -13 7 -14 7 -14 7 -14 5 -15 5 -15 5 -15 3 -16 3 -16 2 -16 1 -16 1 0 -14 15 0 16 -2 15 -1 15 -3 15 -4 14 -4 14 -4 14 -6 13 -6 14 -7 12 -7 13 -8 11 -8 12 -9 11 -10 11 -10 10 -10 9 -11 9 -12 9 -12 8 -12 7 -13 7 -13 6 -13 5 -14 5 -14 4 -15 3 -14 3 -15 2 -16 1 -15 0 -16 0 0zm-303 -303l0 -14 0 0 16 1 16 1 16 2 16 3 15 3 15 4 15 5 14 6 14 6 14 7 13 8 13 8 13 9 12 10 11 10 11 10 11 11 10 12 9 12 9 12 8 13 8 13 7 14 6 14 6 14 5 15 4 15 4 15 2 16 2 16 2 16 0 16 -14 0 0 -15 -1 -16 -2 -15 -3 -15 -3 -15 -4 -14 -5 -14 -5 -14 -6 -13 -7 -13 -7 -13 -8 -12 -9 -12 -9 -12 -9 -11 -10 -10 -11 -10 -11 -10 -12 -9 -11 -9 -13 -7 -12 -8 -14 -6 -13 -7 -14 -5 -14 -5 -14 -4 -15 -3 -15 -3 -15 -2 -16 -1 -15 0 0 0zm-304 303l-13 0 0 0 0 -16 1 -16 2 -16 3 -16 4 -15 4 -15 5 -15 5 -14 7 -14 7 -14 7 -13 9 -13 9 -12 9 -12 10 -12 10 -11 11 -10 12 -10 12 -10 12 -9 13 -8 14 -8 13 -7 14 -6 15 -6 14 -5 15 -4 16 -3 15 -3 16 -2 16 -1 17 -1 0 14 -16 0 -15 1 -15 2 -15 3 -15 3 -15 4 -14 5 -13 5 -14 7 -13 6 -13 8 -12 7 -12 9 -11 9 -11 10 -11 10 -10 10 -10 11 -9 12 -8 12 -8 12 -7 13 -7 13 -6 13 -6 14 -4 14 -4 14 -4 15 -2 15 -2 15 -2 16 0 15 0 0zm304 304l0 14 0 0 -17 -1 -16 -1 -16 -2 -15 -3 -16 -3 -15 -5 -14 -5 -15 -5 -14 -7 -13 -7 -14 -7 -13 -9 -12 -8 -12 -10 -12 -10 -11 -10 -10 -11 -10 -12 -9 -12 -9 -12 -9 -13 -7 -13 -7 -14 -7 -14 -5 -15 -5 -14 -4 -15 -4 -16 -3 -15 -2 -16 -1 -16 0 -17 13 0 0 16 2 15 2 16 2 15 4 14 4 15 4 14 6 14 6 13 7 13 7 13 8 12 8 12 9 12 10 11 10 10 11 10 11 10 11 9 12 8 12 8 13 7 13 7 14 6 13 6 14 4 15 4 15 4 15 3 15 1 15 2 16 0 0 0z"/>
    </g>
   </g>
   <g>
    <path class="fil0" d="M2009 1304l-56 0 -72 -98c-5,0 -9,0 -12,0 -2,0 -3,0 -5,0 -1,0 -3,0 -4,0l0 61c0,13 1,21 4,25 4,4 10,6 18,6l8 0 0 6 -90 0 0 -6 8 0c9,0 15,-3 19,-8 2,-3 3,-11 3,-23l0 -136c0,-13 -2,-22 -4,-25 -4,-4 -10,-7 -18,-7l-8 0 0 -5 76 0c23,0 39,1 50,5 10,3 19,9 27,18 7,8 11,19 11,31 0,13 -4,24 -13,34 -8,9 -21,16 -39,20l43 60c10,14 19,23 26,28 7,4 16,7 28,8l0 6zm-149 -108c2,0 3,0 5,0 1,0 2,0 3,0 20,0 35,-4 45,-13 10,-9 15,-20 15,-33 0,-13 -4,-24 -12,-32 -8,-8 -19,-13 -32,-13 -6,0 -14,1 -24,3l0 88z"/>
    <path id="1" class="fil0" d="M2151 1263l-14 41 -124 0 0 -6c36,-33 62,-60 77,-81 15,-21 22,-40 22,-58 0,-13 -4,-24 -12,-33 -8,-8 -18,-13 -30,-13 -10,0 -19,3 -27,9 -9,6 -15,15 -19,27l-5 0c2,-19 9,-34 20,-44 10,-10 24,-15 40,-15 17,0 31,5 42,16 12,11 18,24 18,39 0,10 -3,21 -8,32 -7,16 -20,34 -37,53 -26,28 -42,45 -48,50l55 0c11,0 18,0 23,-1 4,-1 8,-2 12,-5 4,-3 7,-6 9,-11l6 0z"/>
    <g>
     <path class="fil0" d="M2270 1199l14 0 0 0 -1 16 -1 16 -2 16 -3 16 -3 15 -5 15 -5 15 -5 15 -7 14 -7 13 -7 14 -9 12 -8 13 -10 12 -10 11 -10 11 -11 11 -12 10 -12 9 -12 9 -13 8 -13 8 -14 7 -14 6 -15 6 -14 5 -15 4 -16 4 -15 3 -16 2 -16 1 -17 0 0 -13 16 -1 15 -1 16 -2 15 -2 14 -4 15 -4 14 -5 14 -5 13 -6 13 -7 13 -7 12 -8 12 -9 12 -9 11 -9 10 -10 10 -11 10 -11 9 -11 8 -12 8 -12 7 -13 7 -13 6 -14 6 -14 4 -14 4 -14 4 -15 3 -15 1 -15 2 -15 0 -16 0 0zm-304 -304l0 -13 0 0 17 0 16 1 16 2 15 3 16 4 15 4 14 5 15 6 14 6 14 7 13 8 13 8 12 9 12 9 12 10 11 11 10 11 10 11 10 12 8 13 9 13 7 13 7 14 7 14 5 14 5 15 5 15 3 15 3 16 2 16 1 16 1 16 -14 0 0 -16 -2 -15 -1 -15 -3 -15 -4 -15 -4 -14 -4 -14 -6 -14 -6 -14 -7 -13 -7 -12 -8 -13 -8 -12 -9 -11 -10 -11 -10 -11 -10 -10 -11 -9 -12 -9 -12 -9 -12 -8 -13 -7 -13 -7 -13 -6 -14 -5 -14 -5 -15 -4 -14 -3 -15 -3 -16 -2 -15 -1 -16 -1 0 0zm-303 304l-14 0 0 0 1 -16 1 -16 2 -16 3 -16 3 -15 4 -15 5 -15 6 -14 6 -14 7 -14 8 -13 8 -13 9 -13 10 -12 10 -11 10 -11 11 -11 12 -10 12 -9 12 -9 13 -8 13 -8 14 -7 14 -6 14 -6 15 -5 15 -4 15 -4 16 -3 16 -2 16 -1 16 0 0 13 -15 1 -16 1 -15 2 -15 3 -15 3 -14 4 -14 5 -14 5 -13 6 -13 7 -13 7 -12 8 -12 9 -12 9 -11 9 -10 10 -10 11 -10 11 -9 11 -9 12 -7 13 -8 12 -6 13 -7 14 -5 14 -5 14 -4 14 -3 15 -3 15 -2 15 -1 15 0 16 0 0zm303 304l0 13 0 0 -16 0 -16 -1 -16 -2 -16 -3 -15 -4 -15 -4 -15 -5 -14 -6 -14 -6 -14 -7 -13 -8 -13 -8 -12 -9 -12 -9 -12 -10 -11 -11 -10 -11 -10 -11 -10 -12 -9 -13 -8 -12 -8 -14 -7 -13 -6 -14 -6 -15 -5 -15 -4 -15 -3 -15 -3 -16 -2 -16 -1 -16 -1 -16 14 0 0 16 1 15 2 15 3 15 3 15 4 14 5 14 5 14 7 14 6 13 8 13 7 12 9 12 9 11 10 11 10 11 10 10 11 9 12 9 12 9 12 8 13 7 13 7 13 6 14 5 14 5 14 4 15 4 15 2 15 2 16 1 15 1 0 0z"/>
    </g>
   </g>
   <g>
    <path class="fil0" d="M2638 539l0 48 -5 0c-4,-15 -9,-25 -16,-31 -6,-5 -13,-8 -23,-8 -7,0 -13,2 -17,6 -5,4 -7,8 -7,12 0,6 2,11 5,15 3,5 10,9 19,14l23 11c21,10 31,24 31,40 0,13 -4,24 -14,31 -10,8 -21,12 -33,12 -9,0 -19,-1 -30,-4 -3,-1 -6,-2 -8,-2 -2,0 -4,2 -6,4l-5 0 0 -51 5 0c3,15 9,26 17,33 8,7 17,11 27,11 7,0 13,-2 18,-6 4,-4 7,-9 7,-15 0,-7 -3,-13 -8,-18 -5,-5 -15,-11 -30,-19 -15,-7 -25,-14 -29,-20 -5,-6 -7,-13 -7,-22 0,-12 4,-21 12,-29 8,-8 18,-12 31,-12 5,0 12,1 20,4 5,1 9,2 10,2 2,0 3,0 4,-1 1,-1 2,-3 4,-5l5 0z"/>
    <path id="1" class="fil0" d="M2851 470l4 71 -4 0c-7,-21 -16,-36 -28,-46 -12,-9 -26,-14 -42,-14 -14,0 -27,4 -38,11 -11,7 -20,18 -27,34 -6,15 -9,34 -9,57 0,20 3,36 9,50 6,14 15,25 27,32 13,8 26,11 42,11 14,0 26,-3 36,-8 10,-6 22,-18 34,-35l5 3c-10,19 -23,32 -37,41 -14,9 -30,13 -50,13 -34,0 -61,-13 -80,-39 -15,-19 -22,-42 -22,-68 0,-21 5,-40 14,-58 10,-17 23,-31 39,-40 16,-10 34,-15 54,-15 15,0 30,4 45,11 4,2 7,4 9,4 3,0 5,-1 7,-3 3,-3 5,-7 6,-12l6 0z"/>
    <path id="2" class="fil0" d="M2908 495l51 -24 5 0 0 177c0,12 1,19 2,22 1,3 3,5 6,7 3,1 10,2 19,2l0 6 -79 0 0 -6c10,0 16,-1 19,-2 3,-2 5,-4 6,-6 1,-3 2,-10 2,-23l0 -114c0,-15 -1,-25 -2,-29 0,-3 -2,-6 -4,-7 -2,-2 -4,-3 -7,-3 -4,0 -9,2 -16,5l-2 -5z"/>
    <g>
     <path class="fil0" d="M3074 580l13 0 0 0 0 16 -2 17 -2 15 -2 16 -4 15 -4 15 -5 15 -6 15 -6 14 -7 13 -8 14 -8 12 -9 13 -9 12 -10 11 -11 11 -11 11 -11 10 -12 9 -13 9 -13 8 -13 8 -14 7 -14 6 -14 6 -15 5 -15 4 -15 4 -16 3 -16 2 -16 1 -16 0 0 -13 15 -1 16 -1 15 -2 15 -2 15 -4 14 -4 14 -5 14 -5 13 -6 14 -7 12 -7 13 -8 12 -9 11 -9 11 -9 11 -10 10 -11 9 -11 9 -11 9 -12 8 -12 7 -13 7 -13 6 -14 5 -13 5 -15 4 -14 3 -15 3 -15 2 -15 1 -15 1 -16 0 0zm-304 -304l0 -13 0 0 16 0 16 2 16 2 16 2 15 4 15 4 15 5 14 6 14 6 14 7 13 8 13 8 13 9 12 9 11 10 11 11 11 11 10 11 9 12 9 13 8 13 8 13 7 14 6 14 6 14 5 15 4 15 4 15 2 16 2 16 2 16 0 16 -13 0 -1 -16 -1 -15 -2 -15 -3 -15 -3 -15 -4 -14 -5 -14 -5 -14 -6 -14 -7 -13 -7 -12 -8 -13 -9 -12 -9 -11 -9 -11 -10 -11 -11 -10 -11 -9 -11 -9 -12 -9 -13 -8 -12 -7 -14 -7 -13 -6 -14 -5 -14 -5 -14 -4 -15 -3 -15 -3 -15 -2 -16 -1 -15 -1 0 0zm-304 304l-13 0 0 0 0 -16 1 -16 2 -16 3 -16 4 -15 4 -15 5 -15 6 -14 6 -14 7 -14 8 -13 8 -13 9 -13 9 -12 10 -11 10 -11 12 -11 11 -10 12 -9 12 -9 13 -8 14 -8 13 -7 14 -6 15 -6 14 -5 16 -4 15 -4 15 -2 16 -2 16 -2 17 0 0 13 -16 1 -15 1 -15 2 -15 3 -15 3 -15 4 -14 5 -13 5 -14 6 -13 7 -13 7 -12 8 -12 9 -11 9 -11 9 -11 10 -10 11 -10 11 -9 11 -8 12 -8 13 -7 12 -7 13 -6 14 -5 14 -5 14 -4 14 -4 15 -2 15 -2 15 -2 15 0 16 0 0zm304 304l0 13 0 0 -17 0 -16 -1 -16 -2 -15 -3 -15 -4 -16 -4 -14 -5 -15 -6 -14 -6 -13 -7 -14 -8 -13 -8 -12 -9 -12 -9 -11 -10 -12 -11 -10 -11 -10 -11 -9 -12 -9 -13 -8 -12 -8 -14 -7 -13 -6 -14 -6 -15 -5 -15 -4 -15 -4 -15 -3 -16 -2 -15 -1 -17 0 -16 13 0 0 16 2 15 2 15 2 15 4 15 4 14 5 15 5 13 6 14 7 13 7 13 8 12 8 12 9 11 10 11 10 11 11 10 11 9 11 9 12 9 12 8 13 7 13 7 14 6 13 5 14 5 15 4 15 4 15 2 15 2 15 1 16 1 0 0z"/>
    </g>
   </g>
   <g>
    <path class="fil0" d="M3638 1502l-56 0 -72 -99c-5,1 -9,1 -12,1 -1,0 -3,0 -4,0 -2,-1 -3,-1 -5,-1l0 62c0,13 1,21 4,24 4,5 10,7 18,7l8 0 0 6 -90 0 0 -6 8 0c9,0 15,-3 19,-9 2,-3 3,-10 3,-22l0 -137c0,-13 -1,-21 -4,-24 -4,-5 -10,-7 -18,-7l-8 0 0 -6 77 0c22,0 38,2 49,5 11,3 20,9 27,18 7,9 11,19 11,31 0,13 -4,25 -13,34 -8,10 -21,16 -39,20l44 61c10,13 18,23 25,27 7,5 17,8 28,9l0 6zm-149 -109c2,0 4,0 5,1 1,0 3,0 3,0 20,0 35,-5 45,-13 10,-9 15,-20 15,-34 0,-13 -4,-23 -12,-32 -8,-8 -19,-12 -32,-12 -6,0 -14,1 -24,3l0 87z"/>
    <path id="1" class="fil0" d="M3672 1312l51 -25 5 0 0 178c0,11 1,19 2,22 1,3 3,5 6,6 3,2 10,3 19,3l0 6 -79 0 0 -6c10,0 16,-1 19,-3 3,-1 5,-3 6,-6 1,-2 2,-10 2,-22l0 -114c0,-15 -1,-25 -2,-29 -1,-4 -2,-6 -4,-8 -2,-1 -4,-2 -7,-2 -4,0 -9,1 -16,5l-2 -5z"/>
    <g>
     <path class="fil0" d="M3896 1394l13 0 0 0 0 17 -1 16 -2 16 -3 15 -4 16 -4 15 -5 15 -6 14 -6 14 -7 14 -8 13 -8 13 -9 12 -9 12 -10 12 -11 11 -11 10 -11 10 -12 10 -13 8 -12 9 -14 7 -13 7 -14 7 -15 5 -15 5 -15 5 -15 3 -16 3 -16 2 -16 1 -16 1 0 -14 16 0 15 -1 15 -2 15 -3 15 -3 14 -4 14 -5 14 -6 14 -6 13 -6 13 -8 12 -8 12 -8 11 -9 11 -10 11 -10 10 -10 9 -11 9 -12 9 -12 8 -12 7 -13 7 -13 6 -13 5 -14 5 -14 4 -15 4 -14 2 -15 2 -15 1 -16 1 -16 0 0zm-304 -303l0 -14 0 0 16 1 16 1 16 2 16 3 15 3 15 5 15 4 15 6 14 7 13 7 14 7 12 8 13 9 12 10 11 10 11 10 11 11 10 12 9 12 9 12 8 13 8 13 7 14 6 14 6 14 5 15 4 15 4 16 3 15 2 16 1 16 0 16 -13 0 -1 -15 -1 -16 -2 -15 -2 -15 -4 -14 -4 -15 -5 -14 -5 -14 -6 -13 -7 -13 -7 -13 -8 -12 -9 -12 -9 -12 -9 -11 -10 -10 -11 -10 -11 -10 -11 -9 -12 -8 -12 -8 -13 -8 -13 -6 -14 -6 -14 -6 -14 -5 -14 -4 -15 -3 -15 -3 -15 -2 -15 -1 -16 0 0 0zm-304 303l-13 0 0 0 0 -16 1 -16 2 -16 3 -15 4 -16 4 -15 5 -15 6 -14 6 -14 7 -14 8 -13 8 -13 9 -12 9 -12 10 -12 11 -11 11 -10 11 -10 12 -10 13 -9 13 -8 13 -7 14 -7 14 -7 14 -6 15 -4 15 -5 15 -3 16 -3 16 -2 16 -1 16 -1 0 14 -16 0 -15 1 -15 2 -15 3 -15 3 -14 4 -14 5 -14 6 -14 6 -13 6 -12 8 -13 8 -12 8 -11 9 -11 10 -11 10 -10 10 -9 11 -9 12 -9 12 -8 12 -7 13 -7 13 -6 13 -5 14 -5 14 -4 15 -4 14 -2 15 -2 15 -1 16 -1 15 0 0zm304 304l0 14 0 0 -16 -1 -16 -1 -16 -2 -16 -3 -15 -3 -15 -5 -15 -5 -14 -5 -14 -7 -14 -7 -13 -7 -13 -9 -13 -8 -12 -10 -11 -10 -11 -10 -11 -11 -10 -12 -9 -12 -9 -12 -8 -13 -8 -13 -7 -14 -6 -14 -6 -14 -5 -15 -4 -15 -4 -16 -3 -15 -2 -16 -1 -16 0 -17 13 0 1 16 1 16 2 15 2 15 4 14 4 15 5 14 5 14 6 13 7 13 7 13 8 12 9 12 9 12 9 11 10 10 11 10 11 10 11 9 12 8 13 8 12 8 13 6 14 6 14 6 14 5 14 4 15 3 15 3 15 2 15 1 16 0 0 0z"/>
    </g>
   </g>
   <g>
    <path class="fil0" d="M580 1696l241 -86 5 13 -242 85 -4 -12zm-51 25l89 -83 0 3 0 4 -1 3 0 3 0 3 0 4 1 3 0 3 0 3 1 3 0 3 1 3 0 3 1 3 1 3 1 2 1 3 1 3 1 3 2 2 1 3 2 3 1 2 2 3 2 3 1 2 2 3 2 2 2 2 3 3 2 2 2 3 0 0 -121 -8z"/>
   </g>
   <g>
    <path class="fil0" d="M1464 1420l218 -95 6 12 -218 96 -6 -13zm-49 29l84 -89 0 3 -1 4 1 3 0 3 0 3 0 4 1 3 0 3 1 3 0 3 1 3 1 3 1 2 1 3 1 3 1 3 1 3 1 2 2 3 1 3 2 2 2 3 1 2 2 3 2 2 2 2 2 3 2 2 3 2 2 3 3 2 2 2 0 0 -122 1z"/>
   </g>
   <g>
    <path class="fil0" d="M2289 1031l281 -215 9 11 -281 214 -9 -10zm-40 39l60 -106 0 3 1 4 1 3 1 3 1 3 1 3 1 3 1 3 1 2 2 3 1 3 2 2 1 3 2 3 1 2 2 2 2 3 2 2 2 2 2 3 2 2 3 2 2 2 2 2 3 2 2 1 3 2 2 2 3 2 3 1 3 2 3 1 0 0 -118 30z"/>
   </g>
   <g>
    <path class="fil0" d="M3697 731l0 1 0 2 -1 1 0 2 -1 1 -1 2 -1 1 -1 1 0 2 -1 1 -1 1 -1 1 -2 1 -1 1 -1 1 -1 1 -2 1 -1 1 -1 0 -2 1 -1 0 -2 1 -1 0 -2 1 -1 0 -2 0 -1 0 -2 0 -1 0 -2 0 -2 0 -1 0 0 0 -2 -1 -1 0 -2 -1 -1 0 -2 -1 -1 -1 -2 0 -1 -1 -1 -1 -1 -1 -2 -1 -1 -1 -1 -1 -1 -2 -1 -1 -1 -1 0 -1 -1 -2 -1 -1 0 -2 -1 -1 0 -1 -1 -2 0 -1 0 -2 -1 -2 0 -1 0 -2 0 -1 0 -2 1 -1 0 -2 0 0 0 -2 1 -1 0 -2 1 -1 0 -2 1 -1 1 -1 1 -2 1 -1 1 -1 1 -1 1 -1 1 -2 1 -1 1 0 2 -1 1 -1 1 -1 2 -1 1 0 1 -1 2 0 1 -1 2 0 1 0 2 0 2 -1 1 0 2 0 1 1 2 0 2 0 0 0 1 0 2 1 1 0 2 1 1 1 2 0 1 1 1 1 2 1 1 1 1 1 1 1 1 1 1 1 1 2 1 1 1 1 0 1 1 2 1 1 0 2 1 1 0 2 1 1 0 2 0 1 0 2 0 1 0 2 0 2 0 1 -1 2 0 0zm-100 297l63 -305 13 3 -63 304 -13 -2zm-5 56l-24 -119 2 2 3 2 3 1 2 2 3 2 3 1 3 2 2 1 3 2 3 1 3 1 3 1 2 1 3 1 3 0 3 1 3 1 3 0 3 1 3 0 3 0 3 0 3 0 3 0 3 0 4 0 3 -1 3 0 3 -1 3 0 3 -1 4 -1 0 0 -70 100z"/>
   </g>
   <g>
    <path class="fil0" d="M646 886l-1 1 -1 2 0 1 -1 1 -1 1 -1 2 -1 1 -2 1 -1 1 -1 1 -1 1 -2 0 -1 1 -1 1 -2 1 -1 0 -2 1 -1 0 -2 0 -1 1 -2 0 -1 0 -2 0 -1 0 -2 0 -1 0 -2 -1 -2 0 -1 0 -2 -1 -1 0 -2 -1 0 0 -1 -1 -1 -1 -2 -1 -1 0 -1 -1 -2 -2 -1 -1 -1 -1 -1 -1 -1 -1 -1 -1 0 -2 -1 -1 -1 -1 0 -2 -1 -1 0 -2 -1 -1 0 -2 0 -1 -1 -2 0 -1 0 -2 0 -1 0 -2 0 -2 1 -1 0 -2 1 -1 0 -2 1 -1 0 -2 0 0 1 -1 1 -2 1 -1 1 -1 1 -2 1 -1 1 -1 1 -1 1 -1 1 -1 2 -1 1 -1 1 0 2 -1 1 -1 1 0 2 -1 1 0 2 0 1 -1 2 0 1 0 2 0 2 0 1 0 2 0 1 1 2 0 1 0 2 1 1 0 2 1 0 0 1 1 2 1 1 1 1 0 2 1 1 1 1 2 1 1 1 1 1 1 1 1 1 2 0 1 1 1 1 2 0 1 1 2 0 1 0 2 1 1 0 2 0 1 0 2 0 1 0 2 0 2 0 1 -1 2 0 1 -1 2 0 1 -1 2 0 0zm-291 522l256 -539 12 6 -256 539 -12 -6zm-18 54l4 -122 2 3 3 2 2 3 2 2 2 2 2 3 3 2 2 2 3 2 2 1 2 2 3 2 3 1 2 2 3 1 3 2 2 1 3 1 3 1 3 1 3 1 3 1 2 1 3 0 4 1 3 0 3 1 3 0 3 0 3 0 4 0 3 0 0 0 -91 81z"/>
   </g>
   <g>
    <path class="fil0" d="M2161 425l-1 1 0 2 -1 1 -1 2 -1 1 -1 1 -1 1 -1 2 -1 1 -1 1 -1 1 -1 1 -1 1 -2 1 -1 0 -1 1 -2 1 -1 0 -2 1 -1 0 -2 1 -1 0 -2 0 -1 0 -2 0 -1 0 -2 0 -2 0 -1 0 -2 -1 -1 0 -2 0 0 0 -1 -1 -2 -1 -1 0 -2 -1 -1 -1 -1 -1 -2 -1 -1 -1 -1 -1 -1 -1 -1 -1 -1 -2 -1 -1 -1 -1 0 -1 -1 -2 -1 -1 0 -2 -1 -1 0 -2 -1 -1 0 -2 0 -1 0 -2 0 -1 0 -2 0 -1 0 -2 0 -1 0 -2 1 -2 0 -1 0 0 1 -2 1 -1 0 -2 1 -1 1 -1 1 -2 1 -1 1 -1 1 -1 1 -1 1 -1 1 -1 2 -1 1 -1 1 -1 2 0 1 -1 1 -1 2 0 1 -1 2 0 1 0 2 0 1 -1 2 0 2 0 1 0 2 1 1 0 2 0 1 1 2 0 0 0 2 1 1 0 2 1 1 1 1 1 2 1 1 0 1 2 1 1 1 1 1 1 1 1 1 1 1 2 1 1 0 1 1 2 1 1 0 2 0 1 1 2 0 1 0 2 0 1 1 2 0 1 -1 2 0 1 0 2 0 2 -1 1 0 2 0 0zm-183 408l146 -421 13 4 -146 422 -13 -5zm-12 56l-8 -122 2 2 2 3 3 2 2 2 3 2 2 2 3 2 2 1 3 2 3 2 2 1 3 2 3 1 2 1 3 1 3 1 3 1 3 1 3 1 3 0 3 1 3 0 3 1 3 0 3 0 3 1 3 0 3 0 3 -1 4 0 3 0 3 0 0 0 -82 90z"/>
   </g>
   <path class="fil0" d="M3672 328l2 -7 81 0c34,0 59,4 75,12 17,8 30,20 40,37 10,17 15,35 15,54 0,17 -3,33 -9,48 -5,16 -12,28 -19,38 -7,9 -18,19 -33,31 -14,11 -30,19 -48,25 -17,5 -38,8 -64,8l-107 0 3 -7c9,0 16,-1 19,-3 5,-2 9,-5 11,-8 4,-6 8,-16 12,-32l44 -152c4,-13 5,-22 5,-29 0,-5 -1,-8 -4,-11 -4,-3 -10,-4 -19,-4l-4 0zm65 7l-55 193c-4,13 -6,21 -6,24 0,1 1,3 2,5 2,1 3,3 6,3 3,1 8,2 15,2 20,0 39,-2 56,-6 17,-5 30,-11 41,-19 16,-11 28,-27 37,-47 9,-20 14,-44 14,-69 0,-30 -7,-51 -21,-65 -15,-15 -35,-22 -62,-22 -7,0 -16,0 -27,1z"/>
   <polygon class="fil0" points="2063,157 2055,182 1959,182 1967,157 "/>
   <path id="1" class="fil0" d="M2185 0l77 196 42 -146c4,-12 5,-22 5,-28 0,-5 -1,-8 -5,-11 -3,-3 -9,-4 -18,-4 -1,0 -3,0 -4,0l2 -7 81 0 -2 7c-9,0 -15,1 -19,2 -6,3 -10,6 -13,10 -4,6 -8,17 -12,31l-60 208 -5 0 -84 -212 -45 157c-3,11 -5,21 -5,27 0,5 2,8 5,11 3,2 10,4 21,5l-2 6 -79 0 2 -6c10,-1 17,-1 20,-3 5,-2 9,-4 11,-8 4,-5 8,-14 13,-28l51 -179c-5,-8 -10,-13 -15,-16 -6,-3 -14,-5 -26,-5l2 -7 62 0z"/>
   <path id="2" class="fil0" d="M2449 145l-45 156c-3,10 -4,16 -4,20 0,4 1,6 4,8 2,2 8,3 16,4l-1 5 -72 0 2 -5c8,0 13,-1 15,-2 4,-2 7,-4 9,-7 3,-4 6,-11 9,-23l33 -112c2,-7 3,-11 3,-12 0,-1 0,-3 0,-5 0,-3 -1,-6 -2,-8 -2,-1 -5,-2 -8,-2 -2,0 -6,0 -11,1l-2 -5 47 -13 7 0z"/>
   <g>
    <path class="fil0" d="M2228 1975l-56 0 -72 -99c-5,1 -9,1 -12,1 -2,0 -3,0 -4,0 -2,-1 -4,-1 -5,-1l0 62c0,13 1,21 4,24 4,5 10,7 18,7l8 0 0 6 -90 0 0 -6 8 0c9,0 15,-3 19,-9 2,-3 3,-11 3,-22l0 -137c0,-13 -1,-21 -4,-24 -4,-5 -10,-7 -18,-7l-8 0 0 -6 76 0c23,0 39,2 50,5 10,3 19,9 27,18 7,9 11,19 11,31 0,13 -4,25 -13,34 -8,10 -21,16 -39,20l44 61c10,13 18,23 25,27 7,5 17,8 28,9l0 6zm-149 -109c2,0 3,0 5,1 1,0 2,0 3,0 20,0 35,-5 45,-13 10,-9 15,-20 15,-34 0,-13 -4,-23 -12,-32 -8,-8 -19,-12 -32,-12 -6,0 -14,1 -24,3l0 87z"/>
    <path id="1" class="fil0" d="M2370 1934l-14 41 -124 0 0 -6c36,-33 62,-61 77,-82 15,-21 22,-40 22,-57 0,-14 -4,-25 -12,-33 -8,-9 -18,-13 -29,-13 -11,0 -20,3 -28,9 -9,6 -15,15 -19,26l-5 0c2,-19 9,-33 20,-44 10,-10 24,-15 40,-15 17,0 31,6 43,17 11,11 17,23 17,38 0,11 -3,22 -8,32 -7,17 -20,35 -37,53 -26,29 -42,45 -48,51l55 0c11,0 19,-1 23,-1 4,-1 8,-3 12,-5 4,-3 7,-7 9,-11l6 0z"/>
    <g>
     <path class="fil0" d="M2489 1870l14 0 0 0 -1 16 -1 16 -2 16 -3 16 -3 15 -5 15 -5 15 -5 14 -7 14 -7 14 -7 13 -9 13 -8 12 -10 12 -10 12 -10 11 -11 10 -12 10 -12 10 -12 9 -13 8 -13 8 -14 7 -14 6 -15 6 -14 5 -15 4 -16 3 -15 3 -16 2 -16 1 -17 1 0 -14 16 0 15 -1 16 -2 15 -3 14 -3 15 -4 14 -5 14 -6 13 -6 13 -6 13 -8 12 -8 12 -8 12 -9 11 -10 10 -10 10 -10 10 -11 9 -12 8 -12 8 -12 7 -13 7 -13 6 -13 6 -14 4 -14 5 -14 3 -15 3 -15 2 -15 1 -16 0 -15 0 0zm-304 -304l0 -14 0 0 17 1 16 1 16 2 15 3 16 3 15 5 14 5 15 5 14 7 14 7 13 7 13 9 12 8 12 10 12 10 11 10 10 11 10 12 10 12 8 12 9 13 7 13 7 14 7 14 5 15 5 14 5 15 3 16 3 15 2 16 1 16 1 17 -14 0 0 -16 -1 -15 -2 -16 -3 -15 -3 -14 -5 -15 -4 -14 -6 -14 -6 -13 -7 -13 -7 -13 -8 -12 -8 -12 -9 -12 -10 -11 -10 -10 -10 -10 -11 -10 -12 -9 -12 -8 -12 -8 -13 -7 -13 -7 -13 -6 -14 -6 -14 -4 -15 -5 -14 -3 -15 -3 -16 -2 -15 -1 -16 0 0 0zm-303 304l-14 0 0 0 1 -17 1 -16 2 -16 3 -15 3 -16 4 -15 5 -14 6 -15 7 -14 7 -14 7 -13 8 -13 9 -12 10 -12 10 -12 10 -11 11 -10 12 -10 12 -10 12 -8 13 -9 13 -7 14 -7 14 -7 14 -5 15 -5 15 -5 15 -3 16 -3 16 -2 16 -1 16 -1 0 14 -15 0 -16 1 -15 2 -15 3 -14 3 -15 5 -14 4 -14 6 -13 6 -13 7 -13 7 -12 8 -12 8 -12 9 -11 10 -10 10 -10 10 -10 11 -9 12 -8 12 -8 12 -8 13 -6 13 -6 13 -6 14 -5 14 -4 15 -3 14 -3 15 -2 16 -1 15 0 16 0 0zm303 303l0 14 0 0 -16 -1 -16 -1 -16 -2 -16 -3 -15 -3 -15 -4 -15 -5 -14 -6 -14 -6 -14 -7 -13 -8 -13 -8 -12 -9 -12 -10 -12 -10 -11 -10 -10 -11 -10 -12 -10 -12 -9 -12 -8 -13 -7 -13 -7 -14 -7 -14 -6 -14 -5 -15 -4 -15 -3 -15 -3 -16 -2 -16 -1 -16 -1 -16 14 0 0 15 1 16 2 15 3 15 3 15 4 14 5 14 6 14 6 13 6 13 8 13 8 12 8 12 9 12 10 11 10 10 10 10 11 10 12 9 12 8 12 8 13 8 13 6 13 6 14 6 14 5 15 4 14 3 15 3 15 2 16 1 15 0 0 0z"/>
    </g>
   </g>
   <g>
    <path class="fil0" d="M1486 1667l402 113 -4 13 -402 -113 4 -13zm-56 -9l120 -16 -2 2 -2 3 -2 3 -2 2 -2 3 -2 2 -1 3 -2 3 -1 2 -2 3 -1 3 -1 3 -1 2 -1 3 -1 3 -1 3 -1 3 -1 3 0 3 -1 3 0 3 0 3 -1 3 0 3 0 3 0 3 0 3 1 3 0 4 0 3 1 3 0 3 0 0 -94 -76z"/>
   </g>
   <g>
    <path class="fil0" d="M1912 2046l1 -14 13 1 -1 14 -13 -1zm-27 -1l1 -14 13 1 -1 13 -13 0zm-27 -1l1 -14 13 1 -1 13 -13 0zm-27 -2l1 -13 13 1 0 13 -14 -1zm-27 -1l1 -13 13 0 0 14 -14 -1zm-27 -1l1 -13 13 0 0 14 -14 -1zm-27 -1l1 -13 13 0 0 14 -14 -1zm-27 -1l1 -14 13 1 0 13 -14 0zm-27 -1l1 -14 13 1 0 13 -14 0zm-27 -1l1 -14 13 1 0 13 -14 0zm-27 -2l1 -13 13 0 0 14 -14 -1zm-27 -1l1 -13 13 0 0 14 -14 -1zm-27 -1l1 -13 14 0 -1 14 -14 -1zm-26 -1l0 -14 14 1 -1 13 -13 0zm-27 -1l0 -14 14 1 -1 13 -13 0zm-27 -1l0 -14 14 1 -1 13 -13 0zm-27 -2l0 -13 14 0 -1 14 -13 -1zm-27 -1l0 -13 14 0 -1 14 -13 -1zm-27 -1l0 -13 14 0 -1 14 -13 -1zm-27 -1l0 -14 14 1 -1 13 -13 0zm-27 -1l0 -14 14 1 -1 13 -13 0zm-27 -1l0 -14 14 1 -1 13 -13 0zm-27 -2l0 -13 14 0 -1 14 -13 -1zm-27 -1l1 -13 13 0 -1 14 -13 -1zm-27 -1l1 -13 13 0 -1 14 -13 -1zm-27 -1l1 -14 13 1 0 13 -14 0zm-27 -1l1 -14 13 1 0 13 -14 0zm-27 -1l1 -14 13 1 0 13 -14 0zm-27 -2l1 -13 13 0 0 14 -14 -1zm-27 -1l1 -13 13 0 0 14 -14 -1zm-27 -1l1 -13 13 0 0 14 -14 -1zm-27 -1l1 -14 13 1 0 13 -14 0zm-27 -1l1 -14 13 1 0 13 -14 0zm-27 -1l1 -14 13 1 0 13 -14 0zm-27 -2l1 -13 14 0 -1 14 -14 -1zm-27 -1l1 -13 14 0 -1 14 -14 -1zm-26 -1l0 -13 14 0 -1 14 -13 -1zm-27 -1l0 -14 14 1 -1 13 -13 0zm-27 -1l0 -14 14 1 -1 13 -13 0zm-27 -1l0 -14 14 1 -1 13 -13 0zm-27 -2l0 -13 14 0 -1 14 -13 -1zm-27 -1l0 -13 14 0 -1 14 -13 -1zm-27 -1l0 -13 14 0 -1 14 -13 -1zm-27 -1l0 -14 14 1 -1 13 -13 0zm-27 -1l0 -14 14 1 -1 13 -13 0zm-27 -2l0 -13 14 1 -1 13 -13 -1zm-27 -1l1 -13 13 0 -1 14 -13 -1zm-27 -1l1 -13 13 0 -1 14 -13 -1zm-27 -1l1 -14 13 1 -1 14 -13 -1zm-27 -1l1 -14 13 1 0 13 -14 0zm-62 -10l114 -43 -2 3 -1 3 -2 3 -1 3 -1 3 -1 3 -1 3 -1 3 -1 3 -1 3 -1 3 0 3 -1 3 0 3 0 3 0 3 -1 3 0 3 1 3 0 3 0 3 0 3 1 3 1 3 0 3 1 3 1 3 1 3 1 3 1 3 1 3 1 3 0 0 -109 -53z"/>
   </g>
   <g>
    <path class="fil0" d="M3041 823l449 274 -7 11 -449 -273 7 -12zm-52 -23l121 17 -3 2 -3 2 -3 2 -2 2 -3 2 -2 2 -2 2 -3 2 -2 2 -2 2 -2 3 -2 2 -2 2 -1 3 -2 2 -2 3 -1 2 -2 3 -1 3 -1 3 -1 2 -1 3 -2 3 0 3 -1 3 -1 3 -1 3 -1 3 0 3 -1 4 0 3 0 3 0 0 -71 -99z"/>
   </g>
   <g>
    <path class="fil0" d="M3344 1605l-3 -13 13 -3 3 13 -13 3zm-26 7l-3 -14 13 -3 3 13 -13 4zm-26 6l-4 -13 14 -4 3 14 -13 3zm-27 6l-3 -13 13 -3 3 13 -13 3zm-26 6l-3 -13 13 -3 3 13 -13 3zm-26 6l-3 -13 13 -3 3 13 -13 3zm-27 6l-3 -13 14 -3 3 13 -14 3zm-26 6l-3 -13 13 -3 3 13 -13 3zm-26 7l-3 -14 13 -3 3 13 -13 4zm-26 6l-3 -13 13 -4 3 14 -13 3zm-27 6l-3 -13 13 -3 3 13 -13 3zm-26 6l-3 -13 13 -3 3 13 -13 3zm-26 6l-3 -13 13 -3 3 13 -13 3zm-26 6l-4 -13 14 -3 3 13 -13 3zm-27 6l-3 -13 13 -3 3 13 -13 3zm-26 7l-3 -14 13 -3 3 13 -13 4zm-26 6l-3 -13 13 -4 3 14 -13 3zm-27 6l-3 -13 14 -3 3 13 -14 3zm-26 6l-3 -13 13 -3 3 13 -13 3zm-26 6l-3 -13 13 -3 3 13 -13 3zm-26 6l-3 -13 13 -3 3 13 -13 3zm-27 6l-3 -13 13 -3 4 13 -14 3zm-26 7l-3 -14 13 -3 3 13 -13 4zm-26 6l-3 -13 13 -4 3 14 -13 3zm-26 6l-4 -13 14 -3 3 13 -13 3zm-27 6l-3 -13 13 -3 3 13 -13 3zm-26 6l-3 -13 13 -3 3 13 -13 3zm-26 6l-3 -13 13 -3 3 13 -13 3zm-27 6l-3 -13 14 -3 3 13 -14 3zm-26 7l-3 -14 13 -3 3 13 -13 4zm-26 6l-3 -13 13 -4 3 14 -13 3zm-68 9l98 -73 -1 4 -1 3 0 3 -1 3 0 4 0 3 0 3 0 3 0 3 0 3 0 3 0 3 0 3 1 3 0 3 1 3 1 3 1 3 1 3 1 2 1 3 1 3 1 3 1 3 2 2 1 3 2 3 2 2 2 3 2 3 2 2 2 3 0 0 -120 -21z"/>
   </g>
  </g>
 </g>
</svg>
