<?xml version="1.0" encoding="UTF-8"?>
<!DOCTYPE svg PUBLIC "-//W3C//DTD SVG 1.1//EN" "http://www.w3.org/Graphics/SVG/1.1/DTD/svg11.dtd">
<!-- Creator: CorelDRAW Home & Student X8 -->
<svg xmlns="http://www.w3.org/2000/svg" xml:space="preserve" width="123.013mm" height="95.6968mm" version="1.1" style="shape-rendering:geometricPrecision; text-rendering:geometricPrecision; image-rendering:optimizeQuality; fill-rule:evenodd; clip-rule:evenodd"
viewBox="0 0 22522 17521"
 xmlns:xlink="http://www.w3.org/1999/xlink">
 <defs>
  <style type="text/css">
   <![CDATA[
    .str0 {stroke:#2B2A29;stroke-width:54.9258}
    .fil1 {fill:none}
    .fil0 {fill:#2B2A29;fill-rule:nonzero}
   ]]>
  </style>
 </defs>
 <g id="Warstwa_x0020_1">
  <metadata id="CorelCorpID_0Corel-Layer"/>
  <g id="_595746896">
   <g>
    <path class="fil0" d="M21165 16221l0 106c0,68 -9,142 -26,222l-108 0c12,-52 19,-88 22,-107 5,-59 8,-102 8,-130l0 -645c0,-75 8,-131 22,-167 15,-37 42,-67 81,-92 39,-24 85,-36 139,-36 75,0 135,20 180,60 45,41 68,89 68,144 0,36 -9,70 -28,102 -18,32 -46,60 -85,84 114,54 171,138 171,251 0,51 -12,98 -36,142 -23,43 -56,77 -97,100 -41,23 -83,34 -127,34 -28,0 -56,-5 -84,-14 -27,-10 -61,-28 -100,-54zm0 -50c40,28 76,49 106,61 23,10 46,14 69,14 42,0 78,-17 107,-52 28,-36 43,-91 43,-167 0,-48 -7,-90 -21,-126 -14,-36 -38,-76 -73,-119 -29,10 -54,15 -75,15 -24,0 -42,-4 -52,-12 -10,-7 -16,-16 -16,-24 0,-8 4,-15 12,-22 8,-6 21,-9 38,-9 21,0 52,5 93,16 29,-58 43,-113 43,-165 0,-53 -12,-94 -38,-123 -26,-29 -59,-44 -97,-44 -49,0 -86,21 -113,62 -18,28 -26,71 -26,132l0 563z"/>
    <path id="1" class="fil0" d="M21771 16001l146 -71 15 0 0 505c0,34 1,55 4,63 3,8 9,15 18,19 9,4 27,7 54,8l0 16 -226 0 0 -16c28,-1 46,-3 55,-8 9,-4 15,-11 18,-20 3,-6 4,-27 4,-62l0 -323c0,-43 -2,-71 -5,-84 -2,-9 -6,-16 -11,-20 -6,-5 -12,-7 -20,-7 -11,0 -26,4 -45,14l-7 -14z"/>
    <circle class="fil1 str0" cx="21520" cy="15960" r="975"/>
   </g>
   <path class="fil0" d="M20606 11927l312 797 171 -593c14,-49 21,-88 21,-115 0,-19 -6,-33 -19,-44 -13,-11 -38,-16 -74,-16 -6,0 -12,0 -18,-1l8 -28 330 0 -9 28c-35,0 -60,3 -77,11 -23,10 -41,24 -53,41 -16,23 -32,65 -49,124l-244 847 -21 0 -339 -865 -184 639c-14,49 -21,86 -21,112 0,19 6,33 19,43 12,10 41,16 88,20l-8 28 -325 0 11 -28c40,-1 67,-4 81,-9 20,-9 36,-20 46,-33 15,-20 31,-59 49,-117l210 -729c-20,-31 -41,-52 -63,-64 -23,-12 -57,-18 -105,-20l8 -28 255 0z"/>
   <path id="1" class="fil0" d="M21679 12518l-183 636c-10,38 -16,65 -16,82 0,14 5,24 15,32 9,7 32,12 67,15l-5 21 -292 0 8 -21c31,-1 51,-3 61,-7 16,-7 28,-16 36,-28 12,-17 25,-48 38,-94l132 -457c8,-27 12,-43 13,-47 1,-8 1,-15 1,-22 0,-13 -3,-24 -11,-31 -7,-8 -17,-11 -29,-11 -10,0 -25,2 -46,6l-7 -21 191 -53 27 0z"/>
   <g>
    <g>
     <path class="fil0" d="M10813 15414l-2107 0 0 -92 2107 0 46 46 -46 46zm0 -92l46 0 0 46 -46 -46zm-46 2153l0 -2107 92 0 0 2107 -46 46 -46 -46zm92 0l0 46 -46 0 46 -46zm-2153 -46l2107 0 0 92 -2107 0 -45 -46 45 -46zm0 92l-45 0 0 -46 45 46zm46 -2153l0 2107 -91 0 0 -2107 45 -46 46 46zm-91 0l0 -46 45 0 -45 46z"/>
    </g>
    <path class="fil0" d="M9665 16086l209 -101 21 0 0 722c0,48 2,78 6,90 4,12 13,21 25,27 13,6 39,10 78,11l0 23 -323 0 0 -23c40,-1 66,-4 78,-11 12,-6 20,-14 25,-24 4,-11 7,-42 7,-93l0 -462c0,-63 -2,-103 -7,-120 -3,-14 -8,-24 -16,-30 -8,-6 -17,-10 -28,-10 -16,0 -37,7 -65,20l-10 -19z"/>
   </g>
   <g id="_595746968">
    <path class="fil0" d="M13533 14654l0 196 -21 0c-16,-62 -36,-103 -61,-126 -25,-22 -57,-33 -95,-33 -29,0 -53,8 -71,23 -18,16 -27,33 -27,52 0,23 7,44 20,60 13,18 39,36 79,55l92 45c85,42 128,97 128,165 0,52 -20,95 -60,127 -39,32 -84,48 -133,48 -35,0 -76,-6 -121,-19 -14,-4 -25,-6 -34,-6 -10,0 -17,5 -23,16l-20 0 0 -207 20 0c12,59 34,104 68,134 33,30 70,44 112,44 28,0 52,-8 70,-25 19,-17 28,-38 28,-62 0,-28 -10,-53 -31,-73 -20,-19 -61,-44 -122,-74 -61,-30 -101,-58 -120,-82 -19,-24 -28,-54 -28,-91 0,-48 16,-87 49,-119 32,-33 74,-48 126,-48 23,0 50,4 83,14 21,7 35,10 42,10 7,0 12,-1 16,-4 4,-3 8,-10 13,-20l21 0z"/>
    <path id="1" class="fil0" d="M14400 14373l19 291 -19 0c-26,-87 -63,-150 -111,-188 -49,-38 -106,-58 -174,-58 -56,0 -107,15 -153,44 -46,29 -82,74 -108,138 -26,63 -39,141 -39,235 0,78 12,145 37,202 25,57 62,100 111,130 50,31 107,46 170,46 56,0 104,-12 147,-36 42,-23 89,-70 139,-141l20 13c-43,76 -93,131 -150,167 -57,35 -125,52 -203,52 -142,0 -251,-52 -329,-157 -58,-79 -87,-171 -87,-277 0,-85 19,-164 57,-235 39,-72 91,-127 158,-167 67,-39 140,-59 219,-59 62,0 122,15 182,46 18,9 30,14 38,14 11,0 21,-4 30,-12 10,-12 18,-28 23,-48l23 0z"/>
    <path id="2" class="fil0" d="M15076 15083l-60 166 -505 0 0 -24c149,-135 253,-246 314,-331 60,-86 90,-164 90,-235 0,-55 -16,-99 -49,-134 -34,-35 -73,-52 -120,-52 -42,0 -79,12 -113,36 -33,24 -58,60 -74,107l-23 0c10,-77 37,-137 81,-178 43,-42 98,-62 163,-62 70,0 128,22 174,67 47,44 70,97 70,158 0,43 -10,86 -30,130 -31,68 -82,140 -152,216 -105,114 -169,183 -194,205l221 0c45,0 77,-2 95,-5 18,-3 34,-10 49,-20 15,-11 27,-25 38,-44l25 0z"/>
    <g>
     <path class="fil0" d="M15308 14821l55 0 0 0 -2 67 -5 65 -8 65 -12 64 -14 62 -17 61 -21 60 -23 59 -26 57 -28 56 -31 54 -34 53 -36 50 -38 49 -41 47 -43 45 -45 42 -46 41 -49 38 -51 36 -52 34 -54 31 -56 29 -57 25 -59 24 -60 20 -61 17 -63 15 -63 11 -65 8 -65 5 -67 2 0 -55 64 -2 63 -4 62 -8 60 -11 60 -14 59 -17 57 -19 56 -22 55 -25 54 -27 51 -30 50 -32 49 -35 47 -36 45 -39 43 -41 40 -43 39 -45 37 -47 35 -48 32 -50 29 -52 28 -53 24 -55 23 -56 19 -58 17 -59 14 -59 10 -61 8 -62 5 -63 2 -64 0 0zm-1237 -1236l0 -55 0 0 67 2 65 5 65 8 63 11 63 15 61 17 60 20 59 24 57 25 56 29 54 31 52 34 51 36 49 38 46 41 45 42 43 45 41 47 38 49 36 50 34 53 31 54 28 56 26 57 23 58 21 60 17 62 14 62 12 64 8 64 5 66 2 66 -55 0 -2 -63 -5 -63 -8 -62 -10 -61 -14 -60 -17 -58 -19 -58 -23 -56 -24 -55 -28 -53 -29 -52 -32 -50 -35 -48 -37 -47 -39 -45 -40 -43 -43 -41 -45 -39 -47 -36 -49 -35 -50 -32 -51 -30 -54 -27 -55 -25 -56 -22 -57 -19 -59 -17 -60 -14 -60 -11 -62 -8 -63 -4 -64 -2 0 0zm-1236 1236l-55 0 0 0 1 -66 5 -66 9 -64 11 -64 14 -62 18 -62 20 -60 23 -58 26 -57 29 -56 31 -54 33 -53 36 -50 39 -49 40 -47 43 -45 45 -42 47 -41 48 -38 51 -36 53 -34 54 -31 55 -29 57 -25 59 -24 60 -20 61 -17 63 -15 64 -11 64 -8 66 -5 66 -2 0 55 -63 2 -63 4 -62 8 -61 11 -60 14 -59 17 -57 19 -56 22 -55 25 -53 27 -52 30 -50 32 -49 35 -46 36 -45 39 -43 41 -41 43 -39 45 -37 47 -34 48 -32 50 -30 52 -27 53 -25 55 -22 56 -20 58 -16 58 -14 60 -11 61 -8 62 -5 63 -1 63 0 0zm1236 1237l0 55 0 0 -66 -2 -66 -5 -64 -8 -64 -11 -63 -15 -61 -17 -60 -20 -59 -24 -57 -25 -55 -29 -54 -31 -53 -34 -51 -36 -48 -38 -47 -41 -45 -42 -43 -45 -40 -47 -39 -49 -36 -50 -33 -53 -31 -54 -29 -56 -26 -57 -23 -59 -20 -60 -18 -61 -14 -62 -11 -64 -9 -65 -5 -65 -1 -67 55 0 1 64 5 63 8 62 11 61 14 59 16 59 20 58 22 56 25 55 27 53 30 52 32 50 34 48 37 47 39 45 41 43 43 41 45 39 46 36 49 35 50 32 52 30 53 27 55 25 56 22 57 19 59 17 60 14 61 11 62 8 63 4 63 2 0 0z"/>
    </g>
   </g>
   <g>
    <path class="fil0" d="M12640 11425l-229 0 -291 -400c-21,1 -38,1 -51,1 -6,0 -11,0 -18,0 -6,-1 -12,-1 -19,-1l0 249c0,54 6,87 18,100 16,19 40,28 72,28l33 0 0 23 -367 0 0 -23 32 0c36,0 62,-12 78,-35 9,-13 13,-44 13,-93l0 -554c0,-54 -6,-87 -18,-100 -16,-19 -40,-28 -73,-28l-32 0 0 -23 312 0c91,0 158,6 201,19 43,14 80,38 110,74 30,35 45,78 45,127 0,53 -17,99 -51,137 -35,39 -88,66 -160,83l177 245c41,56 75,94 104,112 29,19 67,31 114,36l0 23zm-608 -440c8,0 15,0 21,0 6,0 11,0 14,0 81,0 142,-17 183,-53 41,-35 61,-80 61,-135 0,-53 -16,-97 -49,-130 -33,-34 -77,-51 -132,-51 -24,0 -57,4 -98,12l0 357z"/>
    <path id="1" class="fil0" d="M13219 11259l-59 166 -505 0 0 -24c149,-135 253,-245 313,-331 61,-86 91,-164 91,-235 0,-54 -16,-99 -50,-134 -33,-35 -72,-52 -119,-52 -42,0 -80,12 -113,36 -34,24 -58,60 -74,107l-23 0c10,-77 37,-137 81,-178 43,-41 98,-62 163,-62 69,0 128,22 174,67 47,44 70,97 70,158 0,43 -10,86 -31,130 -31,68 -81,140 -151,216 -105,114 -169,183 -194,205l221 0c45,0 77,-2 95,-5 18,-3 34,-10 49,-20 14,-11 27,-25 38,-44l24 0z"/>
    <g>
     <path class="fil0" d="M13703 10998l55 0 0 0 -2 66 -5 66 -8 64 -11 64 -15 62 -17 62 -21 60 -23 58 -26 57 -28 56 -31 54 -34 53 -36 50 -38 49 -41 47 -42 45 -45 42 -47 41 -49 38 -51 36 -52 34 -54 31 -56 29 -57 25 -59 24 -60 20 -61 17 -62 15 -64 11 -65 8 -65 5 -67 2 0 -55 64 -2 63 -4 62 -8 61 -11 59 -14 59 -17 58 -19 56 -22 54 -25 54 -27 52 -30 50 -32 48 -35 47 -36 45 -39 43 -41 41 -43 39 -45 36 -47 35 -48 32 -50 30 -52 27 -53 25 -55 22 -56 19 -58 17 -58 14 -60 11 -61 8 -62 4 -63 2 -63 0 0zm-1237 -1237l0 -55 0 0 67 2 65 5 65 8 64 11 62 15 61 17 60 20 59 24 57 25 56 29 54 31 52 34 51 36 49 38 47 41 45 42 42 45 41 47 38 49 36 50 34 53 31 54 28 56 26 57 23 59 21 60 17 61 15 62 11 64 8 65 5 65 2 67 -55 0 -2 -64 -4 -63 -8 -62 -11 -61 -14 -60 -17 -58 -19 -58 -22 -56 -25 -55 -27 -53 -30 -52 -32 -50 -35 -48 -36 -47 -39 -45 -41 -43 -43 -41 -45 -39 -47 -36 -48 -35 -50 -32 -52 -30 -54 -27 -54 -25 -56 -22 -58 -19 -59 -17 -59 -14 -61 -11 -62 -8 -63 -4 -64 -2 0 0zm-1236 1237l-55 0 0 0 2 -67 5 -65 8 -65 11 -64 15 -62 17 -61 20 -60 23 -59 26 -57 29 -56 31 -54 34 -53 36 -50 38 -49 40 -47 43 -45 45 -42 47 -41 49 -38 50 -36 53 -34 54 -31 55 -29 58 -25 58 -24 60 -20 62 -17 62 -15 64 -11 64 -8 66 -5 66 -2 0 55 -63 2 -63 4 -62 8 -61 11 -60 14 -58 17 -58 19 -56 22 -55 25 -53 27 -52 30 -50 32 -48 35 -47 36 -45 39 -43 41 -41 43 -39 45 -36 47 -35 48 -32 50 -30 52 -27 53 -25 55 -22 56 -20 58 -16 58 -14 60 -11 61 -8 62 -4 63 -2 64 0 0zm1236 1236l0 55 0 0 -66 -2 -66 -5 -64 -8 -64 -11 -62 -15 -62 -17 -60 -20 -58 -24 -58 -25 -55 -29 -54 -31 -53 -34 -50 -36 -49 -38 -47 -41 -45 -42 -43 -45 -40 -47 -38 -49 -36 -50 -34 -53 -31 -54 -29 -56 -26 -57 -23 -58 -20 -60 -17 -62 -15 -62 -11 -64 -8 -64 -5 -66 -2 -66 55 0 2 63 4 63 8 62 11 61 14 60 16 58 20 58 22 56 25 55 27 53 30 52 32 50 35 48 36 47 39 45 41 43 43 41 45 39 47 36 48 35 50 32 52 30 53 27 55 25 56 22 58 19 58 17 60 14 61 11 62 8 63 4 63 2 0 0z"/>
    </g>
   </g>
   <g>
    <path class="fil0" d="M15617 8793l0 197 -20 0c-16,-62 -37,-104 -62,-126 -24,-22 -56,-33 -95,-33 -29,0 -53,7 -71,23 -18,15 -27,33 -27,52 0,23 7,43 20,60 13,17 39,36 79,55l92 45c86,41 128,96 128,164 0,53 -20,95 -59,127 -40,32 -85,49 -134,49 -35,0 -75,-7 -121,-19 -14,-4 -25,-6 -34,-6 -9,0 -17,5 -22,16l-21 0 0 -207 21 0c11,59 34,103 67,133 33,30 71,45 112,45 29,0 52,-8 71,-25 18,-17 27,-38 27,-62 0,-29 -10,-53 -31,-73 -20,-20 -61,-44 -122,-75 -61,-30 -101,-57 -120,-81 -18,-24 -28,-55 -28,-91 0,-48 17,-88 49,-120 33,-32 75,-48 126,-48 23,0 50,5 83,15 21,7 36,10 43,10 7,0 12,-2 16,-5 3,-3 8,-9 13,-20l20 0z"/>
    <path id="1" class="fil0" d="M16484 8513l20 291 -20 0c-26,-87 -63,-150 -111,-188 -48,-39 -106,-58 -173,-58 -57,0 -108,15 -154,43 -45,29 -81,75 -108,138 -26,64 -39,142 -39,236 0,77 12,145 37,202 25,56 62,100 112,130 49,31 106,46 170,46 55,0 104,-12 146,-36 42,-24 89,-71 140,-141l19 13c-43,76 -93,131 -150,166 -57,36 -125,53 -203,53 -141,0 -251,-52 -329,-158 -57,-78 -86,-170 -86,-276 0,-86 19,-164 57,-236 38,-71 90,-127 157,-166 67,-39 140,-59 219,-59 62,0 123,15 183,45 17,10 30,14 37,14 12,0 21,-4 30,-12 11,-11 19,-27 23,-47l23 0z"/>
    <path id="2" class="fil0" d="M16718 8616l209 -100 21 0 0 722c0,48 2,78 6,90 4,11 12,21 25,27 13,6 39,10 78,11l0 23 -323 0 0 -23c40,-1 66,-5 78,-11 12,-6 20,-14 25,-25 4,-10 6,-41 6,-92l0 -463c0,-62 -2,-102 -6,-120 -3,-13 -8,-23 -16,-29 -8,-7 -17,-10 -28,-10 -16,0 -38,7 -65,20l-10 -20z"/>
    <g>
     <path class="fil0" d="M17392 8961l55 0 0 0 -2 67 -5 65 -8 65 -11 63 -15 63 -17 61 -20 60 -24 59 -25 57 -29 56 -31 54 -34 52 -36 51 -38 49 -41 47 -42 44 -45 43 -47 41 -49 38 -50 36 -53 34 -54 31 -56 28 -57 26 -58 23 -60 21 -62 17 -62 14 -64 12 -64 8 -66 5 -67 2 0 -55 64 -2 63 -5 62 -8 61 -10 60 -14 58 -17 58 -19 56 -22 55 -25 53 -28 52 -29 50 -32 48 -35 47 -37 45 -39 43 -40 41 -43 39 -45 36 -47 35 -48 32 -51 30 -51 27 -54 25 -54 22 -57 19 -57 17 -59 14 -60 11 -60 8 -62 4 -63 2 -64 0 0zm-1237 -1236l0 -55 0 0 67 1 66 5 64 9 64 11 62 14 62 18 60 20 58 23 57 26 56 29 54 31 53 33 50 36 49 39 47 40 45 43 42 45 41 47 38 49 36 50 34 53 31 54 29 55 25 58 24 58 20 60 17 61 15 63 11 64 8 64 5 66 2 66 -55 0 -2 -63 -4 -63 -8 -62 -11 -61 -14 -60 -17 -58 -19 -58 -22 -56 -25 -55 -27 -53 -30 -52 -32 -50 -35 -49 -36 -46 -39 -45 -41 -43 -43 -41 -45 -39 -47 -37 -48 -34 -50 -32 -52 -30 -53 -27 -55 -25 -56 -22 -58 -20 -58 -16 -60 -14 -61 -11 -62 -8 -63 -5 -64 -1 0 0zm-1236 1236l-55 0 0 0 2 -66 5 -66 8 -64 11 -64 15 -63 17 -61 20 -60 24 -58 25 -58 29 -55 31 -54 34 -53 36 -50 38 -49 41 -47 42 -45 45 -43 47 -40 49 -39 50 -36 53 -33 54 -31 56 -29 57 -26 58 -23 60 -20 62 -18 62 -14 64 -11 64 -9 66 -5 66 -1 0 55 -63 1 -63 5 -62 8 -61 11 -60 14 -58 16 -58 20 -56 22 -55 25 -53 27 -52 30 -50 32 -48 34 -47 37 -45 39 -43 41 -41 43 -39 45 -36 46 -35 49 -32 50 -30 52 -27 53 -25 55 -22 56 -19 58 -17 58 -14 60 -11 61 -8 62 -4 63 -2 63 0 0zm1236 1237l0 55 0 0 -66 -2 -66 -5 -64 -8 -64 -12 -62 -14 -62 -17 -60 -21 -58 -23 -57 -26 -56 -28 -54 -31 -53 -34 -50 -36 -49 -38 -47 -41 -45 -43 -42 -44 -41 -47 -38 -49 -36 -51 -34 -52 -31 -54 -29 -56 -25 -57 -24 -59 -20 -60 -17 -61 -15 -63 -11 -63 -8 -65 -5 -65 -2 -67 55 0 2 64 4 63 8 62 11 60 14 60 17 59 19 57 22 57 25 54 27 54 30 51 32 51 35 48 36 47 39 45 41 43 43 40 45 39 47 37 48 35 50 32 52 29 53 28 55 25 56 22 58 19 58 17 60 14 61 10 62 8 63 5 63 2 0 0z"/>
    </g>
   </g>
   <g>
    <path class="fil0" d="M6672 8193l-229 0 -291 -401c-21,1 -38,2 -51,2 -5,0 -11,-1 -17,-1 -6,0 -13,0 -19,-1l0 250c0,53 6,87 17,100 16,18 40,28 72,28l34 0 0 23 -367 0 0 -23 32 0c36,0 62,-12 77,-36 9,-13 13,-44 13,-92l0 -555c0,-53 -5,-87 -17,-100 -17,-18 -41,-27 -73,-27l-32 0 0 -24 311 0c91,0 158,7 201,20 44,13 80,38 110,74 30,35 46,77 46,127 0,53 -18,98 -52,137 -34,39 -87,66 -159,82l177 245c40,57 75,94 104,113 29,19 67,30 113,36l0 23zm-607 -441c8,0 15,0 20,0 6,1 11,1 15,1 80,0 141,-18 182,-53 41,-36 62,-81 62,-135 0,-54 -17,-97 -50,-131 -33,-33 -77,-50 -131,-50 -24,0 -57,4 -98,12l0 356z"/>
    <path id="1" class="fil0" d="M6810 7420l209 -100 21 0 0 722c0,48 2,78 6,90 4,11 12,21 25,27 13,6 39,10 78,11l0 23 -323 0 0 -23c40,-1 66,-5 78,-11 12,-6 20,-14 25,-25 4,-10 6,-41 6,-92l0 -463c0,-62 -2,-102 -6,-120 -3,-13 -8,-23 -16,-29 -8,-7 -17,-10 -28,-10 -16,0 -38,7 -65,20l-10 -20z"/>
    <g>
     <path class="fil0" d="M7721 7756l55 0 0 0 -2 67 -5 65 -8 65 -11 63 -15 63 -17 61 -20 60 -23 59 -26 57 -29 56 -31 54 -34 52 -36 51 -38 49 -40 46 -43 45 -45 43 -47 41 -49 38 -50 36 -53 34 -54 31 -55 28 -58 26 -58 23 -60 20 -62 18 -62 14 -64 12 -64 8 -66 5 -66 2 0 -55 63 -2 63 -5 62 -8 61 -11 60 -13 58 -17 58 -19 56 -23 55 -24 53 -28 52 -29 50 -33 48 -34 47 -37 45 -39 43 -41 41 -42 39 -45 37 -47 34 -49 32 -50 30 -51 27 -54 25 -55 22 -56 20 -57 16 -59 14 -60 11 -61 8 -61 5 -63 1 -64 0 0zm-1236 -1236l0 -55 0 0 66 1 66 5 64 9 64 11 62 14 62 18 60 20 58 23 58 26 55 29 54 31 53 33 50 36 49 39 47 40 45 43 43 45 40 47 38 48 36 51 34 52 31 55 29 55 26 57 23 59 20 60 17 61 15 63 11 63 8 65 5 66 2 66 -55 0 -1 -64 -5 -62 -8 -62 -11 -61 -14 -60 -16 -59 -20 -57 -22 -56 -25 -55 -27 -53 -30 -52 -32 -50 -34 -49 -37 -46 -39 -45 -41 -43 -43 -41 -45 -39 -47 -37 -48 -34 -50 -32 -52 -30 -53 -27 -55 -25 -56 -22 -58 -20 -58 -16 -60 -14 -61 -11 -62 -8 -63 -5 -63 -1 0 0zm-1237 1236l-55 0 0 0 2 -66 5 -66 8 -65 11 -63 15 -63 17 -61 21 -60 23 -59 26 -57 28 -55 31 -55 34 -52 36 -51 38 -48 41 -47 42 -45 45 -43 47 -40 49 -39 51 -36 52 -33 54 -31 56 -29 57 -26 59 -23 60 -20 61 -18 62 -14 64 -11 65 -9 65 -5 67 -1 0 55 -64 1 -63 5 -62 8 -61 11 -59 14 -59 16 -58 20 -56 22 -54 25 -54 27 -52 30 -50 32 -48 34 -47 37 -45 39 -43 41 -41 43 -39 45 -36 46 -35 49 -32 50 -30 52 -27 53 -25 55 -22 56 -19 57 -17 59 -14 60 -11 61 -7 62 -5 62 -2 64 0 0zm1237 1237l0 55 0 0 -67 -2 -65 -5 -65 -8 -64 -12 -62 -14 -61 -18 -60 -20 -59 -23 -57 -26 -56 -28 -54 -31 -52 -34 -51 -36 -49 -38 -47 -41 -45 -43 -42 -45 -41 -46 -38 -49 -36 -51 -34 -52 -31 -54 -28 -56 -26 -57 -23 -59 -21 -60 -17 -61 -15 -63 -11 -63 -8 -65 -5 -65 -2 -67 55 0 2 64 5 63 7 61 11 61 14 60 17 59 19 57 22 56 25 55 27 54 30 51 32 50 35 49 36 47 39 45 41 42 43 41 45 39 47 37 48 34 50 33 52 29 54 28 54 24 56 23 58 19 59 17 59 13 61 11 62 8 63 5 64 2 0 0z"/>
    </g>
   </g>
   <g>
    <path class="fil0" d="M6716 1739l-5 4 -6 3 -6 4 -5 2 -6 3 -6 2 -7 2 -6 1 -6 2 -6 1 -6 0 -7 0 -6 0 -6 0 -7 0 -6 -1 -6 -1 -6 -2 -6 -2 -6 -2 -6 -2 -5 -3 -6 -3 -6 -3 -5 -3 -5 -4 -5 -4 -5 -4 -5 -5 -4 -4 -4 -6 -4 -5 0 0 -4 -5 -3 -6 -4 -6 -2 -6 -3 -6 -2 -6 -2 -6 -1 -6 -2 -6 -1 -7 0 -6 0 -6 0 -6 0 -7 0 -6 1 -6 1 -6 2 -6 2 -6 2 -6 2 -6 3 -6 3 -5 3 -6 3 -5 4 -5 4 -5 4 -5 5 -5 5 -4 5 -5 5 -4 0 0 5 -3 6 -4 6 -3 6 -3 6 -2 6 -2 6 -2 6 -2 6 -1 6 -1 7 0 6 -1 6 0 7 1 6 0 6 1 6 1 6 2 6 1 6 2 6 3 6 2 5 3 6 3 5 4 5 4 5 4 5 4 5 4 4 5 5 5 4 6 0 0 3 5 4 6 3 6 3 6 2 6 2 6 2 6 2 6 1 6 1 6 0 7 1 6 0 6 -1 6 0 7 -1 6 -1 6 -2 6 -1 6 -2 6 -3 6 -2 6 -3 5 -3 6 -4 5 -4 5 -4 5 -4 5 -4 5 -5 4 -5 4 -6 4 0 0zm-1634 974l1543 -1102 32 45 -1543 1102 -32 -45zm-170 156l257 -424 2 13 3 14 3 12 3 13 3 13 4 12 4 12 5 12 5 11 5 12 5 11 6 11 6 11 6 10 7 10 7 10 7 10 7 10 8 9 9 9 8 9 9 9 9 8 9 9 10 8 10 8 10 7 11 8 11 7 11 7 12 6 12 7 0 0 -484 106z"/>
   </g>
   <g>
    <path class="fil0" d="M2355 13174l-3 5 -3 6 -3 6 -4 5 -4 5 -4 5 -5 4 -5 5 -4 4 -5 4 -6 3 -5 4 -5 3 -6 2 -6 3 -6 2 -6 2 -6 2 -6 1 -6 1 -6 1 -6 1 -7 0 -6 0 -6 -1 -7 -1 -6 -1 -6 -1 -7 -2 -6 -2 -6 -2 -6 -3 0 0 -6 -3 -6 -3 -5 -4 -6 -3 -5 -4 -4 -5 -5 -4 -4 -5 -4 -5 -4 -5 -4 -5 -3 -5 -3 -6 -3 -5 -3 -6 -2 -6 -2 -6 -1 -6 -2 -6 -1 -6 -1 -6 0 -7 0 -6 0 -6 0 -7 1 -6 1 -6 1 -7 2 -6 2 -6 3 -6 2 -6 0 0 3 -6 4 -6 3 -6 4 -5 4 -5 4 -5 5 -4 4 -5 5 -4 5 -4 5 -3 6 -3 5 -3 6 -3 5 -3 6 -2 6 -2 6 -2 6 -1 6 -1 7 -1 6 0 6 -1 7 1 6 0 6 1 7 1 6 1 6 2 6 2 7 2 6 3 0 0 6 3 5 3 6 4 5 4 5 4 5 4 5 4 4 5 4 5 4 5 4 5 3 5 3 6 3 5 2 6 2 6 2 6 2 6 1 6 1 6 1 7 1 6 0 6 0 6 -1 7 0 6 -1 6 -2 7 -1 6 -2 6 -3 6 -3 7 0 0zm-1186 2127l1044 -2195 50 23 -1044 2195 -50 -23zm-73 218l19 -495 9 10 8 11 9 9 9 10 9 9 9 9 10 9 9 8 10 8 10 7 10 7 11 7 10 6 11 7 11 5 10 6 12 5 11 5 11 4 12 4 12 4 12 3 12 3 12 3 12 2 13 2 13 2 13 1 13 1 13 0 13 1 14 0 0 0 -372 327z"/>
   </g>
   <g>
    <path class="fil0" d="M22392 13022l-2 6 -3 6 -2 6 -4 6 -3 5 -4 5 -4 5 -4 5 -4 5 -5 4 -4 4 -5 4 -6 4 -5 3 -5 3 -6 3 -5 3 -6 2 -6 2 -6 2 -6 1 -6 2 -7 0 -6 1 -6 0 -7 0 -6 0 -7 -1 -6 -1 -6 -1 -7 -2 -6 -2 0 0 -6 -2 -7 -3 -5 -3 -6 -3 -6 -3 -5 -4 -5 -4 -5 -4 -4 -4 -5 -5 -4 -5 -4 -5 -3 -5 -4 -5 -3 -6 -3 -5 -2 -6 -3 -6 -2 -6 -1 -6 -2 -6 -1 -6 -1 -6 -1 -6 0 -7 0 -6 1 -6 0 -7 1 -6 2 -7 1 -6 2 -7 0 0 3 -6 2 -6 3 -6 3 -5 4 -6 4 -5 3 -5 5 -5 4 -5 4 -4 5 -4 5 -4 5 -4 6 -3 5 -3 6 -3 5 -3 6 -2 6 -2 6 -2 6 -1 6 -1 7 -1 6 -1 6 0 7 0 6 0 6 1 7 1 6 1 7 2 6 2 0 0 6 2 6 3 6 3 6 3 5 4 6 3 5 4 4 4 5 5 4 4 5 5 3 5 4 5 3 5 4 6 2 5 3 6 2 6 2 6 2 6 2 6 1 6 1 6 0 7 1 6 0 6 -1 7 -1 6 -1 7 -1 6 -2 6 -2 7 0 0zm-742 1663l593 -1715 52 18 -593 1715 -52 -18zm-49 225l-36 -494 10 9 10 9 9 9 10 9 11 8 10 8 10 7 11 7 10 7 11 6 11 6 11 6 11 5 11 5 11 4 12 5 11 3 12 4 12 3 12 3 12 2 12 2 13 2 12 1 13 1 12 1 13 0 13 0 13 -1 14 -1 13 -1 13 -2 0 0 -333 367z"/>
   </g>
   <path class="fil0" d="M5755 28l9 -28 329 0c140,0 243,16 310,48 67,32 120,82 160,150 40,69 60,142 60,220 0,67 -11,133 -34,196 -23,64 -49,115 -78,153 -29,38 -74,80 -134,126 -60,46 -125,80 -195,102 -70,22 -158,33 -263,33l-434 0 10 -28c40,-1 66,-5 80,-11 20,-8 35,-20 45,-35 15,-21 31,-63 49,-128l179 -621c14,-49 21,-88 21,-116 0,-20 -7,-34 -20,-45 -13,-11 -39,-16 -77,-16l-17 0zm269 28l-224 786c-17,51 -25,83 -25,96 0,7 2,14 8,20 5,7 12,12 21,14 14,4 35,6 65,6 81,0 156,-8 225,-24 69,-17 125,-42 169,-74 63,-47 113,-111 150,-194 38,-82 57,-176 57,-281 0,-119 -29,-208 -87,-265 -58,-58 -142,-87 -253,-87 -27,0 -63,1 -106,3z"/>
   <path id="1" class="fil0" d="M6636 1197c38,-17 68,-39 92,-65 18,-20 27,-39 27,-58 0,-9 -1,-17 -4,-25 -2,-4 -9,-12 -21,-24 -12,-12 -19,-20 -21,-25 -3,-8 -5,-18 -5,-29 0,-22 8,-41 22,-56 15,-16 33,-24 53,-24 21,0 39,9 55,25 16,17 24,38 24,63 0,45 -18,90 -53,136 -36,46 -87,81 -154,106l-15 -24z"/>
   <path id="2" class="fil0" d="M7485 0l312 797 171 -593c14,-50 21,-88 21,-115 0,-19 -6,-34 -19,-44 -14,-11 -38,-16 -74,-16 -6,0 -12,-1 -19,-1l9 -28 329 0 -9 28c-34,-1 -59,3 -76,11 -24,10 -41,24 -53,40 -16,24 -33,66 -49,125l-244 847 -21 0 -339 -866 -185 640c-13,48 -20,85 -20,111 0,19 6,34 18,44 13,10 42,16 89,20l-8 28 -325 0 11 -28c40,-1 67,-4 80,-10 21,-8 37,-19 47,-32 14,-20 31,-59 49,-117l210 -729c-20,-31 -41,-53 -63,-64 -23,-12 -58,-19 -105,-20l8 -28 255 0z"/>
   <path id="3" class="fil0" d="M8251 956l0 -17c91,-14 159,-41 204,-82 33,-28 49,-63 49,-102 0,-30 -9,-55 -28,-75 -19,-19 -42,-29 -69,-29 -42,0 -79,26 -112,78l-21 -6c20,-43 45,-76 76,-99 31,-22 64,-33 101,-33 45,0 81,13 108,40 28,26 42,60 42,101 0,35 -13,68 -39,100 -26,32 -71,61 -134,86 39,17 69,40 89,71 20,30 30,67 30,109 0,48 -13,95 -41,142 -27,48 -64,85 -112,110 -48,26 -98,39 -150,39 -48,0 -84,-8 -108,-25 -17,-11 -25,-24 -25,-39 0,-14 5,-25 15,-34 9,-10 21,-14 35,-14 10,0 20,1 30,4 6,2 21,10 44,23 24,13 43,22 56,26 13,5 27,7 41,7 34,0 62,-20 84,-59 22,-40 34,-82 34,-127 0,-36 -8,-68 -23,-97 -15,-28 -39,-51 -71,-69 -32,-17 -67,-27 -105,-29z"/>
   <path class="fil0" d="M2343 11387l312 797 171 -593c14,-49 21,-88 21,-115 0,-19 -6,-33 -19,-44 -14,-11 -38,-16 -74,-16 -6,0 -12,0 -19,-1l9 -28 329 0 -9 28c-34,0 -59,3 -76,11 -24,10 -41,24 -53,41 -16,23 -33,65 -49,124l-244 847 -21 0 -339 -865 -185 639c-13,49 -20,86 -20,112 0,19 6,33 18,43 13,10 42,17 89,20l-8 28 -325 0 11 -28c40,-1 67,-4 80,-9 21,-9 37,-19 47,-33 14,-20 31,-59 49,-116l210 -730c-20,-31 -41,-52 -63,-64 -23,-11 -58,-18 -105,-20l8 -28 255 0z"/>
   <path id="1" class="fil0" d="M3334 12764l-385 0 0 -21c195,-171 324,-305 387,-403 29,-45 44,-92 44,-142 0,-39 -12,-71 -37,-96 -24,-24 -55,-37 -94,-37 -53,0 -96,26 -131,77l-20 -9c20,-49 48,-87 85,-114 37,-27 77,-41 120,-41 49,0 90,17 123,50 33,34 50,74 50,122 0,33 -6,64 -18,93 -18,44 -51,94 -100,148 -74,85 -173,181 -297,290l194 0c31,0 57,-6 77,-19 20,-13 34,-30 43,-52l23 0 -64 154z"/>
   <g>
    <path class="fil0" d="M10991 16275l1839 -1171 29 46 -1838 1172 -30 -47zm-178 147l279 -410 2 13 2 14 2 13 3 13 3 12 3 13 3 12 4 12 4 12 5 11 4 12 6 11 5 11 6 11 6 11 6 10 7 10 7 10 7 10 8 9 8 10 8 9 9 9 9 9 9 8 10 9 10 8 10 8 11 7 11 8 11 7 11 7 0 0 -489 81z"/>
   </g>
   <g>
    <path class="fil0" d="M13611 13401l-418 -1380 52 -16 419 1380 -53 16zm93 211l-319 -380 13 2 13 2 13 2 14 1 12 0 13 1 13 -1 13 0 12 -1 13 -1 12 -2 12 -1 12 -3 12 -2 12 -3 12 -4 11 -3 12 -4 11 -5 12 -5 11 -5 11 -5 11 -6 11 -7 10 -6 11 -7 10 -8 11 -7 10 -9 10 -8 10 -9 10 -9 0 0 -54 493z"/>
   </g>
   <g>
    <path class="fil0" d="M11668 12038l-50 -24 24 -49 50 23 -24 50zm-47 99l-50 -23 24 -50 49 23 -23 50zm-47 99l-50 -23 24 -50 49 24 -23 49zm-47 100l-50 -24 24 -50 49 24 -23 50zm-47 99l-50 -24 24 -49 49 23 -23 50zm-47 99l-50 -24 24 -49 49 23 -23 50zm-47 99l-50 -23 23 -50 50 24 -23 49zm-48 99l-49 -23 23 -50 50 24 -24 49zm-47 100l-49 -24 23 -49 50 23 -24 50zm-47 99l-49 -24 23 -49 50 23 -24 50zm-47 99l-49 -23 23 -50 50 24 -24 49zm-47 99l-50 -23 24 -50 50 24 -24 49zm-47 100l-50 -24 24 -50 50 24 -24 50zm-47 99l-50 -24 24 -49 49 23 -23 50zm-47 99l-50 -23 24 -50 49 23 -23 50zm-47 99l-50 -23 24 -50 49 24 -23 49zm-48 100l-49 -24 23 -50 50 24 -24 50zm-47 99l-49 -24 23 -49 50 23 -24 50zm-47 99l-49 -24 23 -49 50 23 -24 50zm-47 99l-50 -23 24 -50 50 24 -24 49zm-47 99l-50 -23 24 -50 50 24 -24 49zm-47 100l-50 -24 24 -49 49 23 -23 50zm-47 99l-50 -24 24 -49 49 23 -23 50zm-47 99l-50 -23 24 -50 49 24 -23 49zm-48 99l-49 -23 23 -50 50 24 -24 49zm-47 100l-49 -24 23 -50 50 24 -24 50zm-47 99l-49 -24 23 -49 50 23 -24 50zm-47 99l-50 -23 24 -50 50 24 -24 49zm-47 99l-50 -23 24 -50 50 24 -24 49zm-47 100l-50 -24 24 -50 49 24 -23 50zm-47 99l-50 -24 24 -49 49 23 -23 50zm-47 99l-50 -23 24 -50 49 23 -23 50zm-78 36l4 -10 50 24 -4 9 -50 -23zm-73 218l19 -495 8 10 9 11 9 9 8 10 10 9 9 9 9 9 10 8 10 8 10 7 10 7 10 7 11 6 10 6 11 6 11 6 11 5 11 4 12 5 11 4 12 4 12 3 12 3 13 2 12 3 13 2 12 1 13 2 13 1 13 0 14 0 13 0 0 0 -371 328z"/>
   </g>
   <path class="fil0" d="M11704 15105l-142 -740 96 0 85 441c16,80 26,145 32,194 31,-63 56,-113 76,-150l264 -485 102 0 -406 740 -107 0z"/>
   <path id="1" class="fil0" d="M12184 15105c10,-44 23,-81 39,-111 17,-30 39,-58 67,-85 27,-26 80,-71 159,-134 48,-38 80,-66 98,-84 25,-26 43,-52 55,-77 7,-17 11,-36 11,-56 0,-34 -12,-63 -36,-86 -24,-24 -53,-36 -88,-36 -35,0 -65,12 -91,36 -26,24 -45,63 -56,116l-88 -13c8,-66 34,-118 76,-155 42,-38 95,-57 157,-57 42,0 81,9 115,26 34,17 59,42 76,74 17,31 26,64 26,97 0,50 -17,97 -52,142 -22,28 -85,84 -190,167 -45,35 -79,65 -101,88 -22,22 -38,44 -49,64l330 0 -17 84 -441 0z"/>
   <path class="fil0" d="M11657 13487l-142 -740 96 0 85 441c16,80 26,145 32,194 31,-63 56,-113 76,-150l264 -485 101 0 -405 740 -107 0z"/>
   <path id="1" class="fil0" d="M12133 13293l89 -12c7,52 22,90 45,112 23,23 53,34 90,34 46,0 85,-16 118,-48 32,-33 49,-70 49,-112 0,-36 -12,-66 -37,-90 -25,-23 -58,-35 -99,-35 -5,0 -14,0 -29,2l15 -77c9,2 17,2 26,2 52,0 92,-12 119,-38 28,-25 42,-56 42,-93 0,-33 -12,-62 -35,-85 -23,-23 -51,-35 -84,-35 -33,0 -62,12 -88,36 -26,23 -43,57 -50,100l-90 -18c15,-61 43,-108 85,-141 42,-34 92,-50 150,-50 60,0 109,18 147,55 37,36 56,81 56,135 0,39 -10,73 -30,102 -20,29 -51,53 -92,72 29,17 51,38 65,62 15,24 22,52 22,83 0,66 -25,124 -75,172 -49,49 -109,73 -178,73 -67,0 -121,-18 -162,-56 -41,-38 -64,-88 -69,-150z"/>
   <g>
    <path class="fil0" d="M13757 10243l1355 -578 22 51 -1356 577 -21 -50zm-200 115l342 -359 0 14 -1 13 0 14 1 13 1 13 1 12 1 13 2 13 2 12 3 12 2 12 4 12 3 12 4 11 4 12 5 11 5 11 5 11 6 11 6 11 6 10 7 11 7 10 8 10 7 10 8 10 9 10 9 9 9 10 9 9 10 9 10 9 0 0 -495 -1z"/>
   </g>
   <path class="fil0" d="M15901 11292l-141 -740 95 0 85 441c16,80 26,145 32,194 31,-63 57,-113 76,-150l264 -485 102 0 -406 740 -107 0z"/>
   <path id="1" class="fil0" d="M16629 11292l41 -189 -303 0 20 -90 417 -461 75 0 -101 470 106 0 -17 81 -106 0 -41 189 -91 0zm58 -270l66 -308 -278 308 212 0z"/>
   <g>
    <path class="fil0" d="M7601 11410l0 196 -20 0c-16,-61 -37,-103 -62,-125 -24,-22 -56,-34 -95,-34 -29,0 -53,8 -71,24 -18,15 -27,32 -27,51 0,24 7,44 20,61 13,17 39,35 79,55l92 44c86,42 128,97 128,165 0,52 -19,95 -59,127 -40,32 -84,48 -134,48 -35,0 -75,-6 -121,-18 -14,-4 -25,-6 -34,-6 -9,0 -17,5 -22,15l-21 0 0 -207 21 0c11,59 34,104 67,134 33,30 71,45 112,45 29,0 52,-9 71,-26 18,-17 27,-37 27,-61 0,-29 -10,-53 -30,-73 -21,-20 -62,-45 -123,-75 -61,-30 -101,-57 -119,-82 -19,-24 -29,-54 -29,-91 0,-47 17,-87 49,-119 33,-32 75,-48 126,-48 23,0 51,5 83,15 21,6 36,9 43,9 7,0 12,-1 16,-4 3,-3 8,-10 13,-20l20 0z"/>
    <path id="1" class="fil0" d="M8468 11130l20 290 -20 0c-26,-87 -63,-150 -111,-188 -48,-38 -106,-57 -173,-57 -57,0 -108,14 -154,43 -45,29 -81,75 -108,138 -26,63 -39,142 -39,236 0,77 13,144 37,201 25,57 62,100 112,131 50,30 106,45 170,45 55,0 104,-12 146,-35 42,-24 89,-71 140,-142l19 13c-43,76 -93,132 -150,167 -57,35 -125,53 -203,53 -141,0 -251,-53 -328,-158 -58,-78 -87,-171 -87,-276 0,-86 19,-165 57,-236 38,-72 90,-127 157,-166 67,-40 140,-59 219,-59 62,0 123,15 183,45 17,9 30,14 37,14 12,0 22,-4 30,-12 11,-11 19,-27 23,-47l23 0z"/>
    <path id="2" class="fil0" d="M8702 11233l209 -101 21 0 0 722c0,48 2,78 6,90 4,12 12,21 25,27 13,7 39,10 78,11l0 23 -323 0 0 -23c40,-1 66,-4 78,-10 12,-6 20,-15 25,-25 4,-10 7,-41 7,-93l0 -462c0,-62 -3,-102 -7,-120 -3,-14 -8,-24 -16,-30 -8,-6 -17,-9 -28,-9 -16,0 -38,6 -65,19l-10 -19z"/>
    <g>
     <path class="fil0" d="M9376 11578l55 0 0 0 -2 66 -5 66 -8 64 -11 64 -15 63 -17 61 -20 60 -24 59 -25 57 -29 55 -31 55 -34 52 -36 51 -38 48 -41 47 -42 45 -45 43 -47 40 -49 39 -50 36 -53 33 -54 31 -56 29 -57 26 -58 23 -60 20 -62 18 -62 14 -64 11 -64 9 -66 5 -66 1 0 -55 63 -1 63 -5 62 -8 61 -11 60 -14 58 -16 58 -20 56 -22 55 -25 53 -27 52 -30 50 -32 48 -34 47 -37 45 -39 43 -41 41 -43 39 -45 36 -46 35 -49 32 -50 30 -52 27 -53 25 -55 22 -56 19 -57 17 -59 14 -60 11 -61 8 -62 4 -63 2 -63 0 0zm-1236 -1237l0 -55 0 0 66 2 66 5 64 8 64 12 62 14 62 17 60 21 58 23 57 26 56 28 54 31 53 34 50 36 49 38 47 41 45 43 42 45 41 46 38 49 36 51 34 52 31 54 29 56 25 57 24 59 20 60 17 61 15 63 11 63 8 65 5 65 2 67 -55 0 -2 -64 -4 -63 -8 -62 -11 -60 -14 -60 -17 -59 -19 -57 -22 -56 -25 -55 -27 -54 -30 -51 -32 -50 -35 -49 -36 -47 -39 -45 -41 -42 -43 -41 -45 -39 -47 -37 -48 -34 -50 -33 -52 -29 -53 -28 -55 -24 -56 -23 -58 -19 -58 -17 -60 -14 -61 -10 -62 -8 -63 -5 -63 -2 0 0zm-1237 1237l-55 0 0 0 2 -67 5 -65 8 -65 11 -63 15 -63 17 -61 21 -60 23 -59 26 -57 28 -56 31 -54 34 -52 36 -51 38 -49 41 -46 42 -45 45 -43 47 -41 49 -38 50 -36 53 -34 54 -31 56 -28 57 -26 59 -23 60 -21 61 -17 62 -14 64 -12 65 -8 65 -5 67 -2 0 55 -64 2 -63 5 -62 8 -61 10 -59 14 -59 17 -58 19 -56 23 -54 24 -54 28 -52 29 -50 33 -48 34 -47 37 -45 39 -43 41 -41 42 -39 45 -36 47 -35 49 -32 50 -30 51 -27 54 -25 55 -22 56 -19 57 -17 59 -14 60 -11 60 -8 62 -4 63 -2 64 0 0zm1237 1236l0 55 0 0 -67 -1 -65 -5 -65 -9 -64 -11 -62 -14 -61 -18 -60 -20 -59 -23 -57 -26 -56 -29 -54 -31 -53 -33 -50 -36 -49 -39 -47 -40 -45 -43 -42 -45 -41 -47 -38 -48 -36 -51 -34 -52 -31 -55 -28 -55 -26 -57 -23 -59 -21 -60 -17 -61 -15 -63 -11 -64 -8 -64 -5 -66 -2 -66 55 0 2 63 4 63 8 62 11 61 14 60 17 59 19 57 22 56 25 55 27 53 30 52 32 50 35 49 36 46 39 45 41 43 43 41 45 39 47 37 48 34 50 32 52 30 54 27 54 25 56 22 58 20 59 16 59 14 61 11 62 8 63 5 64 1 0 0z"/>
    </g>
   </g>
   <g>
    <path class="fil0" d="M9222 14894l-590 -2156 53 -15 590 2156 -53 15zm87 214l-309 -389 14 3 13 2 13 2 13 1 13 1 13 1 13 0 12 0 13 0 12 -1 12 -1 13 -2 12 -2 12 -2 12 -3 12 -3 11 -3 12 -4 11 -4 12 -5 11 -5 11 -5 12 -5 11 -6 10 -7 11 -7 11 -7 11 -7 10 -8 11 -8 10 -9 10 -9 0 0 -68 492z"/>
   </g>
   <path class="fil0" d="M9123 13519l-141 -740 95 0 86 442c15,80 26,144 31,193 32,-63 57,-113 77,-150l263 -485 102 0 -405 740 -108 0z"/>
   <path id="1" class="fil0" d="M9615 13307l92 -9c0,13 -1,21 -1,24 0,22 6,45 17,67 11,23 27,40 46,52 20,12 40,18 62,18 28,0 57,-10 86,-29 30,-19 54,-48 72,-85 18,-37 27,-74 27,-111 0,-41 -12,-74 -36,-99 -25,-25 -57,-37 -97,-37 -27,0 -52,6 -76,19 -23,13 -45,32 -65,57l-80 -5 111 -379 361 0 -18 83 -280 0 -56 189c21,-15 42,-26 65,-34 22,-7 44,-11 67,-11 57,0 103,19 140,56 36,37 54,88 54,153 0,57 -12,109 -37,157 -25,48 -59,84 -103,110 -44,26 -91,39 -141,39 -43,0 -80,-10 -113,-29 -32,-19 -57,-46 -73,-80 -17,-33 -25,-67 -25,-100 0,-4 0,-9 1,-16z"/>
   <g>
    <path class="fil0" d="M14771 5701l-229 0 -291 -401c-21,1 -38,2 -51,2 -5,0 -11,-1 -17,-1 -6,0 -13,0 -19,-1l0 250c0,53 6,87 17,100 16,18 40,27 72,27l34 0 0 24 -367 0 0 -24 32 0c36,0 62,-11 77,-35 9,-13 13,-44 13,-92l0 -555c0,-53 -5,-87 -17,-100 -17,-18 -41,-27 -73,-27l-32 0 0 -24 311 0c91,0 158,7 202,20 43,13 79,38 109,74 30,35 46,77 46,127 0,53 -18,98 -52,137 -34,39 -87,66 -159,82l177 245c40,57 75,94 104,113 29,19 67,30 113,35l0 24zm-607 -441c8,0 15,0 20,0 6,1 11,1 15,1 80,0 141,-18 182,-53 41,-36 62,-81 62,-135 0,-54 -17,-97 -50,-131 -33,-33 -77,-50 -131,-50 -24,0 -57,4 -98,12l0 356z"/>
    <path id="1" class="fil0" d="M14909 4928l209 -101 21 0 0 723c0,48 2,78 6,90 4,11 12,20 25,27 13,6 39,10 78,10l0 24 -323 0 0 -24c40,0 66,-4 78,-10 12,-6 20,-14 25,-25 4,-10 6,-41 6,-92l0 -463c0,-62 -2,-102 -6,-120 -3,-13 -8,-23 -16,-29 -8,-7 -17,-10 -28,-10 -16,0 -38,7 -65,20l-10 -20z"/>
    <g>
     <path class="fil0" d="M15820 5264l55 0 0 0 -2 67 -5 65 -8 65 -11 63 -15 63 -17 61 -20 60 -23 59 -26 57 -29 56 -31 54 -33 52 -36 51 -39 49 -40 46 -43 45 -45 43 -47 41 -49 38 -50 36 -53 34 -54 31 -55 28 -58 26 -58 23 -60 20 -62 18 -62 14 -64 12 -64 8 -66 5 -66 2 0 -55 63 -2 63 -5 62 -8 61 -11 60 -13 58 -17 58 -19 56 -23 55 -24 53 -28 52 -29 50 -33 48 -34 47 -37 45 -39 43 -41 41 -43 39 -44 37 -47 34 -49 32 -50 30 -52 27 -53 25 -55 22 -56 20 -57 16 -59 14 -60 11 -61 8 -61 5 -63 1 -64 0 0zm-1236 -1236l0 -55 0 0 66 1 66 5 64 9 64 11 62 14 62 18 60 20 58 23 58 26 55 29 54 31 53 33 50 36 49 39 47 40 45 43 43 45 40 47 39 48 36 51 33 52 31 55 29 55 26 57 23 59 20 60 17 61 15 63 11 63 8 65 5 66 2 66 -55 0 -1 -64 -5 -62 -8 -62 -11 -61 -14 -60 -16 -59 -20 -57 -22 -56 -25 -55 -27 -53 -30 -52 -32 -50 -34 -49 -37 -46 -39 -45 -41 -43 -43 -41 -45 -39 -47 -37 -48 -34 -50 -32 -52 -30 -53 -27 -55 -25 -56 -22 -58 -20 -58 -16 -60 -14 -61 -11 -62 -8 -63 -5 -63 -1 0 0zm-1237 1236l-55 0 0 0 2 -66 5 -66 8 -65 11 -63 15 -63 17 -61 21 -60 23 -59 26 -57 28 -55 31 -55 34 -52 36 -51 38 -48 41 -47 42 -45 45 -43 47 -40 49 -39 51 -36 52 -33 54 -31 56 -29 57 -26 59 -23 60 -20 61 -18 62 -14 64 -11 65 -9 65 -5 67 -1 0 55 -64 1 -63 5 -62 8 -61 11 -59 14 -59 16 -57 20 -57 22 -54 25 -54 27 -51 30 -51 32 -48 34 -47 37 -45 39 -43 41 -41 43 -38 45 -37 46 -35 49 -32 50 -30 52 -27 53 -25 55 -22 56 -19 57 -17 59 -14 60 -11 61 -7 62 -5 62 -2 64 0 0zm1237 1237l0 55 0 0 -67 -2 -65 -5 -65 -8 -64 -12 -62 -14 -61 -18 -60 -20 -59 -23 -57 -26 -56 -28 -54 -31 -52 -34 -51 -36 -49 -38 -47 -41 -45 -43 -42 -45 -41 -46 -38 -49 -36 -51 -34 -52 -31 -54 -28 -56 -26 -57 -23 -59 -21 -60 -17 -61 -15 -63 -11 -63 -8 -65 -5 -65 -2 -67 55 0 2 64 5 63 7 61 11 61 14 60 17 59 19 57 22 56 25 55 27 53 30 52 32 50 35 49 37 47 38 44 41 43 43 41 45 39 47 37 48 34 51 33 51 29 54 28 54 24 57 23 57 19 59 17 59 13 61 11 62 8 63 5 64 2 0 0z"/>
    </g>
   </g>
   <g>
    <path class="fil0" d="M7538 10211l-544 -1299 51 -21 543 1299 -50 21zm114 201l-357 -345 14 0 13 1 14 0 13 -1 13 0 12 -1 13 -2 13 -1 12 -2 12 -3 12 -3 12 -3 12 -3 12 -4 11 -4 11 -5 12 -5 11 -5 11 -6 10 -5 11 -7 10 -6 11 -7 10 -8 10 -8 10 -8 9 -8 10 -9 9 -9 10 -9 9 -10 9 -10 0 0 -4 496z"/>
   </g>
   <g>
    <path class="fil0" d="M5851 8894l-55 -5 5 -55 55 5 -5 55zm-10 109l-55 -5 5 -55 55 6 -5 54zm-10 110l-55 -5 1 -12 4 -43 55 5 -4 43 -1 12zm-9 109l-54 -5 4 -54 55 4 -5 55zm-8 110l-55 -5 4 -55 55 5 -4 55zm-8 109l-55 -4 4 -55 55 4 -4 55zm-7 109l-55 -4 4 -54 54 4 -3 54zm-6 110l-55 -3 2 -55 55 3 -2 55zm-6 109l-55 -3 3 -55 55 4 -3 54zm-5 110l-55 -3 2 -40 0 -15 55 3 -1 15 -1 40zm-3 109l-55 -2 2 -55 54 3 -1 54zm-3 110l-55 -1 0 -28 1 -28 55 2 -1 27 0 28zm-2 110l-55 -2 1 -55 55 2 -1 55zm-1 109l-54 0 -1 -22 1 -34 55 2 -1 32 0 22zm2 110l-55 0 -1 -55 55 0 1 55zm1 109l-55 1 0 -21 -1 -34 55 0 1 32 0 22zm4 110l-55 1 -2 -55 55 -1 2 55zm5 109l-55 2 -2 -27 -1 -28 55 -1 1 27 2 27zm7 109l-55 3 -3 -55 54 -2 4 54zm8 109l-55 4 -3 -37 -1 -18 54 -3 2 17 3 37zm10 109l-54 5 -6 -55 55 -4 5 54zm12 109l-54 6 -7 -52 0 -4 54 -4 1 2 6 52zm14 109l-55 6 -7 -55 55 -6 7 55zm16 107l-54 8 -9 -54 54 -8 9 54zm18 109l-55 8 -9 -54 55 -8 9 54zm20 107l-54 10 -10 -54 54 -10 10 54zm22 106l-54 12 -1 -5 -10 -50 54 -9 10 47 1 5zm26 107l-54 12 -13 -53 54 -12 13 53zm26 106l-53 14 -8 -30 -6 -25 53 -11 6 22 8 30zm30 105l-53 14 -15 -53 53 -13 15 52zm32 104l-53 16 -17 -52 53 -16 17 52zm34 105l-52 16 -18 -52 53 -16 17 52zm37 102l-52 18 -19 -51 52 -18 19 51zm39 103l-52 18 -20 -51 52 -19 20 52zm42 100l-51 20 -22 -50 51 -21 22 51zm43 100l-50 22 -10 -20 -13 -31 51 -20 12 29 10 20zm47 99l-51 23 -23 -50 50 -22 24 49zm47 98l-49 24 -20 -39 -5 -11 50 -22 4 9 20 39zm51 97l-49 25 -25 -49 49 -24 25 48zm53 96l-49 26 -27 -48 48 -26 28 48zm54 95l-48 26 -27 -47 48 -27 27 48zm56 93l-47 28 -29 -46 47 -29 29 47zm58 93l-47 28 -29 -46 47 -28 29 46zm61 91l-47 30 -30 -46 46 -30 31 46zm61 91l-46 30 -31 -46 46 -29 31 45zm63 89l-45 31 -32 -44 45 -32 32 45zm65 89l-45 31 -33 -44 45 -32 33 45zm66 86l-44 33 -34 -43 44 -33 34 43zm67 87l-44 33 -34 -43 44 -33 34 43zm69 85l-43 34 -35 -42 43 -35 35 43zm69 85l-43 34 -34 -42 43 -35 34 43zm71 83l-42 35 -36 -41 42 -36 36 42zm72 83l-42 35 -36 -41 42 -36 36 42zm72 81l-41 37 -24 -27 -13 -14 42 -36 12 13 24 27zm75 81l-41 37 -37 -41 41 -36 37 40zm73 81l-40 37 -1 -1 -36 -40 41 -36 35 38 1 2zm76 79l-40 38 -38 -40 40 -37 38 39zm77 79l-40 38 -39 -40 41 -37 38 39zm76 78l-39 39 -39 -39 39 -39 39 39zm78 78l-39 38 -39 -39 39 -38 39 39zm78 77l-39 39 -10 -10 -29 -29 39 -38 29 28 10 10zm79 76l-39 39 -39 -38 38 -39 40 38zm79 76l-38 39 -40 -38 38 -39 40 38zm80 75l-38 40 -40 -38 37 -39 41 37zm80 75l-37 39 -41 -37 38 -40 40 38zm81 74l-38 40 -40 -37 38 -40 40 37zm164 187l-469 -163 13 -5 12 -5 12 -6 12 -5 11 -6 12 -7 11 -6 10 -7 11 -7 10 -8 9 -7 10 -8 9 -8 9 -9 9 -8 8 -9 8 -9 8 -10 7 -9 8 -10 7 -11 6 -10 7 -11 6 -11 6 -11 5 -11 5 -12 5 -12 5 -12 4 -13 5 -12 3 -13 0 0 206 451z"/>
   </g>
   <path class="fil0" d="M7919 9324l-141 -740 95 0 85 442c16,80 26,144 32,193 31,-63 57,-113 76,-150l264 -485 102 0 -406 740 -107 0z"/>
   <path id="1" class="fil0" d="M8489 9324c8,-49 26,-109 52,-179 31,-85 72,-169 123,-252 50,-83 106,-155 168,-215l-368 0 18 -83 471 0 -17 83c-80,71 -149,161 -209,272 -70,129 -117,253 -143,374l-95 0z"/>
   <g>
    <path class="fil0" d="M15703 7538l-375 -1264 53 -16 375 1264 -53 16zm92 211l-317 -381 13 2 14 2 13 2 13 1 13 1 13 0 12 0 13 -1 13 0 12 -1 12 -2 12 -2 12 -2 12 -2 12 -3 12 -4 12 -3 11 -4 12 -5 11 -4 11 -6 11 -5 11 -6 11 -6 11 -7 11 -7 10 -7 11 -8 10 -8 10 -8 10 -9 10 -9 0 0 -57 492z"/>
   </g>
   <g>
    <path class="fil0" d="M14057 6471l-52 -18 18 -52 52 18 -18 52zm-36 104l-52 -18 18 -52 52 18 -18 52zm-35 103l-52 -18 18 -51 51 17 -17 52zm-36 104l-52 -18 18 -52 52 18 -18 52zm-36 104l-52 -18 18 -52 52 18 -18 52zm-36 104l-52 -18 18 -52 52 18 -18 52zm-36 104l-52 -18 18 -52 52 18 -18 52zm-36 104l-51 -18 17 -52 52 18 -18 52zm-35 103l-52 -17 18 -52 52 18 -18 51zm-36 104l-52 -18 18 -52 52 18 -18 52zm-36 104l-52 -18 18 -52 52 18 -18 52zm-36 104l-52 -18 18 -52 52 18 -18 52zm-36 104l-52 -18 18 -52 52 18 -18 52zm-35 104l-52 -18 18 -52 52 18 -18 52zm-36 104l-52 -18 18 -52 52 18 -18 52zm-36 103l-52 -18 18 -51 52 17 -18 52zm-36 104l-52 -18 18 -52 52 18 -18 52zm-36 104l-52 -18 18 -52 52 18 -18 52zm-35 104l-52 -18 18 -52 51 18 -17 52zm-36 104l-52 -18 18 -52 52 18 -18 52zm-36 104l-52 -18 18 -52 52 18 -18 52zm-36 103l-52 -17 18 -52 52 18 -18 51zm-36 104l-52 -18 18 -52 52 18 -18 52zm-36 104l-52 -18 18 -52 52 18 -18 52zm-35 104l-52 -18 18 -52 51 18 -17 52zm-36 104l-52 -18 18 -52 52 18 -18 52zm-36 104l-52 -18 18 -52 52 18 -18 52zm-36 104l-52 -18 18 -52 52 18 -18 52zm-36 103l-52 -18 18 -51 52 17 -18 52zm-36 104l-52 -18 18 -52 52 18 -18 52zm-36 104l-51 -18 17 -52 52 18 -18 52zm-103 216l-36 -494 9 9 10 10 10 8 10 9 10 8 10 8 11 7 10 7 11 7 10 6 11 6 11 6 11 5 12 5 11 5 11 4 12 4 12 3 12 3 12 3 12 2 12 2 12 2 13 1 12 1 13 0 13 1 13 0 13 -1 13 -1 14 -1 13 -2 0 0 -333 367z"/>
   </g>
   <path class="fil0" d="M16255 6839l-141 -740 95 0 86 441c15,80 26,145 31,193 31,-62 57,-112 77,-149l263 -485 102 0 -406 740 -107 0z"/>
   <path id="1" class="fil0" d="M16882 6410c26,-21 51,-37 77,-47 25,-11 51,-16 75,-16 57,0 103,19 140,57 36,38 55,90 55,155 0,83 -27,155 -82,215 -47,51 -104,77 -172,77 -61,0 -112,-22 -153,-67 -41,-45 -61,-109 -61,-192 0,-74 13,-151 39,-230 20,-61 45,-111 75,-151 30,-39 62,-68 95,-87 34,-18 71,-27 114,-27 50,0 91,15 123,47 32,31 51,76 55,134l-85 9c-5,-40 -16,-69 -34,-87 -18,-18 -40,-27 -66,-27 -27,0 -55,11 -82,32 -28,21 -52,52 -72,94 -20,42 -33,79 -41,111zm-31 221c0,42 13,77 39,105 25,28 55,43 87,43 23,0 48,-9 73,-26 26,-18 47,-44 65,-79 18,-35 27,-71 27,-105 0,-45 -12,-81 -37,-109 -25,-27 -55,-40 -90,-40 -40,0 -78,20 -112,59 -35,40 -52,90 -52,152z"/>
   <g>
    <path class="fil0" d="M4432 16655l0 107c0,68 -8,142 -25,221l-108 0c12,-52 19,-87 21,-106 6,-59 9,-102 9,-130l0 -645c0,-75 7,-131 22,-167 15,-37 42,-67 81,-92 39,-24 85,-36 139,-36 75,0 135,20 180,60 45,41 67,89 67,144 0,36 -9,70 -27,102 -18,32 -47,60 -85,84 114,54 171,137 171,251 0,50 -12,98 -36,142 -23,43 -56,77 -97,99 -41,23 -84,35 -127,35 -29,0 -57,-5 -84,-15 -28,-9 -61,-27 -101,-54zm0 -50c41,29 77,50 107,62 23,9 46,14 68,14 43,0 79,-17 107,-53 29,-35 44,-90 44,-167 0,-48 -7,-90 -21,-126 -14,-36 -38,-75 -73,-118 -29,10 -54,15 -75,15 -25,0 -42,-4 -52,-12 -11,-7 -16,-16 -16,-24 0,-8 4,-16 12,-22 8,-6 21,-9 38,-9 21,0 51,5 93,16 29,-58 43,-114 43,-165 0,-53 -13,-94 -39,-123 -25,-29 -58,-44 -96,-44 -49,0 -86,21 -113,62 -18,27 -27,71 -27,132l0 562z"/>
    <path id="1" class="fil0" d="M5347 16860l-42 116 -353 0 0 -19c121,-110 202,-200 243,-269 26,-44 39,-86 39,-126 0,-38 -11,-69 -35,-93 -23,-25 -50,-37 -83,-37 -29,0 -55,9 -79,26 -23,17 -40,42 -51,76l-17 0c8,-55 27,-97 57,-126 31,-29 69,-44 114,-44 48,0 89,16 122,47 32,31 48,68 48,111 0,30 -7,61 -22,92 -22,47 -57,98 -107,152 -72,79 -117,126 -135,143l156 0c43,0 72,-4 88,-11 17,-7 30,-20 41,-38l16 0z"/>
    <circle class="fil1 str0" cx="4823" cy="16395" r="975"/>
   </g>
   <g>
    <path class="fil0" d="M10455 4278l0 107c0,68 -9,142 -26,222l-107 0c11,-53 19,-88 21,-107 5,-59 8,-102 8,-130l0 -645c0,-75 8,-131 23,-167 15,-37 41,-67 80,-92 39,-24 85,-36 140,-36 74,0 135,20 179,60 45,41 68,89 68,144 0,36 -9,70 -28,102 -18,32 -46,60 -85,84 114,54 171,137 171,251 0,50 -12,98 -35,142 -24,43 -56,77 -98,99 -41,23 -83,35 -127,35 -28,0 -56,-5 -84,-15 -27,-9 -61,-27 -100,-54zm0 -50c41,29 76,50 106,62 23,9 46,14 69,14 42,0 78,-17 107,-53 29,-35 43,-90 43,-167 0,-48 -7,-90 -21,-126 -14,-35 -38,-75 -73,-118 -29,10 -53,15 -74,15 -25,0 -43,-4 -53,-12 -10,-7 -15,-16 -15,-24 0,-8 4,-16 11,-22 8,-6 21,-9 39,-9 20,0 51,5 92,16 29,-58 44,-114 44,-165 0,-53 -13,-94 -39,-123 -26,-29 -58,-44 -97,-44 -48,0 -86,21 -113,62 -17,27 -26,71 -26,132l0 562z"/>
    <path id="1" class="fil0" d="M11370 4483l-43 116 -353 0 0 -19c121,-110 202,-200 243,-269 26,-44 40,-86 40,-126 0,-38 -12,-69 -35,-93 -23,-24 -51,-37 -83,-37 -30,0 -56,9 -79,26 -24,17 -41,42 -52,76l-16 0c7,-55 26,-97 56,-126 31,-29 69,-43 114,-43 49,0 89,15 122,46 32,31 49,68 49,111 0,30 -8,61 -23,92 -21,47 -57,98 -107,152 -72,79 -117,126 -135,143l156 0c43,0 73,-4 89,-11 16,-7 29,-20 40,-38l17 0z"/>
    <circle class="fil1 str0" cx="10846" cy="4018" r="975"/>
   </g>
   <g>
    <path class="fil0" d="M17723 16240l0 107c0,68 -9,142 -26,221l-107 0c12,-52 19,-88 21,-107 6,-58 9,-102 9,-129l0 -645c0,-76 7,-131 22,-168 15,-36 42,-67 81,-91 38,-24 85,-37 139,-37 75,0 135,21 180,61 45,40 67,88 67,144 0,36 -9,70 -27,102 -19,32 -47,60 -85,83 113,54 170,138 170,252 0,50 -12,97 -35,141 -24,44 -56,77 -97,100 -42,23 -84,34 -128,34 -28,0 -56,-4 -83,-14 -28,-10 -62,-28 -101,-54zm0 -50c41,29 76,49 107,62 22,9 45,14 68,14 43,0 78,-18 107,-53 29,-35 43,-91 43,-167 0,-48 -7,-90 -21,-126 -13,-36 -38,-75 -73,-118 -28,9 -53,14 -74,14 -25,0 -43,-4 -53,-11 -10,-8 -15,-16 -15,-25 0,-8 4,-15 12,-21 8,-7 21,-10 38,-10 20,0 51,6 92,17 29,-59 44,-114 44,-166 0,-53 -13,-94 -39,-123 -26,-29 -58,-43 -97,-43 -48,0 -86,21 -113,62 -17,27 -26,71 -26,132l0 562z"/>
    <path id="1" class="fil0" d="M18638 16445l-42 115 -353 0 0 -18c121,-110 202,-200 242,-269 27,-44 40,-86 40,-126 0,-38 -12,-69 -35,-94 -23,-24 -51,-36 -83,-36 -29,0 -56,9 -79,26 -23,17 -41,42 -52,75l-16 0c7,-54 26,-96 57,-125 30,-29 68,-44 114,-44 48,0 89,16 121,47 33,31 49,68 49,111 0,30 -7,61 -22,92 -22,47 -58,97 -107,151 -72,79 -117,127 -135,143l156 0c42,0 72,-3 88,-10 16,-7 30,-20 40,-38l17 0z"/>
    <circle class="fil1 str0" cx="18114" cy="15980" r="975"/>
   </g>
   <g>
    <path class="fil0" d="M8477 16423l-2679 0 0 -55 2679 0 0 55zm229 -28l-455 195 5 -12 6 -12 5 -12 5 -12 4 -13 4 -12 4 -12 3 -12 3 -12 3 -13 2 -12 1 -12 2 -12 1 -12 0 -13 0 -12 0 -12 0 -12 -1 -13 -2 -12 -1 -12 -2 -12 -3 -12 -3 -13 -3 -12 -4 -12 -4 -12 -4 -12 -5 -13 -5 -12 -6 -12 -5 -12 0 0 455 195z"/>
   </g>
   <g>
    <path class="fil0" d="M7627 6794l2551 -2071 35 43 -2551 2071 -35 -43zm-161 166l231 -439 3 13 4 13 3 13 4 13 5 12 4 12 5 12 5 11 6 11 6 11 6 11 6 11 7 10 7 10 7 10 7 10 8 9 8 9 9 9 9 9 9 8 9 8 9 8 10 8 11 7 10 7 11 7 11 7 11 7 12 6 12 6 12 5 0 0 -477 136z"/>
   </g>
   <g>
    <path class="fil0" d="M11882 4016l-23 50 -50 -23 23 -50 50 23zm100 45l-23 50 -50 -23 23 -50 50 23zm100 45l-23 50 -50 -23 23 -50 50 23zm100 45l-22 50 -51 -22 23 -50 50 22zm100 45l-22 50 -50 -22 22 -50 50 22zm100 46l-22 50 -50 -23 22 -50 50 23zm100 45l-22 50 -50 -23 22 -50 50 23zm101 45l-23 50 -50 -23 23 -50 50 23zm100 45l-23 50 -50 -22 23 -51 50 23zm100 45l-23 50 -50 -22 23 -50 50 22zm100 45l-23 50 -50 -22 23 -50 50 22zm100 46l-22 50 -50 -23 22 -50 50 23zm100 45l-22 50 -50 -23 22 -50 50 23zm100 45l-22 50 -50 -23 22 -50 50 23zm248 142l-496 -10 11 -8 10 -9 9 -9 10 -9 9 -10 9 -9 8 -10 8 -10 7 -9 8 -11 7 -10 6 -10 6 -11 6 -11 6 -10 5 -12 5 -11 4 -11 5 -12 3 -11 4 -12 3 -12 3 -12 2 -13 2 -12 2 -13 1 -12 1 -13 1 -13 0 -14 0 -13 0 -14 0 0 335 366z"/>
   </g>
   <g>
    <path class="fil0" d="M11360 16961l5809 -755 7 55 -5809 755 -7 -55zm-224 57l427 -252 -4 13 -4 12 -4 13 -3 13 -3 12 -2 13 -2 13 -2 12 -1 13 -1 12 0 12 0 13 0 12 1 12 1 12 1 13 2 12 2 12 2 12 3 12 3 12 4 11 4 12 5 12 4 12 6 11 5 12 6 11 6 12 7 11 7 12 8 11 0 0 -478 -135z"/>
   </g>
   <g>
    <path class="fil0" d="M17633 15085l36 -41 41 36 -36 41 -41 -36zm-82 -73l37 -41 41 36 -37 41 -41 -36zm-82 -74l37 -41 41 37 -37 41 -41 -37zm-82 -73l37 -41 41 37 -37 41 -41 -37zm-82 -73l37 -41 41 37 -37 41 -41 -37zm-82 -73l37 -41 41 37 -37 41 -41 -37zm-82 -73l37 -41 41 36 -37 41 -41 -36zm-82 -73l37 -41 41 36 -37 41 -41 -36zm-82 -73l37 -41 41 36 -37 41 -41 -36zm-82 -73l37 -41 41 36 -37 41 -41 -36zm-82 -74l37 -41 41 37 -37 41 -41 -37zm-82 -73l37 -41 41 37 -37 41 -41 -37zm-81 -73l36 -41 41 37 -37 41 -40 -37zm-82 -73l36 -41 41 37 -36 41 -41 -37zm-82 -73l36 -41 41 36 -36 41 -41 -36zm-82 -73l36 -41 41 36 -36 41 -41 -36zm-82 -73l36 -41 41 36 -36 41 -41 -36zm-82 -73l36 -41 41 36 -36 41 -41 -36zm-82 -74l36 -41 41 37 -36 41 -41 -37zm-82 -73l36 -41 41 37 -36 41 -41 -37zm-82 -73l37 -41 40 37 -36 41 -41 -37zm-82 -73l37 -41 41 37 -37 41 -41 -37zm-82 -73l37 -41 41 36 -37 41 -41 -36zm-82 -73l37 -41 41 36 -37 41 -41 -36zm-82 -74l37 -41 41 37 -37 41 -41 -37zm-82 -73l37 -41 41 37 -37 41 -41 -37zm-82 -73l37 -41 41 37 -37 41 -41 -37zm-82 -73l37 -41 41 37 -37 41 -41 -37zm-82 -73l37 -41 41 36 -37 41 -41 -36zm-82 -73l37 -41 41 36 -37 41 -41 -36zm-82 -74l37 -41 41 37 -37 41 -41 -37zm-82 -73l37 -41 41 37 -37 41 -41 -37zm-81 -73l36 -41 41 37 -36 41 -41 -37zm-82 -73l36 -41 41 37 -36 41 -41 -37zm-82 -73l36 -41 41 36 -36 41 -41 -36zm-82 -73l36 -41 41 36 -36 41 -41 -36zm-82 -73l36 -41 41 36 -36 41 -41 -36zm-82 -74l36 -41 41 37 -36 41 -41 -37zm-82 -73l36 -41 41 37 -36 41 -41 -37zm-82 -73l36 -41 41 37 -36 41 -41 -37zm-82 -73l36 -41 41 36 -36 41 -41 -36zm-82 -73l36 -41 41 36 -36 41 -41 -36zm-82 -73l36 -41 41 36 -36 41 -41 -36zm-82 -74l36 -41 41 37 -36 41 -41 -37zm-82 -73l36 -41 41 37 -36 41 -41 -37zm-82 -73l36 -41 41 37 -36 41 -41 -37zm-82 -73l37 -41 41 37 -37 40 -41 -36zm-39 -108l35 30 -37 41 -34 -30 36 -41zm-189 -132l470 157 -12 6 -13 5 -12 6 -11 6 -12 6 -11 6 -11 7 -10 7 -10 7 -10 8 -10 7 -10 8 -9 9 -8 8 -9 9 -8 9 -8 9 -8 9 -7 10 -8 10 -6 10 -7 11 -6 11 -6 11 -6 11 -5 11 -6 12 -4 12 -5 13 -4 12 -4 13 -4 13 0 0 -210 -449z"/>
   </g>
   <g>
    <path class="fil0" d="M647 16738l0 107c0,68 -9,142 -26,222l-107 0c12,-53 19,-88 21,-107 6,-59 9,-102 9,-130l0 -645c0,-75 7,-131 22,-167 15,-37 42,-67 81,-92 38,-24 85,-36 139,-36 75,0 135,20 180,60 45,41 67,89 67,144 0,36 -9,70 -27,102 -19,32 -47,60 -85,84 113,54 170,137 170,251 0,50 -12,98 -35,142 -24,43 -56,77 -97,99 -42,23 -84,35 -128,35 -28,0 -56,-5 -83,-15 -28,-9 -62,-27 -101,-54zm0 -50c41,29 76,50 107,62 22,10 45,14 68,14 42,0 78,-17 107,-52 29,-36 43,-91 43,-168 0,-48 -7,-90 -21,-125 -13,-36 -38,-76 -73,-119 -28,10 -53,15 -74,15 -25,0 -43,-4 -53,-12 -10,-7 -15,-16 -15,-24 0,-8 4,-16 12,-22 8,-6 20,-9 38,-9 20,0 51,5 92,16 29,-58 44,-114 44,-165 0,-53 -13,-94 -39,-123 -26,-29 -58,-44 -97,-44 -48,0 -86,21 -113,62 -17,27 -26,71 -26,132l0 562z"/>
    <path id="1" class="fil0" d="M1254 16519l146 -71 15 0 0 505c0,34 1,55 4,63 3,8 8,14 17,19 9,4 27,7 55,7l0 17 -227 0 0 -17c28,0 46,-3 55,-7 9,-4 15,-11 19,-20 2,-6 3,-27 3,-62l0 -323c0,-43 -1,-72 -4,-84 -2,-9 -6,-16 -12,-21 -5,-4 -12,-6 -20,-6 -10,0 -25,4 -45,14l-6 -14z"/>
    <circle class="fil1 str0" cx="1002" cy="16478" r="975"/>
   </g>
   <g>
    <path class="fil0" d="M4094 3988l0 106c0,69 -8,142 -26,222l-107 0c12,-52 19,-88 21,-107 6,-59 9,-102 9,-129l0 -646c0,-75 7,-131 22,-167 15,-37 42,-67 81,-91 39,-25 85,-37 139,-37 75,0 135,20 180,60 45,41 67,89 67,145 0,35 -9,69 -27,102 -18,32 -47,60 -85,83 114,54 170,138 170,251 0,51 -11,98 -35,142 -24,44 -56,77 -97,100 -41,23 -84,34 -127,34 -29,0 -57,-5 -84,-14 -28,-10 -61,-28 -101,-54zm0 -50c41,28 77,49 107,62 23,9 46,14 68,14 43,0 78,-18 107,-53 29,-35 44,-91 44,-167 0,-48 -7,-90 -21,-126 -14,-36 -38,-76 -73,-119 -29,10 -54,15 -75,15 -25,0 -42,-4 -52,-11 -11,-8 -16,-16 -16,-25 0,-8 4,-15 12,-22 8,-6 21,-9 38,-9 21,0 51,5 93,16 29,-58 43,-113 43,-165 0,-53 -13,-94 -39,-123 -26,-29 -58,-43 -96,-43 -49,0 -87,20 -113,61 -18,28 -27,72 -27,132l0 563z"/>
    <path id="1" class="fil0" d="M4701 3768l146 -71 15 0 0 505c0,34 1,55 4,63 3,8 9,15 18,19 8,5 26,7 54,8l0 16 -226 0 0 -16c27,-1 46,-3 54,-7 9,-5 15,-11 19,-21 2,-6 4,-27 4,-62l0 -323c0,-43 -2,-71 -5,-84 -2,-9 -6,-16 -11,-20 -6,-5 -13,-7 -20,-7 -11,0 -26,5 -45,14l-7 -14z"/>
    <circle class="fil1 str0" cx="4449" cy="3727" r="975"/>
   </g>
   <polygon class="fil0" points="9295,6186 9295,6045 9574,6045 9574,6186 "/>
   <path id="1" class="fil0" d="M9987 6384l-141 0 0 -536c-52,49 -113,85 -183,108l0 -129c37,-12 77,-35 120,-69 44,-34 73,-73 90,-118l114 0 0 744z"/>
   <g>
    <path class="fil0" d="M4757 15193l-335 -10490 55 -2 335 10490 -55 2zm35 228l-210 -449 12 5 13 5 12 5 12 4 13 4 12 4 12 3 13 3 12 2 12 3 13 1 12 2 12 1 12 0 12 0 13 0 12 0 12 -1 12 -2 12 -1 13 -3 12 -2 12 -3 12 -3 12 -4 12 -4 12 -4 12 -5 12 -5 12 -6 12 -6 12 -6 0 0 -180 462z"/>
   </g>
   <g>
    <path class="fil0" d="M5481 3703l-3 55 -55 -3 3 -55 55 3zm109 6l-3 55 -55 -3 3 -55 55 3zm110 6l-3 54 -55 -2 3 -55 55 3zm110 5l-3 55 -55 -3 3 -54 55 2zm109 6l-3 55 -55 -3 3 -55 55 3zm110 6l-3 55 -55 -3 3 -55 55 3zm110 6l-3 55 -55 -3 3 -55 55 3zm109 6l-3 55 -55 -3 3 -55 55 3zm110 6l-3 55 -55 -3 3 -55 55 3zm110 6l-3 54 -55 -2 3 -55 55 3zm109 5l-3 55 -54 -3 2 -54 55 2zm110 6l-3 55 -55 -3 3 -55 55 3zm110 6l-3 55 -55 -3 3 -55 55 3zm109 6l-3 55 -54 -3 3 -55 54 3zm110 6l-3 55 -55 -3 3 -55 55 3zm110 6l-3 55 -55 -3 3 -55 55 3zm109 6l-2 55 -55 -3 3 -55 54 3zm110 6l-3 54 -55 -3 3 -54 55 3zm110 5l-3 55 -55 -3 3 -55 55 3zm110 6l-3 55 -55 -3 3 -55 55 3zm109 6l-3 55 -54 -3 2 -55 55 3zm110 6l-3 55 -55 -3 3 -55 55 3zm110 6l-3 55 -55 -3 3 -55 55 3zm109 6l-3 55 -54 -3 3 -55 54 3zm110 6l-3 54 -55 -3 3 -54 55 3zm110 5l-3 55 -55 -3 3 -55 55 3zm110 6l-3 55 -55 -3 3 -55 55 3zm109 6l-3 55 -55 -3 3 -55 55 3zm110 6l-3 55 -55 -3 3 -55 55 3zm110 6l-3 55 -55 -3 3 -55 55 3zm109 6l-3 55 -54 -3 2 -55 55 3zm110 6l-3 54 -55 -3 3 -54 55 3zm110 5l-3 55 -55 -3 3 -55 55 3zm109 6l-2 55 -55 -3 3 -55 54 3zm110 6l-3 55 -55 -3 3 -55 55 3zm110 6l-3 55 -55 -3 3 -55 55 3zm110 6l-3 55 -55 -3 3 -55 55 3zm109 6l-3 55 -54 -3 2 -55 55 3zm103 60l-51 -2 3 -55 51 3 -3 54zm230 -15l-465 171 6 -12 6 -12 6 -12 6 -12 5 -12 4 -12 5 -12 4 -12 3 -12 3 -12 3 -12 2 -12 2 -12 2 -12 1 -12 1 -12 0 -13 0 -12 0 -12 0 -12 -2 -13 -1 -12 -2 -12 -2 -13 -3 -12 -3 -12 -3 -13 -4 -12 -4 -13 -4 -12 -5 -13 -5 -12 0 0 444 219z"/>
   </g>
   <g>
    <path class="fil0" d="M19317 15949l1228 -16 0 55 -1227 16 -1 -55zm-228 31l453 -202 -6 13 -5 12 -5 12 -5 12 -4 13 -4 12 -3 12 -3 12 -3 13 -2 12 -2 12 -2 12 -1 13 -1 12 0 12 0 12 0 12 1 13 1 12 1 12 2 12 3 12 2 13 3 12 4 12 3 12 5 12 4 12 5 13 5 12 6 12 6 12 0 0 -458 -189z"/>
   </g>
   <g>
    <path class="fil0" d="M3621 16458l-1643 48 -2 -55 1643 -48 2 55zm228 -34l-450 208 6 -12 5 -12 5 -13 4 -12 4 -12 4 -13 3 -12 3 -12 2 -13 2 -12 2 -12 2 -12 1 -13 0 -12 0 -12 0 -12 0 -13 -1 -12 -2 -12 -1 -12 -2 -12 -3 -12 -3 -12 -3 -13 -3 -12 -4 -12 -5 -12 -4 -12 -6 -12 -5 -12 -6 -12 -6 -12 0 0 461 182z"/>
   </g>
  </g>
 </g>
</svg>
