<?xml version="1.0" encoding="UTF-8"?>
<!DOCTYPE svg PUBLIC "-//W3C//DTD SVG 1.1//EN" "http://www.w3.org/Graphics/SVG/1.1/DTD/svg11.dtd">
<!-- Creator: CorelDRAW Home & Student X8 -->
<svg xmlns="http://www.w3.org/2000/svg" xml:space="preserve" width="166.124mm" height="61.0635mm" version="1.1" style="shape-rendering:geometricPrecision; text-rendering:geometricPrecision; image-rendering:optimizeQuality; fill-rule:evenodd; clip-rule:evenodd"
viewBox="0 0 15931 5856"
 xmlns:xlink="http://www.w3.org/1999/xlink">
 <defs>
  <style type="text/css">
   <![CDATA[
    .str0 {stroke:#2B2A29;stroke-width:38.3593}
    .str2 {stroke:#2B2A29;stroke-width:28.7694}
    .str1 {stroke:#2B2A29;stroke-width:19.1796}
    .fil0 {fill:none}
    .fil1 {fill:#2B2A29;fill-rule:nonzero}
   ]]>
  </style>
 </defs>
 <g id="Warstwa_x0020_1">
  <metadata id="CorelCorpID_0Corel-Layer"/>
  <g id="_717175064">
   <polyline class="fil0 str0" points="3531,2059 3471,2208 3351,1906 3230,2208 3110,1906 2990,2208 2869,1906 2809,2060 "/>
   <polyline class="fil0 str0" points="5114,2059 5054,2208 4934,1906 4813,2208 4693,1906 4573,2208 4452,1906 4392,2060 "/>
   <polyline class="fil0 str0" points="5114,4986 5054,5135 4934,4833 4813,5135 4693,4833 4573,5135 4452,4833 4392,4987 "/>
   <polyline class="fil0 str0" points="3531,4986 3471,5135 3351,4833 3230,5135 3110,4833 2990,5135 2869,4833 2809,4987 "/>
   <path class="fil0 str0" d="M5434 1664l582 0m-572 -264c197,184 346,182 538,-2"/>
   <path class="fil0 str0" d="M6153 4656l0 582m264 -572c-184,196 -183,346 1,538"/>
   <polygon class="fil1" points="15085,5604 15275,5604 15275,5645 15085,5645 "/>
   <polyline class="fil0 str1" points="9248,1857 11580,1857 11580,293 8862,293 "/>
   <g>
    <path class="fil1" d="M3993 298l4689 0 0 19 -4689 0 -9 -9 9 -10zm-9 10l0 -10 9 0 -9 10zm0 1732l0 -1732 19 0 0 1732 -19 0zm77 0l0 0 0 4 0 3 0 4 -1 3 -1 3 -1 3 -1 4 -1 3 -1 3 -2 3 -2 2 -1 3 -2 3 -2 2 -2 3 -3 2 -2 3 -2 2 -3 2 -3 2 -2 1 -3 2 -3 2 -3 1 -3 1 -4 1 -3 1 -3 1 -3 1 -4 0 -3 0 -4 0 0 0 -3 0 -4 0 -3 0 -4 -1 -3 -1 -3 -1 -3 -1 -3 -1 -3 -1 -3 -2 -3 -2 -3 -1 -3 -2 -2 -2 -3 -2 -2 -3 -2 -2 -2 -3 -2 -2 -2 -3 -2 -3 -2 -2 -1 -3 -2 -3 -1 -3 -1 -4 -1 -3 -1 -3 0 -3 -1 -4 0 -3 0 -4 0 0 0 -3 0 -4 1 -3 0 -4 1 -3 1 -3 1 -3 1 -3 2 -3 1 -3 2 -3 2 -3 2 -3 2 -2 2 -3 2 -2 2 -2 3 -2 2 -2 3 -2 3 -2 3 -2 3 -1 3 -2 3 -1 3 -1 3 -1 3 -1 4 0 3 -1 4 0 3 0 0 0 4 0 3 0 4 1 3 0 3 1 3 1 4 1 3 1 3 2 3 1 3 2 2 2 3 2 3 2 2 2 2 2 3 2 2 3 2 2 2 3 1 3 2 3 2 3 1 3 1 3 1 3 1 3 1 3 1 4 0 3 0 4 0 3z"/>
   </g>
   <line class="fil0 str1" x1="5725" y1="1531" x2="5725" y2= "636" />
   <g>
    <path class="fil1" d="M6846 2093l0 0 -4 0 -3 0 -4 0 -3 -1 -3 -1 -4 -1 -3 -1 -3 -1 -3 -1 -3 -2 -3 -1 -3 -2 -2 -2 -3 -2 -2 -2 -3 -3 -2 -2 -2 -2 -2 -3 -2 -3 -2 -2 -1 -3 -2 -3 -1 -3 -1 -3 -2 -4 0 -3 -1 -3 -1 -3 0 -4 -1 -3 0 -4 34 0 0 2 1 2 0 1 0 2 1 2 0 1 1 2 0 1 1 2 1 1 0 2 1 1 1 2 1 1 1 1 1 1 2 1 1 2 1 1 2 0 1 1 1 1 2 1 1 1 2 0 1 1 2 0 2 1 1 0 2 0 2 0 2 0 0 0 0 34zm68 -68l0 0 0 4 -1 3 0 4 -1 3 0 3 -1 3 -1 4 -2 3 -1 3 -2 3 -1 3 -2 2 -2 3 -2 3 -2 2 -2 2 -3 3 -2 2 -3 2 -2 2 -3 2 -3 1 -3 2 -3 1 -3 1 -3 1 -3 1 -4 1 -3 1 -4 0 -3 0 -3 0 0 -34 1 0 2 0 2 0 1 0 2 -1 2 0 1 -1 2 0 1 -1 2 -1 1 -1 2 -1 1 0 1 -1 1 -2 2 -1 1 -1 1 -1 1 -1 1 -2 1 -1 1 -2 0 -1 1 -2 1 -1 0 -2 1 -1 0 -2 0 -2 0 -1 1 -2 0 -2 0 0 34 0zm-68 -68l0 0 3 0 3 0 4 1 3 0 4 1 3 1 3 1 3 1 3 2 3 1 3 2 3 2 2 2 3 2 2 2 3 2 2 2 2 3 2 2 2 3 2 3 1 3 2 3 1 3 2 3 1 3 1 3 0 3 1 4 0 3 1 4 0 3 -34 0 0 -2 -1 -1 0 -2 0 -2 0 -1 -1 -2 0 -2 -1 -1 -1 -2 0 -1 -1 -1 -1 -2 -1 -1 -1 -1 -1 -2 -1 -1 -2 -1 -1 -1 -1 -1 -1 -1 -2 -1 -1 -1 -2 -1 -1 0 -2 -1 -1 0 -2 -1 -2 0 -1 -1 -2 0 -2 0 -1 0 0 0 0 -34zm-69 68l0 -3 1 -4 0 -3 1 -4 1 -3 0 -3 2 -3 1 -3 1 -3 2 -3 1 -3 2 -3 2 -3 2 -2 2 -3 2 -2 3 -2 2 -2 3 -2 2 -2 3 -2 3 -2 3 -1 3 -2 3 -1 3 -1 4 -1 3 -1 3 0 4 -1 3 0 4 0 0 34 -2 0 -2 0 -2 0 -1 1 -2 0 -2 1 -1 0 -2 1 -1 0 -2 1 -1 1 -1 1 -2 1 -1 1 -1 1 -2 1 -1 1 -1 2 -1 1 -1 1 -1 2 0 1 -1 1 -1 2 0 1 -1 2 0 2 -1 1 0 2 0 2 -1 1 0 2 -34 0zm-1663 -9l1684 0 0 19 -1684 0 0 -19z"/>
   </g>
   <g>
    <path class="fil1" d="M5687 2055l0 -3 1 -4 0 -3 1 -4 0 -3 1 -3 1 -3 2 -3 1 -3 1 -3 2 -3 2 -3 2 -3 2 -2 2 -3 2 -2 3 -2 2 -3 3 -2 2 -1 3 -2 3 -2 3 -1 3 -2 3 -1 3 -1 3 -1 4 -1 3 0 3 -1 4 0 3 0 0 0 4 0 3 0 4 1 3 0 3 1 4 1 3 1 3 1 3 2 3 1 3 2 2 2 3 1 3 2 2 3 3 2 2 2 2 3 2 2 2 3 2 3 1 3 2 3 1 3 1 3 2 3 0 3 1 3 1 4 0 3 0 4 1 3 0 0 -1 4 0 3 0 3 -1 4 -1 3 0 3 -2 3 -1 4 -1 3 -2 2 -1 3 -2 3 -2 3 -2 2 -2 3 -2 2 -3 2 -2 3 -3 2 -3 2 -2 1 -3 2 -3 2 -3 1 -3 1 -3 1 -4 1 -3 1 -3 0 -4 1 -3 0 -4 0 0 0 -3 0 -4 0 -3 -1 -3 0 -4 -1 -3 -1 -3 -1 -3 -1 -3 -1 -3 -2 -3 -2 -3 -1 -2 -2 -3 -2 -2 -3 -3 -2 -2 -2 -2 -3 -2 -2 -2 -3 -2 -3 -2 -3 -1 -2 -1 -3 -2 -4 -1 -3 -1 -3 0 -3 -1 -4 0 -3 -1 -3 0 -4 0 0zm78 -389l0 389 -19 0 0 -389 19 0z"/>
   </g>
   <path class="fil0 str0" d="M8874 582l0 -582m-264 572c184,-197 183,-346 -1,-538"/>
   <path class="fil0 str0" d="M8830 5853l0 -582m-264 572c184,-197 182,-346 -2,-538"/>
   <polygon class="fil1" points="15098,1882 15168,1882 15168,1813 15226,1813 15226,1882 15296,1882 15296,1941 15226,1941 15226,2010 15168,2010 15168,1941 15098,1941 "/>
   <line class="fil0 str1" x1="4392" y1="2060" x2="3531" y2= "2060" />
   <g>
    <path class="fil1" d="M6890 3288l0 0 -3 0 -4 0 -3 -1 -3 0 -4 -1 -3 -1 -3 -1 -3 -1 -3 -2 -3 -1 -3 -2 -3 -2 -2 -1 -3 -2 -2 -3 -3 -2 -2 -2 -2 -3 -2 -2 -2 -3 -2 -3 -2 -3 -1 -3 -1 -3 -2 -3 -1 -3 -1 -3 0 -3 -1 -4 -1 -3 0 -4 0 -3 34 0 0 2 0 1 1 2 0 2 0 1 1 2 0 2 1 1 1 2 0 1 1 2 1 1 1 1 1 2 1 1 1 1 1 1 2 1 1 1 1 1 2 1 1 1 2 1 1 0 2 1 1 0 2 1 1 0 2 1 2 0 2 0 1 0 0 0 0 34zm69 -68l0 0 -1 3 0 4 0 3 -1 4 -1 3 -1 3 -1 3 -1 3 -1 3 -2 3 -1 3 -2 3 -2 3 -2 2 -2 3 -2 2 -3 2 -2 3 -3 2 -3 1 -2 2 -3 2 -3 1 -3 2 -3 1 -3 1 -4 1 -3 1 -3 0 -4 1 -3 0 -4 0 0 -34 2 0 2 0 2 0 1 -1 2 0 1 -1 2 0 2 -1 1 0 2 -1 1 -1 1 -1 2 -1 1 -1 1 -1 1 -1 2 -1 1 -1 1 -2 1 -1 1 -1 0 -2 1 -1 1 -2 0 -1 1 -2 0 -2 1 -1 0 -2 0 -2 0 -1 0 -2 0 0 35 0zm-69 -68l0 0 4 0 3 0 4 0 3 1 3 1 4 1 3 1 3 1 3 1 3 2 3 2 2 1 3 2 3 2 2 2 3 3 2 2 2 3 2 2 2 3 2 3 1 2 2 3 1 3 1 3 1 4 1 3 1 3 1 4 0 3 0 3 1 4 -35 0 0 -2 0 -2 0 -1 0 -2 -1 -2 0 -1 -1 -2 0 -1 -1 -2 -1 -1 0 -2 -1 -1 -1 -1 -1 -2 -1 -1 -2 -1 -1 -1 -1 -1 -1 -1 -2 -1 -1 -1 -1 -1 -2 -1 -1 -1 -2 0 -2 -1 -1 0 -2 -1 -1 0 -2 0 -2 0 -2 0 0 0 0 -34zm-68 68l0 -4 0 -3 1 -3 1 -4 0 -3 1 -3 1 -4 2 -3 1 -3 1 -3 2 -2 2 -3 2 -3 2 -2 2 -3 2 -2 3 -3 2 -2 3 -2 2 -2 3 -1 3 -2 3 -2 3 -1 3 -1 3 -1 3 -1 4 -1 3 -1 3 0 4 0 3 0 0 34 -1 0 -2 0 -2 0 -2 0 -1 1 -2 0 -1 1 -2 0 -1 1 -2 1 -1 1 -2 1 -1 1 -1 1 -2 1 -1 1 -1 1 -1 1 -1 2 -1 1 -1 1 -1 2 0 1 -1 2 -1 1 0 2 -1 1 0 2 0 2 -1 1 0 2 0 2 -34 0zm-1111 -10l1132 0 0 19 -1132 0 -10 -9 10 -10zm-10 10l0 -10 10 0 -10 10zm0 1731l0 -1731 19 0 0 1731 -9 10 -10 -10zm10 10l-10 -1 0 -9 10 10zm435 1l-435 -1 0 -20 435 2 0 19z"/>
   </g>
   <g>
    <path class="fil1" d="M7153 4956l-867 0 0 -19 867 0 0 19zm0 80l-17 0 0 -178 34 0 0 178 -17 0z"/>
   </g>
   <g>
    <path class="fil1" d="M5726 5020l-4 0 -3 0 -4 0 -3 -1 -3 -1 -4 -1 -3 -1 -3 -1 -3 -1 -3 -2 -3 -1 -3 -2 -2 -2 -3 -2 -2 -2 -3 -3 -2 -2 -2 -2 -2 -3 -2 -3 -2 -2 -1 -3 -2 -3 -1 -3 -2 -3 -1 -4 -1 -3 0 -3 -1 -3 0 -4 -1 -3 0 -4 0 0 0 -3 1 -4 0 -3 1 -4 0 -3 1 -3 1 -3 2 -3 1 -3 2 -3 1 -3 2 -3 2 -3 2 -2 2 -3 2 -2 3 -2 2 -2 3 -2 2 -2 3 -2 3 -2 3 -1 3 -2 3 -1 3 -1 4 -1 3 -1 3 0 4 -1 3 0 4 0 0 0 3 0 3 0 4 1 3 0 4 1 3 1 3 1 3 1 3 2 3 1 3 2 3 2 2 2 3 2 2 2 3 2 2 2 2 3 2 2 2 3 2 3 1 3 2 3 1 3 2 3 1 3 1 3 0 3 1 4 0 3 1 4 0 3 0 0 0 4 -1 3 0 4 -1 3 0 3 -1 3 -1 4 -2 3 -1 3 -2 3 -1 3 -2 2 -2 3 -2 3 -2 2 -2 2 -3 3 -2 2 -3 2 -2 2 -3 2 -3 1 -3 2 -3 1 -3 1 -3 1 -3 1 -4 1 -3 1 -4 0 -3 0 -3 0 0 0zm-612 -77l612 0 0 19 -612 0 0 -19z"/>
   </g>
   <line class="fil0 str1" x1="4392" y1="4987" x2="3531" y2= "4987" />
   <polyline class="fil0 str1" points="9248,3346 11550,3362 11575,5569 8902,5569 "/>
   <g>
    <path class="fil1" d="M3948 5564l4749 0 0 19 -4749 0 -9 -10 9 -9zm0 19l-9 0 0 -10 9 10zm10 -596l0 586 -19 0 0 -586 19 0zm-78 0l0 0 0 -4 0 -3 1 -4 0 -3 1 -3 1 -4 1 -3 1 -3 2 -3 1 -3 2 -3 2 -2 2 -3 2 -3 2 -2 2 -3 2 -2 3 -2 2 -2 3 -2 3 -2 3 -1 3 -2 3 -1 3 -1 3 -2 3 0 3 -1 4 -1 3 0 4 -1 3 0 0 0 4 0 3 1 4 0 3 1 3 1 3 0 4 2 3 1 3 1 3 2 3 1 2 2 3 2 3 2 2 2 2 2 3 3 2 2 2 3 2 3 1 2 2 3 2 3 1 3 1 3 1 3 1 4 1 3 1 3 0 4 0 3 0 4 0 0 0 3 0 4 0 3 -1 3 -1 4 -1 3 -1 3 -1 3 -1 3 -2 3 -2 3 -1 3 -2 2 -2 3 -2 2 -3 3 -2 2 -2 2 -3 2 -3 2 -2 2 -3 2 -3 1 -3 1 -3 2 -4 1 -3 1 -3 0 -3 1 -4 0 -3 1 -4 0 0 0 -3 0 -4 -1 -3 0 -4 -1 -3 0 -3 -1 -3 -1 -3 -2 -3 -1 -3 -1 -3 -2 -3 -2 -3 -2 -2 -2 -3 -2 -2 -2 -2 -3 -2 -2 -2 -3 -2 -2 -2 -3 -2 -3 -1 -3 -2 -3 -1 -3 -1 -3 -1 -3 -1 -4 0 -3 -1 -3 0 -4 0 -3z"/>
   </g>
   <path class="fil1" d="M3054 4480l-30 104c-4,15 -6,26 -6,33 0,7 2,12 7,16 6,4 17,6 33,6l-3 9 -166 0 3 -9c17,0 29,-3 37,-9 7,-7 14,-22 21,-44l63 -221c4,-13 5,-22 5,-30 0,-6 -2,-12 -6,-15 -5,-4 -15,-6 -31,-7l3 -9 142 0c41,0 70,7 86,21 17,14 25,33 25,55 0,23 -9,45 -29,63 -12,12 -34,23 -65,31l31 105c8,28 15,45 21,51 6,6 17,9 31,9l0 9 -107 0 -49 -168 -8 0c-2,0 -4,0 -8,0zm4 -15c6,0 11,0 15,0 24,0 44,-8 60,-25 15,-17 23,-39 23,-67 0,-16 -4,-28 -12,-37 -9,-8 -20,-12 -33,-12 -4,0 -8,0 -12,0l-41 141z"/>
   <path id="1" class="fil1" d="M3485 4297l-86 289c-4,15 -6,25 -6,29 0,4 1,8 5,12 3,5 6,8 10,9 3,1 14,2 32,3l-2 9 -174 0 3 -9c17,0 29,-2 36,-4 7,-3 12,-7 16,-13 5,-5 10,-18 15,-36l51 -171c8,-27 12,-41 12,-42 1,-4 2,-9 2,-13 0,-7 -3,-13 -7,-18 -5,-4 -12,-6 -20,-6 -5,0 -13,0 -26,2l-2 -10 130 -31 11 0z"/>
   <path class="fil1" d="M4551 1524l-30 105c-4,15 -6,25 -6,33 0,6 3,11 8,15 5,4 16,6 32,7l-3 8 -166 0 3 -8c17,0 29,-4 37,-10 7,-7 15,-21 21,-44l63 -221c4,-12 6,-22 6,-29 0,-7 -3,-12 -7,-16 -4,-4 -15,-6 -31,-7l3 -9 143 0c40,0 69,7 86,21 16,15 25,33 25,55 0,24 -10,45 -30,64 -12,12 -34,22 -65,30l31 105c8,28 15,45 21,51 7,6 17,9 31,10l0 8 -107 0 -48 -168 -8 1c-2,0 -5,-1 -9,-1zm5 -15c5,0 10,1 14,1 25,0 45,-9 60,-26 16,-17 23,-39 23,-66 0,-17 -4,-29 -12,-37 -8,-9 -19,-13 -33,-13 -3,0 -7,0 -12,0l-40 141z"/>
   <path id="1" class="fil1" d="M4934 1692l-183 0 0 -9c48,-44 88,-84 120,-121 28,-31 45,-54 52,-70 7,-17 10,-33 10,-49 0,-16 -4,-28 -14,-38 -10,-10 -22,-14 -37,-14 -23,0 -43,13 -60,39l-9 -5c9,-25 20,-44 34,-57 19,-18 42,-27 68,-27 25,0 45,8 61,23 16,15 24,32 24,52 0,18 -4,35 -12,52 -8,17 -24,38 -48,64 -19,19 -56,54 -113,102l66 0c22,0 36,-2 45,-7 8,-5 16,-15 24,-29l12 0 -40 94z"/>
   <path class="fil1" d="M8929 705l-25 109 -9 0c-1,-30 -9,-52 -22,-67 -14,-14 -32,-22 -54,-22 -23,0 -47,10 -70,30 -24,20 -44,51 -60,92 -13,34 -20,67 -20,99 0,29 8,52 22,67 14,15 34,23 59,23 21,0 39,-4 56,-13 17,-9 34,-23 51,-43l12 0c-21,31 -42,53 -64,66 -21,13 -47,19 -78,19 -42,0 -75,-12 -101,-38 -25,-25 -38,-58 -38,-98 0,-38 10,-74 31,-108 20,-35 49,-63 87,-84 38,-21 75,-32 113,-32 14,0 32,3 53,9 11,3 18,4 23,4 8,0 17,-4 25,-13l9 0z"/>
   <path id="1" class="fil1" d="M9134 706l-85 289c-5,15 -7,25 -7,29 0,4 2,8 5,13 3,4 6,7 10,8 4,1 14,2 33,3l-3 9 -174 0 3 -9c17,0 29,-1 36,-4 7,-2 12,-7 17,-12 4,-6 9,-18 14,-37l51 -171c8,-26 12,-40 12,-42 1,-4 2,-8 2,-12 0,-8 -2,-14 -7,-19 -5,-4 -12,-6 -20,-6 -4,0 -13,0 -25,2l-3 -10 130 -31 11 0z"/>
   <path class="fil1" d="M6372 1107l-26 109 -9 0c-1,-30 -8,-52 -22,-67 -13,-14 -31,-22 -53,-22 -24,0 -47,10 -71,30 -23,20 -43,51 -59,92 -13,33 -20,66 -20,99 0,29 7,51 22,67 14,15 34,23 59,23 20,0 39,-5 56,-13 16,-9 33,-24 50,-43l12 0c-21,31 -42,53 -63,66 -22,13 -48,19 -79,19 -41,0 -75,-13 -100,-38 -25,-25 -38,-58 -38,-98 0,-38 10,-74 30,-109 20,-34 49,-62 87,-83 38,-21 76,-32 113,-32 15,0 32,3 54,9 10,3 18,4 22,4 9,0 17,-4 26,-13l9 0z"/>
   <path id="1" class="fil1" d="M6528 1459l-182 0 0 -9c47,-44 87,-85 120,-122 27,-30 44,-54 51,-70 7,-16 11,-32 11,-49 0,-15 -5,-28 -15,-37 -9,-10 -21,-15 -36,-15 -23,0 -44,13 -60,39l-10 -4c9,-25 20,-44 35,-57 19,-18 42,-27 68,-27 24,0 45,7 60,23 17,15 24,32 24,52 0,17 -3,34 -11,51 -8,17 -24,39 -48,64 -19,20 -57,54 -114,103l67 0c21,0 36,-3 44,-7 9,-5 17,-15 24,-29l12 0 -40 94z"/>
   <path class="fil1" d="M3015 1563l-30 105c-4,14 -6,25 -6,32 0,7 2,12 7,16 6,4 17,6 33,6l-3 9 -166 0 3 -9c17,0 29,-3 37,-9 7,-7 14,-21 21,-44l63 -221c4,-12 5,-22 5,-29 0,-7 -2,-12 -6,-16 -5,-4 -15,-6 -31,-7l3 -9 142 0c41,0 70,7 86,21 17,14 25,33 25,55 0,23 -9,45 -29,64 -12,12 -34,22 -65,30l31 105c8,28 15,45 21,51 6,6 17,9 31,9l0 9 -107 0 -48 -168 -9 1c-1,0 -4,-1 -8,-1zm4 -15c6,0 11,0 15,0 24,0 44,-8 60,-25 16,-17 23,-39 23,-67 0,-16 -4,-28 -12,-37 -9,-8 -20,-12 -33,-12 -4,0 -8,0 -12,0l-41 141z"/>
   <path id="1" class="fil1" d="M3446 1380l-85 289c-5,15 -7,25 -7,29 0,4 2,8 5,13 3,4 6,7 10,8 3,1 14,2 33,3l-3 9 -174 0 3 -9c17,0 29,-1 36,-4 7,-2 12,-7 17,-12 4,-6 9,-18 14,-37l51 -171c8,-26 12,-40 12,-42 1,-4 2,-8 2,-12 0,-8 -3,-14 -7,-19 -5,-4 -12,-6 -20,-6 -5,0 -13,0 -26,2l-2 -10 130 -31 11 0z"/>
   <path class="fil1" d="M4610 4499l-30 105c-5,15 -7,26 -7,33 0,6 3,11 8,15 5,4 16,6 33,7l-4 9 -165 0 3 -9c16,0 28,-4 36,-10 8,-7 15,-21 21,-44l64 -221c3,-12 5,-22 5,-29 0,-7 -2,-12 -7,-16 -4,-3 -14,-6 -30,-7l2 -9 143 0c41,0 69,7 86,22 17,14 25,32 25,54 0,24 -10,45 -29,64 -13,12 -34,22 -65,31l30 104c8,28 16,45 22,51 6,6 16,9 31,10l0 9 -107 0 -49 -169 -8 1c-2,0 -5,0 -8,-1zm4 -15c6,1 11,1 15,1 24,0 44,-9 59,-26 16,-17 24,-39 24,-66 0,-17 -4,-29 -13,-37 -8,-9 -19,-13 -33,-13 -3,0 -7,0 -12,0l-40 141z"/>
   <path id="1" class="fil1" d="M4992 4668l-183 0 0 -10c48,-44 88,-84 121,-121 27,-31 44,-54 51,-70 7,-16 11,-33 11,-49 0,-16 -5,-28 -15,-38 -10,-9 -22,-14 -36,-14 -24,0 -44,13 -61,39l-9 -5c9,-25 20,-44 34,-57 20,-18 43,-27 69,-27 24,0 44,8 60,23 16,15 24,33 24,52 0,18 -4,35 -11,52 -8,17 -24,38 -49,64 -18,20 -56,54 -113,102l67 0c21,0 36,-2 44,-7 9,-5 17,-14 24,-29l12 0 -40 95z"/>
   <path class="fil1" d="M8760 4617l-26 109 -9 0c-1,-30 -8,-52 -22,-67 -13,-14 -31,-21 -53,-21 -24,0 -47,10 -71,30 -23,20 -43,50 -59,91 -13,34 -20,67 -20,99 0,30 7,52 22,67 14,15 34,23 59,23 20,0 39,-4 56,-13 17,-9 33,-23 51,-43l12 0c-22,31 -43,54 -64,66 -22,13 -48,19 -79,19 -41,0 -75,-12 -100,-37 -25,-26 -38,-58 -38,-99 0,-38 10,-74 30,-108 21,-35 50,-63 87,-84 38,-21 76,-32 113,-32 15,0 32,3 54,9 10,3 18,5 22,5 9,0 17,-5 26,-14l9 0z"/>
   <path id="1" class="fil1" d="M8965 4618l-86 289c-4,15 -6,25 -6,29 0,4 1,8 5,13 3,4 6,7 10,8 3,1 14,3 32,4l-2 8 -174 0 3 -8c17,-1 29,-2 36,-5 7,-2 12,-7 16,-12 5,-6 10,-18 15,-37l51 -171c8,-26 12,-40 12,-42 1,-4 2,-8 2,-12 0,-8 -3,-14 -7,-19 -5,-4 -12,-6 -20,-6 -5,0 -13,0 -26,2l-2 -10 130 -31 11 0z"/>
   <path class="fil1" d="M6358 4267l-26 109 -9 0c-1,-30 -8,-52 -22,-67 -14,-15 -31,-22 -53,-22 -24,0 -47,10 -71,30 -23,20 -43,51 -59,92 -14,33 -20,66 -20,99 0,29 7,51 21,67 15,15 35,23 60,23 20,0 39,-5 56,-13 16,-9 33,-24 50,-43l12 0c-21,31 -42,53 -63,66 -22,12 -48,19 -79,19 -41,0 -75,-13 -100,-38 -26,-25 -38,-58 -38,-98 0,-38 10,-74 30,-109 20,-34 49,-62 87,-83 38,-22 76,-32 113,-32 14,0 32,3 53,9 11,3 19,4 23,4 8,0 17,-4 26,-13l9 0z"/>
   <path id="1" class="fil1" d="M6514 4619l-182 0 0 -9c47,-44 87,-85 120,-122 27,-30 44,-54 51,-70 7,-16 11,-32 11,-49 0,-15 -5,-28 -15,-37 -9,-10 -22,-15 -36,-15 -24,0 -44,13 -60,39l-10 -4c9,-25 20,-44 34,-57 20,-18 43,-27 69,-27 24,0 44,7 60,22 16,16 24,33 24,53 0,17 -4,34 -11,51 -8,17 -24,39 -49,64 -18,20 -56,54 -113,103l67 0c21,0 36,-3 44,-7 9,-5 17,-15 24,-30l12 0 -40 95z"/>
   <path class="fil1" d="M15211 3806l28 -286c2,-15 2,-25 2,-30 0,-7 -2,-14 -8,-19 -6,-5 -15,-7 -27,-7l-9 0 3 -10 135 0 -2 10c-15,0 -25,1 -31,4 -5,3 -10,8 -13,15 -2,4 -3,15 -5,32l-20 206 135 -184c14,-20 23,-33 27,-41 3,-6 4,-10 4,-14 0,-5 -2,-9 -6,-12 -4,-4 -11,-6 -22,-6l3 -10 103 0 -2 10c-9,0 -15,2 -20,5 -9,4 -19,11 -28,20 -9,9 -24,27 -44,54l-193 263 -10 0z"/>
   <path id="1" class="fil1" d="M15633 3658c16,0 31,4 43,11 13,7 23,18 30,31 7,14 11,29 11,43 0,27 -8,55 -23,83 -16,29 -36,51 -60,67 -25,15 -51,23 -77,23 -19,0 -35,-5 -47,-13 -13,-8 -23,-20 -29,-33 -6,-14 -9,-27 -9,-40 0,-23 6,-46 17,-68 11,-23 24,-42 39,-57 16,-15 32,-26 49,-34 18,-9 36,-13 56,-13zm-7 12c-12,0 -24,3 -35,9 -12,6 -23,16 -35,29 -11,14 -21,32 -30,54 -12,27 -17,52 -17,77 0,17 4,32 13,45 9,13 23,20 41,20 11,0 22,-3 32,-8 11,-6 22,-15 34,-28 14,-17 26,-38 36,-63 10,-26 15,-50 15,-72 0,-17 -5,-31 -13,-44 -9,-13 -23,-19 -41,-19z"/>
   <path id="2" class="fil1" d="M15931 3650l-64 219c-3,11 -5,19 -5,23 0,1 0,2 1,3 1,1 2,1 2,1 1,0 3,0 4,-2 3,-2 7,-9 14,-21l6 4c-7,12 -14,21 -21,27 -8,7 -14,10 -21,10 -3,0 -6,-1 -9,-4 -2,-3 -3,-7 -3,-12 0,-7 2,-17 5,-28l7 -23c-19,27 -37,46 -53,56 -11,7 -21,11 -31,11 -10,0 -19,-4 -27,-12 -7,-8 -11,-19 -11,-33 0,-18 6,-37 19,-58 12,-20 29,-37 49,-50 16,-10 31,-15 45,-15 7,0 13,1 18,4 5,3 10,7 15,13l17 -60c2,-6 4,-12 5,-16 1,-5 2,-9 2,-12 0,-2 -1,-5 -3,-6 -2,-2 -5,-3 -9,-3 -3,0 -8,0 -14,1l0 -7 62 -10zm-70 131c0,-8 -2,-14 -7,-19 -5,-5 -12,-7 -19,-7 -17,0 -35,13 -53,38 -18,25 -27,49 -27,72 0,9 2,16 7,21 4,5 10,7 17,7 14,0 32,-14 52,-41 20,-27 30,-51 30,-71z"/>
   <g>
    <path class="fil1" d="M14897 1869l101 239 0 0 -6 -3 -7 -3 -6 -2 -7 -3 -6 -2 -6 -2 -7 -2 -6 -2 -6 -2 -7 -1 -6 -1 -7 -1 -6 -1 -6 0 -7 -1 -6 0 -7 0 -6 1 -6 0 -7 1 -6 1 -7 1 -6 1 -6 1 -7 2 -6 2 -7 2 -6 2 -6 3 -7 2 -6 3 -7 3 104 -238zm-30 3724l20 -3604 19 0 -20 3605 -19 -1z"/>
   </g>
   <g>
    <path class="fil1" d="M5734 636l0 895 -19 0 0 -895 19 0zm80 0l0 17 -178 0 0 -34 178 0 0 17z"/>
   </g>
   <g>
    <path class="fil1" d="M7167 2241l96 241 0 0 -6 -4 -6 -3 -7 -3 -6 -2 -6 -3 -7 -2 -6 -2 -6 -2 -7 -1 -6 -2 -6 -1 -7 -1 -6 -1 -6 -1 -7 0 -6 0 -7 0 -6 0 -6 0 -7 1 -6 0 -7 1 -6 1 -7 2 -6 1 -6 2 -7 2 -6 2 -7 2 -6 3 -7 3 -6 3 108 -236zm-30 846l17 -727 20 1 -18 727 -19 -1z"/>
   </g>
   <path class="fil1" d="M8932 3566l-95 331 38 -33c42,-35 69,-61 82,-78 4,-6 6,-10 6,-14 0,-2 -1,-4 -2,-5 -1,-2 -4,-4 -8,-5 -4,-1 -11,-2 -20,-2l-12 0 3 -12 148 0 -4 12c-16,1 -31,4 -43,8 -12,5 -24,12 -36,21 -22,16 -37,28 -44,35l-30 26c5,16 11,38 18,67 13,48 21,77 25,86 4,8 9,13 13,13 4,0 9,-2 14,-6 11,-9 24,-22 37,-41l12 9c-25,30 -43,51 -56,60 -13,10 -25,15 -36,15 -10,0 -17,-4 -22,-11 -9,-13 -24,-65 -45,-156l-46 40 -34 119 -53 0 111 -385 9 -32c1,-6 2,-11 2,-15 0,-5 -2,-9 -6,-13 -4,-4 -10,-5 -18,-5 -5,0 -13,1 -24,3l-1 -12 117 -20z"/>
   <path id="1" class="fil1" d="M9057 3761l95 -21c7,17 13,34 17,51 7,26 12,56 15,90 2,18 5,55 8,111 28,-30 45,-50 50,-57 30,-40 48,-64 52,-71 8,-12 13,-22 16,-31 2,-7 4,-13 4,-19 0,-6 -5,-13 -16,-20 -10,-8 -15,-17 -15,-26 0,-7 3,-14 8,-19 6,-6 13,-9 21,-9 9,0 17,4 24,12 8,8 11,17 11,29 0,11 -2,22 -5,33 -6,17 -17,37 -33,62 -16,25 -42,57 -77,99 -5,5 -30,31 -75,78l-13 0c-5,-142 -16,-231 -33,-266 -6,-11 -15,-17 -28,-17 -6,0 -14,1 -24,3l-2 -12z"/>
   <path id="2" class="fil1" d="M9502 3812c10,0 18,3 24,10 7,6 10,14 10,24 0,9 -3,17 -10,24 -7,6 -14,10 -24,10 -9,0 -17,-4 -24,-10 -6,-7 -10,-15 -10,-24 0,-10 4,-18 10,-24 7,-7 15,-10 24,-10zm15 134l-71 239c-5,16 -7,26 -7,29 0,3 1,6 3,8 2,2 4,4 7,4 3,0 6,-2 11,-6 11,-10 23,-24 35,-43l11 8c-14,23 -31,43 -51,58 -14,11 -28,17 -42,17 -8,0 -16,-3 -21,-8 -6,-6 -9,-12 -9,-21 0,-8 3,-22 9,-41l47 -153c8,-25 11,-40 11,-46 0,-5 -2,-9 -5,-12 -4,-4 -8,-5 -14,-5 -5,0 -15,1 -31,4l0 -13 117 -19z"/>
   <g>
    <polygon class="fil1" points="9241,2097 9241,2224 9368,2224 9368,2258 9241,2258 9241,2386 9207,2386 9207,2258 9081,2258 9081,2224 9207,2224 9207,2097 "/>
    <polygon class="fil1" points="9258,2995 9258,3132 9218,3132 9218,2995 "/>
    <rect class="fil0 str2" transform="matrix(-0.966762 -0.966762 0.966762 -0.966762 9247.56 3346.15)" width="731" height="731"/>
   </g>
   <path class="fil1" d="M6254 2413l113 -25c8,20 15,40 20,60 7,30 13,65 17,106 3,21 5,64 9,131 34,-36 53,-59 60,-68 35,-47 55,-75 61,-83 8,-14 14,-26 18,-37 3,-8 5,-15 5,-22 0,-7 -6,-15 -18,-24 -12,-9 -19,-19 -19,-30 0,-9 4,-16 10,-23 7,-6 15,-10 24,-10 11,0 21,5 29,14 9,9 13,20 13,34 0,13 -2,26 -6,39 -7,20 -20,44 -39,73 -19,29 -49,68 -91,116 -5,6 -35,37 -88,92l-15 0c-6,-167 -19,-271 -39,-313 -7,-13 -18,-20 -33,-20 -7,0 -16,1 -28,4l-3 -14z"/>
   <path id="1" class="fil1" d="M6779 2473c11,0 20,4 28,11 8,8 11,17 11,29 0,10 -4,20 -11,28 -8,7 -18,11 -28,11 -11,0 -21,-4 -28,-11 -8,-8 -12,-18 -12,-28 0,-12 4,-21 11,-29 8,-7 17,-11 29,-11zm17 157l-84 281c-5,19 -8,31 -8,35 0,4 1,7 3,9 3,3 5,4 9,4 3,0 7,-2 12,-6 14,-11 28,-28 41,-50l14 9c-17,27 -37,50 -60,68 -17,13 -34,20 -49,20 -11,0 -19,-4 -26,-10 -6,-6 -9,-14 -9,-24 0,-10 3,-26 10,-49l55 -180c9,-29 13,-47 13,-54 0,-6 -2,-11 -6,-14 -4,-4 -10,-6 -17,-6 -6,0 -18,2 -36,5l0 -16 138 -22z"/>
   <g>
    <path class="fil1" d="M4017 2576l0 -6c32,-5 56,-14 72,-28 11,-10 17,-22 17,-36 0,-11 -4,-19 -10,-26 -7,-7 -15,-11 -24,-11 -15,0 -28,10 -39,28l-8 -2c7,-16 16,-27 27,-35 11,-8 22,-12 35,-12 16,0 28,5 38,14 10,10 15,21 15,36 0,12 -5,24 -14,35 -9,11 -25,21 -47,30 14,6 24,14 31,24 7,11 11,24 11,39 0,16 -5,33 -14,49 -10,17 -23,30 -40,39 -16,9 -34,13 -52,13 -17,0 -29,-3 -38,-8 -6,-4 -8,-9 -8,-14 0,-5 1,-9 5,-12 3,-3 7,-5 12,-5 3,0 7,0 10,2 2,0 8,3 16,7 8,5 15,8 19,10 5,1 10,2 15,2 12,0 21,-7 29,-21 8,-13 12,-28 12,-44 0,-12 -3,-24 -8,-34 -5,-10 -14,-18 -25,-24 -11,-6 -23,-9 -37,-10z"/>
    <circle class="fil0 str1" cx="4054" cy="2588" r="203"/>
   </g>
   <path class="fil1" d="M3979 4719l16 -74 -119 0 8 -36 164 -181 29 0 -39 185 41 0 -6 32 -42 0 -16 74 -36 0zm23 -106l26 -121 -109 121 83 0z"/>
   <circle class="fil0 str1" cx="3978" cy="4574" r="203"/>
   <circle class="fil0 str1" cx="5769" cy="2565" r="203"/>
   <circle class="fil0 str1" cx="5416" cy="4559" r="203"/>
   <g>
    <path class="fil1" d="M11159 1352l134 0 0 6 -151 267 -16 -7 132 -235 -63 0c-18,0 -30,2 -36,5 -7,3 -14,10 -23,22l-8 0 31 -58z"/>
    <circle class="fil0 str1" cx="11210" cy="1488" r="203"/>
   </g>
   <g>
    <path class="fil1" d="M11223 3722c12,14 22,27 28,39 6,12 9,24 9,36 0,22 -9,40 -25,56 -16,16 -37,25 -61,25 -21,0 -39,-7 -52,-20 -14,-13 -21,-28 -21,-46 0,-15 6,-29 17,-44 11,-14 32,-28 62,-42 -12,-14 -20,-26 -24,-35 -4,-9 -6,-19 -6,-28 0,-18 7,-33 20,-45 13,-13 30,-19 50,-19 19,0 34,5 46,16 12,11 18,24 18,38 0,15 -5,28 -14,40 -10,12 -26,22 -47,29zm-8 -8c14,-5 25,-13 33,-24 8,-11 12,-24 12,-38 0,-14 -4,-24 -11,-32 -8,-8 -18,-12 -30,-12 -12,0 -22,4 -29,11 -7,8 -11,17 -11,29 0,9 2,17 6,25 6,11 16,25 30,41zm-27 21c-20,8 -35,20 -45,35 -10,16 -15,32 -15,50 0,15 4,26 13,35 9,9 21,13 35,13 15,0 28,-5 38,-16 11,-10 16,-23 16,-38 0,-11 -3,-22 -9,-35 -6,-12 -17,-27 -33,-44z"/>
    <circle class="fil0 str1" cx="11193" cy="3738" r="203"/>
   </g>
   <g>
    <path class="fil1" d="M4070 4437l-51 177 32 0 -7 24 -32 0 -21 73 -29 0 21 -73 -98 0 9 -28 161 -173 15 0zm-44 51l-115 126 79 0 36 -126z"/>
    <circle class="fil0 str1" cx="3978" cy="4574" r="203"/>
   </g>
   <g>
    <path class="fil1" d="M5769 2429l90 0 -9 32 -82 0 -14 33c21,4 38,10 50,20 18,16 28,37 28,65 0,19 -4,35 -11,50 -6,15 -15,27 -25,37 -9,11 -20,18 -31,24 -15,8 -31,12 -47,12 -13,0 -23,-3 -31,-8 -5,-4 -8,-9 -8,-15 0,-5 2,-9 5,-13 3,-3 8,-5 13,-5 7,0 15,4 23,11 5,4 10,7 13,9 3,1 6,1 10,1 15,0 29,-7 41,-22 13,-15 19,-34 19,-58 0,-17 -3,-31 -10,-42 -7,-12 -15,-20 -25,-25 -11,-5 -24,-8 -42,-10l43 -96z"/>
    <circle class="fil0 str1" cx="5769" cy="2565" r="203"/>
   </g>
   <g>
    <path class="fil1" d="M5509 4419l0 8c-22,6 -44,17 -65,34 -22,17 -40,38 -56,65 14,-6 26,-9 35,-9 16,0 31,6 43,18 11,12 17,29 17,49 0,32 -10,59 -30,81 -21,22 -42,33 -66,33 -21,0 -38,-8 -49,-23 -11,-16 -16,-34 -16,-55 0,-27 6,-54 19,-80 12,-27 29,-49 51,-68 21,-19 43,-33 66,-42 14,-5 31,-9 51,-11zm-131 124c-19,40 -28,73 -28,101 0,14 3,25 11,33 7,8 15,12 24,12 15,0 30,-11 43,-33 13,-22 20,-48 20,-77 0,-15 -4,-27 -12,-36 -8,-8 -17,-12 -28,-12 -4,0 -9,0 -13,2 -4,2 -10,5 -17,10z"/>
    <circle class="fil0 str1" cx="5416" cy="4559" r="203"/>
   </g>
   <path class="fil1" d="M5236 770c0,-25 4,-50 11,-75 8,-26 16,-46 25,-61 9,-15 18,-27 28,-36 9,-8 19,-15 28,-19 10,-4 20,-6 31,-6 22,0 41,9 56,25 15,17 22,40 22,72 0,32 -5,63 -15,95 -13,37 -29,65 -51,84 -17,14 -36,21 -57,21 -22,0 -40,-9 -55,-26 -15,-17 -23,-42 -23,-74zm35 9c0,18 3,32 9,42 8,13 20,20 36,20 14,0 26,-6 38,-18 16,-18 28,-44 37,-78 8,-34 12,-62 12,-84 0,-21 -4,-36 -12,-45 -8,-9 -19,-14 -32,-14 -9,0 -18,3 -26,8 -9,4 -17,13 -24,25 -11,16 -20,42 -28,75 -7,28 -10,51 -10,69z"/>
   <circle class="fil0 str1" cx="5337" cy="722" r="203"/>
   <g>
    <path class="fil1" d="M7171 4313c17,0 32,7 43,22 12,14 17,36 17,67 0,26 -4,52 -12,80 -9,27 -21,50 -37,70 -12,16 -25,27 -39,34 -8,4 -17,6 -27,6 -17,0 -32,-7 -43,-21 -12,-14 -18,-36 -18,-67 0,-30 6,-61 18,-91 13,-36 31,-63 52,-81 14,-12 29,-19 46,-19zm1 11c-8,0 -16,3 -24,9 -8,6 -16,18 -24,37 -9,19 -17,44 -24,74 -10,39 -15,72 -15,100 0,14 3,24 9,31 6,7 13,10 21,10 9,0 15,-3 21,-8 15,-14 28,-39 39,-73 18,-56 27,-102 27,-138 0,-14 -3,-25 -9,-32 -6,-7 -13,-10 -21,-10z"/>
    <circle class="fil0 str1" cx="7143" cy="4453" r="203"/>
   </g>
   <g>
    <polygon class="fil1" points="12797,3922 12797,4049 12924,4049 12924,4083 12797,4083 12797,4211 12763,4211 12763,4083 12637,4083 12637,4049 12763,4049 12763,3922 "/>
    <polygon class="fil1" points="12814,4820 12814,4957 12774,4957 12774,4820 "/>
    <rect class="fil0 str2" transform="matrix(-0.966762 -0.966762 0.966762 -0.966762 12803.6 5171.23)" width="731" height="731"/>
   </g>
   <g>
    <path class="fil1" d="M11575 5501l3 0 4 1 3 0 4 1 3 0 3 1 3 1 3 2 3 1 3 1 3 2 3 2 3 2 2 2 3 2 2 2 2 3 2 2 2 3 2 2 2 3 2 3 1 3 2 3 1 3 1 3 1 3 1 4 0 3 1 3 0 4 0 3 0 0 0 4 0 3 -1 4 0 3 -1 3 -1 4 -1 3 -1 3 -2 3 -1 3 -2 3 -2 3 -2 2 -2 3 -2 2 -2 3 -2 2 -3 2 -2 2 -3 2 -3 2 -3 1 -3 2 -3 1 -3 1 -3 2 -3 0 -3 1 -4 1 -3 0 -4 1 -3 0 0 0 -4 0 -3 -1 -3 0 -4 -1 -3 -1 -3 0 -4 -2 -3 -1 -3 -1 -3 -2 -2 -1 -3 -2 -3 -2 -2 -2 -3 -2 -2 -2 -3 -3 -2 -2 -2 -3 -2 -2 -1 -3 -2 -3 -2 -3 -1 -3 -1 -3 -1 -3 -1 -4 -1 -3 -1 -3 0 -4 0 -3 0 -4 0 0 0 -3 0 -4 0 -3 1 -3 1 -4 1 -3 1 -3 1 -3 1 -3 2 -3 2 -3 1 -3 2 -2 2 -3 2 -2 3 -3 2 -2 3 -2 2 -2 3 -2 3 -2 2 -2 3 -1 3 -1 3 -2 4 -1 3 -1 3 0 4 -1 3 0 3 -1 4 0 0 0zm1218 78l-1218 0 0 -19 1218 0 10 9 -10 10zm10 -10l0 10 -10 0 10 -10zm0 -398l0 398 -19 0 0 -398 19 0z"/>
   </g>
   <g>
    <path class="fil1" d="M12813 3209l0 549 -19 0 0 -549 19 0zm135 0l0 17 -289 0 0 -34 289 0 0 17z"/>
   </g>
   <g>
    <path class="fil1" d="M11580 1788l3 0 4 1 3 0 3 1 4 1 3 0 3 2 3 1 3 1 3 2 3 1 3 2 2 2 3 2 2 2 3 2 2 3 2 2 2 3 2 3 2 2 2 3 1 3 1 3 2 3 1 3 1 4 0 3 1 3 0 4 1 3 0 4 0 0 0 3 -1 4 0 3 -1 3 0 4 -1 3 -1 3 -2 3 -1 3 -1 3 -2 3 -2 3 -2 2 -2 3 -2 2 -2 3 -3 2 -2 2 -3 2 -2 2 -3 2 -3 2 -3 1 -3 1 -3 2 -3 1 -3 1 -4 0 -3 1 -3 0 -4 1 -3 0 0 0 -4 0 -3 -1 -4 0 -3 -1 -3 0 -4 -1 -3 -1 -3 -2 -3 -1 -3 -1 -3 -2 -2 -2 -3 -2 -3 -2 -2 -2 -3 -2 -2 -3 -2 -2 -2 -3 -2 -2 -2 -3 -1 -3 -2 -3 -1 -3 -1 -3 -2 -3 0 -3 -1 -4 -1 -3 0 -3 -1 -4 0 -3 0 0 0 -4 1 -3 0 -4 1 -3 1 -3 0 -4 2 -3 1 -3 1 -3 2 -3 1 -3 2 -2 2 -3 2 -3 2 -2 2 -3 3 -2 2 -2 3 -2 3 -2 2 -2 3 -1 3 -2 3 -1 3 -1 3 -2 4 0 3 -1 3 -1 4 0 3 -1 4 0 0 0zm1076 78l-1076 0 0 -19 1076 0 0 19zm92 -121l0 34 0 0 -4 0 -4 0 -3 1 -4 0 -4 1 -4 1 -3 2 -4 1 -3 1 -4 2 -3 2 -3 2 -3 2 -3 3 -3 2 -3 3 -2 2 -3 3 -2 3 -2 3 -2 3 -2 4 -2 3 -1 3 -2 4 -1 4 -1 3 -1 4 0 4 -1 4 0 4 0 4 -34 0 0 -6 0 -6 1 -5 1 -6 1 -5 2 -6 1 -5 2 -5 3 -5 2 -5 3 -4 3 -5 3 -4 3 -5 4 -4 3 -3 4 -4 4 -4 5 -3 4 -3 4 -3 5 -3 5 -2 5 -2 5 -2 5 -2 6 -2 5 -1 5 -1 6 -1 6 0 5 0 0 0zm112 112l-34 0 0 0 0 -4 0 -4 -1 -4 0 -4 -1 -4 -1 -3 -1 -4 -2 -4 -1 -3 -2 -3 -2 -4 -2 -3 -2 -3 -3 -3 -2 -3 -3 -2 -2 -3 -3 -2 -3 -3 -3 -2 -3 -2 -4 -2 -3 -2 -3 -1 -4 -1 -4 -2 -3 -1 -4 -1 -4 0 -4 -1 -4 0 -4 0 0 -34 6 0 6 0 5 1 6 1 5 1 6 2 5 2 5 2 5 2 5 2 4 3 5 3 4 3 5 3 4 4 3 4 4 3 4 4 3 5 3 4 3 5 3 4 2 5 3 5 2 5 1 5 2 6 1 5 1 6 1 5 0 6 0 6 0 0zm-112 112l0 -35 0 0 4 0 4 0 4 0 4 -1 4 -1 3 -1 4 -1 4 -2 3 -1 3 -2 4 -2 3 -2 3 -2 3 -2 3 -3 2 -2 3 -3 2 -3 3 -3 2 -3 2 -3 2 -3 2 -4 1 -3 2 -4 1 -3 1 -4 1 -4 0 -4 1 -3 0 -4 0 -4 34 0 0 5 0 6 -1 6 -1 5 -1 6 -2 5 -1 5 -2 5 -3 5 -2 5 -3 5 -3 4 -3 5 -3 4 -4 4 -4 4 -3 3 -4 4 -5 3 -4 3 -5 3 -4 3 -5 2 -5 3 -5 2 -5 1 -6 2 -5 1 -6 1 -5 1 -6 0 -6 1 0 0zm-111 -112l34 0 0 4 0 4 1 3 0 4 1 4 1 4 1 3 2 4 1 3 2 4 2 3 2 3 2 3 2 3 3 3 2 3 3 2 3 3 3 2 3 2 3 2 3 2 4 2 3 1 4 2 3 1 4 1 4 1 4 1 3 0 4 0 4 0 0 35 -5 -1 -6 0 -6 -1 -5 -1 -5 -1 -6 -2 -5 -1 -5 -2 -5 -3 -5 -2 -5 -3 -4 -3 -4 -3 -5 -3 -4 -4 -4 -3 -3 -4 -4 -4 -3 -4 -3 -5 -3 -4 -3 -5 -2 -5 -3 -5 -2 -5 -1 -5 -2 -5 -1 -6 -1 -5 -1 -6 0 -6 0 -5z"/>
   </g>
   <g>
    <path class="fil1" d="M12803 2334l0 654 -19 0 0 -654 19 0zm-10 -120l103 238 -7 -3 -6 -3 -7 -2 -6 -3 -6 -2 -7 -2 -6 -2 -7 -2 -6 -1 -6 -2 -7 -1 -6 -1 -7 0 -6 -1 -6 0 -7 0 -6 0 -6 0 -7 1 -6 0 -7 1 -6 1 -6 2 -7 1 -6 2 -7 2 -6 2 -6 2 -7 3 -6 2 -7 3 -6 3 0 0 102 -238z"/>
   </g>
   <path class="fil1" d="M13202 2433l189 0 -3 12c-20,1 -33,3 -42,6 -8,3 -15,9 -21,17 -6,8 -12,24 -18,46l-50 167c-8,30 -14,49 -15,59 -3,13 -4,25 -4,35 0,25 10,45 31,62 20,17 48,25 82,25 23,0 43,-4 60,-12 17,-8 32,-20 45,-35 12,-15 23,-35 33,-60 11,-26 19,-51 27,-77l39 -138c10,-34 15,-56 15,-66 0,-8 -3,-14 -10,-19 -7,-5 -20,-8 -41,-10l4 -12 142 0 -4 12c-16,0 -28,2 -36,5 -7,4 -14,9 -19,18 -6,8 -12,24 -19,49l-50 174c-16,56 -31,96 -43,119 -13,24 -33,43 -59,59 -27,15 -60,23 -99,23 -45,0 -82,-13 -110,-38 -27,-26 -41,-55 -41,-88 0,-13 1,-26 3,-41 2,-10 6,-27 13,-50l46 -153c6,-22 9,-38 9,-49 0,-8 -3,-14 -10,-19 -6,-4 -22,-7 -47,-9l3 -12z"/>
   <path id="1" class="fil1" d="M13785 2973c-16,19 -33,34 -49,43 -16,9 -34,13 -52,13 -22,0 -39,-6 -51,-18 -13,-13 -19,-29 -19,-50 0,-24 7,-47 20,-70 13,-22 31,-41 53,-55 23,-14 44,-21 66,-21 17,0 29,3 38,10 8,7 12,16 12,26 0,9 -3,18 -9,24 -4,6 -9,8 -15,8 -5,0 -9,-1 -12,-4 -3,-4 -5,-7 -5,-12 0,-3 1,-6 2,-8 1,-3 3,-5 7,-9 3,-3 6,-6 6,-7 1,-2 2,-4 2,-5 0,-4 -2,-6 -5,-8 -4,-3 -11,-5 -19,-5 -15,0 -30,5 -45,16 -15,10 -28,26 -39,45 -12,24 -19,47 -19,71 0,16 5,28 14,38 9,9 21,13 37,13 12,0 23,-3 35,-9 12,-6 25,-16 40,-32l7 6z"/>
   <path class="fil1" d="M13520 4814l-107 371c-6,22 -9,37 -9,47 0,8 3,14 8,19 6,4 19,7 40,8l-3 13 -170 0 4 -13c18,0 30,-1 36,-4 9,-4 16,-9 21,-16 7,-10 14,-28 22,-54l77 -267c4,-15 7,-25 7,-27 1,-4 1,-9 1,-13 0,-7 -2,-13 -6,-18 -4,-4 -10,-6 -17,-6 -6,0 -15,1 -27,4l-4 -13 111 -31 16 0z"/>
   <path id="1" class="fil1" d="M13891 4823l189 0 -4 12c-19,1 -33,3 -42,6 -8,3 -15,9 -21,17 -5,8 -12,24 -18,46l-49 167c-9,30 -14,49 -16,59 -3,12 -4,24 -4,35 0,25 10,45 31,62 20,17 48,25 82,25 23,0 43,-4 60,-12 18,-9 32,-20 45,-35 12,-15 23,-35 34,-60 10,-26 19,-51 26,-78l40 -137c9,-34 14,-56 14,-67 0,-7 -3,-13 -10,-18 -6,-5 -20,-9 -41,-10l4 -12 142 0 -3 12c-17,0 -29,2 -37,5 -7,3 -13,9 -19,18 -5,8 -12,24 -18,48l-51 175c-16,56 -30,96 -43,119 -13,23 -33,43 -59,58 -27,16 -60,24 -99,24 -45,0 -82,-13 -109,-38 -28,-26 -42,-55 -42,-88 0,-13 1,-27 4,-41 1,-10 6,-27 13,-51l45 -152c6,-22 9,-39 9,-49 0,-8 -3,-14 -9,-19 -7,-4 -22,-7 -48,-9l4 -12z"/>
   <path id="2" class="fil1" d="M13688 5004c10,0 18,4 25,11 7,6 10,15 10,24 0,10 -3,18 -10,25 -7,7 -15,10 -25,10 -9,0 -17,-3 -24,-10 -7,-7 -10,-15 -10,-25 0,-9 3,-18 10,-24 6,-7 15,-11 24,-11z"/>
   <path id="3" class="fil1" d="M14473 5363c-16,19 -32,33 -49,42 -16,9 -34,14 -52,14 -22,0 -39,-6 -51,-19 -12,-12 -19,-28 -19,-49 0,-24 7,-47 20,-70 13,-22 31,-41 54,-55 22,-14 44,-22 65,-22 17,0 30,4 38,11 8,7 12,16 12,26 0,9 -2,17 -8,24 -5,5 -10,8 -16,8 -5,0 -9,-1 -12,-5 -3,-3 -5,-6 -5,-11 0,-3 1,-6 2,-8 1,-3 4,-6 7,-9 4,-4 6,-6 7,-8 0,-1 1,-3 1,-4 0,-4 -2,-6 -5,-9 -4,-3 -11,-4 -19,-4 -15,0 -30,5 -45,16 -15,10 -28,25 -38,45 -13,24 -20,47 -20,71 0,16 5,28 14,37 9,10 21,14 37,14 12,0 24,-3 35,-9 12,-6 25,-16 40,-32l7 6z"/>
   <polyline class="fil0 str1" points="2844,4995 2265,4995 2258,3408 2251,2068 2844,2068 "/>
   <g>
    <ellipse class="fil0 str0" cx="562" cy="4079" rx="543" ry="547"/>
    <polygon class="fil1" points="459,3720 529,3720 529,3651 587,3651 587,3720 657,3720 657,3779 587,3779 587,3848 529,3848 529,3779 459,3779 "/>
    <polygon class="fil1" points="473,4431 663,4431 663,4471 473,4471 "/>
    <ellipse class="fil0 str0" cx="562" cy="4079" rx="543" ry="547"/>
    <polygon class="fil1" points="459,3720 529,3720 529,3651 587,3651 587,3720 657,3720 657,3779 587,3779 587,3848 529,3848 529,3779 459,3779 "/>
    <polygon class="fil1" points="473,4431 663,4431 663,4471 473,4471 "/>
   </g>
   <g>
    <path class="fil1" d="M2550 1508l-64 223c-3,13 -5,22 -5,28 0,5 2,9 5,11 3,3 11,5 24,5l-2 8 -102 0 2 -8c11,0 18,-1 22,-2 5,-2 10,-6 12,-10 5,-6 9,-17 14,-32l46 -160c2,-10 4,-15 4,-17 1,-2 1,-5 1,-7 0,-5 -1,-8 -4,-11 -2,-3 -6,-4 -10,-4 -4,0 -9,1 -16,2l-3 -7 67 -19 9 0z"/>
    <circle class="fil0 str1" cx="2478" cy="1646" r="203"/>
   </g>
   <g>
    <path class="fil1" d="M2841 5475l-142 0 0 -7c37,-35 68,-66 94,-95 21,-24 34,-42 40,-55 5,-13 8,-25 8,-38 0,-12 -4,-22 -11,-30 -8,-7 -17,-11 -29,-11 -18,0 -34,10 -47,31l-7 -4c7,-19 16,-34 27,-44 15,-14 33,-21 53,-21 19,0 35,5 47,17 13,12 19,26 19,41 0,14 -3,27 -9,40 -6,14 -19,30 -38,50 -14,16 -44,43 -88,81l52 0c16,0 28,-2 35,-6 6,-4 12,-12 18,-23l10 0 -32 74z"/>
    <circle class="fil0 str1" cx="2796" cy="5338" r="203"/>
   </g>
   <g>
    <path class="fil1" d="M2257 2136l-3 0 -4 0 -3 0 -3 -1 -4 -1 -3 -1 -3 -1 -3 -1 -3 -1 -3 -2 -3 -2 -3 -1 -2 -2 -3 -2 -3 -2 -2 -3 -2 -2 -2 -2 -2 -3 -2 -3 -2 -3 -2 -2 -1 -3 -2 -3 -1 -3 -1 -4 -1 -3 -1 -3 0 -3 -1 -4 0 -3 0 -4 0 0 0 -3 0 -4 1 -3 0 -4 1 -3 1 -3 1 -3 1 -3 2 -3 1 -3 2 -3 2 -3 2 -3 2 -2 2 -3 2 -2 2 -2 3 -2 3 -2 2 -2 3 -2 3 -2 3 -1 3 -2 3 -1 3 -1 3 -1 4 -1 3 0 3 -1 4 0 3 0 0 0 4 0 3 0 4 1 3 0 3 1 4 1 3 1 3 1 3 2 3 1 3 2 2 2 3 2 3 2 2 2 2 2 3 2 2 3 2 2 2 3 2 3 1 3 2 3 1 3 1 3 1 3 1 3 1 3 1 4 0 3 0 4 0 3 0 0 0 4 0 3 0 4 -1 3 -1 3 -1 3 -1 4 -1 3 -1 3 -2 3 -1 2 -2 3 -2 3 -2 3 -2 2 -3 2 -2 3 -2 2 -3 2 -3 2 -2 1 -3 2 -3 2 -3 1 -3 1 -3 1 -4 1 -3 1 -3 1 -4 0 -3 0 -4 0 0 0zm-1698 -77l1698 0 0 19 -1698 0 -10 -10 10 -9zm-10 9l0 -9 10 0 -10 9zm0 1464l0 -1464 19 0 0 1464 -19 0z"/>
   </g>
   <g>
    <path class="fil1" d="M553 5406l0 -780 19 0 0 780 -19 0zm-136 0l0 -17 290 0 0 34 -290 0 0 -17z"/>
   </g>
   <path class="fil1" d="M1310 4290l36 -373c2,-19 3,-32 3,-39 0,-10 -4,-18 -11,-25 -8,-6 -19,-9 -35,-9l-12 0 3 -13 177 0 -3 13c-20,0 -33,2 -40,6 -7,3 -13,10 -17,19 -2,5 -4,19 -7,42l-26 267 176 -239c19,-25 31,-44 35,-54 4,-7 5,-13 5,-18 0,-6 -2,-11 -7,-15 -5,-5 -15,-8 -29,-8l4 -13 134 0 -3 13c-11,0 -19,2 -26,6 -12,6 -24,14 -36,26 -12,12 -31,35 -57,71l-252 343 -12 0z"/>
   <path id="1" class="fil1" d="M1804 4371c-17,20 -33,34 -49,43 -17,9 -34,13 -52,13 -22,0 -39,-6 -51,-18 -13,-13 -19,-29 -19,-50 0,-24 7,-47 20,-69 13,-23 31,-42 53,-56 23,-14 44,-21 66,-21 17,0 29,3 38,10 8,7 12,16 12,26 0,10 -3,18 -9,24 -4,6 -9,8 -15,8 -5,0 -9,-1 -12,-4 -3,-3 -5,-7 -5,-12 0,-3 0,-5 2,-8 1,-2 3,-5 7,-9 3,-3 6,-6 6,-7 1,-2 2,-3 2,-5 0,-3 -2,-6 -5,-8 -4,-3 -11,-5 -19,-5 -15,0 -30,5 -45,16 -15,11 -28,26 -39,45 -13,24 -19,48 -19,71 0,16 5,28 14,38 9,9 21,13 37,13 12,0 23,-3 35,-9 12,-5 25,-16 40,-32l7 6z"/>
  </g>
 </g>
</svg>
