<?xml version="1.0" encoding="UTF-8"?>
<!DOCTYPE svg PUBLIC "-//W3C//DTD SVG 1.1//EN" "http://www.w3.org/Graphics/SVG/1.1/DTD/svg11.dtd">
<!-- Creator: CorelDRAW Home & Student X8 -->
<svg xmlns="http://www.w3.org/2000/svg" xml:space="preserve" width="148.938mm" height="61.0635mm" version="1.1" style="shape-rendering:geometricPrecision; text-rendering:geometricPrecision; image-rendering:optimizeQuality; fill-rule:evenodd; clip-rule:evenodd"
viewBox="0 0 13213 5417"
 xmlns:xlink="http://www.w3.org/1999/xlink">
 <defs>
  <style type="text/css">
   <![CDATA[
    .str0 {stroke:#2B2A29;stroke-width:35.4862}
    .str2 {stroke:#2B2A29;stroke-width:26.6146}
    .str1 {stroke:#2B2A29;stroke-width:17.7431}
    .fil0 {fill:none}
    .fil1 {fill:#2B2A29;fill-rule:nonzero}
   ]]>
  </style>
 </defs>
 <g id="Warstwa_x0020_1">
  <metadata id="CorelCorpID_0Corel-Layer"/>
  <g id="_717175160">
   <polyline class="fil0 str0" points="1742,1905 1686,2042 1575,1763 1464,2042 1352,1763 1241,2042 1130,1763 1074,1905 "/>
   <polyline class="fil0 str0" points="3206,1905 3151,2042 3039,1763 2928,2042 2817,1763 2706,2042 2594,1763 2539,1905 "/>
   <polyline class="fil0 str0" points="3206,4613 3151,4750 3039,4471 2928,4750 2817,4471 2706,4750 2594,4471 2539,4613 "/>
   <polyline class="fil0 str0" points="1742,4613 1686,4750 1575,4471 1464,4750 1352,4471 1241,4750 1130,4471 1074,4613 "/>
   <path class="fil0 str0" d="M3502 1539l539 0m-529 -244c181,170 319,168 497,-2"/>
   <path class="fil0 str0" d="M4167 4307l0 539m244 -529c-170,181 -168,319 2,497"/>
   <ellipse class="fil0 str0" cx="520" cy="3242" rx="502" ry="506"/>
   <polygon class="fil1" points="425,2910 489,2910 489,2846 543,2846 543,2910 608,2910 608,2964 543,2964 543,3029 489,3029 489,2964 425,2964 "/>
   <polygon class="fil1" points="437,3567 613,3567 613,3605 437,3605 "/>
   <polygon class="fil1" points="12430,5185 12606,5185 12606,5222 12430,5222 "/>
   <polyline class="fil0 str1" points="7030,1718 9188,1718 9188,271 6673,271 "/>
   <g>
    <path class="fil1" d="M2169 276l4338 0 0 18 -4338 0 -8 -9 8 -9zm-8 9l0 -9 8 0 -8 9zm0 1602l0 -1602 17 0 0 1602 -17 0zm72 0l0 0 -1 4 0 3 0 3 -1 3 0 3 -1 3 -1 3 -1 3 -2 3 -1 2 -2 3 -1 3 -2 2 -2 2 -2 3 -2 2 -2 2 -2 2 -3 2 -2 2 -3 1 -3 2 -2 1 -3 1 -3 2 -3 1 -3 0 -3 1 -3 1 -3 0 -3 0 -4 0 0 0 -3 0 -3 0 -3 0 -3 -1 -3 -1 -3 0 -3 -1 -3 -2 -3 -1 -3 -1 -2 -2 -3 -1 -2 -2 -3 -2 -2 -2 -2 -2 -2 -2 -2 -3 -2 -2 -2 -2 -1 -3 -2 -3 -1 -2 -2 -3 -1 -3 -1 -3 -1 -3 0 -3 -1 -3 0 -3 -1 -3 0 -4 0 0 0 -3 1 -3 0 -3 1 -3 0 -3 1 -3 1 -3 1 -3 2 -3 1 -3 2 -2 1 -3 2 -2 2 -3 2 -2 2 -2 2 -2 2 -2 3 -2 2 -2 3 -2 2 -1 3 -1 3 -2 3 -1 3 -1 3 -1 3 0 3 -1 3 0 3 -1 3 0 0 0 4 0 3 1 3 0 3 1 3 0 3 1 3 1 3 1 3 2 2 1 3 1 3 2 2 2 3 2 2 2 2 2 2 2 2 2 2 3 2 2 1 3 2 2 1 3 2 3 1 3 1 3 1 3 0 3 1 3 0 3 0 3 1 3z"/>
   </g>
   <line class="fil0 str1" x1="3771" y1="1416" x2="3771" y2= "589" />
   <g>
    <path class="fil1" d="M4808 1937l0 0 -3 0 -3 -1 -3 0 -4 -1 -3 0 -3 -1 -2 -1 -3 -1 -3 -2 -3 -1 -3 -2 -2 -1 -3 -2 -2 -2 -2 -2 -2 -2 -2 -2 -2 -2 -2 -3 -2 -2 -2 -3 -1 -2 -2 -3 -1 -3 -1 -3 -1 -3 -1 -3 -1 -3 0 -3 -1 -3 0 -3 0 -3 32 0 0 1 0 2 0 1 0 2 1 1 0 2 1 1 0 2 1 1 0 2 1 1 1 1 1 1 1 2 1 1 1 1 1 1 1 1 1 1 2 1 1 0 1 1 2 1 1 1 1 0 2 1 1 0 2 0 1 1 2 0 2 0 1 0 0 0 0 32zm63 -63l0 0 0 3 0 3 0 3 -1 3 -1 3 -1 3 -1 3 -1 3 -1 3 -1 3 -2 2 -2 3 -1 2 -2 3 -2 2 -2 2 -2 2 -3 2 -2 2 -3 2 -2 1 -3 2 -2 1 -3 2 -3 1 -3 1 -3 1 -3 0 -3 1 -3 0 -4 1 -3 0 0 -32 2 0 1 0 2 0 2 -1 1 0 2 0 1 -1 1 0 2 -1 1 -1 1 -1 2 0 1 -1 1 -1 1 -1 1 -1 2 -1 1 -1 0 -2 1 -1 1 -1 1 -1 1 -2 0 -1 1 -2 0 -1 1 -2 0 -1 0 -2 1 -1 0 -2 0 -1 0 0 31 0zm-63 -64l0 0 3 0 4 1 3 0 3 1 3 0 3 1 3 1 3 1 3 2 2 1 3 2 2 1 3 2 2 2 3 2 2 2 2 2 2 2 2 3 1 2 2 3 2 2 1 3 1 3 1 3 1 3 1 3 1 3 1 3 0 3 0 3 0 4 -31 0 0 -2 0 -2 -1 -1 0 -2 0 -1 -1 -2 0 -1 -1 -2 0 -1 -1 -2 -1 -1 -1 -1 -1 -1 0 -2 -1 -1 -2 -1 -1 -1 -1 -1 -1 -1 -1 -1 -2 0 -1 -1 -1 -1 -2 -1 -1 0 -1 -1 -2 0 -1 0 -2 -1 -2 0 -1 0 -2 0 0 0 0 -32zm-63 64l0 -4 0 -3 1 -3 0 -3 1 -3 1 -3 1 -3 1 -3 1 -3 2 -3 1 -2 2 -3 2 -2 2 -3 2 -2 2 -2 2 -2 2 -2 2 -2 3 -2 2 -1 3 -2 3 -1 3 -2 3 -1 2 -1 3 -1 3 0 4 -1 3 0 3 -1 3 0 0 32 -1 0 -2 0 -2 0 -1 1 -2 0 -1 0 -2 1 -1 0 -1 1 -2 1 -1 1 -1 0 -2 1 -1 1 -1 1 -1 1 -1 1 -1 1 -1 2 -1 1 -1 1 -1 1 0 2 -1 1 0 2 -1 1 0 2 -1 1 0 2 0 1 0 2 0 2 -32 0zm-1539 -9l1559 0 0 17 -1559 0 0 -17z"/>
   </g>
   <g>
    <path class="fil1" d="M3737 1901l0 -3 0 -3 0 -3 1 -4 1 -3 0 -3 1 -3 2 -2 1 -3 1 -3 2 -3 1 -2 2 -3 2 -2 2 -2 2 -2 2 -3 3 -2 2 -1 2 -2 3 -2 3 -1 2 -2 3 -1 3 -1 3 -1 3 -1 3 -1 3 0 3 -1 3 0 4 0 0 0 3 0 3 0 3 1 3 0 3 1 3 1 3 1 3 1 3 1 3 2 2 1 3 2 2 2 3 1 2 2 2 3 2 2 2 2 2 2 2 3 2 2 1 3 2 3 1 3 1 2 1 3 1 3 0 3 1 4 0 3 1 3 0 3 0 0 0 3 -1 4 0 3 -1 3 0 3 -1 3 -1 3 -1 3 -1 2 -2 3 -1 3 -2 2 -2 3 -2 2 -2 2 -2 3 -2 2 -2 2 -3 2 -2 1 -3 2 -2 2 -3 1 -3 1 -3 1 -3 1 -3 1 -3 1 -3 0 -3 1 -3 0 -3 0 0 0 -4 0 -3 0 -3 -1 -3 0 -3 -1 -3 -1 -3 -1 -3 -1 -3 -1 -2 -1 -3 -2 -3 -2 -2 -1 -2 -2 -3 -2 -2 -2 -2 -3 -2 -2 -2 -2 -2 -3 -1 -2 -2 -3 -1 -3 -1 -2 -2 -3 -1 -3 0 -3 -1 -3 -1 -3 0 -3 0 -4 0 -3 0 0zm72 -359l0 359 -18 0 0 -359 18 0z"/>
   </g>
   <path class="fil0 str0" d="M6685 539l0 -539m-244 529c170,-182 168,-320 -2,-497"/>
   <path class="fil0 str0" d="M6644 5415l0 -539m-245 529c171,-181 169,-320 -1,-497"/>
   <polygon class="fil1" points="12443,1741 12507,1741 12507,1677 12561,1677 12561,1741 12626,1741 12626,1796 12561,1796 12561,1860 12507,1860 12507,1796 12443,1796 "/>
   <line class="fil0 str1" x1="2539" y1="1905" x2="1742" y2= "1905" />
   <polyline class="fil0 str1" points="1074,1905 525,1905 525,2736 "/>
   <g>
    <path class="fil1" d="M4850 3042l0 0 -4 0 -3 -1 -3 0 -3 0 -3 -1 -3 -1 -3 -1 -3 -1 -3 -1 -2 -2 -3 -1 -3 -2 -2 -2 -2 -2 -3 -2 -2 -2 -2 -2 -2 -2 -2 -3 -2 -2 -1 -3 -2 -2 -1 -3 -2 -3 -1 -3 -1 -3 0 -3 -1 -3 -1 -3 0 -3 0 -3 0 -3 31 0 0 1 0 2 0 2 1 1 0 2 0 1 1 2 1 1 0 1 1 2 1 1 0 1 1 2 1 1 1 1 1 1 1 1 2 1 1 1 1 1 1 1 2 0 1 1 1 1 2 0 1 1 2 0 1 1 2 0 1 0 2 0 2 0 0 0 0 32zm63 -63l0 0 0 3 -1 3 0 3 -1 3 0 3 -1 3 -1 3 -1 3 -2 3 -1 3 -1 2 -2 3 -2 2 -2 3 -2 2 -2 2 -2 2 -2 2 -3 2 -2 2 -3 2 -2 1 -3 2 -3 1 -3 1 -3 1 -3 1 -3 1 -3 0 -3 0 -3 1 -3 0 0 -32 1 0 2 0 1 0 2 0 1 -1 2 0 1 -1 2 0 1 -1 2 -1 1 0 1 -1 1 -1 2 -1 1 -1 1 -1 1 -1 1 -1 1 -1 1 -2 1 -1 0 -1 1 -2 1 -1 0 -1 1 -2 0 -1 1 -2 0 -1 0 -2 0 -2 0 -1 0 0 32 0zm-63 -63l0 0 3 0 3 0 3 0 3 1 3 1 3 0 3 1 3 2 3 1 3 1 2 2 3 1 2 2 3 2 2 2 2 2 2 2 2 3 2 2 2 2 2 3 1 3 1 2 2 3 1 3 1 3 1 3 0 3 1 3 0 3 1 3 0 4 -32 0 0 -2 0 -2 0 -1 0 -2 -1 -1 0 -2 -1 -1 0 -2 -1 -1 -1 -1 0 -2 -1 -1 -1 -1 -1 -1 -1 -1 -1 -2 -1 -1 -1 -1 -2 -1 -1 0 -1 -1 -1 -1 -2 -1 -1 0 -2 -1 -1 0 -2 -1 -1 0 -2 0 -1 -1 -2 0 -1 0 0 0 0 -31zm-63 63l0 -4 0 -3 0 -3 1 -3 1 -3 0 -3 1 -3 1 -3 2 -3 1 -2 2 -3 1 -3 2 -2 2 -2 2 -3 2 -2 2 -2 3 -2 2 -2 2 -2 3 -1 3 -2 2 -1 3 -1 3 -2 3 -1 3 0 3 -1 3 -1 3 0 3 0 4 0 0 31 -2 0 -2 0 -1 1 -2 0 -1 0 -2 1 -1 0 -2 1 -1 0 -1 1 -2 1 -1 1 -1 0 -1 1 -2 1 -1 1 -1 2 -1 1 -1 1 -1 1 0 1 -1 2 -1 1 0 1 -1 2 -1 1 0 2 0 1 -1 2 0 1 0 2 0 2 -31 0zm-1029 -9l1048 0 0 18 -1048 0 -9 -9 9 -9zm-9 9l0 -9 9 0 -9 9zm0 1601l0 -1601 18 0 0 1601 -9 9 -9 -9zm9 9l-9 0 0 -9 9 9zm403 2l-403 -2 0 -18 403 2 0 18z"/>
   </g>
   <g>
    <path class="fil1" d="M5092 4585l-802 0 0 -18 802 0 0 18zm0 74l-15 0 0 -165 31 0 0 165 -16 0z"/>
   </g>
   <g>
    <path class="fil1" d="M3772 4644l-3 0 -3 0 -4 0 -3 -1 -3 -1 -3 0 -3 -1 -2 -2 -3 -1 -3 -1 -3 -2 -2 -1 -3 -2 -2 -2 -2 -2 -3 -2 -2 -2 -2 -3 -1 -2 -2 -2 -2 -3 -1 -3 -2 -2 -1 -3 -1 -3 -1 -3 -1 -3 -1 -3 0 -3 -1 -3 0 -3 0 -4 0 0 0 -3 0 -3 1 -3 0 -3 1 -3 1 -3 1 -3 1 -3 1 -3 2 -3 1 -2 2 -3 2 -2 1 -3 2 -2 2 -2 3 -2 2 -2 2 -2 3 -2 2 -2 3 -1 3 -2 3 -1 2 -1 3 -1 3 -1 3 -1 3 0 4 0 3 -1 3 0 0 0 3 0 3 1 4 0 3 0 3 1 3 1 3 1 3 1 2 1 3 2 3 1 2 2 3 2 2 2 2 2 3 2 2 2 2 2 2 3 1 2 2 3 1 2 2 3 1 3 1 3 1 3 1 3 1 3 0 3 1 3 0 3 0 3 0 0 0 4 0 3 -1 3 0 3 -1 3 -1 3 -1 3 -1 3 -1 3 -2 2 -1 3 -2 3 -1 2 -2 2 -2 3 -2 2 -3 2 -2 2 -2 2 -3 2 -2 1 -3 2 -3 1 -2 1 -3 2 -3 1 -3 0 -3 1 -3 1 -4 0 -3 0 -3 0 0 0zm-566 -72l566 0 0 18 -566 0 0 -18z"/>
   </g>
   <line class="fil0 str1" x1="2539" y1="4613" x2="1742" y2= "4613" />
   <polyline class="fil0 str1" points="1074,4613 539,4613 539,3748 "/>
   <polyline class="fil0 str1" points="7030,3096 9160,3110 9183,5152 6710,5152 "/>
   <g>
    <path class="fil1" d="M2128 5147l4393 0 0 18 -4393 0 -9 -9 9 -9zm0 18l-9 0 0 -9 9 9zm9 -552l0 543 -18 0 0 -543 18 0zm-72 0l0 0 0 -3 0 -3 0 -3 1 -4 1 -3 1 -3 1 -3 1 -2 1 -3 1 -3 2 -3 2 -2 1 -3 2 -2 2 -2 2 -2 2 -3 3 -2 2 -1 3 -2 2 -2 3 -1 3 -2 2 -1 3 -1 3 -1 3 -1 3 -1 3 0 3 -1 4 0 3 0 0 0 3 0 3 0 3 1 4 0 3 1 3 1 2 1 3 1 3 1 3 2 3 1 2 2 3 2 2 1 2 2 2 3 2 2 2 2 2 2 2 3 2 2 1 3 2 3 1 3 1 2 1 3 1 3 1 3 0 4 1 3 0 3 0 3 0 0 0 3 0 4 -1 3 0 3 -1 3 -1 3 -1 3 -1 3 -1 2 -2 3 -1 3 -2 2 -2 3 -2 2 -2 2 -2 3 -2 2 -2 2 -2 2 -3 1 -2 2 -3 2 -3 1 -3 1 -3 1 -2 1 -3 1 -3 1 -4 0 -3 1 -3 0 -3 0 0 0 -3 0 -4 0 -3 -1 -3 0 -3 -1 -3 -1 -3 -1 -3 -1 -2 -1 -3 -1 -3 -2 -2 -2 -3 -1 -2 -2 -3 -2 -2 -2 -2 -3 -2 -2 -2 -2 -1 -3 -2 -2 -2 -3 -1 -3 -1 -2 -1 -3 -1 -3 -1 -3 -1 -3 -1 -3 0 -3 0 -4 0 -3z"/>
   </g>
   <path class="fil1" d="M1301 4144l-28 97c-4,14 -6,24 -6,30 0,6 2,11 7,15 5,3 15,5 30,6l-3 8 -153 0 3 -8c15,0 26,-3 34,-9 7,-6 13,-20 19,-41l59 -204c3,-12 5,-21 5,-27 0,-7 -2,-11 -7,-15 -4,-3 -13,-5 -28,-6l2 -9 132 0c38,0 65,7 80,20 15,13 23,30 23,51 0,22 -9,41 -27,59 -11,11 -31,20 -60,28l28 97c8,26 14,42 20,47 6,5 15,8 29,9l0 8 -99 0 -45 -156 -8 1c-1,0 -4,0 -7,-1zm4 -14c5,1 10,1 13,1 23,0 41,-8 56,-24 14,-15 21,-36 21,-61 0,-15 -4,-27 -11,-35 -8,-7 -18,-11 -31,-11 -3,0 -7,0 -11,0l-37 130z"/>
   <path id="1" class="fil1" d="M1699 3975l-79 267c-4,14 -6,23 -6,27 0,4 2,8 4,12 3,4 6,6 10,8 3,1 13,2 30,3l-2 8 -161 0 2 -8c16,-1 28,-2 34,-4 6,-3 11,-6 15,-12 4,-5 9,-17 14,-34l47 -158c7,-24 11,-37 11,-39 1,-4 1,-8 1,-11 0,-7 -2,-13 -6,-17 -4,-4 -11,-6 -19,-6 -4,0 -11,0 -23,2l-2 -9 120 -29 10 0z"/>
   <path class="fil1" d="M2686 1410l-28 97c-4,13 -6,24 -6,30 0,6 3,11 7,15 5,3 15,5 31,5l-4 9 -153 0 3 -9c15,0 27,-3 34,-9 7,-6 13,-19 19,-40l59 -204c3,-12 5,-21 5,-28 0,-6 -2,-11 -6,-14 -4,-3 -14,-6 -29,-7l3 -8 132 0c37,0 64,7 79,20 16,13 23,30 23,50 0,22 -9,42 -27,59 -11,11 -31,21 -60,29l28 96c8,27 15,42 20,48 6,5 16,8 29,8l0 9 -99 0 -45 -156 -8 0c-1,0 -4,0 -7,0zm4 -14c5,0 10,1 13,1 23,0 41,-8 56,-24 14,-16 21,-36 21,-62 0,-15 -4,-26 -11,-34 -8,-8 -18,-12 -31,-12 -3,0 -7,0 -11,1l-37 130z"/>
   <path id="1" class="fil1" d="M3040 1566l-169 0 0 -9c44,-41 81,-78 111,-112 25,-29 41,-50 48,-65 6,-15 9,-30 9,-45 0,-15 -4,-26 -13,-35 -9,-9 -20,-14 -34,-14 -22,0 -40,12 -56,36l-8 -4c8,-23 18,-40 31,-52 18,-17 39,-25 64,-25 22,0 41,7 56,21 14,14 22,30 22,48 0,16 -4,32 -11,48 -7,16 -22,35 -45,59 -17,18 -52,50 -104,95l61 0c20,0 34,-2 41,-7 8,-4 16,-13 23,-27l11 0 -37 88z"/>
   <path class="fil1" d="M6736 652l-24 101 -8 0c-1,-27 -8,-48 -21,-62 -12,-13 -29,-20 -49,-20 -22,0 -44,9 -65,28 -22,18 -40,47 -55,85 -13,31 -19,61 -19,91 0,27 7,48 20,62 14,14 32,21 55,21 19,0 36,-4 52,-12 15,-8 31,-21 47,-39l11 0c-20,29 -39,49 -59,61 -20,11 -44,17 -73,17 -38,0 -69,-11 -92,-35 -24,-23 -36,-53 -36,-91 0,-35 10,-68 28,-100 19,-32 46,-58 81,-77 35,-20 70,-30 105,-30 13,0 29,3 49,9 10,2 17,4 21,4 8,0 15,-4 23,-13l9 0z"/>
   <path id="1" class="fil1" d="M6925 653l-79 267c-4,14 -6,23 -6,27 0,4 2,8 5,12 2,4 6,7 9,8 3,1 13,2 30,3l-2 8 -161 0 3 -8c16,0 27,-2 33,-4 6,-2 11,-6 15,-12 4,-5 9,-16 14,-34l47 -158c7,-24 11,-37 11,-38 1,-5 2,-8 2,-12 0,-7 -3,-13 -7,-17 -4,-4 -10,-6 -18,-6 -4,0 -12,1 -24,2l-2 -9 120 -29 10 0z"/>
   <path class="fil1" d="M4370 1024l-24 101 -8 0c-1,-28 -8,-48 -20,-62 -13,-13 -30,-20 -50,-20 -22,0 -43,9 -65,28 -22,18 -40,46 -55,84 -12,31 -18,62 -18,92 0,27 6,48 20,62 13,14 31,21 54,21 19,0 37,-4 52,-12 16,-8 31,-21 47,-40l11 0c-19,29 -39,50 -59,61 -20,12 -44,18 -73,18 -38,0 -69,-12 -92,-35 -24,-23 -35,-54 -35,-91 0,-35 9,-68 28,-100 18,-32 45,-58 80,-78 35,-19 70,-29 105,-29 13,0 29,3 49,8 10,3 17,4 21,4 8,0 16,-4 24,-12l8 0z"/>
   <path id="1" class="fil1" d="M4515 1350l-169 0 0 -9c44,-40 81,-78 111,-112 25,-28 41,-50 48,-65 6,-15 9,-30 9,-45 0,-15 -4,-26 -13,-35 -9,-9 -20,-13 -34,-13 -21,0 -40,12 -56,36l-8 -4c8,-24 18,-41 31,-53 18,-17 40,-25 64,-25 22,0 41,7 56,21 15,14 22,30 22,48 0,16 -4,32 -11,48 -7,16 -22,35 -45,59 -17,18 -52,50 -104,95l61 0c20,0 34,-2 42,-7 7,-4 15,-13 22,-27l11 0 -37 88z"/>
   <path class="fil1" d="M1265 1446l-28 97c-4,13 -6,24 -6,30 0,6 2,11 7,15 5,3 15,5 30,5l-3 9 -153 0 3 -9c15,0 26,-3 34,-9 7,-6 13,-19 19,-40l59 -204c3,-12 5,-21 5,-28 0,-6 -2,-11 -6,-14 -5,-3 -14,-6 -29,-7l2 -8 132 0c38,0 65,7 80,20 15,13 23,30 23,50 0,22 -9,42 -27,59 -11,11 -31,21 -60,29l28 96c8,27 15,42 20,48 6,5 15,8 29,8l0 9 -99 0 -45 -156 -8 0c-1,0 -4,0 -7,0zm4 -14c5,0 10,0 13,0 23,0 41,-7 56,-23 14,-16 21,-36 21,-62 0,-15 -4,-26 -11,-34 -8,-8 -18,-12 -31,-12 -3,0 -7,0 -11,1l-37 130z"/>
   <path id="1" class="fil1" d="M1663 1277l-79 267c-4,14 -6,23 -6,27 0,3 2,7 4,11 3,4 6,7 10,8 3,1 13,3 30,3l-2 9 -161 0 3 -9c15,0 27,-1 33,-4 6,-2 11,-6 15,-11 4,-6 9,-17 14,-34l47 -158c7,-25 11,-38 11,-39 1,-4 1,-8 1,-11 0,-8 -2,-13 -6,-17 -4,-4 -11,-7 -19,-7 -4,0 -11,1 -23,2l-2 -8 120 -29 10 0z"/>
   <path class="fil1" d="M2740 4162l-28 97c-4,14 -6,24 -6,30 0,6 2,11 7,15 5,3 15,5 31,6l-4 8 -153 0 3 -8c15,0 27,-3 34,-9 7,-6 13,-20 19,-41l59 -204c3,-12 5,-21 5,-27 0,-7 -2,-11 -6,-15 -4,-3 -14,-5 -29,-6l3 -9 132 0c37,0 64,7 79,20 16,13 23,30 23,51 0,22 -9,41 -27,59 -11,11 -31,20 -60,28l28 97c8,26 15,42 20,47 6,5 16,8 29,9l0 8 -99 0 -45 -156 -8 1c-1,0 -4,0 -7,-1zm4 -14c5,1 10,1 13,1 23,0 41,-8 56,-24 14,-15 21,-36 21,-61 0,-15 -4,-27 -11,-35 -8,-7 -18,-11 -31,-11 -3,0 -7,0 -11,0l-37 130z"/>
   <path id="1" class="fil1" d="M3094 4318l-169 0 0 -9c44,-40 81,-78 111,-112 25,-28 41,-50 47,-65 7,-15 10,-30 10,-45 0,-14 -4,-26 -13,-35 -9,-9 -20,-13 -34,-13 -22,0 -40,12 -56,36l-8 -4c8,-23 18,-41 31,-53 18,-17 39,-25 64,-25 22,0 41,7 56,21 14,14 22,30 22,48 0,17 -4,32 -11,48 -7,16 -22,36 -45,59 -17,19 -52,50 -104,95l61 0c20,0 33,-2 41,-7 8,-4 16,-13 23,-26l11 0 -37 87z"/>
   <path class="fil1" d="M6579 4271l-24 101 -8 0c-1,-27 -8,-48 -20,-62 -13,-13 -29,-20 -50,-20 -21,0 -43,9 -65,28 -21,18 -40,47 -55,85 -12,31 -18,61 -18,91 0,27 6,48 20,62 13,14 32,21 55,21 19,0 36,-4 51,-12 16,-8 31,-21 47,-39l11 0c-19,29 -39,49 -59,61 -19,12 -44,17 -72,17 -39,0 -70,-11 -93,-34 -23,-24 -35,-54 -35,-91 0,-36 9,-69 28,-101 19,-32 45,-57 80,-77 35,-20 70,-30 105,-30 13,0 30,3 49,9 10,2 17,4 21,4 8,0 16,-4 24,-13l8 0z"/>
   <path id="1" class="fil1" d="M6769 4272l-79 267c-4,15 -6,23 -6,27 0,4 1,8 4,12 3,4 6,7 9,8 4,1 14,2 31,3l-3 8 -161 0 3 -8c16,0 27,-2 33,-4 7,-2 12,-6 16,-12 4,-5 8,-16 13,-34l47 -158c7,-24 11,-37 11,-38 1,-4 2,-8 2,-12 0,-7 -2,-13 -7,-17 -4,-4 -10,-6 -18,-6 -4,0 -12,1 -23,2l-2 -9 120 -29 10 0z"/>
   <path class="fil1" d="M4357 3947l-24 101 -8 0c-1,-27 -8,-48 -20,-62 -13,-13 -30,-20 -50,-20 -22,0 -43,9 -65,28 -22,18 -40,47 -55,85 -12,31 -19,61 -19,91 0,27 7,48 20,62 14,14 32,21 55,21 19,0 36,-4 52,-12 15,-8 31,-21 47,-40l11 0c-19,30 -39,50 -59,62 -20,11 -44,17 -73,17 -38,0 -69,-11 -92,-35 -24,-23 -35,-53 -35,-91 0,-35 9,-68 28,-100 18,-32 45,-58 80,-77 35,-20 70,-30 105,-30 13,0 29,3 49,9 10,2 17,4 21,4 8,0 16,-4 24,-13l8 0z"/>
   <path id="1" class="fil1" d="M4502 4273l-169 0 0 -9c44,-40 81,-78 111,-112 25,-28 41,-50 48,-65 6,-15 9,-30 9,-45 0,-14 -4,-26 -13,-35 -9,-9 -20,-13 -34,-13 -22,0 -40,12 -56,36l-8 -4c8,-23 18,-41 31,-53 18,-17 40,-25 64,-25 22,0 41,7 56,21 14,14 22,30 22,49 0,16 -4,32 -11,47 -7,16 -22,36 -45,59 -17,19 -52,50 -104,95l61 0c20,0 34,-2 42,-6 7,-5 15,-14 22,-27l11 0 -37 87z"/>
   <path class="fil1" d="M1308 3331l26 -265c1,-14 2,-23 2,-28 0,-7 -3,-12 -8,-17 -5,-5 -13,-7 -25,-7l-8 0 2 -9 126 0 -3 9c-13,0 -23,1 -28,4 -5,3 -9,7 -12,14 -2,3 -3,13 -5,29l-19 191 125 -170c14,-19 22,-31 26,-39 2,-5 3,-9 3,-12 0,-5 -2,-8 -5,-12 -4,-3 -11,-5 -20,-5l2 -9 96 0 -3 9c-7,0 -13,2 -18,4 -9,4 -17,10 -26,19 -8,8 -22,25 -40,50l-179 244 -9 0z"/>
   <path id="1" class="fil1" d="M1612 3420l-2 7 -92 0 2 -7c10,0 16,-1 19,-2 5,-2 8,-4 11,-8 3,-5 7,-14 11,-28l40 -137c3,-12 5,-20 5,-26 0,-3 -1,-5 -3,-7 -1,-3 -3,-4 -6,-5 -3,-1 -9,-2 -17,-2l2 -6 86 0 -2 6c-7,0 -12,1 -16,3 -5,2 -8,6 -11,10 -3,5 -6,15 -10,31l-40 137c-3,11 -5,18 -5,21 0,3 1,5 2,7 2,2 4,3 7,4 3,1 9,2 19,2z"/>
   <path id="2" class="fil1" d="M1840 3186l-59 202c-3,11 -4,19 -4,22 0,1 0,2 0,3 1,1 2,1 2,1 1,0 3,-1 4,-2 3,-2 7,-9 13,-20l6 4c-7,11 -14,19 -20,25 -7,6 -13,9 -19,9 -3,0 -6,-1 -8,-4 -3,-2 -4,-6 -4,-11 0,-6 2,-15 5,-25l7 -21c-18,25 -34,42 -49,52 -10,6 -20,9 -29,9 -10,0 -18,-3 -25,-11 -7,-7 -10,-18 -10,-31 0,-16 6,-34 17,-53 12,-19 27,-34 46,-46 15,-9 28,-14 41,-14 6,0 12,1 17,4 4,2 9,6 14,12l16 -55c1,-7 3,-12 4,-16 1,-4 2,-8 2,-11 0,-2 -1,-4 -3,-5 -2,-2 -5,-3 -9,-3 -2,0 -6,0 -12,1l0 -6 57 -10zm-64 121c0,-7 -3,-13 -7,-17 -5,-5 -11,-7 -18,-7 -15,0 -32,12 -48,35 -17,23 -26,46 -26,67 0,8 2,15 7,19 4,5 9,7 15,7 14,0 30,-13 49,-38 18,-25 28,-47 28,-66z"/>
   <path class="fil1" d="M12547 3521l26 -265c2,-13 2,-22 2,-27 0,-7 -2,-13 -8,-18 -5,-4 -13,-7 -24,-7l-9 0 3 -8 125 0 -3 8c-13,0 -22,2 -28,5 -5,2 -9,7 -12,13 -1,4 -3,14 -5,30l-18 190 125 -170c13,-18 22,-31 25,-38 2,-5 3,-9 3,-13 0,-4 -1,-8 -5,-11 -4,-3 -10,-5 -20,-6l3 -8 95 0 -2 8c-8,1 -14,2 -19,5 -8,4 -17,10 -25,18 -9,9 -22,25 -41,51l-179 243 -9 0z"/>
   <path id="1" class="fil1" d="M12937 3384c16,0 29,4 41,10 11,7 20,16 27,29 6,13 10,26 10,40 0,24 -7,50 -21,77 -15,27 -33,47 -56,61 -23,14 -46,21 -71,21 -17,0 -32,-4 -44,-11 -12,-8 -20,-18 -26,-31 -6,-13 -8,-25 -8,-37 0,-21 5,-42 15,-63 10,-21 22,-38 37,-52 14,-14 29,-25 45,-32 16,-8 33,-12 51,-12zm-6 11c-11,0 -22,3 -33,8 -10,6 -21,15 -31,28 -11,12 -21,29 -29,49 -10,25 -15,49 -15,71 0,16 4,30 12,42 8,13 21,19 38,19 10,0 20,-3 30,-8 10,-5 20,-14 30,-26 14,-15 25,-35 34,-58 9,-24 14,-46 14,-67 0,-15 -4,-29 -13,-40 -8,-12 -20,-18 -37,-18z"/>
   <path id="2" class="fil1" d="M13213 3377l-59 202c-3,11 -5,18 -5,21 0,1 1,2 1,3 1,1 2,2 2,2 1,0 2,-1 4,-2 2,-3 7,-9 13,-20l5 3c-6,11 -13,20 -20,26 -6,6 -12,9 -18,9 -3,0 -6,-1 -8,-4 -3,-3 -4,-7 -4,-11 0,-7 2,-15 5,-26l7 -21c-18,25 -35,42 -49,52 -10,7 -20,10 -29,10 -10,0 -18,-4 -25,-11 -7,-8 -10,-18 -10,-31 0,-17 5,-34 17,-53 11,-19 27,-35 46,-46 14,-10 28,-15 41,-15 6,0 12,2 17,4 4,3 9,7 14,12l15 -55c2,-6 4,-11 5,-15 1,-5 2,-8 2,-11 0,-3 -1,-4 -3,-6 -2,-2 -5,-3 -9,-3 -2,0 -6,1 -12,1l0 -6 57 -9zm-65 121c0,-8 -2,-13 -6,-18 -5,-4 -11,-6 -18,-6 -15,0 -32,11 -49,35 -16,23 -25,45 -25,66 0,9 2,15 7,20 4,4 9,6 15,6 14,0 30,-12 48,-37 19,-26 28,-48 28,-66z"/>
   <g>
    <path class="fil1" d="M12257 1729l93 222 0 0 -6 -3 -6 -3 -6 -3 -6 -2 -5 -2 -6 -2 -6 -2 -6 -1 -6 -2 -6 -1 -6 -1 -6 -1 -6 -1 -6 0 -6 0 -6 -1 -5 0 -6 1 -6 0 -6 1 -6 1 -6 0 -6 2 -6 1 -6 2 -6 1 -6 2 -6 2 -5 3 -6 2 -6 3 -6 3 96 -221zm-28 3446l18 -3335 18 0 -19 3335 -17 0z"/>
   </g>
   <g>
    <path class="fil1" d="M3780 589l0 827 -17 0 0 -827 17 0zm74 0l0 15 -165 0 0 -31 165 0 0 16z"/>
   </g>
   <g>
    <path class="fil1" d="M5106 2073l89 223 0 0 -6 -3 -6 -3 -6 -3 -6 -2 -6 -2 -5 -3 -6 -1 -6 -2 -6 -2 -6 -1 -6 -1 -6 -1 -6 -1 -5 -1 -6 0 -6 0 -6 0 -6 0 -6 0 -6 1 -6 0 -6 1 -6 1 -6 2 -6 1 -6 2 -6 1 -6 2 -6 3 -6 2 -5 2 -6 3 100 -218zm-28 783l16 -673 18 1 -17 673 -17 -1z"/>
   </g>
   <path class="fil1" d="M6738 3299l-87 306 35 -30c38,-33 64,-57 76,-73 3,-5 5,-9 5,-12 0,-2 0,-4 -2,-6 -1,-1 -3,-3 -7,-4 -4,-1 -10,-1 -19,-1l-11 0 3 -12 137 0 -3 12c-16,0 -29,3 -41,7 -11,4 -22,11 -33,19 -21,15 -34,26 -41,32l-27 25c5,14 10,35 17,62 11,44 19,70 23,79 3,8 7,12 12,12 3,0 7,-2 12,-5 11,-8 22,-21 35,-38l11 8c-23,28 -40,47 -52,56 -12,9 -23,13 -33,13 -9,0 -16,-3 -21,-9 -8,-13 -22,-61 -41,-145l-43 37 -32 110 -48 0 102 -356 9 -30c1,-5 1,-10 1,-13 0,-5 -1,-9 -5,-13 -4,-3 -10,-5 -17,-5 -4,0 -12,1 -22,4l-1 -12 108 -18z"/>
   <path id="1" class="fil1" d="M6854 3479l88 -19c7,15 12,31 16,47 6,24 10,51 14,84 2,16 4,50 7,102 26,-28 42,-46 47,-53 27,-37 43,-59 47,-65 7,-11 12,-21 15,-29 2,-6 3,-12 4,-18 0,-5 -5,-12 -15,-19 -9,-7 -14,-15 -14,-23 0,-7 3,-13 8,-18 5,-5 11,-8 19,-8 8,0 16,4 22,11 7,7 10,16 10,26 0,11 -1,21 -5,31 -5,16 -15,35 -30,58 -15,22 -39,53 -71,91 -5,5 -28,29 -70,72l-11 0c-5,-131 -16,-213 -31,-246 -6,-10 -14,-15 -26,-15 -6,0 -13,1 -22,2l-2 -11z"/>
   <path id="2" class="fil1" d="M7266 3527c9,0 16,2 22,9 6,6 9,13 9,22 0,8 -3,16 -9,22 -6,6 -14,9 -22,9 -9,0 -16,-3 -22,-9 -6,-6 -9,-14 -9,-22 0,-9 3,-16 9,-22 6,-7 13,-9 22,-9zm14 123l-66 221c-4,15 -7,24 -7,27 0,3 1,6 3,8 2,2 4,3 6,3 3,0 7,-2 11,-5 10,-9 21,-22 32,-39l11 7c-14,21 -30,39 -48,53 -13,11 -26,16 -38,16 -9,0 -15,-3 -20,-8 -5,-5 -8,-11 -8,-19 0,-7 3,-20 8,-38l44 -141c6,-23 10,-37 10,-43 0,-5 -2,-8 -5,-11 -3,-3 -8,-5 -13,-5 -5,0 -14,2 -29,4l0 -12 109 -18z"/>
   <g>
    <polygon class="fil1" points="7024,1940 7024,2058 7142,2058 7142,2089 7024,2089 7024,2207 6992,2207 6992,2089 6876,2089 6876,2058 6992,2058 6992,1940 "/>
    <polygon class="fil1" points="7040,2770 7040,2897 7003,2897 7003,2770 "/>
    <rect class="fil0 str2" transform="matrix(-0.966762 -0.966762 0.966762 -0.966762 7030.28 3095.53)" width="676" height="676"/>
   </g>
   <path class="fil1" d="M4261 2232l104 -23c8,18 14,37 19,56 7,27 12,60 16,98 2,19 5,59 8,121 31,-34 49,-55 55,-63 33,-43 52,-69 57,-77 8,-13 13,-24 17,-34 2,-7 4,-14 4,-21 0,-6 -5,-13 -17,-22 -11,-8 -17,-17 -17,-28 0,-7 4,-14 10,-20 6,-7 13,-10 22,-10 10,0 19,5 27,13 7,8 11,19 11,31 0,13 -2,25 -6,36 -6,19 -18,41 -35,68 -18,27 -46,63 -84,108 -5,5 -33,34 -82,85l-14 0c-5,-155 -18,-251 -36,-290 -6,-12 -17,-18 -31,-18 -6,0 -14,1 -26,3l-2 -13z"/>
   <path id="1" class="fil1" d="M4746 2288c10,0 19,3 26,10 7,7 11,16 11,26 0,10 -4,19 -11,26 -7,8 -16,11 -26,11 -10,0 -18,-3 -26,-11 -7,-7 -11,-16 -11,-26 0,-10 4,-19 11,-26 7,-7 16,-10 26,-10zm16 145l-77 260c-5,18 -8,28 -8,32 0,4 1,7 3,9 3,2 5,4 8,4 3,0 7,-2 12,-6 12,-11 25,-26 38,-47l13 9c-16,25 -35,46 -56,62 -16,13 -31,19 -46,19 -9,0 -17,-3 -23,-9 -6,-6 -9,-13 -9,-22 0,-9 3,-24 10,-46l51 -166c8,-26 11,-43 11,-50 0,-5 -1,-10 -5,-13 -4,-4 -9,-5 -16,-5 -5,0 -16,1 -33,4l0 -14 127 -21z"/>
   <g>
    <path class="fil1" d="M2192 2383l0 -5c29,-5 51,-14 66,-27 10,-9 16,-20 16,-33 0,-10 -3,-18 -10,-24 -6,-6 -13,-9 -22,-9 -13,0 -25,8 -36,25l-7 -2c7,-14 15,-25 25,-32 10,-7 21,-11 32,-11 15,0 27,4 35,13 9,9 14,19 14,33 0,11 -4,22 -13,32 -8,10 -23,20 -43,28 13,5 22,13 29,23 6,9 10,21 10,35 0,15 -5,31 -14,46 -8,15 -21,27 -36,35 -15,9 -31,13 -48,13 -16,0 -27,-3 -35,-8 -6,-4 -8,-8 -8,-13 0,-4 1,-8 4,-11 4,-3 7,-4 12,-4 3,0 6,0 9,1 2,1 7,3 15,7 7,5 13,8 18,9 4,1 8,2 13,2 11,0 20,-6 27,-19 7,-13 11,-26 11,-41 0,-12 -2,-22 -7,-31 -5,-9 -13,-17 -23,-22 -11,-6 -22,-9 -34,-10z"/>
    <circle class="fil0 str1" cx="2226" cy="2394" r="188"/>
   </g>
   <path class="fil1" d="M2157 4366l14 -69 -110 0 7 -33 152 -167 27 0 -36 171 38 0 -6 29 -39 0 -14 69 -33 0zm21 -98l24 -112 -101 112 77 0z"/>
   <circle class="fil0 str1" cx="2155" cy="4231" r="188"/>
   <circle class="fil0 str1" cx="3812" cy="2373" r="188"/>
   <circle class="fil0 str1" cx="3485" cy="4217" r="188"/>
   <g>
    <path class="fil1" d="M8799 1250l123 0 0 7 -139 246 -15 -6 123 -217 -60 0c-16,0 -27,1 -33,4 -6,3 -13,10 -21,21l-7 0 29 -55z"/>
    <circle class="fil0 str1" cx="8845" cy="1377" r="188"/>
   </g>
   <g>
    <path class="fil1" d="M8858 3444c11,12 20,24 25,35 6,11 9,23 9,34 0,20 -8,37 -23,52 -15,15 -34,22 -56,22 -20,0 -37,-6 -49,-18 -13,-12 -19,-26 -19,-42 0,-14 5,-28 15,-41 11,-13 30,-26 58,-39 -11,-13 -18,-24 -22,-33 -4,-8 -6,-17 -6,-25 0,-17 6,-31 18,-42 13,-12 28,-18 47,-18 17,0 32,5 43,15 11,10 16,22 16,36 0,13 -4,25 -13,36 -9,11 -23,20 -43,28zm-8 -8c14,-5 24,-12 31,-22 7,-11 11,-22 11,-36 0,-12 -4,-22 -11,-29 -7,-7 -16,-11 -27,-11 -11,0 -20,4 -27,10 -6,7 -10,16 -10,27 0,8 2,16 6,23 5,10 14,23 27,38zm-25 19c-18,7 -32,18 -41,33 -10,14 -14,30 -14,46 0,13 4,24 12,32 8,8 19,12 33,12 13,0 25,-4 35,-14 9,-10 14,-22 14,-35 0,-10 -3,-21 -8,-33 -6,-11 -16,-25 -31,-41z"/>
    <circle class="fil0 str1" cx="8830" cy="3458" r="188"/>
   </g>
   <polygon class="fil1" points="425,2910 489,2910 489,2846 543,2846 543,2910 608,2910 608,2964 543,2964 543,3029 489,3029 489,2964 425,2964 "/>
   <polygon class="fil1" points="437,3567 613,3567 613,3605 437,3605 "/>
   <g>
    <path class="fil1" d="M321 2314l-59 206c-3,12 -5,21 -5,26 0,4 2,8 5,10 3,3 10,4 22,5l-2 7 -95 0 3 -7c10,0 17,-1 20,-2 5,-2 9,-5 11,-9 4,-6 9,-16 13,-30l42 -148c3,-9 4,-14 5,-15 0,-3 0,-5 0,-8 0,-4 -1,-7 -3,-10 -3,-2 -6,-3 -10,-3 -3,0 -8,1 -15,2l-2 -7 62 -17 8 0z"/>
    <circle class="fil0 str1" cx="254" cy="2441" r="188"/>
   </g>
   <g>
    <path class="fil1" d="M327 4186l-125 0 0 -7c63,-55 105,-99 125,-130 10,-15 14,-30 14,-46 0,-13 -4,-23 -11,-31 -8,-8 -18,-12 -31,-12 -17,0 -31,8 -42,25l-7 -3c7,-16 16,-28 28,-37 12,-9 25,-13 39,-13 15,0 29,5 39,16 11,11 16,24 16,39 0,11 -1,21 -5,30 -6,15 -17,31 -33,48 -24,28 -56,59 -96,94l63 0c10,0 18,-2 25,-6 6,-4 11,-10 14,-17l7 0 -20 50z"/>
    <circle class="fil0 str1" cx="287" cy="4059" r="188"/>
   </g>
   <g>
    <path class="fil1" d="M2241 4105l-48 163 30 0 -7 23 -29 0 -19 67 -27 0 19 -67 -90 0 7 -26 150 -160 14 0zm-41 47l-107 116 73 0 34 -116z"/>
    <circle class="fil0 str1" cx="2155" cy="4231" r="188"/>
   </g>
   <g>
    <path class="fil1" d="M3812 2247l83 0 -8 30 -75 0 -14 30c20,4 36,10 47,19 17,14 25,34 25,60 0,17 -3,32 -9,46 -7,14 -14,25 -23,35 -10,9 -19,16 -30,22 -14,7 -28,11 -42,11 -13,0 -23,-3 -30,-8 -5,-4 -7,-9 -7,-14 0,-5 1,-8 5,-11 3,-3 7,-5 11,-5 7,0 14,3 22,10 5,4 9,6 12,8 3,1 6,1 9,1 14,0 27,-7 38,-20 12,-14 18,-32 18,-54 0,-15 -3,-28 -9,-39 -7,-11 -14,-18 -24,-23 -9,-4 -22,-7 -38,-9l39 -89z"/>
    <circle class="fil0 str1" cx="3812" cy="2373" r="188"/>
   </g>
   <g>
    <path class="fil1" d="M3572 4088l0 8c-21,5 -41,15 -61,31 -19,15 -37,35 -51,60 13,-6 24,-8 32,-8 15,0 29,5 40,16 11,12 16,27 16,46 0,29 -9,54 -28,75 -19,20 -39,30 -61,30 -20,0 -35,-7 -45,-21 -10,-15 -15,-32 -15,-51 0,-25 5,-50 17,-74 12,-25 27,-45 47,-63 20,-17 41,-30 62,-39 13,-5 28,-8 47,-10zm-121 114c-18,37 -27,69 -27,94 0,13 4,23 10,31 7,7 15,11 23,11 14,0 27,-10 40,-31 12,-20 18,-44 18,-71 0,-14 -4,-25 -11,-33 -7,-8 -15,-12 -26,-12 -4,0 -8,1 -12,3 -4,1 -9,4 -15,8z"/>
    <circle class="fil0 str1" cx="3485" cy="4217" r="188"/>
   </g>
   <path class="fil1" d="M3320 712c0,-23 3,-46 10,-69 7,-24 14,-42 22,-57 9,-14 17,-25 26,-32 9,-8 18,-14 26,-18 9,-4 19,-6 29,-6 21,0 38,8 52,23 13,16 20,38 20,66 0,30 -5,59 -14,89 -11,34 -27,60 -47,77 -15,13 -33,20 -53,20 -20,0 -37,-8 -51,-24 -13,-16 -20,-39 -20,-69zm32 8c0,17 2,30 8,39 7,13 18,19 33,19 13,0 24,-6 35,-17 15,-16 26,-40 34,-72 8,-31 12,-57 12,-77 0,-20 -4,-34 -12,-42 -7,-9 -17,-13 -29,-13 -9,0 -17,2 -24,7 -8,4 -15,12 -22,23 -10,16 -19,39 -26,70 -6,26 -9,47 -9,63z"/>
   <circle class="fil0 str1" cx="3412" cy="668" r="188"/>
   <g>
    <path class="fil1" d="M5110 3990c15,0 28,7 39,20 11,13 16,34 16,62 0,24 -4,49 -12,74 -8,25 -19,47 -33,65 -12,15 -24,25 -36,32 -8,4 -16,5 -26,5 -16,0 -29,-6 -40,-19 -11,-13 -16,-34 -16,-62 0,-28 6,-56 16,-85 13,-33 29,-58 48,-75 13,-11 28,-17 44,-17zm0 10c-7,0 -14,2 -22,8 -7,6 -15,17 -22,35 -8,17 -16,40 -23,68 -9,36 -13,67 -13,93 0,12 2,22 8,28 5,6 12,10 20,10 7,0 14,-3 19,-8 14,-13 26,-35 36,-67 17,-53 25,-95 25,-128 0,-13 -3,-23 -9,-30 -5,-6 -12,-9 -19,-9z"/>
    <circle class="fil0 str1" cx="5084" cy="4119" r="188"/>
   </g>
   <g>
    <polygon class="fil1" points="10314,3628 10314,3746 10431,3746 10431,3778 10314,3778 10314,3895 10282,3895 10282,3778 10166,3778 10166,3746 10282,3746 10282,3628 "/>
    <polygon class="fil1" points="10330,4459 10330,4585 10293,4585 10293,4459 "/>
    <rect class="fil0 str2" transform="matrix(-0.966762 -0.966762 0.966762 -0.966762 10320 4783.91)" width="676" height="676"/>
   </g>
   <g>
    <path class="fil1" d="M9183 5089l3 0 4 1 3 0 3 0 3 1 3 1 3 1 3 1 3 1 2 2 3 1 2 2 3 2 2 2 3 2 2 2 2 2 2 2 2 3 2 2 1 3 2 2 1 3 1 3 2 3 1 3 0 3 1 3 1 3 0 3 0 3 0 3 0 0 0 4 0 3 0 3 -1 3 -1 3 0 3 -1 3 -2 3 -1 3 -1 2 -2 3 -1 3 -2 2 -2 2 -2 3 -2 2 -2 2 -3 2 -2 2 -3 2 -2 1 -3 2 -2 1 -3 1 -3 2 -3 1 -3 0 -3 1 -3 1 -3 0 -4 0 -3 0 0 0 -3 0 -3 0 -3 0 -3 -1 -3 -1 -3 0 -3 -1 -3 -2 -3 -1 -3 -1 -2 -2 -3 -1 -2 -2 -3 -2 -2 -2 -2 -2 -2 -2 -2 -3 -2 -2 -2 -2 -2 -3 -1 -3 -2 -2 -1 -3 -1 -3 -1 -3 -1 -3 -1 -3 0 -3 -1 -3 0 -3 0 -4 0 0 0 -3 0 -3 1 -3 0 -3 1 -3 1 -3 1 -3 1 -3 1 -3 2 -3 1 -2 2 -3 2 -2 2 -3 2 -2 2 -2 2 -2 2 -2 3 -2 2 -2 3 -2 2 -1 3 -2 3 -1 3 -1 3 -1 3 -1 3 -1 3 0 3 0 3 -1 3 0 0 0zm1127 72l-1127 0 0 -18 1127 0 9 9 -9 9zm9 -9l0 9 -9 0 9 -9zm0 -368l0 368 -17 0 0 -368 17 0z"/>
   </g>
   <g>
    <path class="fil1" d="M10329 2968l0 508 -18 0 0 -508 18 0zm125 0l0 16 -268 0 0 -31 268 0 0 15z"/>
   </g>
   <g>
    <path class="fil1" d="M9188 1654l3 1 3 0 3 0 3 1 3 0 3 1 3 1 3 1 3 2 3 1 2 2 3 1 2 2 3 2 2 2 2 2 2 2 2 2 2 3 2 2 2 3 1 3 1 2 2 3 1 3 1 3 1 3 0 3 1 3 0 3 1 3 0 4 0 0 0 3 -1 3 0 3 -1 3 0 3 -1 3 -1 3 -1 3 -2 3 -1 3 -1 2 -2 3 -2 2 -2 3 -2 2 -2 2 -2 2 -2 2 -3 2 -2 2 -3 1 -2 2 -3 1 -3 2 -3 1 -3 1 -3 1 -3 0 -3 1 -3 0 -3 1 -3 0 0 0 -4 0 -3 -1 -3 0 -3 -1 -3 0 -3 -1 -3 -1 -3 -1 -3 -2 -2 -1 -3 -2 -3 -1 -2 -2 -2 -2 -3 -2 -2 -2 -2 -2 -2 -2 -2 -3 -2 -2 -1 -3 -2 -2 -1 -3 -1 -3 -2 -3 -1 -3 0 -3 -1 -3 -1 -3 0 -3 0 -3 0 -3 0 0 0 -4 0 -3 0 -3 1 -3 1 -3 0 -3 1 -3 2 -3 1 -3 1 -2 2 -3 1 -3 2 -2 2 -3 2 -2 2 -2 2 -2 3 -2 2 -2 2 -2 3 -1 3 -2 2 -1 3 -2 3 -1 3 -1 3 -1 3 0 3 -1 3 0 3 0 4 -1 0 0zm995 72l-995 0 0 -17 995 0 0 17zm86 -112l0 32 0 0 -4 0 -3 0 -4 0 -4 1 -3 1 -3 1 -4 1 -3 1 -3 2 -3 1 -3 2 -3 2 -3 2 -3 2 -2 2 -3 3 -2 2 -3 3 -2 3 -2 2 -2 3 -1 3 -2 3 -1 4 -2 3 -1 3 -1 4 -1 3 0 4 -1 3 0 4 0 4 -32 0 1 -6 0 -5 1 -5 1 -5 1 -5 1 -5 2 -5 2 -5 2 -4 2 -5 2 -4 3 -4 3 -4 3 -4 3 -4 4 -4 3 -3 4 -3 4 -3 4 -3 4 -3 5 -2 4 -3 5 -2 4 -2 5 -1 5 -2 5 -1 5 -1 5 0 6 -1 5 0 0 0zm103 104l-31 0 0 0 0 -4 0 -4 -1 -3 -1 -4 0 -3 -1 -4 -1 -3 -2 -3 -1 -4 -2 -3 -2 -3 -1 -3 -2 -2 -3 -3 -2 -3 -2 -2 -3 -3 -2 -2 -3 -2 -3 -2 -3 -2 -3 -2 -3 -1 -3 -2 -3 -1 -4 -1 -3 -1 -4 -1 -3 -1 -4 0 -3 0 -4 0 0 -32 5 0 5 1 6 0 5 1 5 1 5 2 4 1 5 2 5 2 4 3 5 2 4 3 4 3 4 3 3 3 4 3 3 4 4 4 3 4 3 4 2 4 3 4 2 5 2 4 2 5 2 5 1 5 1 5 1 5 1 5 0 5 0 6 0 0zm-103 103l0 -31 0 0 4 -1 3 0 4 0 3 -1 4 -1 3 -1 4 -1 3 -1 3 -2 3 -1 3 -2 3 -2 3 -2 3 -2 2 -2 3 -3 2 -2 2 -3 3 -2 2 -3 1 -3 2 -3 2 -3 1 -4 2 -3 1 -3 1 -4 0 -3 1 -4 1 -3 0 -4 0 -3 31 0 0 5 0 5 -1 5 -1 5 -1 5 -1 5 -2 5 -2 5 -2 4 -2 5 -3 4 -2 4 -3 4 -3 4 -4 4 -3 4 -4 3 -3 3 -4 3 -4 3 -4 3 -5 3 -4 2 -5 2 -5 2 -4 1 -5 2 -5 1 -5 1 -6 1 -5 0 -5 0 0 0zm-104 -103l32 0 0 3 0 4 1 3 0 4 1 3 1 4 1 3 2 3 1 4 2 3 1 3 2 3 2 3 2 2 3 3 2 2 3 3 2 2 3 2 3 2 3 2 3 2 3 1 3 2 3 1 4 1 3 1 3 1 4 1 4 0 3 0 4 1 0 31 -5 0 -6 0 -5 -1 -5 -1 -5 -1 -5 -2 -5 -1 -4 -2 -5 -2 -4 -2 -5 -3 -4 -3 -4 -3 -4 -3 -4 -3 -3 -3 -4 -4 -3 -4 -3 -4 -3 -4 -3 -4 -2 -4 -2 -5 -2 -4 -2 -5 -2 -5 -1 -5 -1 -5 -1 -5 -1 -5 0 -5 -1 -5z"/>
   </g>
   <g>
    <path class="fil1" d="M10319 2159l0 605 -17 0 0 -605 17 0zm-9 -111l95 221 -6 -3 -6 -3 -6 -2 -6 -3 -5 -2 -6 -2 -6 -2 -6 -1 -6 -1 -6 -2 -6 -1 -6 -1 -6 0 -6 -1 -6 0 -6 0 -5 0 -6 0 -6 1 -6 0 -6 1 -6 1 -6 2 -6 1 -6 1 -6 2 -6 2 -6 2 -5 3 -6 2 -6 3 -6 3 0 0 94 -221z"/>
   </g>
   <path class="fil1" d="M10689 2251l175 0 -4 11c-18,1 -30,2 -38,5 -8,3 -14,9 -20,16 -5,8 -11,22 -17,43l-45 154c-8,28 -13,46 -15,55 -2,11 -3,22 -3,33 0,22 9,41 28,57 19,15 45,23 76,23 21,0 40,-4 56,-12 16,-7 30,-18 41,-32 11,-13 22,-32 31,-56 10,-23 18,-47 25,-71l36 -127c9,-32 14,-52 14,-62 0,-6 -3,-12 -9,-17 -6,-5 -19,-8 -38,-9l3 -11 132 0 -3 11c-16,0 -27,2 -34,5 -7,3 -13,8 -18,16 -5,8 -11,23 -17,45l-46 161c-16,53 -29,90 -41,111 -12,21 -30,39 -54,54 -25,14 -55,21 -92,21 -42,0 -75,-11 -101,-35 -26,-23 -38,-50 -38,-81 0,-12 1,-25 3,-38 2,-9 6,-25 12,-47l42 -141c6,-20 8,-35 8,-45 0,-8 -2,-13 -8,-18 -6,-4 -21,-7 -44,-8l3 -11z"/>
   <path id="1" class="fil1" d="M11228 2750c-15,18 -30,31 -46,40 -15,8 -31,12 -48,12 -20,0 -36,-5 -47,-17 -11,-11 -17,-27 -17,-46 0,-22 6,-43 18,-64 12,-21 29,-38 50,-51 20,-14 40,-20 60,-20 16,0 27,3 35,9 8,7 12,15 12,24 0,9 -3,17 -8,23 -4,5 -9,7 -15,7 -4,0 -8,-1 -11,-4 -3,-3 -4,-6 -4,-11 0,-2 0,-5 1,-7 1,-2 4,-5 7,-8 3,-4 5,-6 6,-7 1,-2 1,-3 1,-5 0,-3 -1,-5 -4,-7 -4,-3 -10,-5 -18,-5 -14,0 -28,5 -42,15 -14,10 -26,24 -35,42 -12,22 -18,44 -18,66 0,14 4,26 13,34 8,9 19,13 34,13 11,0 22,-3 33,-8 11,-6 23,-16 36,-30l7 5z"/>
   <path class="fil1" d="M10983 4454l-99 342c-6,21 -9,35 -9,44 0,8 3,13 8,17 5,4 17,7 37,9l-3 11 -158 0 5 -11c16,-1 27,-2 33,-4 8,-4 15,-9 19,-15 7,-9 13,-26 20,-51l71 -246c5,-15 7,-23 7,-25 1,-4 1,-8 1,-12 0,-7 -2,-13 -6,-17 -3,-4 -9,-6 -15,-6 -6,0 -14,1 -25,4l-4 -11 103 -29 15 0z"/>
   <path id="1" class="fil1" d="M11326 4462l174 0 -3 11c-18,1 -31,2 -38,5 -8,3 -15,9 -20,16 -5,8 -11,22 -17,43l-46 154c-8,28 -12,46 -14,54 -2,12 -4,23 -4,33 0,23 10,42 29,57 19,16 44,24 76,24 21,0 40,-4 56,-12 16,-7 29,-18 41,-32 11,-14 22,-32 31,-56 9,-23 18,-47 25,-71l36 -127c9,-32 14,-52 14,-62 0,-7 -3,-12 -10,-17 -6,-5 -18,-8 -37,-9l3 -11 132 0 -4 11c-15,0 -26,2 -33,5 -7,3 -13,8 -18,16 -5,7 -11,23 -17,45l-47 161c-15,52 -28,89 -40,111 -12,21 -30,39 -55,54 -24,14 -55,21 -91,21 -42,0 -76,-12 -101,-35 -26,-24 -39,-51 -39,-81 0,-12 1,-25 4,-38 1,-9 5,-25 12,-47l42 -141c5,-21 8,-36 8,-45 0,-8 -3,-14 -9,-18 -5,-4 -20,-7 -43,-8l3 -11z"/>
   <path id="2" class="fil1" d="M11139 4630c8,0 16,3 22,9 7,6 10,14 10,23 0,9 -3,16 -10,23 -6,6 -14,9 -22,9 -9,0 -17,-3 -23,-9 -7,-7 -10,-14 -10,-23 0,-9 3,-17 10,-23 6,-6 14,-9 23,-9z"/>
   <path id="3" class="fil1" d="M11864 4961c-15,18 -30,31 -45,40 -15,8 -31,12 -48,12 -20,0 -36,-6 -47,-17 -12,-11 -17,-27 -17,-46 0,-22 6,-43 18,-64 12,-21 29,-38 49,-52 21,-13 41,-19 61,-19 16,0 27,3 35,9 8,7 11,15 11,24 0,9 -2,17 -8,23 -4,5 -9,7 -14,7 -5,0 -8,-1 -11,-4 -3,-3 -5,-7 -5,-11 0,-3 1,-5 2,-7 1,-3 3,-5 6,-9 4,-3 6,-5 7,-6 0,-2 1,-3 1,-5 0,-3 -2,-5 -4,-7 -5,-3 -11,-5 -18,-5 -14,0 -28,5 -42,15 -14,10 -26,24 -36,42 -11,22 -17,44 -17,66 0,14 4,26 12,34 9,9 20,13 34,13 11,0 22,-3 33,-8 11,-6 23,-16 37,-30l6 5z"/>
  </g>
 </g>
</svg>
