<?xml version="1.0" encoding="UTF-8"?>
<!DOCTYPE svg PUBLIC "-//W3C//DTD SVG 1.1//EN" "http://www.w3.org/Graphics/SVG/1.1/DTD/svg11.dtd">
<!-- Creator: CorelDRAW Home & Student X8 -->
<svg xmlns="http://www.w3.org/2000/svg" xml:space="preserve" width="179.264mm" height="61.0635mm" version="1.1" style="shape-rendering:geometricPrecision; text-rendering:geometricPrecision; image-rendering:optimizeQuality; fill-rule:evenodd; clip-rule:evenodd"
viewBox="0 0 18251 6217"
 xmlns:xlink="http://www.w3.org/1999/xlink">
 <defs>
  <style type="text/css">
   <![CDATA[
    .str0 {stroke:#2B2A29;stroke-width:40.7252}
    .str2 {stroke:#2B2A29;stroke-width:30.5439}
    .str1 {stroke:#2B2A29;stroke-width:20.3626}
    .fil0 {fill:none}
    .fil1 {fill:#2B2A29;fill-rule:nonzero}
   ]]>
  </style>
 </defs>
 <g id="Warstwa_x0020_1">
  <metadata id="CorelCorpID_0Corel-Layer"/>
  <g id="_717160184">
   <polyline class="fil0 str0" points="5087,2186 5023,2344 4895,2024 4767,2344 4640,2024 4512,2344 4384,2024 4320,2187 "/>
   <polyline class="fil0 str0" points="6767,2186 6703,2344 6576,2024 6448,2344 6320,2024 6193,2344 6065,2024 6001,2187 "/>
   <polyline class="fil0 str0" points="6767,5294 6703,5452 6576,5131 6448,5452 6320,5131 6193,5452 6065,5131 6001,5294 "/>
   <polyline class="fil0 str0" points="5087,5294 5023,5452 4895,5131 4767,5452 4640,5131 4512,5452 4384,5131 4320,5294 "/>
   <path class="fil0 str0" d="M7107 1766l618 0m-607 -280c208,195 367,193 570,-2"/>
   <path class="fil0 str0" d="M7870 4943l0 618m280 -607c-195,208 -193,367 2,570"/>
   <polygon class="fil1" points="17353,5950 17555,5950 17555,5993 17353,5993 "/>
   <polyline class="fil0 str1" points="11156,1971 13632,1971 13632,311 10746,311 "/>
   <g>
    <path class="fil1" d="M5577 317l4979 0 0 20 -4979 0 -10 -10 10 -10zm-10 10l0 -10 10 0 -10 10zm0 1839l0 -1839 21 0 0 1839 -21 0zm83 0l0 0 0 4 -1 3 0 4 -1 4 -1 3 -1 3 -1 4 -1 3 -1 3 -2 3 -2 3 -2 3 -2 3 -2 3 -2 3 -2 2 -3 3 -3 2 -2 2 -3 2 -3 2 -3 2 -3 1 -4 2 -3 1 -3 1 -4 1 -3 1 -4 1 -3 0 -4 0 -4 0 0 0 -3 0 -4 0 -4 0 -3 -1 -4 -1 -3 -1 -4 -1 -3 -1 -3 -2 -3 -1 -3 -2 -3 -2 -3 -2 -3 -2 -2 -2 -3 -3 -2 -2 -3 -3 -2 -3 -2 -3 -2 -3 -1 -3 -2 -3 -1 -3 -2 -3 -1 -4 -1 -3 -1 -3 0 -4 -1 -4 0 -3 0 -4 0 0 0 -4 0 -3 1 -4 0 -4 1 -3 1 -3 1 -4 2 -3 1 -3 2 -3 1 -3 2 -3 2 -3 2 -3 3 -3 2 -2 3 -3 2 -2 3 -2 3 -2 3 -2 3 -2 3 -1 3 -2 3 -1 4 -1 3 -1 4 -1 3 -1 4 0 4 0 3 0 0 0 4 0 4 0 3 0 4 1 3 1 4 1 3 1 3 1 4 2 3 1 3 2 3 2 3 2 2 2 3 2 3 3 2 2 2 3 2 3 2 3 2 3 2 3 2 3 1 3 1 3 1 4 1 3 1 3 1 4 0 4 1 3 0 4z"/>
   </g>
   <line class="fil0 str1" x1="7416" y1="1625" x2="7416" y2= "676" />
   <g>
    <path class="fil1" d="M8606 2223l0 0 -4 -1 -4 0 -3 0 -4 -1 -3 -1 -4 -1 -3 -1 -4 -1 -3 -2 -3 -1 -3 -2 -3 -2 -3 -2 -2 -2 -3 -2 -3 -3 -2 -2 -2 -3 -2 -3 -2 -2 -2 -3 -2 -3 -2 -3 -1 -4 -1 -3 -2 -3 0 -4 -1 -3 -1 -4 0 -4 -1 -3 0 -4 36 0 0 2 1 2 0 2 0 1 1 2 0 2 1 2 0 1 1 2 1 1 1 2 1 1 1 2 1 1 1 1 1 2 1 1 2 1 1 1 1 1 2 1 1 1 2 1 2 0 1 1 2 1 2 0 1 1 2 0 2 0 2 0 2 0 0 0 0 37zm72 -73l0 0 0 4 0 3 -1 4 0 4 -1 3 -1 4 -1 3 -2 3 -1 4 -2 3 -1 3 -2 3 -2 2 -3 3 -2 3 -2 2 -3 3 -2 2 -3 2 -3 2 -3 2 -3 2 -3 1 -3 2 -4 1 -3 1 -3 1 -4 1 -3 1 -4 0 -4 0 -3 1 0 -37 1 0 2 0 2 0 2 0 2 -1 1 0 2 -1 2 -1 1 0 2 -1 1 -1 2 -1 1 -1 2 -1 1 -1 1 -1 1 -2 2 -1 1 -1 1 -2 1 -1 0 -2 1 -1 1 -2 1 -1 0 -2 1 -2 0 -2 0 -1 1 -2 0 -2 0 -2 0 0 36 0zm-72 -72l0 0 3 0 4 0 4 1 3 0 4 1 3 1 3 1 4 1 3 2 3 1 3 2 3 2 3 2 3 2 2 3 3 2 2 2 2 3 3 3 2 3 2 3 1 3 2 3 1 3 2 3 1 4 1 3 1 4 0 3 1 4 0 3 0 4 -36 0 0 -2 0 -2 -1 -1 0 -2 0 -2 -1 -2 0 -1 -1 -2 -1 -2 -1 -1 0 -2 -1 -1 -1 -2 -1 -1 -2 -1 -1 -1 -1 -2 -1 -1 -2 -1 -1 -1 -2 -1 -1 -1 -2 -1 -1 0 -2 -1 -2 0 -1 -1 -2 0 -2 -1 -2 0 -2 0 -1 0 0 0 0 -36zm-73 72l0 -4 1 -3 0 -4 1 -3 1 -4 0 -3 2 -4 1 -3 1 -3 2 -3 2 -3 2 -3 2 -3 2 -3 2 -3 2 -2 3 -2 3 -3 2 -2 3 -2 3 -2 3 -2 3 -1 3 -2 4 -1 3 -1 4 -1 3 -1 4 0 3 -1 4 0 4 0 0 36 -2 0 -2 0 -2 0 -2 1 -1 0 -2 1 -2 0 -1 1 -2 0 -2 1 -1 1 -2 1 -1 1 -1 1 -2 1 -1 2 -1 1 -1 1 -1 1 -1 2 -1 1 -1 2 -1 1 -1 2 0 2 -1 1 0 2 -1 2 0 2 0 1 -1 2 0 2 -36 0zm-1766 -10l1789 0 0 20 -1789 0 0 -20z"/>
   </g>
   <g>
    <path class="fil1" d="M7376 2182l0 -4 0 -4 1 -3 0 -4 1 -3 1 -4 1 -3 2 -3 1 -4 2 -3 1 -3 2 -3 2 -2 2 -3 3 -3 2 -2 3 -3 2 -2 3 -2 3 -2 3 -2 3 -2 3 -1 3 -2 3 -1 4 -1 3 -1 4 -1 3 -1 4 0 3 -1 4 0 0 0 4 0 4 1 3 0 4 1 3 1 4 1 3 1 3 1 4 2 3 1 3 2 3 2 2 2 3 2 3 2 2 3 3 2 2 3 2 3 2 2 2 3 2 3 1 3 2 4 1 3 1 3 1 4 1 3 1 4 0 3 1 4 0 4 0 0 0 4 -1 3 0 4 -1 3 -1 4 -1 3 -1 4 -1 3 -2 3 -1 3 -2 3 -2 3 -2 3 -2 3 -2 2 -3 3 -2 2 -3 3 -3 2 -2 2 -3 2 -3 1 -3 2 -4 1 -3 2 -3 1 -4 1 -3 1 -4 0 -3 1 -4 0 -4 0 0 0 -4 0 -3 0 -4 -1 -3 0 -4 -1 -3 -1 -4 -1 -3 -2 -3 -1 -3 -2 -3 -1 -3 -2 -3 -2 -3 -2 -2 -3 -3 -2 -2 -3 -3 -2 -2 -3 -2 -3 -2 -3 -1 -3 -2 -3 -1 -3 -2 -3 -1 -4 -1 -3 -1 -4 0 -3 -1 -4 0 -3 0 -4 0 0zm82 -413l0 413 -20 0 0 -413 20 0z"/>
   </g>
   <path class="fil0 str0" d="M10760 618l0 -618m-281 607c196,-208 194,-367 -1,-570"/>
   <path class="fil0 str0" d="M10712 6214l0 -618m-280 607c195,-208 193,-367 -2,-570"/>
   <polygon class="fil1" points="17367,1998 17441,1998 17441,1924 17503,1924 17503,1998 17577,1998 17577,2061 17503,2061 17503,2134 17441,2134 17441,2061 17367,2061 "/>
   <line class="fil0 str1" x1="6001" y1="2187" x2="5087" y2= "2187" />
   <g>
    <path class="fil1" d="M8653 3491l0 0 -4 0 -3 0 -4 -1 -3 -1 -4 0 -3 -1 -4 -1 -3 -2 -3 -1 -3 -2 -3 -2 -3 -1 -3 -2 -3 -3 -2 -2 -3 -2 -2 -3 -3 -2 -2 -3 -2 -3 -2 -3 -1 -3 -2 -3 -2 -3 -1 -4 -1 -3 -1 -3 -1 -4 0 -4 -1 -3 0 -4 0 -4 36 0 0 2 0 2 0 2 1 2 0 2 1 1 0 2 1 2 1 1 0 2 1 1 1 2 1 1 1 1 1 2 2 1 1 1 1 1 2 2 1 1 1 0 2 1 2 1 1 1 2 1 1 0 2 1 2 0 2 0 1 1 2 0 2 0 0 0 0 36zm73 -73l0 0 -1 4 0 4 0 3 -1 4 -1 4 -1 3 -1 3 -1 4 -2 3 -1 3 -2 3 -2 3 -2 3 -2 3 -2 2 -3 3 -2 2 -3 2 -3 3 -2 2 -3 1 -3 2 -3 2 -4 1 -3 2 -3 1 -4 1 -3 0 -4 1 -3 1 -4 0 -4 0 0 -36 2 0 2 0 2 -1 1 0 2 0 2 -1 2 0 1 -1 2 -1 1 -1 2 -1 1 0 2 -1 1 -2 1 -1 2 -1 1 -1 1 -2 1 -1 1 -1 1 -2 1 -1 1 -2 1 -1 0 -2 1 -2 0 -1 1 -2 0 -2 0 -2 0 -2 0 -2 0 0 37 0zm-73 -72l0 0 4 0 4 0 3 1 4 1 3 0 4 1 3 1 3 2 4 1 3 2 3 2 3 1 2 2 3 3 3 2 2 2 3 3 2 2 2 3 2 3 2 3 2 3 1 3 2 3 1 4 1 3 1 3 1 4 1 3 0 4 0 4 1 3 -37 0 0 -1 0 -2 0 -2 0 -2 -1 -2 0 -1 -1 -2 0 -2 -1 -1 -1 -2 -1 -1 -1 -2 -1 -1 -1 -2 -1 -1 -1 -1 -2 -1 -1 -1 -1 -2 -2 -1 -1 0 -2 -1 -1 -1 -2 -1 -1 -1 -2 0 -2 -1 -2 0 -1 0 -2 -1 -2 0 -2 0 0 0 0 -36zm-72 72l0 -3 0 -4 1 -4 0 -3 1 -4 1 -3 1 -3 1 -4 2 -3 2 -3 1 -3 2 -3 2 -3 2 -3 3 -2 2 -3 3 -2 2 -2 3 -3 3 -2 3 -1 3 -2 3 -2 3 -1 3 -2 4 -1 3 -1 4 0 3 -1 4 -1 3 0 4 0 0 36 -2 0 -2 0 -1 1 -2 0 -2 0 -2 1 -1 0 -2 1 -1 1 -2 1 -2 1 -1 0 -1 1 -2 2 -1 1 -1 1 -2 1 -1 1 -1 2 -1 1 -1 2 -1 1 0 2 -1 1 -1 2 0 2 -1 1 0 2 -1 2 0 2 0 2 0 1 -36 0zm-1180 -10l1202 0 0 21 -1202 0 -11 -11 11 -10zm-11 10l0 -10 11 0 -11 10zm0 1838l0 -1838 21 0 0 1838 -10 10 -11 -10zm11 10l-11 0 0 -10 11 10zm462 2l-462 -2 0 -20 462 2 0 20z"/>
   </g>
   <g>
    <path class="fil1" d="M8932 5262l-921 0 0 -20 921 0 0 20zm0 84l-18 0 0 -189 36 0 0 189 -18 0z"/>
   </g>
   <g>
    <path class="fil1" d="M7417 5330l-4 0 -4 0 -3 -1 -4 0 -4 -1 -3 -1 -3 -1 -4 -2 -3 -1 -3 -2 -3 -1 -3 -2 -3 -2 -2 -3 -3 -2 -3 -2 -2 -3 -2 -2 -2 -3 -2 -3 -2 -3 -2 -3 -2 -3 -1 -3 -1 -3 -2 -4 -1 -3 0 -4 -1 -3 -1 -4 0 -4 0 -3 0 0 0 -4 0 -4 1 -3 1 -4 0 -3 1 -4 2 -3 1 -3 1 -4 2 -3 2 -3 2 -3 2 -3 2 -2 2 -3 2 -3 3 -2 3 -2 2 -2 3 -2 3 -2 3 -2 3 -2 3 -1 4 -1 3 -1 3 -1 4 -1 4 -1 3 0 4 -1 4 0 0 0 3 0 4 1 3 0 4 1 4 1 3 1 3 1 4 1 3 1 3 2 3 2 3 2 3 2 2 2 3 2 3 2 2 3 2 3 2 2 3 3 1 3 2 3 2 3 1 4 2 3 1 3 1 4 0 3 1 4 1 3 0 4 0 4 0 0 0 3 0 4 -1 4 -1 3 0 4 -1 3 -1 4 -2 3 -1 3 -2 3 -2 3 -1 3 -3 3 -2 3 -2 2 -2 3 -3 2 -3 2 -2 3 -3 2 -3 2 -3 1 -3 2 -3 1 -4 2 -3 1 -3 1 -4 1 -4 0 -3 1 -4 0 -3 0 0 0zm-650 -83l650 0 0 21 -650 0 0 -21z"/>
   </g>
   <line class="fil0 str1" x1="6001" y1="5294" x2="5087" y2= "5294" />
   <polyline class="fil0 str1" points="11156,3553 13600,3569 13627,5913 10788,5913 "/>
   <g>
    <path class="fil1" d="M5530 5907l5041 0 0 20 -5041 0 -11 -10 11 -10zm0 20l-11 0 0 -10 11 10zm10 -633l0 623 -21 0 0 -623 21 0zm-83 0l0 0 0 -4 1 -3 0 -4 1 -3 0 -4 1 -3 2 -4 1 -3 1 -3 2 -3 2 -3 2 -3 2 -3 2 -3 2 -2 2 -3 3 -2 3 -3 2 -2 3 -2 3 -2 3 -1 3 -2 3 -2 4 -1 3 -1 3 -1 4 -1 4 0 3 -1 4 0 4 0 0 0 3 0 4 0 4 1 3 0 4 1 3 1 3 1 4 1 3 2 3 2 3 1 3 2 3 2 3 2 2 3 3 2 2 3 2 2 3 3 2 3 1 3 2 3 2 3 1 3 2 3 1 4 1 3 0 4 1 3 1 4 0 3 0 4 0 0 0 4 0 4 -1 3 -1 4 0 3 -1 4 -1 3 -2 3 -1 3 -2 4 -2 3 -1 3 -2 2 -3 3 -2 3 -2 2 -3 3 -2 2 -3 2 -3 2 -3 2 -3 2 -3 1 -3 2 -4 1 -3 1 -3 1 -4 1 -3 1 -4 0 -4 0 -3 1 0 0 -4 -1 -4 0 -3 0 -4 -1 -4 -1 -3 -1 -3 -1 -4 -1 -3 -2 -3 -1 -3 -2 -3 -2 -3 -2 -2 -2 -3 -2 -3 -3 -2 -2 -2 -3 -2 -3 -2 -2 -2 -3 -2 -3 -2 -4 -1 -3 -1 -3 -2 -3 -1 -4 0 -3 -1 -4 0 -3 -1 -4 0 -4z"/>
   </g>
   <path class="fil1" d="M4580 4756l-31 111c-5,16 -7,28 -7,35 0,7 2,12 8,17 5,4 17,6 35,6l-4 10 -176 0 3 -10c18,0 31,-3 39,-10 8,-7 16,-22 22,-46l68 -235c3,-13 5,-24 5,-31 0,-7 -2,-13 -7,-17 -4,-4 -15,-6 -32,-7l2 -10 152 0c43,0 74,8 91,23 18,15 27,34 27,58 0,25 -11,47 -31,68 -13,12 -36,23 -69,32l32 111c9,30 17,48 23,54 7,6 18,10 33,10l0 10 -114 0 -51 -179 -9 1c-2,0 -5,0 -9,-1zm5 -16c6,1 11,1 15,1 26,0 47,-9 64,-27 16,-18 25,-42 25,-71 0,-17 -5,-30 -14,-39 -8,-9 -20,-14 -35,-14 -3,0 -7,0 -12,0l-43 150z"/>
   <path id="1" class="fil1" d="M5038 4562l-91 307c-5,16 -7,26 -7,30 0,5 2,9 5,14 3,4 7,7 11,9 4,1 15,2 35,3l-3 10 -185 0 3 -10c18,0 31,-1 38,-4 8,-3 13,-7 18,-13 5,-7 10,-20 16,-39l53 -182c9,-28 13,-43 13,-44 2,-5 2,-9 2,-14 0,-8 -2,-14 -7,-19 -5,-5 -12,-7 -22,-7 -4,0 -13,1 -26,2l-3 -10 138 -33 12 0z"/>
   <path class="fil1" d="M6170 1618l-32 111c-4,16 -7,28 -7,35 0,7 3,12 9,17 5,4 17,6 34,6l-4 10 -175 0 3 -10c18,0 30,-3 39,-10 8,-7 15,-22 22,-46l67 -235c4,-13 6,-24 6,-31 0,-7 -2,-13 -7,-17 -5,-4 -16,-6 -33,-7l3 -10 152 0c43,0 73,8 91,23 18,15 26,34 26,58 0,25 -10,47 -31,68 -13,12 -36,23 -69,32l33 111c8,30 16,48 23,54 6,6 17,10 32,10l0 10 -113 0 -52 -179 -8 1c-2,0 -5,-1 -9,-1zm5 -16c6,1 11,1 15,1 26,0 47,-9 64,-27 16,-18 24,-42 24,-71 0,-17 -4,-30 -13,-39 -9,-9 -20,-14 -35,-14 -4,0 -8,0 -13,0l-42 150z"/>
   <path id="1" class="fil1" d="M6576 1797l-194 0 0 -10c50,-47 93,-90 128,-129 29,-32 47,-57 54,-74 8,-18 12,-35 12,-52 0,-17 -6,-30 -16,-40 -10,-10 -23,-16 -39,-16 -24,0 -46,14 -64,42l-10 -5c10,-26 22,-47 37,-60 20,-20 45,-29 72,-29 26,0 48,8 65,24 17,16 25,34 25,56 0,18 -4,36 -12,54 -8,18 -25,41 -51,68 -20,21 -60,57 -121,109l71 0c22,0 38,-3 47,-8 9,-5 18,-15 26,-31l12 0 -42 101z"/>
   <path class="fil1" d="M10818 749l-27 115 -10 0c-1,-31 -9,-55 -23,-71 -15,-15 -34,-23 -57,-23 -25,0 -50,11 -75,32 -25,21 -46,54 -63,98 -14,35 -21,70 -21,105 0,31 8,54 23,70 15,17 36,25 63,25 22,0 41,-5 59,-14 18,-9 36,-25 54,-46l13 0c-23,34 -45,57 -68,71 -23,13 -50,20 -83,20 -44,0 -80,-14 -107,-40 -27,-27 -40,-62 -40,-105 0,-40 11,-78 32,-115 21,-36 52,-66 93,-89 40,-22 80,-33 120,-33 15,0 33,3 56,9 11,3 19,5 24,5 9,0 18,-5 27,-14l10 0z"/>
   <path id="1" class="fil1" d="M11035 750l-90 306c-5,16 -7,27 -7,31 0,4 1,9 5,13 3,5 7,8 10,9 4,2 16,3 35,4l-3 10 -184 0 3 -10c18,0 31,-2 38,-4 7,-3 13,-8 18,-14 4,-6 9,-19 15,-39l54 -181c8,-28 13,-43 13,-45 1,-4 2,-9 2,-13 0,-8 -3,-14 -8,-19 -5,-5 -12,-7 -21,-7 -4,0 -13,0 -27,2l-2 -10 138 -33 11 0z"/>
   <path class="fil1" d="M8102 1175l-27 116 -9 0c-1,-32 -9,-55 -23,-71 -15,-16 -34,-23 -57,-23 -25,0 -50,10 -75,32 -25,21 -46,53 -63,97 -14,35 -21,71 -21,105 0,31 7,55 23,71 15,16 36,24 63,24 21,0 41,-4 59,-14 18,-9 36,-24 54,-45l13 0c-23,33 -45,57 -68,70 -23,14 -51,20 -83,20 -45,0 -80,-13 -107,-40 -27,-26 -40,-61 -40,-104 0,-40 11,-79 32,-115 21,-37 52,-66 92,-89 41,-23 81,-34 120,-34 15,0 34,3 57,10 11,3 19,4 24,4 9,0 18,-4 27,-14l9 0z"/>
   <path id="1" class="fil1" d="M8269 1549l-194 0 0 -10c50,-46 93,-89 127,-129 30,-32 48,-57 55,-74 8,-17 11,-35 11,-52 0,-16 -5,-30 -15,-40 -10,-10 -23,-15 -39,-15 -25,0 -46,13 -64,41l-10 -5c10,-26 22,-46 37,-60 20,-19 45,-29 72,-29 26,0 48,8 65,24 17,16 25,35 25,56 0,18 -4,37 -12,55 -9,18 -26,40 -52,68 -19,20 -59,57 -120,108l71 0c22,0 38,-2 47,-7 9,-6 18,-16 26,-31l12 0 -42 100z"/>
   <path class="fil1" d="M4539 1659l-32 111c-4,16 -7,28 -7,35 0,7 3,13 9,17 5,4 17,6 34,7l-3 9 -176 0 3 -9c18,0 31,-4 39,-11 8,-7 15,-22 22,-46l67 -235c4,-13 6,-23 6,-31 0,-7 -2,-13 -7,-17 -5,-3 -15,-6 -32,-7l2 -10 152 0c43,0 73,8 91,23 18,15 26,35 26,58 0,25 -10,48 -31,68 -13,12 -36,23 -69,32l33 111c9,30 16,48 23,55 6,6 17,9 33,10l0 9 -114 0 -52 -179 -8 1c-2,0 -5,0 -9,-1zm5 -16c6,1 11,1 15,1 26,0 47,-9 64,-27 16,-18 24,-42 24,-71 0,-17 -4,-30 -13,-39 -9,-9 -20,-14 -35,-14 -3,0 -8,1 -13,1l-42 149z"/>
   <path id="1" class="fil1" d="M4996 1465l-90 307c-5,16 -7,26 -7,31 0,4 1,8 5,13 3,5 7,8 10,9 4,1 16,3 35,4l-3 9 -184 0 3 -9c18,-1 31,-2 38,-5 7,-3 13,-7 18,-13 4,-6 10,-19 15,-39l54 -182c8,-28 13,-42 13,-44 1,-5 2,-9 2,-13 0,-8 -3,-15 -8,-20 -5,-4 -12,-7 -21,-7 -4,0 -13,1 -27,2l-2 -10 138 -33 11 0z"/>
   <path class="fil1" d="M6232 4777l-32 111c-5,16 -7,27 -7,35 0,7 3,12 8,16 6,4 18,7 35,7l-4 9 -175 0 3 -9c18,0 30,-3 39,-10 8,-7 15,-23 22,-47l67 -234c4,-13 6,-24 6,-32 0,-7 -2,-12 -7,-16 -5,-4 -16,-6 -33,-8l3 -9 152 0c43,0 73,7 91,22 18,16 26,35 26,59 0,25 -10,47 -31,67 -13,13 -36,24 -69,33l33 111c8,30 16,48 23,54 6,6 17,10 32,10l0 9 -113 0 -52 -178 -8 0c-2,0 -5,0 -9,0zm4 -16c7,0 12,0 16,0 26,0 47,-9 63,-27 17,-18 25,-41 25,-70 0,-18 -4,-31 -13,-40 -9,-9 -21,-13 -35,-13 -4,0 -8,0 -13,0l-43 150z"/>
   <path id="1" class="fil1" d="M6638 4955l-194 0 0 -9c50,-47 93,-90 128,-129 29,-33 47,-58 54,-75 8,-17 12,-34 12,-52 0,-16 -6,-29 -16,-40 -10,-10 -23,-15 -39,-15 -25,0 -46,14 -64,41l-10 -4c10,-27 22,-47 37,-61 20,-19 45,-28 72,-28 26,0 48,8 65,24 17,16 25,34 25,55 0,19 -4,37 -12,55 -9,18 -26,41 -51,68 -20,21 -60,57 -121,109l71 0c22,0 38,-3 47,-8 9,-5 18,-15 26,-31l12 0 -42 100z"/>
   <path class="fil1" d="M10638 4902l-27 116 -9 0c-2,-32 -10,-55 -24,-71 -15,-16 -33,-23 -57,-23 -25,0 -50,10 -75,31 -24,22 -46,54 -63,98 -14,35 -21,70 -21,105 0,31 8,55 23,71 16,16 37,24 63,24 22,0 42,-4 59,-14 18,-9 36,-24 54,-45l13 0c-22,33 -45,57 -68,70 -22,13 -50,20 -83,20 -44,0 -80,-13 -106,-40 -27,-27 -41,-61 -41,-104 0,-41 11,-79 32,-115 22,-37 53,-67 93,-89 40,-23 80,-34 120,-34 15,0 34,3 56,9 12,4 20,5 24,5 9,0 18,-5 28,-14l9 0z"/>
   <path id="1" class="fil1" d="M10856 4903l-91 307c-5,16 -7,26 -7,30 0,5 2,9 5,14 3,5 7,7 11,9 4,1 15,2 34,4l-2 9 -185 0 3 -9c18,-1 31,-2 38,-5 8,-3 13,-7 18,-13 5,-7 10,-20 16,-39l53 -182c9,-28 13,-43 13,-44 1,-5 2,-9 2,-14 0,-8 -2,-14 -7,-19 -5,-5 -12,-7 -22,-7 -4,0 -13,1 -27,2l-2 -10 138 -33 12 0z"/>
   <path class="fil1" d="M8088 4530l-28 116 -9 0c-1,-32 -9,-56 -23,-71 -15,-16 -34,-23 -57,-23 -25,0 -50,10 -75,31 -25,22 -46,54 -63,98 -14,35 -21,70 -21,105 0,31 7,55 23,71 15,16 36,24 63,24 21,0 41,-4 59,-14 18,-9 36,-24 54,-45l13 0c-23,33 -45,57 -68,70 -23,13 -51,20 -83,20 -45,0 -80,-13 -107,-40 -27,-27 -40,-61 -40,-104 0,-41 11,-79 32,-115 21,-37 52,-67 92,-89 41,-23 81,-34 120,-34 16,0 34,3 57,9 11,4 19,5 24,5 9,0 18,-5 27,-14l10 0z"/>
   <path id="1" class="fil1" d="M8254 4904l-194 0 0 -10c50,-47 93,-90 128,-129 29,-32 47,-57 54,-74 8,-18 12,-35 12,-52 0,-17 -6,-30 -16,-40 -10,-10 -23,-15 -39,-15 -25,0 -46,13 -64,41l-10 -5c10,-26 22,-47 37,-60 20,-19 45,-29 72,-29 26,0 48,8 65,24 17,16 25,35 25,56 0,18 -4,36 -12,54 -9,19 -26,41 -52,68 -19,21 -59,57 -120,109l71 0c22,0 38,-2 47,-8 9,-5 18,-15 26,-30l12 0 -42 100z"/>
   <path class="fil1" d="M17487 4041l30 -304c2,-16 2,-26 2,-31 0,-8 -3,-15 -9,-21 -6,-5 -15,-8 -28,-8l-10 0 3 -10 144 0 -3 10c-16,1 -26,2 -32,5 -6,3 -11,9 -14,16 -2,4 -4,15 -6,34l-21 218 143 -194c16,-22 25,-36 29,-45 3,-5 4,-10 4,-14 0,-5 -2,-10 -6,-13 -4,-4 -12,-6 -23,-7l3 -10 110 0 -3 10c-9,1 -16,3 -21,5 -10,5 -20,12 -30,22 -9,9 -25,28 -46,57l-206 280 -10 0z"/>
   <path id="1" class="fil1" d="M17935 3884c17,0 33,4 46,11 13,8 24,19 31,34 8,14 12,30 12,45 0,28 -8,58 -25,88 -16,31 -37,55 -63,71 -26,16 -54,24 -81,24 -21,0 -37,-4 -51,-13 -14,-9 -24,-21 -30,-36 -7,-14 -10,-28 -10,-42 0,-25 6,-49 18,-72 12,-24 26,-44 42,-60 16,-16 34,-28 52,-37 19,-9 38,-13 59,-13zm-7 12c-13,0 -25,3 -38,10 -12,6 -24,17 -36,31 -12,15 -23,33 -33,57 -12,29 -18,56 -18,81 0,19 5,35 14,49 10,14 24,21 44,21 11,0 23,-3 34,-9 11,-6 23,-15 35,-29 16,-18 29,-41 39,-68 11,-27 16,-53 16,-76 0,-18 -5,-33 -14,-47 -10,-13 -24,-20 -43,-20z"/>
   <path id="2" class="fil1" d="M18251 3875l-67 232c-4,13 -6,21 -6,25 0,1 1,2 1,3 1,1 2,2 3,2 1,0 2,-1 4,-2 3,-3 8,-11 14,-23l7 4c-8,12 -15,22 -23,29 -8,7 -15,10 -21,10 -4,0 -7,-1 -10,-4 -2,-3 -4,-8 -4,-13 0,-7 2,-17 6,-29l7 -25c-20,29 -39,49 -56,60 -11,8 -22,11 -33,11 -11,0 -20,-4 -28,-12 -8,-9 -12,-21 -12,-36 0,-19 7,-39 20,-61 13,-21 30,-39 52,-53 17,-10 33,-16 47,-16 8,0 14,1 20,4 5,3 10,8 16,14l18 -63c2,-7 4,-13 5,-18 2,-5 2,-9 2,-12 0,-3 -1,-5 -3,-7 -2,-2 -6,-3 -10,-3 -3,0 -8,0 -15,1l0 -7 66 -11zm-74 139c0,-8 -2,-15 -8,-20 -5,-5 -12,-7 -20,-7 -18,0 -36,13 -56,40 -19,26 -29,52 -29,76 0,10 3,17 8,22 5,5 11,8 18,8 15,0 34,-14 55,-43 21,-29 32,-55 32,-76z"/>
   <g>
    <path class="fil1" d="M17154 1984l107 255 0 0 -7 -4 -7 -3 -6 -3 -7 -3 -7 -2 -7 -2 -7 -2 -6 -2 -7 -2 -7 -1 -7 -1 -6 -1 -7 -1 -7 -1 -7 0 -7 0 -6 0 -7 0 -7 1 -7 0 -7 1 -6 1 -7 2 -7 1 -7 2 -7 2 -6 2 -7 3 -7 2 -7 3 -7 3 -6 3 110 -253zm-32 3954l21 -3826 20 0 -21 3827 -20 -1z"/>
   </g>
   <g>
    <path class="fil1" d="M7426 676l0 949 -20 0 0 -949 20 0zm84 0l0 18 -189 0 0 -37 189 0 0 19z"/>
   </g>
   <g>
    <path class="fil1" d="M8947 2379l102 256 0 0 -6 -4 -7 -3 -7 -3 -7 -3 -6 -2 -7 -3 -7 -2 -7 -2 -6 -2 -7 -1 -7 -2 -7 -1 -6 -1 -7 0 -7 -1 -7 0 -6 0 -7 0 -7 0 -7 1 -7 1 -6 1 -7 1 -7 1 -7 2 -7 2 -7 2 -6 2 -7 3 -7 2 -7 3 -7 3 115 -250zm-32 899l19 -772 20 0 -19 772 -20 0z"/>
   </g>
   <path class="fil1" d="M10821 3786l-101 351 40 -34c45,-38 74,-66 88,-84 4,-6 6,-11 6,-14 0,-2 -1,-4 -2,-6 -2,-2 -4,-4 -9,-5 -4,-1 -11,-2 -22,-2l-12 0 4 -13 156 0 -3 13c-18,1 -34,4 -47,9 -13,5 -25,12 -38,21 -23,18 -39,31 -47,38l-31 27c5,17 12,41 19,72 13,51 22,81 26,90 5,10 10,14 15,14 4,0 8,-2 14,-6 12,-9 25,-23 39,-43l13 9c-26,33 -46,54 -60,64 -14,11 -26,16 -38,16 -10,0 -17,-4 -23,-11 -9,-14 -25,-70 -47,-166l-50 42 -36 127 -56 0 118 -409 10 -34c1,-6 1,-11 1,-16 0,-6 -2,-10 -6,-14 -4,-4 -11,-6 -19,-6 -5,0 -14,2 -26,4l0 -13 124 -21z"/>
   <path id="1" class="fil1" d="M10953 3993l102 -22c7,18 13,36 18,54 6,27 12,59 16,96 2,18 4,58 8,118 30,-33 48,-54 53,-61 32,-43 50,-68 55,-76 8,-12 14,-23 17,-33 2,-7 4,-14 4,-20 0,-6 -5,-13 -16,-22 -11,-8 -17,-17 -17,-27 0,-7 3,-14 9,-20 6,-6 14,-9 22,-9 10,0 19,4 26,12 8,8 11,19 11,31 0,12 -1,24 -5,35 -6,18 -18,40 -35,66 -17,26 -44,61 -82,105 -5,5 -31,33 -80,83l-13 0c-6,-151 -18,-245 -36,-282 -6,-12 -16,-19 -29,-19 -6,0 -15,2 -26,4l-2 -13z"/>
   <path id="2" class="fil1" d="M11426 4047c10,0 19,4 26,11 7,6 10,15 10,25 0,10 -3,18 -10,25 -8,7 -16,11 -26,11 -10,0 -18,-4 -25,-11 -7,-7 -11,-15 -11,-25 0,-10 4,-19 11,-25 7,-7 15,-11 25,-11zm16 142l-75 254c-5,17 -8,27 -8,31 0,3 1,6 3,9 2,2 5,3 7,3 4,0 8,-2 12,-5 12,-11 25,-26 37,-46l13 8c-16,25 -34,45 -55,62 -15,12 -30,18 -44,18 -10,0 -17,-3 -23,-9 -6,-6 -9,-13 -9,-22 0,-9 3,-23 10,-44l49 -162c8,-26 12,-42 12,-49 0,-5 -2,-10 -6,-13 -3,-3 -8,-5 -15,-5 -5,0 -16,1 -32,4l0 -14 124 -20z"/>
   <g>
    <polygon class="fil1" points="11149,2226 11149,2361 11284,2361 11284,2398 11149,2398 11149,2533 11112,2533 11112,2398 10979,2398 10979,2361 11112,2361 11112,2226 "/>
    <polygon class="fil1" points="11167,3179 11167,3325 11124,3325 11124,3179 "/>
    <rect class="fil0 str2" transform="matrix(-0.966762 -0.966762 0.966762 -0.966762 11155.8 3552.53)" width="776" height="776"/>
   </g>
   <path class="fil1" d="M7978 2561l119 -25c9,20 16,42 22,63 7,32 14,69 18,113 3,22 6,68 10,139 35,-39 56,-63 63,-72 37,-50 59,-80 64,-89 10,-14 16,-28 20,-39 3,-8 5,-16 5,-24 0,-7 -6,-15 -19,-25 -13,-9 -20,-20 -20,-32 0,-9 4,-17 11,-24 7,-7 16,-10 25,-10 12,0 22,4 31,14 9,10 14,22 14,36 0,14 -3,28 -7,41 -7,22 -21,48 -41,78 -20,31 -52,72 -97,124 -5,6 -37,38 -93,97l-16 0c-7,-177 -20,-288 -42,-332 -7,-14 -19,-21 -35,-21 -7,0 -17,1 -30,3l-2 -15z"/>
   <path id="1" class="fil1" d="M8534 2625c12,0 22,4 30,12 9,9 13,19 13,30 0,12 -4,22 -13,30 -8,9 -18,13 -30,13 -11,0 -21,-4 -29,-13 -9,-8 -13,-18 -13,-30 0,-11 4,-21 12,-30 9,-8 19,-12 30,-12zm19 167l-89 299c-6,20 -9,32 -9,36 0,5 2,8 4,11 2,2 5,4 9,4 3,0 8,-2 13,-7 15,-12 29,-30 44,-53l15 9c-19,29 -40,53 -65,72 -18,15 -35,22 -52,22 -11,0 -20,-4 -27,-11 -7,-6 -10,-15 -10,-25 0,-10 4,-28 11,-52l59 -191c9,-30 13,-50 13,-57 0,-7 -2,-12 -6,-16 -5,-4 -10,-5 -18,-5 -6,0 -19,1 -38,4l0 -16 146 -24z"/>
   <g>
    <path class="fil1" d="M5603 2735l0 -6c34,-5 59,-16 76,-31 12,-10 18,-23 18,-38 0,-11 -4,-20 -11,-27 -7,-8 -15,-11 -25,-11 -16,0 -30,9 -42,29l-7 -2c7,-17 16,-29 28,-37 11,-8 24,-13 37,-13 17,0 30,5 40,15 11,10 16,23 16,38 0,13 -5,25 -15,37 -9,12 -26,23 -49,32 14,6 25,15 33,26 7,11 11,25 11,41 0,17 -5,35 -15,52 -10,18 -24,32 -42,41 -18,10 -36,14 -56,14 -17,0 -31,-3 -40,-9 -6,-4 -9,-9 -9,-14 0,-5 2,-10 6,-13 3,-4 8,-5 13,-5 3,0 7,0 11,1 2,1 7,4 16,9 9,5 16,8 21,10 5,1 10,2 15,2 13,0 23,-7 31,-22 9,-15 13,-30 13,-47 0,-13 -3,-25 -9,-36 -5,-10 -14,-19 -26,-25 -12,-7 -25,-10 -39,-11z"/>
    <circle class="fil0 str1" cx="5642" cy="2747" r="216"/>
   </g>
   <path class="fil1" d="M5563 5010l16 -79 -126 0 8 -37 174 -192 31 0 -41 196 44 0 -7 33 -45 0 -17 79 -37 0zm24 -112l27 -129 -116 129 89 0z"/>
   <circle class="fil0 str1" cx="5561" cy="4856" r="216"/>
   <circle class="fil0 str1" cx="7462" cy="2724" r="216"/>
   <circle class="fil0 str1" cx="7087" cy="4840" r="216"/>
   <g>
    <path class="fil1" d="M13186 1435l141 0 0 7 -160 283 -16 -7 140 -250 -68 0c-19,0 -32,2 -38,5 -7,4 -15,12 -24,24l-9 0 34 -62z"/>
    <circle class="fil0 str1" cx="13239" cy="1580" r="216"/>
   </g>
   <g>
    <path class="fil1" d="M13253 3952c13,14 23,28 29,41 7,13 10,25 10,38 0,23 -9,43 -26,60 -18,17 -39,26 -65,26 -23,0 -41,-7 -56,-21 -14,-14 -21,-30 -21,-49 0,-16 6,-31 17,-46 12,-16 34,-31 67,-45 -13,-15 -21,-28 -26,-38 -4,-9 -6,-19 -6,-29 0,-19 6,-35 20,-48 14,-14 32,-20 53,-20 21,0 37,5 50,17 13,12 19,25 19,41 0,15 -5,29 -15,42 -11,12 -27,23 -50,31zm-8 -9c15,-5 26,-14 35,-25 8,-12 12,-26 12,-41 0,-14 -4,-26 -12,-34 -8,-8 -18,-12 -32,-12 -12,0 -22,4 -30,12 -8,8 -11,18 -11,30 0,10 2,18 6,26 6,12 16,27 32,44zm-30 22c-21,9 -36,21 -47,38 -11,16 -16,34 -16,53 0,15 5,27 14,37 10,9 22,14 37,14 16,0 30,-6 41,-17 11,-11 16,-25 16,-40 0,-12 -3,-24 -9,-37 -7,-13 -18,-29 -36,-48z"/>
    <circle class="fil0 str1" cx="13221" cy="3969" r="216"/>
   </g>
   <g>
    <path class="fil1" d="M5659 4711l-54 187 34 0 -8 26 -34 0 -22 77 -31 0 22 -77 -103 0 9 -29 171 -184 16 0zm-47 54l-122 133 84 0 38 -133z"/>
    <circle class="fil0 str1" cx="5561" cy="4856" r="216"/>
   </g>
   <g>
    <path class="fil1" d="M7463 2578l95 0 -10 35 -86 0 -15 35c22,4 40,11 53,21 19,17 29,40 29,69 0,20 -4,37 -11,53 -7,16 -16,29 -26,40 -11,11 -22,19 -34,25 -16,9 -32,13 -49,13 -14,0 -25,-3 -34,-9 -5,-5 -8,-10 -8,-16 0,-5 2,-10 5,-13 4,-4 9,-6 14,-6 7,0 16,4 25,12 5,4 10,7 14,9 3,1 6,2 10,2 16,0 31,-8 44,-24 13,-16 20,-36 20,-62 0,-17 -4,-32 -11,-44 -7,-13 -16,-22 -27,-27 -11,-5 -25,-8 -43,-10l45 -103z"/>
    <circle class="fil0 str1" cx="7462" cy="2724" r="216"/>
   </g>
   <g>
    <path class="fil1" d="M7187 4692l0 8c-24,6 -47,18 -70,36 -22,18 -42,41 -59,69 15,-6 27,-9 37,-9 18,0 33,6 46,19 12,13 18,30 18,52 0,33 -10,62 -32,86 -22,23 -45,35 -70,35 -23,0 -40,-8 -51,-25 -12,-17 -18,-36 -18,-58 0,-29 7,-57 20,-85 13,-28 31,-52 54,-72 23,-20 46,-35 71,-45 15,-5 33,-9 54,-11zm-139 131c-20,42 -30,78 -30,107 0,15 3,27 11,35 8,9 16,13 26,13 16,0 32,-11 46,-35 14,-23 21,-50 21,-81 0,-17 -5,-29 -13,-38 -8,-9 -18,-14 -29,-14 -5,0 -10,1 -14,3 -5,1 -11,5 -18,10z"/>
    <circle class="fil0 str1" cx="7087" cy="4840" r="216"/>
   </g>
   <path class="fil1" d="M6897 817c0,-26 4,-52 12,-79 8,-27 16,-49 26,-65 9,-16 19,-29 30,-38 10,-9 20,-16 30,-20 10,-4 21,-6 33,-6 23,0 43,9 59,26 15,18 23,43 23,76 0,34 -5,68 -16,101 -13,39 -31,69 -54,89 -18,15 -38,22 -60,22 -23,0 -43,-9 -59,-27 -16,-18 -24,-44 -24,-79zm37 10c0,19 3,34 9,44 9,15 22,22 38,22 15,0 29,-6 41,-20 17,-18 30,-46 39,-82 9,-36 13,-66 13,-89 0,-22 -4,-38 -13,-48 -8,-10 -19,-15 -33,-15 -10,0 -20,3 -29,8 -8,5 -17,14 -25,27 -11,18 -21,44 -29,80 -8,30 -11,54 -11,73z"/>
   <circle class="fil0 str1" cx="7004" cy="766" r="216"/>
   <g>
    <path class="fil1" d="M8951 4579c18,0 34,8 46,23 12,15 18,39 18,71 0,28 -4,56 -13,85 -9,29 -22,54 -39,75 -13,17 -27,29 -41,36 -9,4 -19,7 -30,7 -18,0 -33,-8 -45,-23 -13,-15 -19,-39 -19,-71 0,-32 6,-65 19,-97 14,-38 33,-67 55,-86 15,-13 31,-20 49,-20zm1 11c-8,0 -17,3 -25,10 -8,6 -17,19 -26,40 -9,20 -17,46 -26,78 -10,41 -15,77 -15,106 0,15 3,26 9,33 6,7 14,11 23,11 9,0 16,-3 22,-9 16,-15 30,-41 42,-77 18,-60 28,-109 28,-146 0,-16 -3,-27 -10,-35 -6,-7 -13,-11 -22,-11z"/>
    <circle class="fil0 str1" cx="8922" cy="4728" r="216"/>
   </g>
   <g>
    <polygon class="fil1" points="14925,4164 14925,4299 15059,4299 15059,4335 14925,4335 14925,4470 14888,4470 14888,4335 14754,4335 14754,4299 14888,4299 14888,4164 "/>
    <polygon class="fil1" points="14942,5117 14942,5262 14900,5262 14900,5117 "/>
    <rect class="fil0 str2" transform="matrix(-0.966762 -0.966762 0.966762 -0.966762 14931.2 5490.18)" width="776" height="776"/>
   </g>
   <g>
    <path class="fil1" d="M13627 5841l3 0 4 0 4 0 3 1 4 1 3 1 3 1 4 1 3 2 3 1 3 2 3 2 3 2 3 2 2 2 3 3 2 2 2 3 3 3 2 3 2 2 1 3 2 4 1 3 2 3 1 3 1 4 1 3 0 4 1 4 0 3 0 4 0 0 0 4 0 3 -1 4 0 4 -1 3 -1 3 -1 4 -2 3 -1 3 -2 3 -1 3 -2 3 -2 3 -3 3 -2 3 -2 2 -3 3 -2 2 -3 2 -3 2 -3 2 -3 2 -3 1 -3 2 -4 1 -3 1 -3 1 -4 1 -3 1 -4 0 -4 0 -3 0 0 0 -4 0 -4 0 -3 0 -4 -1 -3 -1 -4 -1 -3 -1 -3 -1 -4 -2 -3 -1 -3 -2 -3 -2 -3 -2 -2 -2 -3 -2 -3 -3 -2 -2 -2 -3 -2 -3 -2 -3 -2 -3 -2 -3 -2 -3 -1 -3 -1 -3 -2 -4 -1 -3 0 -3 -1 -4 0 -4 -1 -3 0 -4 0 0 0 -4 1 -3 0 -4 1 -4 0 -3 1 -4 2 -3 1 -3 1 -3 2 -4 2 -3 2 -2 2 -3 2 -3 2 -3 2 -2 3 -3 3 -2 2 -2 3 -2 3 -2 3 -2 3 -1 4 -2 3 -1 3 -1 4 -1 3 -1 4 -1 3 0 4 0 4 0 0 0zm1293 82l-1293 0 0 -20 1293 0 10 10 -10 10zm10 -10l0 10 -10 0 10 -10zm0 -423l0 423 -20 0 0 -423 20 0z"/>
   </g>
   <g>
    <path class="fil1" d="M14941 3407l0 582 -20 0 0 -582 20 0zm144 0l0 18 -308 0 0 -37 308 0 0 19z"/>
   </g>
   <g>
    <path class="fil1" d="M13632 1899l3 0 4 0 4 1 3 0 4 1 3 1 3 1 4 1 3 2 3 1 3 2 3 2 3 2 3 2 2 3 3 2 2 2 2 3 3 3 2 3 2 3 1 3 2 3 1 3 2 3 1 4 1 3 1 4 0 3 1 4 0 3 0 4 0 0 0 4 0 4 -1 3 0 4 -1 3 -1 4 -1 3 -2 3 -1 3 -2 4 -1 3 -2 3 -2 2 -3 3 -2 3 -2 2 -3 3 -2 2 -3 2 -3 2 -3 2 -3 2 -3 1 -3 2 -4 1 -3 1 -3 1 -4 1 -3 1 -4 0 -4 0 -3 1 0 0 -4 -1 -4 0 -3 0 -4 -1 -3 -1 -4 -1 -3 -1 -3 -1 -4 -2 -3 -1 -3 -2 -3 -2 -3 -2 -2 -2 -3 -2 -3 -3 -2 -2 -2 -3 -2 -3 -2 -2 -2 -3 -2 -3 -2 -4 -1 -3 -1 -3 -2 -3 0 -4 -1 -3 -1 -4 0 -3 -1 -4 0 -4 0 0 0 -4 1 -3 0 -4 1 -3 1 -4 0 -3 2 -4 1 -3 1 -3 2 -3 2 -3 2 -3 2 -3 2 -3 2 -3 2 -2 3 -2 3 -3 2 -2 3 -2 3 -2 3 -2 3 -1 4 -2 3 -1 3 -1 4 -1 3 -1 4 0 3 -1 4 0 4 0 0 0zm1142 82l-1142 0 0 -20 1142 0 0 20zm99 -129l0 36 0 0 -5 1 -4 0 -4 0 -4 1 -4 1 -4 1 -4 2 -3 1 -4 2 -4 1 -3 2 -3 3 -4 2 -3 2 -3 3 -3 3 -3 3 -2 3 -3 3 -2 3 -2 3 -2 4 -2 3 -2 4 -1 4 -1 4 -1 4 -1 4 -1 4 -1 4 0 4 0 4 -36 0 0 -6 0 -6 1 -6 1 -6 2 -6 1 -5 2 -6 2 -5 3 -5 2 -5 3 -5 3 -5 3 -5 4 -4 4 -5 4 -4 4 -4 4 -4 5 -3 4 -3 5 -3 5 -3 5 -3 5 -2 6 -2 5 -2 6 -2 6 -1 6 -1 5 -1 6 -1 7 0 0 0zm118 119l-36 0 0 0 0 -4 0 -4 -1 -4 0 -4 -1 -4 -2 -4 -1 -4 -1 -4 -2 -4 -2 -3 -2 -4 -2 -3 -2 -3 -3 -3 -2 -3 -3 -3 -3 -3 -3 -3 -3 -2 -3 -2 -4 -3 -3 -2 -4 -1 -3 -2 -4 -1 -4 -2 -4 -1 -4 -1 -4 -1 -4 0 -4 0 -4 -1 0 -36 6 0 6 1 6 1 5 1 6 1 6 2 5 2 6 2 5 2 5 3 5 3 5 3 5 3 4 3 4 4 4 4 4 4 4 5 4 4 3 5 3 5 3 5 3 5 2 5 2 5 2 6 2 5 1 6 1 6 1 6 0 6 0 6 0 0zm-118 119l0 -36 0 0 4 0 4 -1 4 0 4 -1 4 -1 4 -1 4 -1 4 -2 3 -1 4 -2 3 -2 4 -2 3 -3 3 -2 3 -3 3 -3 3 -2 2 -3 3 -4 2 -3 2 -3 2 -4 2 -3 2 -4 1 -4 1 -3 2 -4 1 -4 0 -4 1 -4 0 -5 0 -4 36 0 0 6 0 6 -1 6 -1 6 -1 6 -2 5 -2 6 -2 5 -2 6 -3 5 -3 5 -3 5 -3 4 -4 5 -4 4 -4 4 -4 4 -4 4 -4 3 -5 4 -5 3 -5 3 -5 2 -5 3 -6 2 -5 2 -6 1 -6 2 -5 1 -6 0 -6 1 -6 0 0 0zm-119 -119l36 0 0 4 0 5 1 4 1 4 1 4 1 4 1 3 1 4 2 4 2 3 2 4 2 3 2 3 3 4 2 3 3 2 3 3 3 3 3 2 4 3 3 2 3 2 4 2 4 1 3 2 4 1 4 1 4 1 4 1 4 0 4 1 5 0 0 36 -7 0 -6 -1 -5 0 -6 -1 -6 -2 -6 -1 -5 -2 -6 -2 -5 -3 -5 -2 -5 -3 -5 -3 -4 -4 -5 -3 -4 -4 -4 -4 -4 -4 -4 -4 -4 -5 -3 -4 -3 -5 -3 -5 -2 -5 -3 -6 -2 -5 -2 -6 -1 -5 -2 -6 -1 -6 -1 -6 0 -6 0 -6z"/>
   </g>
   <g>
    <path class="fil1" d="M14930 2478l0 694 -20 0 0 -694 20 0zm-10 -128l109 254 -7 -4 -7 -3 -7 -3 -6 -2 -7 -3 -7 -2 -7 -2 -6 -2 -7 -1 -7 -2 -7 -1 -7 -1 -6 -1 -7 0 -7 0 -7 -1 -7 1 -6 0 -7 0 -7 1 -7 1 -7 1 -6 2 -7 1 -7 2 -7 2 -6 2 -7 3 -7 2 -7 3 -7 3 -6 4 0 0 108 -254z"/>
   </g>
   <path class="fil1" d="M15355 2583l200 0 -4 13c-20,1 -35,3 -44,6 -8,4 -16,10 -22,18 -6,9 -13,25 -20,49l-52 178c-9,31 -15,52 -17,62 -2,13 -4,26 -4,38 0,25 11,47 33,65 22,18 51,27 87,27 25,0 46,-5 64,-13 18,-9 34,-21 47,-37 13,-16 25,-37 36,-64 11,-27 20,-55 29,-82l41 -146c11,-36 16,-60 16,-71 0,-8 -4,-14 -11,-20 -7,-5 -21,-9 -43,-10l4 -13 151 0 -4 13c-18,0 -31,2 -39,5 -7,4 -14,10 -20,19 -6,9 -12,26 -20,52l-53 185c-17,60 -33,102 -46,127 -14,24 -35,45 -63,62 -28,16 -63,24 -105,24 -48,0 -87,-13 -116,-40 -30,-27 -44,-58 -44,-93 0,-14 1,-28 4,-44 1,-10 6,-28 14,-54l48 -162c6,-23 9,-40 9,-51 0,-9 -3,-16 -10,-20 -6,-5 -23,-8 -50,-10l4 -13z"/>
   <path id="1" class="fil1" d="M15973 3156c-17,21 -35,36 -52,45 -17,10 -36,15 -55,15 -23,0 -42,-7 -55,-20 -13,-13 -19,-30 -19,-52 0,-25 7,-50 21,-74 14,-24 33,-44 56,-59 24,-15 47,-23 70,-23 18,0 31,4 40,11 9,8 13,17 13,28 0,10 -3,18 -9,26 -4,5 -10,8 -17,8 -5,0 -9,-2 -12,-5 -4,-3 -5,-7 -5,-12 0,-3 0,-6 2,-9 1,-2 3,-5 7,-9 4,-4 6,-7 7,-8 1,-2 1,-3 1,-5 0,-4 -1,-7 -4,-9 -5,-3 -12,-5 -21,-5 -16,0 -32,6 -48,17 -16,11 -29,27 -41,48 -13,25 -20,50 -20,76 0,16 5,29 14,39 10,10 23,15 40,15 12,0 25,-3 37,-10 13,-6 27,-17 43,-34l7 6z"/>
   <path class="fil1" d="M15692 5111l-114 394c-6,23 -10,39 -10,50 0,8 3,15 9,20 6,4 20,7 42,9l-3 13 -181 0 5 -13c20,-1 32,-2 38,-5 10,-4 17,-9 22,-17 8,-10 16,-30 24,-57l81 -283c5,-17 8,-27 8,-29 1,-5 1,-9 1,-14 0,-8 -2,-14 -6,-19 -5,-5 -11,-7 -19,-7 -6,0 -15,1 -28,4l-5 -13 119 -33 17 0z"/>
   <path id="1" class="fil1" d="M16085 5121l201 0 -4 12c-21,1 -35,3 -44,6 -9,4 -16,10 -22,19 -7,8 -13,25 -20,48l-52 178c-10,31 -15,52 -17,62 -3,14 -4,26 -4,38 0,26 11,48 32,65 22,18 51,27 88,27 24,0 45,-4 64,-13 18,-9 34,-21 47,-37 13,-16 25,-37 36,-64 11,-27 20,-54 28,-82l42 -146c10,-36 16,-60 16,-71 0,-7 -4,-14 -11,-19 -7,-6 -22,-9 -43,-11l3 -12 151 0 -3 12c-18,0 -31,2 -39,6 -8,3 -15,9 -20,18 -6,9 -13,26 -20,52l-53 185c-18,60 -33,102 -47,127 -13,25 -34,45 -62,62 -28,16 -63,25 -105,25 -48,0 -87,-14 -116,-41 -30,-27 -45,-58 -45,-93 0,-13 2,-28 4,-44 2,-10 7,-28 14,-53l48 -162c7,-24 10,-41 10,-52 0,-9 -3,-15 -10,-20 -7,-5 -23,-8 -50,-10l3 -12z"/>
   <path id="2" class="fil1" d="M15871 5313c10,0 19,4 26,11 7,7 11,16 11,26 0,10 -4,19 -11,26 -8,7 -16,11 -26,11 -11,0 -19,-4 -27,-11 -7,-7 -10,-16 -10,-26 0,-10 3,-19 10,-26 8,-7 16,-11 27,-11z"/>
   <path id="3" class="fil1" d="M16703 5694c-17,20 -34,35 -51,45 -18,9 -36,14 -55,14 -24,0 -42,-6 -55,-19 -13,-13 -20,-31 -20,-53 0,-25 8,-50 22,-74 13,-24 32,-44 56,-59 24,-15 47,-23 70,-23 18,0 31,4 40,12 9,7 13,16 13,27 0,10 -3,19 -9,26 -5,6 -10,8 -17,8 -5,0 -9,-1 -13,-5 -3,-3 -5,-7 -5,-12 0,-3 1,-6 2,-8 1,-3 4,-6 8,-10 4,-4 6,-6 7,-8 1,-2 1,-3 1,-5 0,-3 -2,-6 -5,-9 -5,-3 -11,-5 -20,-5 -16,0 -32,6 -48,17 -16,12 -30,28 -41,48 -14,26 -20,51 -20,76 0,17 4,30 14,39 10,10 23,15 39,15 13,0 26,-3 38,-9 13,-7 27,-18 42,-35l7 7z"/>
   <polyline class="fil0 str1" points="4255,2161 3625,2161 3625,964 1832,964 1832,1709 "/>
   <polyline class="fil0 str1" points="4255,5269 3640,5269 3640,5655 1832,5655 1832,4910 "/>
   <g>
    <ellipse class="fil0 str0" cx="1832" cy="2290" rx="577" ry="581"/>
    <polygon class="fil1" points="1723,1910 1797,1910 1797,1836 1859,1836 1859,1910 1933,1910 1933,1972 1859,1972 1859,2045 1797,2045 1797,1972 1723,1972 "/>
    <polygon class="fil1" points="1737,2664 1939,2664 1939,2706 1737,2706 "/>
    <ellipse class="fil0 str0" cx="1832" cy="2290" rx="577" ry="581"/>
    <polygon class="fil1" points="1723,1910 1797,1910 1797,1836 1859,1836 1859,1910 1933,1910 1933,1972 1859,1972 1859,2045 1797,2045 1797,1972 1723,1972 "/>
    <polygon class="fil1" points="1737,2664 1939,2664 1939,2706 1737,2706 "/>
   </g>
   <g>
    <ellipse class="fil0 str0" cx="1832" cy="4316" rx="577" ry="581"/>
    <polygon class="fil1" points="1723,3935 1797,3935 1797,3861 1859,3861 1859,3935 1933,3935 1933,3998 1859,3998 1859,4071 1797,4071 1797,3998 1723,3998 "/>
    <polygon class="fil1" points="1737,4690 1939,4690 1939,4732 1737,4732 "/>
    <ellipse class="fil0 str0" cx="1832" cy="4316" rx="577" ry="581"/>
    <polygon class="fil1" points="1723,3935 1797,3935 1797,3861 1859,3861 1859,3935 1933,3935 1933,3998 1859,3998 1859,4071 1797,4071 1797,3998 1723,3998 "/>
    <polygon class="fil1" points="1737,4690 1939,4690 1939,4732 1737,4732 "/>
   </g>
   <line class="fil0 str1" x1="1832" y1="3735" x2="1832" y2= "2871" />
   <g>
    <path class="fil1" d="M1833 3413l-4 0 -3 -1 -4 0 -3 -1 -4 -1 -3 -1 -4 -1 -3 -1 -3 -2 -3 -1 -3 -2 -3 -2 -3 -2 -3 -2 -2 -2 -3 -3 -2 -2 -3 -3 -2 -2 -2 -3 -2 -3 -1 -3 -2 -3 -2 -4 -1 -3 -1 -3 -1 -4 -1 -3 0 -4 -1 -3 0 -4 0 -4 0 0 0 -3 0 -4 1 -4 0 -3 1 -4 1 -3 1 -4 1 -3 2 -3 2 -3 1 -3 2 -3 2 -3 2 -3 3 -2 2 -3 3 -2 2 -3 3 -2 3 -2 3 -2 3 -1 3 -2 3 -1 3 -2 4 -1 3 -1 4 -1 3 0 4 -1 3 0 4 0 0 0 4 0 4 0 3 1 4 0 3 1 4 1 3 1 3 2 3 1 4 2 3 1 3 2 2 2 3 2 3 3 2 2 3 3 2 2 2 3 2 3 2 3 2 3 1 3 2 3 1 3 1 4 1 3 1 4 1 3 0 4 0 4 1 3 0 0 -1 4 0 4 0 3 -1 4 -1 3 -1 4 -1 3 -1 3 -2 4 -1 3 -2 3 -2 3 -2 3 -2 2 -2 3 -3 2 -2 3 -3 2 -3 2 -2 2 -3 2 -3 2 -4 1 -3 2 -3 1 -3 1 -4 1 -3 1 -4 1 -3 0 -4 1 -4 0 0 0zm-1062 -83l1062 0 0 20 -1062 0 0 -20zm0 -84l18 0 0 189 -36 0 0 -189 18 0z"/>
   </g>
   <g>
    <path class="fil1" d="M3943 1567l-68 236c-4,14 -6,24 -6,30 0,5 2,9 6,12 3,2 12,4 25,5l-2 8 -109 0 3 -8c12,0 19,-1 23,-2 6,-3 10,-6 13,-11 5,-6 10,-18 14,-34l49 -170c3,-10 5,-16 5,-17 1,-3 1,-6 1,-9 0,-4 -2,-8 -4,-11 -3,-3 -7,-4 -11,-4 -4,0 -10,1 -17,2l-3 -8 71 -19 10 0z"/>
    <circle class="fil0 str1" cx="3866" cy="1712" r="216"/>
   </g>
   <g>
    <path class="fil1" d="M4252 5778l-152 0 0 -8c40,-36 73,-70 100,-100 23,-26 37,-45 43,-59 6,-13 9,-27 9,-40 0,-13 -4,-23 -12,-31 -8,-8 -19,-12 -31,-12 -19,0 -36,10 -50,32l-7 -4c7,-21 16,-36 28,-47 16,-15 35,-22 57,-22 20,0 37,6 50,18 13,13 20,27 20,44 0,14 -3,28 -10,43 -6,14 -20,31 -40,53 -15,16 -47,44 -94,85l55 0c18,0 30,-2 37,-6 7,-4 14,-12 20,-24l10 0 -33 78z"/>
    <circle class="fil0 str1" cx="4204" cy="5632" r="216"/>
   </g>
   <path class="fil1" d="M47 4497l31 -317c1,-17 2,-27 2,-33 0,-8 -3,-15 -9,-21 -7,-6 -17,-8 -30,-8l-10 0 3 -11 150 0 -3 11c-16,0 -28,1 -34,5 -6,3 -11,8 -14,16 -2,4 -4,16 -6,35l-22 228 149 -203c16,-22 26,-37 30,-46 3,-6 4,-11 4,-15 0,-5 -2,-10 -6,-14 -4,-3 -12,-6 -24,-6l3 -11 114 0 -3 11c-9,0 -16,2 -22,5 -10,5 -20,12 -30,22 -10,10 -27,30 -49,60l-214 292 -10 0z"/>
   <path id="1" class="fil1" d="M998 4488l-190 0 0 -10c96,-85 160,-151 191,-199 14,-22 21,-46 21,-70 0,-20 -6,-36 -18,-48 -12,-12 -27,-18 -46,-18 -26,0 -48,12 -65,38l-10 -5c10,-24 24,-43 42,-56 18,-14 38,-20 59,-20 24,0 45,8 61,25 17,16 25,36 25,60 0,16 -3,32 -9,46 -9,21 -26,46 -50,73 -36,42 -85,89 -146,143l96 0c15,0 28,-3 38,-9 9,-7 17,-15 21,-26l11 0 -31 76z"/>
   <path id="2" class="fil1" d="M406 4599l-2 7 -106 0 3 -7c11,0 18,-1 21,-2 6,-3 10,-6 13,-9 4,-7 8,-17 13,-33l45 -157c4,-14 6,-23 6,-30 0,-3 -1,-6 -3,-9 -1,-2 -4,-4 -7,-5 -4,-1 -10,-2 -20,-2l2 -7 100 0 -2 7c-8,0 -15,1 -19,3 -5,3 -10,7 -13,12 -3,6 -7,17 -11,35l-46 157c-4,13 -6,22 -6,25 0,3 1,6 3,8 1,2 4,3 7,5 4,1 11,2 22,2z"/>
   <path id="3" class="fil1" d="M668 4331l-67 232c-4,12 -6,20 -6,24 0,1 0,2 1,3 1,1 2,2 2,2 2,0 3,-1 4,-2 3,-3 8,-11 15,-23l7 4c-8,13 -15,22 -23,29 -8,7 -15,11 -22,11 -3,0 -6,-2 -9,-5 -3,-3 -4,-7 -4,-13 0,-7 2,-17 6,-29l7 -24c-20,28 -39,48 -56,59 -12,8 -23,12 -33,12 -11,0 -20,-5 -28,-13 -8,-9 -12,-21 -12,-35 0,-20 6,-40 19,-62 14,-21 31,-39 53,-52 17,-11 33,-17 47,-17 7,0 14,2 19,4 6,3 11,8 16,15l19 -64c2,-7 3,-13 5,-17 1,-5 2,-10 2,-13 0,-3 -1,-5 -3,-7 -3,-2 -6,-3 -10,-3 -3,0 -8,0 -15,1l0 -7 66 -10zm-74 138c0,-8 -3,-15 -8,-20 -5,-5 -12,-7 -20,-7 -18,0 -36,13 -56,40 -19,27 -29,52 -29,77 0,9 3,17 8,22 4,5 10,7 17,7 16,0 34,-14 56,-43 21,-29 32,-54 32,-76z"/>
   <polygon id="4" class="fil1" points="800,4089 662,4496 639,4496 777,4089 "/>
   <path class="fil1" d="M16 2418l31 -317c1,-16 2,-27 2,-33 0,-8 -3,-15 -9,-21 -7,-5 -16,-8 -30,-8l-10 0 3 -11 150 0 -3 11c-16,0 -27,2 -34,5 -6,3 -10,9 -14,16 -2,4 -4,16 -6,36l-22 227 149 -203c16,-22 26,-37 30,-46 3,-6 5,-11 5,-15 0,-5 -3,-10 -7,-13 -4,-4 -12,-7 -24,-7l3 -11 114 0 -3 11c-9,0 -16,2 -21,5 -11,5 -21,12 -31,22 -10,10 -26,30 -48,60l-215 292 -10 0z"/>
   <path id="1" class="fil1" d="M967 2409l-190 0 0 -10c96,-85 160,-151 191,-199 14,-22 21,-46 21,-70 0,-20 -6,-35 -18,-48 -12,-12 -27,-18 -46,-18 -26,0 -48,13 -65,38l-10 -5c10,-24 24,-43 42,-56 18,-13 38,-20 59,-20 25,0 45,8 61,25 17,16 25,36 25,60 0,16 -3,32 -9,46 -9,22 -25,46 -50,73 -36,42 -85,90 -146,144l96 0c15,0 28,-4 38,-10 10,-6 17,-15 21,-25l11 0 -31 75z"/>
   <path id="2" class="fil1" d="M375 2520l-2 8 -106 0 3 -8c11,0 18,-1 21,-2 6,-2 10,-5 13,-9 4,-6 9,-17 13,-33l45 -157c4,-13 6,-23 6,-30 0,-3 -1,-6 -2,-8 -2,-3 -5,-4 -8,-6 -3,-1 -10,-1 -20,-1l2 -8 100 0 -2 8c-8,-1 -14,0 -18,2 -6,3 -11,7 -14,12 -3,6 -7,17 -11,35l-46 157c-4,14 -6,22 -6,26 0,3 1,5 3,7 1,2 4,4 7,5 4,1 11,2 22,2z"/>
   <path id="3" class="fil1" d="M637 2252l-67 232c-4,12 -6,21 -6,24 0,2 1,3 1,4 1,1 2,1 3,1 1,0 2,-1 4,-2 2,-3 7,-10 14,-23l7 4c-8,13 -15,23 -23,30 -8,6 -15,10 -22,10 -3,0 -6,-2 -9,-5 -3,-3 -4,-7 -4,-13 0,-7 2,-17 6,-29l7 -24c-20,29 -39,49 -56,60 -11,7 -23,11 -33,11 -11,0 -20,-4 -28,-13 -8,-9 -12,-20 -12,-35 0,-19 6,-40 20,-61 13,-22 30,-40 52,-53 17,-11 33,-17 47,-17 8,0 14,2 19,5 6,2 11,7 17,14l18 -64c2,-7 3,-13 5,-17 1,-5 2,-9 2,-13 0,-3 -1,-5 -3,-7 -2,-2 -6,-3 -10,-3 -3,0 -8,1 -15,2l0 -8 66 -10zm-74 138c0,-8 -3,-15 -8,-20 -5,-5 -12,-7 -20,-7 -18,0 -36,13 -56,40 -19,27 -29,52 -29,77 0,9 3,17 8,22 5,5 11,7 17,7 16,0 35,-14 56,-43 21,-29 32,-54 32,-76z"/>
   <polygon id="4" class="fil1" points="769,2010 631,2417 608,2417 746,2010 "/>
  </g>
 </g>
</svg>
