<?xml version="1.0" encoding="UTF-8"?>
<!DOCTYPE svg PUBLIC "-//W3C//DTD SVG 1.1//EN" "http://www.w3.org/Graphics/SVG/1.1/DTD/svg11.dtd">
<!-- Creator: CorelDRAW Home & Student X8 -->
<svg xmlns="http://www.w3.org/2000/svg" xml:space="preserve" width="88.893mm" height="48.1731mm" version="1.1" style="shape-rendering:geometricPrecision; text-rendering:geometricPrecision; image-rendering:optimizeQuality; fill-rule:evenodd; clip-rule:evenodd"
viewBox="0 0 116810 63302"
 xmlns:xlink="http://www.w3.org/1999/xlink">
 <defs>
  <style type="text/css">
   <![CDATA[
    .str2 {stroke:#2B2A29;stroke-width:919.705}
    .str0 {stroke:#2B2A29;stroke-width:657.026}
    .str1 {stroke:#2B2A29;stroke-width:394.216}
    .str6 {stroke:black;stroke-width:1314.05}
    .str4 {stroke:black;stroke-width:1314.05}
    .str3 {stroke:black;stroke-width:919.837}
    .str5 {stroke:black;stroke-width:657.026}
    .fil0 {fill:none}
    .fil1 {fill:#2B2A29;fill-rule:nonzero}
   ]]>
  </style>
 </defs>
 <g id="Warstwa_x0020_1">
  <metadata id="CorelCorpID_0Corel-Layer"/>
  <g id="_442576888">
   <g>
    <circle class="fil0 str0" transform="matrix(0 1 -1 0 67213.9 20243.2)" r="6570"/>
    <circle class="fil0 str0" transform="matrix(0 0.80758 -0.80758 0 67213.9 20243.2)" r="6570"/>
    <g>
     <path class="fil1" d="M67017 22211l0 -5579 394 0 0 5579 -394 0zm197 1643l-1402 -3271 88 43 87 40 88 36 88 35 87 31 88 29 87 26 88 23 88 21 87 18 88 15 87 12 88 10 88 6 87 5 88 1 88 -1 87 -5 88 -6 87 -10 88 -12 88 -15 87 -18 88 -21 87 -23 88 -26 88 -29 87 -31 88 -35 87 -36 88 -40 88 -43 0 0 -1402 3271z"/>
    </g>
   </g>
   <polyline class="fil0 str1" points="45250,26813 45250,31321 67471,31321 67471,26812 "/>
   <line class="fil0 str1" x1="67214" y1="13673" x2="67214" y2= "9244" />
   <polyline class="fil0 str1" points="45250,13673 45250,9244 30531,9244 30531,30600 "/>
   <g>
    <path class="fil1" d="M55692 31321l0 8148 -394 0 0 -8148 394 0zm-1576 0l0 0 2 -71 5 -69 9 -69 12 -68 16 -67 18 -65 22 -64 25 -62 27 -61 31 -60 33 -58 36 -56 38 -54 41 -52 44 -50 45 -48 48 -45 50 -44 52 -41 54 -38 56 -36 58 -33 59 -31 62 -28 62 -25 64 -21 66 -19 66 -15 68 -12 69 -9 70 -6 71 -1 0 0 71 1 70 6 69 9 67 12 67 15 66 19 64 21 62 25 61 28 60 31 57 33 56 36 54 38 52 41 50 44 48 45 46 48 43 50 41 52 39 54 35 56 34 58 30 60 28 61 25 62 21 64 19 65 15 67 12 68 9 69 6 69 1 71 0 0 -1 71 -6 70 -9 68 -12 68 -15 67 -19 65 -21 64 -25 63 -28 61 -30 59 -34 58 -35 56 -39 54 -41 52 -43 50 -46 48 -48 46 -50 43 -52 41 -54 39 -56 35 -57 34 -60 30 -61 28 -62 25 -64 21 -66 19 -67 15 -67 13 -69 8 -70 6 -71 2 0 0 -71 -2 -70 -6 -69 -8 -68 -13 -66 -15 -66 -19 -64 -21 -62 -25 -62 -28 -59 -30 -58 -34 -56 -35 -54 -39 -52 -41 -50 -43 -48 -46 -45 -48 -44 -50 -41 -52 -38 -54 -36 -56 -33 -58 -31 -59 -27 -61 -25 -63 -22 -64 -18 -65 -16 -67 -12 -68 -9 -68 -5 -70 -2 -71z"/>
   </g>
   <g>
    <path class="fil1" d="M55162 63040l136 -10433 394 5 -136 10433 -394 -5zm-1787 -23l4 -234 3967 52 -6 467 -3968 -52 3 -233z"/>
   </g>
   <g>
    <path class="fil1" d="M30088 62860l155 -18992 395 3 -156 18992 -394 -3zm-1787 -15l2 -234 3968 33 -4 467 -3968 -32 2 -234z"/>
   </g>
   <g>
    <path class="fil1" d="M9911 63066l0 -24453 394 0 0 24453 -394 0zm-1787 0l0 -233 3968 0 0 467 -3968 0 0 -234z"/>
   </g>
   <g>
    <path class="fil1" d="M10305 9099l0 26886 -394 0 0 -26886 197 -197 197 197zm-394 0l0 -197 197 0 -197 197zm20620 198l-20423 0 0 -395 20423 0 0 395zm0 -1576l0 0 71 2 70 5 69 9 67 12 67 15 65 19 64 22 63 24 61 28 59 30 58 34 56 36 54 38 52 41 50 43 48 46 46 48 43 50 41 52 39 54 36 56 33 58 31 59 27 61 25 63 22 64 18 65 16 67 12 68 9 69 5 70 2 70 0 0 -2 71 -5 70 -9 69 -12 68 -16 67 -18 65 -22 64 -25 63 -27 61 -31 59 -33 58 -36 56 -39 54 -41 52 -43 50 -46 48 -48 46 -50 43 -52 41 -54 38 -56 36 -58 33 -59 31 -61 27 -63 25 -64 22 -65 18 -67 16 -67 12 -69 9 -70 5 -71 2 0 0 -70 -2 -70 -5 -69 -9 -68 -12 -66 -16 -66 -18 -64 -22 -62 -25 -61 -27 -60 -31 -57 -33 -56 -36 -54 -38 -52 -41 -51 -43 -47 -46 -46 -48 -44 -50 -41 -52 -38 -54 -36 -56 -33 -58 -31 -59 -27 -61 -25 -63 -22 -64 -19 -65 -15 -67 -12 -68 -9 -69 -5 -70 -2 -71 0 0 2 -70 5 -70 9 -69 12 -68 15 -67 19 -65 22 -64 25 -63 27 -61 31 -59 33 -58 36 -56 38 -54 41 -52 44 -50 46 -48 47 -46 51 -43 52 -41 54 -38 56 -36 57 -34 60 -30 61 -28 62 -24 64 -22 66 -19 66 -15 68 -12 69 -9 70 -5 70 -2z"/>
   </g>
   <g>
    <path class="fil1" d="M105379 63066l0 -24453 394 0 0 24453 -394 0zm-1787 0l0 -233 3968 0 0 467 -3968 0 0 -234z"/>
   </g>
   <polyline class="fil0 str1" points="105576,35985 105576,9244 67214,9437 "/>
   <g>
    <path class="fil1" d="M67214 9441l-4274 0 0 -394 4274 0 0 394zm0 -1576l0 0 71 2 69 5 69 9 68 12 67 16 65 18 64 22 62 25 61 27 60 31 58 33 56 36 54 38 52 41 50 43 48 46 45 48 44 50 41 52 38 54 36 56 33 58 31 59 28 61 25 63 21 64 19 65 15 67 12 68 9 69 6 70 1 71 0 0 -1 71 -6 70 -9 69 -12 67 -15 67 -19 65 -21 64 -25 63 -28 61 -31 59 -33 58 -36 56 -38 54 -41 52 -44 50 -45 48 -48 46 -50 43 -52 41 -54 39 -56 35 -58 34 -60 30 -61 28 -62 24 -64 22 -65 19 -67 15 -68 12 -69 9 -69 5 -71 2 0 0 -71 -2 -70 -5 -68 -9 -68 -12 -67 -15 -65 -19 -64 -22 -63 -24 -61 -28 -59 -30 -58 -34 -56 -35 -54 -39 -52 -41 -50 -43 -48 -46 -46 -48 -43 -50 -41 -52 -39 -54 -35 -56 -34 -58 -30 -59 -28 -61 -25 -63 -21 -64 -19 -65 -15 -67 -13 -67 -8 -69 -6 -70 -2 -71 0 0 2 -71 6 -70 8 -69 13 -68 15 -67 19 -65 21 -64 25 -63 28 -61 30 -59 34 -58 35 -56 39 -54 41 -52 43 -50 46 -48 48 -46 50 -43 52 -41 54 -38 56 -36 58 -33 59 -31 61 -27 63 -25 64 -22 65 -18 67 -16 68 -12 68 -9 70 -5 71 -2z"/>
   </g>
   <g>
    <path class="fil1" d="M45250 9047l4550 0 0 394 -4550 0 0 -394zm0 1575l0 0 -71 -2 -70 -5 -69 -9 -67 -12 -67 -15 -65 -19 -64 -22 -63 -24 -61 -28 -59 -30 -58 -34 -56 -35 -54 -39 -52 -41 -50 -43 -48 -46 -46 -48 -43 -50 -41 -52 -39 -54 -36 -56 -33 -58 -31 -59 -27 -61 -25 -63 -22 -64 -18 -65 -16 -67 -12 -67 -9 -69 -5 -70 -2 -71 0 0 2 -71 5 -70 9 -69 12 -68 16 -67 18 -65 22 -64 25 -63 27 -61 31 -59 33 -58 36 -56 39 -54 41 -52 43 -50 46 -48 48 -46 50 -43 52 -41 54 -38 56 -36 58 -33 59 -31 61 -27 63 -25 64 -22 65 -18 67 -16 67 -12 69 -9 70 -5 71 -2 0 0 70 2 70 5 69 9 68 12 66 16 66 18 64 22 62 25 61 27 60 31 57 33 56 36 54 38 52 41 51 43 47 46 46 48 44 50 41 52 38 54 36 56 33 58 31 59 27 61 25 63 22 64 19 65 15 67 12 68 9 69 5 70 2 71 0 0 -2 71 -5 70 -9 69 -12 67 -15 67 -19 65 -22 64 -25 63 -27 61 -31 59 -33 58 -36 56 -38 54 -41 52 -44 50 -46 48 -47 46 -51 43 -52 41 -54 39 -56 35 -57 34 -60 30 -61 28 -62 24 -64 22 -66 19 -66 15 -68 12 -69 9 -70 5 -70 2z"/>
   </g>
   <path class="fil1" d="M113901 35194l83 1252 -83 0c-112,-374 -272,-645 -480,-809 -207,-165 -456,-248 -747,-248 -243,0 -464,62 -660,186 -197,125 -351,322 -465,595 -112,271 -168,610 -168,1014 0,334 53,623 159,868 107,245 267,432 480,563 215,130 458,195 732,195 238,0 449,-51 630,-153 183,-102 383,-305 601,-609l84 56c-184,327 -399,566 -645,718 -245,151 -537,227 -875,227 -609,0 -1081,-226 -1415,-679 -249,-338 -374,-734 -374,-1191 0,-368 82,-706 246,-1014 164,-309 391,-547 678,-717 288,-169 603,-254 944,-254 265,0 527,65 785,196 75,40 130,60 162,60 49,0 91,-17 127,-52 48,-49 81,-116 100,-204l101 0z"/>
   <path id="1" class="fil1" d="M116810 38250l-258 716 -2173 0 0 -102c640,-583 1089,-1059 1350,-1428 260,-369 391,-706 391,-1012 0,-234 -71,-426 -215,-576 -143,-150 -313,-225 -513,-225 -181,0 -344,52 -487,156 -145,105 -251,259 -320,461l-100 0c45,-333 162,-588 349,-767 187,-178 422,-267 704,-267 298,0 549,96 749,288 200,192 300,418 300,679 0,187 -43,374 -130,560 -134,293 -352,604 -652,932 -452,492 -730,786 -836,884l952 0c194,0 330,-8 408,-22 78,-14 148,-44 211,-89 63,-43 118,-106 164,-188l106 0z"/>
   <path class="fil1" d="M3143 34694l83 1252 -83 0c-112,-375 -272,-646 -479,-810 -208,-165 -457,-247 -748,-247 -243,0 -463,62 -660,186 -196,124 -351,322 -464,594 -112,272 -169,610 -169,1015 0,333 53,623 160,867 106,245 267,432 480,563 214,131 458,196 731,196 239,0 449,-51 631,-153 182,-102 383,-305 600,-609l85 55c-185,328 -400,567 -645,719 -246,151 -538,227 -876,227 -609,0 -1081,-226 -1414,-680 -250,-337 -375,-734 -375,-1190 0,-368 83,-706 247,-1014 164,-309 390,-547 677,-717 289,-170 603,-254 944,-254 265,0 527,65 785,196 76,39 130,60 163,60 48,0 91,-18 127,-52 47,-49 80,-117 100,-204l100 0z"/>
   <path id="1" class="fil1" d="M4150 35139l900 -434 90 0 0 3110c0,206 8,336 26,387 18,50 53,90 108,117 54,27 166,43 333,46l0 101 -1390 0 0 -101c174,-3 286,-18 336,-45 51,-26 86,-61 107,-106 19,-44 29,-178 29,-399l0 -1992c0,-268 -9,-440 -26,-516 -13,-59 -37,-101 -70,-128 -34,-27 -74,-41 -121,-41 -68,0 -162,28 -281,85l-41 -84z"/>
   <path class="fil1" d="M57742 2448l81 18 -291 915 -2615 0 0 -92 126 0c143,0 245,-46 306,-139 35,-52 52,-175 52,-366l0 -2187c0,-211 -23,-343 -70,-396 -64,-73 -160,-109 -288,-109l-126 0 0 -92 1529 0 0 92c-179,-2 -305,14 -378,49 -72,34 -121,78 -148,130 -26,53 -40,179 -40,377l0 2131c0,139 14,233 40,285 20,35 51,61 93,78 41,16 171,25 389,25l247 0c260,0 442,-19 546,-57 105,-39 201,-107 287,-203 86,-97 173,-250 260,-459z"/>
   <path class="fil1" d="M63951 47369l-987 0 -1253 -1724c-89,3 -163,5 -219,5 -23,0 -48,-1 -74,-2 -27,-1 -54,-2 -83,-3l0 1073c0,232 25,376 76,431 69,80 172,120 309,120l143 0 0 100 -1579 0 0 -100 138 0c156,0 267,-51 334,-152 38,-56 56,-189 56,-399l0 -2386c0,-232 -25,-376 -76,-431 -70,-80 -175,-120 -314,-120l-138 0 0 -100 1342 0c392,0 681,29 866,85 186,58 344,163 473,316 130,153 195,336 195,548 0,227 -75,424 -222,591 -148,167 -376,284 -687,354l763 1056c174,243 324,405 449,485 124,81 287,131 488,153l0 100zm-2616 -1897c34,0 64,0 89,1 25,1 46,2 61,2 348,0 610,-76 786,-228 177,-153 266,-347 266,-582 0,-230 -72,-418 -214,-562 -142,-144 -332,-216 -566,-216 -104,0 -245,16 -422,50l0 1535z"/>
   <path id="1" class="fil1" d="M64546 45005l0 -128c188,-111 316,-213 384,-310 47,-68 71,-151 71,-246 0,-57 -10,-99 -31,-126 -21,-27 -45,-40 -70,-40 -21,0 -47,6 -80,19 -47,16 -87,24 -118,24 -73,0 -138,-27 -194,-81 -57,-55 -86,-123 -86,-204 0,-91 28,-162 85,-213 76,-68 167,-103 271,-103 122,0 231,51 328,154 97,102 145,229 145,381 0,215 -80,409 -241,584 -107,116 -261,213 -464,289z"/>
   <path id="2" class="fil1" d="M66527 46156l0 972 541 0c141,0 234,-21 281,-63 63,-56 98,-153 105,-293l67 0 0 857 -67 0c-17,-120 -34,-198 -51,-232 -21,-42 -57,-75 -107,-99 -49,-24 -125,-37 -228,-37l-541 0 0 811c0,109 5,175 14,199 10,23 27,42 51,56 24,14 70,21 138,21l416 0c138,0 239,-10 302,-29 62,-19 123,-58 180,-114 75,-75 152,-188 230,-339l75 0 -213 616 -1894 0 0 -67 87 0c58,0 113,-14 165,-42 39,-19 66,-48 79,-87 15,-39 21,-118 21,-238l0 -1599c0,-155 -15,-251 -47,-287 -44,-48 -116,-72 -218,-72l-87 0 0 -67 1895 0 26 541 -70 0c-26,-130 -54,-220 -84,-269 -31,-48 -77,-86 -137,-111 -48,-18 -134,-28 -255,-28l-674 0z"/>
   <path class="fil1" d="M38494 38587l-987 0 -1253 -1724c-90,3 -163,5 -219,5 -24,0 -49,-1 -75,-2 -26,-1 -53,-1 -82,-3l0 1073c0,232 25,376 76,431 69,80 171,120 309,120l143 0 0 100 -1579 0 0 -100 138 0c155,0 267,-51 333,-152 38,-56 57,-189 57,-399l0 -2386c0,-232 -25,-376 -76,-431 -70,-80 -175,-120 -314,-120l-138 0 0 -100 1342 0c392,0 681,29 866,85 186,58 344,163 473,316 130,153 195,336 195,548 0,228 -75,424 -222,591 -148,167 -377,285 -687,354l763 1056c174,243 323,405 449,485 124,81 287,131 488,153l0 100zm-2616 -1897c34,0 64,0 89,1 25,1 45,2 61,2 348,0 610,-76 786,-228 177,-153 266,-347 266,-582 0,-230 -72,-418 -214,-562 -143,-144 -332,-216 -566,-216 -104,0 -245,17 -422,50l0 1535z"/>
   <path id="1" class="fil1" d="M40154 38444c170,36 298,94 382,174 117,111 176,247 176,408 0,122 -38,240 -116,352 -77,112 -183,193 -317,244 -134,52 -340,78 -616,78l-1158 0 0 -67 92 0c102,0 175,-33 219,-98 28,-42 42,-132 42,-269l0 -1591c0,-152 -18,-248 -52,-287 -47,-54 -116,-80 -209,-80l-92 0 0 -67 1060 0c198,0 356,14 475,43 181,44 319,121 414,231 95,111 143,238 143,382 0,123 -37,233 -112,330 -75,97 -185,170 -331,217zm-948 -101c45,9 96,15 153,19 57,5 121,6 189,6 176,0 309,-19 397,-56 89,-38 157,-96 204,-175 46,-78 70,-163 70,-256 0,-143 -59,-265 -176,-366 -117,-101 -287,-152 -511,-152 -121,0 -229,13 -326,40l0 940zm0 1178c141,33 280,49 416,49 220,0 387,-49 502,-148 115,-98 173,-220 173,-364 0,-96 -27,-188 -81,-275 -53,-89 -138,-158 -255,-209 -117,-50 -262,-76 -435,-76 -74,0 -138,1 -191,4 -53,2 -96,7 -129,12l0 1007z"/>
   <path class="fil1" d="M42186 3858l32 -84 1103 0c185,0 350,29 495,86 145,58 254,137 326,240 72,103 108,211 108,326 0,176 -68,336 -203,478 -135,143 -355,248 -661,316 202,70 352,162 447,277 96,115 144,242 144,379 0,153 -40,299 -118,438 -79,139 -179,248 -302,325 -123,77 -271,134 -445,170 -124,25 -316,39 -579,39l-1124 0 30 -84c117,-3 197,-15 239,-34 61,-25 104,-59 129,-102 36,-57 85,-188 145,-394l536 -1862c46,-157 70,-267 70,-331 0,-56 -21,-100 -62,-132 -42,-33 -121,-49 -237,-49 -25,0 -49,-1 -73,-2zm468 1274c98,3 168,5 212,5 312,0 544,-68 697,-204 152,-136 228,-306 228,-510 0,-155 -47,-276 -140,-361 -94,-87 -244,-130 -449,-130 -55,0 -125,9 -209,27l-339 1173zm-437 1517c166,21 295,32 389,32 239,0 450,-71 635,-214 185,-142 277,-336 277,-579 0,-187 -58,-332 -173,-437 -115,-104 -302,-156 -559,-156 -49,0 -110,3 -182,9l-387 1345z"/>
   <path class="fil1" d="M73181 4286l-228 997 -83 0 -9 -249c-8,-91 -25,-172 -53,-243 -27,-71 -68,-133 -123,-185 -54,-52 -124,-93 -208,-123 -83,-29 -176,-44 -278,-44 -272,0 -510,75 -714,223 -260,188 -464,455 -611,800 -122,284 -183,571 -183,863 0,298 88,536 263,713 175,177 403,266 684,266 212,0 401,-47 566,-140 165,-95 319,-239 461,-435l108 0c-166,265 -351,459 -553,583 -203,124 -446,187 -728,187 -251,0 -472,-53 -666,-158 -193,-105 -340,-252 -441,-442 -102,-191 -153,-395 -153,-615 0,-335 90,-661 270,-978 179,-317 426,-567 739,-748 313,-181 628,-272 947,-272 149,0 317,36 502,108 81,30 140,45 176,45 36,0 68,-7 95,-23 27,-14 73,-58 136,-130l84 0z"/>
   <path class="fil1" d="M59962 26573l-346 1215 291 0c206,0 355,-31 447,-94 93,-62 172,-178 239,-346l83 0 -315 1107 -93 0c27,-93 41,-173 41,-239 0,-64 -13,-116 -39,-155 -26,-40 -63,-68 -108,-87 -46,-19 -142,-29 -288,-29l-303 0 -305 1066c-29,85 -44,149 -44,194 0,34 20,64 58,89 26,19 92,28 198,28l280 0c294,0 530,-51 707,-156 177,-104 335,-286 476,-544l83 0 -292 858 -2365 0 29 -84c119,-3 197,-14 238,-31 61,-27 105,-62 132,-105 41,-61 89,-191 144,-389l534 -1855c42,-150 63,-264 63,-342 0,-58 -20,-103 -60,-135 -39,-33 -117,-49 -234,-49l-47 0 27 -84 2206 0 -190 742 -83 0c11,-69 15,-127 15,-174 0,-80 -19,-147 -58,-201 -51,-70 -126,-122 -225,-159 -73,-27 -240,-41 -501,-41l-395 0z"/>
   <path class="fil1" d="M50837 18179l0 1820c201,-220 361,-362 479,-424 117,-63 236,-94 354,-94 141,0 262,39 364,117 101,78 176,200 225,367 35,117 52,329 52,637l0 882c0,156 13,263 38,321 18,43 49,77 92,102 43,25 123,38 238,38l0 100 -1219 0 0 -100 57 0c116,0 195,-17 241,-52 45,-36 77,-88 94,-155 6,-29 9,-114 9,-254l0 -882c0,-273 -14,-452 -43,-537 -28,-85 -72,-149 -134,-192 -62,-43 -137,-64 -224,-64 -89,0 -181,23 -277,71 -96,47 -211,142 -346,285l0 1319c0,168 9,274 29,316 18,41 54,76 106,104 51,27 140,41 266,41l0 100 -1230 0 0 -100c111,0 197,-16 260,-51 36,-18 65,-52 86,-103 22,-50 33,-153 33,-307l0 -2253c0,-283 -7,-456 -21,-521 -14,-65 -34,-110 -62,-133 -28,-23 -66,-35 -112,-35 -38,0 -100,15 -185,43l-38 -100 743 -306 125 0z"/>
   <path id="1" class="fil1" d="M53253 20581c50,0 93,18 129,53 35,36 53,79 53,129 0,51 -18,95 -53,130 -36,37 -79,55 -129,55 -51,0 -95,-18 -131,-55 -36,-35 -54,-79 -54,-130 0,-50 18,-93 53,-129 36,-35 80,-53 132,-53zm149 867l0 1336c0,103 7,171 22,205 15,35 38,60 67,77 30,17 84,25 163,25l0 67 -805 0 0 -67c80,0 135,-8 162,-23 28,-16 50,-42 66,-77 16,-36 24,-105 24,-207l0 -642c0,-179 -5,-294 -16,-347 -8,-39 -21,-65 -40,-80 -18,-16 -43,-23 -73,-23 -34,0 -75,9 -123,27l-26 -67 499 -204 80 0z"/>
   <path id="2" class="fil1" d="M53790 21497l775 0 0 66c-49,0 -83,9 -103,26 -20,18 -30,40 -30,68 0,30 22,75 66,136 13,19 33,50 60,91l120 189 137 -189c87,-118 132,-194 132,-227 0,-26 -10,-48 -30,-66 -21,-18 -54,-28 -100,-28l0 -66 557 0 0 66c-60,4 -111,20 -155,49 -60,41 -141,130 -242,267l-227 302 413 599c101,148 173,235 217,265 43,30 100,46 168,50l0 63 -784 0 0 -63c54,0 97,-12 127,-36 22,-18 34,-40 34,-68 0,-28 -39,-99 -117,-212l-243 -354 -266 354c-80,110 -119,176 -119,197 0,29 13,56 41,79 27,25 68,37 122,40l0 63 -541 0 0 -63c43,-6 81,-21 113,-46 46,-34 123,-124 231,-269l346 -464 -312 -456c-89,-131 -158,-213 -207,-246 -48,-34 -109,-51 -183,-51l0 -66z"/>
   <g>
    <path class="fil1" d="M48492 31518l-539 0 0 -394 539 0 0 394zm1644 -197l-3271 1402 42 -88 40 -87 37 -88 34 -88 31 -87 29 -88 26 -87 23 -88 21 -88 18 -87 15 -88 12 -87 10 -88 7 -88 4 -87 1 -88 -1 -88 -4 -87 -7 -88 -10 -87 -12 -88 -15 -88 -18 -87 -21 -88 -23 -87 -26 -88 -29 -88 -31 -87 -34 -88 -37 -88 -40 -87 -42 -88 0 0 3271 1402z"/>
   </g>
   <path class="fil1" d="M46885 32507c63,0 117,21 161,65 45,44 66,98 66,162 0,62 -22,115 -67,160 -45,45 -98,67 -160,67 -62,0 -115,-22 -160,-67 -45,-45 -67,-98 -67,-160 0,-64 21,-118 65,-162 45,-44 99,-65 162,-65zm99 899l-476 1605c-32,109 -48,174 -48,195 0,23 7,42 19,56 13,14 29,22 47,22 20,0 45,-11 73,-35 77,-66 155,-163 234,-288l80 53c-98,155 -213,284 -345,387 -98,76 -191,114 -281,114 -59,0 -107,-18 -144,-55 -38,-36 -57,-82 -57,-136 0,-57 21,-150 61,-282l315 -1024c49,-166 73,-269 73,-311 0,-33 -12,-60 -35,-81 -24,-21 -55,-31 -96,-31 -34,0 -102,8 -206,24l0 -88 786 -125z"/>
   <path id="1" class="fil1" d="M48108 34182l-316 1095c97,-105 183,-177 255,-215 73,-39 149,-59 228,-59 112,0 203,39 275,116 71,77 106,181 106,313 0,170 -47,339 -141,507 -95,169 -213,300 -356,394 -143,93 -284,140 -422,140 -155,0 -314,-59 -478,-178l481 -1665c36,-126 55,-201 55,-223 0,-27 -8,-48 -26,-61 -23,-19 -60,-29 -107,-29 -22,0 -55,4 -101,11l0 -58 547 -88zm-614 2130c101,58 191,87 268,87 90,0 182,-34 278,-103 97,-68 180,-182 251,-344 71,-161 106,-324 106,-489 0,-97 -23,-173 -69,-228 -46,-55 -100,-82 -162,-82 -94,0 -186,41 -275,123 -90,83 -155,194 -195,334l-202 702z"/>
   <path class="fil1" d="M65253 34108l0 1820c201,-221 360,-363 478,-425 118,-62 237,-94 354,-94 141,0 263,39 365,117 101,78 176,200 225,367 34,117 52,329 52,637l0 882c0,157 13,263 38,322 17,42 48,77 92,102 42,25 122,38 237,38l0 100 -1218 0 0 -100 56 0c116,0 196,-18 241,-53 46,-35 77,-87 95,-155 5,-29 8,-114 8,-254l0 -882c0,-272 -14,-451 -42,-537 -28,-85 -73,-149 -135,-192 -61,-42 -136,-64 -223,-64 -89,0 -181,24 -277,71 -97,47 -212,143 -346,285l0 1319c0,169 9,274 28,316 19,41 54,76 106,104 51,28 140,42 266,42l0 100 -1229 0 0 -100c110,0 196,-17 259,-51 37,-19 65,-53 87,-103 21,-50 32,-153 32,-308l0 -2253c0,-283 -6,-456 -20,-521 -14,-65 -35,-109 -62,-133 -28,-23 -66,-35 -113,-35 -38,0 -100,15 -184,44l-38 -100 743 -306 125 0z"/>
   <path id="1" class="fil1" d="M67891 37555l0 1094c0,154 17,251 51,291 45,53 105,80 181,80l150 0 0 66 -994 0 0 -66 75 0c48,0 92,-12 132,-36 40,-24 67,-57 82,-98 16,-41 23,-120 23,-237l0 -1094 -323 0 0 -130 323 0 0 -108c0,-165 27,-304 80,-419 53,-113 134,-206 244,-276 110,-70 233,-106 369,-106 128,0 245,41 352,123 69,54 105,113 105,181 0,36 -16,70 -47,101 -32,32 -66,48 -102,48 -28,0 -57,-10 -88,-30 -31,-20 -69,-62 -114,-127 -44,-65 -86,-109 -123,-132 -37,-23 -79,-34 -125,-34 -56,0 -103,15 -142,44 -38,30 -66,75 -83,137 -17,62 -26,222 -26,479l0 119 427 0 0 130 -427 0z"/>
   <path id="2" class="fil1" d="M68756 38052c-2,245 58,437 179,577 120,139 262,209 426,209 108,0 202,-30 283,-89 80,-59 147,-162 202,-308l55 37c-25,166 -98,318 -220,453 -122,136 -275,204 -458,204 -199,0 -369,-78 -511,-233 -141,-155 -212,-363 -212,-625 0,-283 72,-504 218,-662 145,-159 327,-238 547,-238 185,0 338,61 457,183 119,123 179,286 179,492l-1145 0zm0 -104l767 0c-6,-106 -18,-181 -37,-225 -31,-67 -76,-120 -136,-158 -59,-39 -122,-59 -187,-59 -100,0 -190,39 -269,117 -79,78 -125,186 -138,325z"/>
   <path id="3" class="fil1" d="M71047 35016c63,0 117,22 161,66 44,44 66,98 66,161 0,62 -23,116 -67,160 -45,45 -99,67 -160,67 -62,0 -115,-22 -160,-67 -45,-44 -67,-98 -67,-160 0,-63 21,-117 65,-161 44,-44 98,-66 162,-66zm99 900l-476 1605c-32,108 -48,173 -48,195 0,23 7,41 19,56 13,14 29,22 46,22 21,0 45,-12 74,-35 77,-66 155,-163 234,-288l80 52c-99,156 -214,285 -346,387 -97,77 -191,115 -280,115 -59,0 -108,-19 -145,-55 -37,-36 -56,-82 -56,-137 0,-56 21,-150 61,-281l315 -1025c49,-165 73,-268 73,-310 0,-33 -12,-60 -35,-81 -24,-22 -56,-32 -97,-32 -33,0 -101,9 -205,25l0 -88 786 -125z"/>
   <path id="4" class="fil1" d="M72270 36692l-316 1095c97,-105 183,-177 255,-216 73,-39 149,-58 228,-58 112,0 203,38 275,116 70,76 106,181 106,313 0,170 -47,338 -142,507 -94,168 -213,299 -355,393 -143,94 -284,141 -422,141 -155,0 -314,-60 -478,-179l480 -1664c37,-127 56,-201 56,-224 0,-27 -9,-47 -26,-61 -24,-19 -60,-28 -107,-28 -22,0 -56,3 -101,11l0 -58 547 -88zm-615 2130c102,58 191,86 269,86 89,0 182,-34 278,-102 96,-68 180,-183 250,-344 71,-162 107,-325 107,-489 0,-98 -23,-173 -69,-229 -46,-54 -100,-82 -162,-82 -94,0 -186,41 -275,124 -90,82 -155,194 -195,334l-203 702z"/>
   <polyline class="fil0 str2" points="30398,43870 27943,43049 32938,41406 27943,39763 32938,38121 27943,36478 32938,34836 27943,33193 32938,31551 30398,30729 "/>
   <polyline class="fil0 str2" points="55452,52610 52997,51789 57992,50146 52997,48504 57992,46861 52997,45219 57992,43576 52997,41934 57992,40291 55452,39469 "/>
   <polygon class="fil0 str3" points="41965,13673 41965,26813 48535,26813 48535,13673 "/>
   <path class="fil0 str4" d="M13656 35985l-7096 0m7096 2628l-7096 0"/>
   <path class="fil0 str5" d="M49800 9307c0,-1813 736,-3285 1642,-3285 907,0 1643,1472 1643,3285m0 0c0,-1813 736,-3285 1642,-3285 907,0 1643,1472 1643,3285m0 0c0,-1813 736,-3285 1642,-3285 907,0 1643,1472 1643,3285m0 0c0,-1813 736,-3285 1643,-3285 906,0 1642,1472 1642,3285"/>
   <path class="fil0 str6" d="M109124 35985l-7096 0m7096 2628l-7096 0"/>
   <polygon class="fil0 str3" points="81195,13673 81195,26813 87765,26813 87765,13673 "/>
   <path class="fil1" d="M90180 18179l0 1820c201,-220 361,-362 479,-424 117,-63 236,-94 354,-94 141,0 262,39 364,117 101,78 176,200 225,367 35,117 52,329 52,637l0 882c0,156 13,263 38,321 18,43 49,77 92,102 43,25 123,38 238,38l0 100 -1219 0 0 -100 57 0c116,0 196,-17 241,-52 45,-36 77,-88 94,-155 6,-29 9,-114 9,-254l0 -882c0,-273 -14,-452 -43,-537 -28,-85 -72,-149 -134,-192 -61,-43 -137,-64 -224,-64 -89,0 -180,23 -277,71 -96,47 -211,142 -346,285l0 1319c0,168 10,274 29,316 19,41 54,76 106,104 51,27 140,41 266,41l0 100 -1230 0 0 -100c111,0 197,-16 260,-51 36,-18 65,-52 86,-103 22,-50 33,-153 33,-307l0 -2253c0,-283 -7,-456 -21,-521 -14,-65 -34,-110 -62,-133 -28,-23 -66,-35 -112,-35 -38,0 -100,15 -184,43l-39 -100 743 -306 125 0z"/>
   <path id="1" class="fil1" d="M92988 21448c251,0 453,96 605,287 129,162 194,349 194,561 0,148 -36,298 -107,450 -71,152 -169,267 -294,345 -126,77 -265,115 -418,115 -250,0 -449,-99 -597,-298 -124,-168 -186,-356 -186,-565 0,-152 38,-304 113,-454 75,-150 175,-261 298,-333 123,-72 254,-108 392,-108zm-57 119c-63,0 -128,19 -192,57 -65,38 -117,104 -157,200 -40,95 -60,217 -60,367 0,241 49,449 144,623 96,175 223,262 380,262 117,0 213,-48 289,-144 76,-97 114,-262 114,-497 0,-294 -63,-525 -190,-694 -85,-116 -195,-174 -328,-174z"/>
   <path id="2" class="fil1" d="M94302 22123c-1,246 59,438 180,578 120,139 262,209 425,209 109,0 203,-30 284,-89 80,-59 147,-162 202,-308l55 36c-25,167 -99,319 -220,454 -122,135 -275,203 -458,203 -199,0 -369,-77 -511,-232 -141,-155 -213,-363 -213,-625 0,-283 73,-504 219,-663 145,-158 327,-238 547,-238 185,0 338,62 457,184 119,122 179,286 179,491l-1146 0zm0 -103l768 0c-6,-107 -19,-182 -38,-225 -30,-67 -75,-120 -135,-159 -59,-39 -122,-58 -187,-58 -100,0 -190,39 -269,117 -79,78 -125,186 -139,325z"/>
   <g>
    <path class="fil1" d="M84677 9350l0 4323 -394 0 0 -4323 394 0zm-1575 0l0 0 1 -71 6 -69 9 -69 12 -68 15 -66 19 -66 21 -64 25 -62 28 -61 30 -60 33 -58 36 -56 39 -54 41 -52 43 -50 46 -48 47 -45 51 -44 52 -41 54 -38 56 -36 57 -33 60 -31 61 -28 62 -24 64 -22 66 -19 66 -15 68 -12 69 -9 70 -6 71 -1 0 0 71 1 70 6 69 9 68 12 66 15 66 19 64 22 62 24 62 28 59 31 58 33 56 36 54 38 52 41 50 44 48 45 45 48 44 50 41 52 38 54 36 56 33 58 31 60 27 61 25 62 22 64 18 66 16 66 12 68 8 69 6 69 2 71 0 0 -2 71 -6 70 -8 68 -12 68 -16 67 -18 65 -22 64 -25 63 -27 61 -31 59 -33 58 -36 56 -38 54 -41 52 -44 50 -45 48 -48 46 -50 43 -52 41 -54 39 -56 35 -58 34 -59 30 -62 28 -62 25 -64 21 -66 19 -66 15 -68 13 -69 8 -70 6 -71 2 0 0 -71 -2 -70 -6 -69 -8 -68 -13 -66 -15 -66 -19 -64 -21 -62 -25 -61 -28 -60 -30 -57 -34 -56 -35 -54 -39 -52 -41 -51 -43 -47 -46 -46 -48 -43 -50 -41 -52 -39 -54 -36 -56 -33 -58 -30 -59 -28 -61 -25 -63 -21 -64 -19 -65 -15 -67 -12 -68 -9 -68 -6 -70 -1 -71z"/>
   </g>
   <g>
    <path class="fil1" d="M84283 31540l0 -4727 394 0 0 4727 -197 197 -197 -197zm394 0l0 197 -197 0 197 -197zm-17206 -197l17009 0 0 394 -17009 0 0 -394zm0 1575l0 0 -70 -1 -70 -6 -69 -8 -68 -13 -66 -15 -66 -19 -63 -21 -63 -25 -61 -28 -60 -30 -57 -33 -56 -36 -54 -39 -52 -41 -50 -43 -48 -45 -46 -48 -43 -50 -41 -52 -39 -55 -36 -55 -33 -58 -31 -60 -27 -61 -25 -62 -22 -64 -18 -66 -16 -66 -12 -68 -9 -69 -5 -70 -2 -71 0 0 2 -71 5 -70 9 -69 12 -68 16 -66 18 -66 22 -64 25 -62 27 -61 31 -60 33 -58 36 -55 39 -55 41 -52 43 -50 46 -47 48 -46 50 -43 52 -41 54 -39 56 -36 57 -33 60 -30 61 -28 63 -25 63 -21 66 -19 66 -15 68 -13 69 -8 70 -6 70 -1 0 0 71 1 70 6 69 8 68 13 66 15 66 19 63 21 63 25 61 28 59 30 58 33 56 36 54 39 52 41 50 43 48 46 46 47 43 50 41 52 39 55 36 55 33 58 31 60 27 61 25 62 22 64 18 66 16 66 12 68 9 69 5 70 2 71 0 0 -2 71 -5 70 -9 69 -12 68 -16 66 -18 66 -22 64 -25 62 -27 61 -31 60 -33 58 -36 55 -39 55 -41 52 -43 50 -46 48 -48 45 -50 43 -52 41 -54 39 -56 36 -58 33 -59 30 -61 28 -63 25 -63 21 -66 19 -66 15 -68 13 -69 8 -70 6 -71 1z"/>
   </g>
  </g>
 </g>
</svg>
