<?xml version="1.0" encoding="UTF-8"?>
<!DOCTYPE svg PUBLIC "-//W3C//DTD SVG 1.1//EN" "http://www.w3.org/Graphics/SVG/1.1/DTD/svg11.dtd">
<!-- Creator: CorelDRAW Home & Student X8 -->
<svg xmlns="http://www.w3.org/2000/svg" xml:space="preserve" width="73.2334mm" height="48.1731mm" version="1.1" style="shape-rendering:geometricPrecision; text-rendering:geometricPrecision; image-rendering:optimizeQuality; fill-rule:evenodd; clip-rule:evenodd"
viewBox="0 0 79280 52151"
 xmlns:xlink="http://www.w3.org/1999/xlink">
 <defs>
  <style type="text/css">
   <![CDATA[
    .str2 {stroke:#2B2A29;stroke-width:757.688}
    .str0 {stroke:#2B2A29;stroke-width:541.283}
    .str1 {stroke:#2B2A29;stroke-width:324.77}
    .str6 {stroke:black;stroke-width:1082.57}
    .str4 {stroke:black;stroke-width:1082.57}
    .str3 {stroke:black;stroke-width:757.796}
    .str5 {stroke:black;stroke-width:541.283}
    .fil0 {fill:none}
    .fil1 {fill:#2B2A29;fill-rule:nonzero}
   ]]>
  </style>
 </defs>
 <g id="Warstwa_x0020_1">
  <metadata id="CorelCorpID_0Corel-Layer"/>
  <g id="_245607424">
   <circle class="fil0 str0" transform="matrix(0 1 -1 0 55373.3 16677.1)" r="5413"/>
   <circle class="fil0 str0" transform="matrix(0 0.80758 -0.80758 0 55373.3 16677.1)" r="5413"/>
   <g>
    <path class="fil1" d="M55211 18298l0 -4596 325 0 0 4596 -325 0zm162 1354l-1155 -2695 73 35 72 33 72 30 72 29 72 26 72 23 73 22 72 19 72 17 72 15 72 12 73 10 72 8 72 6 72 3 72 1 73 -1 72 -3 72 -6 72 -8 72 -10 72 -12 73 -15 72 -17 72 -19 72 -22 72 -23 73 -26 72 -29 72 -30 72 -33 72 -35 0 0 -1155 2695z"/>
   </g>
  </g>
  <polyline class="fil0 str1" points="37278,22090 37278,25803 55586,25803 55586,22089 "/>
  <line class="fil0 str1" x1="55373" y1="11264" x2="55373" y2= "7615" />
  <polyline class="fil0 str1" points="37278,11264 37278,7615 25153,7615 25153,25209 "/>
  <g>
   <path class="fil1" d="M45881 25803l0 6713 -325 0 0 -6713 325 0zm-1298 0l0 0 1 -58 5 -57 7 -57 10 -56 13 -55 15 -54 18 -52 20 -52 23 -50 25 -49 28 -47 29 -47 32 -44 34 -43 35 -41 38 -40 39 -37 42 -36 42 -34 45 -32 46 -29 48 -28 49 -25 50 -23 51 -20 53 -18 54 -15 55 -13 56 -10 57 -7 57 -5 59 -1 0 0 58 1 58 5 57 7 55 10 55 13 54 15 53 18 51 20 51 23 49 25 47 28 46 29 45 32 43 34 41 36 40 37 37 40 36 41 34 43 31 44 30 47 27 47 25 49 23 50 20 52 18 52 16 54 12 55 10 56 7 57 5 57 1 58 0 0 -1 59 -5 57 -7 57 -10 56 -12 55 -16 53 -18 53 -20 52 -23 50 -25 49 -27 47 -30 47 -31 44 -34 43 -36 41 -37 40 -40 37 -41 36 -43 34 -45 32 -46 29 -47 28 -49 25 -51 23 -51 20 -53 18 -54 15 -55 13 -55 10 -57 7 -58 5 -58 1 0 0 -59 -1 -57 -5 -57 -7 -56 -10 -55 -13 -54 -15 -53 -18 -51 -20 -50 -23 -49 -25 -48 -28 -46 -29 -45 -32 -42 -34 -42 -36 -39 -37 -38 -40 -35 -41 -34 -43 -32 -44 -29 -47 -28 -47 -25 -49 -23 -50 -20 -52 -18 -53 -15 -53 -13 -55 -10 -56 -7 -57 -5 -57 -1 -59z"/>
  </g>
  <g>
   <path class="fil1" d="M45445 51935l111 -8595 325 4 -112 8595 -324 -4zm-1472 -19l2 -193 3269 43 -5 385 -3269 -43 3 -192z"/>
  </g>
  <g>
   <path class="fil1" d="M24788 51786l128 -15646 324 3 -128 15646 -324 -3zm-1472 -12l1 -192 3269 26 -3 385 -3269 -26 2 -193z"/>
  </g>
  <g>
   <path class="fil1" d="M8165 51957l0 -20146 325 0 0 20146 -325 0zm-1472 0l0 -193 3269 0 0 385 -3269 0 0 -192z"/>
  </g>
  <g>
   <path class="fil1" d="M8490 7496l0 22150 -325 0 0 -22150 163 -162 162 162zm-325 0l0 -162 163 0 -163 162zm16988 163l-16825 0 0 -325 16825 0 0 325zm0 -1298l0 0 58 1 58 5 56 7 56 10 55 13 54 15 52 18 52 20 50 23 49 25 48 27 46 30 44 32 43 33 42 36 39 38 38 39 36 41 33 43 32 45 30 46 27 47 25 49 23 51 20 51 18 53 16 54 12 55 10 56 8 56 4 58 1 58 0 0 -1 59 -4 57 -8 57 -10 56 -12 55 -16 54 -18 53 -20 51 -23 51 -25 49 -27 47 -30 46 -32 45 -33 43 -36 41 -38 39 -39 38 -42 36 -43 33 -44 32 -46 30 -48 27 -49 25 -50 23 -52 20 -52 18 -54 15 -55 13 -56 10 -56 7 -58 5 -58 1 0 0 -58 -1 -58 -5 -57 -7 -55 -10 -55 -13 -54 -15 -53 -18 -51 -20 -51 -23 -49 -25 -47 -27 -46 -30 -45 -32 -43 -33 -41 -36 -39 -38 -38 -39 -36 -41 -34 -43 -31 -45 -30 -46 -27 -47 -25 -49 -23 -51 -21 -51 -18 -53 -15 -54 -13 -55 -10 -56 -7 -57 -4 -57 -2 -59 0 0 2 -58 4 -58 7 -56 10 -56 13 -55 15 -54 18 -53 21 -51 23 -51 25 -49 27 -47 30 -46 31 -45 34 -43 36 -41 38 -39 39 -38 41 -36 43 -33 45 -32 46 -30 47 -27 49 -25 51 -23 51 -20 53 -18 54 -15 55 -13 55 -10 57 -7 58 -5 58 -1z"/>
  </g>
  <g>
   <path class="fil1" d="M69863 51957l0 -20146 324 0 0 20146 -324 0zm-1473 0l0 -193 3269 0 0 385 -3269 0 0 -192z"/>
  </g>
  <polyline class="fil0 str1" points="70025,29646 70025,7615 55373,7615 "/>
  <g>
   <path class="fil1" d="M55373 7778l-3521 0 0 -325 3521 0 0 325zm0 -1298l0 0 59 1 57 5 57 7 56 10 54 12 54 16 53 18 51 20 51 23 49 25 47 27 46 30 45 31 43 34 41 36 40 37 37 40 36 41 34 43 32 45 29 46 27 47 26 49 22 51 21 51 18 53 15 54 13 55 10 55 7 57 5 58 1 58 0 0 -1 59 -5 57 -7 57 -10 56 -13 55 -15 54 -18 53 -21 51 -22 50 -26 49 -27 48 -29 46 -32 45 -34 42 -36 42 -37 39 -40 38 -41 35 -43 34 -45 32 -46 29 -47 28 -49 25 -51 23 -51 20 -53 18 -54 15 -54 13 -56 10 -57 7 -57 5 -59 1 0 0 -58 -1 -57 -5 -57 -7 -56 -10 -55 -13 -54 -15 -52 -18 -52 -20 -50 -23 -49 -25 -48 -28 -46 -29 -44 -32 -43 -34 -41 -35 -40 -38 -38 -39 -35 -42 -34 -42 -32 -45 -29 -46 -28 -48 -25 -49 -23 -50 -20 -51 -18 -53 -15 -54 -13 -55 -10 -56 -7 -57 -5 -57 -1 -59 0 0 1 -58 5 -58 7 -57 10 -55 13 -55 15 -54 18 -53 20 -51 23 -51 25 -49 28 -47 29 -46 32 -45 34 -43 35 -41 38 -40 40 -37 41 -36 43 -34 44 -31 46 -30 48 -27 49 -25 50 -23 52 -20 52 -18 54 -16 55 -12 56 -10 57 -7 57 -5 58 -1z"/>
  </g>
  <g>
   <path class="fil1" d="M37278 7453l3749 0 0 325 -3749 0 0 -325zm0 1298l0 0 -58 -1 -57 -5 -57 -7 -56 -10 -55 -13 -54 -15 -52 -18 -52 -20 -50 -23 -49 -25 -48 -28 -46 -29 -44 -32 -43 -34 -41 -35 -40 -38 -38 -39 -35 -42 -34 -42 -32 -45 -29 -46 -28 -48 -25 -49 -23 -50 -20 -51 -18 -53 -15 -54 -13 -55 -10 -56 -7 -57 -5 -57 -1 -59 0 0 1 -58 5 -58 7 -57 10 -55 13 -55 15 -54 18 -53 20 -51 23 -51 25 -49 28 -47 29 -46 32 -45 34 -43 35 -41 38 -40 40 -37 41 -36 43 -34 44 -31 46 -30 48 -27 49 -25 50 -23 52 -20 52 -18 54 -16 55 -12 56 -10 57 -7 57 -5 58 -1 0 0 59 1 57 5 57 7 56 10 54 12 54 16 53 18 52 20 50 23 49 25 47 27 46 30 45 31 43 34 41 36 40 37 37 40 36 41 34 43 32 45 29 46 27 47 26 49 22 51 21 51 18 53 15 54 13 55 10 55 7 57 5 58 1 58 0 0 -1 59 -5 57 -7 57 -10 56 -13 55 -15 54 -18 53 -21 51 -22 50 -26 49 -27 48 -29 46 -32 45 -34 42 -36 42 -37 39 -40 38 -41 35 -43 34 -45 32 -46 29 -47 28 -49 25 -50 23 -52 20 -53 18 -54 15 -54 13 -56 10 -57 7 -57 5 -59 1z"/>
  </g>
  <path class="fil1" d="M76883 28994l69 1032 -69 0c-92,-309 -224,-532 -395,-667 -171,-136 -376,-204 -615,-204 -201,0 -382,51 -544,153 -162,103 -290,265 -383,490 -92,224 -139,503 -139,836 0,275 44,513 131,715 88,201 220,355 396,463 177,108 377,161 603,161 196,0 369,-42 519,-126 151,-84 316,-251 495,-502l70 46c-152,270 -330,467 -532,592 -202,125 -443,187 -721,187 -502,0 -891,-186 -1166,-560 -205,-278 -308,-604 -308,-980 0,-303 68,-582 203,-836 135,-254 321,-450 558,-590 238,-140 497,-210 778,-210 218,0 434,54 647,162 62,32 107,49 133,49 40,0 75,-14 105,-43 39,-40 67,-96 83,-168l82 0z"/>
  <path id="1" class="fil1" d="M79280 31512l-212 590 -1791 0 0 -84c527,-481 898,-873 1112,-1177 215,-304 323,-582 323,-834 0,-192 -59,-350 -178,-474 -117,-124 -258,-186 -422,-186 -150,0 -283,43 -402,129 -119,87 -206,214 -263,380l-83 0c38,-274 134,-485 288,-632 154,-147 348,-220 580,-220 246,0 452,79 617,237 165,158 248,345 248,560 0,154 -36,308 -108,461 -110,242 -290,498 -537,768 -372,405 -601,648 -689,728l784 0c160,0 272,-6 337,-18 64,-12 122,-36 174,-73 52,-36 97,-88 135,-155l87 0z"/>
  <path class="fil1" d="M2589 28582l69 1031 -69 0c-92,-308 -223,-531 -395,-666 -171,-136 -375,-204 -615,-204 -200,0 -382,51 -544,153 -162,102 -290,265 -383,490 -92,224 -139,502 -139,835 0,275 44,514 132,715 88,202 220,356 395,464 177,108 378,161 603,161 196,0 370,-42 519,-126 151,-84 316,-251 495,-502l70 46c-152,270 -329,467 -532,592 -202,124 -443,187 -721,187 -502,0 -890,-186 -1165,-560 -206,-278 -309,-605 -309,-980 0,-304 68,-582 203,-836 135,-254 322,-451 559,-591 237,-139 496,-209 777,-209 219,0 434,54 647,161 62,33 107,50 134,50 39,0 75,-15 104,-43 39,-40 67,-96 83,-168l82 0z"/>
  <path id="1" class="fil1" d="M3419 28949l742 -358 74 0 0 2562c0,170 6,277 21,319 15,42 44,75 89,97 45,22 136,35 275,38l0 82 -1146 0 0 -82c143,-3 236,-15 277,-38 42,-21 71,-50 88,-87 16,-36 24,-146 24,-329l0 -1640c0,-221 -7,-363 -22,-426 -10,-48 -30,-83 -57,-105 -28,-22 -61,-34 -100,-34 -56,0 -133,23 -232,70l-33 -69z"/>
  <path class="fil1" d="M47570 2016l67 15 -240 754 -2155 0 0 -75 105 0c117,0 201,-38 252,-115 28,-43 43,-144 43,-301l0 -1803c0,-173 -19,-282 -58,-325 -53,-60 -132,-90 -237,-90l-105 0 0 -76 1261 0 0 76c-148,-2 -252,12 -312,40 -59,28 -100,65 -122,107 -21,44 -33,147 -33,311l0 1756c0,114 12,191 33,234 16,29 42,50 77,65 33,13 140,20 320,20l203 0c215,0 364,-16 450,-47 87,-32 166,-88 237,-167 71,-80 142,-206 214,-379z"/>
  <path class="fil1" d="M52686 39024l-814 0 -1032 -1420c-74,3 -134,4 -181,4 -19,0 -40,-1 -61,-1 -22,-1 -44,-2 -68,-3l0 884c0,191 21,310 63,355 56,66 141,99 254,99l118 0 0 82 -1301 0 0 -82 114 0c128,0 220,-42 275,-125 31,-46 46,-156 46,-329l0 -1966c0,-191 -20,-309 -62,-355 -58,-66 -145,-99 -259,-99l-114 0 0 -82 1106 0c323,0 561,24 713,70 154,48 284,135 390,261 107,126 160,276 160,451 0,187 -61,349 -182,487 -122,137 -310,234 -566,291l628 870c144,200 267,334 370,400 102,66 237,108 403,126l0 82zm-2156 -1562c28,0 53,0 73,0 21,1 38,2 51,2 286,0 502,-63 648,-188 145,-126 218,-286 218,-480 0,-189 -59,-343 -176,-463 -117,-118 -273,-177 -466,-177 -86,0 -202,13 -348,41l0 1265z"/>
  <path id="1" class="fil1" d="M53175 37077l0 -106c155,-91 261,-175 316,-255 39,-56 59,-124 59,-203 0,-47 -8,-81 -25,-103 -18,-22 -37,-34 -58,-34 -17,0 -39,6 -66,16 -39,13 -72,20 -97,20 -60,0 -114,-22 -160,-67 -47,-45 -70,-101 -70,-168 0,-75 22,-133 69,-175 63,-57 138,-85 224,-85 100,0 190,42 269,127 81,84 120,189 120,314 0,176 -66,337 -198,481 -89,96 -216,175 -383,238z"/>
  <path id="2" class="fil1" d="M54807 38025l0 801 447 0c115,0 192,-18 231,-52 52,-46 80,-126 86,-241l55 0 0 705 -55 0c-14,-99 -28,-162 -42,-190 -17,-35 -47,-62 -88,-82 -40,-20 -103,-30 -187,-30l-447 0 0 668c0,89 4,144 12,163 8,20 22,35 42,47 20,11 58,17 113,17l343 0c114,0 197,-8 249,-24 52,-16 101,-47 149,-94 61,-62 125,-155 189,-279l61 0 -174 507 -1561 0 0 -55 72 0c48,0 93,-12 136,-35 32,-16 54,-39 65,-71 12,-33 17,-98 17,-197l0 -1316c0,-129 -12,-208 -38,-237 -37,-40 -96,-60 -180,-60l-72 0 0 -55 1561 0 22 446 -58 0c-21,-107 -44,-181 -70,-221 -25,-40 -63,-71 -112,-92 -40,-15 -110,-23 -211,-23l-555 0z"/>
  <path class="fil1" d="M31713 31790l-813 0 -1032 -1421c-74,3 -135,4 -181,4 -19,0 -40,0 -61,-1 -23,-1 -45,-2 -68,-3l0 884c0,191 20,310 62,356 57,65 141,98 255,98l118 0 0 83 -1302 0 0 -83 114 0c129,0 220,-42 275,-125 31,-46 47,-156 47,-329l0 -1966c0,-191 -21,-309 -63,-355 -58,-65 -144,-98 -259,-98l-114 0 0 -83 1106 0c324,0 561,24 714,70 153,48 283,135 389,261 107,126 161,276 161,451 0,187 -61,349 -183,487 -122,137 -310,234 -566,292l629 870c143,200 266,333 370,399 102,67 236,108 402,126l0 83zm-2155 -1563c28,0 52,0 73,1 20,0 37,1 50,1 287,0 503,-63 648,-188 146,-126 219,-285 219,-479 0,-190 -59,-344 -176,-463 -118,-119 -274,-178 -467,-178 -85,0 -202,13 -347,41l0 1265z"/>
  <path id="1" class="fil1" d="M33081 31671c140,31 245,78 314,144 97,92 145,204 145,336 0,101 -32,198 -95,290 -64,92 -151,159 -262,201 -110,43 -280,64 -507,64l-954 0 0 -55 76 0c84,0 144,-27 180,-80 23,-35 34,-109 34,-222l0 -1311c0,-125 -14,-204 -42,-237 -39,-44 -96,-65 -172,-65l-76 0 0 -55 873 0c163,0 293,11 392,35 149,36 262,99 341,191 78,91 117,195 117,314 0,101 -30,192 -92,272 -62,80 -152,140 -272,178zm-781 -83c36,8 79,13 125,16 48,4 100,5 156,5 145,0 255,-16 328,-46 72,-32 128,-80 167,-144 38,-64 58,-135 58,-211 0,-118 -49,-218 -145,-302 -96,-83 -237,-125 -421,-125 -99,0 -189,11 -268,33l0 774zm0 971c115,27 230,40 342,40 181,0 319,-41 414,-121 95,-81 142,-182 142,-301 0,-78 -22,-154 -66,-226 -44,-73 -114,-130 -211,-172 -96,-42 -216,-63 -358,-63 -61,0 -114,1 -157,3 -44,2 -79,6 -106,10l0 830z"/>
  <path class="fil1" d="M34755 3178l26 -69 908 0c153,0 289,24 408,71 120,48 210,113 269,198 59,84 89,174 89,269 0,145 -56,276 -168,393 -111,118 -292,205 -544,261 166,57 290,133 368,228 79,95 119,199 119,312 0,126 -33,247 -97,361 -65,115 -148,204 -249,267 -101,64 -223,111 -367,140 -102,21 -260,32 -476,32l-926 0 24 -68c96,-3 163,-13 197,-29 50,-21 85,-48 106,-84 30,-47 70,-155 120,-324l441 -1534c38,-129 58,-220 58,-272 0,-47 -17,-83 -52,-110 -34,-27 -99,-40 -194,-40 -21,0 -41,-1 -60,-2zm385 1050c81,3 139,4 174,4 257,0 449,-56 574,-168 126,-112 189,-252 189,-420 0,-128 -39,-227 -116,-298 -77,-71 -201,-107 -370,-107 -45,0 -102,8 -172,22l-279 967zm-360 1250c137,17 243,26 320,26 197,0 372,-59 524,-176 152,-118 228,-277 228,-477 0,-154 -48,-274 -143,-360 -95,-86 -248,-129 -460,-129 -41,0 -91,2 -150,8l-319 1108z"/>
  <path class="fil1" d="M60289 3531l-187 821 -69 0 -8 -205c-6,-75 -20,-142 -43,-200 -22,-59 -56,-110 -101,-152 -45,-43 -103,-77 -171,-101 -69,-25 -145,-37 -229,-37 -224,0 -421,62 -589,184 -214,155 -382,375 -504,658 -100,235 -150,471 -150,712 0,245 72,441 217,587 144,146 332,220 563,220 175,0 330,-39 466,-116 137,-78 263,-197 380,-358l89 0c-137,218 -289,377 -456,480 -167,102 -367,154 -599,154 -207,0 -389,-43 -549,-130 -159,-87 -280,-208 -364,-365 -83,-156 -125,-325 -125,-506 0,-276 74,-544 222,-805 148,-262 351,-468 609,-617 258,-149 518,-224 780,-224 123,0 261,30 414,89 67,25 115,37 145,37 30,0 56,-6 78,-19 22,-12 60,-47 112,-107l69 0z"/>
  <path class="fil1" d="M49399 21892l-285 1001 240 0c169,0 292,-26 368,-77 76,-52 142,-147 197,-286l68 0 -259 913 -77 0c23,-77 34,-143 34,-198 0,-53 -11,-95 -32,-128 -22,-32 -52,-56 -89,-71 -38,-16 -117,-24 -237,-24l-250 0 -252 878c-23,70 -35,123 -35,160 0,28 16,53 47,74 22,15 76,23 163,23l231 0c242,0 436,-43 582,-129 146,-86 276,-235 392,-448l69 0 -241 707 -1948 0 24 -69c98,-3 162,-12 196,-26 50,-23 86,-51 108,-86 34,-51 74,-158 119,-321l440 -1528c35,-124 52,-218 52,-282 0,-48 -16,-85 -49,-112 -33,-26 -97,-40 -193,-40l-39 0 22 -68 1818 0 -156 611 -69 0c9,-58 13,-105 13,-144 0,-66 -16,-121 -49,-166 -42,-57 -104,-100 -185,-130 -60,-22 -197,-34 -413,-34l-325 0z"/>
  <path class="fil1" d="M41882 14977l0 1499c165,-182 297,-298 394,-350 97,-51 194,-77 291,-77 117,0 217,32 301,96 83,65 145,165 185,303 28,96 43,271 43,525l0 726c0,129 11,217 31,265 15,35 40,63 76,84 35,21 101,31 196,31l0 83 -1004 0 0 -83 46 0c96,0 162,-14 199,-43 37,-29 63,-72 78,-128 4,-23 7,-94 7,-209l0 -726c0,-225 -12,-372 -35,-443 -23,-70 -60,-123 -111,-158 -51,-35 -112,-52 -184,-52 -74,0 -149,19 -229,58 -79,39 -174,117 -284,235l0 1086c0,139 7,226 23,260 16,34 45,63 87,86 42,23 116,34 220,34l0 83 -1013 0 0 -83c91,0 162,-13 214,-42 29,-15 53,-43 71,-84 17,-42 26,-126 26,-254l0 -1856c0,-233 -5,-376 -16,-429 -12,-54 -29,-90 -52,-110 -22,-19 -54,-29 -92,-29 -31,0 -82,13 -152,36l-31 -82 611 -252 104 0z"/>
  <path id="1" class="fil1" d="M43780 17251l495 -238 49 0 0 1708c0,114 5,185 15,213 9,27 29,49 59,64 30,15 91,23 183,25l0 55 -764 0 0 -55c96,-2 157,-10 185,-24 28,-15 47,-34 59,-59 10,-24 16,-97 16,-219l0 -1094c0,-147 -5,-242 -15,-283 -7,-32 -20,-56 -38,-71 -19,-14 -41,-22 -67,-22 -37,0 -89,15 -154,46l-23 -46z"/>
  <path id="2" class="fil1" d="M45195 17251l494 -238 49 0 0 1708c0,114 5,185 15,213 9,27 29,49 59,64 30,15 91,23 183,25l0 55 -764 0 0 -55c96,-2 158,-10 185,-24 28,-15 47,-34 59,-59 10,-24 16,-97 16,-219l0 -1094c0,-147 -5,-242 -15,-283 -7,-32 -20,-56 -38,-71 -19,-14 -41,-22 -67,-22 -37,0 -88,15 -154,46l-22 -46z"/>
  <g>
   <path class="fil1" d="M39949 25966l-443 0 0 -325 443 0 0 325zm1355 -163l-2695 1155 35 -72 32 -72 31 -72 28 -72 26 -73 24 -72 21 -72 19 -72 17 -72 15 -72 12 -73 10 -72 8 -72 6 -72 3 -72 2 -73 -2 -72 -3 -72 -6 -72 -8 -72 -10 -72 -12 -73 -15 -72 -17 -72 -19 -72 -21 -72 -24 -72 -26 -73 -28 -72 -31 -72 -32 -72 -35 -72 0 0 2695 1154z"/>
  </g>
  <path class="fil1" d="M38626 26780c52,0 96,18 133,54 36,37 54,81 54,133 0,51 -19,95 -56,132 -37,37 -81,55 -131,55 -51,0 -95,-18 -132,-55 -37,-37 -56,-81 -56,-132 0,-52 18,-96 55,-133 36,-36 80,-54 133,-54zm81 741l-392 1323c-26,89 -39,142 -39,160 0,19 5,35 15,47 11,11 24,17 39,17 16,0 37,-9 60,-28 64,-55 128,-135 193,-238l66 44c-81,128 -176,234 -285,319 -80,63 -157,94 -231,94 -48,0 -89,-16 -119,-45 -31,-30 -46,-68 -46,-113 0,-47 17,-124 50,-232l259 -844c41,-136 60,-221 60,-256 0,-27 -9,-49 -28,-66 -20,-18 -46,-27 -80,-27 -27,0 -83,7 -169,21l0 -73 647 -103z"/>
  <path id="1" class="fil1" d="M39633 28161l-260 902c80,-87 151,-146 210,-178 60,-32 123,-48 188,-48 92,0 167,32 226,95 59,64 88,150 88,258 0,140 -39,279 -117,418 -78,139 -175,247 -293,324 -118,77 -233,116 -347,116 -128,0 -259,-49 -394,-147l396 -1371c30,-105 45,-166 45,-184 0,-23 -7,-40 -21,-51 -19,-15 -49,-23 -88,-23 -18,0 -46,3 -83,9l0 -48 450 -72zm-506 1754c84,48 157,72 221,72 74,0 150,-29 230,-85 79,-56 147,-150 206,-283 58,-133 87,-268 87,-403 0,-80 -19,-143 -57,-188 -37,-45 -82,-68 -133,-68 -77,0 -153,34 -226,102 -74,68 -128,160 -161,275l-167 578z"/>
  <path class="fil1" d="M57463 22768l0 1499c166,-182 297,-299 394,-350 97,-51 195,-77 292,-77 116,0 216,32 300,96 84,64 145,165 186,303 28,96 43,271 43,524l0 727c0,129 10,217 31,265 15,35 40,63 76,84 35,20 101,31 195,31l0 83 -1003 0 0 -83 46 0c96,0 161,-14 199,-43 37,-29 63,-72 78,-128 4,-24 7,-94 7,-209l0 -727c0,-224 -12,-371 -36,-442 -23,-70 -59,-123 -110,-158 -51,-35 -113,-53 -184,-53 -74,0 -149,20 -229,58 -79,39 -174,118 -285,236l0 1086c0,139 8,226 24,260 15,34 44,63 87,86 42,23 115,34 219,34l0 83 -1013 0 0 -83c91,0 162,-14 214,-42 30,-15 54,-43 71,-85 18,-41 27,-126 27,-253l0 -1856c0,-233 -5,-376 -17,-430 -11,-53 -28,-90 -51,-109 -23,-19 -54,-29 -92,-29 -32,0 -83,12 -152,36l-32 -82 612 -252 103 0z"/>
  <path id="1" class="fil1" d="M60407 26476l-142 393 -1193 0 0 -56c351,-320 598,-581 741,-784 143,-203 215,-388 215,-556 0,-128 -39,-234 -118,-316 -78,-83 -172,-124 -282,-124 -99,0 -188,29 -267,86 -80,58 -138,142 -176,253l-55 0c25,-183 89,-323 192,-421 103,-98 232,-147 386,-147 164,0 302,53 412,158 110,106 165,230 165,374 0,102 -24,205 -72,307 -73,161 -193,332 -358,512 -248,270 -401,432 -459,485l523 0c106,0 181,-4 224,-12 43,-8 81,-24 116,-48 34,-24 64,-59 90,-104l58 0z"/>
  <path id="2" class="fil1" d="M60890 25042l494 -238 50 0 0 1708c0,113 4,185 14,213 9,27 29,49 59,64 30,15 91,23 183,25l0 55 -764 0 0 -55c96,-2 158,-10 185,-25 28,-14 48,-33 59,-58 11,-24 16,-98 16,-219l0 -1094c0,-147 -5,-242 -15,-284 -7,-32 -20,-55 -38,-70 -19,-15 -41,-22 -67,-22 -37,0 -88,15 -154,46l-22 -46z"/>
  <path id="3" class="fil1" d="M62918 23516c53,0 97,18 133,54 37,37 55,81 55,133 0,51 -19,95 -56,132 -37,37 -81,55 -132,55 -50,0 -94,-18 -131,-55 -37,-37 -56,-81 -56,-132 0,-52 18,-96 54,-133 37,-36 81,-54 133,-54zm82 741l-392 1323c-26,89 -40,142 -40,160 0,19 6,34 16,46 11,12 24,18 38,18 17,0 37,-9 61,-28 64,-55 128,-135 193,-238l65 44c-81,128 -175,234 -284,318 -80,63 -157,95 -231,95 -49,0 -89,-16 -119,-45 -31,-30 -47,-68 -47,-113 0,-47 17,-124 51,-232l259 -844c40,-136 60,-221 60,-256 0,-27 -10,-49 -29,-67 -19,-17 -45,-26 -79,-26 -28,0 -84,7 -169,21l0 -73 647 -103z"/>
  <path id="4" class="fil1" d="M63926 24897l-260 902c80,-87 150,-146 210,-178 60,-32 123,-48 188,-48 92,0 167,32 226,95 58,64 88,150 88,258 0,140 -39,279 -117,418 -78,139 -175,247 -293,324 -118,77 -234,116 -348,116 -128,0 -259,-49 -393,-147l395 -1371c31,-105 46,-166 46,-184 0,-23 -7,-40 -21,-51 -20,-15 -49,-23 -88,-23 -18,0 -46,3 -84,9l0 -48 451 -72zm-506 1754c84,48 157,72 221,72 74,0 150,-29 229,-85 80,-56 148,-150 207,-283 58,-133 87,-268 87,-403 0,-80 -19,-143 -57,-188 -38,-45 -82,-68 -133,-68 -77,0 -153,34 -227,102 -74,68 -127,160 -161,275l-166 578z"/>
  <polyline class="fil0 str2" points="25043,36142 23020,35465 27136,34112 23020,32759 27136,31406 23020,30052 27136,28699 23020,27346 27136,25993 25043,25316 "/>
  <polyline class="fil0 str2" points="45684,43342 43661,42665 47776,41312 43661,39959 47776,38606 43661,37253 47776,35900 43661,34546 47776,33193 45684,32516 "/>
  <polygon class="fil0 str3" points="34572,11264 34572,22090 39985,22090 39985,11264 "/>
  <path class="fil0 str4" d="M11250 29646l-5845 0m5845 2165l-5845 0"/>
  <path class="fil0 str5" d="M41027 7668c0,-1494 606,-2707 1353,-2707 747,0 1353,1213 1353,2707m0 0c0,-1494 607,-2707 1353,-2707 747,0 1354,1213 1354,2707m0 0c0,-1494 606,-2707 1353,-2707 747,0 1353,1213 1353,2707m0 0c0,-1494 606,-2707 1353,-2707 747,0 1353,1213 1353,2707"/>
  <path class="fil0 str6" d="M72948 29646l-5846 0m5846 2165l-5846 0"/>
 </g>
</svg>
