<?xml version="1.0" encoding="UTF-8"?>
<!DOCTYPE svg PUBLIC "-//W3C//DTD SVG 1.1//EN" "http://www.w3.org/Graphics/SVG/1.1/DTD/svg11.dtd">
<!-- Creator: CorelDRAW Home & Student X8 -->
<svg xmlns="http://www.w3.org/2000/svg" xml:space="preserve" width="88.9795mm" height="51.0159mm" version="1.1" style="shape-rendering:geometricPrecision; text-rendering:geometricPrecision; image-rendering:optimizeQuality; fill-rule:evenodd; clip-rule:evenodd"
viewBox="0 0 106957 61323"
 xmlns:xlink="http://www.w3.org/1999/xlink">
 <defs>
  <style type="text/css">
   <![CDATA[
    .str2 {stroke:#2B2A29;stroke-width:841.305}
    .str0 {stroke:#2B2A29;stroke-width:601.018}
    .str1 {stroke:#2B2A29;stroke-width:360.611}
    .str6 {stroke:black;stroke-width:1202.04}
    .str3 {stroke:black;stroke-width:841.425}
    .str4 {stroke:black;stroke-width:601.018}
    .str5 {stroke:black;stroke-width:601.018}
    .fil0 {fill:none}
    .fil1 {fill:#2B2A29;fill-rule:nonzero}
   ]]>
  </style>
 </defs>
 <g id="Warstwa_x0020_1">
  <metadata id="CorelCorpID_0Corel-Layer"/>
  <g id="_444493664">
   <g>
    <circle class="fil0 str0" transform="matrix(0 1 -1 0 61867.5 17298.6)" r="6010"/>
    <circle class="fil0 str0" transform="matrix(0 0.80758 -0.80758 0 61867.5 17298.6)" r="6010"/>
    <g>
     <path class="fil1" d="M61687 19098l0 -5103 361 0 0 5103 -361 0zm180 1504l-1282 -2992 80 39 80 36 81 34 80 31 80 29 80 26 80 24 80 21 80 19 81 16 80 14 80 11 80 9 80 6 80 4 80 1 81 -1 80 -4 80 -6 80 -9 80 -11 80 -14 80 -16 81 -19 80 -21 80 -24 80 -26 80 -29 80 -31 80 -34 81 -36 80 -39 0 0 -1283 2992z"/>
    </g>
   </g>
   <polyline class="fil0 str1" points="41776,23309 41776,27432 62103,27432 62103,23307 "/>
   <line class="fil0 str1" x1="61867" y1="11289" x2="61867" y2= "7237" />
   <polyline class="fil0 str1" points="41776,11288 41776,7237 28312,7237 28312,26772 "/>
   <g>
    <path class="fil1" d="M51328 27432l0 7454 -361 0 0 -7454 361 0zm-1442 0l0 0 2 -65 5 -63 8 -63 11 -62 14 -61 17 -60 20 -58 23 -58 25 -56 28 -54 30 -53 33 -51 35 -49 38 -48 39 -46 42 -44 44 -42 45 -39 48 -38 50 -35 51 -33 53 -30 54 -28 56 -25 57 -23 59 -20 59 -17 61 -14 62 -11 63 -8 65 -5 64 -2 0 0 65 2 64 5 63 8 62 11 61 14 60 17 59 20 57 23 56 25 54 28 53 30 51 33 50 35 47 38 46 39 44 42 42 44 39 46 38 48 35 49 33 51 30 53 28 54 25 56 23 58 20 58 17 60 14 61 11 62 8 63 5 63 1 65 0 0 -1 65 -5 64 -8 63 -11 62 -14 60 -17 60 -20 59 -23 57 -25 56 -28 54 -30 53 -33 51 -35 50 -38 47 -39 46 -42 44 -44 42 -46 39 -47 38 -50 35 -51 33 -53 30 -54 28 -56 26 -57 22 -59 20 -60 17 -61 14 -62 12 -63 8 -64 5 -65 1 0 0 -64 -1 -65 -5 -63 -8 -62 -12 -61 -14 -59 -17 -59 -20 -57 -22 -56 -26 -54 -28 -53 -30 -51 -33 -50 -35 -48 -38 -45 -39 -44 -42 -42 -44 -39 -46 -38 -47 -35 -50 -33 -51 -30 -53 -28 -54 -25 -56 -23 -57 -20 -59 -17 -60 -14 -60 -11 -62 -8 -63 -5 -64 -2 -65z"/>
   </g>
   <g>
    <path class="fil1" d="M50843 56447l124 -9543 361 4 -124 9544 -361 -5zm-1634 -21l2 -214 3630 47 -6 428 -3629 -47 3 -214z"/>
   </g>
   <g>
    <path class="fil1" d="M27906 56282l143 -17372 360 2 -142 17373 -361 -3zm-1634 -13l2 -214 3629 30 -3 427 -3630 -30 2 -213z"/>
   </g>
   <g>
    <path class="fil1" d="M9449 56471l0 -17566 361 0 0 17566 -361 0zm-1634 0l0 -213 3630 0 0 427 -3630 0 0 -214z"/>
   </g>
   <g>
    <path class="fil1" d="M9810 7105l0 20027 -361 0 0 -20027 181 -181 180 181zm-361 0l0 -181 181 0 -181 181zm18863 180l-18682 0 0 -361 18682 0 0 361zm0 -1441l0 0 65 1 63 5 63 8 62 11 61 14 60 18 59 19 57 23 56 25 54 28 53 31 51 32 49 35 48 38 46 39 44 42 42 44 39 46 38 47 35 50 33 51 30 53 28 54 25 56 23 57 20 59 17 60 14 61 11 62 8 63 5 64 2 65 0 0 -2 65 -5 64 -8 63 -11 62 -14 61 -17 60 -20 58 -23 57 -25 56 -28 55 -30 52 -33 52 -35 49 -38 48 -39 45 -42 44 -44 42 -46 40 -48 37 -49 35 -51 33 -53 30 -54 28 -56 26 -57 22 -59 20 -60 17 -61 14 -62 11 -63 8 -63 5 -65 2 0 0 -65 -2 -64 -5 -63 -8 -62 -11 -60 -14 -60 -17 -59 -20 -57 -22 -56 -26 -54 -28 -53 -30 -51 -33 -50 -35 -47 -37 -46 -40 -44 -42 -42 -44 -39 -45 -38 -48 -35 -49 -33 -52 -30 -52 -28 -55 -26 -56 -22 -57 -20 -58 -17 -60 -14 -61 -11 -62 -9 -63 -4 -64 -2 -65 0 0 2 -65 4 -64 9 -63 11 -62 14 -61 17 -60 20 -59 22 -57 26 -56 28 -54 30 -53 33 -51 35 -50 38 -47 39 -46 42 -44 44 -42 46 -39 47 -38 50 -35 51 -32 53 -31 54 -28 56 -25 57 -23 59 -19 60 -18 60 -14 62 -11 63 -8 64 -5 65 -1z"/>
   </g>
   <g>
    <path class="fil1" d="M96759 61109l0 -22368 361 0 0 22368 -361 0zm-1635 0l0 -214 3630 0 0 428 -3630 0 0 -214z"/>
   </g>
   <polyline class="fil0 str1" points="96959,26891 96959,7237 61867,7413 "/>
   <path class="fil1" d="M58883 42112l-903 0 -1146 -1577c-82,3 -149,5 -201,5 -21,0 -44,-1 -68,-2 -24,-1 -49,-2 -75,-3l0 982c0,212 23,343 69,394 63,73 157,109 283,109l131 0 0 92 -1445 0 0 -92 126 0c143,0 245,-46 306,-139 34,-51 51,-173 51,-364l0 -2183c0,-212 -22,-344 -69,-395 -65,-73 -160,-109 -288,-109l-126 0 0 -92 1228 0c359,0 623,27 792,78 171,53 315,150 433,289 118,140 178,307 178,502 0,208 -68,387 -203,540 -136,153 -344,260 -628,324l698 966c159,222 296,371 410,443 114,74 263,120 447,140l0 92zm-2393 -1735c31,0 58,0 81,1 23,1 42,1 56,1 318,0 558,-69 719,-208 162,-140 243,-318 243,-533 0,-210 -65,-382 -195,-514 -131,-131 -304,-197 -518,-197 -95,0 -224,15 -386,45l0 1405z"/>
   <path id="1" class="fil1" d="M59427 39949l0 -117c172,-101 289,-195 351,-283 43,-63 65,-138 65,-225 0,-52 -9,-90 -28,-115 -19,-25 -41,-37 -64,-37 -19,0 -44,6 -73,17 -44,15 -80,22 -108,22 -67,0 -126,-24 -178,-74 -52,-50 -78,-112 -78,-187 0,-83 25,-147 77,-194 70,-63 153,-94 249,-94 111,0 211,47 299,141 89,93 133,209 133,348 0,196 -74,374 -220,535 -99,106 -240,194 -425,263z"/>
   <path id="2" class="fil1" d="M61239 41003l0 889 495 0c129,0 214,-20 257,-58 58,-51 89,-140 96,-268l61 0 0 784 -61 0c-15,-110 -31,-181 -46,-212 -20,-38 -53,-69 -98,-91 -45,-22 -115,-33 -209,-33l-495 0 0 741c0,100 5,160 13,182 9,21 24,39 46,51 23,13 65,20 127,20l380 0c127,0 219,-9 277,-27 57,-17 112,-53 165,-105 68,-68 138,-171 210,-309l68 0 -194 563 -1733 0 0 -61 80 0c53,0 103,-13 151,-39 35,-17 60,-44 72,-79 13,-36 19,-108 19,-218l0 -1462c0,-143 -14,-230 -43,-263 -40,-44 -106,-66 -199,-66l-80 0 0 -61 1733 0 24 495 -64 0c-24,-119 -49,-201 -77,-246 -28,-45 -70,-79 -125,-102 -44,-17 -122,-25 -234,-25l-616 0z"/>
   <path class="fil1" d="M35596 34079l-903 0 -1146 -1578c-82,4 -149,5 -201,5 -21,0 -44,0 -68,-1 -24,-1 -49,-2 -75,-4l0 982c0,212 23,344 69,395 63,73 157,109 283,109l131 0 0 92 -1445 0 0 -92 126 0c143,0 245,-46 306,-139 34,-51 51,-173 51,-365l0 -2183c0,-212 -22,-343 -69,-394 -65,-73 -160,-109 -288,-109l-126 0 0 -92 1228 0c359,0 623,26 792,78 171,53 315,149 433,289 118,140 178,307 178,502 0,207 -68,387 -203,540 -136,152 -344,260 -628,324l698 966c159,222 296,370 410,443 114,74 263,120 447,140l0 92zm-2393 -1735c31,0 58,0 81,1 23,0 42,1 56,1 318,0 558,-69 719,-208 162,-140 243,-318 243,-533 0,-210 -65,-382 -195,-514 -131,-131 -304,-198 -518,-198 -95,0 -224,16 -386,46l0 1405z"/>
   <path id="1" class="fil1" d="M37115 33948c155,33 272,86 349,159 107,102 161,226 161,373 0,112 -35,220 -106,322 -71,102 -167,177 -291,224 -122,47 -310,71 -563,71l-1059 0 0 -62 84 0c93,0 160,-29 201,-89 25,-38 37,-121 37,-246l0 -1456c0,-139 -15,-226 -47,-263 -43,-48 -106,-73 -191,-73l-84 0 0 -61 969 0c181,0 326,13 435,40 166,40 292,110 379,211 87,102 131,218 131,349 0,113 -34,213 -103,303 -68,89 -169,155 -302,198zm-868 -93c41,8 88,14 140,18 53,4 110,6 173,6 161,0 283,-18 364,-52 80,-35 143,-88 186,-160 42,-71 63,-149 63,-234 0,-131 -53,-242 -160,-335 -107,-92 -263,-139 -468,-139 -110,0 -209,12 -298,37l0 859zm0 1078c129,30 256,45 381,45 201,0 354,-45 459,-135 105,-90 158,-202 158,-334 0,-87 -25,-171 -74,-251 -48,-81 -126,-145 -233,-191 -107,-46 -240,-70 -398,-70 -68,0 -126,2 -175,4 -49,2 -88,6 -118,11l0 921z"/>
   <path class="fil1" d="M38973 2310l29 -77 1009 0c170,0 321,27 453,79 133,53 233,126 298,220 66,94 99,193 99,298 0,161 -62,307 -186,437 -123,131 -325,227 -605,289 186,64 323,148 410,253 87,106 131,222 131,347 0,140 -36,274 -107,401 -72,127 -164,226 -277,297 -112,71 -248,122 -407,155 -113,24 -289,36 -529,36l-1028 0 26 -77c108,-2 181,-13 220,-31 55,-23 94,-54 117,-93 34,-52 78,-172 133,-360l490 -1704c43,-143 64,-244 64,-302 0,-52 -19,-92 -57,-122 -38,-29 -110,-44 -216,-44 -23,0 -45,-1 -67,-2zm428 1166c90,3 154,4 194,4 285,0 498,-62 637,-186 139,-125 209,-280 209,-467 0,-142 -43,-252 -128,-331 -86,-79 -223,-118 -411,-118 -50,0 -114,8 -191,24l-310 1074zm-399 1387c151,19 270,29 355,29 219,0 412,-65 581,-195 169,-131 253,-307 253,-530 0,-171 -53,-304 -158,-399 -105,-96 -276,-144 -511,-144 -45,0 -101,3 -166,9l-354 1230z"/>
   <path class="fil1" d="M67326 2702l-208 912 -77 0 -8 -228c-7,-83 -23,-157 -48,-222 -25,-65 -62,-122 -113,-169 -50,-48 -113,-86 -190,-113 -76,-27 -161,-40 -254,-40 -249,0 -467,68 -653,204 -238,172 -425,416 -560,731 -111,260 -167,523 -167,790 0,272 80,490 241,652 160,162 369,244 626,244 193,0 366,-44 517,-129 151,-86 292,-218 422,-397l98 0c-152,241 -321,419 -506,533 -185,113 -407,171 -665,171 -229,0 -432,-48 -610,-144 -176,-97 -311,-232 -403,-405 -93,-174 -139,-362 -139,-562 0,-307 82,-605 246,-895 164,-290 390,-519 676,-684 286,-166 575,-249 866,-249 137,0 290,33 460,98 74,28 128,42 161,42 33,0 62,-7 87,-21 25,-14 66,-53 124,-119l77 0z"/>
   <path class="fil1" d="M55234 23089l-317 1111 266 0c189,0 325,-28 409,-85 85,-58 158,-164 219,-318l76 0 -288 1014 -85 0c25,-86 37,-159 37,-219 0,-59 -12,-106 -36,-142 -24,-36 -57,-63 -99,-80 -41,-17 -129,-26 -262,-26l-278 0 -279 975c-26,78 -40,136 -40,177 0,31 18,59 52,82 25,17 85,26 182,26l257 0c268,0 484,-48 646,-143 161,-96 306,-262 435,-498l76 0 -267 785 -2163 0 27 -76c108,-3 180,-13 217,-29 55,-25 96,-57 120,-96 38,-56 82,-175 133,-356l488 -1697c39,-137 58,-242 58,-313 0,-53 -19,-94 -55,-124 -36,-29 -108,-44 -214,-44l-44 0 25 -77 2019 0 -174 679 -76 0c9,-64 14,-117 14,-160 0,-73 -18,-134 -54,-184 -47,-63 -115,-111 -206,-144 -66,-25 -219,-38 -458,-38l-361 0z"/>
   <path class="fil1" d="M46887 15411l0 1665c184,-202 330,-332 437,-389 108,-57 217,-86 324,-86 129,0 240,36 334,107 92,71 161,183 206,336 31,107 47,301 47,583l0 806c0,144 12,241 35,295 16,39 44,70 84,93 39,23 112,35 217,35l0 91 -1114 0 0 -91 51 0c106,0 179,-16 221,-49 41,-32 70,-79 86,-141 5,-27 8,-105 8,-233l0 -806c0,-250 -13,-413 -39,-491 -25,-78 -66,-137 -123,-176 -56,-39 -125,-58 -204,-58 -82,0 -166,21 -254,64 -88,43 -193,131 -316,261l0 1206c0,155 8,251 26,289 17,38 49,70 97,96 46,25 128,38 243,38l0 91 -1124 0 0 -91c100,0 179,-16 237,-47 33,-17 59,-48 79,-94 19,-46 30,-140 30,-282l0 -2061c0,-258 -6,-417 -19,-476 -13,-60 -31,-100 -57,-122 -25,-21 -60,-32 -102,-32 -35,0 -92,14 -169,40l-35 -91 679 -280 115 0z"/>
   <path id="1" class="fil1" d="M49096 17607c46,0 86,17 119,49 32,33 48,72 48,118 0,46 -16,87 -48,119 -33,34 -73,50 -119,50 -46,0 -86,-16 -119,-50 -33,-32 -50,-73 -50,-119 0,-46 17,-85 49,-118 33,-32 73,-49 120,-49zm137 794l0 1221c0,95 6,157 21,189 13,31 34,54 61,70 27,15 77,23 148,23l0 61 -736 0 0 -61c74,0 123,-7 148,-22 26,-14 46,-37 61,-70 15,-33 22,-96 22,-190l0 -587c0,-163 -5,-269 -15,-317 -8,-35 -20,-60 -37,-73 -16,-14 -39,-21 -67,-21 -31,0 -68,8 -112,25l-24 -61 457 -187 73 0z"/>
   <path id="2" class="fil1" d="M49588 18445l709 0 0 61c-45,0 -77,8 -95,24 -18,16 -27,36 -27,62 0,27 20,69 60,125 13,17 31,45 56,82l109 174 125 -174c80,-108 121,-177 122,-207 0,-24 -10,-44 -29,-61 -18,-16 -49,-25 -91,-25l0 -61 510 0 0 61c-55,4 -102,18 -142,45 -55,37 -128,119 -222,244l-207 276 377 549c93,134 159,214 200,241 39,28 91,43 153,46l0 58 -717 0 0 -58c50,0 89,-11 116,-33 21,-16 31,-36 31,-62 0,-26 -35,-90 -106,-194l-223 -324 -243 324c-73,101 -110,161 -110,181 0,26 13,51 38,72 25,22 62,34 112,36l0 58 -495 0 0 -58c39,-5 74,-19 103,-42 42,-31 113,-113 212,-245l316 -425 -286 -418c-81,-119 -144,-194 -188,-225 -45,-30 -100,-46 -168,-46l0 -61z"/>
   <g>
    <path class="fil1" d="M44741 27612l-492 0 0 -360 492 0 0 360zm1504 -180l-2992 1282 39 -80 36 -80 34 -80 31 -80 29 -80 26 -80 24 -81 21 -80 19 -80 16 -80 14 -80 11 -80 9 -80 6 -81 4 -80 1 -80 -1 -80 -4 -80 -6 -80 -9 -80 -11 -81 -14 -80 -16 -80 -19 -80 -21 -80 -24 -80 -26 -80 -29 -81 -31 -80 -34 -80 -36 -80 -39 -80 0 0 2992 1282z"/>
   </g>
   <path class="fil1" d="M43271 28517c58,0 108,19 148,60 40,40 60,90 60,147 0,57 -20,106 -61,147 -41,41 -90,61 -147,61 -56,0 -105,-20 -146,-61 -41,-41 -61,-90 -61,-147 0,-57 19,-107 60,-147 40,-41 90,-60 147,-60zm91 822l-435 1469c-29,99 -44,158 -44,178 0,21 6,38 17,52 12,12 27,19 43,19 18,0 41,-10 67,-31 71,-61 142,-150 214,-264l73 48c-90,142 -195,260 -316,354 -89,70 -175,105 -257,105 -53,0 -98,-17 -132,-50 -34,-34 -51,-75 -51,-126 0,-51 19,-137 56,-257l288 -937c44,-151 66,-246 66,-284 0,-30 -10,-55 -31,-74 -22,-20 -51,-29 -89,-29 -30,0 -92,7 -188,22l0 -80 719 -115z"/>
   <path id="1" class="fil1" d="M44390 30050l-289 1001c89,-96 168,-162 234,-197 66,-36 136,-54 208,-54 103,0 186,36 251,106 65,71 98,166 98,287 0,155 -43,309 -130,464 -86,154 -195,273 -325,360 -131,85 -260,128 -386,128 -142,0 -288,-54 -437,-163l439 -1523c34,-116 51,-184 51,-204 0,-25 -8,-44 -23,-56 -22,-17 -55,-26 -98,-26 -21,0 -51,3 -93,10l0 -53 500 -80zm-562 1948c93,53 175,79 246,79 82,0 166,-31 254,-94 88,-62 165,-167 229,-315 65,-147 97,-297 97,-447 0,-89 -20,-158 -62,-209 -43,-50 -92,-75 -149,-75 -85,0 -169,38 -251,113 -82,76 -142,177 -179,306l-185 642z"/>
   <path class="fil1" d="M60073 29981l0 1665c184,-202 330,-332 438,-389 108,-56 216,-85 324,-85 129,0 240,35 333,107 93,71 161,183 206,336 32,106 48,301 48,582l0 807c0,143 12,241 35,294 16,39 44,70 84,93 39,23 112,35 217,35l0 92 -1115 0 0 -92 52 0c106,0 179,-16 221,-48 41,-32 70,-80 86,-142 5,-26 8,-104 8,-232l0 -807c0,-249 -13,-413 -39,-491 -26,-78 -66,-136 -123,-175 -56,-39 -125,-59 -205,-59 -81,0 -165,21 -253,64 -88,44 -194,131 -317,262l0 1206c0,154 9,251 27,289 17,37 49,70 96,95 47,25 129,38 244,38l0 92 -1125 0 0 -92c101,0 180,-15 238,-47 33,-16 59,-48 79,-94 19,-45 29,-140 29,-281l0 -2061c0,-259 -6,-417 -18,-477 -13,-59 -32,-100 -57,-121 -26,-21 -60,-32 -103,-32 -35,0 -91,13 -169,40l-34 -92 679 -280 114 0z"/>
   <path id="1" class="fil1" d="M62487 33134l0 1001c0,141 15,230 47,267 41,48 96,72 165,72l138 0 0 61 -910 0 0 -61 68 0c44,0 85,-10 121,-32 37,-22 62,-52 76,-90 14,-37 20,-109 20,-217l0 -1001 -295 0 0 -118 295 0 0 -99c0,-151 25,-278 73,-383 49,-104 124,-189 224,-253 100,-64 213,-96 338,-96 116,0 223,37 321,111 64,50 96,105 96,166 0,33 -14,64 -43,93 -29,29 -60,43 -93,43 -26,0 -52,-9 -80,-27 -29,-18 -63,-56 -104,-116 -41,-60 -79,-100 -113,-121 -34,-21 -72,-31 -115,-31 -51,0 -94,14 -129,40 -35,28 -61,69 -77,126 -15,56 -23,202 -23,438l0 109 390 0 0 118 -390 0z"/>
   <path id="2" class="fil1" d="M63278 33589c-2,224 53,400 164,528 110,127 240,191 389,191 99,0 186,-27 259,-81 74,-54 135,-148 185,-282l51 34c-23,152 -91,291 -202,414 -111,124 -251,187 -418,187 -182,0 -339,-71 -468,-213 -129,-142 -194,-332 -194,-572 0,-259 66,-461 199,-606 133,-145 300,-217 500,-217 170,0 310,55 419,168 109,111 164,261 164,449l-1048 0zm0 -95l702 0c-6,-97 -17,-166 -35,-205 -27,-62 -69,-111 -124,-146 -54,-35 -111,-53 -171,-53 -91,0 -173,36 -246,107 -72,71 -114,170 -126,297z"/>
   <path id="3" class="fil1" d="M65374 30812c57,0 107,20 147,60 41,41 60,90 60,148 0,57 -20,105 -61,146 -41,41 -90,62 -146,62 -57,0 -106,-21 -147,-62 -41,-41 -61,-89 -61,-146 0,-58 20,-107 60,-148 40,-40 90,-60 148,-60zm90 823l-435 1469c-29,99 -44,158 -44,178 0,21 6,38 17,51 13,13 27,20 43,20 18,0 41,-11 67,-32 71,-61 142,-149 214,-263l73 48c-90,142 -195,260 -316,354 -89,70 -175,104 -256,104 -54,0 -99,-17 -133,-50 -33,-33 -51,-75 -51,-125 0,-51 19,-137 56,-257l288 -937c44,-152 66,-246 66,-284 0,-31 -10,-56 -31,-75 -22,-19 -51,-29 -89,-29 -30,0 -92,8 -188,23l0 -81 719 -114z"/>
   <path id="4" class="fil1" d="M66492 32345l-289 1002c89,-97 168,-162 234,-197 66,-36 136,-54 208,-54 103,0 186,35 252,106 64,70 97,166 97,286 0,156 -43,310 -130,464 -86,154 -195,274 -325,360 -131,86 -259,129 -386,129 -142,0 -287,-55 -437,-164l439 -1522c34,-116 51,-184 51,-204 0,-25 -8,-44 -23,-56 -22,-18 -55,-27 -98,-27 -21,0 -51,4 -93,11l0 -54 500 -80zm-562 1948c93,53 175,80 246,80 82,0 166,-32 255,-94 87,-62 164,-167 228,-315 65,-147 98,-297 98,-447 0,-89 -21,-159 -63,-209 -42,-50 -92,-75 -149,-75 -85,0 -169,37 -251,113 -82,75 -142,177 -179,305l-185 642z"/>
   <polyline class="fil0 str2" points="28190,38911 25944,38160 30514,36658 25944,35155 30514,33652 25944,32150 30514,30647 25944,29145 30514,27642 28190,26891 "/>
   <polyline class="fil0 str2" points="51109,46906 48863,46155 53432,44653 48863,43150 53432,41647 48863,40145 53432,38642 48863,37140 53432,35637 51109,34886 "/>
   <polygon class="fil0 str3" points="38770,11288 38770,23309 44781,23309 44781,11288 "/>
   <polygon class="fil0 str3" points="74657,11288 74657,23309 80667,23309 80667,11288 "/>
   <path class="fil1" d="M82876 15411l0 1665c184,-202 330,-332 438,-389 107,-57 216,-86 324,-86 129,0 240,36 333,107 92,71 161,183 206,336 31,107 48,301 48,583l0 806c0,144 11,241 34,295 16,39 44,70 84,93 39,23 112,35 217,35l0 91 -1114 0 0 -91 52 0c106,0 179,-16 220,-49 42,-32 71,-79 87,-141 5,-27 7,-105 7,-233l0 -806c0,-250 -12,-413 -39,-491 -25,-78 -66,-137 -123,-176 -56,-39 -124,-58 -204,-58 -81,0 -165,21 -254,64 -88,43 -193,131 -316,261l0 1206c0,155 9,251 26,289 17,38 50,70 97,96 47,25 128,38 243,38l0 91 -1124 0 0 -91c101,0 180,-16 237,-47 33,-17 60,-48 79,-94 20,-46 30,-140 30,-282l0 -2061c0,-258 -6,-417 -19,-476 -13,-60 -31,-100 -57,-122 -25,-21 -60,-32 -102,-32 -35,0 -92,14 -169,40l-35 -91 680 -280 114 0z"/>
   <path id="1" class="fil1" d="M85444 18401c230,0 415,87 554,262 118,149 177,320 177,513 0,136 -33,273 -98,412 -65,139 -155,245 -269,315 -115,71 -242,106 -382,106 -229,0 -411,-91 -546,-273 -113,-154 -170,-326 -170,-517 0,-139 34,-277 103,-415 69,-137 160,-239 273,-305 113,-65 232,-98 358,-98zm-51 109c-59,0 -117,17 -177,52 -58,35 -107,95 -143,182 -37,87 -55,199 -55,336 0,221 45,411 132,571 88,160 204,239 347,239 107,0 195,-44 265,-132 69,-88 104,-240 104,-455 0,-269 -58,-480 -174,-635 -78,-105 -178,-158 -299,-158z"/>
   <path id="2" class="fil1" d="M86647 19018c-1,225 53,401 164,529 110,127 240,191 389,191 99,0 186,-27 259,-82 74,-53 135,-148 185,-281l51 33c-23,153 -90,291 -202,415 -111,124 -251,186 -418,186 -182,0 -338,-71 -468,-213 -129,-141 -194,-332 -194,-571 0,-259 66,-461 199,-606 133,-146 300,-218 501,-218 169,0 309,56 418,168 109,112 164,262 164,449l-1048 0zm0 -94l702 0c-6,-98 -17,-166 -34,-206 -28,-61 -69,-110 -124,-145 -55,-36 -112,-53 -172,-53 -91,0 -173,35 -246,107 -72,71 -114,170 -126,297z"/>
   <g>
    <path class="fil1" d="M77842 7334l0 3954 -360 0 0 -3954 360 0zm-1441 0l0 0 1 -65 5 -63 8 -63 12 -62 14 -61 17 -60 19 -59 23 -57 25 -56 28 -54 31 -53 32 -51 36 -49 37 -48 40 -46 41 -44 44 -42 46 -39 48 -38 49 -35 51 -33 53 -30 54 -28 56 -25 58 -23 58 -20 60 -17 61 -14 62 -11 63 -8 64 -5 65 -2 0 0 65 2 64 5 63 8 62 11 61 14 60 17 58 20 57 23 56 25 55 28 53 30 51 33 49 35 48 38 46 39 43 42 42 44 40 46 37 48 35 49 33 51 30 53 28 54 26 56 22 57 20 59 17 60 14 61 11 62 8 63 5 63 2 65 0 0 -2 65 -5 64 -8 63 -11 62 -14 60 -17 60 -20 59 -22 57 -26 56 -28 54 -30 53 -33 51 -35 50 -37 47 -40 46 -42 44 -43 42 -46 39 -48 38 -49 35 -51 33 -53 30 -55 28 -56 26 -57 22 -58 20 -60 17 -61 14 -62 11 -63 9 -64 4 -65 2 0 0 -65 -2 -64 -4 -63 -9 -62 -11 -61 -14 -60 -17 -58 -20 -58 -22 -56 -26 -54 -28 -53 -30 -51 -33 -49 -35 -48 -38 -46 -39 -44 -42 -41 -44 -40 -46 -37 -47 -36 -50 -32 -51 -31 -53 -28 -54 -25 -56 -23 -57 -19 -59 -17 -60 -14 -60 -12 -62 -8 -63 -5 -64 -1 -65z"/>
   </g>
   <g>
    <path class="fil1" d="M77482 27632l0 -4323 360 0 0 4323 -180 181 -180 -181zm360 0l0 181 -180 0 180 -181zm-15739 -180l15559 0 0 361 -15559 0 0 -361zm0 1441l0 0 -65 -1 -63 -5 -63 -8 -62 -11 -61 -14 -60 -17 -59 -20 -57 -23 -56 -25 -54 -28 -53 -30 -51 -33 -49 -35 -48 -38 -46 -39 -44 -42 -42 -44 -39 -46 -38 -47 -35 -50 -33 -51 -30 -53 -28 -54 -25 -56 -23 -57 -20 -59 -17 -60 -14 -61 -11 -62 -8 -63 -5 -64 -2 -65 0 0 2 -64 5 -64 8 -64 11 -62 14 -61 17 -59 20 -59 23 -57 25 -56 28 -54 30 -53 33 -51 35 -50 38 -47 39 -46 42 -44 44 -42 46 -39 48 -38 49 -35 51 -33 53 -30 54 -28 56 -25 57 -23 59 -20 60 -17 61 -14 62 -11 63 -8 63 -5 65 -2 0 0 65 2 64 5 63 8 62 11 60 14 60 17 59 20 57 23 56 25 54 28 53 30 51 33 49 35 48 38 46 39 44 42 42 44 39 46 38 47 35 50 33 51 30 53 28 54 26 56 22 57 20 59 17 59 14 61 11 62 9 64 4 64 2 64 0 0 -2 65 -4 64 -9 63 -11 62 -14 61 -17 60 -20 59 -22 57 -26 56 -28 54 -30 53 -33 51 -35 50 -38 47 -39 46 -42 44 -44 42 -46 39 -48 38 -49 35 -51 33 -53 30 -54 28 -56 25 -57 23 -59 20 -60 17 -60 14 -62 11 -63 8 -64 5 -65 1z"/>
   </g>
   <path class="fil0 str4" d="M9630 26891c-1659,0 -3005,673 -3005,1502 0,830 1346,1503 3005,1503m0 0c-1659,0 -3005,673 -3005,1502 0,830 1346,1503 3005,1503m0 0c-1659,0 -3005,673 -3005,1502 0,830 1346,1503 3005,1503m0 0c-1659,0 -3005,673 -3005,1502 0,830 1346,1503 3005,1503"/>
   <path class="fil1" d="M2819 33425l81 17 -290 914 -2610 0 0 -92 126 0c143,0 245,-46 306,-138 34,-53 51,-175 51,-366l0 -2183c0,-210 -23,-341 -69,-394 -65,-73 -160,-109 -288,-109l-126 0 0 -92 1527 0 0 92c-179,-2 -305,14 -378,49 -72,34 -121,78 -147,130 -27,52 -40,178 -40,375l0 2127c0,139 13,233 40,284 19,36 51,61 92,78 41,16 170,25 388,25l246 0c260,0 441,-19 546,-57 104,-38 200,-106 286,-202 86,-97 172,-250 259,-458z"/>
   <path id="1" class="fil1" d="M3597 31313l823 -397 82 0 0 2844c0,189 8,308 24,355 16,46 49,82 99,107 50,24 151,39 305,42l0 92 -1272 0 0 -92c159,-3 262,-17 308,-41 46,-24 78,-56 97,-97 18,-41 27,-163 27,-366l0 -1821c0,-245 -8,-403 -24,-473 -12,-53 -33,-92 -64,-117 -31,-24 -68,-37 -111,-37 -62,0 -148,25 -257,77l-37 -76z"/>
   <path class="fil0 str5" d="M96900 26891c1659,0 3005,673 3005,1502 0,830 -1346,1503 -3005,1503m0 0c1659,0 3005,673 3005,1502 0,830 -1346,1503 -3005,1503m0 0c1659,0 3005,673 3005,1502 0,830 -1346,1503 -3005,1503m0 0c1659,0 3005,673 3005,1502 0,830 -1346,1503 -3005,1503"/>
   <path class="fil1" d="M104439 33689l81 18 -290 914 -2610 0 0 -92 126 0c142,0 244,-46 305,-138 35,-53 52,-175 52,-366l0 -2183c0,-210 -23,-341 -70,-394 -64,-73 -160,-109 -287,-109l-126 0 0 -92 1526 0 0 92c-179,-2 -304,14 -377,49 -72,34 -122,78 -148,129 -26,53 -40,179 -40,376l0 2127c0,138 14,233 40,284 20,36 51,61 92,78 41,16 171,25 389,25l246 0c259,0 441,-19 545,-57 104,-38 200,-106 287,-203 86,-96 172,-249 259,-458z"/>
   <path id="1" class="fil1" d="M106957 33966l-236 655 -1988 0 0 -94c585,-533 996,-968 1235,-1306 238,-337 357,-646 357,-926 0,-214 -65,-389 -196,-527 -131,-137 -287,-206 -469,-206 -166,0 -315,48 -446,144 -133,96 -229,236 -293,421l-92 0c42,-304 149,-538 320,-702 171,-163 386,-244 644,-244 273,0 502,88 685,264 183,175 275,382 275,621 0,171 -40,342 -120,512 -122,268 -321,553 -596,853 -413,449 -667,719 -765,808l871 0c177,0 302,-7 373,-19 72,-14 136,-41 194,-82 57,-40 107,-97 150,-172l97 0z"/>
   <path class="fil0 str6" d="M53150 10538l0 -6491m-2404 6491l0 -6491"/>
   <g>
    <path class="fil1" d="M61867 7472l-8351 0 0 -360 8351 0 0 360zm0 -1441l0 0 65 2 64 5 63 8 62 11 61 14 60 17 58 20 57 22 56 26 55 28 52 30 51 33 50 35 48 37 45 40 44 42 42 43 40 46 37 48 36 49 32 51 31 53 28 55 25 56 23 57 20 58 17 60 14 61 11 62 8 63 5 64 1 65 0 0 -1 65 -5 64 -8 63 -11 62 -14 61 -17 60 -20 58 -23 58 -25 56 -28 54 -31 53 -32 51 -36 49 -37 48 -40 46 -42 44 -44 41 -45 40 -48 37 -50 36 -51 32 -52 31 -55 28 -56 25 -57 23 -58 19 -60 17 -61 14 -62 12 -63 8 -64 5 -65 1 0 0 -64 -1 -64 -5 -63 -8 -62 -12 -61 -14 -60 -17 -58 -19 -57 -23 -56 -25 -55 -28 -52 -31 -52 -32 -49 -36 -48 -37 -45 -40 -44 -41 -42 -44 -40 -46 -37 -48 -36 -49 -32 -51 -31 -53 -28 -54 -25 -56 -23 -58 -20 -58 -17 -60 -14 -61 -11 -62 -8 -63 -5 -64 -1 -65 0 0 1 -65 5 -64 8 -63 11 -62 14 -61 17 -60 20 -58 23 -57 25 -56 28 -55 31 -53 32 -51 36 -49 37 -48 40 -46 42 -43 44 -42 45 -40 48 -37 49 -35 52 -33 52 -30 55 -28 56 -26 57 -22 58 -20 60 -17 61 -14 62 -11 63 -8 64 -5 64 -2z"/>
   </g>
   <g>
    <path class="fil1" d="M41776 7112l8473 0 0 360 -8473 0 0 -360zm0 1441l0 0 -65 -1 -64 -5 -63 -8 -62 -12 -61 -14 -60 -17 -58 -19 -57 -23 -56 -25 -55 -28 -52 -31 -51 -32 -50 -36 -48 -37 -45 -40 -44 -41 -42 -44 -40 -46 -37 -48 -35 -49 -33 -51 -31 -53 -28 -54 -25 -56 -23 -58 -20 -58 -17 -60 -14 -61 -11 -62 -8 -63 -5 -64 -1 -65 0 0 1 -65 5 -64 8 -63 11 -62 14 -61 17 -60 20 -58 23 -57 25 -56 28 -55 31 -53 33 -51 35 -49 37 -48 40 -46 42 -43 44 -42 45 -40 48 -37 50 -35 51 -33 52 -30 55 -28 56 -26 57 -22 58 -20 60 -17 61 -14 62 -11 63 -8 64 -5 65 -2 0 0 64 2 64 5 63 8 62 11 61 14 60 17 58 20 57 22 56 26 55 28 52 30 52 33 49 35 48 37 46 40 43 42 42 43 40 46 37 48 36 49 32 51 31 53 28 55 25 56 23 57 20 58 17 60 14 61 11 62 8 63 5 64 1 65 0 0 -1 65 -5 64 -8 63 -11 62 -14 61 -17 60 -20 58 -23 58 -25 56 -28 54 -31 53 -32 51 -36 49 -37 48 -40 46 -42 44 -43 41 -46 40 -48 37 -49 36 -52 32 -52 31 -55 28 -56 25 -57 23 -58 19 -60 17 -61 14 -62 12 -63 8 -64 5 -64 1z"/>
   </g>
   <path class="fil1" d="M53091 0l70 1049 -70 0c-94,-314 -228,-541 -402,-678 -174,-139 -382,-208 -626,-208 -204,0 -389,52 -554,157 -165,104 -295,269 -389,498 -95,228 -142,511 -142,850 0,280 44,523 134,728 89,205 224,362 403,472 179,110 383,164 613,164 200,0 376,-43 529,-128 153,-86 321,-256 503,-511l71 47c-155,274 -335,475 -541,602 -206,127 -451,191 -734,191 -511,0 -906,-190 -1186,-570 -209,-283 -314,-616 -314,-999 0,-308 69,-592 206,-850 138,-259 328,-459 569,-601 241,-142 505,-213 791,-213 223,0 442,54 659,164 63,33 108,51 136,51 40,0 76,-15 106,-44 40,-41 68,-98 84,-171l84 0z"/>
   <path id="1" class="fil1" d="M53516 3069c0,-256 39,-476 116,-661 78,-185 180,-323 309,-413 98,-72 201,-108 307,-108 172,0 327,88 464,263 171,218 256,512 256,884 0,260 -37,482 -112,664 -75,182 -171,314 -287,396 -117,82 -229,124 -337,124 -215,0 -393,-126 -535,-379 -121,-213 -181,-470 -181,-770zm326 40c0,309 38,561 114,757 63,165 156,247 281,247 59,0 121,-27 185,-81 64,-54 112,-143 145,-269 50,-189 76,-457 76,-802 0,-256 -27,-470 -79,-641 -40,-127 -91,-217 -154,-270 -45,-36 -100,-54 -164,-54 -74,0 -141,34 -199,101 -79,91 -134,235 -162,432 -29,196 -43,389 -43,580z"/>
  </g>
 </g>
</svg>
