<?xml version="1.0" encoding="UTF-8"?>
<!DOCTYPE svg PUBLIC "-//W3C//DTD SVG 1.1//EN" "http://www.w3.org/Graphics/SVG/1.1/DTD/svg11.dtd">
<!-- Creator: CorelDRAW Home & Student X8 -->
<svg xmlns="http://www.w3.org/2000/svg" xml:space="preserve" width="73.3695mm" height="47.2051mm" version="1.1" style="shape-rendering:geometricPrecision; text-rendering:geometricPrecision; image-rendering:optimizeQuality; fill-rule:evenodd; clip-rule:evenodd"
viewBox="0 0 72721 46788"
 xmlns:xlink="http://www.w3.org/1999/xlink">
 <defs>
  <style type="text/css">
   <![CDATA[
    .str5 {stroke:#2B2A29;stroke-width:693.712}
    .str0 {stroke:#2B2A29;stroke-width:495.579}
    .str1 {stroke:#2B2A29;stroke-width:297.347}
    .str4 {stroke:black;stroke-width:991.158}
    .str6 {stroke:black;stroke-width:693.811}
    .str2 {stroke:black;stroke-width:495.579}
    .str3 {stroke:black;stroke-width:495.579}
    .fil0 {fill:none}
    .fil1 {fill:#2B2A29;fill-rule:nonzero}
   ]]>
  </style>
 </defs>
 <g id="Warstwa_x0020_1">
  <metadata id="CorelCorpID_0Corel-Layer"/>
  <g id="_514541088">
   <circle class="fil0 str0" transform="matrix(0 1 -1 0 51013.8 14309.6)" r="4956"/>
   <circle class="fil0 str0" transform="matrix(0 0.80758 -0.80758 0 51013.8 14309.6)" r="4956"/>
   <g>
    <path class="fil1" d="M50865 15793l0 -4207 297 0 0 4207 -297 0zm149 1240l-1058 -2467 67 32 66 30 66 28 66 26 66 24 66 21 66 20 66 17 66 16 66 13 66 12 66 9 67 7 66 5 66 4 66 1 66 -1 66 -4 66 -5 66 -7 66 -9 66 -12 66 -13 67 -16 66 -17 66 -20 66 -21 66 -24 66 -26 66 -28 66 -30 66 -32 0 0 -1057 2467z"/>
   </g>
  </g>
  <polyline class="fil0 str1" points="34447,19265 34447,22665 51208,22665 51208,19264 "/>
  <line class="fil0 str1" x1="51014" y1="9354" x2="51014" y2= "6013" />
  <polyline class="fil0 str1" points="34447,9354 34447,6013 23345,6013 23345,22121 "/>
  <g>
   <path class="fil1" d="M42323 22665l0 6146 -297 0 0 -6146 297 0zm-1188 0l0 0 1 -53 4 -53 7 -52 9 -51 11 -50 14 -49 17 -48 18 -48 21 -46 23 -44 25 -44 27 -42 29 -41 31 -39 33 -38 34 -36 36 -35 38 -32 39 -31 41 -29 42 -27 44 -26 45 -23 46 -20 47 -19 48 -17 50 -14 50 -11 51 -9 52 -7 53 -4 53 -1 0 0 54 1 53 4 52 7 51 9 50 11 49 14 49 17 47 19 46 20 45 23 43 26 42 27 41 29 40 31 37 32 36 35 35 36 33 38 30 39 29 41 27 42 26 44 23 44 20 46 19 48 16 48 14 49 12 50 9 51 7 52 4 53 1 53 0 0 -1 54 -4 52 -7 52 -9 51 -12 50 -14 50 -16 48 -19 47 -20 46 -23 45 -26 44 -27 42 -29 41 -30 39 -33 38 -35 36 -36 34 -37 33 -40 31 -41 29 -42 27 -43 25 -45 23 -46 21 -47 19 -49 16 -49 14 -50 12 -51 9 -52 7 -53 4 -54 1 0 0 -53 -1 -53 -4 -52 -7 -51 -9 -50 -12 -50 -14 -48 -16 -47 -19 -46 -21 -45 -23 -44 -25 -42 -27 -41 -29 -39 -31 -38 -33 -36 -34 -34 -36 -33 -38 -31 -39 -29 -41 -27 -42 -25 -44 -23 -45 -21 -46 -18 -47 -17 -48 -14 -50 -11 -50 -9 -51 -7 -52 -4 -52 -1 -54z"/>
  </g>
  <g>
   <path class="fil1" d="M41924 46590l102 -7869 297 4 -102 7869 -297 -4zm-1348 -17l2 -177 2993 39 -5 353 -2993 -39 3 -176z"/>
  </g>
  <g>
   <path class="fil1" d="M23011 46454l117 -14325 297 3 -117 14324 -297 -2zm-1348 -11l1 -176 2993 24 -3 353 -2993 -25 2 -176z"/>
  </g>
  <path class="fil0 str2" d="M7940 22219c-1367,0 -2478,555 -2478,1239 0,684 1111,1239 2478,1239m0 0c-1367,0 -2478,555 -2478,1239 0,684 1111,1239 2478,1239m0 0c-1367,0 -2478,555 -2478,1239 0,683 1111,1238 2478,1238m0 0c-1367,0 -2478,556 -2478,1239 0,684 1111,1239 2478,1239"/>
  <path class="fil0 str3" d="M64428 22219c1368,0 2478,555 2478,1239 0,684 -1110,1239 -2478,1239m0 0c1368,0 2478,555 2478,1239 0,684 -1110,1239 -2478,1239m0 0c1368,0 2478,555 2478,1239 0,683 -1110,1238 -2478,1238m0 0c1368,0 2478,556 2478,1239 0,684 -1110,1239 -2478,1239"/>
  <g>
   <path class="fil1" d="M7792 46610l0 -14480 297 0 0 14480 -297 0zm-1348 0l0 -176 2993 0 0 352 -2993 0 0 -176z"/>
  </g>
  <g>
   <path class="fil1" d="M8089 5904l0 16315 -297 0 0 -16315 148 -149 149 149zm-297 0l0 -149 148 0 -148 149zm15553 149l-15405 0 0 -298 15405 0 0 298zm0 -1189l0 0 53 2 53 4 52 6 51 9 50 12 50 14 48 16 47 19 46 21 45 23 43 25 43 27 40 29 40 31 37 32 37 35 34 36 33 38 31 39 29 41 27 42 25 44 23 44 21 47 19 47 16 48 14 49 12 51 9 51 6 52 4 53 2 53 0 0 -2 53 -4 53 -6 52 -9 51 -12 51 -14 49 -16 48 -19 48 -21 46 -23 44 -25 44 -27 42 -29 41 -31 39 -33 38 -34 36 -37 35 -37 32 -40 31 -40 29 -43 27 -43 25 -45 23 -46 21 -47 19 -48 16 -50 14 -50 12 -51 9 -52 6 -53 4 -53 2 0 0 -53 -2 -53 -4 -52 -6 -51 -9 -50 -12 -49 -14 -49 -16 -47 -19 -46 -21 -45 -23 -43 -25 -42 -27 -41 -29 -40 -31 -37 -32 -36 -35 -35 -36 -33 -38 -31 -39 -29 -41 -27 -42 -25 -44 -23 -44 -21 -46 -18 -48 -17 -48 -14 -49 -11 -51 -10 -51 -6 -52 -4 -53 -2 -53 0 0 2 -53 4 -53 6 -52 10 -51 11 -51 14 -49 17 -48 18 -47 21 -47 23 -44 25 -44 27 -42 29 -41 31 -39 33 -38 35 -36 36 -35 37 -32 40 -31 41 -29 42 -27 43 -25 45 -23 46 -21 47 -19 49 -16 49 -14 50 -12 51 -9 52 -6 53 -4 53 -2z"/>
  </g>
  <g>
   <path class="fil1" d="M64280 46610l0 -14480 297 0 0 14480 -297 0zm-1348 0l0 -176 2993 0 0 352 -2993 0 0 -176z"/>
  </g>
  <polyline class="fil0 str1" points="64428,22219 64428,6013 51014,6013 "/>
  <path class="fil0 str4" d="M43826 8689l0 -5352m-1983 5352l0 -5352"/>
  <g>
   <path class="fil1" d="M51014 6162l-6886 0 0 -298 6886 0 0 298zm0 -1189l0 0 53 1 53 4 52 7 51 9 50 12 49 14 49 16 47 19 46 21 45 23 43 25 42 27 41 29 39 31 38 32 36 35 35 36 33 38 30 39 30 41 27 42 25 43 23 45 21 46 18 48 17 48 14 49 11 50 10 52 6 52 4 52 2 54 0 0 -2 53 -4 53 -6 52 -10 51 -11 51 -14 49 -17 48 -18 47 -21 46 -23 45 -25 44 -27 42 -30 41 -30 39 -33 38 -35 36 -36 34 -38 33 -39 31 -41 29 -42 27 -43 25 -45 23 -46 21 -47 18 -49 17 -49 14 -50 11 -51 10 -52 6 -53 4 -53 2 0 0 -53 -2 -53 -4 -52 -6 -51 -10 -50 -11 -50 -14 -48 -17 -47 -18 -46 -21 -45 -23 -43 -25 -43 -27 -40 -29 -40 -31 -38 -33 -36 -34 -34 -36 -33 -38 -31 -39 -29 -41 -27 -42 -25 -44 -23 -45 -21 -46 -19 -47 -16 -48 -14 -49 -12 -51 -9 -51 -7 -52 -4 -53 -1 -53 0 0 1 -54 4 -52 7 -52 9 -52 12 -50 14 -49 16 -48 19 -48 21 -46 23 -45 25 -43 27 -42 29 -41 31 -39 33 -38 34 -36 36 -35 38 -32 40 -31 40 -29 43 -27 43 -25 45 -23 46 -21 47 -19 48 -16 50 -14 50 -12 51 -9 52 -7 53 -4 53 -1z"/>
  </g>
  <g>
   <path class="fil1" d="M34447 5864l6986 0 0 298 -6986 0 0 -298zm0 1189l0 0 -54 -2 -52 -4 -52 -6 -51 -10 -50 -11 -50 -14 -48 -17 -47 -18 -46 -21 -45 -23 -44 -25 -42 -27 -41 -29 -39 -31 -38 -33 -36 -34 -34 -36 -33 -38 -31 -39 -29 -41 -27 -42 -25 -44 -23 -45 -21 -46 -19 -47 -16 -48 -14 -49 -12 -51 -9 -51 -7 -52 -4 -53 -1 -53 0 0 1 -54 4 -52 7 -52 9 -52 12 -50 14 -49 16 -48 19 -48 21 -46 23 -45 25 -43 27 -42 29 -41 31 -39 33 -38 34 -36 36 -35 38 -32 39 -31 41 -29 42 -27 44 -25 45 -23 46 -21 47 -19 48 -16 50 -14 50 -12 51 -9 52 -7 52 -4 54 -1 0 0 53 1 53 4 52 7 51 9 50 12 49 14 48 16 48 19 46 21 45 23 43 25 42 27 41 29 39 31 38 32 36 35 35 36 32 38 31 39 29 41 27 42 26 43 23 45 20 46 19 48 17 48 14 49 11 50 9 52 7 52 4 52 1 54 0 0 -1 53 -4 53 -7 52 -9 51 -11 51 -14 49 -17 48 -19 47 -20 46 -23 45 -26 44 -27 42 -29 41 -31 39 -32 38 -35 36 -36 34 -38 33 -39 31 -41 29 -42 27 -43 25 -45 23 -46 21 -48 18 -48 17 -49 14 -50 11 -51 10 -52 6 -53 4 -53 2z"/>
  </g>
  <path class="fil1" d="M70645 28646l67 14 -240 753 -2152 0 0 -75 104 0c118,0 202,-38 252,-114 29,-43 43,-144 43,-302l0 -1800c0,-173 -19,-281 -58,-325 -53,-60 -132,-90 -237,-90l-104 0 0 -75 1259 0 0 75c-148,-1 -251,12 -311,41 -60,28 -100,64 -122,107 -22,43 -33,147 -33,309l0 1754c0,114 11,192 33,235 16,29 42,50 76,64 34,13 141,20 320,20l203 0c214,0 364,-15 450,-47 86,-31 165,-87 236,-167 71,-79 142,-205 214,-377z"/>
  <path id="1" class="fil1" d="M72721 28874l-195 539 -1639 0 0 -76c483,-440 822,-799 1018,-1077 197,-279 295,-533 295,-764 0,-176 -53,-321 -162,-434 -107,-114 -236,-170 -386,-170 -138,0 -260,39 -368,118 -109,79 -189,195 -242,347l-75 0c34,-251 122,-444 263,-579 142,-134 319,-201 531,-201 225,0 414,73 565,217 151,145 227,316 227,513 0,141 -33,282 -99,422 -100,221 -265,456 -491,703 -341,371 -551,593 -631,667l718 0c146,0 249,-6 308,-16 59,-12 112,-34 159,-68 48,-32 89,-80 124,-141l80 0z"/>
  <path class="fil1" d="M2324 27825l68 15 -240 753 -2152 0 0 -76 104 0c118,0 202,-37 252,-114 29,-43 43,-144 43,-301l0 -1800c0,-174 -19,-282 -58,-325 -53,-60 -132,-91 -237,-91l-104 0 0 -75 1259 0 0 75c-148,-1 -251,12 -311,41 -60,28 -100,64 -122,107 -22,43 -33,147 -33,310l0 1754c0,114 11,191 33,234 16,29 42,50 76,64 34,14 141,21 320,21l203 0c214,0 364,-16 450,-47 86,-32 165,-88 236,-167 71,-80 142,-206 213,-378z"/>
  <path id="1" class="fil1" d="M2966 26084l679 -328 68 0 0 2346c0,156 6,254 19,292 13,38 40,68 81,88 42,21 125,33 252,35l0 76 -1049 0 0 -76c132,-2 216,-14 254,-34 38,-20 65,-46 80,-80 15,-33 23,-134 23,-301l0 -1502c0,-202 -7,-332 -21,-390 -9,-44 -27,-76 -52,-96 -26,-20 -56,-31 -92,-31 -51,0 -121,21 -212,64l-30 -63z"/>
  <path class="fil1" d="M43777 0l58 865 -58 0c-77,-259 -188,-446 -331,-559 -144,-114 -316,-171 -517,-171 -168,0 -320,43 -456,128 -136,86 -243,223 -322,411 -77,188 -116,422 -116,702 0,230 36,430 110,600 74,169 185,298 332,389 148,90 317,135 506,135 165,0 310,-35 436,-106 126,-70 265,-211 415,-421l59 39c-128,226 -277,391 -447,496 -170,105 -371,157 -605,157 -421,0 -747,-156 -978,-469 -172,-234 -259,-508 -259,-824 0,-254 57,-488 171,-701 113,-213 269,-378 468,-495 199,-118 417,-176 653,-176 183,0 364,45 543,135 52,28 89,42 112,42 33,0 63,-12 88,-36 32,-34 55,-81 69,-141l69 0z"/>
  <path id="1" class="fil1" d="M44128 2530c0,-211 32,-392 95,-545 64,-152 149,-266 255,-340 81,-60 166,-89 253,-89 142,0 270,72 382,217 142,179 212,422 212,729 0,214 -31,397 -93,547 -62,150 -141,259 -236,327 -97,68 -189,102 -278,102 -177,0 -324,-104 -441,-313 -100,-175 -149,-387 -149,-635zm268 34c0,254 32,462 94,624 52,135 129,203 232,203 49,0 100,-22 152,-66 53,-44 93,-118 120,-222 42,-156 63,-377 63,-662 0,-211 -22,-387 -66,-528 -32,-105 -75,-179 -127,-222 -36,-31 -82,-45 -134,-45 -62,0 -117,27 -165,83 -65,76 -110,194 -133,356 -24,162 -36,321 -36,479z"/>
  <path class="fil1" d="M48553 34770l-745 0 -945 -1301c-67,3 -123,4 -165,4 -18,0 -37,0 -56,-1 -20,-1 -41,-1 -62,-3l0 810c0,175 18,283 57,325 52,60 129,90 233,90l108 0 0 76 -1191 0 0 -76 104 0c117,0 201,-38 251,-114 29,-42 43,-143 43,-301l0 -1800c0,-175 -19,-283 -57,-325 -53,-60 -132,-91 -237,-91l-104 0 0 -75 1012 0c296,0 513,22 653,64 141,44 260,123 357,239 98,115 147,253 147,413 0,171 -56,320 -167,445 -112,126 -284,215 -519,268l576 796c132,183 244,306 338,366 94,61 217,99 369,115l0 76zm-1973 -1431c25,0 48,0 67,1 19,0 34,1 46,1 262,0 460,-57 593,-172 133,-115 200,-261 200,-439 0,-174 -54,-315 -161,-424 -108,-108 -250,-163 -427,-163 -79,0 -185,13 -318,38l0 1158z"/>
  <path id="1" class="fil1" d="M49001 32987l0 -97c142,-83 239,-161 290,-234 35,-51 54,-113 54,-185 0,-43 -8,-75 -23,-95 -17,-20 -35,-31 -54,-31 -15,0 -35,5 -60,15 -35,12 -65,18 -89,18 -55,0 -104,-20 -146,-61 -43,-42 -65,-93 -65,-154 0,-69 21,-122 64,-160 57,-52 126,-78 205,-78 91,0 174,38 247,116 73,77 109,173 109,288 0,161 -60,308 -181,440 -82,88 -198,160 -351,218z"/>
  <path id="2" class="fil1" d="M50496 33855l0 733 408 0c106,0 176,-16 212,-48 47,-41 73,-115 79,-220l50 0 0 646 -50 0c-13,-91 -26,-149 -38,-175 -17,-31 -44,-57 -81,-75 -37,-18 -94,-27 -172,-27l-408 0 0 611c0,82 3,132 10,150 8,18 20,32 39,42 18,11 53,16 104,16l313 0c105,0 181,-7 228,-22 47,-14 93,-43 136,-86 57,-56 115,-142 174,-255l56 0 -160 464 -1429 0 0 -50 66 0c44,0 85,-11 124,-32 30,-14 50,-36 60,-66 11,-29 16,-89 16,-179l0 -1206c0,-117 -12,-190 -36,-217 -33,-36 -87,-54 -164,-54l-66 0 0 -51 1429 0 20 409 -53 0c-19,-98 -40,-166 -64,-203 -23,-37 -57,-65 -103,-84 -36,-14 -100,-21 -192,-21l-508 0z"/>
  <path class="fil1" d="M29351 28146l-744 0 -945 -1301c-68,3 -123,4 -166,4 -17,0 -36,0 -56,-1 -20,-1 -41,-1 -62,-3l0 810c0,175 19,283 57,325 52,60 130,90 233,90l108 0 0 76 -1191 0 0 -76 104 0c117,0 201,-38 252,-114 28,-42 42,-143 42,-301l0 -1800c0,-175 -18,-283 -57,-325 -53,-60 -132,-90 -237,-90l-104 0 0 -76 1012 0c296,0 514,22 654,64 140,44 259,123 356,239 98,115 147,253 147,413 0,172 -56,320 -167,446 -112,125 -284,214 -518,267l575 796c132,183 244,306 339,366 93,61 217,99 368,115l0 76zm-1973 -1431c26,0 48,0 67,1 19,1 34,1 46,1 262,0 460,-57 593,-172 134,-115 200,-261 200,-439 0,-173 -54,-315 -161,-424 -107,-108 -250,-163 -427,-163 -78,0 -185,13 -318,38l0 1158z"/>
  <path id="1" class="fil1" d="M30603 28038c129,27 225,71 289,131 88,84 132,187 132,308 0,92 -29,181 -87,265 -58,85 -138,146 -240,185 -101,39 -256,58 -464,58l-873 0 0 -50 69 0c77,0 132,-25 165,-74 21,-32 31,-100 31,-203l0 -1200c0,-115 -13,-187 -39,-217 -35,-40 -87,-60 -157,-60l-69 0 0 -50 799 0c149,0 268,10 358,32 137,33 241,91 313,175 71,83 107,179 107,287 0,93 -28,176 -84,250 -57,73 -139,127 -250,163zm-715 -76c34,6 73,11 116,14 43,4 90,5 142,5 133,0 233,-15 300,-43 67,-28 118,-72 153,-131 35,-59 53,-124 53,-193 0,-109 -44,-200 -132,-277 -88,-76 -217,-114 -386,-114 -91,0 -173,10 -246,30l0 709zm0 888c106,25 211,37 314,37 166,0 292,-37 379,-111 86,-74 130,-166 130,-275 0,-72 -20,-141 -61,-208 -40,-66 -104,-119 -192,-157 -89,-38 -198,-57 -328,-57 -57,0 -105,1 -145,3 -40,1 -72,5 -97,9l0 759z"/>
  <path class="fil1" d="M32136 1950l24 -63 832 0c140,0 264,22 373,65 110,44 192,104 246,181 54,78 82,159 82,246 0,133 -52,254 -153,361 -102,108 -269,187 -499,238 152,53 265,122 337,209 72,87 108,182 108,286 0,115 -29,226 -88,330 -59,105 -135,187 -228,245 -93,58 -204,101 -336,128 -93,20 -238,29 -436,29l-848 0 22 -62c89,-3 149,-12 181,-26 46,-19 78,-45 97,-77 28,-43 64,-142 110,-297l403 -1405c35,-118 54,-201 54,-249 0,-43 -16,-76 -48,-100 -31,-25 -91,-37 -178,-37 -19,0 -37,-1 -55,-2zm353 962c74,2 127,3 159,3 236,0 411,-51 526,-154 115,-102 173,-230 173,-384 0,-117 -36,-208 -106,-273 -71,-65 -184,-98 -339,-98 -41,0 -94,7 -157,21l-256 885zm-329 1144c124,15 222,24 293,24 180,0 339,-54 479,-161 139,-108 208,-254 208,-437 0,-141 -43,-251 -130,-330 -87,-78 -227,-118 -422,-118 -37,0 -83,3 -136,7l-292 1015z"/>
  <path class="fil1" d="M55514 2274l-171 752 -63 0 -7 -189c-6,-68 -19,-129 -40,-183 -20,-53 -51,-100 -92,-139 -42,-40 -94,-71 -157,-93 -63,-22 -133,-33 -210,-33 -205,0 -385,56 -538,168 -197,142 -350,343 -462,603 -91,215 -137,431 -137,652 0,224 66,403 198,537 132,134 304,201 516,201 160,0 302,-36 427,-106 124,-71 240,-180 348,-328l81 0c-126,200 -265,346 -418,440 -152,94 -335,141 -548,141 -189,0 -357,-40 -503,-119 -146,-79 -256,-191 -333,-334 -76,-143 -114,-298 -114,-463 0,-253 67,-499 203,-738 135,-240 321,-428 557,-564 236,-137 474,-205 715,-205 112,0 238,27 378,81 62,22 106,34 133,34 28,0 51,-6 72,-17 20,-11 55,-44 102,-98l63 0z"/>
  <path class="fil1" d="M45544 19084l-261 916 219 0c156,0 268,-23 338,-70 70,-47 130,-135 180,-262l63 0 -238 836 -70 0c20,-71 31,-131 31,-181 0,-48 -10,-87 -30,-117 -20,-30 -47,-51 -81,-65 -35,-15 -107,-22 -217,-22l-229 0 -230 804c-22,64 -33,112 -33,146 0,26 15,48 43,68 20,14 70,21 150,21l211 0c222,0 400,-39 533,-118 133,-79 253,-216 359,-410l63 0 -220 647 -1784 0 22 -63c89,-3 149,-11 179,-24 46,-21 79,-47 100,-79 30,-47 67,-145 108,-294l403 -1399c32,-113 48,-199 48,-258 0,-44 -15,-78 -45,-102 -30,-24 -89,-37 -177,-37l-36 0 21 -63 1664 0 -143 560 -63 0c8,-53 11,-96 11,-132 0,-60 -14,-111 -44,-151 -38,-53 -95,-93 -169,-120 -55,-20 -181,-31 -379,-31l-297 0z"/>
  <path class="fil1" d="M38661 12753l0 1373c152,-167 272,-274 361,-321 89,-47 178,-70 267,-70 107,0 198,29 275,88 76,58 133,151 170,277 26,88 39,248 39,480l0 665c0,118 10,199 29,243 13,32 36,58 69,77 32,19 92,28 179,28l0 76 -919 0 0 -76 43 0c87,0 147,-13 182,-39 34,-27 58,-66 71,-117 4,-22 6,-86 6,-192l0 -665c0,-206 -10,-340 -32,-405 -21,-64 -54,-112 -101,-145 -46,-32 -103,-48 -169,-48 -67,0 -136,18 -209,53 -73,36 -159,108 -261,216l0 994c0,127 7,207 22,239 14,30 40,57 80,78 38,21 105,31 200,31l0 76 -927 0 0 -76c83,0 148,-12 196,-38 27,-14 49,-40 65,-78 16,-37 24,-115 24,-232l0 -1699c0,-213 -5,-344 -15,-393 -11,-49 -26,-83 -47,-100 -21,-18 -50,-27 -84,-27 -29,0 -76,11 -140,33l-28 -75 560 -231 94 0z"/>
  <path id="1" class="fil1" d="M40400 14835l452 -218 46 0 0 1564c0,104 4,169 13,195 9,25 26,45 54,58 27,14 83,22 168,24l0 50 -700 0 0 -50c88,-2 144,-10 170,-23 25,-13 43,-31 53,-53 10,-23 15,-90 15,-201l0 -1002c0,-134 -5,-221 -13,-259 -7,-30 -19,-51 -35,-65 -18,-13 -38,-20 -61,-20 -34,0 -82,14 -142,42l-20 -42z"/>
  <path id="2" class="fil1" d="M41694 14835l453 -218 45 0 0 1564c0,104 5,169 13,195 9,25 27,45 55,58 27,14 83,22 167,24l0 50 -699 0 0 -50c88,-2 144,-10 169,-23 26,-13 44,-31 54,-53 10,-23 15,-90 15,-201l0 -1002c0,-134 -5,-221 -14,-259 -6,-30 -18,-51 -35,-65 -17,-13 -37,-20 -61,-20 -34,0 -81,14 -141,42l-21 -42z"/>
  <g>
   <path class="fil1" d="M36892 22814l-406 0 0 -297 406 0 0 297zm1240 -149l-2467 1058 32 -66 30 -66 28 -67 26 -66 23 -66 22 -66 20 -66 17 -66 16 -66 13 -66 11 -66 10 -66 7 -66 5 -66 3 -67 1 -66 -1 -66 -3 -66 -5 -66 -7 -66 -10 -66 -11 -66 -13 -66 -16 -66 -17 -66 -20 -67 -22 -66 -23 -66 -26 -66 -28 -66 -30 -66 -32 -66 0 0 2467 1057z"/>
  </g>
  <path class="fil1" d="M35680 23560c48,0 89,16 122,49 33,33 50,74 50,122 0,46 -17,87 -51,121 -34,33 -74,50 -121,50 -46,0 -87,-17 -120,-50 -34,-34 -51,-75 -51,-121 0,-48 16,-89 49,-122 34,-33 74,-49 122,-49zm75 678l-359 1211c-24,81 -36,130 -36,147 0,17 5,31 14,42 10,11 22,17 35,17 15,0 34,-9 56,-27 58,-50 117,-123 176,-217l60 40c-74,117 -161,214 -260,292 -74,57 -144,86 -212,86 -44,0 -81,-14 -109,-42 -28,-27 -42,-61 -42,-103 0,-42 15,-113 46,-212l237 -773c37,-124 55,-202 55,-234 0,-25 -9,-45 -26,-61 -18,-16 -42,-24 -73,-24 -25,0 -76,6 -155,19l0 -67 593 -94z"/>
  <path id="1" class="fil1" d="M36603 24824l-238 825c73,-79 137,-133 192,-162 55,-30 112,-44 172,-44 84,0 153,29 207,87 53,58 80,137 80,236 0,128 -35,256 -107,383 -71,127 -160,225 -268,296 -108,71 -214,107 -318,107 -117,0 -237,-45 -360,-135l362 -1256c28,-95 41,-151 41,-168 0,-21 -6,-36 -19,-46 -18,-15 -45,-22 -80,-22 -17,0 -42,3 -77,9l0 -44 413 -66zm-464 1606c77,44 144,65 203,65 67,0 137,-26 210,-77 72,-51 135,-138 189,-260 53,-121 80,-244 80,-368 0,-74 -18,-131 -52,-173 -35,-41 -76,-62 -123,-62 -70,0 -140,31 -207,93 -68,63 -117,147 -147,252l-153 530z"/>
  <path class="fil1" d="M52927 19886l0 1373c152,-167 272,-274 361,-321 89,-47 178,-70 267,-70 107,0 198,29 275,88 76,58 133,151 170,277 26,88 39,248 39,480l0 665c0,118 10,199 29,243 13,32 36,58 69,77 32,19 92,28 179,28l0 76 -919 0 0 -76 43 0c87,0 147,-13 182,-39 34,-27 58,-66 71,-117 4,-22 6,-86 6,-192l0 -665c0,-206 -10,-340 -32,-405 -21,-64 -54,-112 -101,-145 -46,-32 -103,-48 -169,-48 -67,0 -136,18 -209,53 -73,36 -159,108 -261,216l0 994c0,127 7,207 22,239 14,30 41,57 80,78 38,21 105,31 200,31l0 76 -927 0 0 -76c83,0 148,-12 196,-38 27,-14 49,-40 65,-78 16,-37 24,-115 24,-232l0 -1699c0,-213 -4,-344 -15,-393 -10,-49 -26,-83 -47,-100 -21,-18 -50,-27 -84,-27 -29,0 -76,11 -140,33l-28 -75 560 -231 94 0z"/>
  <path id="1" class="fil1" d="M55623 23281l-130 360 -1093 0 0 -51c322,-293 548,-533 679,-718 131,-186 197,-355 197,-509 0,-118 -36,-214 -109,-290 -71,-75 -157,-113 -257,-113 -92,0 -173,26 -246,79 -72,52 -125,130 -160,231l-51 0c23,-167 82,-296 176,-386 94,-89 212,-134 354,-134 150,0 276,49 377,145 100,97 151,210 151,342 0,94 -22,188 -66,282 -67,147 -177,303 -328,468 -227,247 -367,395 -420,444l478 0c98,0 166,-3 205,-10 40,-8 75,-23 107,-45 32,-22 59,-54 82,-95l54 0z"/>
  <path id="2" class="fil1" d="M56064 21968l453 -218 45 0 0 1564c0,104 5,169 13,195 9,25 27,45 55,58 27,14 83,22 167,24l0 50 -699 0 0 -50c88,-2 144,-10 169,-23 26,-13 44,-31 54,-53 10,-23 15,-90 15,-201l0 -1002c0,-134 -5,-221 -14,-259 -6,-30 -18,-51 -35,-65 -17,-13 -37,-20 -61,-20 -34,0 -81,14 -141,42l-21 -42z"/>
  <path id="3" class="fil1" d="M57922 20571c48,0 88,16 122,50 33,33 49,74 49,121 0,47 -17,87 -51,121 -33,34 -74,51 -120,51 -47,0 -87,-17 -121,-51 -34,-34 -51,-74 -51,-121 0,-47 17,-88 50,-121 33,-34 74,-50 122,-50zm74 678l-359 1211c-23,82 -36,131 -36,147 0,18 6,32 15,43 10,10 21,16 35,16 15,0 34,-9 55,-26 59,-50 117,-123 177,-218l60 40c-74,117 -161,215 -261,292 -73,58 -144,86 -211,86 -45,0 -81,-14 -109,-41 -28,-27 -43,-62 -43,-103 0,-43 16,-113 46,-212l238 -773c37,-125 55,-203 55,-234 0,-25 -9,-46 -26,-61 -18,-17 -42,-24 -73,-24 -25,0 -77,6 -155,18l0 -66 592 -95z"/>
  <path id="4" class="fil1" d="M58844 21835l-238 826c73,-79 138,-134 193,-163 54,-29 112,-44 171,-44 85,0 154,29 208,88 53,57 80,136 80,236 0,128 -36,255 -107,382 -71,127 -161,226 -268,297 -108,71 -214,106 -319,106 -117,0 -237,-45 -360,-135l362 -1255c28,-96 42,-152 42,-169 0,-20 -6,-36 -19,-46 -18,-14 -45,-21 -81,-21 -17,0 -42,2 -76,8l0 -44 412 -66zm-463 1606c77,44 144,66 202,66 68,0 138,-26 210,-77 73,-52 136,-138 189,-260 54,-122 80,-245 80,-369 0,-73 -17,-130 -52,-172 -34,-41 -75,-62 -122,-62 -71,0 -140,31 -207,93 -68,62 -117,146 -148,252l-152 529z"/>
  <polyline class="fil0 str5" points="23245,32130 21393,31511 25160,30272 21393,29033 25160,27794 21393,26555 25160,25317 21393,24078 25160,22839 23245,22219 "/>
  <polyline class="fil0 str5" points="42142,38723 40290,38103 44058,36865 40290,35626 44058,34387 40290,33148 44058,31909 40290,30670 44058,29431 42142,28811 "/>
  <polygon class="fil0 str6" points="31969,9354 31969,19265 36925,19265 36925,9354 "/>
 </g>
</svg>
