<?xml version="1.0" encoding="UTF-8"?>
<!DOCTYPE svg PUBLIC "-//W3C//DTD SVG 1.1//EN" "http://www.w3.org/Graphics/SVG/1.1/DTD/svg11.dtd">
<!-- Creator: CorelDRAW Home & Student X8 -->
<svg xmlns="http://www.w3.org/2000/svg" xml:space="preserve" width="50.5316mm" height="84.4519mm" version="1.1" style="shape-rendering:geometricPrecision; text-rendering:geometricPrecision; image-rendering:optimizeQuality; fill-rule:evenodd; clip-rule:evenodd"
viewBox="0 0 1582 2644"
 xmlns:xlink="http://www.w3.org/1999/xlink">
 <defs>
  <style type="text/css">
   <![CDATA[
    .str3 {stroke:#2B2A29;stroke-width:21.9097}
    .str4 {stroke:#2B2A29;stroke-width:9.39122}
    .str1 {stroke:black;stroke-width:31.3041}
    .str5 {stroke:black;stroke-width:31.3041}
    .str2 {stroke:black;stroke-width:15.652}
    .str0 {stroke:black;stroke-width:9.39122}
    .fil0 {fill:none}
    .fil2 {fill:black}
    .fil1 {fill:#2B2A29;fill-rule:nonzero}
    .fil3 {fill:black;fill-rule:nonzero}
   ]]>
  </style>
 </defs>
 <g id="Warstwa_x0020_1">
  <metadata id="CorelCorpID_0Corel-Layer"/>
  <line class="fil0 str0" x1="677" y1="1212" x2="677" y2= "930" />
  <line class="fil0 str0" x1="677" y1="867" x2="677" y2= "585" />
  <path class="fil0 str1" d="M593 930l169 0m-169 -63l169 0"/>
  <line class="fil0 str0" x1="1081" y1="1212" x2="1081" y2= "1055" />
  <line class="fil0 str0" x1="1081" y1="742" x2="1081" y2= "585" />
  <path class="fil0 str2" d="M1081 742c44,0 79,17 79,39 0,22 -35,39 -79,39m0 0c44,0 79,18 79,39 0,22 -35,39 -79,39m0 0c44,0 79,18 79,40 0,21 -35,39 -79,39m0 0c44,0 79,17 79,39 0,21 -35,39 -79,39"/>
  <line class="fil0 str0" x1="677" y1="1212" x2="677" y2= "1212" />
  <polyline class="fil0 str0" points="677,1212 677,1212 1081,1212 "/>
  <line class="fil0 str0" x1="677" y1="585" x2="677" y2= "585" />
  <polyline class="fil0 str0" points="677,585 677,585 1081,585 "/>
  <line class="fil0 str3" x1="750" y1="1492" x2="750" y2= "1853" />
  <line class="fil0 str4" x1="282" y1="1679" x2="750" y2= "1679" />
  <line class="fil0 str4" x1="888" y1="1781" x2="888" y2= "2134" />
  <g>
   <path class="fil1" d="M854 1761l-107 -78 6 -8 106 79 -5 7zm34 20l-82 -20 2 -1 2 -1 2 -1 2 -1 1 -1 2 -2 2 -1 2 -1 1 -2 2 -1 1 -2 2 -1 1 -2 2 -1 1 -2 1 -2 1 -1 2 -2 1 -2 1 -2 1 -1 1 -2 1 -2 0 -2 1 -2 1 -2 1 -2 0 -2 1 -3 0 -2 1 -2 0 -2 0 0 43 73z"/>
  </g>
  <polyline class="fil0 str4" points="750,1672 888,1556 888,1217 "/>
  <path class="fil0 str1" d="M282 1764l0 -169m-63 169l0 -169"/>
  <line class="fil0 str4" x1="445" y1="2137" x2="445" y2= "1217" />
  <line class="fil0 str4" x1="219" y1="1679" x2="5" y2= "1679" />
  <g>
   <path class="fil1" d="M883 2635l0 -188 9 0 0 188 -9 0zm-43 0l0 -6 95 0 0 12 -95 0 0 -6z"/>
  </g>
  <g>
   <path class="fil1" d="M440 2638l0 -188 9 0 0 188 -9 0zm-43 0l0 -5 95 0 0 11 -95 0 0 -6z"/>
  </g>
  <path class="fil1" d="M1214 314l37 0 0 3c-4,0 -7,0 -8,1 -2,0 -3,2 -5,3 -1,2 -2,5 -3,9l-10 33c-2,6 -3,10 -3,11 0,3 -1,5 -1,7 0,5 2,9 6,12 4,4 10,5 16,5 5,0 9,0 12,-2 4,-2 7,-4 9,-7 2,-3 5,-7 7,-12 2,-5 3,-10 5,-15l7 -27c2,-6 3,-11 3,-13 0,-1 0,-2 -2,-3 -1,-1 -4,-2 -8,-2l1 -3 28 0 -1 3c-3,0 -5,0 -7,1 -1,0 -3,1 -4,3 -1,2 -2,5 -3,10l-10 34c-3,11 -6,19 -9,23 -2,5 -6,9 -11,12 -5,3 -12,4 -20,4 -8,0 -16,-2 -21,-7 -5,-5 -8,-11 -8,-17 0,-3 0,-6 1,-9 0,-1 1,-5 2,-9l9 -30c1,-5 2,-8 2,-10 0,-1 -1,-3 -2,-4 -1,0 -4,-1 -9,-1l0 -3z"/>
  <path id="1" class="fil1" d="M1355 369l-5 19 -1 0 0 -5c-1,-2 -1,-3 -1,-5 -1,-1 -2,-2 -3,-3 -1,-1 -2,-2 -4,-2 -1,-1 -3,-1 -5,-1 -5,0 -10,1 -14,4 -5,4 -9,9 -11,15 -3,6 -4,11 -4,17 0,5 2,10 5,13 4,4 8,5 13,5 4,0 8,-1 11,-2 3,-2 6,-5 9,-9l2 0c-3,5 -7,9 -11,11 -4,3 -8,4 -14,4 -4,0 -9,-1 -12,-3 -4,-2 -7,-5 -9,-8 -2,-4 -3,-8 -3,-12 0,-6 2,-13 6,-19 3,-6 8,-11 14,-14 6,-3 12,-5 18,-5 3,0 6,1 9,2 2,0 3,1 4,1 0,0 1,0 1,-1 1,0 2,-1 3,-2l2 0z"/>
  <path id="2" class="fil1" d="M1414 369l-5 19 -1 0 -1 -5c0,-2 0,-3 -1,-5 0,-1 -1,-2 -2,-3 -1,-1 -2,-2 -4,-2 -1,-1 -3,-1 -5,-1 -5,0 -10,1 -14,4 -5,4 -9,9 -11,15 -3,6 -4,11 -4,17 0,5 2,10 5,13 3,4 8,5 13,5 4,0 8,-1 11,-2 3,-2 6,-5 9,-9l2 0c-3,5 -7,9 -11,11 -4,3 -8,4 -14,4 -4,0 -9,-1 -12,-3 -4,-2 -7,-5 -9,-8 -2,-4 -3,-8 -3,-12 0,-6 2,-13 5,-19 4,-6 9,-11 15,-14 6,-3 12,-5 18,-5 2,0 6,1 9,2 2,0 3,1 4,1 0,0 1,0 1,-1 1,0 2,-1 3,-2l2 0z"/>
  <path class="fil1" d="M272 1437l2 30 -2 0c-2,-9 -6,-15 -11,-19 -5,-4 -11,-6 -18,-6 -6,0 -11,1 -16,4 -4,3 -8,8 -11,15 -2,6 -4,14 -4,24 0,8 2,15 4,20 3,6 6,11 12,14 5,3 10,4 17,4 6,0 11,-1 15,-3 4,-3 9,-7 14,-15l2 2c-4,7 -9,13 -15,17 -6,3 -13,5 -21,5 -14,0 -26,-5 -34,-16 -6,-8 -9,-18 -9,-28 0,-9 2,-17 6,-25 4,-7 10,-13 16,-17 7,-4 15,-6 23,-6 6,0 12,2 19,5 1,1 3,1 4,1 1,0 2,0 3,-1 1,-1 1,-3 2,-5l2 0z"/>
  <path id="1" class="fil1" d="M313 1511l0 15 -2 0c-1,-4 -3,-8 -5,-9 -1,-2 -4,-3 -7,-3 -2,0 -4,1 -5,2 -2,1 -2,2 -2,4 0,2 0,3 1,4 1,2 3,3 6,5l7 3c7,3 10,8 10,13 0,4 -1,7 -4,10 -4,2 -7,3 -11,3 -2,0 -6,0 -9,-1 -1,0 -2,-1 -3,-1 0,0 -1,1 -1,2l-2 0 0 -16 2 0c0,4 2,8 5,10 2,2 5,3 8,3 3,0 4,0 6,-2 1,-1 2,-2 2,-4 0,-3 -1,-4 -2,-6 -2,-1 -5,-3 -10,-6 -5,-2 -8,-4 -9,-6 -1,-2 -2,-4 -2,-7 0,-4 1,-7 4,-9 2,-3 5,-4 9,-4 2,0 4,1 7,1 1,1 2,1 3,1 0,0 1,0 1,0 0,-1 1,-1 1,-2l2 0z"/>
  <path class="fil1" d="M734 2354l-24 0 -30 -41c-2,0 -3,0 -5,0 0,0 -1,0 -2,0 0,0 -1,0 -1,0l0 25c0,6 0,9 1,11 2,1 4,2 8,2l3 0 0 3 -38 0 0 -3 4 0c3,0 6,-1 8,-3 1,-2 1,-5 1,-10l0 -57c0,-5 -1,-9 -2,-10 -1,-2 -4,-3 -7,-3l-4 0 0 -2 32 0c10,0 17,1 21,2 5,1 8,4 11,7 3,4 5,8 5,14 0,5 -2,10 -5,14 -4,4 -9,6 -17,8l19 25c4,6 7,10 10,12 3,2 7,3 12,3l0 3zm-62 -45c0,0 1,0 2,0 0,0 1,0 1,0 8,0 15,-2 19,-6 4,-3 6,-8 6,-14 0,-5 -2,-10 -5,-13 -3,-3 -8,-5 -13,-5 -3,0 -6,0 -10,1l0 37z"/>
  <path id="1" class="fil1" d="M751 2325l0 23 13 0c3,0 6,0 7,-1 1,-2 2,-4 2,-7l2 0 0 20 -2 0c0,-3 -1,-5 -1,-6 -1,-1 -1,-1 -3,-2 -1,0 -3,-1 -5,-1l-13 0 0 20c0,2 0,4 0,4 1,1 1,1 2,2 0,0 1,0 3,0l10 0c3,0 6,0 7,-1 2,0 3,-1 4,-2 2,-2 4,-5 6,-8l2 0 -5 14 -46 0 0 -1 2 0c2,0 3,-1 4,-1 1,-1 2,-1 2,-2 1,-1 1,-3 1,-6l0 -38c0,-4 -1,-6 -1,-7 -1,-1 -3,-2 -6,-2l-2 0 0 -1 46 0 0 13 -2 0c0,-3 -1,-6 -2,-7 0,-1 -1,-2 -3,-2 -1,-1 -3,-1 -6,-1l-16 0z"/>
  <path class="fil1" d="M230 2344l-23 0 -30 -41c-2,0 -4,0 -5,0 -1,0 -2,0 -2,0 -1,0 -2,0 -2,0l0 26c0,5 0,9 2,10 1,2 4,3 7,3l3 0 0 2 -37 0 0 -2 3 0c4,0 6,-1 8,-4 1,-1 1,-4 1,-9l0 -57c0,-6 0,-9 -1,-10 -2,-2 -5,-3 -8,-3l-3 0 0 -3 32 0c9,0 16,1 20,2 5,2 9,4 12,8 3,4 4,8 4,13 0,5 -2,10 -5,14 -4,4 -9,7 -16,9l18 25c4,6 7,9 10,11 3,2 7,3 12,4l0 2zm-62 -45c1,0 1,0 2,0 0,0 1,0 1,0 9,0 15,-2 19,-5 4,-4 6,-9 6,-14 0,-6 -1,-10 -5,-14 -3,-3 -8,-5 -13,-5 -3,0 -6,1 -10,2l0 36z"/>
  <path id="1" class="fil1" d="M270 2341c4,1 7,2 9,4 3,3 4,6 4,10 0,3 -1,5 -3,8 -2,3 -4,5 -7,6 -4,1 -8,2 -15,2l-28 0 0 -2 3 0c2,0 4,-1 5,-2 0,-1 1,-3 1,-7l0 -37c0,-4 -1,-6 -1,-7 -2,-2 -3,-2 -5,-2l-3 0 0 -2 26 0c4,0 8,1 11,1 4,1 8,3 10,6 2,2 3,5 3,9 0,3 -1,5 -2,8 -2,2 -5,4 -8,5zm-23 -3c1,1 2,1 4,1 1,0 3,0 4,0 4,0 8,0 10,-1 2,-1 3,-3 5,-4 1,-2 1,-4 1,-7 0,-3 -1,-6 -4,-8 -3,-3 -7,-4 -12,-4 -3,0 -6,0 -8,1l0 22zm0 29c3,0 7,1 10,1 5,0 9,-1 12,-4 3,-2 4,-5 4,-8 0,-3 -1,-5 -2,-7 -1,-2 -3,-4 -6,-5 -3,-1 -6,-2 -10,-2 -2,0 -4,0 -5,0 -1,0 -2,0 -3,1l0 24z"/>
  <path id="2" class="fil1" d="M328 2359l-4 12 -34 0 0 -2c10,-9 17,-17 21,-22 4,-6 6,-12 6,-17 0,-3 -1,-6 -3,-9 -2,-2 -5,-3 -8,-3 -3,0 -6,1 -8,2 -2,2 -4,4 -5,8l-2 0c1,-6 3,-10 6,-13 3,-3 7,-4 11,-4 5,0 9,2 12,5 3,3 5,6 5,10 0,3 -1,6 -2,9 -2,5 -6,10 -11,15 -7,8 -11,13 -13,14l15 0c3,0 5,0 7,0 1,0 2,-1 3,-2 1,0 2,-1 3,-3l1 0z"/>
  <path class="fil0 str5" d="M1282 2474l169 0m-169 -63l169 0"/>
  <g>
   <path class="fil1" d="M1371 2289l0 118 -9 0 0 -118 4 -4 5 4zm-5 -4l5 0 0 4 -5 -4zm-361 0l361 0 0 9 -361 0 0 -9zm-39 4l78 -33 -1 2 -1 2 -1 2 -1 2 -1 2 0 2 -1 2 -1 3 0 2 0 2 -1 2 0 2 0 2 -1 2 0 2 0 2 0 2 0 2 1 2 0 3 0 2 1 2 0 2 0 2 1 2 1 2 0 2 1 2 1 2 1 2 1 3 1 2 0 0 -78 -34z"/>
  </g>
  <g>
   <path class="fil1" d="M1362 2635l0 -157 9 0 0 157 -9 0zm-43 0l0 -6 95 0 0 12 -95 0 0 -6z"/>
  </g>
  <path class="fil2 str0" d="M476 1674c0,-18 -14,-32 -31,-32 -18,0 -32,14 -32,32 0,17 14,31 32,31 17,0 31,-14 31,-31z"/>
  <path class="fil1" d="M1538 2387l2 30 -2 0c-3,-9 -6,-16 -11,-20 -5,-4 -11,-6 -18,-6 -6,0 -11,2 -16,5 -5,3 -8,8 -11,14 -3,7 -4,15 -4,24 0,8 1,15 4,21 2,6 6,10 11,13 5,3 11,5 18,5 5,0 10,-1 15,-4 4,-2 9,-7 14,-14l2 1c-4,8 -9,14 -15,17 -6,4 -13,6 -21,6 -15,0 -26,-6 -34,-17 -6,-8 -9,-17 -9,-28 0,-9 2,-17 6,-24 4,-7 9,-13 16,-17 7,-4 15,-6 23,-6 6,0 12,1 18,4 2,1 3,2 4,2 1,0 2,0 3,-1 1,-1 2,-3 3,-5l2 0z"/>
  <path id="1" class="fil1" d="M1578 2461l0 15 -1 0c-1,-5 -3,-8 -5,-10 -2,-2 -4,-2 -7,-2 -2,0 -4,0 -6,1 -1,2 -2,3 -2,4 0,2 1,4 2,5 1,1 3,3 6,4l7 4c7,3 10,7 10,12 0,4 -2,8 -5,10 -3,3 -6,4 -10,4 -3,0 -6,-1 -9,-2 -1,0 -2,0 -3,0 -1,0 -1,0 -2,1l-1 0 0 -16 1 0c1,5 3,8 6,10 2,3 5,4 8,4 2,0 4,-1 6,-2 1,-1 2,-3 2,-5 0,-2 -1,-4 -3,-5 -1,-2 -4,-4 -9,-6 -5,-2 -8,-5 -9,-6 -2,-2 -2,-5 -2,-7 0,-4 1,-7 3,-10 3,-2 6,-3 10,-3 2,0 4,0 6,1 2,0 3,1 4,1 0,0 1,-1 1,-1 0,0 0,-1 1,-1l1 0z"/>
  <g>
   <path class="fil1" d="M453 349l0 547 -10 0 0 -547 5 -5 5 5zm-10 0l0 -5 5 0 -5 5zm661 5l-656 0 0 -10 656 0 0 10zm30 -42l0 12 0 0 -1 0 -1 0 -2 0 -1 0 -1 0 -1 1 -2 0 -1 1 -1 0 -1 1 -1 0 -1 1 -1 1 -1 0 -1 1 -1 1 -1 1 0 1 -1 1 -1 1 -1 1 0 1 -1 1 0 1 -1 1 0 1 0 2 -1 1 0 1 0 1 0 2 0 1 -11 0 0 -2 0 -2 0 -2 0 -1 1 -2 0 -2 1 -2 1 -1 0 -2 1 -1 1 -2 1 -1 1 -2 1 -1 1 -2 1 -1 2 -1 1 -1 1 -1 2 -1 1 -1 2 -1 1 -1 2 -1 2 0 1 -1 2 0 2 -1 2 0 1 0 2 -1 2 0 0 0zm37 37l-11 0 0 0 0 -1 -1 -2 0 -1 0 -1 0 -1 -1 -2 0 -1 0 -1 -1 -1 0 -1 -1 -1 -1 -1 0 -1 -1 -1 -1 -1 -1 -1 -1 -1 -1 -1 -1 0 -1 -1 -1 -1 -1 0 -1 -1 -1 0 -1 -1 -1 0 -1 -1 -2 0 -1 0 -1 0 -2 0 -1 0 0 -12 2 0 2 1 2 0 2 0 1 1 2 0 2 1 1 0 2 1 2 1 1 1 2 1 1 1 1 1 2 1 1 1 1 1 1 2 1 1 1 2 1 1 1 2 1 1 1 2 0 1 1 2 1 2 0 2 0 1 1 2 0 2 0 2 0 0zm-37 37l0 -12 0 0 1 0 2 0 1 0 1 0 2 0 1 -1 1 0 1 -1 1 0 1 -1 1 0 1 -1 1 -1 1 0 1 -1 1 -1 1 -1 1 -1 1 -1 0 -1 1 -1 1 -1 0 -1 1 -1 0 -1 0 -1 1 -2 0 -1 0 -1 0 -1 1 -2 0 -1 11 0 0 2 0 2 -1 2 0 1 0 2 -1 2 -1 2 0 1 -1 2 -1 1 -1 2 -1 1 -1 2 -1 1 -1 2 -1 1 -1 1 -2 1 -1 1 -1 1 -2 1 -1 1 -2 1 -2 1 -1 0 -2 1 -2 0 -1 1 -2 0 -2 0 -2 0 -2 1 0 0zm-36 -37l11 0 0 1 0 2 0 1 0 1 1 1 0 2 0 1 1 1 0 1 1 1 0 1 1 1 1 1 1 1 0 1 1 1 1 1 1 1 1 0 1 1 1 1 1 0 1 1 1 0 1 1 2 0 1 1 1 0 1 0 2 0 1 0 1 0 0 12 -2 -1 -2 0 -1 0 -2 0 -2 -1 -2 0 -1 -1 -2 0 -2 -1 -1 -1 -2 -1 -1 -1 -2 -1 -1 -1 -1 -1 -2 -1 -1 -1 -1 -2 -1 -1 -1 -2 -1 -1 -1 -2 -1 -1 0 -2 -1 -1 -1 -2 0 -2 -1 -2 0 -1 0 -2 0 -2 0 -2z"/>
  </g>
  <path class="fil1" d="M230 1109l-23 0 -30 -41c-2,0 -4,0 -5,0 -1,0 -2,0 -2,0 -1,0 -2,0 -2,0l0 26c0,5 0,9 2,10 1,2 4,3 7,3l3 0 0 2 -37 0 0 -2 3 0c4,0 6,-1 8,-4 1,-1 1,-4 1,-9l0 -57c0,-5 0,-9 -1,-10 -2,-2 -5,-3 -8,-3l-3 0 0 -2 32 0c9,0 16,0 20,2 5,1 9,3 12,7 3,4 4,8 4,13 0,6 -2,10 -5,14 -4,4 -9,7 -16,9l18 25c4,6 7,9 10,11 3,2 7,3 12,4l0 2zm-62 -45c1,0 1,0 2,0 0,0 1,0 1,0 9,0 15,-2 19,-5 4,-4 6,-8 6,-14 0,-6 -1,-10 -5,-13 -3,-4 -8,-6 -13,-6 -3,0 -6,1 -10,2l0 36z"/>
  <path id="1" class="fil1" d="M270 1106c4,1 7,2 9,4 3,3 4,6 4,10 0,3 -1,6 -3,8 -2,3 -4,5 -7,6 -4,1 -8,2 -15,2l-28 0 0 -2 3 0c2,0 4,0 5,-2 0,-1 1,-3 1,-6l0 -38c0,-4 -1,-6 -1,-7 -2,-1 -3,-2 -5,-2l-3 0 0 -2 26 0c4,0 8,1 11,1 4,1 8,3 10,6 2,2 3,6 3,9 0,3 -1,5 -2,8 -2,2 -5,4 -8,5zm-23 -2c1,0 2,0 4,0 1,0 3,0 4,0 4,0 8,0 10,-1 2,-1 3,-2 5,-4 1,-2 1,-4 1,-6 0,-4 -1,-7 -4,-9 -3,-3 -7,-4 -12,-4 -3,0 -6,1 -8,1l0 23zm0 28c3,0 7,1 10,1 5,0 9,-1 12,-4 3,-2 4,-5 4,-8 0,-3 -1,-5 -2,-7 -1,-2 -3,-4 -6,-5 -3,-1 -6,-2 -10,-2 -2,0 -4,0 -5,0 -1,0 -2,1 -3,1l0 24z"/>
  <path id="2" class="fil1" d="M298 1083l14 -7 2 0 0 50c0,3 0,5 0,6 0,1 1,1 2,2 1,0 3,0 5,0l0 2 -22 0 0 -2c3,0 5,0 5,0 1,-1 2,-1 2,-2 0,-1 1,-3 1,-6l0 -32c0,-4 -1,-7 -1,-8 0,-1 0,-2 -1,-2 0,-1 -1,-1 -2,-1 -1,0 -2,0 -4,1l-1 -1z"/>
  <polyline class="fil0 str4" points="1081,898 977,898 977,349 "/>
  <g>
   <path class="fil3" d="M1066 218l-169 0 0 -32 169 0 0 32zm0 -63l-169 0 0 -31 169 0 0 31z"/>
  </g>
  <line class="fil0 str4" x1="977" y1="349" x2="977" y2= "201" />
  <path class="fil2 str0" d="M1009 349c0,-17 -14,-31 -32,-31 -17,0 -31,14 -31,31 0,17 14,31 31,31 18,0 32,-14 32,-31z"/>
  <g>
   <path class="fil1" d="M986 6l0 134 -10 0 0 -134 10 0zm42 0l0 5 -94 0 0 -11 94 0 0 6z"/>
  </g>
  <polyline class="fil0 str4" points="5,1679 5,589 677,589 "/>
  <path class="fil2 str0" d="M709 589c0,-17 -14,-31 -32,-31 -17,0 -31,14 -31,31 0,17 14,31 31,31 18,0 32,-14 32,-31z"/>
  <path class="fil1" d="M1167 127l2 30 -2 0c-3,-9 -6,-15 -11,-19 -5,-4 -11,-6 -18,-6 -6,0 -11,1 -16,4 -5,3 -8,8 -11,14 -3,7 -4,15 -4,25 0,8 1,14 4,20 2,6 6,11 11,14 5,3 11,4 18,4 5,0 10,-1 15,-3 4,-3 9,-8 14,-15l2 2c-4,7 -9,13 -15,17 -6,3 -13,5 -21,5 -15,0 -26,-5 -34,-16 -6,-8 -9,-18 -9,-28 0,-9 2,-17 6,-25 4,-7 9,-13 16,-17 7,-4 15,-6 23,-6 6,0 12,2 18,5 2,1 4,1 4,1 1,0 2,0 3,-1 1,-1 2,-3 3,-5l2 0z"/>
  <path id="1" class="fil1" d="M1208 201l0 15 -2 0c-1,-5 -3,-8 -5,-9 -2,-2 -4,-3 -7,-3 -2,0 -4,1 -6,2 -1,1 -2,2 -2,4 0,2 1,3 2,4 1,2 3,3 6,5l7 3c7,3 10,7 10,13 0,4 -2,7 -5,9 -3,3 -6,4 -10,4 -3,0 -6,0 -9,-1 -1,-1 -2,-1 -3,-1 -1,0 -1,1 -2,1l-1 0 0 -15 1 0c1,4 3,8 6,10 2,2 5,3 8,3 2,0 4,0 6,-2 1,-1 2,-3 2,-4 0,-3 -1,-4 -3,-6 -1,-2 -4,-3 -9,-6 -5,-2 -8,-4 -9,-6 -2,-2 -2,-4 -2,-7 0,-4 1,-7 3,-9 3,-3 6,-4 10,-4 2,0 4,0 6,1 2,1 3,1 4,1 0,0 1,0 1,0 0,-1 1,-1 1,-2l2 0z"/>
  <path class="fil1" d="M1305 825l2 1 -7 24 -68 0 0 -3 3 0c4,0 6,-1 8,-3 1,-2 1,-5 1,-10l0 -57c0,-5 0,-9 -2,-10 -1,-2 -4,-3 -7,-3l-3 0 0 -2 39 0 0 2c-4,0 -8,0 -9,1 -2,1 -4,2 -4,4 -1,1 -1,4 -1,9l0 56c0,3 0,6 1,7 0,1 1,2 2,2 1,1 5,1 10,1l7 0c6,0 11,-1 14,-2 3,-1 5,-2 7,-5 3,-2 5,-6 7,-12z"/>
  <path id="1" class="fil1" d="M1325 770l22 -10 2 0 0 74c0,5 0,8 1,9 0,1 1,2 2,3 1,1 4,1 8,1l0 3 -33 0 0 -3c4,0 7,0 8,-1 1,-1 2,-1 2,-2 1,-2 1,-5 1,-10l0 -47c0,-7 0,-11 0,-13 -1,-1 -1,-2 -2,-3 -1,0 -2,-1 -3,-1 -2,0 -4,1 -7,2l-1 -2z"/>
  <path class="fil1" d="M1305 1018l2 0 -7 24 -68 0 0 -2 3 0c4,0 6,-2 8,-4 1,-1 1,-5 1,-9l0 -57c0,-6 0,-9 -2,-11 -1,-1 -4,-2 -7,-2l-3 0 0 -3 39 0 0 3c-4,0 -8,0 -9,1 -2,1 -4,2 -4,3 -1,2 -1,5 -1,10l0 55c0,4 0,6 1,8 0,1 1,1 2,2 1,0 5,0 10,0l7 0c6,0 11,0 14,-1 3,-1 5,-3 7,-5 3,-3 5,-7 7,-12z"/>
  <path id="1" class="fil1" d="M1371 1025l-7 17 -51 0 0 -2c15,-14 26,-26 32,-34 6,-9 9,-17 9,-25 0,-5 -1,-10 -5,-13 -3,-4 -7,-6 -12,-6 -4,0 -8,2 -12,4 -3,3 -6,6 -7,11l-3 0c1,-8 4,-14 9,-18 4,-4 10,-7 16,-7 7,0 13,3 18,7 5,5 7,10 7,17 0,4 -1,8 -3,13 -3,7 -8,14 -15,22 -11,12 -18,19 -20,21l22 0c5,0 8,0 10,0 2,-1 4,-1 5,-3 2,-1 3,-2 4,-4l3 0z"/>
  <path class="fil1" d="M870 859l2 28 -2 0c-2,-8 -6,-14 -10,-18 -5,-3 -10,-5 -16,-5 -6,0 -11,1 -15,4 -4,3 -8,7 -10,13 -2,6 -4,13 -4,22 0,7 1,14 4,19 2,5 6,9 10,12 5,3 10,4 16,4 5,0 10,-1 14,-3 4,-2 8,-7 13,-13l2 1c-4,7 -9,12 -14,16 -5,3 -12,5 -19,5 -14,0 -24,-5 -31,-15 -6,-8 -8,-16 -8,-26 0,-8 1,-16 5,-22 4,-7 9,-12 15,-16 6,-4 13,-6 20,-6 6,0 12,2 18,5 1,1 2,1 3,1 1,0 2,0 3,-1 1,-1 2,-3 2,-5l2 0z"/>
  <path class="fil2 str0" d="M920 1217c0,-17 -15,-31 -32,-31 -17,0 -31,14 -31,31 0,17 14,31 31,31 17,0 32,-14 32,-31z"/>
  <polyline class="fil0 str3" points="447,1217 388,1198 507,1158 388,1119 507,1080 388,1041 507,1002 388,963 507,924 447,904 "/>
  <polyline class="fil0 str3" points="444,2450 385,2431 504,2392 385,2353 504,2313 385,2274 504,2235 385,2196 504,2157 444,2137 "/>
  <polyline class="fil0 str3" points="887,2447 828,2428 947,2389 828,2350 947,2310 828,2271 947,2232 828,2193 947,2154 887,2134 "/>
 </g>
</svg>
