<?xml version="1.0" encoding="UTF-8"?>
<!DOCTYPE svg PUBLIC "-//W3C//DTD SVG 1.1//EN" "http://www.w3.org/Graphics/SVG/1.1/DTD/svg11.dtd">
<!-- Creator: CorelDRAW Home & Student X8 -->
<svg xmlns="http://www.w3.org/2000/svg" xml:space="preserve" width="115.773mm" height="94.051mm" version="1.1" style="shape-rendering:geometricPrecision; text-rendering:geometricPrecision; image-rendering:optimizeQuality; fill-rule:evenodd; clip-rule:evenodd"
viewBox="0 0 16391 13316"
 xmlns:xlink="http://www.w3.org/1999/xlink">
 <defs>
  <style type="text/css">
   <![CDATA[
    .str3 {stroke:#2B2A29;stroke-width:70.7889}
    .str5 {stroke:#2B2A29;stroke-width:28.3156;stroke-dasharray:56.631138 84.946707}
    .str4 {stroke:black;stroke-width:60.3122}
    .str0 {stroke:black;stroke-width:60.3122}
    .str1 {stroke:black;stroke-width:100.52}
    .str2 {stroke:black;stroke-width:140.728}
    .fil0 {fill:none}
    .fil2 {fill:black}
    .fil3 {fill:#2B2A29;fill-rule:nonzero}
    .fil1 {fill:black;fill-rule:nonzero}
   ]]>
  </style>
 </defs>
 <g id="Warstwa_x0020_1">
  <metadata id="CorelCorpID_0Corel-Layer"/>
  <g id="_455052336">
   <line class="fil0 str0" x1="5773" y1="3171" x2="6778" y2= "3171" />
   <line class="fil0 str0" x1="5773" y1="5182" x2="6778" y2= "5182" />
   <line class="fil0 str0" x1="10799" y1="4177" x2="11804" y2= "4177" />
   <polygon class="fil0 str1" points="6778,2166 6778,6187 10799,4177 "/>
   <polygon class="fil1" points="7401,4855 7513,4855 7513,5138 7789,5138 7789,5248 7513,5248 7513,5531 7401,5531 7401,5248 7125,5248 7125,5138 7401,5138 "/>
   <polygon class="fil1" points="7178,3285 7178,3148 7469,3148 7469,3285 "/>
   <line class="fil0 str0" x1="12810" y1="4177" x2="12810" y2= "5182" />
   <line class="fil0 str0" x1="12810" y1="7192" x2="12810" y2= "8197" />
   <line class="fil0 str0" x1="5773" y1="5182" x2="5773" y2= "6187" />
   <line class="fil0 str0" x1="5773" y1="8197" x2="5773" y2= "9203" />
   <line class="fil0 str0" x1="11804" y1="8197" x2="10799" y2= "8197" />
   <line class="fil0 str0" x1="11804" y1="10208" x2="10799" y2= "10208" />
   <line class="fil0 str0" x1="6778" y1="9203" x2="5773" y2= "9203" />
   <polygon class="fil0 str1" points="10799,7192 10799,11213 6778,9203 "/>
   <polygon class="fil1" points="10152,7928 10265,7928 10265,8210 10540,8210 10540,8320 10265,8320 10265,8603 10152,8603 10152,8320 9877,8320 9877,8210 10152,8210 "/>
   <polygon class="fil1" points="10036,10311 10036,10174 10328,10174 10328,10311 "/>
   <line class="fil0 str0" x1="7784" y1="12218" x2="8789" y2= "12218" />
   <line class="fil0 str0" x1="10799" y1="12218" x2="11804" y2= "12218" />
   <line class="fil0 str0" x1="10799" y1="1161" x2="9794" y2= "1161" />
   <line class="fil0 str0" x1="7784" y1="1161" x2="6778" y2= "1161" />
   <g>
    <path class="fil1" d="M1705 2973l0 0 10 1 10 0 10 2 10 1 9 3 10 2 9 4 9 3 9 4 8 4 9 5 8 5 7 6 8 6 7 6 7 7 7 6 6 8 6 7 5 8 5 8 5 8 4 9 4 8 4 9 3 10 3 9 2 10 2 9 1 10 1 10 0 10 -60 0 0 -7 -1 -7 -1 -7 -1 -6 -2 -7 -1 -6 -3 -7 -2 -6 -3 -6 -3 -6 -3 -6 -4 -5 -4 -6 -4 -5 -4 -5 -5 -5 -4 -4 -5 -5 -6 -4 -5 -4 -6 -3 -5 -4 -6 -3 -6 -2 -7 -3 -6 -2 -7 -2 -6 -1 -7 -2 -7 -1 -7 0 -7 0 0 0 0 -61zm-198 198l0 0 0 -10 1 -10 1 -10 2 -9 2 -10 3 -9 3 -10 4 -9 4 -8 4 -9 5 -8 5 -8 6 -8 6 -7 6 -8 6 -6 7 -7 7 -6 8 -6 8 -6 8 -5 8 -5 8 -4 9 -4 9 -3 9 -4 10 -2 9 -3 10 -1 10 -2 10 0 10 -1 0 61 -7 0 -7 0 -7 1 -6 2 -7 1 -7 2 -6 2 -6 3 -6 2 -6 3 -6 4 -6 3 -5 4 -5 4 -5 5 -5 4 -5 5 -4 5 -4 5 -4 6 -4 5 -3 6 -3 6 -3 6 -2 6 -2 7 -2 6 -2 7 -1 6 -1 7 0 7 0 7 0 0 -61 0zm198 198l0 0 -10 0 -10 -1 -10 -1 -10 -2 -9 -2 -10 -3 -9 -3 -9 -3 -9 -4 -8 -5 -8 -4 -8 -6 -8 -5 -8 -6 -7 -6 -7 -7 -6 -7 -6 -7 -6 -7 -6 -8 -5 -8 -5 -8 -4 -9 -4 -9 -4 -9 -3 -9 -3 -9 -2 -10 -2 -10 -1 -9 -1 -10 0 -11 61 0 0 7 0 7 1 7 1 7 2 7 2 6 2 7 2 6 3 6 3 6 3 6 4 5 4 6 4 5 4 5 5 5 5 4 5 5 5 4 5 3 6 4 6 3 6 3 6 3 6 3 6 2 7 2 7 1 6 1 7 1 7 1 7 0 0 0 0 60zm198 -198l0 11 -1 10 -1 9 -2 10 -2 10 -3 9 -3 9 -4 9 -4 9 -4 9 -5 8 -5 8 -5 8 -6 7 -6 7 -7 7 -7 7 -7 6 -8 6 -7 5 -8 6 -9 4 -8 5 -9 4 -9 3 -9 3 -10 3 -9 2 -10 2 -10 1 -10 1 -10 0 0 -60 7 0 7 -1 7 -1 7 -1 6 -1 7 -2 6 -2 7 -3 6 -3 6 -3 5 -3 6 -4 5 -3 6 -4 5 -5 4 -4 5 -5 4 -5 4 -5 4 -6 4 -5 3 -6 3 -6 3 -6 2 -6 3 -7 1 -6 2 -7 1 -7 1 -7 1 -7 0 -7 60 0zm854 31l-888 0 0 -61 888 0 0 61z"/>
   </g>
   <line class="fil0 str0" x1="4768" y1="3171" x2="5773" y2= "3171" />
   <line class="fil0 str0" x1="11804" y1="8197" x2="11804" y2= "9203" />
   <line class="fil0 str2" x1="11302" y1="9203" x2="12307" y2= "9203" />
   <g>
    <path class="fil1" d="M14076 4207l-2272 0 0 -61 2272 0 0 61zm163 -228l0 60 0 0 -7 0 -7 1 -7 1 -7 1 -6 1 -7 2 -6 2 -6 3 -6 3 -6 3 -6 3 -6 3 -5 4 -5 4 -5 5 -5 4 -5 5 -4 5 -4 5 -4 6 -4 5 -3 6 -3 6 -3 6 -2 6 -2 7 -2 6 -2 7 -1 7 -1 7 0 6 -1 8 -60 0 0 -11 1 -10 1 -9 2 -10 2 -10 3 -9 3 -9 4 -9 4 -9 4 -9 5 -8 5 -8 6 -8 5 -7 7 -7 6 -7 7 -7 7 -6 8 -6 8 -5 8 -6 8 -4 8 -5 9 -4 9 -3 9 -3 10 -3 9 -2 10 -2 10 -1 10 -1 10 0 0 0zm198 198l-60 0 0 0 0 -8 -1 -6 -1 -7 -1 -7 -2 -7 -1 -6 -3 -7 -2 -6 -3 -6 -3 -6 -3 -6 -4 -5 -4 -6 -4 -5 -4 -5 -5 -5 -5 -4 -5 -5 -5 -4 -5 -4 -6 -3 -6 -3 -5 -3 -7 -3 -6 -3 -6 -2 -7 -2 -6 -1 -7 -1 -7 -1 -7 -1 -7 0 0 -60 10 0 10 1 10 1 10 2 9 2 10 3 9 3 9 3 9 4 8 5 9 4 8 6 7 5 8 6 7 6 7 7 6 7 7 7 6 7 5 8 5 8 5 8 4 9 4 9 4 9 3 9 3 9 2 10 2 10 1 9 1 10 0 11 0 0zm-198 198l0 -61 0 0 7 0 7 -1 7 0 7 -2 6 -1 7 -2 6 -2 6 -3 7 -2 5 -3 6 -4 6 -3 5 -4 5 -4 5 -5 5 -4 5 -5 4 -5 4 -5 4 -6 4 -5 3 -6 3 -6 3 -6 2 -6 3 -7 1 -6 2 -7 1 -7 1 -6 1 -7 0 -7 60 0 0 10 -1 10 -1 10 -2 9 -2 10 -3 9 -3 10 -4 9 -4 8 -4 9 -5 8 -5 8 -5 8 -6 7 -7 8 -6 6 -7 7 -7 6 -8 6 -7 6 -8 5 -9 5 -8 4 -9 4 -9 3 -9 4 -10 2 -9 2 -10 2 -10 1 -10 1 -10 1 0 0zm-198 -198l60 0 1 7 0 7 1 6 1 7 2 7 2 6 2 7 2 6 3 6 3 6 3 6 4 5 4 6 4 5 4 5 5 5 5 4 5 5 5 4 5 4 6 3 6 4 6 3 6 2 6 3 6 2 7 2 6 1 7 2 7 0 7 1 7 0 0 61 -10 -1 -10 -1 -10 -1 -10 -2 -9 -2 -10 -2 -9 -4 -9 -3 -9 -4 -8 -4 -8 -5 -8 -5 -8 -6 -8 -6 -7 -6 -7 -7 -6 -6 -7 -8 -5 -7 -6 -8 -5 -8 -5 -8 -4 -9 -4 -8 -4 -9 -3 -10 -3 -9 -2 -10 -2 -9 -1 -10 -1 -10 0 -10z"/>
   </g>
   <polyline class="fil0 str0" points="12810,4177 12810,4177 12810,4177 12810,4177 12810,4177 "/>
   <polyline class="fil0 str0" points="12810,4177 12810,1161 10799,1161 10799,1161 10799,1161 "/>
   <path class="fil2 str0" d="M13011 4177c0,-111 -91,-201 -201,-201 -111,0 -202,90 -202,201 0,110 91,201 202,201 110,0 201,-91 201,-201z"/>
   <line class="fil0 str0" x1="5773" y1="3171" x2="5773" y2= "3171" />
   <polyline class="fil0 str0" points="5773,3171 5773,1161 6778,1161 6778,1161 6778,1161 "/>
   <polyline class="fil0 str0" points="5773,3171 5773,3171 5773,3171 5773,3171 5773,3171 "/>
   <path class="fil2 str0" d="M5974 3171c0,-110 -90,-201 -201,-201 -110,0 -201,91 -201,201 0,111 91,201 201,201 111,0 201,-90 201,-201z"/>
   <line class="fil0 str0" x1="5773" y1="5182" x2="5773" y2= "5182" />
   <polyline class="fil0 str0" points="5773,5182 5773,5182 5773,5182 5773,5182 5773,5182 "/>
   <line class="fil0 str0" x1="12810" y1="8197" x2="12810" y2= "8197" />
   <polyline class="fil0 str0" points="12810,8197 12810,10208 11804,10208 11804,10208 11804,10208 "/>
   <polyline class="fil0 str0" points="12810,8197 12810,12218 11804,12218 11804,12218 11804,12218 "/>
   <path class="fil2 str0" d="M13011 10208c0,-111 -91,-201 -201,-201 -111,0 -202,90 -202,201 0,110 91,201 202,201 110,0 201,-91 201,-201z"/>
   <line class="fil0 str0" x1="5773" y1="9203" x2="5773" y2= "9203" />
   <polyline class="fil0 str0" points="5773,9203 5773,9203 5773,9203 5773,9203 5773,9203 "/>
   <polyline class="fil0 str0" points="5773,9203 5773,12218 7784,12218 7784,12218 7784,12218 "/>
   <path class="fil2 str0" d="M5974 9203c0,-111 -90,-201 -201,-201 -110,0 -201,90 -201,201 0,110 91,201 201,201 111,0 201,-91 201,-201z"/>
   <line class="fil0 str0" x1="1752" y1="3171" x2="1752" y2= "3171" />
   <polyline class="fil0 str3" points="2757,3163 2925,2660 3260,3683 3595,2660 3930,3683 4266,2660 4601,3683 4768,3163 "/>
   <polyline class="fil0 str3" points="8789,12210 8956,11707 9291,12730 9627,11707 9962,12730 10297,11707 10632,12730 10799,12209 "/>
   <polyline class="fil0 str3" points="5765,8198 5261,8030 6285,7695 5261,7360 6285,7024 5261,6689 6285,6354 5764,6187 "/>
   <polyline class="fil0 str3" points="7783,1153 7951,649 8286,1673 8621,649 8956,1673 9291,649 9627,1673 9794,1152 "/>
   <polyline class="fil0 str3" points="12801,7192 12298,7024 13321,6689 12298,6354 13321,6019 12298,5684 13321,5349 12801,5182 "/>
   <line class="fil0 str4" x1="1752" y1="5165" x2="2757" y2= "5165" />
   <line class="fil0 str4" x1="4768" y1="5165" x2="5773" y2= "5165" />
   <line class="fil0 str4" x1="5773" y1="5165" x2="5773" y2= "5165" />
   <polyline class="fil0 str4" points="5773,5165 5773,5165 5773,5165 5773,5165 5773,5165 "/>
   <path class="fil2 str4" d="M5974 5165c0,-110 -90,-201 -201,-201 -110,0 -201,91 -201,201 0,111 91,201 201,201 111,0 201,-90 201,-201z"/>
   <line class="fil0 str4" x1="1752" y1="5165" x2="1752" y2= "5165" />
   <polyline class="fil0 str3" points="2757,5157 2925,4654 3260,5677 3595,4654 3930,5677 4266,4654 4601,5677 4768,5157 "/>
   <path class="fil0 str5" d="M2145 3516c804,-1451 70,-2016 2181,-2756 893,-313 1942,-127 2795,-348 357,-93 3351,-498 3863,-376 885,211 1060,360 1824,674 60,24 797,1095 814,1268 66,693 -59,2649 -911,2825 -557,116 -1245,152 -1735,496 -661,465 -1347,840 -2083,1154 -42,151 -283,99 -448,523 -71,184 -922,791 -1203,866 -1127,302 -422,744 -2194,703 -1280,-30 -1214,-47 -1970,-1009 -658,-839 -602,-1179 -695,-2240 -59,-671 -251,-1004 -208,-1740l-30 -40z"/>
   <path class="fil0 str5" d="M8110 7973c245,-181 288,1 727,-402 243,-224 1119,-707 1153,-1026 389,-251 768,-845 1212,-987 466,-150 2538,-1256 2633,-252 33,347 650,162 530,1882 -105,1502 -567,2418 126,3769 484,945 -58,1560 -1278,1830 -855,190 -1157,120 -1990,419 -991,357 -3072,-386 -4119,-612 -449,-96 -3098,-490 -3098,-900 0,-829 339,-1295 421,-2046 161,-1483 2695,-940 3683,-1675z"/>
   <path class="fil3" d="M1808 5571l-50 177c51,-73 91,-120 119,-143 27,-23 54,-34 80,-34 13,0 25,5 34,14 9,9 13,22 13,37 0,15 -4,36 -12,62l-54 163c-6,18 -9,30 -9,34 0,3 1,6 3,9 2,2 4,3 6,3 2,0 6,-1 10,-5 12,-10 25,-27 40,-49l12 7c-23,34 -45,58 -66,72 -14,10 -27,15 -38,15 -9,0 -17,-3 -22,-9 -5,-5 -8,-13 -8,-23 0,-12 5,-34 15,-64l52 -157c6,-19 10,-34 10,-45 0,-5 -2,-10 -6,-13 -3,-3 -8,-5 -13,-5 -8,0 -18,3 -29,10 -21,11 -42,30 -65,57 -23,27 -46,62 -72,103 -13,22 -24,46 -33,73l-18 64 -59 0 71 -245c8,-29 12,-47 12,-52 0,-6 -2,-11 -6,-15 -5,-4 -11,-7 -17,-7 -3,0 -9,1 -16,2l-15 2 -4 -14 135 -24z"/>
   <path id="1" class="fil3" d="M2341 5838c-27,33 -55,57 -82,72 -28,15 -57,23 -88,23 -37,0 -66,-10 -87,-31 -20,-21 -31,-49 -31,-84 0,-40 12,-79 34,-117 22,-39 52,-70 90,-94 37,-24 74,-36 110,-36 29,0 50,6 64,18 14,11 21,26 21,43 0,16 -5,30 -15,41 -7,9 -16,14 -26,14 -8,0 -15,-3 -20,-8 -6,-5 -8,-12 -8,-20 0,-4 1,-9 3,-13 2,-4 6,-9 12,-15 6,-6 9,-10 11,-13 1,-2 2,-5 2,-8 0,-6 -3,-10 -8,-14 -7,-5 -18,-8 -32,-8 -26,0 -51,9 -77,27 -25,18 -46,44 -64,77 -22,40 -33,80 -33,120 0,26 8,47 23,63 15,15 36,23 63,23 20,0 40,-5 60,-15 19,-10 42,-28 66,-55l12 10z"/>
   <path class="fil3" d="M1733 2785l-4 15 -215 0 5 -15c22,0 36,-2 43,-5 12,-5 20,-11 26,-19 8,-12 17,-34 26,-65l92 -320c8,-27 12,-47 12,-60 0,-7 -2,-13 -5,-17 -4,-5 -9,-9 -16,-11 -6,-3 -20,-4 -40,-4l5 -14 202 0 -5 14c-16,0 -29,2 -37,6 -11,6 -20,14 -26,25 -6,10 -14,34 -24,70l-92 319c-8,27 -12,44 -12,51 0,6 1,11 4,15 4,4 9,7 16,10 7,2 22,4 45,5z"/>
   <path class="fil3" d="M14452 3175c35,0 66,7 93,23 27,15 48,37 64,67 15,30 23,61 23,93 0,57 -17,116 -50,179 -33,62 -76,110 -129,142 -53,33 -108,50 -165,50 -41,0 -75,-9 -102,-28 -28,-18 -48,-42 -61,-71 -13,-30 -20,-59 -20,-87 0,-49 12,-98 36,-146 24,-49 52,-89 85,-121 33,-33 69,-58 106,-75 37,-18 77,-26 120,-26zm-14 25c-27,0 -52,6 -77,19 -25,13 -50,34 -74,63 -25,30 -47,68 -67,115 -24,59 -36,114 -36,166 0,37 10,69 29,98 19,29 48,43 88,43 23,0 47,-6 70,-18 23,-12 46,-32 71,-60 31,-36 57,-81 79,-137 21,-55 31,-107 31,-155 0,-35 -9,-66 -28,-94 -19,-27 -48,-40 -86,-40z"/>
   <path class="fil3" d="M4281 7772l-84 -257c-20,0 -39,-2 -60,-6l-48 168c-6,19 -9,35 -9,48 0,10 4,18 11,23 6,5 22,8 47,9l-3 15 -203 0 4 -15c20,0 33,-2 39,-5 11,-5 19,-11 24,-18 8,-13 17,-34 26,-65l92 -320c6,-22 9,-38 9,-50 0,-12 -5,-22 -14,-30 -10,-9 -24,-13 -42,-13l4 -14 173 0c58,0 100,11 125,33 26,22 39,50 39,86 0,34 -13,65 -40,94 -26,28 -62,46 -107,53l50 156c13,38 25,62 38,74 12,11 33,18 60,19l-4 15 -127 0zm-137 -286c16,3 31,4 44,4 44,0 79,-13 105,-38 26,-24 39,-55 39,-92 0,-29 -9,-51 -25,-67 -16,-15 -40,-23 -72,-23 -9,0 -19,1 -30,3l-61 213z"/>
   <path id="1" class="fil3" d="M4531 7294l129 -62 13 0 0 446c0,30 2,49 4,56 3,7 8,13 16,17 7,4 23,6 48,6l0 15 -200 0 0 -15c25,0 41,-2 48,-6 7,-4 12,-9 15,-15 3,-7 5,-26 5,-58l0 -286c0,-38 -2,-63 -4,-74 -2,-8 -5,-14 -10,-18 -5,-4 -11,-6 -18,-6 -9,0 -23,4 -40,12l-6 -12z"/>
   <path id="2" class="fil3" d="M4908 7593l97 -46 9 0 0 335c0,22 1,36 3,41 2,6 6,10 12,13 6,3 17,4 36,5l0 11 -150 0 0 -11c19,-1 31,-2 36,-5 5,-3 9,-7 11,-11 3,-5 4,-20 4,-43l0 -215c0,-29 -1,-47 -3,-56 -2,-6 -4,-11 -8,-13 -3,-3 -8,-5 -13,-5 -7,0 -17,3 -30,9l-4 -9z"/>
   <path class="fil3" d="M4517 2081l-85 -258c-19,1 -39,-1 -59,-5l-48 168c-6,19 -9,34 -9,48 0,10 3,17 11,23 6,4 21,7 47,9l-4 15 -202 0 4 -15c19,0 32,-2 39,-6 11,-4 19,-10 24,-18 8,-12 17,-33 26,-64l92 -320c6,-22 9,-38 9,-50 0,-12 -5,-22 -15,-31 -9,-8 -23,-12 -42,-12l5 -14 173 0c58,0 100,11 125,33 26,21 38,50 38,86 0,34 -13,65 -39,93 -26,29 -62,47 -108,54l51 155c13,39 25,63 38,75 12,11 32,18 60,19l-4 15 -127 0zm-138 -286c17,2 32,4 45,4 44,0 79,-13 105,-38 25,-25 38,-56 38,-93 0,-29 -8,-51 -24,-66 -16,-15 -41,-23 -73,-23 -8,0 -18,1 -29,3l-62 213z"/>
   <path id="1" class="fil3" d="M5040 1978l-37 103 -312 0 0 -15c92,-84 156,-152 194,-205 37,-53 56,-102 56,-146 0,-33 -10,-61 -31,-82 -20,-22 -45,-33 -73,-33 -27,0 -50,8 -71,23 -20,15 -36,37 -45,66l-15 0c7,-48 23,-84 50,-110 27,-26 61,-39 101,-39 43,0 79,14 108,42 29,27 43,60 43,98 0,26 -6,53 -19,80 -19,42 -50,87 -93,134 -65,70 -105,113 -120,127l136 0c28,0 48,-1 59,-3 11,-2 21,-7 30,-13 9,-6 17,-15 24,-27l15 0z"/>
   <path id="2" class="fil3" d="M5143 1902l97 -47 10 0 0 335c0,23 1,37 3,42 2,6 5,10 11,13 6,3 18,4 36,5l0 11 -150 0 0 -11c19,-1 31,-2 37,-5 5,-3 9,-7 11,-12 2,-4 3,-19 3,-43l0 -214c0,-29 -1,-48 -3,-56 -1,-6 -3,-11 -7,-14 -4,-3 -8,-4 -13,-4 -7,0 -17,3 -30,9l-5 -9z"/>
   <path class="fil3" d="M10091 2249l-84 -257c-20,0 -40,-2 -60,-6l-48 168c-6,19 -9,35 -9,48 0,10 4,18 11,24 6,4 22,7 47,9l-4 14 -202 0 4 -14c19,-1 32,-3 39,-6 11,-4 19,-10 24,-18 8,-12 17,-34 26,-65l92 -320c6,-21 9,-38 9,-49 0,-12 -5,-23 -14,-31 -10,-8 -24,-12 -42,-12l4 -14 173 0c58,0 100,10 125,32 26,22 38,51 38,87 0,34 -13,65 -39,93 -26,28 -62,46 -108,54l51 155c13,38 25,63 38,74 12,12 32,18 60,20l-4 14 -127 0zm-137 -285c16,2 31,3 44,3 44,0 79,-12 105,-37 25,-25 38,-56 38,-93 0,-29 -8,-51 -24,-66 -16,-16 -40,-24 -73,-24 -8,0 -18,2 -29,4l-61 213z"/>
   <path id="1" class="fil3" d="M10288 1821c15,-36 34,-63 58,-83 23,-19 51,-29 86,-29 42,0 75,14 97,41 17,21 26,43 26,66 0,39 -24,79 -73,120 33,12 58,31 74,54 17,24 26,52 26,84 0,45 -15,85 -44,119 -38,43 -93,65 -166,65 -35,0 -60,-4 -72,-13 -13,-9 -20,-19 -20,-29 0,-7 3,-14 9,-20 7,-5 14,-8 23,-8 6,0 13,1 20,3 4,1 14,6 30,14 15,9 26,14 32,15 10,3 20,5 31,5 27,0 50,-11 69,-31 20,-21 30,-45 30,-73 0,-21 -5,-41 -14,-60 -7,-15 -14,-26 -22,-34 -11,-10 -27,-19 -46,-28 -20,-8 -40,-13 -60,-13l-13 0 0 -12c21,-2 42,-10 62,-22 21,-12 36,-27 45,-44 10,-17 14,-36 14,-56 0,-27 -8,-49 -25,-65 -17,-17 -38,-25 -63,-25 -40,0 -74,22 -101,65l-13 -6z"/>
   <path id="2" class="fil3" d="M10717 2071l97 -47 10 0 0 335c0,22 1,36 3,42 2,5 6,9 11,12 6,3 18,5 36,5l0 11 -149 0 0 -11c18,0 30,-2 36,-5 5,-2 9,-6 11,-11 2,-5 4,-19 4,-43l0 -215c0,-28 -2,-47 -3,-55 -2,-6 -4,-11 -8,-14 -4,-3 -8,-4 -13,-4 -7,0 -17,3 -30,9l-5 -9z"/>
   <path class="fil3" d="M3337 6639l-84 -257c-20,0 -40,-2 -60,-6l-48 168c-6,19 -9,35 -9,48 0,10 4,18 11,24 6,4 22,7 47,9l-3 14 -203 0 4 -14c20,-1 32,-3 39,-6 11,-4 19,-10 24,-18 8,-12 17,-34 26,-65l92 -320c6,-21 9,-38 9,-49 0,-12 -5,-23 -14,-31 -10,-8 -24,-12 -42,-12l4 -14 173 0c58,0 100,10 125,32 26,22 39,51 39,87 0,34 -14,65 -40,93 -26,28 -62,46 -108,54l51 155c13,38 25,63 38,74 12,12 32,18 60,20l-4 14 -127 0zm-137 -285c16,2 31,3 44,3 44,0 79,-12 105,-37 25,-25 38,-56 38,-93 0,-29 -8,-51 -24,-66 -16,-16 -40,-23 -73,-23 -8,0 -18,1 -29,3l-61 213z"/>
   <path id="1" class="fil3" d="M3866 6444l0 56 -71 0 0 139 -65 0 0 -139 -223 0 0 -50 245 -351 43 0 0 345 71 0zm-136 0l0 -262 -185 262 185 0z"/>
   <path id="2" class="fil3" d="M3963 6461l97 -47 10 0 0 335c0,22 1,36 3,42 2,5 6,10 12,12 5,3 17,5 35,5l0 11 -149 0 0 -11c18,0 31,-2 36,-4 5,-3 9,-7 11,-12 2,-5 4,-19 4,-43l0 -214c0,-29 -1,-48 -3,-56 -2,-6 -4,-11 -8,-14 -3,-3 -8,-4 -13,-4 -7,0 -17,3 -30,9l-5 -9z"/>
   <path class="fil3" d="M8764 11299l-85 -257c-19,0 -39,-2 -59,-6l-48 168c-6,19 -9,35 -9,48 0,10 3,18 11,24 6,4 21,7 47,9l-4 14 -202 0 4 -14c19,-1 32,-3 39,-6 11,-4 19,-10 24,-18 8,-12 17,-34 26,-65l92 -320c6,-21 9,-38 9,-50 0,-12 -5,-22 -15,-30 -9,-9 -23,-12 -42,-12l5 -15 173 0c58,0 100,11 125,33 26,22 38,51 38,86 0,35 -13,66 -39,94 -26,28 -62,46 -108,54l51 155c13,38 25,63 38,74 12,12 32,18 60,20l-4 14 -127 0zm-138 -285c17,2 32,3 44,3 45,0 80,-12 106,-37 25,-25 38,-56 38,-93 0,-29 -8,-51 -24,-67 -16,-15 -41,-23 -73,-23 -8,0 -18,1 -29,4l-62 213z"/>
   <path id="1" class="fil3" d="M8961 10871c15,-36 34,-63 57,-83 23,-19 52,-29 87,-29 42,0 75,14 97,41 17,21 26,43 26,66 0,39 -24,79 -73,120 33,12 58,30 74,54 17,24 25,52 25,84 0,45 -14,85 -43,118 -38,44 -94,66 -166,66 -35,0 -60,-4 -73,-13 -12,-9 -19,-19 -19,-29 0,-7 3,-14 9,-20 6,-5 14,-8 22,-8 7,0 14,1 20,3 5,1 15,6 31,14 15,9 26,13 32,15 10,3 20,4 31,4 27,0 50,-10 69,-30 20,-21 30,-45 30,-73 0,-21 -5,-41 -14,-61 -7,-14 -14,-25 -22,-33 -11,-10 -27,-20 -46,-28 -20,-8 -40,-13 -60,-13l-13 0 0 -12c21,-2 41,-10 62,-22 21,-12 36,-27 45,-44 10,-17 14,-36 14,-57 0,-26 -8,-48 -25,-64 -17,-17 -38,-25 -63,-25 -40,0 -74,22 -101,65l-13 -6z"/>
   <path id="2" class="fil3" d="M9595 11402l-28 77 -234 0 0 -11c69,-63 118,-114 146,-154 28,-40 42,-76 42,-109 0,-25 -8,-46 -23,-62 -16,-16 -34,-24 -56,-24 -19,0 -37,5 -52,17 -16,11 -27,28 -35,49l-10 0c5,-36 17,-63 37,-82 21,-20 46,-29 76,-29 32,0 59,10 81,31 21,21 32,45 32,73 0,20 -4,40 -14,60 -14,32 -38,66 -70,101 -49,53 -79,85 -90,95l102 0c21,0 36,-1 44,-2 9,-2 16,-5 23,-10 7,-5 13,-11 18,-20l11 0z"/>
   <path class="fil3" d="M11643 7772l-84 -257c-20,0 -39,-2 -60,-6l-48 168c-6,19 -9,35 -9,48 0,10 4,18 11,23 6,5 22,8 47,9l-3 15 -203 0 4 -15c20,0 33,-2 39,-5 11,-5 19,-11 24,-18 8,-13 17,-34 26,-65l92 -320c6,-22 9,-38 9,-50 0,-12 -4,-22 -14,-30 -10,-9 -24,-13 -42,-13l5 -14 172 0c58,0 100,11 125,33 26,22 39,50 39,86 0,34 -13,65 -40,94 -26,28 -62,46 -107,53l51 156c12,38 24,62 37,74 12,11 33,18 60,19l-4 15 -127 0zm-137 -286c16,3 31,4 44,4 44,0 79,-13 105,-38 26,-24 39,-55 39,-92 0,-29 -9,-51 -25,-67 -16,-15 -40,-23 -72,-23 -9,0 -19,1 -30,3l-61 213z"/>
   <path id="1" class="fil3" d="M12167 7669l-38 103 -312 0 0 -15c92,-84 157,-152 194,-205 38,-53 56,-101 56,-145 0,-34 -10,-61 -30,-83 -21,-22 -45,-32 -74,-32 -26,0 -50,7 -70,22 -21,15 -36,37 -46,66l-15 0c7,-48 24,-84 51,-110 27,-26 60,-38 101,-38 43,0 79,14 107,41 29,28 44,60 44,98 0,26 -7,53 -19,80 -19,42 -51,87 -94,134 -65,71 -105,113 -120,127l137 0c28,0 47,-1 58,-3 12,-2 22,-7 31,-13 9,-6 17,-15 23,-27l16 0z"/>
   <path id="2" class="fil3" d="M12475 7875l-28 77 -234 0 0 -11c69,-63 117,-114 145,-154 28,-40 42,-76 42,-109 0,-25 -7,-46 -23,-62 -15,-16 -34,-25 -55,-25 -20,0 -37,6 -53,17 -15,12 -27,28 -34,50l-11 0c5,-36 18,-63 38,-83 20,-19 45,-28 76,-28 32,0 59,10 80,31 22,20 33,45 33,73 0,20 -5,40 -14,60 -15,32 -38,65 -71,101 -48,52 -78,84 -90,95l103 0c21,0 35,-1 44,-3 8,-1 16,-4 22,-9 7,-5 13,-12 18,-20l12 0z"/>
   <path class="fil3" d="M11406 2602l-189 656c-11,39 -17,67 -17,84 0,15 5,26 15,33 10,8 33,13 70,16l-6 22 -301 0 8 -22c32,-1 53,-3 64,-8 16,-7 28,-16 36,-28 13,-18 26,-50 40,-97l136 -471c8,-28 12,-45 13,-49 1,-8 2,-15 2,-23 0,-13 -4,-24 -11,-31 -8,-8 -18,-12 -31,-12 -10,0 -26,2 -47,7l-8 -22 198 -55 28 0z"/>
   <path class="fil3" d="M4942 11456l-396 0 0 -22c201,-176 333,-314 398,-415 30,-46 45,-95 45,-146 0,-41 -12,-74 -37,-99 -25,-26 -57,-39 -97,-39 -55,0 -100,27 -135,79l-21 -9c20,-50 49,-90 87,-118 39,-28 80,-42 124,-42 51,0 93,18 127,52 34,35 52,77 52,126 0,34 -6,66 -19,95 -19,46 -53,97 -104,154 -76,86 -178,186 -305,299l200 0c32,0 58,-7 79,-20 21,-14 35,-31 44,-53l24 0 -66 158z"/>
   <path class="fil3" d="M3794 9250l-4 15 -215 0 6 -15c22,0 36,-2 43,-5 11,-4 20,-11 25,-18 9,-13 18,-35 27,-66l92 -320c8,-26 12,-46 12,-60 0,-7 -2,-12 -5,-17 -4,-5 -9,-9 -16,-11 -7,-2 -20,-4 -40,-4l4 -14 202 0 -4 14c-17,0 -29,2 -37,6 -12,6 -21,14 -27,25 -6,10 -14,34 -23,70l-92 319c-9,27 -13,44 -13,51 0,6 2,11 5,15 3,5 9,8 16,10 7,2 22,4 44,5z"/>
   <path id="1" class="fil3" d="M3959 8787l129 -62 13 0 0 446c0,30 2,49 4,56 3,7 8,13 16,17 7,4 23,6 47,6l0 15 -199 0 0 -15c25,0 41,-2 48,-6 7,-4 12,-9 15,-15 3,-7 5,-26 5,-58l0 -286c0,-38 -2,-63 -4,-74 -2,-8 -5,-14 -10,-18 -5,-4 -11,-6 -18,-6 -9,0 -23,4 -40,12l-6 -12z"/>
   <g>
    <path class="fil3" d="M1266 7192l0 0 0 9 -1 8 -1 8 -2 8 -1 8 -3 8 -2 8 -3 8 -4 7 -3 7 -4 7 -5 7 -4 6 -5 6 -5 6 -6 6 -5 5 -6 6 -7 5 -6 4 -7 5 -7 3 -7 4 -7 3 -8 3 -7 3 -8 2 -8 2 -8 2 -9 1 -8 0 -8 1 0 -51 5 0 6 0 6 -1 6 -1 5 -1 6 -2 5 -2 5 -2 5 -2 5 -3 5 -2 5 -3 4 -4 5 -3 4 -4 4 -4 4 -4 3 -4 4 -4 3 -5 3 -4 3 -5 2 -5 2 -5 2 -5 2 -6 2 -5 1 -6 1 -5 1 -6 0 -6 0 -6 0 0 51 0zm-165 -165l0 0 8 0 8 1 9 1 8 1 8 2 8 3 7 2 8 3 7 3 7 4 7 4 7 4 6 5 7 5 6 5 5 6 6 5 5 6 5 7 4 6 5 7 4 7 3 7 4 7 3 8 2 7 3 8 1 8 2 8 1 8 1 9 0 8 -51 0 0 -6 0 -5 -1 -6 -1 -6 -1 -5 -2 -6 -2 -5 -2 -5 -2 -5 -2 -5 -3 -5 -3 -5 -3 -4 -4 -5 -3 -4 -4 -4 -4 -4 -4 -3 -5 -4 -4 -3 -5 -3 -5 -3 -5 -2 -5 -3 -5 -2 -5 -1 -6 -2 -5 -1 -6 -1 -6 -1 -6 0 -5 -1 0 0 0 -50zm-166 165l0 0 1 -8 0 -9 1 -8 2 -8 2 -8 2 -8 2 -7 3 -8 4 -7 3 -7 4 -7 5 -7 4 -6 5 -7 5 -6 6 -5 6 -6 6 -5 6 -5 6 -5 7 -4 7 -4 7 -4 7 -3 8 -3 7 -2 8 -3 8 -2 8 -1 9 -1 8 -1 9 0 0 50 -6 1 -6 0 -6 1 -6 1 -5 1 -6 2 -5 1 -5 2 -5 3 -5 2 -5 3 -5 3 -4 3 -4 4 -5 3 -4 4 -3 4 -4 4 -3 5 -4 4 -3 5 -2 5 -3 5 -2 5 -2 5 -2 5 -2 6 -1 5 -1 6 -1 6 0 5 0 6 0 0 -51 0zm166 166l-9 -1 -8 0 -9 -1 -8 -2 -8 -2 -8 -2 -7 -3 -8 -3 -7 -3 -7 -4 -7 -3 -7 -5 -6 -4 -6 -5 -6 -6 -6 -5 -6 -6 -5 -6 -5 -6 -4 -6 -5 -7 -4 -7 -3 -7 -4 -7 -3 -8 -2 -8 -2 -8 -2 -8 -2 -8 -1 -8 0 -8 -1 -9 51 0 0 6 0 6 1 6 1 5 1 6 2 5 2 6 2 5 2 5 3 5 2 5 3 4 4 5 3 4 4 4 3 4 4 4 5 4 4 3 4 4 5 3 5 2 5 3 5 2 5 2 5 2 6 2 5 1 6 1 6 1 6 0 6 0 0 51zm-22 1289l0 -1318 43 0 0 1318 -43 0zm-192 0l0 -25 427 0 0 51 -427 0 0 -26z"/>
   </g>
   <g>
    <path class="fil3" d="M15424 7051l0 0 -1 8 0 9 -1 8 -2 8 -2 8 -2 8 -3 7 -2 8 -4 7 -3 7 -4 7 -5 7 -4 6 -5 7 -5 6 -6 5 -6 6 -6 5 -6 5 -6 5 -7 4 -7 4 -7 4 -7 3 -8 3 -8 2 -7 3 -8 2 -9 1 -8 1 -8 1 -9 0 0 -50 6 -1 6 0 6 -1 5 -1 6 -1 5 -2 6 -1 5 -2 5 -3 5 -2 5 -3 4 -3 5 -3 4 -4 4 -3 4 -4 4 -4 4 -4 3 -5 4 -4 3 -5 2 -5 3 -5 2 -5 2 -5 2 -5 2 -6 1 -5 1 -6 1 -6 0 -5 0 -6 0 0 51 0zm-166 -166l0 0 9 1 8 0 8 1 9 2 8 2 7 2 8 3 8 3 7 3 7 4 7 4 7 4 6 4 6 5 6 6 6 5 6 6 5 6 5 6 4 6 5 7 4 7 3 7 4 8 2 7 3 8 2 8 2 8 2 8 1 8 0 8 1 9 -51 0 0 -6 0 -6 -1 -6 -1 -5 -1 -6 -2 -5 -2 -6 -2 -5 -2 -5 -3 -5 -2 -5 -3 -4 -4 -5 -3 -4 -4 -4 -4 -4 -4 -4 -4 -4 -4 -3 -5 -3 -4 -3 -5 -3 -5 -3 -5 -2 -5 -2 -6 -2 -5 -2 -6 -1 -5 -1 -6 -1 -6 0 -6 0 0 0 0 -51zm-165 166l0 0 0 -9 1 -8 1 -8 1 -8 2 -8 3 -8 2 -8 3 -7 3 -8 4 -7 4 -7 4 -7 5 -6 5 -6 5 -6 6 -6 5 -5 6 -6 7 -5 6 -4 7 -4 7 -4 7 -4 7 -3 8 -3 7 -3 8 -2 8 -2 8 -2 8 -1 9 0 8 -1 0 51 -6 0 -5 0 -6 1 -6 1 -5 1 -6 2 -5 2 -5 2 -5 2 -5 3 -5 3 -5 3 -4 3 -5 3 -4 4 -4 4 -4 4 -3 4 -4 4 -3 5 -3 4 -3 5 -2 5 -3 5 -2 5 -1 6 -2 5 -1 6 -1 5 -1 6 0 6 -1 6 0 0 -50 0zm165 165l-8 0 -9 -1 -8 -1 -8 -1 -8 -2 -8 -3 -7 -2 -8 -3 -7 -3 -7 -4 -7 -4 -7 -4 -6 -5 -7 -5 -6 -5 -5 -6 -6 -5 -5 -6 -5 -7 -5 -6 -4 -7 -4 -7 -4 -7 -3 -7 -3 -8 -2 -7 -3 -8 -2 -8 -1 -8 -1 -8 -1 -9 0 -8 50 0 1 6 0 5 1 6 1 6 1 5 2 6 1 5 2 5 3 5 2 5 3 5 3 5 3 4 4 5 3 4 4 4 4 4 4 3 5 4 4 3 5 3 5 3 5 2 5 3 5 2 5 1 6 2 5 1 6 1 6 1 5 0 6 1 0 50zm-21 1290l0 -1319 43 0 0 1319 -43 0zm-192 0l0 -25 427 0 0 50 -427 0 0 -25z"/>
   </g>
   <g>
    <path class="fil3" d="M1384 3834l71 377 0 0 -9 -7 -8 -6 -8 -6 -9 -6 -8 -5 -9 -5 -8 -5 -9 -4 -9 -5 -8 -4 -9 -3 -9 -4 -9 -3 -9 -2 -9 -3 -10 -2 -9 -2 -9 -2 -9 -1 -10 -1 -9 -1 -10 0 -10 0 -9 0 -10 0 -10 1 -10 1 -10 1 -10 2 -10 2 -10 2 -10 2 224 -311zm-587 2544l528 -2376 41 9 -528 2376 -41 -9z"/>
   </g>
   <g>
    <path class="fil3" d="M14692 4683l255 287 0 0 -11 -2 -10 -1 -10 0 -10 -1 -10 0 -10 0 -10 0 -10 1 -10 1 -9 1 -10 1 -9 2 -9 2 -9 2 -9 3 -9 3 -9 3 -9 3 -9 4 -9 4 -8 4 -9 5 -8 5 -8 5 -8 5 -8 6 -8 6 -8 6 -8 6 -8 7 -7 7 -8 7 32 -382zm546 1706l-510 -1531 40 -13 510 1530 -40 14z"/>
   </g>
   <path class="fil3" d="M21 4966l223 0 -4 15c-23,0 -39,2 -49,6 -10,4 -18,11 -25,21 -7,9 -14,27 -22,54l-58 197c-10,35 -17,58 -19,69 -3,16 -4,30 -4,43 0,28 12,53 36,72 24,20 57,30 98,30 26,0 50,-5 70,-15 21,-9 38,-23 53,-40 14,-18 28,-42 40,-72 12,-30 22,-60 31,-91l47 -162c11,-40 17,-67 17,-79 0,-9 -4,-16 -12,-22 -8,-6 -24,-10 -48,-11l4 -15 168 0 -4 15c-20,0 -34,2 -43,6 -8,3 -16,10 -22,20 -7,10 -14,29 -22,58l-60 206c-19,66 -36,114 -51,141 -15,27 -39,50 -70,69 -31,18 -70,27 -117,27 -53,0 -96,-15 -129,-45 -33,-30 -49,-64 -49,-103 0,-15 1,-32 4,-49 2,-12 8,-31 16,-60l53 -180c7,-26 11,-45 11,-57 0,-10 -4,-17 -11,-23 -7,-5 -26,-9 -56,-10l4 -15z"/>
   <path id="1" class="fil3" d="M686 5722l-4 14 -215 0 6 -14c22,-1 36,-3 43,-6 11,-4 20,-10 25,-18 9,-13 18,-34 27,-66l92 -320c8,-26 12,-46 12,-60 0,-7 -2,-12 -6,-17 -3,-5 -8,-8 -15,-11 -7,-2 -20,-3 -40,-3l4 -15 202 0 -4 15c-17,-1 -29,1 -37,6 -12,5 -21,13 -27,24 -6,11 -14,34 -23,70l-92 319c-9,27 -13,44 -13,51 0,6 2,11 5,16 3,4 9,7 16,9 7,2 22,4 44,6z"/>
   <path class="fil3" d="M15345 5250l223 0 -4 14c-23,0 -39,3 -49,6 -10,4 -18,11 -25,21 -7,10 -14,28 -22,54l-58 197c-10,35 -16,59 -18,70 -4,15 -5,29 -5,42 0,29 12,53 36,73 24,19 57,29 98,29 26,0 50,-5 71,-14 20,-10 38,-24 52,-41 15,-18 28,-42 40,-72 12,-30 22,-60 32,-91l46 -162c11,-40 17,-66 17,-79 0,-8 -4,-16 -12,-22 -8,-6 -23,-10 -48,-11l5 -14 167 0 -4 14c-20,0 -34,2 -43,6 -8,4 -16,10 -22,20 -7,10 -14,29 -22,58l-60 206c-19,67 -36,114 -51,141 -15,27 -38,50 -70,69 -31,18 -70,27 -116,27 -54,0 -97,-15 -130,-45 -33,-30 -49,-64 -49,-103 0,-15 2,-32 4,-49 3,-11 8,-31 16,-59l53 -181c8,-26 11,-45 11,-57 0,-10 -3,-17 -11,-23 -7,-5 -26,-8 -56,-10l4 -14z"/>
   <path id="1" class="fil3" d="M16211 5477c35,0 66,8 93,23 27,15 49,38 64,68 15,30 23,60 23,92 0,57 -17,117 -49,179 -33,63 -77,110 -130,143 -53,33 -108,49 -164,49 -41,0 -76,-9 -103,-27 -28,-18 -48,-42 -61,-72 -13,-29 -20,-58 -20,-86 0,-49 12,-98 36,-147 24,-48 52,-88 85,-121 34,-32 69,-57 106,-75 38,-17 78,-26 120,-26zm-14 25c-26,0 -52,6 -77,19 -25,13 -50,35 -74,64 -25,29 -47,67 -66,115 -25,58 -37,113 -37,165 0,37 10,70 29,99 19,28 48,42 88,42 24,0 47,-6 70,-17 23,-12 47,-32 72,-60 31,-36 57,-82 78,-137 21,-55 32,-107 32,-155 0,-36 -10,-67 -29,-94 -19,-27 -48,-41 -86,-41z"/>
  </g>
 </g>
</svg>
