<?xml version="1.0" encoding="UTF-8"?>
<!DOCTYPE svg PUBLIC "-//W3C//DTD SVG 1.1//EN" "http://www.w3.org/Graphics/SVG/1.1/DTD/svg11.dtd">
<!-- Creator: CorelDRAW Home & Student X8 -->
<svg xmlns="http://www.w3.org/2000/svg" xml:space="preserve" width="77.5274mm" height="54.6357mm" version="1.1" style="shape-rendering:geometricPrecision; text-rendering:geometricPrecision; image-rendering:optimizeQuality; fill-rule:evenodd; clip-rule:evenodd"
viewBox="0 0 3119 2198"
 xmlns:xlink="http://www.w3.org/1999/xlink">
 <defs>
  <style type="text/css">
   <![CDATA[
    .str5 {stroke:#2B2A29;stroke-width:20.118}
    .str0 {stroke:#2B2A29;stroke-width:12.0708}
    .str3 {stroke:black;stroke-width:17.1406}
    .str2 {stroke:black;stroke-width:17.1406}
    .str4 {stroke:black;stroke-width:17.1406}
    .str1 {stroke:black;stroke-width:17.1406}
    .fil1 {fill:none}
    .fil3 {fill:black}
    .fil2 {fill:#2B2A29;fill-rule:nonzero}
    .fil0 {fill:black;fill-rule:nonzero}
   ]]>
  </style>
 </defs>
 <g id="Warstwa_x0020_1">
  <metadata id="CorelCorpID_0Corel-Layer"/>
  <g id="_456719232">
   <g>
    <path class="fil0" d="M1626 1767l0 -1143 23 0 0 1143 -6 13 -17 -13zm17 13l-17 10 0 -23 17 13zm950 -572l-950 572 -11 -26 951 -571 10 0 0 25zm0 -25l22 12 -22 13 0 -25zm-950 -572l950 572 -10 25 -951 -571 -6 -13 17 -13zm-17 13l0 -23 17 10 -17 13z"/>
   </g>
   <polygon class="fil0" points="1678,834 1678,806 1766,806 1766,834 "/>
   <g id="_456735864">
    <g>
     <circle class="fil1 str0" cx="2209" cy="1195" r="86"/>
     <circle class="fil1 str0" cx="2382" cy="1195" r="86"/>
    </g>
    <ellipse class="fil1 str0" transform="matrix(3.7608E-14 1.42 -1.42 3.7608E-14 1772 1194.77)" rx="123" ry="64"/>
    <path class="fil1 str1" d="M1489 909l285 0 0 111m-285 460l285 0 0 -110"/>
    <g>
     <path class="fil0" d="M3017 1196l-541 0 0 -17 541 0 0 17zm46 -65l0 17 0 0 -2 0 -2 0 -2 1 -2 0 -2 0 -1 1 -2 1 -2 0 -2 1 -1 1 -2 1 -2 1 -1 1 -2 1 -1 1 -1 2 -2 1 -1 1 -1 2 -1 1 -1 2 -1 2 -1 1 -1 2 -1 2 0 2 -1 2 0 1 -1 2 0 2 0 2 0 2 -17 0 0 -3 0 -2 1 -3 0 -3 1 -3 0 -2 1 -3 1 -3 1 -2 2 -2 1 -3 2 -2 1 -2 2 -2 2 -2 1 -2 2 -2 2 -2 3 -2 2 -1 2 -2 2 -1 3 -1 2 -2 3 -1 2 0 3 -1 3 -1 3 0 2 -1 3 0 3 0 0 0zm56 56l-17 0 0 0 0 -2 0 -2 0 -2 -1 -2 0 -1 -1 -2 0 -2 -1 -2 -1 -2 0 -1 -1 -2 -1 -2 -2 -1 -1 -2 -1 -1 -1 -1 -2 -2 -1 -1 -2 -1 -1 -1 -2 -1 -1 -1 -2 -1 -2 -1 -1 0 -2 -1 -2 -1 -2 0 -2 0 -2 -1 -2 0 -2 0 0 -17 3 0 3 0 3 1 2 0 3 1 3 1 2 0 3 1 2 2 3 1 2 1 3 2 2 1 2 2 2 2 2 2 2 2 2 2 1 2 2 2 1 2 2 3 1 2 1 2 1 3 1 3 1 2 0 3 1 3 0 3 0 2 0 3 0 0zm-56 57l0 -18 0 0 2 0 2 0 2 0 2 0 2 -1 2 0 2 -1 1 -1 2 0 2 -1 1 -1 2 -1 1 -1 2 -2 1 -1 2 -1 1 -1 1 -2 1 -1 2 -2 1 -1 1 -2 0 -2 1 -2 1 -1 0 -2 1 -2 0 -2 1 -2 0 -2 0 -2 0 -2 17 0 0 3 0 3 0 3 -1 3 0 2 -1 3 -1 3 -1 2 -1 3 -1 2 -2 2 -1 3 -2 2 -1 2 -2 2 -2 2 -2 2 -2 2 -2 1 -2 2 -3 1 -2 2 -3 1 -2 1 -3 1 -2 1 -3 1 -3 0 -2 1 -3 0 -3 0 -3 1 0 0zm-56 -57l17 0 0 2 0 2 0 2 1 2 0 2 1 2 0 2 1 1 1 2 1 2 1 2 1 1 1 2 1 1 1 2 2 1 1 1 1 1 2 2 1 1 2 1 2 1 1 1 2 0 2 1 2 1 1 0 2 1 2 0 2 0 2 0 2 0 0 18 -3 -1 -3 0 -2 0 -3 -1 -3 0 -3 -1 -2 -1 -3 -1 -2 -1 -3 -1 -2 -2 -2 -1 -2 -2 -3 -1 -2 -2 -2 -2 -1 -2 -2 -2 -2 -2 -1 -2 -2 -3 -1 -2 -2 -2 -1 -3 -1 -2 -1 -3 0 -3 -1 -2 0 -3 -1 -3 0 -3 0 -3z"/>
    </g>
    <line class="fil1 str2" x1="1717" y1="338" x2="1717" y2= "338" />
    <path class="fil1 str3" d="M2293 338c303,0 115,0 418,0l0 857"/>
    <g>
     <path class="fil0" d="M333 853l0 0 2 0 3 0 3 0 3 1 3 1 2 0 3 1 2 1 3 1 2 2 3 1 2 1 2 2 2 2 2 1 2 2 2 2 2 2 2 2 1 3 2 2 1 2 1 3 1 2 1 3 1 2 1 3 1 3 0 3 1 2 0 3 0 3 -17 0 0 -2 -1 -2 0 -2 0 -2 -1 -2 0 -2 -1 -1 0 -2 -1 -2 -1 -2 -1 -1 -1 -2 -1 -1 -1 -2 -2 -1 -1 -2 -1 -1 -2 -1 -1 -1 -2 -1 -1 -1 -2 -1 -2 -1 -1 -1 -2 -1 -2 0 -2 -1 -2 0 -2 -1 -1 0 -2 0 -2 0 0 0 0 -17zm-57 56l0 0 0 -3 1 -3 0 -2 0 -3 1 -3 1 -3 1 -2 1 -3 1 -2 1 -3 1 -2 2 -2 2 -3 1 -2 2 -2 2 -2 2 -2 2 -1 2 -2 2 -2 2 -1 3 -1 2 -2 3 -1 2 -1 3 -1 3 0 2 -1 3 -1 3 0 3 0 3 0 0 17 -2 0 -2 0 -2 0 -2 1 -2 0 -2 1 -2 0 -2 1 -1 1 -2 1 -2 1 -1 1 -2 1 -1 1 -2 1 -1 1 -1 2 -2 1 -1 2 -1 1 -1 2 -1 1 -1 2 0 2 -1 2 -1 1 0 2 -1 2 0 2 0 2 -1 2 0 2 0 0 -17 0zm57 56l0 0 -3 0 -3 0 -3 0 -3 -1 -2 0 -3 -1 -3 -1 -2 -1 -3 -1 -2 -1 -3 -2 -2 -1 -2 -2 -2 -2 -2 -1 -2 -2 -2 -2 -2 -2 -1 -2 -2 -2 -2 -3 -1 -2 -1 -3 -1 -2 -1 -3 -1 -2 -1 -3 -1 -3 0 -2 0 -3 -1 -3 0 -3 17 0 0 2 1 2 0 2 0 2 1 2 0 2 1 1 1 2 0 2 1 2 1 1 1 2 1 1 1 2 2 1 1 2 1 1 2 1 1 1 2 2 1 1 2 0 2 1 1 1 2 1 2 0 2 1 2 0 2 1 2 0 2 0 2 0 0 0 0 17zm56 -56l0 3 0 3 -1 3 0 2 -1 3 -1 3 -1 2 -1 3 -1 2 -1 3 -1 2 -2 3 -1 2 -2 2 -2 2 -2 2 -2 2 -2 1 -2 2 -2 2 -2 1 -3 2 -2 1 -3 1 -2 1 -3 1 -2 1 -3 0 -3 1 -3 0 -3 0 -2 0 0 -17 2 0 2 0 1 0 2 -1 2 0 2 -1 2 0 2 -1 1 -1 2 -1 2 0 1 -1 2 -2 1 -1 2 -1 1 -1 1 -2 2 -1 1 -2 1 -1 1 -2 1 -1 1 -2 1 -2 0 -2 1 -1 0 -2 1 -2 0 -2 0 -2 1 -2 0 -2 17 0zm243 9l-253 0 0 -17 253 0 0 17z"/>
    </g>
    <line class="fil1 str2" x1="1203" y1="909" x2="1489" y2= "909" />
    <g>
     <path class="fil0" d="M333 1424l0 0 2 0 3 0 3 1 3 0 3 1 2 1 3 1 2 1 3 1 2 1 3 1 2 2 2 1 2 2 2 2 2 2 2 2 2 2 2 2 1 2 2 2 1 3 1 2 1 3 1 2 1 3 1 2 1 3 0 3 1 3 0 3 0 2 -17 0 0 -2 -1 -2 0 -2 0 -1 -1 -2 0 -2 -1 -2 0 -2 -1 -1 -1 -2 -1 -2 -1 -1 -1 -2 -1 -1 -2 -2 -1 -1 -1 -1 -2 -2 -1 -1 -2 -1 -1 -1 -2 -1 -2 -1 -1 -1 -2 0 -2 -1 -2 0 -2 -1 -2 0 -1 0 -2 -1 -2 0 0 0 0 -17zm-57 56l0 0 0 -2 1 -3 0 -3 0 -3 1 -3 1 -2 1 -3 1 -2 1 -3 1 -2 1 -3 2 -2 2 -2 1 -2 2 -2 2 -2 2 -2 2 -2 2 -2 2 -1 2 -2 3 -1 2 -1 3 -1 2 -1 3 -1 3 -1 2 -1 3 0 3 -1 3 0 3 0 0 17 -2 0 -2 1 -2 0 -2 0 -2 1 -2 0 -2 1 -2 0 -1 1 -2 1 -2 1 -1 1 -2 1 -1 1 -2 2 -1 1 -1 1 -2 2 -1 1 -1 2 -1 1 -1 2 -1 2 0 1 -1 2 -1 2 0 2 -1 2 0 1 0 2 -1 2 0 2 0 0 -17 0zm57 57l0 0 -3 0 -3 -1 -3 0 -3 0 -2 -1 -3 -1 -3 -1 -2 -1 -3 -1 -2 -1 -3 -1 -2 -2 -2 -2 -2 -1 -2 -2 -2 -2 -2 -2 -2 -2 -1 -2 -2 -2 -2 -2 -1 -3 -1 -2 -1 -3 -1 -2 -1 -3 -1 -3 -1 -2 0 -3 0 -3 -1 -3 0 -3 17 0 0 2 1 2 0 2 0 2 1 2 0 2 1 2 1 2 0 1 1 2 1 2 1 1 1 2 1 1 2 2 1 1 1 1 2 2 1 1 2 1 1 1 2 1 2 1 1 0 2 1 2 1 2 0 2 1 2 0 2 0 2 1 2 0 0 0 0 17zm56 -57l0 3 0 3 -1 3 0 3 -1 2 -1 3 -1 3 -1 2 -1 3 -1 2 -1 3 -2 2 -1 2 -2 2 -2 2 -2 2 -2 2 -2 2 -2 1 -2 2 -2 2 -3 1 -2 1 -3 1 -2 1 -3 1 -2 1 -3 1 -3 0 -3 0 -3 1 -2 0 0 -17 2 0 2 -1 1 0 2 0 2 -1 2 0 2 -1 2 -1 1 0 2 -1 2 -1 1 -1 2 -1 1 -1 2 -2 1 -1 1 -1 2 -2 1 -1 1 -2 1 -1 1 -2 1 -2 1 -1 0 -2 1 -2 0 -2 1 -2 0 -2 0 -2 1 -2 0 -2 17 0zm243 9l-253 0 0 -17 253 0 0 17z"/>
    </g>
    <line class="fil1 str2" x1="1203" y1="1480" x2="1489" y2= "1480" />
    <g>
     <path class="fil0" d="M333 1996l0 0 2 0 3 0 3 0 3 1 3 0 2 1 3 1 2 1 3 1 2 1 3 2 2 1 2 2 2 1 2 2 2 2 2 2 2 2 2 2 1 2 2 3 1 2 1 2 1 3 1 2 1 3 1 3 1 2 0 3 1 3 0 3 0 3 -17 0 0 -2 -1 -2 0 -2 0 -2 -1 -2 0 -2 -1 -2 0 -1 -1 -2 -1 -2 -1 -1 -1 -2 -1 -2 -1 -1 -2 -1 -1 -2 -1 -1 -2 -1 -1 -2 -2 -1 -1 -1 -2 -1 -2 0 -1 -1 -2 -1 -2 -1 -2 0 -2 -1 -2 0 -1 0 -2 0 -2 0 0 0 0 -17zm-57 56l0 0 0 -3 1 -3 0 -3 0 -3 1 -2 1 -3 1 -3 1 -2 1 -3 1 -2 1 -2 2 -3 2 -2 1 -2 2 -2 2 -2 2 -2 2 -2 2 -1 2 -2 2 -1 3 -2 2 -1 3 -1 2 -1 3 -1 3 -1 2 0 3 -1 3 0 3 0 3 0 0 17 -2 0 -2 0 -2 0 -2 0 -2 1 -2 0 -2 1 -2 1 -1 1 -2 0 -2 1 -1 1 -2 1 -1 2 -2 1 -1 1 -1 2 -2 1 -1 1 -1 2 -1 2 -1 1 -1 2 0 2 -1 1 -1 2 0 2 -1 2 0 2 0 2 -1 2 0 2 0 0 -17 0zm57 56l0 0 -3 0 -3 0 -3 -1 -3 0 -2 -1 -3 0 -3 -1 -2 -1 -3 -2 -2 -1 -3 -1 -2 -2 -2 -1 -2 -2 -2 -2 -2 -1 -2 -2 -2 -2 -1 -3 -2 -2 -2 -2 -1 -2 -1 -3 -1 -2 -1 -3 -1 -3 -1 -2 -1 -3 0 -3 0 -2 -1 -3 0 -3 17 0 0 2 1 2 0 2 0 2 1 2 0 1 1 2 1 2 0 2 1 1 1 2 1 2 1 1 1 2 2 1 1 1 1 2 2 1 1 1 2 1 1 1 2 1 2 1 1 1 2 1 2 0 2 1 2 0 2 0 2 1 2 0 2 0 0 0 0 17zm56 -56l0 3 0 3 -1 2 0 3 -1 3 -1 2 -1 3 -1 3 -1 2 -1 3 -1 2 -2 2 -1 2 -2 3 -2 2 -2 2 -2 1 -2 2 -2 2 -2 1 -2 2 -3 1 -2 1 -3 2 -2 1 -3 1 -2 0 -3 1 -3 0 -3 1 -3 0 -2 0 0 -17 2 0 2 0 1 -1 2 0 2 0 2 -1 2 0 2 -1 1 -1 2 -1 2 -1 1 -1 2 -1 1 -1 2 -1 1 -2 1 -1 2 -1 1 -2 1 -1 1 -2 1 -2 1 -1 1 -2 0 -2 1 -2 0 -1 1 -2 0 -2 0 -2 1 -2 0 -2 17 0zm243 8l-253 0 0 -17 253 0 0 17z"/>
    </g>
    <line class="fil1 str2" x1="1203" y1="2052" x2="1489" y2= "2052" />
    <path class="fil2" d="M2955 982c10,0 19,2 26,7 8,4 14,10 18,19 5,8 7,17 7,26 0,16 -5,33 -14,51 -9,18 -22,31 -37,41 -15,9 -30,14 -47,14 -11,0 -21,-3 -29,-8 -8,-5 -13,-12 -17,-20 -4,-9 -6,-17 -6,-25 0,-14 4,-28 10,-42 7,-13 15,-25 25,-34 9,-9 19,-16 30,-21 11,-5 22,-8 34,-8zm-4 7c-8,0 -15,2 -22,6 -7,3 -14,9 -21,18 -7,8 -13,19 -19,32 -7,17 -10,33 -10,47 0,11 3,20 8,28 5,9 14,13 25,13 7,0 13,-2 20,-5 6,-4 13,-9 20,-18 9,-10 16,-23 22,-38 6,-16 10,-31 10,-44 0,-11 -3,-19 -9,-27 -5,-8 -13,-12 -24,-12z"/>
    <line class="fil1 str2" x1="1489" y1="909" x2="1489" y2= "909" />
    <polyline class="fil1 str2" points="1489,909 1489,338 1717,338 1717,338 1717,338 "/>
    <polyline class="fil1 str2" points="1489,909 1489,909 1489,909 1489,909 1489,909 "/>
    <path class="fil3 str2" d="M1546 909c0,-31 -26,-57 -57,-57 -32,0 -57,26 -57,57 0,32 25,57 57,57 31,0 57,-25 57,-57z"/>
    <path class="fil2" d="M1381 784l25 -35c6,-9 10,-15 10,-18 0,-1 -1,-2 -2,-3 -2,-1 -6,-2 -12,-2l1 -4 41 0 -1 4c-4,0 -7,1 -8,1 -2,1 -5,3 -7,5 -3,3 -7,8 -13,16l-33 45 -9 32c-3,8 -4,14 -4,17 0,2 0,3 1,5 1,1 2,1 4,2 2,1 6,1 11,1l-1 4 -55 0 1 -4c6,0 9,0 11,-1 3,-1 5,-3 7,-5 2,-3 4,-8 7,-16l11 -38 -14 -46c-2,-8 -5,-13 -7,-15 -2,-2 -6,-3 -11,-3l1 -4 49 0 -2 4c-6,0 -9,1 -10,1 -1,0 -3,1 -4,3 0,1 -1,3 -1,4 0,3 1,8 3,14l11 36z"/>
    <line class="fil1 str2" x1="1489" y1="1480" x2="1489" y2= "1480" />
    <polyline class="fil1 str2" points="1489,1480 1489,1480 1489,1480 1489,1480 1489,1480 "/>
    <polyline class="fil1 str2" points="1489,1480 1489,2052 1489,2052 1489,2052 1489,2052 "/>
    <path class="fil3 str2" d="M1546 1480c0,-31 -26,-57 -57,-57 -32,0 -57,26 -57,57 0,32 25,58 57,58 31,0 57,-26 57,-58z"/>
    <path class="fil2" d="M1447 1230l51 0 -1 4c-7,1 -14,3 -19,6 -5,4 -13,10 -22,20l-39 39 11 41c1,4 3,10 6,18 2,5 3,9 5,11 2,2 4,4 7,5 3,1 7,2 12,2l-1 4 -59 0 1 -4c6,0 11,-1 13,-3 2,-2 3,-4 3,-6 0,-2 -1,-7 -3,-14l-10 -38 -35 36c-7,7 -11,12 -13,14 -1,1 -1,3 -1,4 0,2 1,4 3,5 1,1 5,2 10,2l-1 4 -50 0 1 -4c6,0 11,-2 15,-4 6,-4 14,-10 25,-21l43 -44 -12 -43c-3,-14 -7,-22 -9,-25 -3,-3 -8,-5 -14,-5l1 -4 54 0 -2 4c-5,0 -8,0 -10,1 -2,0 -3,1 -4,3 -1,1 -1,2 -1,4 0,2 1,6 2,12l11 38 23 -24c10,-9 16,-17 19,-22 2,-2 2,-4 2,-6 0,-2 0,-3 -2,-4 -2,-1 -6,-2 -11,-2l1 -4z"/>
    <line class="fil1 str2" x1="346" y1="909" x2="346" y2= "909" />
    <path class="fil2" d="M64 1529l-1 4 -61 0 1 -4c6,-1 10,-1 12,-2 4,-1 6,-3 8,-5 2,-4 5,-10 7,-19l26 -91c3,-7 4,-13 4,-17 0,-2 -1,-3 -2,-5 -1,-1 -2,-2 -4,-3 -2,-1 -6,-1 -12,-1l2 -4 57 0 -1 4c-5,0 -8,1 -11,2 -3,1 -6,4 -7,7 -2,3 -4,9 -7,20l-26 90c-2,8 -4,13 -4,15 0,2 1,3 2,4 1,1 2,2 4,3 2,1 6,1 13,2z"/>
    <path id="1" class="fil2" d="M111 1397l36 -18 4 0 0 127c0,8 0,14 1,16 1,2 2,4 5,5 2,1 6,1 13,2l0 4 -57 0 0 -4c8,-1 12,-1 14,-2 2,-1 4,-3 4,-5 1,-1 2,-7 2,-16l0 -81c0,-11 -1,-18 -1,-21 -1,-3 -2,-4 -3,-6 -2,-1 -3,-1 -5,-1 -3,0 -7,1 -12,3l-1 -3z"/>
    <line class="fil1 str2" x1="346" y1="1480" x2="346" y2= "1480" />
    <path class="fil2" d="M69 979l-1 5 -61 0 2 -5c6,0 10,0 12,-1 3,-1 6,-3 7,-5 2,-4 5,-10 8,-19l26 -91c2,-7 3,-13 3,-17 0,-2 0,-3 -1,-5 -1,-1 -3,-2 -5,-3 -2,-1 -6,-1 -11,-1l1 -4 57 0 -1 4c-4,0 -8,1 -10,2 -4,1 -6,4 -8,7 -2,3 -4,9 -7,20l-26 90c-2,8 -3,13 -3,15 0,2 0,3 1,4 1,1 3,2 5,3 2,1 6,1 12,1z"/>
    <path id="1" class="fil2" d="M194 954l-11 30 -89 0 0 -5c27,-23 45,-43 56,-58 10,-15 16,-29 16,-41 0,-10 -3,-18 -9,-24 -6,-6 -13,-9 -21,-9 -8,0 -14,2 -20,6 -6,5 -10,11 -13,19l-4 0c2,-13 6,-24 14,-31 8,-7 17,-11 29,-11 12,0 22,4 30,12 9,8 13,17 13,28 0,7 -2,15 -6,22 -5,12 -14,25 -26,38 -19,21 -30,33 -34,37l38 0c8,0 14,-1 17,-1 3,-1 6,-2 9,-4 2,-2 5,-4 6,-8l5 0z"/>
    <line class="fil1 str2" x1="346" y1="2052" x2="346" y2= "2052" />
    <path class="fil2" d="M62 2109l-1 4 -61 0 2 -4c6,0 10,-1 12,-2 3,-1 6,-3 7,-5 3,-3 5,-9 8,-18l26 -91c2,-8 3,-14 3,-17 0,-2 0,-4 -1,-5 -1,-2 -3,-3 -5,-3 -2,-1 -6,-1 -11,-1l1 -5 58 0 -2 5c-4,0 -8,0 -10,1 -4,2 -6,4 -8,7 -2,3 -4,10 -7,20l-26 91c-2,7 -3,12 -3,14 0,2 0,3 1,5 1,1 3,2 5,2 2,1 6,2 12,2z"/>
    <path id="1" class="fil2" d="M94 1991c4,-10 10,-18 16,-23 7,-6 15,-8 25,-8 12,0 21,3 28,11 4,6 7,12 7,19 0,11 -7,22 -21,34 10,4 17,9 21,15 5,7 7,15 7,24 0,13 -4,24 -12,34 -11,12 -26,19 -47,19 -10,0 -17,-2 -21,-4 -3,-3 -5,-5 -5,-8 0,-2 1,-4 2,-6 2,-2 4,-2 7,-2 2,0 3,0 5,0 2,1 4,2 9,5 4,2 7,3 9,4 3,1 6,1 9,1 8,0 14,-3 20,-9 5,-6 8,-13 8,-20 0,-6 -1,-12 -4,-18 -2,-4 -4,-7 -6,-9 -3,-3 -8,-6 -13,-8 -6,-2 -11,-4 -17,-4l-4 0 0 -3c6,-1 12,-3 18,-6 6,-4 10,-8 13,-13 2,-5 4,-10 4,-16 0,-8 -3,-14 -8,-18 -4,-5 -10,-7 -17,-7 -12,0 -22,6 -29,18l-4 -2z"/>
    <path class="fil3 str4" d="M2769 1194c0,-32 -26,-57 -58,-57 -31,0 -57,25 -57,57 0,31 26,57 57,57 32,0 58,-26 58,-57z"/>
    <path class="fil2" d="M902 1298l-24 -73c-6,0 -11,-1 -17,-2l-14 48c-2,5 -3,10 -3,14 0,2 2,5 4,6 1,2 6,2 13,3l-1 4 -58 0 2 -4c5,0 9,-1 11,-2 3,-1 5,-3 6,-5 3,-3 5,-9 8,-18l26 -91c2,-6 3,-11 3,-14 0,-4 -2,-7 -5,-9 -2,-2 -6,-4 -11,-3l1 -5 49 0c16,0 28,4 36,10 7,6 10,14 10,24 0,10 -3,19 -11,27 -7,8 -17,13 -30,15l14 44c4,11 7,18 11,21 3,4 9,5 17,6l-1 4 -36 0zm-39 -81c4,0 8,1 12,1 13,0 23,-4 30,-11 7,-7 11,-16 11,-26 0,-8 -2,-15 -7,-19 -5,-4 -11,-7 -21,-7 -2,0 -5,1 -8,1l-17 61z"/>
    <path id="1" class="fil2" d="M973 1162l36 -18 4 0 0 127c0,9 0,14 1,16 1,2 2,4 5,5 2,1 6,2 13,2l0 4 -57 0 0 -4c8,0 12,-1 14,-2 2,-1 4,-2 4,-4 1,-2 2,-8 2,-17l0 -81c0,-11 -1,-18 -1,-21 -1,-2 -2,-4 -3,-5 -2,-1 -3,-2 -5,-2 -3,0 -7,1 -12,4l-1 -4z"/>
    <path class="fil2" d="M893 728l-24 -73c-6,0 -12,0 -17,-1l-14 47c-2,6 -3,10 -3,14 0,3 1,5 4,7 1,1 6,2 13,2l-1 4 -58 0 2 -4c5,0 9,0 11,-1 3,-2 5,-3 6,-5 3,-4 5,-10 8,-19l26 -91c2,-6 3,-11 3,-14 0,-3 -2,-6 -5,-9 -2,-2 -6,-3 -12,-3l2 -4 49 0c16,0 28,3 35,9 8,6 11,15 11,25 0,9 -3,18 -11,26 -7,8 -18,13 -30,16l14 44c4,10 7,18 11,21 3,3 9,5 17,5l-1 4 -36 0zm-40 -81c5,1 9,1 13,1 13,0 23,-3 30,-10 7,-7 11,-16 11,-27 0,-8 -2,-14 -7,-19 -5,-4 -12,-6 -21,-6 -2,0 -5,0 -8,1l-18 60z"/>
    <path id="1" class="fil2" d="M1041 699l-10 29 -89 0 0 -4c26,-24 44,-43 55,-58 11,-15 16,-29 16,-41 0,-10 -3,-18 -9,-24 -6,-6 -12,-9 -21,-9 -7,0 -14,2 -20,6 -5,5 -10,11 -13,19l-4 0c2,-13 7,-24 15,-31 7,-7 17,-11 28,-11 13,0 23,4 31,12 8,8 12,17 12,27 0,8 -2,16 -5,23 -6,12 -15,25 -27,38 -18,20 -30,32 -34,36l39 0c8,0 13,0 17,0 3,-1 6,-2 8,-4 3,-2 5,-4 7,-8l4 0z"/>
    <path class="fil2" d="M1987 154l-24 -74c-5,0 -11,0 -17,-1l-13 47c-2,6 -3,10 -3,14 0,3 1,5 3,7 2,1 6,2 14,2l-1 5 -58 0 1 -5c6,0 10,0 11,-1 3,-1 6,-3 7,-5 2,-4 5,-10 8,-19l26 -91c1,-6 2,-11 2,-14 0,-3 -1,-6 -4,-9 -3,-2 -7,-3 -12,-3l2 -4 49 0c16,0 28,3 35,9 8,6 11,15 11,25 0,9 -4,18 -11,26 -7,8 -18,13 -31,16l15 44c3,11 7,18 10,21 4,3 10,5 18,5l-2 5 -36 0zm-39 -82c5,1 9,1 13,1 12,0 22,-3 30,-10 7,-7 11,-16 11,-27 0,-8 -3,-14 -7,-19 -5,-4 -12,-6 -21,-6 -2,0 -5,0 -8,1l-18 60z"/>
    <path id="1" class="fil2" d="M2043 32c5,-10 10,-18 17,-24 6,-5 14,-8 24,-8 12,0 22,4 28,12 5,6 7,12 7,18 0,11 -7,23 -20,34 9,4 16,9 21,16 4,7 7,15 7,24 0,13 -4,24 -13,33 -10,13 -26,19 -47,19 -10,0 -17,-1 -20,-4 -4,-2 -6,-5 -6,-8 0,-2 1,-4 3,-6 2,-1 4,-2 6,-2 2,0 4,0 6,1 1,0 4,2 8,4 5,2 8,4 10,4 2,1 5,1 8,1 8,0 14,-2 20,-8 6,-6 8,-13 8,-21 0,-6 -1,-12 -3,-17 -2,-4 -5,-7 -7,-10 -3,-2 -7,-5 -13,-8 -5,-2 -11,-3 -17,-3l-4 0 0 -4c6,0 12,-2 18,-6 6,-3 10,-8 13,-12 3,-5 4,-11 4,-17 0,-7 -3,-13 -7,-18 -5,-5 -11,-7 -18,-7 -12,0 -21,6 -29,19l-4 -2z"/>
    <path class="fil2" d="M892 1866l-24 -73c-6,0 -11,-1 -17,-2l-14 48c-2,5 -2,10 -2,14 0,3 1,5 3,6 1,2 6,2 13,3l-1 4 -57 0 1 -4c5,0 9,-1 11,-2 3,-1 5,-3 7,-5 2,-3 4,-9 7,-18l26 -91c2,-6 3,-11 3,-14 0,-4 -2,-7 -4,-9 -3,-2 -7,-3 -12,-3l1 -4 49 0c17,0 28,3 36,9 7,6 11,14 11,24 0,10 -4,19 -12,27 -7,8 -17,13 -30,15l14 44c4,11 7,18 11,21 3,4 9,6 17,6l-1 4 -36 0zm-39 -81c4,1 9,1 12,1 13,0 23,-4 30,-11 7,-7 11,-16 11,-26 0,-8 -2,-15 -7,-19 -4,-4 -11,-7 -20,-7 -3,0 -6,1 -9,1l-17 61z"/>
    <path id="1" class="fil2" d="M1042 1811l0 15 -20 0 0 40 -19 0 0 -40 -63 0 0 -14 70 -99 12 0 0 98 20 0zm-39 0l0 -75 -52 75 52 0z"/>
    <polyline class="fil1 str5" points="2293,340 2245,457 2150,218 2055,457 1960,218 1865,457 1769,218 1722,340 "/>
    <polyline class="fil1 str5" points="1203,911 1155,1028 1060,790 965,1028 870,790 774,1028 679,790 632,911 "/>
    <polyline class="fil1 str5" points="1203,1482 1155,1600 1060,1361 965,1600 870,1361 774,1600 679,1361 632,1482 "/>
    <polyline class="fil1 str5" points="1203,2054 1155,2171 1060,1932 965,2171 870,1932 774,2171 679,1932 632,2054 "/>
    <g>
     <path class="fil2" d="M1977 1184l146 0 0 12 -146 0 -6 -6 6 -6zm-6 6l0 -6 6 0 -6 6zm0 121l0 -121 12 0 0 121 -12 0zm-32 0l0 -7 75 0 0 14 -75 0 0 -7z"/>
    </g>
   </g>
   <polygon class="fil0" points="1724,1661 1724,1597 1661,1597 1661,1571 1724,1571 1724,1508 1751,1508 1751,1571 1813,1571 1813,1597 1751,1597 1751,1661 "/>
  </g>
 </g>
</svg>
