<?xml version="1.0" encoding="UTF-8"?>
<!DOCTYPE svg PUBLIC "-//W3C//DTD SVG 1.1//EN" "http://www.w3.org/Graphics/SVG/1.1/DTD/svg11.dtd">
<!-- Creator: CorelDRAW Home & Student X8 -->
<svg xmlns="http://www.w3.org/2000/svg" xml:space="preserve" width="92.8359mm" height="54.7994mm" version="1.1" style="shape-rendering:geometricPrecision; text-rendering:geometricPrecision; image-rendering:optimizeQuality; fill-rule:evenodd; clip-rule:evenodd"
viewBox="0 0 4208 2484"
 xmlns:xlink="http://www.w3.org/1999/xlink">
 <defs>
  <style type="text/css">
   <![CDATA[
    .str7 {stroke:#2B2A29;stroke-width:22.661}
    .str0 {stroke:#2B2A29;stroke-width:13.5966}
    .str4 {stroke:black;stroke-width:19.3072}
    .str3 {stroke:black;stroke-width:19.3072}
    .str1 {stroke:black;stroke-width:19.3072}
    .str2 {stroke:black;stroke-width:19.3072}
    .str6 {stroke:black;stroke-width:19.3072}
    .str5 {stroke:black;stroke-width:19.3072}
    .fil1 {fill:none}
    .fil3 {fill:black}
    .fil2 {fill:#2B2A29;fill-rule:nonzero}
    .fil0 {fill:black;fill-rule:nonzero}
   ]]>
  </style>
 </defs>
 <g id="Warstwa_x0020_1">
  <metadata id="CorelCorpID_0Corel-Layer"/>
  <g id="_457837752">
   <g>
    <path class="fil0" d="M2382 1990l0 -1287 27 0 0 1287 -8 15 -19 -15zm19 15l-19 11 0 -26 19 15zm1071 -644l-1071 644 -12 -29 1071 -644 12 0 0 29zm0 -29l24 15 -24 14 0 -29zm-1071 -643l1071 643 -12 29 -1071 -644 -7 -14 19 -14zm-19 14l0 -26 19 12 -19 14z"/>
   </g>
   <polygon class="fil0" points="2441,940 2441,908 2540,908 2540,940 "/>
   <g id="_455065944">
    <circle class="fil1 str0" cx="3039" cy="1347" r="97"/>
    <circle class="fil1 str0" cx="3233" cy="1347" r="97"/>
   </g>
   <ellipse class="fil1 str0" transform="matrix(3.7608E-14 1.42 -1.42 3.7608E-14 2546.86 1345.79)" rx="139" ry="72"/>
   <path class="fil1 str1" d="M2228 1024l321 0 0 124m-321 520l321 0 0 -125"/>
   <g>
    <path class="fil0" d="M3949 1347l-609 0 0 -19 609 0 0 19zm52 -73l0 19 0 0 -2 0 -2 1 -2 0 -3 0 -2 1 -2 0 -2 1 -2 1 -2 1 -2 1 -2 1 -1 1 -2 1 -2 1 -1 2 -2 1 -1 2 -2 1 -1 2 -1 2 -1 2 -2 1 0 2 -1 2 -1 2 -1 2 0 2 -1 3 0 2 -1 2 0 2 0 2 -19 0 0 -3 0 -3 1 -3 0 -3 1 -3 1 -3 1 -3 1 -3 1 -3 2 -3 1 -2 2 -3 1 -3 2 -2 2 -2 2 -2 3 -2 2 -2 2 -2 3 -2 2 -2 3 -1 3 -2 3 -1 2 -1 3 -1 3 -1 3 -1 4 0 3 -1 3 0 3 0 0 0zm64 63l-20 0 0 0 0 -2 0 -2 0 -2 -1 -2 0 -3 -1 -2 0 -2 -1 -2 -1 -2 -1 -2 -1 -1 -1 -2 -2 -2 -1 -2 -1 -1 -2 -2 -1 -1 -2 -2 -1 -1 -2 -1 -2 -1 -2 -1 -2 -1 -2 -1 -2 -1 -2 -1 -2 0 -2 -1 -2 0 -2 0 -3 -1 -2 0 0 -19 3 0 4 0 3 1 3 0 3 1 3 1 3 1 3 1 3 1 2 2 3 1 3 2 2 2 2 2 3 2 2 2 2 2 2 2 2 2 2 3 1 3 2 2 1 3 2 3 1 3 1 3 1 3 0 3 1 3 0 3 0 3 1 3 0 0zm-64 64l0 -20 0 0 2 0 3 0 2 0 2 0 2 -1 2 -1 2 0 2 -1 2 -1 2 -1 2 -1 2 -1 2 -1 1 -2 2 -1 1 -1 2 -2 1 -2 1 -1 2 -2 1 -2 1 -2 1 -2 1 -2 1 -2 0 -2 1 -2 0 -2 1 -2 0 -2 0 -2 0 -3 20 0 -1 4 0 3 0 3 -1 3 0 3 -1 3 -1 3 -1 3 -2 3 -1 3 -2 2 -1 3 -2 2 -2 3 -2 2 -2 2 -2 2 -3 2 -2 2 -2 2 -3 2 -3 1 -2 1 -3 2 -3 1 -3 1 -3 1 -3 0 -3 1 -3 0 -4 1 -3 0 0 0zm-63 -64l19 0 0 3 0 2 1 2 0 2 1 2 0 2 1 2 1 2 1 2 0 2 2 2 1 2 1 2 1 1 2 2 1 2 2 1 1 1 2 2 2 1 1 1 2 1 2 1 2 1 2 1 2 0 2 1 2 1 3 0 2 0 2 0 2 0 0 20 -3 0 -3 -1 -3 0 -4 -1 -3 0 -3 -1 -3 -1 -2 -1 -3 -2 -3 -1 -3 -1 -2 -2 -3 -2 -2 -2 -2 -2 -3 -2 -2 -2 -2 -2 -2 -3 -1 -2 -2 -3 -1 -2 -2 -3 -1 -3 -1 -3 -1 -3 -1 -3 -1 -3 0 -3 -1 -3 0 -3 0 -4z"/>
   </g>
   <line class="fil1 str2" x1="2485" y1="380" x2="2485" y2= "380" />
   <path class="fil1 str3" d="M3134 380c341,0 130,0 471,0l0 966"/>
   <line class="fil1 str2" x1="941" y1="1024" x2="1262" y2= "1024" />
   <line class="fil1 str2" x1="1906" y1="1024" x2="2228" y2= "1024" />
   <polyline class="fil1 str4" points="1262,1668 941,1668 672,1658 672,1024 941,1024 "/>
   <line class="fil1 str2" x1="1906" y1="1668" x2="2228" y2= "1668" />
   <g>
    <path class="fil0" d="M3516 2261l10 0 0 101 -20 0 0 -101 10 0zm-322 41l322 0 0 19 -322 0 0 -19z"/>
   </g>
   <line class="fil1 str5" x1="2551" y1="2311" x2="2229" y2= "2311" />
   <path class="fil2" d="M3879 1106c11,0 21,3 30,8 9,5 16,12 20,21 5,10 8,20 8,30 0,18 -5,37 -16,57 -11,20 -24,35 -41,46 -17,10 -35,16 -53,16 -13,0 -24,-3 -33,-9 -9,-6 -15,-13 -19,-23 -5,-10 -7,-19 -7,-28 0,-15 4,-31 12,-47 7,-15 16,-28 27,-38 11,-11 22,-19 34,-24 12,-6 25,-9 38,-9zm-4 8c-9,0 -17,2 -25,6 -8,5 -16,11 -24,21 -8,9 -15,21 -21,37 -8,18 -11,36 -11,53 0,11 3,22 9,31 6,9 15,14 28,14 8,0 15,-2 22,-6 8,-4 15,-10 23,-19 10,-12 19,-26 25,-44 7,-18 11,-34 11,-50 0,-11 -4,-21 -10,-30 -6,-8 -15,-13 -27,-13z"/>
   <line class="fil1 str2" x1="2228" y1="1024" x2="2228" y2= "1024" />
   <polyline class="fil1 str2" points="2228,1024 2228,380 2485,380 2485,380 2485,380 "/>
   <polyline class="fil1 str2" points="2228,1024 2228,1024 2228,1024 2228,1024 2228,1024 "/>
   <path class="fil3 str2" d="M2292 1024c0,-35 -29,-64 -64,-64 -36,0 -65,29 -65,64 0,35 29,64 65,64 35,0 64,-29 64,-64z"/>
   <path class="fil2" d="M2106 883l29 -40c7,-10 10,-16 10,-19 0,-2 0,-3 -2,-4 -1,-1 -6,-2 -13,-3l1 -4 46 0 0 4c-5,1 -8,2 -10,2 -2,1 -5,3 -8,5 -3,4 -8,10 -14,19l-37 50 -11 36c-3,10 -4,16 -4,19 0,3 0,4 1,6 1,1 2,2 5,2 2,1 7,2 12,2l-1 4 -62 0 1 -4c7,0 11,-1 13,-2 3,-1 5,-3 7,-5 3,-3 5,-9 8,-18l13 -43 -16 -52c-3,-9 -6,-14 -8,-17 -2,-2 -6,-3 -12,-4l1 -4 54 0 -1 4c-7,1 -11,1 -12,2 -1,0 -3,1 -4,3 -1,1 -1,3 -1,5 0,3 1,8 3,16l12 40z"/>
   <line class="fil1 str2" x1="2228" y1="1668" x2="2228" y2= "1668" />
   <polyline class="fil1 str2" points="2228,1668 2228,1668 2228,1668 2228,1668 2228,1668 "/>
   <polyline class="fil1 str2" points="2228,1668 2228,2311 2228,2311 2228,2311 2228,2311 "/>
   <path class="fil3 str2" d="M2292 1668c0,-36 -29,-65 -64,-65 -36,0 -65,29 -65,65 0,35 29,64 65,64 35,0 64,-29 64,-64z"/>
   <path class="fil2" d="M2181 1385l57 0 -1 5c-8,1 -15,3 -21,7 -6,4 -15,11 -25,22l-44 45 13 46c1,4 3,11 6,20 2,6 4,10 6,12 2,3 4,5 8,6 3,1 7,2 13,2l-1 5 -66 0 1 -5c7,0 12,-1 15,-4 2,-1 3,-4 3,-6 0,-3 -1,-8 -3,-16l-12 -42 -40 40c-8,8 -12,13 -14,16 -1,1 -1,3 -1,4 0,2 1,5 4,6 1,1 4,1 10,2l-1 5 -56 0 1 -5c7,0 13,-2 17,-5 7,-4 16,-11 28,-23l49 -50 -14 -49c-4,-15 -7,-24 -10,-27 -3,-4 -9,-6 -16,-6l1 -5 61 0 -2 5c-5,0 -9,0 -11,1 -2,1 -4,2 -5,3 -1,2 -1,3 -1,5 0,2 1,7 3,14l11 42 27 -27c10,-10 18,-19 21,-25 2,-2 3,-4 3,-6 0,-2 -1,-3 -3,-5 -2,-1 -6,-2 -12,-2l1 -5z"/>
   <line class="fil1 str2" x1="941" y1="1024" x2="941" y2= "1024" />
   <path class="fil2" d="M915 2016l-1 5 -69 0 2 -5c7,0 11,-1 14,-2 3,-1 6,-3 8,-5 3,-4 5,-11 8,-21l30 -103c2,-8 3,-15 3,-19 0,-2 0,-4 -1,-6 -1,-1 -3,-2 -5,-3 -2,-1 -7,-1 -13,-1l1 -5 65 0 -1 5c-6,0 -9,0 -12,2 -4,1 -7,4 -9,7 -2,4 -4,11 -7,23l-30 102c-2,9 -4,14 -4,16 0,2 1,4 2,5 1,2 3,3 5,3 2,1 7,2 14,2z"/>
   <path id="1" class="fil2" d="M968 1868l41 -20 4 0 0 143c0,9 1,15 2,18 0,2 2,4 5,5 2,1 7,2 15,2l0 5 -64 0 0 -5c8,0 13,-1 15,-2 3,-1 4,-3 5,-5 1,-2 2,-8 2,-18l0 -92c0,-12 -1,-20 -1,-24 -1,-2 -2,-4 -4,-5 -1,-2 -3,-2 -5,-2 -3,0 -8,1 -13,4l-2 -4z"/>
   <line class="fil1 str2" x1="941" y1="1668" x2="941" y2= "1668" />
   <path class="fil2" d="M924 838l-2 4 -68 0 1 -4c7,0 12,-1 14,-2 4,-1 7,-3 8,-6 3,-4 6,-11 9,-21l29 -102c3,-9 4,-15 4,-19 0,-3 0,-4 -2,-6 -1,-2 -2,-3 -4,-3 -3,-1 -7,-2 -13,-2l1 -4 65 0 -2 4c-5,0 -9,1 -11,2 -4,2 -7,5 -9,8 -2,4 -4,11 -8,23l-29 102c-3,8 -4,14 -4,16 0,2 1,4 2,5 1,1 2,2 5,3 2,1 7,1 14,2z"/>
   <path id="1" class="fil2" d="M1064 809l-12 33 -100 0 0 -4c30,-27 50,-49 62,-66 12,-17 18,-32 18,-47 0,-10 -3,-19 -10,-26 -6,-7 -14,-10 -23,-10 -8,0 -16,2 -23,7 -6,5 -11,12 -14,21l-5 0c2,-15 8,-27 16,-35 9,-8 20,-13 33,-13 13,0 25,5 34,14 9,9 14,19 14,31 0,9 -2,17 -6,26 -6,13 -16,27 -30,43 -21,22 -34,36 -39,40l44 0c9,0 15,0 19,-1 4,0 7,-2 10,-4 3,-2 5,-5 7,-9l5 0z"/>
   <line class="fil1 str5" x1="3516" y1="2311" x2="3516" y2= "2311" />
   <path class="fil3 str6" d="M3669 1345c0,-36 -29,-65 -64,-65 -35,0 -64,29 -64,65 0,35 29,64 64,64 35,0 64,-29 64,-64z"/>
   <path class="fil2" d="M1566 1462l-27 -82c-6,0 -12,-1 -19,-2l-15 54c-2,6 -3,11 -3,15 0,3 1,6 4,8 2,1 7,2 15,2l-1 5 -65 0 1 -5c6,0 10,0 13,-1 3,-2 6,-4 7,-6 3,-4 6,-11 8,-21l30 -102c2,-7 3,-13 3,-16 0,-4 -2,-7 -5,-10 -3,-3 -7,-4 -13,-4l1 -5 56 0c18,0 31,4 40,11 8,7 12,16 12,28 0,10 -4,20 -13,30 -8,9 -20,14 -34,17l16 49c4,13 8,21 12,24 4,4 11,6 19,6l-1 5 -41 0zm-44 -91c6,0 10,1 15,1 14,0 25,-4 33,-12 8,-8 13,-18 13,-30 0,-9 -3,-16 -8,-21 -5,-5 -13,-8 -23,-8 -3,0 -6,1 -10,1l-20 69z"/>
   <path id="1" class="fil2" d="M1647 1309l41 -20 4 0 0 143c0,10 0,16 1,18 1,2 3,4 5,5 3,2 8,2 16,2l0 5 -64 0 0 -5c8,0 13,0 15,-2 2,-1 4,-2 5,-4 1,-3 1,-9 1,-19l0 -91c0,-13 0,-21 -1,-24 -1,-3 -2,-5 -3,-6 -2,-1 -4,-2 -6,-2 -3,0 -7,1 -13,4l-1 -4z"/>
   <path class="fil2" d="M1556 821l-27 -83c-6,0 -12,0 -19,-2l-15 54c-2,6 -3,11 -3,15 0,4 1,6 3,8 2,1 7,2 15,3l-1 5 -65 0 2 -5c6,0 10,-1 12,-2 4,-1 6,-3 8,-6 2,-4 5,-11 8,-20l30 -103c2,-7 3,-12 3,-16 0,-4 -2,-7 -5,-10 -3,-2 -8,-4 -13,-3l1 -5 55 0c19,0 32,3 40,10 9,7 13,17 13,28 0,11 -4,21 -13,30 -8,9 -20,15 -34,17l16 50c4,12 8,20 12,24 4,3 10,5 19,6l-1 5 -41 0zm-44 -92c6,1 10,1 14,1 15,0 26,-4 34,-12 8,-8 12,-18 12,-29 0,-10 -2,-17 -7,-22 -6,-5 -13,-7 -24,-7 -2,0 -5,0 -9,1l-20 68z"/>
   <path id="1" class="fil2" d="M1724 788l-12 33 -100 0 0 -5c29,-27 50,-49 62,-66 12,-17 18,-32 18,-46 0,-11 -3,-20 -10,-27 -6,-7 -14,-10 -23,-10 -9,0 -16,2 -23,7 -7,5 -11,12 -15,21l-4 0c2,-15 7,-27 16,-35 9,-8 19,-12 32,-12 14,0 26,4 35,13 9,9 14,19 14,31 0,9 -2,17 -6,26 -7,13 -17,28 -30,43 -21,22 -34,36 -39,40l44 0c9,0 15,0 19,-1 3,0 6,-2 9,-4 3,-2 6,-5 8,-8l5 0z"/>
   <path class="fil2" d="M2789 173l-27 -82c-6,0 -12,-1 -19,-2l-15 53c-2,7 -3,12 -3,16 0,3 1,6 4,7 1,2 7,3 15,3l-1 5 -65 0 1 -5c6,0 10,-1 13,-2 3,-1 5,-3 7,-5 3,-4 6,-11 8,-21l30 -103c2,-6 3,-12 3,-15 0,-4 -2,-8 -5,-10 -3,-3 -7,-4 -13,-4l1 -5 56 0c18,0 31,4 40,11 8,7 12,16 12,27 0,11 -4,21 -13,30 -8,9 -20,15 -34,18l16 49c4,12 8,20 12,24 4,4 11,6 19,6l-1 5 -41 0zm-44 -91c6,0 10,1 15,1 14,0 25,-4 33,-12 8,-8 13,-18 13,-30 0,-9 -3,-16 -8,-21 -5,-5 -13,-8 -23,-8 -3,0 -6,1 -10,1l-20 69z"/>
   <path id="1" class="fil2" d="M2853 36c4,-12 11,-20 18,-27 7,-6 17,-9 28,-9 13,0 24,4 31,13 5,7 8,14 8,21 0,13 -8,25 -23,39 10,4 18,9 23,17 6,8 8,16 8,27 0,14 -4,27 -14,38 -12,14 -29,21 -52,21 -12,0 -20,-2 -24,-5 -4,-2 -6,-5 -6,-9 0,-2 1,-4 3,-6 2,-2 4,-3 7,-3 2,0 4,1 6,1 2,1 5,2 10,5 5,3 9,4 10,5 4,1 7,1 10,1 9,0 16,-3 23,-10 6,-6 9,-14 9,-23 0,-7 -1,-13 -4,-19 -3,-5 -5,-9 -7,-11 -4,-3 -9,-6 -15,-9 -7,-3 -13,-4 -19,-4l-4 0 0 -4c6,-1 13,-3 19,-7 7,-4 12,-9 15,-14 3,-6 4,-12 4,-18 0,-9 -2,-16 -8,-21 -5,-5 -12,-8 -20,-8 -13,0 -24,7 -32,21l-4 -2z"/>
   <path class="fil2" d="M2844 2102l-27 -82c-7,0 -13,-1 -19,-2l-16 54c-2,6 -3,11 -3,15 0,3 1,6 4,7 2,2 7,3 15,3l-1 5 -65 0 1 -5c6,0 11,-1 13,-1 3,-2 6,-4 7,-6 3,-4 6,-11 9,-21l29 -102c2,-7 3,-13 3,-16 0,-4 -1,-7 -5,-10 -3,-3 -7,-4 -13,-4l2 -5 55 0c18,0 32,4 40,11 8,7 12,16 12,28 0,10 -4,20 -12,29 -9,9 -20,15 -35,18l16 49c4,13 8,20 12,24 4,4 11,6 20,6l-2 5 -40 0zm-44 -91c5,0 10,1 14,1 14,0 25,-4 33,-12 9,-8 13,-18 13,-30 0,-9 -3,-16 -8,-21 -5,-5 -13,-8 -23,-8 -3,0 -6,1 -10,1l-19 69z"/>
   <path id="1" class="fil2" d="M3013 2040l0 17 -23 0 0 45 -21 0 0 -45 -71 0 0 -16 78 -112 14 0 0 111 23 0zm-44 0l0 -85 -59 85 59 0z"/>
   <polyline class="fil1 str7" points="3134,383 3080,515 2973,246 2866,515 2758,246 2651,515 2544,246 2490,383 "/>
   <polyline class="fil1 str7" points="1906,1026 1852,1158 1745,890 1638,1158 1530,890 1423,1158 1316,890 1262,1026 "/>
   <polyline class="fil1 str7" points="1906,1670 1852,1802 1745,1533 1638,1802 1530,1533 1423,1802 1316,1533 1262,1670 "/>
   <polyline class="fil1 str7" points="2551,2309 2604,2177 2712,2446 2819,2177 2926,2446 3033,2177 3141,2446 3194,2309 "/>
   <g>
    <path class="fil2" d="M2778 1334l164 0 0 13 -164 0 -7 -7 7 -6zm-7 6l0 -6 7 0 -7 6zm0 137l0 -137 13 0 0 137 -13 0zm-36 0l0 -8 85 0 0 16 -85 0 0 -8z"/>
   </g>
   <polygon class="fil0" points="2493,1871 2493,1799 2422,1799 2422,1770 2493,1770 2493,1699 2523,1699 2523,1770 2594,1770 2594,1799 2523,1799 2523,1871 "/>
   <g>
    <path class="fil2" d="M3922 1573l-252 672 -13 -5 252 -672 13 5zm14 -55l5 122 -2 -2 -2 -2 -3 -3 -2 -2 -3 -2 -2 -2 -3 -2 -2 -2 -3 -1 -2 -2 -3 -2 -3 -1 -2 -1 -3 -2 -3 -1 -3 -1 -3 -1 -3 -1 -2 -1 -3 -1 -3 0 -3 -1 -3 0 -3 -1 -4 0 -3 0 -3 0 -3 0 -3 0 -4 0 -3 0 -3 0 0 0 85 -88z"/>
   </g>
   <g>
    <path class="fil0" d="M451 2474l0 10 -101 0 0 -20 101 0 0 10zm-41 -285l0 285 -19 0 0 -285 19 0zm-73 -52l19 0 0 0 0 2 1 3 0 2 0 2 1 2 0 2 1 2 1 2 1 2 1 2 1 2 1 2 1 1 2 2 1 2 1 1 2 2 1 1 2 1 2 2 2 1 2 1 1 1 2 1 2 0 2 1 3 1 2 0 2 1 2 0 2 0 2 0 0 19 -3 0 -3 0 -3 0 -3 -1 -3 -1 -3 0 -3 -1 -3 -2 -3 -1 -3 -1 -2 -2 -3 -1 -2 -2 -3 -2 -2 -2 -2 -2 -2 -2 -2 -3 -2 -2 -2 -3 -2 -2 -1 -3 -2 -2 -1 -3 -1 -3 -1 -3 -1 -3 -1 -3 0 -3 -1 -3 0 -4 0 -3 0 0zm63 -63l0 19 0 0 -2 0 -2 0 -2 1 -2 0 -2 0 -3 1 -2 1 -2 0 -2 1 -1 1 -2 1 -2 2 -2 1 -2 1 -1 2 -2 1 -1 2 -1 1 -2 2 -1 2 -1 1 -1 2 -1 2 -1 2 -1 2 -1 2 0 2 -1 2 0 2 0 3 -1 2 0 2 -19 0 0 -3 0 -3 1 -4 0 -3 1 -3 1 -3 1 -3 1 -3 1 -2 2 -3 1 -3 2 -2 2 -3 2 -2 2 -2 2 -3 2 -2 2 -2 3 -2 2 -1 3 -2 2 -2 3 -1 3 -1 3 -1 3 -1 3 -1 3 -1 3 -1 3 0 3 0 3 0 0 0zm64 63l-19 0 0 0 -1 -2 0 -2 0 -3 0 -2 -1 -2 0 -2 -1 -2 -1 -2 -1 -2 -1 -2 -1 -2 -1 -1 -1 -2 -2 -2 -1 -1 -1 -2 -2 -1 -2 -2 -1 -1 -2 -1 -2 -2 -2 -1 -1 -1 -2 -1 -2 0 -2 -1 -3 -1 -2 0 -2 0 -2 -1 -2 0 -3 0 0 -19 4 0 3 0 3 0 3 1 3 1 3 1 3 1 3 1 3 1 3 1 2 2 3 2 2 1 3 2 2 2 2 2 2 3 2 2 2 2 2 3 2 2 1 3 2 3 1 2 1 3 1 3 1 3 1 3 0 3 1 4 0 3 0 3 0 0zm-64 63l0 -19 3 0 2 0 2 0 2 -1 2 0 3 -1 2 -1 2 0 2 -1 1 -1 2 -1 2 -1 2 -2 1 -1 2 -1 2 -2 1 -1 1 -2 2 -2 1 -1 1 -2 1 -2 1 -2 1 -2 1 -2 1 -2 0 -2 1 -2 0 -2 0 -2 0 -3 1 -2 19 0 0 3 0 4 -1 3 0 3 -1 3 -1 3 -1 3 -1 3 -1 3 -2 2 -1 3 -2 2 -2 3 -2 2 -2 3 -2 2 -2 2 -2 2 -3 2 -2 2 -3 1 -2 2 -3 1 -3 1 -3 2 -3 1 -3 0 -3 1 -3 1 -3 0 -3 0 -4 0z"/>
   </g>
   <path class="fil2" d="M7 1640l71 0 -1 5c-8,0 -13,1 -16,2 -3,1 -6,3 -8,6 -2,3 -4,9 -7,18l-18 63c-4,11 -6,18 -6,22 -1,5 -2,9 -2,14 0,9 4,16 12,23 7,6 18,9 31,9 9,0 16,-1 23,-4 6,-4 12,-8 16,-13 5,-6 9,-14 13,-23 4,-10 7,-20 10,-30l15 -51c4,-13 6,-22 6,-26 0,-2 -2,-5 -4,-7 -3,-2 -8,-3 -15,-3l1 -5 54 0 -2 5c-6,0 -11,0 -13,2 -3,1 -6,3 -8,6 -2,3 -4,9 -7,19l-19 65c-6,22 -11,37 -16,46 -5,8 -12,16 -23,22 -10,6 -22,9 -37,9 -17,0 -31,-5 -41,-15 -11,-10 -16,-21 -16,-33 0,-5 0,-10 1,-16 1,-3 3,-10 5,-19l17 -57c3,-9 4,-15 4,-19 0,-3 -1,-5 -4,-7 -2,-2 -8,-3 -18,-3l2 -5z"/>
   <path id="1" class="fil2" d="M220 1882l-2 4 -68 0 1 -4c7,0 12,-1 14,-2 4,-1 7,-3 8,-6 3,-4 6,-11 9,-21l29 -102c3,-9 4,-15 4,-19 0,-3 -1,-4 -2,-6 -1,-1 -2,-3 -5,-3 -2,-1 -6,-2 -13,-2l2 -4 65 0 -2 4c-5,0 -9,1 -12,2 -3,2 -6,5 -8,8 -2,4 -5,11 -8,23l-29 102c-3,8 -4,14 -4,16 0,2 0,4 1,5 2,1 3,2 5,3 3,1 8,1 15,2z"/>
   <path id="2" class="fil2" d="M342 1859c-9,10 -18,18 -27,23 -8,5 -18,7 -28,7 -11,0 -21,-3 -27,-10 -7,-6 -10,-15 -10,-27 0,-12 3,-25 10,-37 7,-12 17,-22 29,-30 12,-8 24,-12 36,-12 9,0 15,2 20,6 4,4 7,8 7,14 0,5 -2,10 -5,13 -2,3 -5,4 -9,4 -2,0 -4,0 -6,-2 -2,-2 -3,-4 -3,-6 0,-2 1,-3 1,-5 1,-1 2,-3 4,-4 2,-2 3,-4 4,-4 0,-1 0,-2 0,-3 0,-2 0,-3 -2,-4 -2,-2 -6,-3 -10,-3 -9,0 -17,3 -25,9 -8,5 -15,13 -20,24 -7,13 -11,26 -11,38 0,9 3,16 7,21 5,5 12,7 20,7 7,0 13,-2 20,-5 6,-3 13,-9 21,-17l4 3z"/>
   <path class="fil2" d="M3873 1902l71 0 -1 5c-8,0 -13,0 -16,2 -3,1 -6,3 -8,6 -2,3 -4,9 -7,18l-19 63c-3,11 -5,18 -5,22 -1,5 -2,9 -2,13 0,10 4,17 12,24 7,6 18,9 31,9 8,0 16,-1 23,-5 6,-3 12,-7 16,-13 5,-5 9,-13 13,-22 4,-10 7,-20 10,-30l15 -51c4,-13 6,-22 6,-26 0,-3 -2,-5 -4,-7 -3,-2 -8,-3 -16,-3l2 -5 54 0 -2 5c-6,0 -11,0 -13,1 -3,2 -6,4 -8,7 -2,3 -4,9 -7,19l-19 65c-6,22 -11,37 -16,46 -5,8 -13,16 -23,22 -10,5 -22,8 -37,8 -17,0 -31,-4 -41,-14 -11,-10 -16,-21 -16,-33 0,-5 0,-10 1,-16 1,-3 3,-10 5,-19l17 -57c3,-9 4,-15 4,-19 0,-3 -1,-5 -4,-7 -2,-2 -8,-3 -18,-3l2 -5z"/>
   <path id="1" class="fil2" d="M4150 1975c11,0 21,2 30,7 8,5 15,12 20,22 5,9 8,19 8,30 0,18 -6,37 -16,57 -11,20 -25,35 -42,45 -17,11 -34,16 -52,16 -13,0 -24,-3 -33,-9 -9,-5 -16,-13 -20,-22 -4,-10 -6,-19 -6,-28 0,-16 4,-32 11,-47 8,-16 17,-28 28,-39 10,-10 22,-18 34,-24 12,-5 24,-8 38,-8zm-5 8c-8,0 -16,2 -24,6 -8,4 -16,11 -24,20 -8,10 -15,22 -21,37 -8,19 -12,36 -12,53 0,12 3,22 9,32 7,9 16,13 29,13 7,0 15,-2 22,-5 7,-4 15,-11 23,-20 10,-11 18,-26 25,-43 7,-18 10,-35 10,-50 0,-11 -3,-21 -9,-30 -6,-9 -15,-13 -28,-13z"/>
   <g>
    <path class="fil2" d="M465 1334l207 0 0 14 -207 0 0 -14zm-44 60l0 -16 0 0 2 0 2 0 2 -1 2 0 1 0 2 -1 2 -1 1 0 2 -1 2 -1 1 -1 2 -1 1 -1 1 -1 2 -1 1 -1 1 -1 1 -2 2 -1 1 -2 1 -1 0 -2 1 -1 1 -2 1 -1 0 -2 1 -2 0 -2 0 -1 1 -2 0 -2 0 -2 16 0 0 3 0 2 -1 3 0 3 -1 2 0 3 -1 2 -1 2 -1 3 -1 2 -2 2 -1 2 -2 3 -1 2 -2 1 -1 2 -2 2 -2 2 -2 1 -2 2 -2 1 -3 1 -2 2 -2 1 -3 1 -2 0 -3 1 -2 1 -3 0 -2 1 -3 0 -3 0 0 0zm-53 -53l16 0 0 0 0 2 1 2 0 2 0 1 1 2 0 2 1 2 0 1 1 2 1 1 1 2 1 1 1 2 1 1 1 2 1 1 1 1 2 1 1 1 2 1 1 1 2 1 1 1 2 1 2 0 1 1 2 1 2 0 2 0 1 1 2 0 2 0 0 16 -3 0 -2 0 -3 -1 -2 0 -3 -1 -3 -1 -2 0 -2 -1 -3 -1 -2 -2 -2 -1 -2 -1 -2 -2 -2 -1 -2 -2 -2 -2 -2 -2 -2 -1 -1 -2 -2 -3 -1 -2 -1 -2 -2 -2 -1 -3 -1 -2 0 -2 -1 -3 -1 -2 0 -3 0 -3 -1 -2 0 -3 0 0zm53 -53l0 16 0 0 -2 0 -2 0 -1 1 -2 0 -2 0 -2 1 -1 0 -2 1 -2 1 -1 1 -2 0 -1 1 -2 1 -1 2 -2 1 -1 1 -1 1 -1 2 -1 1 -1 1 -1 2 -1 1 -1 2 -1 2 0 1 -1 2 0 2 -1 2 0 1 0 2 -1 2 0 2 -16 0 0 -3 1 -2 0 -3 0 -3 1 -2 1 -3 0 -2 1 -3 1 -2 2 -2 1 -2 1 -3 2 -2 1 -2 2 -2 2 -1 2 -2 2 -2 2 -1 2 -2 2 -1 2 -2 2 -1 3 -1 2 -1 2 -1 3 0 3 -1 2 0 3 -1 2 0 3 0 0 0zm53 53l-16 0 0 -2 0 -2 -1 -2 0 -1 0 -2 -1 -2 0 -2 -1 -1 -1 -2 -1 -2 0 -1 -1 -2 -1 -1 -2 -1 -1 -2 -1 -1 -1 -1 -2 -1 -1 -2 -1 -1 -2 -1 -1 0 -2 -1 -2 -1 -1 -1 -2 0 -2 -1 -1 0 -2 0 -2 -1 -2 0 -2 0 0 -16 3 0 3 0 2 1 3 0 2 1 3 0 2 1 3 1 2 1 2 1 3 2 2 1 2 2 2 1 2 2 2 2 1 1 2 2 1 2 2 2 1 3 2 2 1 2 1 2 1 3 1 2 0 3 1 2 0 3 1 3 0 2 0 3z"/>
   </g>
   <g>
    <path class="fil2" d="M419 1614l0 288 -14 0 0 -288 14 0zm-7 -57l49 113 -3 -1 -4 -2 -3 -1 -3 -1 -3 -1 -3 -1 -3 -1 -3 -1 -3 -1 -3 0 -3 -1 -3 0 -3 -1 -3 0 -3 0 -3 0 -3 0 -3 0 -3 0 -3 1 -3 0 -3 1 -3 0 -3 1 -3 1 -3 1 -3 1 -3 1 -3 1 -3 1 -3 2 -3 1 0 0 48 -113z"/>
   </g>
  </g>
 </g>
</svg>
