<?xml version="1.0" encoding="UTF-8"?>
<!DOCTYPE svg PUBLIC "-//W3C//DTD SVG 1.1//EN" "http://www.w3.org/Graphics/SVG/1.1/DTD/svg11.dtd">
<!-- Creator: CorelDRAW Home & Student X8 -->
<svg xmlns="http://www.w3.org/2000/svg" xml:space="preserve" width="96.3005mm" height="54.7994mm" version="1.1" style="shape-rendering:geometricPrecision; text-rendering:geometricPrecision; image-rendering:optimizeQuality; fill-rule:evenodd; clip-rule:evenodd"
viewBox="0 0 4452 2533"
 xmlns:xlink="http://www.w3.org/1999/xlink">
 <defs>
  <style type="text/css">
   <![CDATA[
    .str6 {stroke:#2B2A29;stroke-width:23.1157}
    .str0 {stroke:#2B2A29;stroke-width:13.8694}
    .str3 {stroke:black;stroke-width:19.6946}
    .str1 {stroke:black;stroke-width:19.6946}
    .str2 {stroke:black;stroke-width:19.6946}
    .str5 {stroke:black;stroke-width:19.6946}
    .str4 {stroke:black;stroke-width:19.6946}
    .fil1 {fill:none}
    .fil3 {fill:black}
    .fil2 {fill:#2B2A29;fill-rule:nonzero}
    .fil0 {fill:black;fill-rule:nonzero}
   ]]>
  </style>
 </defs>
 <g id="Warstwa_x0020_1">
  <metadata id="CorelCorpID_0Corel-Layer"/>
  <g id="_457838616">
   <g>
    <path class="fil0" d="M2590 2030l0 -1313 27 0 0 1313 -7 15 -20 -15zm20 15l-20 12 0 -27 20 15zm1092 -657l-1092 657 -13 -30 1093 -656 12 0 0 29zm0 -29l24 15 -24 14 0 -29zm-1092 -657l1092 657 -12 29 -1093 -656 -7 -15 20 -15zm-20 15l0 -26 20 11 -20 15z"/>
   </g>
   <polygon class="fil0" points="2650,959 2650,926 2751,926 2751,959 "/>
   <g id="_457834224">
    <circle class="fil1 str0" cx="3260" cy="1374" r="99"/>
    <circle class="fil1 str0" cx="3458" cy="1374" r="99"/>
   </g>
   <ellipse class="fil1 str0" transform="matrix(3.7608E-14 1.42 -1.42 3.7608E-14 2758.14 1372.79)" rx="142" ry="73"/>
   <path class="fil1 str1" d="M2433 1045l328 0 0 126m-328 530l328 0 0 -127"/>
   <g>
    <path class="fil0" d="M4188 1374l-621 0 0 -20 621 0 0 20zm54 -74l0 19 0 0 -3 0 -2 1 -2 0 -2 0 -3 1 -2 0 -2 1 -2 1 -2 1 -2 1 -2 1 -1 1 -2 1 -2 2 -1 1 -2 1 -2 2 -1 2 -1 1 -2 2 -1 2 -1 2 -1 2 -1 2 -1 2 0 2 -1 2 0 2 -1 2 0 3 0 2 0 2 -20 0 0 -3 0 -3 1 -4 0 -3 1 -3 1 -3 1 -3 1 -3 1 -3 2 -3 1 -2 2 -3 2 -2 2 -3 2 -2 2 -2 2 -3 3 -2 2 -2 3 -1 2 -2 3 -2 3 -1 3 -1 2 -1 3 -1 4 -1 3 -1 3 -1 3 0 3 0 4 0 0 0zm64 64l-19 0 0 0 0 -2 -1 -2 0 -3 0 -2 -1 -2 0 -2 -1 -2 -1 -2 -1 -2 -1 -2 -1 -2 -1 -2 -1 -2 -2 -1 -1 -2 -2 -2 -1 -1 -2 -1 -2 -2 -1 -1 -2 -1 -2 -1 -2 -1 -2 -1 -2 -1 -2 -1 -2 0 -2 -1 -3 0 -2 0 -2 -1 -2 0 0 -19 3 0 3 0 3 0 4 1 3 1 3 1 3 1 3 1 3 1 2 1 3 2 3 2 2 1 3 2 2 2 2 3 2 2 2 2 2 3 2 2 2 3 1 2 2 3 1 3 1 3 1 3 1 3 1 3 1 3 0 4 0 3 0 3 0 0zm-64 65l0 -20 0 0 2 0 2 0 2 0 3 -1 2 0 2 -1 2 -1 2 0 2 -1 2 -1 2 -1 2 -2 1 -1 2 -1 2 -2 1 -1 2 -2 1 -1 2 -2 1 -2 1 -2 1 -1 1 -2 1 -2 1 -2 1 -2 0 -3 1 -2 0 -2 0 -2 1 -2 0 -3 19 0 0 4 0 3 0 3 -1 3 -1 3 -1 3 -1 3 -1 3 -1 3 -2 3 -1 3 -2 2 -2 3 -2 2 -2 3 -2 2 -2 2 -2 2 -3 2 -2 2 -3 1 -3 2 -2 1 -3 2 -3 1 -3 1 -3 1 -3 1 -4 0 -3 1 -3 0 -3 0 0 0zm-65 -65l20 0 0 3 0 2 0 2 1 2 0 2 1 3 0 2 1 2 1 2 1 2 1 1 1 2 2 2 1 2 1 1 2 2 2 1 1 2 2 1 2 1 1 2 2 1 2 1 2 1 2 0 2 1 2 1 3 0 2 1 2 0 2 0 3 0 0 20 -4 0 -3 0 -3 -1 -3 0 -3 -1 -4 -1 -3 -1 -2 -1 -3 -2 -3 -1 -3 -2 -2 -1 -3 -2 -2 -2 -3 -2 -2 -2 -2 -2 -2 -3 -2 -2 -2 -3 -2 -2 -1 -3 -2 -3 -1 -3 -1 -3 -1 -3 -1 -3 -1 -3 0 -3 -1 -3 0 -3 0 -4z"/>
   </g>
   <line class="fil1 str2" x1="2695" y1="388" x2="2695" y2= "388" />
   <path class="fil1 str3" d="M3357 388c348,0 132,0 481,0l0 985"/>
   <g>
    <path class="fil0" d="M1104 980l0 0 4 0 3 0 3 1 3 0 3 1 3 1 3 1 3 1 3 1 3 2 3 1 2 2 3 2 2 2 3 2 2 2 2 2 2 2 2 3 2 2 1 3 2 3 1 3 2 2 1 3 1 3 1 3 1 4 0 3 1 3 0 3 0 4 -20 0 0 -3 0 -2 0 -2 -1 -2 0 -3 -1 -2 -1 -2 0 -2 -1 -2 -1 -2 -1 -2 -2 -2 -1 -1 -1 -2 -2 -2 -1 -1 -2 -2 -1 -1 -2 -1 -2 -2 -2 -1 -1 -1 -2 -1 -2 -1 -2 -1 -2 0 -3 -1 -2 0 -2 -1 -2 0 -2 0 -3 0 0 0 0 -20zm-64 65l0 0 0 -4 0 -3 0 -3 1 -3 1 -4 0 -3 2 -3 1 -3 1 -2 1 -3 2 -3 2 -3 1 -2 2 -3 2 -2 3 -2 2 -2 2 -2 3 -2 2 -2 3 -2 2 -1 3 -2 3 -1 3 -1 3 -1 3 -1 3 -1 3 0 4 -1 3 0 3 0 0 20 -2 0 -2 0 -3 0 -2 1 -2 0 -2 1 -2 0 -2 1 -2 1 -2 1 -2 1 -2 1 -2 2 -1 1 -2 1 -2 2 -1 1 -1 2 -2 2 -1 1 -1 2 -1 2 -1 2 -1 2 -1 2 -1 2 0 2 -1 3 0 2 -1 2 0 2 0 3 0 0 -19 0zm64 64l0 0 -3 0 -3 0 -4 -1 -3 0 -3 -1 -3 -1 -3 -1 -3 -1 -3 -1 -3 -2 -2 -1 -3 -2 -2 -2 -3 -2 -2 -2 -2 -2 -3 -2 -2 -2 -2 -3 -1 -2 -2 -3 -2 -3 -1 -2 -1 -3 -1 -3 -2 -3 0 -3 -1 -3 -1 -4 0 -3 0 -3 0 -3 19 0 0 2 0 2 1 2 0 3 1 2 0 2 1 2 1 2 1 2 1 2 1 2 1 2 1 1 2 2 1 2 1 1 2 2 2 1 1 2 2 1 2 1 2 1 2 1 2 1 2 1 2 0 2 1 2 1 2 0 3 0 2 0 2 0 0 0 0 20zm65 -64l0 3 0 3 -1 3 0 4 -1 3 -1 3 -1 3 -1 3 -2 3 -1 2 -2 3 -1 3 -2 2 -2 3 -2 2 -2 2 -2 2 -3 2 -2 2 -3 2 -2 2 -3 1 -3 2 -3 1 -3 1 -3 1 -3 1 -3 1 -3 0 -3 1 -3 0 -4 0 0 -20 3 0 2 0 2 0 2 0 2 -1 3 -1 2 0 2 -1 2 -1 2 -1 1 -1 2 -1 2 -1 2 -2 1 -1 2 -2 1 -1 2 -2 1 -2 1 -1 2 -2 1 -2 1 -2 1 -2 0 -2 1 -2 1 -2 0 -2 1 -3 0 -2 0 -2 0 -2 20 0zm279 9l-290 0 0 -19 290 0 0 19z"/>
   </g>
   <line class="fil1 str2" x1="2104" y1="1045" x2="2433" y2= "1045" />
   <g>
    <path class="fil0" d="M1104 1636l0 0 4 0 3 1 3 0 3 1 3 0 3 1 3 1 3 1 3 2 3 1 3 2 2 1 3 2 2 2 3 2 2 2 2 3 2 2 2 2 2 3 1 3 2 2 1 3 2 3 1 3 1 3 1 3 1 3 0 3 1 3 0 4 0 3 -20 0 0 -2 0 -3 0 -2 -1 -2 0 -2 -1 -2 -1 -2 0 -2 -1 -2 -1 -2 -1 -2 -2 -2 -1 -2 -1 -2 -2 -1 -1 -2 -2 -1 -1 -2 -2 -1 -2 -1 -2 -1 -1 -1 -2 -1 -2 -1 -2 -1 -2 -1 -3 0 -2 -1 -2 0 -2 -1 -2 0 -3 0 0 0 0 -20zm-64 65l0 0 0 -3 0 -4 0 -3 1 -3 1 -3 0 -3 2 -3 1 -3 1 -3 1 -3 2 -2 2 -3 1 -3 2 -2 2 -2 3 -3 2 -2 2 -2 3 -2 2 -2 3 -1 2 -2 3 -1 3 -2 3 -1 3 -1 3 -1 3 0 3 -1 4 0 3 -1 3 0 0 20 -2 0 -2 0 -3 1 -2 0 -2 1 -2 0 -2 1 -2 1 -2 1 -2 1 -2 1 -2 1 -2 1 -1 1 -2 2 -2 1 -1 2 -1 1 -2 2 -1 2 -1 2 -1 2 -1 2 -1 2 -1 2 -1 2 0 2 -1 2 0 2 -1 2 0 3 0 2 0 0 -19 0zm64 65l0 0 -3 0 -3 -1 -4 0 -3 -1 -3 0 -3 -1 -3 -1 -3 -1 -3 -2 -3 -1 -2 -2 -3 -1 -2 -2 -3 -2 -2 -2 -2 -2 -3 -3 -2 -2 -2 -2 -1 -3 -2 -2 -2 -3 -1 -3 -1 -3 -1 -3 -2 -3 0 -3 -1 -3 -1 -3 0 -3 0 -4 0 -3 19 0 0 2 0 3 1 2 0 2 1 2 0 2 1 2 1 2 1 2 1 2 1 2 1 2 1 2 2 2 1 1 1 2 2 1 2 2 1 1 2 1 2 1 2 2 2 1 2 0 2 1 2 1 2 1 2 0 2 0 3 1 2 0 2 0 0 0 0 20zm65 -65l0 3 0 4 -1 3 0 3 -1 3 -1 3 -1 3 -1 3 -2 3 -1 3 -2 3 -1 2 -2 3 -2 2 -2 2 -2 3 -2 2 -3 2 -2 2 -3 2 -2 1 -3 2 -3 1 -3 2 -3 1 -3 1 -3 1 -3 0 -3 1 -3 0 -3 1 -4 0 0 -20 3 0 2 0 2 -1 2 0 2 0 3 -1 2 -1 2 -1 2 0 2 -1 1 -2 2 -1 2 -1 2 -1 1 -2 2 -1 1 -2 2 -1 1 -2 1 -2 2 -2 1 -2 1 -2 1 -2 0 -2 1 -2 1 -2 0 -2 1 -2 0 -2 0 -3 0 -2 20 0zm279 10l-290 0 0 -20 290 0 0 20z"/>
   </g>
   <line class="fil1 str2" x1="2104" y1="1701" x2="2433" y2= "1701" />
   <g>
    <path class="fil0" d="M3747 2306l10 0 0 103 -20 0 0 -103 10 0zm-328 42l328 0 0 19 -328 0 0 -19z"/>
   </g>
   <line class="fil1 str4" x1="2762" y1="2358" x2="2434" y2= "2358" />
   <path class="fil2" d="M4117 1129c12,0 22,2 31,7 9,5 15,12 20,22 5,10 8,20 8,30 0,19 -5,38 -16,59 -11,20 -25,36 -42,46 -18,11 -36,16 -54,16 -13,0 -25,-3 -34,-8 -9,-6 -15,-14 -20,-24 -4,-10 -6,-19 -6,-28 0,-16 4,-32 12,-48 7,-16 17,-29 28,-39 10,-11 22,-19 34,-25 12,-6 25,-8 39,-8zm-4 8c-9,0 -17,2 -25,6 -9,4 -17,11 -25,21 -8,9 -15,22 -21,37 -8,19 -12,37 -12,54 0,12 3,23 9,32 6,10 16,14 29,14 8,0 15,-2 23,-5 7,-4 15,-11 23,-20 10,-12 19,-27 26,-45 7,-18 10,-35 10,-50 0,-12 -3,-22 -9,-31 -6,-9 -16,-13 -28,-13z"/>
   <line class="fil1 str2" x1="2433" y1="1045" x2="2433" y2= "1045" />
   <polyline class="fil1 str2" points="2433,1045 2433,388 2695,388 2695,388 2695,388 "/>
   <polyline class="fil1 str2" points="2433,1045 2433,1045 2433,1045 2433,1045 2433,1045 "/>
   <path class="fil3 str2" d="M2498 1045c0,-37 -29,-66 -65,-66 -37,0 -66,29 -66,66 0,36 29,65 66,65 36,0 65,-29 65,-65z"/>
   <path class="fil2" d="M2308 901l30 -41c7,-10 11,-17 11,-20 0,-1 -1,-3 -3,-4 -1,-1 -6,-2 -13,-2l1 -4 47 0 -1 4c-4,0 -7,1 -9,2 -3,1 -5,3 -8,5 -4,3 -9,9 -15,19l-38 51 -11 37c-3,9 -4,16 -4,19 0,3 0,4 1,6 1,1 3,2 5,3 3,0 7,1 13,1l-1 4 -64 0 2 -4c6,0 10,-1 12,-2 4,-1 6,-3 8,-5 2,-3 5,-9 8,-18l13 -45 -16 -52c-3,-9 -6,-15 -8,-17 -3,-2 -7,-4 -13,-4l1 -4 56 0 -2 4c-7,0 -11,1 -12,1 -1,1 -2,2 -4,3 -1,2 -1,4 -1,6 0,3 1,8 3,16l12 41z"/>
   <line class="fil1 str2" x1="2433" y1="1701" x2="2433" y2= "1701" />
   <polyline class="fil1 str2" points="2433,1701 2433,1701 2433,1701 2433,1701 2433,1701 "/>
   <polyline class="fil1 str2" points="2433,1701 2433,2358 2433,2358 2433,2358 2433,2358 "/>
   <path class="fil3 str2" d="M2498 1701c0,-36 -29,-66 -65,-66 -37,0 -66,30 -66,66 0,36 29,66 66,66 36,0 65,-30 65,-66z"/>
   <path class="fil2" d="M2385 1413l58 0 -1 5c-8,1 -16,3 -22,7 -6,4 -14,11 -25,23l-44 45 12 47c1,4 4,11 7,21 2,6 4,10 6,12 2,3 4,5 7,6 4,1 8,2 15,2l-2 5 -68 0 2 -5c7,0 12,-1 15,-4 2,-1 3,-4 3,-6 0,-3 -1,-8 -3,-16l-12 -44 -41 41c-8,9 -12,14 -14,16 -1,2 -1,3 -1,5 0,2 1,5 4,6 1,1 4,2 10,2l-1 5 -57 0 1 -5c7,0 13,-2 18,-5 6,-4 16,-11 28,-23l50 -51 -14 -50c-4,-15 -8,-25 -11,-28 -3,-4 -8,-6 -16,-6l1 -5 62 0 -1 5c-6,0 -10,0 -12,1 -2,1 -4,2 -5,3 -1,2 -1,3 -1,5 0,2 1,7 3,14l12 43 27 -27c10,-11 18,-19 22,-26 1,-2 2,-4 2,-6 0,-2 -1,-4 -3,-5 -2,-1 -6,-2 -12,-2l1 -5z"/>
   <line class="fil1 str2" x1="1120" y1="1045" x2="1120" y2= "1045" />
   <path class="fil2" d="M796 1756l-2 5 -70 0 2 -5c7,0 12,-1 14,-2 4,-1 6,-3 8,-6 3,-4 6,-11 9,-21l30 -104c2,-9 4,-16 4,-20 0,-2 -1,-4 -2,-6 -1,-1 -3,-2 -5,-3 -2,-1 -7,-1 -13,-1l1 -5 66 0 -1 5c-6,0 -10,0 -12,2 -4,1 -7,4 -9,8 -2,3 -5,11 -8,23l-30 104c-2,8 -4,14 -4,16 0,2 1,4 2,5 1,2 3,3 5,3 2,1 7,2 15,2z"/>
   <path id="1" class="fil2" d="M849 1605l42 -20 5 0 0 145c0,10 0,16 1,19 1,2 2,4 5,5 3,1 8,2 16,2l0 5 -66 0 0 -5c9,0 14,-1 16,-2 3,-1 4,-3 5,-5 1,-2 2,-8 2,-19l0 -93c0,-13 -1,-21 -2,-24 0,-3 -1,-5 -3,-6 -2,-1 -3,-2 -6,-2 -3,0 -7,1 -13,4l-2 -4z"/>
   <line class="fil1 str2" x1="1120" y1="1701" x2="1120" y2= "1701" />
   <path class="fil2" d="M802 1125l-2 5 -70 0 2 -5c7,0 12,0 14,-1 4,-2 7,-4 8,-6 3,-4 6,-11 9,-22l30 -104c3,-9 4,-15 4,-20 0,-2 -1,-4 -2,-5 -1,-2 -3,-3 -5,-4 -2,-1 -6,-1 -13,-1l1 -5 66 0 -1 5c-5,0 -9,0 -12,2 -4,2 -7,4 -9,8 -2,3 -4,11 -7,23l-31 104c-2,9 -4,14 -4,17 0,2 1,3 2,5 1,1 3,2 5,3 2,0 7,1 15,1z"/>
   <path id="1" class="fil2" d="M945 1097l-12 33 -102 0 0 -5c30,-27 51,-49 63,-67 12,-17 18,-33 18,-47 0,-11 -3,-20 -10,-27 -6,-7 -14,-11 -24,-11 -8,0 -16,3 -23,8 -6,5 -11,12 -15,21l-4 0c2,-15 7,-27 16,-36 9,-8 20,-12 33,-12 14,0 26,4 35,13 10,9 14,20 14,32 0,9 -2,18 -6,26 -6,14 -16,29 -30,44 -22,23 -35,37 -40,42l45 0c9,0 15,-1 19,-1 4,-1 7,-3 10,-5 3,-2 6,-5 8,-8l5 0z"/>
   <line class="fil1 str4" x1="3747" y1="2358" x2="3747" y2= "2358" />
   <path class="fil3 str5" d="M3903 1372c0,-36 -29,-66 -65,-66 -37,0 -66,30 -66,66 0,36 29,65 66,65 36,0 65,-29 65,-65z"/>
   <path class="fil2" d="M1758 1491l-27 -84c-7,0 -13,0 -20,-2l-16 55c-2,7 -3,12 -3,16 0,3 2,6 4,8 2,1 7,2 15,3l-1 4 -66 0 1 -4c7,-1 11,-1 13,-2 4,-2 6,-4 8,-6 3,-4 5,-11 8,-21l30 -105c3,-7 4,-12 4,-16 0,-4 -2,-7 -5,-10 -3,-3 -8,-4 -14,-4l2 -5 56 0c19,0 33,4 41,11 8,7 12,17 12,28 0,11 -4,22 -12,31 -9,9 -21,15 -36,17l17 51c4,12 8,21 12,24 4,4 11,6 20,7l-1 4 -42 0zm-45 -93c6,1 10,1 15,1 14,0 26,-4 34,-12 8,-8 13,-18 13,-30 0,-10 -3,-17 -8,-22 -6,-5 -14,-7 -24,-7 -3,0 -6,0 -10,1l-20 69z"/>
   <path id="1" class="fil2" d="M1840 1335l42 -20 4 0 0 146c0,10 1,16 1,18 1,2 3,4 5,6 3,1 8,2 16,2l0 4 -65 0 0 -4c8,0 13,-1 16,-2 2,-2 4,-3 5,-5 1,-2 1,-9 1,-19l0 -94c0,-12 0,-20 -1,-24 -1,-3 -2,-5 -3,-6 -2,-1 -4,-2 -6,-2 -3,0 -8,2 -13,4l-2 -4z"/>
   <path class="fil2" d="M1748 837l-28 -84c-6,0 -13,-1 -19,-2l-16 55c-2,6 -3,11 -3,16 0,3 1,5 4,7 1,2 7,3 15,3l-1 5 -66 0 1 -5c6,0 11,-1 13,-2 3,-1 6,-3 7,-6 3,-4 6,-11 9,-21l30 -104c2,-7 3,-13 3,-16 0,-4 -2,-8 -5,-10 -3,-3 -7,-4 -13,-4l1 -5 57 0c18,0 32,4 40,11 9,7 13,16 13,28 0,11 -4,21 -13,30 -8,10 -20,15 -35,18l17 51c4,12 8,20 12,24 4,4 10,6 19,6l-1 5 -41 0zm-45 -93c5,0 10,1 14,1 15,0 26,-4 34,-12 9,-8 13,-19 13,-31 0,-9 -3,-16 -8,-21 -5,-5 -13,-8 -24,-8 -2,0 -5,0 -9,1l-20 70z"/>
   <path id="1" class="fil2" d="M1919 803l-13 34 -102 0 0 -5c30,-27 52,-49 64,-67 12,-17 18,-33 18,-47 0,-11 -3,-20 -10,-27 -7,-7 -15,-11 -24,-11 -9,0 -16,3 -23,7 -7,5 -12,13 -15,22l-5 0c3,-16 8,-28 17,-36 9,-8 20,-12 33,-12 14,0 26,4 35,13 9,9 14,20 14,32 0,9 -2,18 -6,26 -6,14 -17,29 -31,44 -21,23 -34,37 -39,41l45 0c9,0 15,0 19,-1 4,0 7,-2 10,-4 3,-2 5,-5 8,-9l5 0z"/>
   <path class="fil2" d="M3006 176l-28 -84c-6,0 -13,0 -19,-2l-16 55c-2,7 -3,12 -3,16 0,3 1,6 4,8 1,1 7,2 15,3l-1 4 -66 0 1 -4c6,-1 11,-1 13,-2 3,-2 6,-4 7,-6 3,-4 6,-11 9,-21l30 -105c2,-7 3,-12 3,-16 0,-4 -2,-7 -5,-10 -3,-3 -7,-4 -13,-4l1 -5 57 0c18,0 32,4 40,11 9,7 13,17 13,28 0,11 -4,22 -13,31 -9,9 -20,15 -35,17l16 51c5,12 9,21 13,24 4,4 10,6 19,7l-1 4 -41 0zm-45 -93c5,1 10,1 14,1 15,0 26,-4 34,-12 9,-8 13,-18 13,-30 0,-10 -3,-17 -8,-22 -5,-5 -13,-7 -24,-7 -2,0 -6,0 -9,1l-20 69z"/>
   <path id="1" class="fil2" d="M3070 37c5,-12 11,-21 19,-27 7,-7 17,-10 28,-10 14,0 24,4 32,13 5,7 8,14 8,22 0,13 -8,26 -24,39 11,4 19,10 25,18 5,8 8,17 8,27 0,15 -5,28 -15,39 -12,14 -30,21 -54,21 -11,0 -19,-1 -23,-4 -5,-3 -7,-6 -7,-9 0,-3 1,-5 3,-7 2,-2 5,-3 8,-3 2,0 4,1 6,1 2,1 5,2 10,5 5,3 9,4 11,5 3,1 6,1 10,1 8,0 16,-3 22,-10 7,-6 10,-14 10,-24 0,-6 -1,-13 -4,-19 -3,-5 -5,-9 -8,-11 -3,-3 -8,-7 -15,-9 -6,-3 -13,-4 -19,-4l-5 0 0 -4c7,-1 14,-4 21,-8 6,-4 11,-8 14,-14 4,-6 5,-12 5,-19 0,-8 -3,-15 -8,-21 -6,-5 -13,-8 -21,-8 -13,0 -24,7 -33,22l-4 -2z"/>
   <path class="fil2" d="M3061 2144l-28 -84c-6,0 -12,0 -19,-2l-16 55c-2,6 -3,12 -3,16 0,3 1,6 4,7 2,2 7,3 15,3l-1 5 -66 0 1 -5c7,0 11,0 13,-1 4,-2 6,-4 8,-6 2,-4 5,-11 8,-21l30 -105c2,-7 3,-12 3,-16 0,-4 -1,-7 -4,-10 -4,-3 -8,-4 -14,-4l1 -5 57 0c19,0 32,4 41,11 8,7 12,16 12,28 0,11 -4,21 -13,31 -8,9 -20,15 -35,17l17 51c4,12 8,20 12,24 4,4 11,6 20,6l-2 5 -41 0zm-45 -93c5,1 10,1 14,1 15,0 26,-4 35,-12 8,-8 12,-18 12,-30 0,-10 -2,-17 -8,-22 -5,-5 -13,-8 -23,-8 -3,0 -6,1 -10,1l-20 70z"/>
   <path id="1" class="fil2" d="M3234 2081l0 18 -24 0 0 45 -21 0 0 -45 -73 0 0 -17 80 -114 14 0 0 113 24 0zm-45 0l0 -86 -60 86 60 0z"/>
   <polyline class="fil1 str6" points="3357,390 3302,525 3193,251 3083,525 2974,251 2865,525 2755,251 2700,390 "/>
   <polyline class="fil1 str6" points="2104,1047 2050,1182 1940,907 1831,1182 1721,907 1612,1182 1503,907 1448,1047 "/>
   <polyline class="fil1 str6" points="2104,1703 2050,1838 1940,1564 1831,1838 1721,1564 1612,1838 1503,1564 1448,1703 "/>
   <polyline class="fil1 str6" points="2762,2355 2817,2220 2926,2495 3036,2220 3145,2495 3254,2220 3364,2495 3419,2355 "/>
   <g>
    <path class="fil2" d="M2993 1360l168 0 0 14 -168 0 -6 -7 6 -7zm-6 7l0 -7 6 0 -6 7zm0 139l0 -139 13 0 0 139 -13 0zm-36 0l0 -8 85 0 0 17 -85 0 0 -9z"/>
   </g>
   <polygon class="fil0" points="2703,1908 2703,1835 2631,1835 2631,1805 2703,1805 2703,1733 2734,1733 2734,1805 2806,1805 2806,1835 2734,1835 2734,1908 "/>
   <g>
    <path class="fil2" d="M4161 1605l-257 685 -13 -5 257 -685 13 5zm14 -57l6 125 -3 -2 -2 -3 -3 -2 -2 -2 -3 -2 -2 -2 -3 -2 -2 -2 -3 -2 -3 -2 -2 -1 -3 -2 -3 -1 -3 -1 -2 -2 -3 -1 -3 -1 -3 -1 -3 -1 -3 0 -3 -1 -3 -1 -3 0 -4 0 -3 -1 -3 0 -3 0 -3 0 -4 0 -3 0 -3 0 -4 1 0 0 87 -91z"/>
   </g>
   <g>
    <path class="fil0" d="M620 2524l0 9 -103 0 0 -19 103 0 0 10zm-41 -291l0 291 -20 0 0 -291 20 0zm-75 -53l20 0 0 0 0 2 0 3 0 2 1 2 0 2 1 2 0 2 1 2 1 2 1 2 1 2 1 2 2 2 1 1 1 2 2 2 2 1 1 2 2 1 2 1 1 1 2 1 2 1 2 1 2 1 2 1 2 0 3 1 2 0 2 1 2 0 3 0 0 20 -4 0 -3 -1 -3 0 -3 -1 -3 0 -4 -1 -3 -1 -2 -2 -3 -1 -3 -1 -3 -2 -2 -1 -3 -2 -2 -2 -3 -2 -2 -2 -2 -3 -2 -2 -2 -2 -2 -3 -2 -3 -1 -2 -2 -3 -1 -3 -1 -3 -1 -3 -1 -3 -1 -3 0 -3 -1 -3 0 -4 0 -3 0 0zm65 -65l0 20 0 0 -3 0 -2 0 -2 1 -2 0 -3 0 -2 1 -2 1 -2 1 -2 0 -2 1 -2 2 -1 1 -2 1 -2 1 -1 2 -2 1 -2 2 -1 1 -1 2 -2 2 -1 2 -1 2 -1 2 -1 2 -1 2 0 2 -1 2 0 2 -1 2 0 2 0 3 0 2 -20 0 0 -3 0 -4 1 -3 0 -3 1 -3 1 -3 1 -3 1 -3 1 -3 2 -3 1 -3 2 -2 2 -3 2 -2 2 -2 2 -3 2 -2 3 -2 2 -2 3 -2 2 -1 3 -2 3 -1 3 -2 2 -1 3 -1 4 -1 3 0 3 -1 3 0 3 -1 4 0 0 0zm64 65l-19 0 0 0 0 -2 -1 -3 0 -2 0 -2 -1 -2 0 -2 -1 -2 -1 -2 -1 -2 -1 -2 -1 -2 -1 -2 -1 -2 -2 -2 -1 -1 -2 -2 -1 -1 -2 -2 -1 -1 -2 -1 -2 -1 -2 -2 -2 -1 -2 0 -2 -1 -2 -1 -2 -1 -2 0 -2 0 -3 -1 -2 0 -2 0 0 -20 3 0 3 1 4 0 3 1 3 0 3 1 3 1 3 1 3 2 2 1 3 2 3 1 2 2 3 2 2 2 2 2 3 3 2 2 1 2 2 3 2 2 1 3 2 3 1 3 1 3 1 3 1 3 1 3 1 3 0 3 0 4 0 3 0 0zm-64 65l0 -20 2 0 2 0 3 -1 2 0 2 -1 2 0 2 -1 2 -1 2 -1 2 -1 2 -1 2 -1 2 -1 1 -1 2 -2 1 -1 2 -2 1 -2 2 -1 1 -2 1 -2 1 -2 1 -2 1 -2 1 -2 1 -2 0 -2 1 -2 0 -2 0 -2 1 -3 0 -2 19 0 0 3 0 4 0 3 -1 3 -1 3 -1 3 -1 3 -1 3 -1 3 -2 3 -1 2 -2 3 -2 3 -1 2 -2 2 -3 3 -2 2 -2 2 -3 2 -2 2 -3 1 -3 2 -2 1 -3 1 -3 2 -3 1 -3 1 -3 0 -3 1 -4 0 -3 1 -3 0z"/>
   </g>
   <g>
    <path class="fil2" d="M562 1083l13 5 -12 30 -12 29 -12 27 -11 26 -11 26 -10 24 -10 23 -10 23 -8 21 -8 21 -8 21 -6 19 -6 19 -5 18 -3 18 -3 18 -2 17 -1 17 1 17 1 16 3 16 4 17 6 16 7 17 8 16 10 17 12 18 13 17 15 18 17 19 19 19 20 20 -9 10 -21 -20 -19 -19 -17 -19 -16 -19 -13 -18 -12 -18 -11 -18 -9 -18 -7 -17 -6 -17 -4 -18 -3 -17 -2 -18 -1 -17 1 -18 2 -18 3 -18 4 -19 5 -19 6 -19 6 -20 8 -20 8 -22 9 -21 9 -23 10 -23 10 -25 11 -25 12 -26 11 -28 12 -28 12 -30zm28 -51l3 125 -2 -2 -3 -3 -2 -2 -2 -2 -3 -2 -2 -3 -3 -2 -2 -1 -3 -2 -3 -2 -2 -2 -3 -1 -3 -2 -2 -1 -3 -1 -3 -2 -3 -1 -3 -1 -3 -1 -3 0 -3 -1 -3 -1 -3 0 -3 -1 -3 0 -4 -1 -3 0 -3 0 -3 0 -4 0 -3 0 -3 0 0 0 88 -88z"/>
   </g>
   <path class="fil2" d="M7 1329l73 0 -2 4c-7,0 -12,1 -16,2 -3,2 -6,4 -8,7 -2,3 -4,9 -7,18l-19 64c-3,12 -5,19 -6,23 -1,5 -2,9 -2,14 0,9 4,17 12,23 8,7 19,10 32,10 9,0 17,-2 23,-5 7,-3 13,-7 17,-13 5,-6 10,-14 14,-23 3,-10 7,-20 10,-30l15 -53c4,-13 6,-22 6,-26 0,-3 -2,-5 -4,-7 -3,-2 -8,-3 -16,-4l1 -4 55 0 -1 4c-7,0 -11,1 -14,2 -3,1 -5,4 -8,7 -2,3 -4,9 -7,19l-19 67c-6,22 -12,37 -17,46 -5,9 -12,16 -23,22 -10,7 -23,10 -38,10 -17,0 -31,-5 -42,-15 -11,-10 -16,-21 -16,-34 0,-5 0,-10 1,-16 1,-4 3,-10 5,-19l18 -59c2,-9 3,-15 3,-19 0,-3 -1,-6 -3,-7 -3,-2 -9,-3 -18,-4l1 -4z"/>
   <path id="1" class="fil2" d="M224 1575l-1 5 -70 0 1 -5c7,0 12,-1 14,-2 4,-1 7,-3 9,-6 3,-4 5,-11 8,-21l30 -104c3,-9 4,-16 4,-20 0,-2 0,-4 -1,-6 -1,-1 -3,-2 -5,-3 -3,-1 -7,-1 -14,-1l2 -5 66 0 -1 5c-6,-1 -10,0 -13,2 -3,1 -6,4 -8,7 -2,4 -5,12 -8,23l-30 105c-3,8 -4,14 -4,16 0,2 0,4 1,5 2,2 3,3 6,3 2,1 7,2 14,2z"/>
   <path id="2" class="fil2" d="M398 1397l-45 154c-3,8 -4,14 -4,16 0,1 0,2 1,2 0,1 1,1 1,1 1,0 2,0 3,-1 2,-2 5,-7 10,-15l4 3c-5,8 -10,14 -15,19 -5,4 -10,7 -14,7 -3,0 -5,-1 -6,-3 -2,-2 -3,-5 -3,-9 0,-5 1,-11 4,-19l5 -16c-14,19 -26,32 -37,39 -8,5 -16,8 -23,8 -7,0 -13,-3 -18,-9 -5,-6 -8,-13 -8,-23 0,-13 4,-26 13,-41 9,-14 20,-26 35,-35 11,-7 21,-10 31,-10 5,0 9,0 13,2 3,2 7,5 10,10l13 -42c1,-5 2,-9 3,-12 1,-3 1,-6 1,-8 0,-2 0,-4 -2,-5 -1,-1 -4,-2 -6,-2 -2,0 -6,0 -10,1l0 -5 44 -7zm-50 92c0,-6 -1,-10 -5,-13 -3,-4 -8,-5 -13,-5 -12,0 -24,9 -37,26 -13,18 -19,35 -19,51 0,7 1,11 5,15 3,3 7,5 11,5 11,0 23,-10 37,-29 14,-19 21,-36 21,-50z"/>
   <path class="fil2" d="M4111 1940l72 0 -1 5c-7,0 -13,1 -16,2 -3,1 -6,3 -8,7 -2,3 -5,9 -7,17l-19 65c-4,11 -6,19 -6,22 -1,5 -2,10 -2,14 0,10 4,17 12,24 8,6 19,10 32,10 9,0 16,-2 23,-5 7,-3 12,-8 17,-14 5,-5 9,-13 13,-23 4,-10 8,-20 11,-30l15 -52c3,-14 5,-22 5,-26 0,-3 -1,-5 -3,-7 -3,-2 -8,-4 -16,-4l1 -5 55 0 -1 5c-7,0 -12,0 -14,2 -3,1 -6,3 -8,6 -2,4 -4,10 -7,19l-19 67c-7,22 -12,38 -17,47 -5,9 -13,16 -23,22 -10,6 -23,9 -38,9 -17,0 -32,-5 -42,-15 -11,-9 -16,-21 -16,-33 0,-5 0,-11 1,-16 1,-4 3,-11 5,-20l18 -59c2,-8 3,-14 3,-18 0,-4 -1,-6 -3,-8 -3,-1 -9,-3 -19,-3l2 -5z"/>
   <path id="1" class="fil2" d="M4393 2015c12,0 22,2 31,7 9,5 16,12 21,22 5,10 7,20 7,30 0,19 -5,38 -16,59 -11,20 -25,36 -42,46 -18,11 -35,16 -54,16 -13,0 -25,-3 -33,-9 -9,-5 -16,-13 -20,-23 -5,-10 -7,-19 -7,-28 0,-16 4,-32 12,-48 8,-16 17,-29 28,-40 11,-10 22,-18 34,-24 13,-6 26,-8 39,-8zm-4 8c-9,0 -17,2 -25,6 -8,4 -17,11 -25,21 -8,9 -15,22 -21,37 -8,19 -12,37 -12,54 0,12 3,23 9,32 7,10 16,14 29,14 8,0 15,-2 23,-5 7,-4 15,-11 23,-20 10,-12 19,-27 26,-45 7,-18 10,-35 10,-50 0,-12 -3,-22 -9,-31 -6,-9 -16,-13 -28,-13z"/>
  </g>
 </g>
</svg>
