<?xml version="1.0" encoding="UTF-8"?>
<!DOCTYPE svg PUBLIC "-//W3C//DTD SVG 1.1//EN" "http://www.w3.org/Graphics/SVG/1.1/DTD/svg11.dtd">
<!-- Creator: CorelDRAW Home & Student X8 -->
<svg xmlns="http://www.w3.org/2000/svg" xml:space="preserve" width="91.4057mm" height="54.7994mm" version="1.1" style="shape-rendering:geometricPrecision; text-rendering:geometricPrecision; image-rendering:optimizeQuality; fill-rule:evenodd; clip-rule:evenodd"
viewBox="0 0 4108 2463"
 xmlns:xlink="http://www.w3.org/1999/xlink">
 <defs>
  <style type="text/css">
   <![CDATA[
    .str6 {stroke:#2B2A29;stroke-width:22.4688}
    .str0 {stroke:#2B2A29;stroke-width:13.4813}
    .str7 {stroke:#2B2A29;stroke-width:8.98751}
    .str3 {stroke:black;stroke-width:19.1434}
    .str1 {stroke:black;stroke-width:19.1434}
    .str2 {stroke:black;stroke-width:19.1434}
    .str5 {stroke:black;stroke-width:19.1434}
    .str4 {stroke:black;stroke-width:19.1434}
    .fil1 {fill:none}
    .fil3 {fill:black}
    .fil2 {fill:#2B2A29;fill-rule:nonzero}
    .fil0 {fill:black;fill-rule:nonzero}
   ]]>
  </style>
 </defs>
 <g id="Warstwa_x0020_1">
  <metadata id="CorelCorpID_0Corel-Layer"/>
  <g id="_457843248">
   <g>
    <path class="fil0" d="M2297 1973l0 -1276 27 0 0 1276 -7 15 -20 -15zm20 15l-20 11 0 -26 20 15zm1061 -639l-1061 639 -12 -29 1061 -638 12 0 0 28zm0 -28l24 14 -24 14 0 -28zm-1061 -638l1061 638 -12 28 -1061 -638 -8 -14 20 -14zm-20 14l0 -26 20 12 -20 14z"/>
   </g>
   <polygon class="fil0" points="2356,932 2356,900 2454,900 2454,932 "/>
   <g id="_455060136">
    <circle class="fil1 str0" cx="2949" cy="1335" r="96"/>
    <circle class="fil1 str0" cx="3142" cy="1335" r="96"/>
   </g>
   <ellipse class="fil1 str0" transform="matrix(3.7608E-14 1.42 -1.42 3.7608E-14 2460.99 1334.37)" rx="138" ry="71"/>
   <path class="fil1 str1" d="M2145 1015l319 0 0 124m-319 514l319 0 0 -123"/>
   <g>
    <path class="fil0" d="M3851 1336l-604 0 0 -20 604 0 0 20zm52 -73l0 19 0 0 -2 0 -2 1 -3 0 -2 0 -2 1 -2 0 -2 1 -2 1 -2 1 -2 1 -2 1 -1 1 -2 1 -2 1 -1 2 -2 1 -1 2 -2 1 -1 2 -1 2 -1 1 -1 2 -1 2 -1 2 -1 2 -1 2 0 2 -1 2 0 2 0 3 -1 2 0 2 -19 0 0 -3 0 -3 1 -4 0 -3 1 -3 1 -3 1 -3 1 -2 1 -3 2 -3 1 -3 2 -2 2 -3 2 -2 2 -2 2 -2 2 -2 2 -2 2 -2 3 -2 2 -2 3 -1 3 -2 3 -1 2 -1 3 -1 3 -1 3 -1 3 0 4 0 3 -1 3 0 0 0zm63 63l-19 0 0 0 0 -2 -1 -2 0 -3 0 -2 -1 -2 0 -2 -1 -2 -1 -2 -1 -2 -1 -2 -1 -2 -1 -1 -1 -2 -1 -2 -2 -1 -1 -2 -2 -1 -1 -2 -2 -1 -2 -1 -1 -1 -2 -1 -2 -1 -2 -1 -2 -1 -2 -1 -2 0 -2 -1 -2 0 -3 0 -2 -1 -2 0 0 -19 3 0 3 1 4 0 3 0 3 1 3 1 3 1 2 1 3 1 3 2 3 1 2 2 3 2 2 2 2 2 2 2 2 2 2 2 2 2 2 3 2 2 1 3 2 3 1 3 1 2 1 3 1 3 1 3 0 3 0 4 1 3 0 3 0 0zm-63 63l0 -19 0 0 2 0 2 -1 3 0 2 0 2 -1 2 0 2 -1 2 -1 2 -1 2 -1 2 -1 1 -1 2 -1 2 -1 1 -2 2 -1 1 -2 2 -1 1 -2 1 -2 1 -1 1 -2 1 -2 1 -2 1 -2 1 -2 0 -2 1 -2 0 -2 0 -3 1 -2 0 -2 19 0 0 3 -1 3 0 4 0 3 -1 3 -1 3 -1 3 -1 2 -1 3 -2 3 -1 3 -2 2 -2 3 -2 2 -2 2 -2 2 -2 3 -2 1 -2 2 -3 2 -2 2 -3 1 -3 2 -3 1 -2 1 -3 1 -3 1 -3 1 -3 0 -4 1 -3 0 -3 0 0 0zm-63 -63l19 0 0 2 1 2 0 3 0 2 1 2 0 2 1 2 1 2 1 2 1 2 1 2 1 1 1 2 1 2 2 1 1 2 2 1 1 2 2 1 2 1 1 1 2 1 2 1 2 1 2 1 2 1 2 0 2 1 2 0 3 0 2 1 2 0 0 19 -3 0 -3 0 -4 -1 -3 0 -3 -1 -3 -1 -3 -1 -2 -1 -3 -1 -3 -2 -3 -1 -2 -2 -3 -2 -2 -2 -2 -1 -2 -3 -2 -2 -2 -2 -2 -2 -2 -3 -2 -2 -1 -3 -2 -3 -1 -3 -1 -2 -1 -3 -1 -3 -1 -3 0 -3 -1 -4 0 -3 0 -3z"/>
   </g>
   <line class="fil1 str2" x1="2400" y1="377" x2="2400" y2= "377" />
   <path class="fil1 str3" d="M3043 377c339,0 129,0 467,0l0 957"/>
   <g>
    <path class="fil0" d="M853 952l0 0 4 1 3 0 3 0 3 1 3 0 3 1 3 1 3 1 3 2 2 1 3 2 2 1 3 2 2 2 3 2 2 2 2 2 2 2 2 3 1 2 2 3 2 2 1 3 1 3 1 3 1 3 1 3 1 3 0 3 1 3 0 3 0 3 -19 0 0 -2 0 -2 0 -2 -1 -2 0 -3 -1 -2 -1 -2 0 -2 -1 -2 -1 -1 -1 -2 -1 -2 -2 -2 -1 -1 -1 -2 -2 -2 -1 -1 -2 -1 -2 -2 -1 -1 -2 -1 -2 -1 -2 -1 -2 -1 -2 -1 -2 0 -2 -1 -2 0 -2 -1 -2 0 -2 0 -3 0 0 0 0 -20zm-62 63l0 0 0 -3 0 -3 0 -3 1 -3 1 -3 0 -3 1 -3 1 -3 2 -3 1 -3 2 -2 1 -3 2 -2 2 -3 2 -2 2 -2 2 -2 2 -2 3 -2 2 -2 3 -1 2 -2 3 -1 3 -2 3 -1 3 -1 3 -1 3 0 3 -1 3 0 3 0 3 -1 0 20 -2 0 -2 0 -2 0 -2 1 -3 0 -2 1 -2 0 -2 1 -2 1 -1 1 -2 1 -2 1 -2 1 -1 2 -2 1 -2 1 -1 2 -1 2 -2 1 -1 2 -1 2 -1 2 -1 1 -1 2 -1 2 0 2 -1 2 0 3 -1 2 0 2 0 2 0 2 0 0 -19 0zm62 63l0 0 -3 0 -3 0 -3 -1 -3 0 -3 -1 -3 -1 -3 -1 -3 -1 -3 -1 -3 -1 -2 -2 -3 -2 -2 -1 -3 -2 -2 -2 -2 -2 -2 -2 -2 -3 -2 -2 -2 -3 -1 -2 -2 -3 -1 -2 -2 -3 -1 -3 -1 -3 0 -3 -1 -3 -1 -3 0 -3 0 -3 0 -4 19 0 0 3 0 2 0 2 1 2 0 2 1 2 0 2 1 2 1 2 1 2 1 2 1 2 1 1 2 2 1 2 1 1 2 2 2 1 1 1 2 2 2 1 2 1 1 1 2 1 2 0 2 1 2 1 3 0 2 0 2 1 2 0 2 0 0 0 0 19zm63 -63l0 4 0 3 -1 3 0 3 -1 3 -1 3 -1 3 -1 3 -1 3 -1 2 -2 3 -2 2 -1 3 -2 2 -2 3 -2 2 -2 2 -3 2 -2 2 -3 1 -2 2 -3 2 -2 1 -3 1 -3 1 -3 1 -3 1 -3 1 -3 0 -3 1 -3 0 -4 0 0 -19 3 0 2 0 2 -1 2 0 2 0 2 -1 2 -1 2 0 2 -1 2 -1 2 -1 2 -1 1 -2 2 -1 2 -1 1 -2 2 -1 1 -2 1 -2 2 -1 1 -2 1 -2 1 -2 1 -2 0 -2 1 -2 1 -2 0 -2 1 -2 0 -2 0 -2 0 -3 19 0zm271 10l-282 0 0 -19 282 0 0 19z"/>
   </g>
   <line class="fil1 str2" x1="1825" y1="1015" x2="2145" y2= "1015" />
   <g>
    <path class="fil0" d="M853 1591l0 0 4 0 3 0 3 0 3 1 3 1 3 0 3 1 3 2 3 1 2 1 3 2 2 1 3 2 2 2 3 2 2 2 2 2 2 2 2 3 1 2 2 3 2 2 1 3 1 3 1 3 1 3 1 3 1 3 0 3 1 3 0 3 0 3 -19 0 0 -2 0 -2 0 -2 -1 -2 0 -2 -1 -3 -1 -2 0 -2 -1 -1 -1 -2 -1 -2 -1 -2 -2 -2 -1 -1 -1 -2 -2 -1 -1 -2 -2 -1 -2 -2 -1 -1 -2 -1 -2 -1 -2 -1 -2 -1 -2 -1 -2 0 -2 -1 -2 0 -2 -1 -2 0 -2 0 -3 0 0 0 0 -19zm-62 62l0 0 0 -3 0 -3 0 -3 1 -3 1 -3 0 -3 1 -3 1 -3 2 -3 1 -3 2 -2 1 -3 2 -2 2 -3 2 -2 2 -2 2 -2 2 -2 3 -2 2 -2 3 -1 2 -2 3 -1 3 -1 3 -2 3 -1 3 0 3 -1 3 -1 3 0 3 0 3 0 0 19 -2 0 -2 0 -2 0 -2 1 -3 0 -2 1 -2 0 -2 1 -2 1 -1 1 -2 1 -2 1 -2 1 -1 2 -2 1 -2 2 -1 1 -1 2 -2 1 -1 2 -1 2 -1 2 -1 2 -1 1 -1 2 0 2 -1 3 0 2 -1 2 0 2 0 2 0 2 0 0 -19 0zm62 63l0 0 -3 0 -3 0 -3 0 -3 -1 -3 -1 -3 -1 -3 -1 -3 -1 -3 -1 -3 -1 -2 -2 -3 -2 -2 -1 -3 -2 -2 -2 -2 -2 -2 -2 -2 -3 -2 -2 -2 -2 -1 -3 -2 -3 -1 -2 -2 -3 -1 -3 -1 -3 0 -3 -1 -3 -1 -3 0 -3 0 -3 0 -4 19 0 0 3 0 2 0 2 1 2 0 2 1 2 0 2 1 2 1 2 1 2 1 2 1 2 1 2 2 1 1 2 1 1 2 2 2 1 1 1 2 2 2 1 2 1 1 1 2 1 2 0 2 1 2 1 3 0 2 1 2 0 2 0 2 0 0 0 0 19zm63 -63l0 4 0 3 -1 3 0 3 -1 3 -1 3 -1 3 -1 3 -1 3 -1 2 -2 3 -2 3 -1 2 -2 2 -2 3 -2 2 -2 2 -3 2 -2 2 -3 1 -2 2 -3 2 -2 1 -3 1 -3 1 -3 1 -3 1 -3 1 -3 1 -3 0 -3 0 -4 0 0 -19 3 0 2 0 2 0 2 -1 2 0 2 -1 2 -1 2 0 2 -1 2 -1 2 -1 2 -1 1 -2 2 -1 2 -1 1 -2 2 -1 1 -2 1 -1 2 -2 1 -2 1 -2 1 -2 1 -2 0 -2 1 -2 1 -2 0 -2 1 -2 0 -2 0 -2 0 -3 19 0zm271 10l-282 0 0 -19 282 0 0 19z"/>
   </g>
   <line class="fil1 str2" x1="1825" y1="1653" x2="2145" y2= "1653" />
   <g>
    <path class="fil0" d="M3422 2242l10 0 0 100 -20 0 0 -100 10 0zm-319 40l319 0 0 19 -319 0 0 -19z"/>
   </g>
   <line class="fil1 str4" x1="2465" y1="2292" x2="2146" y2= "2292" />
   <path class="fil2" d="M3782 1097c11,0 21,2 30,7 8,5 15,12 20,22 5,9 7,19 7,29 0,18 -5,37 -16,57 -10,20 -24,35 -40,45 -17,11 -35,16 -53,16 -13,0 -24,-3 -32,-9 -9,-6 -16,-13 -20,-23 -4,-9 -6,-18 -6,-27 0,-16 4,-31 11,-47 8,-15 17,-28 27,-38 11,-10 22,-18 34,-24 12,-5 25,-8 38,-8zm-4 8c-9,0 -17,2 -25,6 -8,4 -16,11 -23,20 -8,9 -15,22 -21,37 -8,18 -12,36 -12,52 0,12 3,22 9,31 6,9 16,14 28,14 8,0 15,-2 22,-6 8,-3 15,-10 23,-19 10,-11 18,-26 25,-43 7,-18 10,-34 10,-49 0,-12 -3,-22 -9,-30 -6,-9 -15,-13 -27,-13z"/>
   <line class="fil1 str2" x1="2145" y1="1015" x2="2145" y2= "1015" />
   <polyline class="fil1 str2" points="2145,1015 2145,377 2400,377 2400,377 2400,377 "/>
   <polyline class="fil1 str2" points="2145,1015 2145,1015 2145,1015 2145,1015 2145,1015 "/>
   <path class="fil3 str2" d="M2208 1015c0,-35 -28,-63 -63,-63 -36,0 -64,28 -64,63 0,35 28,64 64,64 35,0 63,-29 63,-64z"/>
   <path class="fil2" d="M2024 875l28 -39c7,-10 11,-16 11,-19 0,-2 -1,-3 -2,-4 -2,-1 -6,-2 -14,-3l1 -3 47 0 -1 3c-5,1 -8,2 -9,2 -3,1 -6,3 -8,5 -4,4 -8,10 -15,19l-36 49 -11 36c-3,10 -4,16 -4,19 0,3 0,4 1,5 1,2 2,3 4,3 3,1 7,2 13,2l-1 4 -62 0 2 -4c6,0 10,-1 12,-2 3,-1 6,-3 7,-5 3,-3 5,-9 8,-18l13 -43 -16 -51c-3,-9 -5,-14 -8,-16 -2,-3 -6,-4 -12,-5l1 -3 54 0 -1 3c-7,1 -11,1 -12,2 -1,0 -3,1 -4,3 -1,1 -1,3 -1,5 0,3 1,8 3,15l12 40z"/>
   <line class="fil1 str2" x1="2145" y1="1653" x2="2145" y2= "1653" />
   <polyline class="fil1 str2" points="2145,1653 2145,1653 2145,1653 2145,1653 2145,1653 "/>
   <polyline class="fil1 str2" points="2145,1653 2145,2292 2145,2292 2145,2292 2145,2292 "/>
   <path class="fil3 str2" d="M2208 1653c0,-35 -28,-63 -63,-63 -36,0 -64,28 -64,63 0,36 28,64 64,64 35,0 63,-28 63,-64z"/>
   <path class="fil2" d="M2098 1373l57 0 -1 5c-8,1 -15,4 -21,7 -6,4 -15,11 -25,22l-43 44 12 46c1,4 3,11 6,20 2,6 4,10 6,12 2,3 5,4 8,6 3,1 7,2 13,2l-1 5 -66 0 2 -5c6,0 11,-1 14,-4 2,-1 4,-4 4,-6 0,-3 -2,-8 -4,-16l-12 -42 -39 40c-8,8 -12,13 -14,16 -1,1 -1,2 -1,4 0,2 1,4 4,6 1,1 4,1 10,2l-1 5 -56 0 1 -5c7,-1 13,-2 18,-5 6,-4 15,-11 27,-23l49 -49 -14 -49c-4,-14 -7,-24 -10,-27 -3,-4 -9,-5 -16,-6l1 -5 60 0 -1 5c-6,0 -9,0 -11,1 -2,1 -4,2 -5,3 -1,2 -1,3 -1,5 0,2 1,7 3,14l11 42 26 -27c11,-10 18,-19 22,-25 1,-2 2,-4 2,-6 0,-2 -1,-3 -3,-4 -2,-2 -6,-3 -12,-3l1 -5z"/>
   <line class="fil1 str2" x1="868" y1="1015" x2="868" y2= "1015" />
   <path class="fil2" d="M820 1520l-1 4 -69 0 2 -4c7,0 12,-1 14,-2 4,-1 6,-3 8,-6 3,-4 6,-10 8,-20l30 -102c2,-8 3,-15 3,-19 0,-2 0,-4 -1,-5 -1,-2 -3,-3 -5,-4 -2,-1 -7,-1 -13,-1l1 -5 65 0 -2 5c-5,0 -9,0 -12,2 -3,2 -6,4 -8,8 -2,3 -4,10 -8,22l-29 101c-2,9 -4,14 -4,16 0,2 1,4 2,5 1,1 3,2 5,3 2,1 7,1 14,2z"/>
   <path id="1" class="fil2" d="M872 1373l41 -20 4 0 0 142c0,9 1,15 2,17 0,3 2,5 5,6 2,1 7,2 15,2l0 4 -64 0 0 -4c8,0 13,-1 16,-2 2,-1 4,-3 5,-5 0,-2 1,-8 1,-18l0 -91c0,-12 -1,-20 -1,-24 -1,-2 -2,-4 -4,-5 -1,-2 -3,-2 -5,-2 -3,0 -7,1 -13,4l-2 -4z"/>
   <line class="fil1 str2" x1="868" y1="1653" x2="868" y2= "1653" />
   <path class="fil2" d="M826 847l-1 5 -69 0 2 -5c7,0 12,-1 14,-2 4,-1 6,-3 8,-5 3,-4 6,-11 8,-21l30 -102c2,-8 3,-14 3,-19 0,-2 0,-4 -1,-5 -1,-2 -3,-3 -5,-4 -2,0 -7,-1 -13,-1l1 -4 65 0 -2 4c-5,0 -9,1 -12,2 -3,2 -6,4 -8,8 -2,3 -4,11 -8,22l-29 101c-2,9 -4,14 -4,17 0,2 1,3 2,4 1,2 3,3 5,3 2,1 7,2 14,2z"/>
   <path id="1" class="fil2" d="M965 819l-12 33 -99 0 0 -5c29,-26 50,-48 62,-65 12,-17 18,-32 18,-46 0,-11 -4,-20 -10,-26 -7,-7 -14,-11 -24,-11 -8,0 -15,3 -22,7 -6,5 -11,12 -14,21l-5 0c2,-15 7,-26 16,-35 9,-8 19,-12 32,-12 14,0 25,5 34,13 9,9 14,20 14,31 0,9 -2,17 -6,26 -6,13 -16,28 -30,42 -20,23 -33,36 -38,41l44 0c8,0 15,-1 18,-1 4,-1 7,-2 10,-4 3,-2 5,-5 7,-9l5 0z"/>
   <line class="fil1 str4" x1="3422" y1="2292" x2="3422" y2= "2292" />
   <path class="fil3 str5" d="M3574 1333c0,-35 -29,-63 -64,-63 -35,0 -64,28 -64,63 0,35 29,64 64,64 35,0 64,-29 64,-64z"/>
   <path class="fil2" d="M1489 1450l-27 -82c-6,0 -12,-1 -19,-2l-15 53c-2,6 -3,12 -3,16 0,3 1,5 4,7 1,2 6,3 15,3l-2 5 -64 0 1 -5c7,0 11,-1 13,-2 3,-1 6,-3 7,-5 3,-4 6,-11 9,-21l29 -102c2,-6 3,-12 3,-15 0,-4 -2,-7 -5,-10 -3,-3 -7,-4 -13,-4l1 -4 55 0c19,0 32,3 40,10 8,7 12,16 12,27 0,11 -4,21 -12,30 -9,9 -20,15 -35,17l16 49c4,12 8,20 12,24 4,4 11,6 20,6l-2 5 -40 0zm-44 -91c6,1 10,1 14,1 14,0 25,-4 34,-12 8,-8 12,-17 12,-29 0,-9 -3,-16 -8,-21 -5,-5 -13,-8 -23,-8 -3,0 -6,1 -9,1l-20 68z"/>
   <path id="1" class="fil2" d="M1568 1298l41 -20 4 0 0 142c0,9 1,15 2,18 0,2 2,4 5,5 2,1 7,2 15,2l0 5 -64 0 0 -5c8,0 13,-1 16,-2 2,-1 4,-3 5,-5 0,-2 1,-8 1,-18l0 -91c0,-12 -1,-20 -1,-23 -1,-3 -2,-5 -4,-6 -1,-1 -3,-2 -5,-2 -3,0 -7,1 -13,4l-2 -4z"/>
   <path class="fil2" d="M1479 814l-27 -82c-6,0 -12,-1 -19,-2l-15 53c-2,6 -3,11 -3,16 0,3 1,5 3,7 2,1 7,2 15,3l-1 5 -64 0 1 -5c6,0 11,-1 13,-2 3,-1 6,-3 7,-6 3,-3 6,-10 8,-20l30 -102c2,-7 3,-12 3,-16 0,-3 -2,-7 -5,-9 -3,-3 -8,-4 -13,-4l1 -5 55 0c18,0 32,4 40,11 8,7 12,16 12,27 0,11 -4,21 -13,30 -8,9 -19,14 -34,17l16 49c4,12 8,20 12,24 4,3 11,5 19,6l-1 5 -40 0zm-44 -91c5,1 10,1 14,1 14,0 25,-4 33,-12 9,-8 13,-18 13,-29 0,-10 -3,-17 -8,-21 -5,-5 -13,-8 -23,-8 -3,0 -6,1 -9,1l-20 68z"/>
   <path id="1" class="fil2" d="M1645 781l-12 33 -99 0 0 -5c29,-27 50,-48 62,-65 11,-17 17,-32 17,-46 0,-11 -3,-20 -9,-27 -7,-6 -15,-10 -24,-10 -8,0 -15,2 -22,7 -7,5 -11,12 -15,21l-4 0c2,-15 7,-27 16,-35 8,-8 19,-12 32,-12 13,0 25,4 34,13 9,9 14,19 14,31 0,9 -2,17 -6,26 -6,13 -16,27 -30,42 -21,23 -33,36 -38,41l43 0c9,0 15,-1 19,-1 3,-1 7,-2 10,-5 2,-1 5,-4 7,-8l5 0z"/>
   <path class="fil2" d="M2701 171l-26 -81c-6,0 -13,-1 -19,-2l-15 53c-2,6 -3,11 -3,15 0,4 1,6 3,8 2,1 7,2 15,3l-1 4 -64 0 1 -4c6,0 10,-1 12,-2 4,-1 6,-3 8,-6 3,-4 5,-10 8,-20l29 -102c2,-7 3,-12 3,-16 0,-3 -1,-7 -4,-9 -3,-3 -8,-4 -14,-4l2 -5 55 0c18,0 31,4 39,11 9,7 13,16 13,27 0,11 -5,21 -13,30 -8,9 -20,14 -34,17l16 49c4,12 8,20 12,24 4,3 10,5 19,6l-1 4 -41 0zm-43 -90c5,1 10,1 14,1 14,0 25,-4 33,-12 8,-8 13,-18 13,-29 0,-10 -3,-17 -8,-22 -5,-4 -13,-7 -23,-7 -3,0 -6,1 -10,1l-19 68z"/>
   <path id="1" class="fil2" d="M2764 36c5,-12 11,-21 18,-27 8,-6 17,-9 28,-9 13,0 23,4 31,13 5,7 8,14 8,21 0,12 -8,25 -23,38 10,4 18,10 23,17 6,8 8,17 8,27 0,14 -4,27 -14,37 -12,14 -29,21 -52,21 -11,0 -19,-1 -23,-4 -4,-3 -6,-6 -6,-9 0,-2 1,-5 3,-6 1,-2 4,-3 7,-3 2,0 4,0 6,1 1,0 4,2 9,5 5,2 9,4 11,4 3,1 6,2 10,2 8,0 15,-4 22,-10 6,-7 9,-14 9,-23 0,-7 -1,-13 -4,-19 -3,-5 -5,-9 -7,-11 -4,-3 -9,-6 -15,-9 -6,-3 -13,-4 -19,-4l-4 0 0 -4c6,-1 13,-3 20,-7 6,-4 11,-8 14,-14 3,-5 4,-11 4,-18 0,-8 -2,-15 -8,-20 -5,-6 -12,-8 -20,-8 -12,0 -23,7 -32,20l-4 -1z"/>
   <path class="fil2" d="M2755 2084l-27 -82c-6,1 -12,0 -18,-1l-16 53c-2,6 -3,11 -3,15 0,3 2,6 4,8 2,1 7,2 15,3l-1 4 -65 0 2 -4c6,-1 10,-1 12,-2 4,-2 6,-4 8,-6 2,-4 5,-11 8,-21l29 -101c2,-7 3,-12 3,-16 0,-4 -1,-7 -4,-10 -4,-2 -8,-4 -14,-3l2 -5 55 0c18,0 31,3 39,10 8,7 12,16 12,28 0,11 -4,21 -12,29 -8,9 -20,15 -34,18l16 49c4,12 8,20 12,23 4,4 10,6 19,7l-1 4 -41 0zm-43 -90c5,0 10,1 14,1 14,0 25,-4 33,-12 8,-8 12,-18 12,-30 0,-9 -2,-16 -7,-21 -6,-5 -13,-7 -24,-7 -2,0 -5,0 -9,1l-19 68z"/>
   <path id="1" class="fil2" d="M2923 2022l0 18 -22 0 0 44 -21 0 0 -44 -71 0 0 -16 78 -111 14 0 0 109 22 0zm-43 0l0 -83 -59 83 59 0z"/>
   <polyline class="fil1 str6" points="3043,379 2990,511 2883,244 2777,511 2671,244 2564,511 2458,244 2405,379 "/>
   <polyline class="fil1 str6" points="1825,1017 1772,1149 1666,882 1560,1149 1453,882 1347,1149 1241,882 1187,1018 "/>
   <polyline class="fil1 str6" points="1825,1656 1772,1787 1666,1520 1560,1787 1453,1520 1347,1787 1241,1520 1187,1656 "/>
   <polyline class="fil1 str6" points="2465,2289 2518,2158 2624,2425 2731,2158 2837,2425 2943,2158 3050,2425 3103,2289 "/>
   <g>
    <path class="fil2" d="M2690 1322l163 0 0 14 -163 0 -7 -7 7 -7zm-7 7l0 -7 7 0 -7 7zm0 135l0 -135 13 0 0 135 -13 0zm-35 0l0 -8 83 0 0 16 -83 0 0 -8z"/>
   </g>
   <polygon class="fil0" points="2407,1855 2407,1784 2337,1784 2337,1755 2407,1755 2407,1684 2437,1684 2437,1755 2507,1755 2507,1784 2437,1784 2437,1855 "/>
   <g>
    <path class="fil2" d="M3825 1560l-250 666 -13 -5 250 -666 13 5zm13 -55l6 121 -3 -2 -2 -2 -2 -3 -3 -2 -2 -2 -3 -2 -2 -2 -3 -1 -2 -2 -3 -2 -3 -1 -2 -2 -3 -1 -3 -1 -2 -2 -3 -1 -3 -1 -3 -1 -3 0 -3 -1 -3 -1 -3 0 -3 -1 -3 0 -3 -1 -3 0 -3 0 -3 0 -3 0 -4 0 -3 0 -3 1 0 0 84 -88z"/>
   </g>
   <g>
    <path class="fil0" d="M383 2453l0 10 -100 0 0 -20 100 0 0 10zm-41 -282l0 282 -19 0 0 -282 19 0zm-72 -52l19 0 0 0 0 2 0 2 1 3 0 2 1 2 0 2 1 2 1 2 0 2 1 2 1 2 2 1 1 2 1 2 2 1 1 2 1 1 2 2 2 1 1 1 2 1 2 1 2 1 2 1 2 1 2 1 2 0 2 1 2 0 2 0 3 1 2 0 0 19 -3 0 -4 -1 -3 0 -3 -1 -3 0 -3 -1 -3 -1 -3 -1 -2 -1 -3 -2 -3 -1 -2 -2 -3 -2 -2 -2 -2 -2 -3 -2 -2 -2 -2 -2 -2 -3 -1 -2 -2 -3 -1 -2 -2 -3 -1 -3 -1 -2 -1 -3 -1 -3 -1 -3 0 -4 -1 -3 0 -3 0 -3 0 0zm63 -63l0 19 0 0 -2 0 -3 0 -2 1 -2 0 -2 1 -2 0 -2 1 -2 1 -2 1 -2 1 -2 1 -2 1 -1 1 -2 1 -2 2 -1 1 -1 2 -2 1 -1 2 -1 2 -2 1 -1 2 -1 2 0 2 -1 2 -1 2 0 2 -1 2 0 2 -1 3 0 2 0 2 -19 0 0 -3 0 -3 1 -4 0 -3 1 -3 1 -3 1 -3 1 -2 1 -3 2 -3 1 -3 2 -2 1 -3 2 -2 2 -2 2 -2 3 -3 2 -1 2 -2 3 -2 2 -2 3 -1 3 -2 2 -1 3 -1 3 -1 3 -1 3 -1 3 0 3 -1 4 0 3 0 0 0zm63 63l-20 0 0 0 0 -2 0 -2 0 -3 0 -2 -1 -2 0 -2 -1 -2 -1 -2 -1 -2 -1 -2 -1 -2 -1 -1 -1 -2 -2 -2 -1 -1 -1 -2 -2 -1 -1 -2 -2 -1 -2 -1 -2 -1 -1 -1 -2 -1 -2 -1 -2 -1 -2 -1 -2 0 -2 -1 -3 0 -2 -1 -2 0 -2 0 0 -19 3 0 3 0 3 1 3 0 3 1 3 1 3 1 3 1 3 1 3 2 2 1 3 2 2 2 3 2 2 1 2 3 2 2 2 2 2 2 2 3 2 2 1 3 1 3 2 3 1 2 1 3 1 3 0 3 1 3 0 4 1 3 0 3 0 0zm-63 63l0 -19 2 0 2 -1 2 0 3 0 2 -1 2 0 2 -1 2 -1 2 -1 2 -1 1 -1 2 -1 2 -1 2 -1 1 -2 2 -1 1 -2 1 -1 2 -2 1 -2 1 -1 1 -2 1 -2 1 -2 1 -2 1 -2 0 -2 1 -2 0 -2 0 -3 0 -2 0 -2 20 0 0 3 -1 3 0 3 -1 4 0 3 -1 3 -1 3 -1 2 -2 3 -1 3 -1 2 -2 3 -2 2 -2 3 -2 2 -2 2 -2 2 -2 2 -3 2 -2 2 -3 2 -2 1 -3 2 -3 1 -3 1 -3 1 -3 1 -3 0 -3 1 -3 0 -3 1 -3 0z"/>
   </g>
   <g>
    <path class="fil2" d="M676 1117l-356 821 -13 -6 357 -821 12 6zm17 -55l-1 122 -2 -2 -2 -3 -3 -2 -2 -3 -2 -2 -3 -2 -2 -2 -2 -2 -3 -2 -2 -1 -3 -2 -2 -2 -3 -1 -3 -1 -2 -2 -3 -1 -3 -1 -3 -1 -3 -1 -2 -1 -3 -1 -3 -1 -3 0 -3 -1 -3 0 -4 -1 -3 0 -3 0 -3 0 -3 0 -4 0 -3 0 0 0 89 -84z"/>
   </g>
   <path class="fil2" d="M3776 1886l70 0 -1 4c-7,1 -12,1 -15,2 -4,2 -6,4 -8,7 -3,3 -5,9 -7,17l-19 63c-3,11 -5,18 -6,22 -1,5 -1,9 -1,13 0,9 4,17 11,23 8,7 18,10 31,10 9,0 16,-2 23,-5 6,-3 12,-7 16,-13 5,-6 9,-13 13,-23 4,-9 7,-19 10,-29l15 -51c4,-13 5,-21 5,-25 0,-3 -1,-5 -3,-7 -3,-2 -8,-3 -16,-4l2 -4 53 0 -1 4c-7,0 -11,1 -14,2 -3,1 -5,4 -7,7 -2,3 -5,9 -7,18l-19 65c-6,22 -12,37 -16,45 -5,9 -12,16 -22,22 -10,6 -23,9 -37,9 -17,0 -31,-5 -41,-14 -11,-10 -16,-21 -16,-33 0,-5 0,-10 1,-16 1,-3 3,-10 5,-19l17 -57c2,-8 4,-14 4,-18 0,-3 -2,-6 -4,-7 -2,-2 -8,-3 -18,-4l2 -4z"/>
   <path id="1" class="fil2" d="M4050 1958c12,0 21,3 30,7 9,5 15,12 20,22 5,9 8,19 8,29 0,18 -6,37 -16,57 -11,20 -24,35 -41,45 -17,11 -34,16 -52,16 -13,0 -24,-3 -33,-9 -9,-5 -15,-13 -19,-22 -5,-10 -7,-19 -7,-28 0,-16 4,-31 12,-46 7,-16 16,-29 27,-39 10,-10 22,-18 33,-24 12,-5 25,-8 38,-8zm-4 8c-8,0 -16,2 -24,6 -8,4 -16,11 -24,20 -8,10 -15,22 -21,37 -8,18 -11,36 -11,52 0,12 3,22 9,31 6,10 15,14 27,14 8,0 15,-2 23,-6 7,-3 15,-10 22,-19 10,-11 19,-25 25,-43 7,-18 10,-34 10,-49 0,-11 -3,-21 -9,-30 -6,-9 -15,-13 -27,-13z"/>
   <g>
    <path class="fil2" d="M7 1235l70 0 -1 5c-7,0 -12,1 -15,2 -4,1 -6,3 -8,6 -3,3 -5,9 -7,18l-19 62c-3,11 -5,19 -6,22 -1,5 -1,9 -1,14 0,9 4,16 11,23 8,6 18,9 31,9 9,0 16,-2 23,-5 6,-3 12,-7 17,-13 4,-5 8,-13 12,-22 4,-10 7,-19 10,-29l15 -52c4,-12 5,-21 5,-25 0,-2 -1,-5 -3,-7 -3,-2 -8,-3 -16,-3l2 -5 53 0 -1 5c-7,0 -11,0 -14,2 -3,1 -5,3 -7,6 -2,3 -4,9 -7,18l-19 66c-6,21 -11,36 -16,45 -5,8 -12,16 -22,21 -10,6 -23,9 -37,9 -17,0 -31,-5 -41,-14 -11,-10 -16,-21 -16,-33 0,-5 0,-10 1,-15 1,-4 3,-10 5,-19l17 -58c3,-8 4,-14 4,-18 0,-3 -1,-5 -4,-7 -2,-2 -8,-3 -18,-3l2 -5z"/>
    <path id="1" class="fil2" d="M218 1475l-1 5 -69 0 2 -5c7,0 12,-1 14,-2 3,-1 6,-3 8,-6 3,-4 5,-10 8,-20l29 -102c3,-8 4,-15 4,-19 0,-2 0,-4 -1,-5 -2,-2 -3,-3 -5,-4 -3,-1 -7,-1 -13,-1l1 -5 64 0 -1 5c-5,0 -9,0 -12,2 -3,2 -6,4 -8,8 -2,3 -5,10 -8,22l-29 101c-2,9 -4,14 -4,16 0,2 1,4 2,5 1,1 2,2 5,3 2,1 7,1 14,2z"/>
    <path id="2" class="fil2" d="M387 1302l-44 149c-2,8 -4,14 -4,16 0,1 1,2 1,2 1,1 1,1 2,1 0,0 1,0 2,-1 2,-2 5,-7 10,-15l4 3c-5,8 -10,14 -15,19 -5,4 -9,6 -14,6 -2,0 -4,-1 -6,-3 -1,-2 -2,-4 -2,-8 0,-5 1,-11 3,-19l5 -15c-13,18 -25,31 -36,38 -7,5 -15,7 -21,7 -7,0 -13,-2 -18,-8 -6,-6 -8,-13 -8,-23 0,-12 4,-25 13,-39 8,-14 19,-25 33,-34 11,-7 21,-11 31,-11 4,0 9,1 12,3 4,2 7,5 10,9l12 -41c2,-4 3,-8 3,-11 1,-3 2,-6 2,-8 0,-2 -1,-3 -2,-4 -2,-2 -4,-3 -7,-3 -1,0 -5,1 -9,1l0 -4 43 -7zm-48 89c0,-5 -2,-9 -5,-13 -4,-3 -8,-5 -13,-5 -12,0 -24,9 -36,26 -13,18 -19,34 -19,50 0,6 2,11 5,14 3,3 7,5 11,5 10,0 22,-9 36,-28 14,-19 21,-35 21,-49z"/>
    <path id="3" class="fil2" d="M199 1700l-84 0 0 -4c43,-38 71,-67 85,-88 6,-10 9,-20 9,-31 0,-9 -2,-16 -8,-21 -5,-6 -12,-8 -20,-8 -12,0 -21,5 -29,16l-4 -2c4,-10 10,-18 18,-24 8,-6 17,-9 27,-9 10,0 19,3 26,11 8,7 11,16 11,26 0,8 -1,14 -4,20 -4,10 -11,21 -22,33 -16,18 -37,39 -64,63l42 0c7,0 12,-1 17,-4 4,-3 7,-7 9,-11l5 0 -14 33z"/>
    <line class="fil1 str7" x1="8" y1="1502" x2="378" y2= "1502" />
   </g>
   <g>
    <path class="fil2" d="M796 1848l71 0 -1 5c-8,0 -13,1 -16,2 -3,1 -6,3 -8,6 -2,3 -4,9 -7,18l-18 62c-4,11 -5,19 -6,22 -1,5 -2,9 -2,14 0,9 4,16 12,23 8,6 18,9 31,9 8,0 16,-1 22,-5 7,-3 12,-7 17,-13 5,-5 9,-13 13,-22 4,-10 7,-19 10,-29l14 -52c4,-12 6,-21 6,-25 0,-2 -1,-5 -4,-7 -2,-2 -7,-3 -15,-3l1 -5 54 0 -2 5c-6,0 -11,0 -13,2 -3,1 -6,3 -8,6 -2,3 -4,9 -7,19l-18 65c-6,21 -12,36 -17,45 -4,8 -12,16 -22,22 -10,5 -22,8 -37,8 -17,0 -30,-5 -41,-14 -10,-10 -15,-20 -15,-33 0,-5 0,-10 1,-15 1,-4 2,-10 5,-19l17 -57c2,-9 3,-15 3,-19 0,-3 -1,-5 -3,-7 -3,-2 -9,-3 -18,-3l1 -5z"/>
    <path id="1" class="fil2" d="M1007 2088l-1 5 -68 0 2 -5c6,0 11,-1 13,-2 4,-1 7,-3 8,-6 3,-3 6,-10 9,-20l29 -102c2,-8 4,-15 4,-19 0,-2 -1,-4 -2,-5 -1,-2 -3,-3 -5,-4 -2,-1 -6,-1 -13,-1l2 -5 64 0 -1 5c-6,0 -10,0 -12,2 -4,2 -7,4 -9,8 -2,3 -4,10 -7,22l-29 101c-3,9 -4,14 -4,16 0,2 0,4 1,5 1,2 3,3 5,3 2,1 7,2 14,2z"/>
    <path id="2" class="fil2" d="M1176 1915l-44 149c-2,8 -3,14 -3,16 0,1 0,2 1,2 0,1 1,1 1,1 1,0 2,0 3,-1 2,-2 5,-7 9,-15l4 3c-4,8 -9,14 -14,19 -5,4 -10,6 -14,6 -2,0 -4,-1 -6,-3 -2,-2 -3,-4 -3,-8 0,-5 1,-11 4,-19l5 -15c-14,18 -26,31 -36,38 -8,5 -15,7 -22,7 -7,0 -13,-2 -18,-8 -5,-6 -8,-13 -8,-23 0,-12 5,-25 13,-39 9,-14 20,-25 34,-34 11,-7 21,-11 30,-11 5,0 9,1 13,3 3,2 7,5 10,9l12 -41c1,-4 2,-8 3,-11 1,-3 1,-6 1,-8 0,-2 0,-3 -1,-4 -2,-2 -4,-2 -7,-2 -2,0 -5,0 -9,0l0 -4 42 -7zm-48 89c0,-5 -1,-9 -5,-13 -3,-3 -8,-4 -13,-4 -11,0 -23,8 -36,25 -12,18 -18,34 -18,50 0,6 1,11 4,14 4,3 7,5 12,5 10,0 22,-9 36,-28 13,-19 20,-35 20,-49z"/>
    <path id="3" class="fil2" d="M989 2313l-84 0 0 -4c42,-38 71,-67 84,-88 7,-10 10,-20 10,-31 0,-9 -3,-16 -8,-21 -5,-6 -12,-8 -21,-8 -11,0 -21,5 -28,17l-5 -2c5,-11 11,-19 19,-25 8,-6 17,-9 26,-9 11,0 20,3 27,11 7,7 11,16 11,26 0,8 -1,14 -4,21 -4,9 -11,20 -22,32 -16,18 -38,39 -65,63l43 0c6,0 12,-1 16,-4 5,-3 8,-7 10,-11l5 0 -14 33z"/>
    <line class="fil1 str7" x1="798" y1="2115" x2="1168" y2= "2115" />
   </g>
   <g>
    <path class="fil2" d="M527 2006l226 -223 10 10 -227 222 -9 -9zm-36 44l47 -113 1 3 1 3 1 3 1 3 2 3 1 3 1 3 2 3 2 2 1 3 2 2 2 3 2 2 2 2 2 3 2 2 2 2 2 2 2 2 3 2 2 2 2 1 3 2 3 2 2 1 3 2 3 1 3 2 3 1 3 1 3 1 3 2 0 0 -114 44z"/>
   </g>
  </g>
 </g>
</svg>
