<?xml version="1.0" encoding="UTF-8"?>
<!DOCTYPE svg PUBLIC "-//W3C//DTD SVG 1.1//EN" "http://www.w3.org/Graphics/SVG/1.1/DTD/svg11.dtd">
<!-- Creator: CorelDRAW Home & Student X8 -->
<svg xmlns="http://www.w3.org/2000/svg" xml:space="preserve" width="92.5552mm" height="49.2413mm" version="1.1" style="shape-rendering:geometricPrecision; text-rendering:geometricPrecision; image-rendering:optimizeQuality; fill-rule:evenodd; clip-rule:evenodd"
viewBox="0 0 102962 54778"
 xmlns:xlink="http://www.w3.org/1999/xlink">
 <defs>
  <style type="text/css">
   <![CDATA[
    .str2 {stroke:#2B2A29;stroke-width:778.598}
    .str0 {stroke:#2B2A29;stroke-width:556.221}
    .str1 {stroke:#2B2A29;stroke-width:333.733}
    .str6 {stroke:black;stroke-width:1112.44}
    .str3 {stroke:black;stroke-width:778.71}
    .str4 {stroke:black;stroke-width:556.221}
    .str5 {stroke:black;stroke-width:556.221}
    .str7 {stroke:black;stroke-width:333.733}
    .fil0 {fill:none}
    .fil2 {fill:black}
    .fil1 {fill:#2B2A29;fill-rule:nonzero}
   ]]>
  </style>
 </defs>
 <g id="Warstwa_x0020_1">
  <metadata id="CorelCorpID_0Corel-Layer"/>
  <g id="_509646552">
   <circle class="fil0 str0" transform="matrix(0 1 -1 0 48511.1 18325.7)" r="5562"/>
   <circle class="fil0 str0" transform="matrix(0 0.80758 -0.80758 0 48511.1 18325.7)" r="5562"/>
   <g>
    <path class="fil1" d="M48344 19991l0 -4722 334 0 0 4722 -334 0zm167 1392l-1187 -2769 74 36 75 33 74 32 74 29 74 26 74 24 74 23 75 19 74 18 74 15 74 12 74 11 75 8 74 6 74 3 74 1 74 -1 74 -3 75 -6 74 -8 74 -11 74 -12 74 -15 74 -18 75 -19 74 -23 74 -24 74 -26 74 -29 74 -32 75 -33 74 -36 0 0 -1187 2769z"/>
   </g>
  </g>
  <polyline class="fil0 str1" points="29917,23888 29917,27704 48729,27704 48729,23886 "/>
  <line class="fil0 str1" x1="48511" y1="12764" x2="48511" y2= "9014" />
  <polyline class="fil0 str1" points="29917,12763 29917,9014 17457,9014 17457,27093 "/>
  <g>
   <path class="fil1" d="M38757 27704l0 6898 -334 0 0 -6898 334 0zm-1334 0l0 0 1 -60 5 -59 7 -58 11 -58 13 -56 16 -55 18 -54 21 -53 23 -52 26 -50 28 -49 30 -48 33 -45 35 -45 36 -42 39 -41 40 -38 43 -37 44 -35 46 -32 47 -31 49 -28 50 -26 52 -23 53 -21 54 -18 55 -16 57 -13 57 -11 59 -7 59 -5 60 -1 0 0 60 1 59 5 59 7 57 11 56 13 56 16 54 18 53 21 52 23 50 26 49 28 47 31 46 32 44 35 42 37 41 38 39 41 36 42 35 45 32 45 31 48 28 49 26 50 23 52 21 53 18 54 16 55 13 56 10 58 8 58 4 59 2 60 0 0 -2 60 -4 59 -8 58 -10 58 -13 56 -16 55 -18 54 -21 53 -23 52 -26 50 -28 49 -31 47 -32 46 -35 44 -36 43 -39 40 -41 39 -42 37 -44 34 -46 33 -47 30 -49 29 -50 26 -52 23 -53 21 -54 18 -56 16 -56 13 -57 10 -59 8 -59 4 -60 2 0 0 -60 -2 -59 -4 -59 -8 -57 -10 -57 -13 -55 -16 -54 -18 -53 -21 -52 -23 -50 -26 -49 -29 -47 -30 -46 -33 -44 -34 -43 -37 -40 -39 -39 -40 -36 -43 -35 -44 -33 -46 -30 -47 -28 -49 -26 -50 -23 -52 -21 -53 -18 -54 -16 -55 -13 -56 -11 -58 -7 -58 -5 -59 -1 -60z"/>
  </g>
  <g>
   <path class="fil1" d="M38308 54556l115 -8832 334 4 -115 8833 -334 -5zm-1512 -19l2 -198 3359 44 -5 395 -3359 -44 3 -197z"/>
  </g>
  <g>
   <path class="fil1" d="M17081 54404l132 -16078 334 3 -132 16077 -334 -2zm-1512 -13l1 -197 3359 27 -3 395 -3359 -27 2 -198z"/>
  </g>
  <path class="fil1" d="M45749 41290l-836 0 -1060 -1460c-76,3 -138,4 -186,4 -20,0 -41,0 -63,-1 -23,-1 -46,-2 -70,-3l0 909c0,196 21,318 65,365 58,67 145,101 261,101l122 0 0 85 -1338 0 0 -85 117 0c132,0 226,-43 283,-129 32,-47 47,-160 47,-337l0 -2021c0,-196 -21,-317 -64,-365 -59,-67 -148,-101 -266,-101l-117 0 0 -85 1137 0c332,0 576,25 733,73 157,48 291,138 400,267 110,130 165,284 165,464 0,192 -63,359 -188,500 -125,141 -318,241 -581,300l646 894c147,205 273,343 379,410 106,69 244,111 414,130l0 85zm-2215 -1606c29,0 54,0 76,1 21,0 38,1 51,1 295,0 517,-64 666,-193 150,-129 224,-294 224,-493 0,-195 -60,-353 -180,-476 -121,-121 -281,-182 -480,-182 -88,0 -207,14 -357,42l0 1300z"/>
  <path id="1" class="fil1" d="M46252 39288l0 -108c160,-94 268,-181 325,-262 40,-58 61,-128 61,-209 0,-48 -9,-83 -26,-106 -18,-23 -39,-35 -60,-35 -17,0 -40,6 -67,17 -41,13 -74,20 -100,20 -62,0 -117,-22 -165,-69 -48,-46 -72,-103 -72,-172 0,-77 23,-137 71,-180 65,-58 141,-87 230,-87 103,0 196,43 277,130 83,86 124,194 124,323 0,181 -69,346 -205,494 -91,98 -221,180 -393,244z"/>
  <path id="2" class="fil1" d="M47929 40263l0 823 459 0c119,0 198,-18 237,-54 54,-47 83,-129 89,-248l57 0 0 725 -57 0c-14,-101 -28,-167 -43,-195 -18,-36 -48,-64 -90,-85 -42,-20 -106,-30 -193,-30l-459 0 0 686c0,92 5,148 13,168 8,20 22,36 42,48 21,12 60,18 117,18l352 0c117,0 203,-9 256,-25 53,-16 104,-49 153,-97 63,-63 128,-159 195,-287l62 0 -179 522 -1604 0 0 -57 74 0c49,0 96,-12 140,-36 33,-16 55,-40 67,-73 12,-33 17,-100 17,-202l0 -1353c0,-132 -13,-213 -39,-243 -38,-41 -99,-61 -185,-61l-74 0 0 -57 1604 0 22 458 -59 0c-22,-110 -45,-186 -71,-227 -27,-42 -65,-73 -116,-95 -41,-15 -113,-23 -216,-23l-571 0z"/>
  <path class="fil1" d="M24198 33855l-836 0 -1061 -1460c-76,3 -138,5 -186,5 -19,0 -40,-1 -62,-2 -23,0 -46,-1 -70,-3l0 909c0,196 21,318 64,365 58,68 145,101 262,101l121 0 0 85 -1337 0 0 -85 117 0c132,0 226,-43 282,-128 32,-47 48,-160 48,-338l0 -2020c0,-196 -21,-318 -64,-365 -60,-68 -149,-101 -266,-101l-117 0 0 -85 1136 0c332,0 576,24 733,72 158,49 291,138 401,268 110,129 164,284 164,464 0,192 -62,358 -187,500 -126,141 -319,241 -582,299l646 894c148,206 274,343 380,411 105,68 243,111 414,129l0 85zm-2215 -1606c29,0 54,0 75,1 21,1 39,2 52,2 294,0 516,-65 666,-193 149,-130 224,-294 224,-493 0,-195 -60,-354 -180,-476 -121,-122 -281,-183 -480,-183 -88,0 -207,14 -357,43l0 1299z"/>
  <path id="1" class="fil1" d="M25603 33734c144,31 252,79 324,147 98,95 148,210 148,346 0,103 -32,203 -98,297 -65,95 -155,164 -269,208 -113,43 -287,65 -521,65l-980 0 0 -56 78 0c86,0 148,-28 185,-83 24,-36 35,-112 35,-228l0 -1347c0,-129 -14,-210 -44,-243 -39,-45 -98,-68 -176,-68l-78 0 0 -56 897 0c167,0 301,12 402,36 154,37 270,102 351,196 81,94 121,201 121,323 0,104 -32,197 -95,280 -63,82 -156,143 -280,183zm-802 -86c37,8 81,13 129,17 48,3 102,5 160,5 149,0 262,-16 336,-48 75,-32 133,-81 173,-148 39,-66 59,-138 59,-216 0,-122 -50,-225 -149,-311 -99,-85 -243,-128 -433,-128 -102,0 -194,11 -275,34l0 795zm0 998c118,28 236,41 352,41 185,0 327,-42 425,-125 97,-83 146,-186 146,-309 0,-80 -23,-158 -68,-232 -45,-75 -118,-134 -217,-177 -98,-43 -221,-64 -367,-64 -64,0 -118,1 -163,3 -45,2 -81,6 -108,10l0 853z"/>
  <path class="fil1" d="M27323 4454l27 -71 934 0c157,0 297,25 419,73 123,49 215,116 276,203 61,87 91,179 91,276 0,150 -57,285 -172,405 -114,121 -300,210 -559,268 171,59 298,137 378,234 81,97 122,205 122,321 0,130 -33,253 -99,371 -67,118 -152,209 -256,275 -104,65 -230,113 -377,144 -105,21 -267,32 -490,32l-951 0 24 -70c100,-3 168,-13 203,-29 52,-22 88,-50 109,-87 31,-48 72,-159 123,-333l454 -1576c39,-133 59,-227 59,-280 0,-48 -18,-85 -53,-113 -35,-27 -102,-41 -200,-41 -22,0 -42,-1 -62,-2zm396 1079c83,3 143,4 179,4 265,0 461,-57 590,-172 129,-116 194,-260 194,-432 0,-132 -40,-234 -119,-306 -79,-74 -206,-110 -380,-110 -46,0 -105,8 -177,23l-287 993zm-369 1284c140,18 249,27 329,27 202,0 381,-60 537,-181 157,-121 234,-284 234,-490 0,-158 -49,-281 -146,-370 -97,-88 -255,-132 -473,-132 -42,0 -93,2 -154,7l-327 1139z"/>
  <path class="fil1" d="M53562 4817l-192 844 -71 0 -7 -211c-7,-77 -21,-146 -45,-206 -23,-60 -58,-112 -104,-156 -46,-45 -105,-79 -176,-104 -71,-25 -149,-37 -235,-37 -231,0 -433,62 -605,188 -220,160 -393,385 -518,677 -102,241 -154,484 -154,731 0,252 74,453 222,603 149,151 342,226 580,226 179,0 339,-40 479,-119 139,-80 270,-202 390,-368l91 0c-141,224 -297,388 -468,493 -172,106 -377,159 -616,159 -212,0 -400,-45 -564,-134 -164,-89 -288,-214 -374,-374 -85,-161 -129,-335 -129,-520 0,-284 76,-560 229,-829 151,-268 360,-480 625,-633 265,-153 532,-230 802,-230 126,0 268,30 425,91 69,26 118,39 149,39 31,0 58,-7 81,-20 22,-12 61,-49 115,-110l70 0z"/>
  <path class="fil1" d="M42372 23685l-294 1028 247 0c175,0 301,-26 379,-79 78,-53 146,-151 202,-294l71 0 -267 938 -79 0c23,-79 35,-147 35,-203 0,-54 -11,-98 -34,-131 -22,-34 -52,-58 -91,-74 -39,-16 -120,-24 -243,-24l-257 0 -259 902c-24,72 -36,126 -36,164 0,29 16,55 48,76 23,16 78,24 168,24l237 0c249,0 448,-44 598,-132 150,-89 284,-242 403,-461l71 0 -247 726 -2002 0 24 -70c100,-3 167,-12 202,-27 51,-23 88,-53 111,-89 35,-52 75,-162 122,-329l452 -1571c36,-126 54,-223 54,-289 0,-49 -17,-87 -51,-115 -33,-27 -99,-41 -198,-41l-40 0 23 -71 1868 0 -161 628 -71 0c9,-59 13,-108 13,-148 0,-67 -16,-124 -49,-170 -44,-59 -107,-103 -191,-134 -61,-23 -203,-34 -424,-34l-334 0z"/>
  <path class="fil1" d="M34647 16579l0 1540c170,-187 305,-307 405,-359 100,-53 200,-80 300,-80 119,0 222,33 308,99 86,66 149,170 191,311 29,99 44,279 44,539l0 747c0,132 11,223 32,272 15,36 41,65 78,87 36,21 103,32 201,32l0 84 -1032 0 0 -84 48 0c98,0 166,-15 204,-45 39,-30 65,-74 80,-131 5,-24 7,-97 7,-215l0 -747c0,-230 -11,-382 -36,-454 -23,-72 -61,-126 -113,-163 -52,-36 -116,-54 -190,-54 -75,0 -153,20 -234,60 -82,40 -179,121 -293,242l0 1116c0,143 8,232 24,267 16,35 46,65 90,88 43,24 118,36 225,36l0 84 -1041 0 0 -84c94,0 167,-14 220,-44 31,-15 55,-44 73,-87 18,-42 27,-129 27,-260l0 -1907c0,-240 -5,-387 -17,-442 -12,-55 -29,-92 -52,-112 -24,-19 -56,-30 -95,-30 -33,0 -85,13 -156,37l-33 -85 629 -258 106 0z"/>
  <path id="1" class="fil1" d="M36692 18611c42,0 79,16 109,45 30,31 45,67 45,110 0,43 -15,80 -45,110 -30,31 -67,46 -109,46 -43,0 -80,-15 -111,-46 -30,-30 -46,-67 -46,-110 0,-43 16,-79 45,-110 31,-29 68,-45 112,-45zm126 735l0 1130c0,88 6,146 19,174 13,30 32,51 57,65 25,14 71,22 137,22l0 56 -681 0 0 -56c68,0 114,-7 137,-20 24,-13 42,-35 56,-66 14,-30 21,-88 21,-175l0 -543c0,-151 -5,-249 -14,-294 -7,-32 -18,-55 -34,-67 -15,-14 -36,-20 -62,-20 -29,0 -64,8 -104,23l-22 -56 423 -173 67 0z"/>
  <path id="2" class="fil1" d="M37147 19387l656 0 0 56c-42,0 -71,8 -88,22 -16,15 -25,34 -25,58 0,25 19,63 56,115 11,16 28,42 51,76l101 161 116 -161c74,-100 112,-163 113,-191 0,-22 -9,-41 -27,-57 -17,-15 -45,-23 -84,-23l0 -56 472 0 0 56c-51,3 -95,17 -132,42 -50,34 -118,110 -205,226l-192 255 350 508c86,124 147,198 184,224 37,25 84,39 142,42l0 53 -664 0 0 -53c46,0 82,-11 107,-31 20,-15 30,-33 30,-57 0,-24 -33,-84 -99,-179l-206 -300 -225 299c-68,94 -101,150 -101,167 0,25 11,48 34,67 23,21 58,32 104,34l0 53 -458 0 0 -53c36,-5 68,-18 96,-39 39,-29 104,-105 195,-227l293 -393 -264 -387c-76,-110 -134,-180 -175,-208 -41,-28 -93,-43 -155,-43l0 -56z"/>
  <g>
   <path class="fil1" d="M32661 27871l-455 0 0 -334 455 0 0 334zm1392 -167l-2769 1187 36 -75 33 -74 32 -74 29 -74 26 -74 25 -74 22 -74 19 -75 18 -74 15 -74 13 -74 10 -74 8 -75 6 -74 3 -74 2 -74 -2 -74 -3 -74 -6 -75 -8 -74 -10 -74 -13 -74 -15 -74 -18 -74 -19 -75 -22 -74 -25 -74 -26 -74 -29 -74 -32 -75 -33 -74 -36 -74 0 0 2769 1187z"/>
  </g>
  <path class="fil1" d="M31301 28708c54,0 100,18 137,55 37,37 55,83 55,137 0,52 -19,97 -56,135 -38,38 -84,57 -136,57 -52,0 -97,-19 -135,-57 -38,-38 -57,-83 -57,-135 0,-54 18,-100 55,-137 38,-37 84,-55 137,-55zm84 761l-403 1359c-27,92 -41,147 -41,165 0,20 6,35 17,48 11,11 24,18 39,18 17,0 38,-10 62,-30 66,-56 132,-137 198,-243l68 44c-83,131 -181,241 -293,328 -82,64 -161,97 -237,97 -50,0 -91,-16 -122,-47 -32,-31 -48,-69 -48,-116 0,-47 17,-127 51,-238l267 -867c42,-140 62,-228 62,-263 0,-28 -10,-51 -30,-69 -20,-18 -47,-26 -81,-26 -29,0 -86,7 -174,20l0 -74 665 -106z"/>
  <path id="1" class="fil1" d="M32336 30126l-267 927c82,-89 155,-150 216,-182 62,-33 126,-50 193,-50 95,0 172,33 233,98 60,65 90,154 90,265 0,144 -40,287 -120,430 -80,142 -181,253 -301,333 -121,79 -240,119 -358,119 -131,0 -266,-51 -404,-151l407 -1410c31,-107 46,-170 46,-189 0,-23 -7,-40 -21,-51 -20,-16 -51,-25 -91,-25 -19,0 -47,3 -85,10l0 -50 462 -74zm-520 1803c87,49 162,74 227,74 76,0 155,-29 236,-87 82,-58 152,-155 212,-292 60,-136 90,-274 90,-414 0,-82 -19,-146 -58,-193 -39,-46 -85,-69 -137,-69 -80,0 -158,34 -233,104 -76,70 -131,164 -165,283l-172 594z"/>
  <path class="fil1" d="M46851 30063l0 1541c170,-187 305,-307 405,-360 99,-52 200,-79 300,-79 119,0 222,33 308,99 86,66 149,169 191,311 29,98 44,278 44,539l0 746c0,133 11,223 32,273 15,36 41,65 78,86 36,21 103,32 201,32l0 85 -1032 0 0 -85 48 0c98,0 166,-15 204,-45 39,-29 65,-73 80,-131 5,-24 7,-96 7,-215l0 -746c0,-231 -11,-382 -36,-455 -23,-72 -61,-126 -114,-162 -51,-36 -115,-54 -189,-54 -75,0 -153,19 -234,59 -82,40 -179,121 -293,242l0 1116c0,143 8,233 24,268 16,34 46,64 90,88 43,23 118,35 225,35l0 85 -1041 0 0 -85c93,0 166,-14 220,-43 30,-16 55,-45 73,-87 18,-43 27,-130 27,-261l0 -1907c0,-239 -5,-386 -17,-441 -12,-55 -29,-93 -53,-112 -23,-20 -55,-30 -94,-30 -33,0 -85,12 -157,37l-32 -85 629 -259 106 0z"/>
  <path id="1" class="fil1" d="M49085 32981l0 926c0,131 14,213 42,247 39,45 89,67 153,67l128 0 0 57 -841 0 0 -57 62 0c41,0 79,-10 112,-30 34,-20 57,-48 70,-83 13,-34 19,-101 19,-201l0 -926 -273 0 0 -110 273 0 0 -91c0,-139 23,-258 68,-355 45,-96 114,-174 206,-233 94,-60 198,-90 313,-90 108,0 207,35 298,104 59,45 89,96 89,153 0,30 -14,59 -40,86 -27,27 -56,40 -87,40 -23,0 -48,-8 -74,-25 -26,-17 -58,-52 -96,-108 -38,-55 -73,-92 -104,-111 -32,-20 -67,-29 -106,-29 -48,0 -87,13 -120,37 -33,25 -56,64 -71,116 -14,53 -21,188 -21,406l0 100 361 0 0 110 -361 0z"/>
  <path id="2" class="fil1" d="M49816 33402c-1,208 50,370 152,489 102,117 222,176 360,176 92,0 172,-25 240,-75 68,-50 125,-137 171,-261l47 31c-21,142 -83,270 -187,384 -103,115 -232,173 -387,173 -168,0 -313,-66 -433,-197 -119,-131 -180,-308 -180,-529 0,-240 62,-427 185,-561 123,-135 278,-201 463,-201 157,0 286,51 387,155 101,103 152,242 152,416l-970 0zm0 -88l650 0c-5,-90 -16,-153 -32,-190 -26,-57 -64,-102 -115,-134 -50,-33 -103,-50 -158,-50 -85,0 -161,33 -228,99 -67,66 -105,158 -117,275z"/>
  <path id="3" class="fil1" d="M51756 30832c53,0 99,18 137,56 37,37 55,83 55,136 0,53 -19,98 -57,136 -38,38 -83,57 -135,57 -52,0 -98,-19 -136,-57 -37,-38 -57,-83 -57,-136 0,-53 19,-99 56,-136 37,-38 83,-56 137,-56zm84 761l-403 1360c-27,91 -41,146 -41,164 0,20 6,36 16,48 12,12 25,18 40,18 17,0 38,-9 62,-29 65,-56 131,-138 198,-244l67 45c-83,131 -180,240 -292,327 -82,65 -162,97 -237,97 -50,0 -91,-16 -123,-46 -31,-31 -47,-70 -47,-116 0,-48 17,-127 51,-238l267 -867c41,-141 62,-228 62,-263 0,-29 -10,-52 -30,-69 -20,-18 -47,-27 -82,-27 -28,0 -85,7 -174,21l0 -75 666 -106z"/>
  <path id="4" class="fil1" d="M52791 32251l-267 926c82,-88 155,-149 216,-182 61,-33 126,-49 193,-49 94,0 172,32 232,98 60,65 90,153 90,265 0,144 -39,286 -120,429 -80,143 -180,253 -301,333 -121,79 -240,119 -357,119 -131,0 -266,-50 -404,-151l406 -1409c32,-107 47,-170 47,-189 0,-23 -7,-41 -21,-52 -21,-16 -51,-24 -91,-24 -19,0 -47,3 -86,9l0 -49 463 -74zm-520 1803c86,49 162,73 227,73 76,0 154,-29 236,-86 81,-58 152,-155 212,-292 60,-137 90,-275 90,-414 0,-82 -20,-147 -58,-193 -39,-47 -85,-70 -138,-70 -79,0 -157,35 -232,105 -76,70 -131,164 -166,282l-171 595z"/>
  <polyline class="fil0 str2" points="17344,38327 15265,37632 19494,36242 15265,34851 19494,33461 15265,32070 19494,30680 15265,29289 19494,27898 17344,27203 "/>
  <polyline class="fil0 str2" points="38554,45726 36476,45031 40704,43641 36476,42250 40704,40860 36476,39469 40704,38079 36476,36688 40704,35298 38554,34602 "/>
  <polygon class="fil0 str3" points="27136,12763 27136,23888 32698,23888 32698,12763 "/>
  <polygon class="fil0 str3" points="60347,12763 60347,23888 65909,23888 65909,12763 "/>
  <path class="fil1" d="M67954 16579l0 1540c170,-187 305,-307 405,-359 99,-53 200,-80 300,-80 119,0 222,33 308,99 86,66 149,170 191,311 29,99 44,279 44,539l0 747c0,132 11,223 32,272 15,36 41,65 78,87 36,21 103,32 201,32l0 84 -1032 0 0 -84 48 0c98,0 166,-15 204,-45 39,-30 65,-74 80,-131 5,-24 7,-97 7,-215l0 -747c0,-230 -11,-382 -36,-454 -23,-72 -61,-126 -114,-163 -51,-36 -115,-54 -189,-54 -75,0 -153,20 -234,60 -82,40 -179,121 -293,242l0 1116c0,143 8,232 24,267 16,35 46,65 90,88 43,24 118,36 225,36l0 84 -1041 0 0 -84c93,0 166,-14 220,-44 30,-15 55,-44 73,-87 18,-42 27,-129 27,-260l0 -1907c0,-240 -5,-387 -17,-442 -12,-55 -29,-92 -53,-112 -23,-19 -55,-30 -94,-30 -33,0 -85,13 -157,37l-32 -85 629 -258 106 0z"/>
  <path id="1" class="fil1" d="M70330 19346c213,0 384,81 513,242 109,138 164,296 164,475 0,126 -30,253 -90,382 -61,129 -144,226 -250,291 -106,66 -223,98 -353,98 -212,0 -381,-84 -505,-253 -105,-142 -158,-301 -158,-478 0,-129 32,-257 96,-384 63,-127 148,-221 252,-282 104,-61 215,-91 331,-91zm-47 100c-54,0 -108,17 -163,49 -55,32 -99,88 -133,169 -34,80 -51,184 -51,310 0,204 41,380 122,528 81,148 189,222 322,222 99,0 180,-41 245,-122 64,-82 96,-222 96,-421 0,-249 -54,-445 -161,-588 -72,-97 -165,-147 -277,-147z"/>
  <path id="2" class="fil1" d="M71443 19917c-1,208 50,371 152,489 102,118 223,177 361,177 91,0 171,-25 239,-75 68,-50 125,-138 171,-261l48 31c-22,141 -84,269 -187,384 -103,115 -233,172 -387,172 -169,0 -313,-65 -433,-197 -120,-131 -180,-307 -180,-529 0,-239 62,-427 185,-560 122,-135 277,-202 463,-202 157,0 286,52 387,155 101,104 152,243 152,416l-971 0zm0 -87l650 0c-5,-90 -15,-154 -32,-190 -25,-57 -63,-103 -114,-135 -50,-33 -103,-49 -159,-49 -85,0 -160,33 -227,99 -67,66 -106,157 -118,275z"/>
  <g>
   <path class="fil1" d="M63295 9104l0 3659 -334 0 0 -3659 334 0zm-1334 0l0 0 2 -60 4 -59 8 -58 10 -58 13 -56 16 -55 18 -54 21 -53 23 -52 26 -50 28 -49 31 -48 32 -45 35 -45 37 -42 38 -41 41 -38 42 -37 44 -35 46 -32 47 -31 49 -28 50 -26 52 -23 53 -21 54 -18 56 -16 56 -13 58 -11 58 -7 59 -5 60 -1 0 0 60 1 59 5 59 7 57 11 57 13 55 16 54 18 53 21 52 23 50 26 49 28 47 31 46 32 44 35 43 37 40 38 39 41 37 42 34 45 33 45 30 48 28 49 26 50 23 52 21 53 19 54 15 55 13 56 11 58 7 58 5 59 1 60 0 0 -1 60 -5 59 -7 58 -11 58 -13 56 -15 55 -19 54 -21 53 -23 52 -26 50 -28 49 -30 47 -33 46 -34 44 -37 43 -39 40 -40 39 -43 37 -44 34 -46 33 -47 30 -49 29 -50 25 -52 24 -53 21 -54 18 -55 16 -57 13 -57 10 -59 8 -59 4 -60 2 0 0 -60 -2 -59 -4 -58 -8 -58 -10 -56 -13 -56 -16 -54 -18 -53 -21 -52 -24 -50 -25 -49 -29 -47 -30 -46 -33 -44 -34 -42 -37 -41 -39 -38 -40 -37 -43 -35 -44 -32 -46 -31 -47 -28 -49 -26 -50 -23 -52 -21 -53 -18 -54 -16 -55 -13 -56 -10 -58 -8 -58 -4 -59 -2 -60z"/>
  </g>
  <g>
   <path class="fil1" d="M62961 27889l0 -4001 334 0 0 4001 -167 167 -167 -167zm334 0l0 167 -167 0 167 -167zm-14566 -167l14399 0 0 334 -14399 0 0 -334zm0 1334l0 0 -60 -1 -59 -5 -58 -7 -58 -10 -56 -13 -55 -16 -54 -19 -53 -21 -52 -23 -50 -26 -49 -28 -47 -30 -46 -33 -44 -34 -43 -37 -40 -39 -39 -40 -37 -43 -34 -44 -33 -46 -30 -47 -29 -49 -26 -50 -23 -52 -21 -53 -18 -54 -16 -55 -13 -57 -10 -57 -8 -58 -4 -60 -2 -60 0 0 2 -60 4 -59 8 -58 10 -58 13 -56 16 -56 18 -54 21 -53 23 -51 26 -51 29 -49 30 -47 33 -46 34 -44 37 -42 39 -41 40 -38 43 -37 44 -35 46 -32 47 -31 49 -28 50 -26 52 -23 53 -21 54 -18 55 -16 56 -13 58 -10 58 -8 59 -4 60 -2 0 0 60 2 59 4 58 8 58 10 56 13 55 16 54 18 53 21 52 23 50 26 49 28 48 31 45 32 45 35 42 37 41 38 38 41 37 42 35 44 32 46 31 47 28 49 26 51 23 51 21 53 18 54 16 56 13 56 11 58 7 58 5 59 1 60 0 0 -1 60 -5 60 -7 58 -11 57 -13 57 -16 55 -18 54 -21 53 -23 52 -26 50 -28 49 -31 47 -32 46 -35 44 -37 43 -38 40 -41 39 -42 37 -45 34 -45 33 -48 30 -49 28 -50 26 -52 23 -53 21 -54 19 -55 16 -56 13 -58 10 -58 7 -59 5 -60 1z"/>
  </g>
  <path class="fil1" d="M40389 2316l65 972 -65 0c-87,-291 -211,-501 -372,-628 -161,-128 -354,-192 -580,-192 -188,0 -360,48 -512,144 -153,97 -273,250 -361,461 -87,211 -131,474 -131,787 0,259 41,484 124,674 83,190 207,335 373,437 166,101 355,151 567,151 185,0 349,-39 490,-118 141,-79 297,-237 466,-473l65 43c-143,254 -310,440 -500,558 -191,117 -418,176 -680,176 -472,0 -838,-176 -1097,-527 -194,-262 -291,-570 -291,-924 0,-286 64,-548 191,-787 128,-240 303,-425 526,-556 224,-132 468,-198 733,-198 205,0 408,51 609,152 58,31 101,47 126,47 37,0 70,-14 98,-40 37,-38 63,-91 78,-159l78 0z"/>
  <path id="1" class="fil1" d="M40782 5157c0,-238 36,-441 108,-612 71,-171 166,-299 285,-383 91,-66 187,-99 285,-99 159,0 302,81 429,243 158,202 237,474 237,819 0,240 -34,445 -104,614 -70,168 -158,290 -266,367 -107,76 -212,114 -312,114 -198,0 -363,-117 -495,-351 -111,-197 -167,-435 -167,-712zm302 37c0,286 35,519 105,700 58,153 145,228 260,228 55,0 112,-24 171,-74 59,-50 104,-132 135,-249 46,-175 70,-423 70,-743 0,-237 -25,-434 -73,-592 -37,-118 -85,-201 -143,-250 -41,-34 -92,-51 -151,-51 -69,0 -131,32 -185,94 -73,85 -123,218 -149,400 -27,181 -40,360 -40,537z"/>
  <polyline class="fil0 str1" points="48511,12525 48511,8775 87411,8775 87411,26964 "/>
  <path class="fil0 str4" d="M96653 26964c-1536,0 -2781,623 -2781,1391 0,767 1245,1390 2781,1390m0 0c-1536,0 -2781,623 -2781,1391 0,767 1245,1390 2781,1390m0 0c-1536,0 -2781,623 -2781,1391 0,767 1245,1390 2781,1390m0 0c-1536,0 -2781,623 -2781,1391 0,767 1245,1390 2781,1390"/>
  <path class="fil0 str5" d="M87411 26964c1535,0 2781,623 2781,1391 0,767 -1246,1390 -2781,1390m0 0c1535,0 2781,623 2781,1391 0,767 -1246,1390 -2781,1390m0 0c1535,0 2781,623 2781,1391 0,767 -1246,1390 -2781,1390m0 0c1535,0 2781,623 2781,1391 0,767 -1246,1390 -2781,1390"/>
  <g>
   <path class="fil1" d="M96486 54340l0 -16252 334 0 0 16252 -334 0zm-1513 0l0 -198 3359 0 0 396 -3359 0 0 -198z"/>
  </g>
  <g>
   <path class="fil1" d="M17457 9820l-60 -2 -59 -4 -59 -8 -57 -10 -56 -13 -56 -16 -54 -18 -53 -21 -51 -23 -51 -26 -49 -28 -47 -31 -46 -32 -44 -35 -42 -36 -41 -39 -39 -41 -36 -42 -35 -44 -33 -46 -30 -47 -28 -49 -26 -50 -23 -52 -21 -53 -19 -54 -16 -56 -13 -56 -10 -57 -7 -59 -5 -59 -1 -60 0 0 1 -60 5 -59 7 -59 10 -57 13 -57 16 -55 19 -54 21 -53 23 -52 26 -50 28 -49 30 -47 33 -46 35 -44 36 -43 39 -40 41 -39 42 -36 44 -35 46 -33 47 -30 49 -28 51 -26 51 -23 53 -21 54 -19 56 -15 56 -13 57 -11 59 -7 59 -5 60 -1 0 0 59 1 59 5 59 7 57 11 56 13 56 15 54 19 53 21 52 23 50 26 49 28 47 30 46 33 44 35 42 36 41 39 39 40 36 43 35 44 33 46 30 47 28 49 26 50 24 52 21 53 18 54 16 55 13 57 10 57 8 59 4 59 2 60 0 0 -2 60 -4 59 -8 59 -10 57 -13 56 -16 56 -18 54 -21 53 -24 52 -26 50 -28 49 -30 47 -33 46 -35 44 -36 42 -39 41 -41 39 -42 36 -44 35 -46 32 -47 31 -49 28 -50 26 -52 23 -53 21 -54 18 -56 16 -56 13 -57 10 -59 8 -59 4 -59 2 0 0zm-17290 -1334l17290 0 0 334 -17290 0 -167 -167 167 -167zm0 334l-167 0 0 -167 167 167zm167 -8653l0 8486 -334 0 0 -8486 167 -167 167 167zm-334 0l0 -167 167 0 -167 167zm96653 167l-96486 0 0 -334 96486 0 167 167 -167 167zm0 -334l167 0 0 167 -167 -167zm0 167l0 0 0 0 0 0 167 0 -167 0zm0 -167l167 0 0 167 -167 -167zm-167 26964l0 -26797 334 0 0 26797 -334 0z"/>
  </g>
  <g>
   <path class="fil1" d="M87244 54340l0 -16252 334 0 0 16252 -334 0zm-1513 0l0 -198 3359 0 0 396 -3359 0 0 -198z"/>
  </g>
  <path class="fil1" d="M100632 33366l75 17 -268 845 -2416 0 0 -85 117 0c132,0 226,-42 283,-128 32,-48 47,-161 47,-338l0 -2020c0,-195 -21,-316 -64,-365 -60,-68 -148,-101 -266,-101l-117 0 0 -85 1413 0 0 85c-166,-2 -282,13 -349,45 -67,32 -113,72 -137,120 -24,49 -37,165 -37,348l0 1968c0,128 13,215 37,263 18,33 47,57 86,72 37,15 157,23 359,23l228 0c240,0 408,-17 504,-52 97,-36 186,-98 266,-188 79,-89 159,-231 239,-424z"/>
  <path id="1" class="fil1" d="M102962 33622l-218 606 -1840 0 0 -86c542,-494 923,-897 1143,-1209 221,-312 331,-598 331,-857 0,-198 -60,-360 -182,-488 -121,-127 -265,-190 -434,-190 -154,0 -291,44 -413,132 -122,89 -212,219 -270,391l-85 0c38,-282 137,-499 296,-650 158,-151 357,-226 595,-226 253,0 465,81 635,244 169,162 254,354 254,575 0,158 -37,316 -111,474 -113,248 -297,511 -552,789 -382,416 -617,665 -708,748l807 0c164,0 279,-6 345,-18 66,-13 126,-38 179,-76 53,-36 99,-90 139,-159l89 0z"/>
  <path class="fil1" d="M84178 33256l75 17 -268 845 -2416 0 0 -85 117 0c132,0 226,-42 282,-128 33,-48 48,-161 48,-338l0 -2020c0,-195 -21,-317 -64,-365 -60,-68 -148,-101 -266,-101l-117 0 0 -85 1413 0 0 85c-166,-2 -282,13 -350,45 -66,32 -112,72 -136,120 -25,49 -37,165 -37,348l0 1968c0,128 12,215 37,263 18,33 47,57 85,72 38,15 158,23 360,23l228 0c240,0 408,-17 504,-52 97,-36 185,-98 265,-188 80,-89 160,-231 240,-424z"/>
  <path id="1" class="fil1" d="M84898 31302l762 -367 76 0 0 2632c0,175 7,285 22,328 15,42 45,76 91,99 46,23 140,36 282,39l0 85 -1177 0 0 -85c148,-3 243,-15 285,-38 43,-22 73,-52 90,-90 17,-37 25,-150 25,-338l0 -1686c0,-227 -8,-373 -22,-437 -11,-50 -31,-86 -59,-108 -29,-23 -63,-35 -103,-35 -57,0 -137,24 -238,72l-34 -71z"/>
  <path class="fil1" d="M71580 31275l64 972 -64 0c-87,-291 -211,-501 -372,-628 -162,-128 -354,-193 -580,-193 -189,0 -360,49 -513,145 -152,97 -272,250 -360,461 -87,211 -131,474 -131,787 0,259 41,484 124,674 83,190 207,335 373,437 166,101 355,151 567,151 185,0 348,-39 489,-118 142,-79 298,-237 467,-473l65 43c-143,254 -310,440 -501,558 -190,117 -417,176 -679,176 -473,0 -839,-176 -1098,-527 -193,-262 -290,-570 -290,-924 0,-286 64,-548 191,-787 127,-240 303,-425 526,-556 224,-132 468,-198 732,-198 206,0 409,51 610,152 58,31 100,47 126,47 37,0 70,-14 98,-40 37,-38 63,-91 78,-159l78 0z"/>
  <path class="fil1" d="M53562 4578l-192 844 -71 0 -7 -211c-7,-77 -21,-145 -45,-205 -23,-61 -58,-113 -104,-157 -46,-44 -105,-79 -176,-104 -71,-25 -149,-37 -235,-37 -231,0 -433,63 -605,188 -220,160 -393,386 -518,677 -102,241 -154,484 -154,731 0,252 74,454 222,603 149,151 342,226 580,226 179,0 339,-40 479,-119 139,-80 270,-202 390,-367l91 0c-141,223 -297,387 -468,493 -172,105 -377,158 -616,158 -212,0 -400,-45 -564,-133 -164,-89 -288,-214 -374,-375 -85,-161 -129,-334 -129,-520 0,-284 76,-560 229,-828 151,-269 360,-480 625,-633 265,-154 532,-231 802,-231 126,0 268,31 425,91 69,26 118,39 149,39 31,0 58,-7 81,-20 22,-12 61,-49 115,-110l70 0z"/>
  <path class="fil0 str6" d="M79046 31414l-6007 0m6007 2225l-6007 0"/>
  <line class="fil0 str1" x1="91231" y1="26639" x2="91231" y2= "38647" />
  <line class="fil0 str1" x1="92770" y1="26639" x2="92770" y2= "38647" />
  <g>
   <path class="fil1" d="M76210 8775l0 22639 -334 0 0 -22639 334 0zm-1334 0l0 0 1 -60 5 -59 7 -58 11 -58 13 -56 15 -55 19 -54 21 -53 23 -52 26 -50 28 -49 30 -48 33 -45 35 -44 36 -43 39 -40 40 -39 43 -37 44 -35 46 -32 47 -30 49 -29 50 -26 52 -23 53 -21 54 -18 55 -16 57 -13 57 -10 59 -8 59 -4 60 -2 0 0 60 2 59 4 59 8 57 10 56 13 56 16 54 18 53 21 52 23 50 26 49 29 47 30 46 32 44 35 42 37 41 39 39 40 36 43 35 44 32 45 31 48 28 49 26 50 23 52 21 53 18 54 16 55 13 56 10 58 8 58 4 59 2 60 0 0 -2 60 -4 59 -8 58 -10 58 -13 56 -16 55 -18 54 -21 53 -23 52 -26 50 -28 49 -31 48 -32 45 -35 44 -36 43 -39 40 -41 39 -42 37 -44 35 -46 32 -47 31 -49 28 -50 26 -52 23 -53 21 -54 18 -56 16 -56 13 -57 11 -59 7 -59 5 -60 1 0 0 -60 -1 -59 -5 -59 -7 -57 -11 -57 -13 -55 -16 -54 -18 -53 -21 -52 -23 -50 -26 -49 -28 -47 -31 -46 -32 -44 -35 -43 -37 -40 -39 -39 -40 -36 -43 -35 -44 -33 -45 -30 -48 -28 -49 -26 -50 -23 -52 -21 -53 -19 -54 -15 -55 -13 -56 -11 -58 -7 -58 -5 -59 -1 -60z"/>
  </g>
  <g>
   <path class="fil1" d="M75876 54313l0 -20674 334 0 0 20674 -334 0zm-1513 0l0 -197 3360 0 0 395 -3360 0 0 -198z"/>
  </g>
  <path class="fil2 str7" d="M95548 40191c0,-612 -500,-1112 -1112,-1112 -612,0 -1113,500 -1113,1112 0,612 501,1113 1113,1113 612,0 1112,-501 1112,-1113z"/>
  <path class="fil2 str7" d="M90379 24258c0,-612 -501,-1112 -1113,-1112 -612,0 -1112,500 -1112,1112 0,612 500,1113 1112,1113 612,0 1113,-501 1113,-1113z"/>
  <g>
   <path class="fil1" d="M88719 20524l1426 -2654 0 0 18 80 20 79 22 78 24 76 25 74 27 74 29 71 31 71 33 69 34 67 36 66 38 64 40 63 42 62 43 60 46 59 47 57 49 56 51 54 52 53 55 52 56 50 58 49 60 47 61 46 64 44 65 43 67 41 69 40 70 39 73 37 74 35 -2905 798zm6081 -984l-240 233 -124 -124 -124 -116 -126 -108 -127 -100 -128 -93 -128 -85 -130 -77 -131 -69 -132 -62 -133 -54 -134 -46 -136 -38 -136 -31 -139 -23 -139 -14 -142 -7 -143 1 -145 9 -147 18 -149 26 -150 34 -154 43 -155 52 -157 60 -160 70 -162 79 -164 88 -166 97 -169 107 -171 116 -172 126 -176 135 -208 -261 183 -141 181 -132 180 -122 178 -113 177 -104 175 -93 174 -85 173 -75 171 -66 170 -57 169 -47 168 -39 166 -28 165 -20 163 -11 162 -1 160 8 159 17 157 25 155 35 154 43 151 53 149 60 148 69 146 77 143 86 141 93 140 101 137 109 136 117 134 124 132 131zm848 1116l-2779 -1163 78 -26 77 -27 75 -30 73 -30 72 -33 70 -34 69 -36 67 -37 65 -39 64 -41 62 -43 61 -44 59 -45 57 -48 56 -49 54 -51 52 -52 51 -54 49 -56 48 -58 46 -59 44 -60 43 -63 41 -64 40 -66 38 -67 36 -69 35 -71 33 -72 32 -75 29 -75 29 -78 0 0 1074 2815z"/>
  </g>
  <path class="fil1" d="M92247 15708l-1206 -2627 0 2085c0,193 22,313 63,361 58,64 149,96 273,96l112 0 0 85 -1097 0 0 -85 112 0c133,0 227,-40 284,-120 34,-49 51,-162 51,-337l0 -2039c0,-138 -16,-238 -46,-300 -22,-44 -62,-81 -120,-112 -59,-30 -153,-45 -281,-45l0 -84 894 0 1126 2441 1115 -2441 886 0 0 84 -109 0c-136,0 -231,40 -287,121 -34,49 -51,161 -51,336l0 2039c0,193 22,313 65,361 57,64 148,96 273,96l109 0 0 85 -1337 0 0 -85 112 0c135,0 229,-40 284,-120 34,-49 51,-162 51,-337l0 -2085 -1201 2627 -75 0z"/>
 </g>
</svg>
