<?xml version="1.0" encoding="UTF-8"?>
<!DOCTYPE svg PUBLIC "-//W3C//DTD SVG 1.1//EN" "http://www.w3.org/Graphics/SVG/1.1/DTD/svg11.dtd">
<!-- Creator: CorelDRAW Home & Student X8 -->
<svg xmlns="http://www.w3.org/2000/svg" xml:space="preserve" width="80.3778mm" height="49.0267mm" version="1.1" style="shape-rendering:geometricPrecision; text-rendering:geometricPrecision; image-rendering:optimizeQuality; fill-rule:evenodd; clip-rule:evenodd"
viewBox="0 0 77651 47364"
 xmlns:xlink="http://www.w3.org/1999/xlink">
 <defs>
  <style type="text/css">
   <![CDATA[
    .str4 {stroke:#2B2A29;stroke-width:676.159}
    .str0 {stroke:#2B2A29;stroke-width:483.04}
    .str1 {stroke:#2B2A29;stroke-width:289.824}
    .str6 {stroke:black;stroke-width:966.079}
    .str5 {stroke:black;stroke-width:676.256}
    .str2 {stroke:black;stroke-width:483.04}
    .str3 {stroke:black;stroke-width:483.04}
    .str7 {stroke:black;stroke-width:289.824}
    .fil0 {fill:none}
    .fil2 {fill:black}
    .fil1 {fill:#2B2A29;fill-rule:nonzero}
   ]]>
  </style>
 </defs>
 <g id="Warstwa_x0020_1">
  <metadata id="CorelCorpID_0Corel-Layer"/>
  <g id="_509647176">
   <circle class="fil0 str0" transform="matrix(0 1 -1 0 42128.5 15707.3)" r="4830"/>
   <circle class="fil0 str0" transform="matrix(0 0.80758 -0.80758 0 42128.5 15707.3)" r="4830"/>
   <g>
    <path class="fil1" d="M41984 17154l0 -4102 289 0 0 4102 -289 0zm144 1208l-1030 -2405 64 32 65 29 64 27 65 25 64 23 64 21 65 20 64 17 65 15 64 13 64 11 65 9 64 7 65 5 64 3 64 1 65 -1 64 -3 65 -5 64 -7 65 -9 64 -11 64 -13 65 -15 64 -17 65 -20 64 -21 64 -23 65 -25 64 -27 65 -29 64 -32 0 0 -1031 2405z"/>
   </g>
  </g>
  <polyline class="fil0 str1" points="25981,20538 25981,23852 42318,23852 42318,20536 "/>
  <polyline class="fil0 str1" points="42128,10877 42128,7621 64146,7621 64146,23417 "/>
  <polyline class="fil0 str1" points="25981,10877 25981,7621 15160,7621 15160,23321 "/>
  <g>
   <path class="fil1" d="M33658 23852l0 5990 -290 0 0 -5990 290 0zm-1159 0l0 0 2 -52 4 -52 6 -50 9 -50 11 -49 14 -48 16 -47 18 -46 20 -45 23 -44 24 -42 27 -41 28 -40 30 -38 32 -37 33 -35 35 -34 37 -32 38 -30 40 -28 41 -27 43 -24 44 -23 44 -20 46 -18 47 -16 49 -14 49 -11 49 -9 51 -7 52 -4 52 -1 0 0 52 1 51 4 51 7 50 9 49 11 48 14 47 16 46 18 45 20 44 23 42 24 41 27 40 28 38 30 37 32 35 34 34 35 32 37 30 38 28 40 26 41 25 42 22 44 20 45 19 46 16 47 13 48 12 49 8 50 7 50 4 52 1 52 0 0 -1 52 -4 51 -7 51 -8 49 -12 49 -13 48 -16 47 -19 46 -20 45 -22 44 -25 42 -26 41 -28 40 -30 39 -32 36 -34 36 -35 33 -37 32 -38 30 -40 29 -41 26 -42 24 -44 23 -45 20 -46 18 -47 16 -48 14 -49 11 -50 9 -51 7 -51 4 -52 1 0 0 -52 -1 -52 -4 -51 -7 -49 -9 -49 -11 -49 -14 -47 -16 -46 -18 -44 -20 -44 -23 -43 -24 -41 -26 -40 -29 -38 -30 -37 -32 -35 -33 -33 -36 -32 -36 -30 -39 -28 -40 -27 -41 -24 -42 -23 -44 -20 -45 -18 -46 -16 -47 -14 -48 -11 -49 -9 -49 -6 -51 -4 -51 -2 -52z"/>
  </g>
  <g>
   <path class="fil1" d="M33268 47171l100 -7670 290 4 -100 7670 -290 -4zm-1313 -17l2 -172 2917 38 -5 344 -2917 -38 3 -172z"/>
  </g>
  <g>
   <path class="fil1" d="M14834 47038l114 -13962 290 2 -114 13963 -290 -3zm-1314 -10l2 -172 2917 24 -3 343 -2917 -24 1 -171z"/>
  </g>
  <path class="fil0 str2" d="M72172 23417c-1333,0 -2415,541 -2415,1207 0,667 1082,1208 2415,1208m0 0c-1333,0 -2415,541 -2415,1207 0,667 1082,1208 2415,1208m0 0c-1333,0 -2415,541 -2415,1207 0,667 1082,1208 2415,1208m0 0c-1333,0 -2415,541 -2415,1208 0,666 1082,1207 2415,1207"/>
  <path class="fil0 str3" d="M64146 23417c1333,0 2415,541 2415,1207 0,667 -1082,1208 -2415,1208m0 0c1333,0 2415,541 2415,1207 0,667 -1082,1208 -2415,1208m0 0c1333,0 2415,541 2415,1207 0,667 -1082,1208 -2415,1208m0 0c1333,0 2415,541 2415,1208 0,666 -1082,1207 -2415,1207"/>
  <g>
   <path class="fil1" d="M72027 47191l0 -14114 290 0 0 14114 -290 0zm-1314 0l0 -172 2918 0 0 343 -2918 0 0 -171z"/>
  </g>
  <g>
   <path class="fil1" d="M15160 8528l-52 -1 -51 -4 -51 -7 -50 -9 -49 -11 -48 -14 -47 -16 -46 -18 -45 -20 -43 -23 -43 -24 -41 -26 -40 -29 -38 -30 -37 -31 -35 -34 -34 -35 -32 -37 -30 -38 -28 -40 -26 -41 -25 -43 -22 -43 -21 -45 -18 -46 -16 -47 -14 -48 -11 -49 -9 -50 -6 -51 -4 -51 -2 -53 0 0 2 -52 4 -51 6 -51 9 -50 11 -49 14 -48 16 -47 18 -46 21 -45 22 -43 25 -43 26 -41 28 -40 30 -38 32 -37 34 -35 35 -34 37 -31 38 -31 40 -28 41 -26 43 -25 43 -22 45 -20 46 -18 47 -16 48 -14 49 -11 50 -9 51 -7 51 -4 52 -1 0 0 52 1 51 4 51 7 50 9 48 11 49 14 47 16 45 18 45 20 44 22 42 25 42 26 39 28 39 31 37 31 35 34 33 35 32 37 30 38 29 40 26 41 25 43 22 43 20 45 19 46 16 47 13 48 12 49 9 50 6 51 4 51 1 52 0 0 -1 53 -4 51 -6 51 -9 50 -12 49 -13 48 -16 47 -19 46 -20 45 -22 43 -25 43 -26 41 -29 40 -30 38 -32 37 -33 35 -35 34 -37 31 -39 30 -39 29 -42 26 -42 24 -44 23 -45 20 -45 18 -47 16 -49 14 -48 11 -50 9 -51 7 -51 4 -52 1 0 0zm-15015 -1158l15015 0 0 289 -15015 0 -145 -145 145 -144zm0 289l-145 0 0 -145 145 145zm145 -7514l0 7369 -290 0 0 -7369 145 -145 145 145zm-290 0l0 -145 145 0 -145 145zm72172 145l-72027 0 0 -290 72027 0 145 145 -145 145zm0 -290l145 0 0 145 -145 -145zm0 145l0 0 0 0 0 0 145 0 -145 0zm0 -145l145 0 0 145 -145 -145zm-145 23417l0 -23272 290 0 0 23272 -290 0z"/>
  </g>
  <g>
   <path class="fil1" d="M64001 47191l0 -14114 290 0 0 14114 -290 0zm-1314 0l0 -172 2918 0 0 343 -2918 0 0 -171z"/>
  </g>
  <path class="fil1" d="M75628 28976l65 15 -233 734 -2098 0 0 -74 101 0c115,0 197,-37 246,-111 28,-42 41,-140 41,-294l0 -1754c0,-169 -18,-275 -55,-317 -52,-59 -129,-88 -232,-88l-101 0 0 -74 1227 0 0 74c-144,-2 -245,11 -303,39 -58,28 -98,63 -119,105 -21,42 -32,143 -32,302l0 1709c0,111 11,187 32,228 16,29 41,50 74,63 33,13 137,20 312,20l198 0c209,0 355,-15 438,-46 84,-30 161,-85 231,-163 69,-77 138,-200 208,-368z"/>
  <path id="1" class="fil1" d="M77651 29198l-189 527 -1598 0 0 -75c470,-429 801,-779 993,-1050 191,-271 287,-519 287,-744 0,-172 -52,-313 -158,-424 -105,-110 -230,-165 -377,-165 -133,0 -253,38 -358,115 -107,77 -185,190 -236,339l-73 0c33,-245 119,-433 257,-565 137,-131 310,-196 517,-196 220,0 404,71 551,212 147,141 221,307 221,500 0,137 -32,274 -96,411 -99,216 -259,444 -480,685 -332,362 -536,578 -614,650l700 0c142,0 242,-5 300,-16 57,-11 109,-32 155,-65 46,-32 86,-79 121,-139l77 0z"/>
  <path class="fil1" d="M62714 28881l65 14 -233 734 -2098 0 0 -73 102 0c114,0 196,-37 245,-112 28,-42 42,-140 42,-293l0 -1755c0,-169 -19,-274 -56,-317 -52,-58 -129,-88 -231,-88l-102 0 0 -73 1227 0 0 73c-144,-1 -244,12 -303,40 -58,27 -98,63 -119,104 -21,42 -32,143 -32,302l0 1710c0,111 11,186 32,228 16,29 41,49 75,63 32,13 137,19 312,19l197 0c209,0 355,-15 439,-45 84,-31 161,-86 230,-163 69,-78 138,-201 208,-368z"/>
  <path id="1" class="fil1" d="M63339 27184l662 -319 66 0 0 2286c0,152 6,247 19,285 13,36 39,66 79,85 40,20 122,32 246,35l0 73 -1023 0 0 -73c128,-3 211,-14 248,-34 37,-19 63,-45 78,-78 14,-32 22,-130 22,-293l0 -1464c0,-197 -7,-324 -20,-380 -10,-43 -27,-74 -51,-94 -25,-20 -55,-30 -89,-30 -50,0 -119,20 -207,62l-30 -61z"/>
  <path class="fil1" d="M50470 27161l56 843 -56 0c-75,-252 -183,-435 -323,-545 -140,-112 -307,-167 -503,-167 -164,0 -313,42 -445,125 -133,84 -237,217 -313,401 -76,183 -114,411 -114,683 0,225 36,420 107,585 72,165 180,291 324,380 144,88 309,131 493,131 161,0 302,-34 425,-103 123,-68 258,-205 405,-410l57 37c-125,221 -270,382 -435,485 -166,101 -363,153 -590,153 -411,0 -729,-153 -953,-458 -169,-228 -253,-495 -253,-803 0,-248 56,-476 166,-683 111,-208 263,-369 457,-483 194,-115 406,-171 636,-171 179,0 355,43 529,131 51,27 88,41 110,41 32,0 61,-12 85,-35 32,-33 55,-79 68,-137l67 0z"/>
  <path class="fil1" d="M39730 35650l-726 0 -921 -1268c-66,3 -120,4 -161,4 -17,0 -36,-1 -55,-1 -20,-1 -39,-2 -61,-3l0 789c0,171 19,276 56,317 51,59 126,88 227,88l106 0 0 74 -1162 0 0 -74 102 0c115,0 196,-37 245,-112 28,-40 42,-139 42,-293l0 -1754c0,-171 -18,-276 -56,-317 -52,-59 -129,-88 -231,-88l-102 0 0 -74 987 0c289,0 501,22 637,63 137,42 253,120 348,233 95,112 143,246 143,402 0,167 -55,312 -163,435 -109,122 -277,209 -505,260l561 776c128,179 238,298 330,357 91,59 211,96 359,112l0 74zm-1924 -1395c26,0 47,0 66,1 18,1 33,1 45,1 255,0 448,-56 578,-167 130,-113 195,-255 195,-428 0,-169 -53,-307 -157,-414 -105,-105 -244,-158 -416,-158 -77,0 -180,12 -311,37l0 1128z"/>
  <path id="1" class="fil1" d="M40167 33912l0 -94c138,-81 232,-157 282,-228 35,-50 53,-111 53,-181 0,-42 -8,-73 -23,-92 -16,-20 -33,-30 -52,-30 -15,0 -35,4 -58,14 -35,12 -64,18 -87,18 -54,0 -102,-20 -143,-60 -42,-40 -63,-90 -63,-150 0,-67 21,-119 62,-156 56,-51 123,-76 200,-76 89,0 170,38 241,113 71,75 107,169 107,280 0,158 -60,301 -178,430 -79,85 -192,156 -341,212z"/>
  <path id="2" class="fil1" d="M41623 34758l0 715 399 0c103,0 171,-16 206,-47 46,-41 72,-112 77,-215l49 0 0 630 -49 0c-12,-88 -25,-145 -37,-170 -16,-31 -42,-56 -79,-73 -36,-18 -92,-27 -167,-27l-399 0 0 596c0,80 4,129 11,146 7,17 19,31 37,41 18,11 52,16 101,16l306 0c102,0 176,-8 223,-22 45,-14 90,-42 132,-84 55,-55 112,-138 169,-249l55 0 -156 453 -1393 0 0 -49 64 0c43,0 83,-11 122,-31 28,-14 48,-36 58,-64 10,-29 15,-87 15,-175l0 -1175c0,-115 -11,-185 -34,-212 -33,-35 -86,-53 -161,-53l-64 0 0 -49 1393 0 19 398 -51 0c-19,-96 -39,-161 -62,-197 -23,-36 -56,-64 -101,-83 -35,-13 -98,-20 -187,-20l-496 0z"/>
  <path class="fil1" d="M21014 29194l-726 0 -921 -1268c-66,2 -120,4 -161,4 -17,0 -36,-1 -55,-2 -20,0 -39,-1 -60,-2l0 789c0,170 18,276 55,317 51,59 127,88 227,88l106 0 0 74 -1161 0 0 -74 101 0c115,0 196,-38 246,-112 27,-41 41,-139 41,-293l0 -1754c0,-171 -18,-276 -56,-317 -52,-59 -129,-88 -231,-88l-101 0 0 -74 987 0c288,0 500,21 636,63 137,42 253,120 348,232 95,113 143,247 143,403 0,167 -55,312 -163,434 -109,123 -277,209 -505,261l561 776c128,179 238,298 330,356 91,60 211,97 359,113l0 74zm-1923 -1395c25,0 47,0 65,1 18,0 33,1 45,1 256,0 448,-56 578,-168 130,-112 195,-255 195,-428 0,-169 -53,-306 -157,-413 -105,-105 -244,-159 -416,-159 -77,0 -180,13 -310,37l0 1129z"/>
  <path id="1" class="fil1" d="M22235 29088c125,27 218,69 280,128 86,82 130,182 130,300 0,90 -29,177 -86,259 -56,82 -134,142 -233,180 -99,37 -250,57 -453,57l-851 0 0 -50 68 0c74,0 128,-24 161,-71 20,-31 30,-98 30,-198l0 -1170c0,-112 -12,-182 -38,-211 -34,-39 -85,-59 -153,-59l-68 0 0 -49 779 0c146,0 262,10 350,32 133,32 234,88 304,170 70,81 105,174 105,280 0,90 -27,171 -82,243 -55,71 -136,125 -243,159zm-697 -74c32,6 70,11 112,14 42,3 88,5 139,5 129,0 227,-14 292,-42 65,-28 115,-71 150,-128 34,-58 51,-120 51,-188 0,-106 -43,-195 -129,-270 -86,-74 -212,-111 -376,-111 -89,0 -169,9 -239,29l0 691zm0 866c103,24 205,36 305,36 162,0 285,-36 369,-108 85,-73 127,-162 127,-269 0,-70 -19,-137 -59,-202 -39,-65 -102,-116 -188,-153 -85,-37 -192,-56 -319,-56 -55,0 -102,1 -141,3 -39,2 -70,5 -94,9l0 740z"/>
  <path class="fil1" d="M23729 3661l23 -62 810 0c137,0 258,21 364,63 107,43 187,102 240,177 53,76 80,155 80,240 0,129 -50,247 -150,351 -99,105 -261,183 -486,233 149,51 259,118 329,203 70,85 106,178 106,279 0,112 -29,220 -87,322 -58,102 -132,182 -222,239 -90,56 -199,98 -327,124 -91,19 -232,29 -425,29l-827 0 22 -61c86,-3 145,-11 176,-25 45,-19 76,-44 95,-75 26,-42 62,-139 106,-290l394 -1369c34,-115 52,-197 52,-243 0,-42 -16,-74 -46,-98 -31,-24 -89,-36 -174,-36 -19,0 -36,0 -53,-1zm343 937c72,2 124,3 156,3 229,0 400,-50 512,-150 112,-100 168,-225 168,-375 0,-114 -34,-202 -103,-265 -69,-64 -179,-96 -330,-96 -40,0 -92,7 -153,20l-250 863zm-321 1115c122,15 217,23 286,23 176,0 331,-52 467,-157 136,-105 203,-247 203,-426 0,-137 -42,-244 -127,-320 -85,-77 -221,-116 -411,-116 -36,0 -81,2 -133,7l-285 989z"/>
  <path class="fil1" d="M46515 3976l-167 733 -61 0 -7 -184c-6,-66 -18,-126 -39,-178 -20,-52 -50,-98 -90,-136 -40,-38 -91,-69 -153,-90 -61,-22 -129,-33 -204,-33 -200,0 -376,55 -525,164 -191,139 -341,335 -450,588 -89,209 -134,420 -134,635 0,219 64,394 193,524 129,130 297,196 503,196 156,0 295,-35 416,-104 122,-69 235,-175 339,-319l79 0c-122,194 -258,337 -406,428 -149,92 -328,138 -535,138 -185,0 -348,-39 -490,-116 -142,-77 -250,-186 -324,-326 -75,-139 -112,-290 -112,-451 0,-247 66,-486 198,-719 132,-234 313,-417 543,-550 230,-134 462,-200 696,-200 110,0 233,26 369,79 60,22 103,33 130,33 27,0 50,-5 70,-17 20,-10 53,-42 100,-95l61 0z"/>
  <path class="fil1" d="M36797 20361l-255 893 214 0c152,0 262,-23 329,-69 68,-46 127,-131 176,-255l61 0 -232 815 -68 0c20,-69 30,-127 30,-176 0,-47 -9,-86 -29,-115 -19,-28 -46,-49 -79,-63 -34,-14 -104,-21 -211,-21l-224 0 -224 783c-21,63 -32,110 -32,143 0,25 14,47 42,66 20,13 68,20 146,20l206 0c216,0 389,-38 520,-115 130,-76 246,-210 349,-400l62 0 -215 631 -1739 0 22 -61c87,-3 145,-11 175,-24 44,-20 77,-45 96,-76 31,-46 66,-141 107,-287l392 -1363c31,-111 47,-195 47,-252 0,-43 -15,-76 -45,-99 -28,-24 -86,-36 -172,-36l-34 0 20 -62 1622 0 -140 546 -61 0c8,-51 11,-94 11,-129 0,-58 -14,-108 -43,-147 -38,-51 -93,-90 -165,-117 -54,-20 -176,-30 -369,-30l-290 0z"/>
  <path class="fil1" d="M30088 14190l0 1338c148,-162 266,-267 352,-312 87,-46 174,-69 261,-69 103,0 192,29 267,86 75,57 130,147 166,270 25,86 38,242 38,468l0 648c0,115 10,194 28,237 13,31 36,56 68,75 31,18 90,28 174,28l0 73 -895 0 0 -73 41 0c85,0 144,-13 177,-39 34,-26 57,-64 70,-114 4,-21 6,-84 6,-187l0 -648c0,-200 -10,-332 -31,-395 -21,-62 -54,-109 -99,-141 -45,-31 -100,-47 -164,-47 -66,0 -133,17 -204,52 -71,35 -156,105 -255,210l0 969c0,124 7,202 22,233 13,30 39,56 77,76 38,20 103,31 196,31l0 73 -904 0 0 -73c81,0 145,-13 191,-38 27,-13 48,-39 63,-75 16,-37 24,-113 24,-227l0 -1656c0,-208 -5,-335 -15,-383 -10,-48 -25,-81 -45,-98 -21,-17 -49,-26 -83,-26 -28,0 -74,11 -136,32l-28 -73 546 -225 92 0z"/>
  <path id="1" class="fil1" d="M31864 15955c37,0 69,14 95,39 26,27 39,59 39,95 0,38 -13,70 -39,96 -26,27 -58,40 -95,40 -37,0 -69,-13 -96,-40 -26,-26 -40,-58 -40,-96 0,-36 14,-68 40,-95 26,-25 58,-39 96,-39zm110 638l0 982c0,76 5,126 17,151 11,26 27,44 49,57 22,12 62,18 119,18l0 49 -591 0 0 -49c59,0 99,-6 119,-17 20,-11 36,-31 48,-57 12,-26 18,-77 18,-152l0 -472c0,-131 -4,-216 -12,-255 -6,-28 -16,-48 -29,-59 -13,-11 -32,-17 -54,-17 -25,0 -55,7 -91,20l-18 -49 366 -150 59 0z"/>
  <path id="2" class="fil1" d="M32260 16629l570 0 0 49c-37,0 -62,6 -77,19 -14,13 -22,29 -22,50 0,22 16,55 49,100 10,14 24,36 44,66l88 140 101 -140c64,-87 97,-142 97,-166 0,-19 -7,-35 -22,-49 -15,-13 -40,-20 -73,-20l0 -49 409 0 0 49c-44,3 -82,14 -114,36 -44,30 -103,95 -178,196l-167 222 303 441c75,108 128,172 160,194 32,22 74,34 124,37l0 46 -577 0 0 -46c40,0 72,-9 94,-27 16,-13 25,-29 25,-49 0,-21 -29,-73 -86,-156l-178 -261 -196 260c-59,82 -88,130 -88,146 0,21 10,41 30,58 20,18 50,27 90,29l0 46 -398 0 0 -46c32,-5 59,-16 83,-34 34,-25 91,-91 170,-197l254 -342 -229 -335c-65,-96 -116,-157 -152,-181 -36,-25 -80,-37 -134,-37l0 -49z"/>
  <g>
   <path class="fil1" d="M28364 23997l-396 0 0 -290 396 0 0 290zm1209 -145l-2405 1030 31 -64 29 -65 27 -64 26 -64 23 -65 21 -64 19 -65 17 -64 15 -65 13 -64 11 -64 9 -65 7 -64 5 -64 4 -65 1 -64 -1 -65 -4 -64 -5 -65 -7 -64 -9 -64 -11 -65 -13 -64 -15 -65 -17 -64 -19 -65 -21 -64 -23 -64 -26 -65 -27 -64 -29 -65 -31 -64 0 0 2405 1031z"/>
  </g>
  <path class="fil1" d="M27183 24723c46,0 86,16 119,49 32,32 48,72 48,118 0,46 -17,85 -50,118 -33,33 -72,49 -117,49 -46,0 -85,-16 -118,-49 -33,-33 -49,-72 -49,-118 0,-46 16,-86 48,-118 32,-33 72,-49 119,-49zm73 661l-350 1181c-24,79 -36,127 -36,143 0,17 6,31 15,41 9,11 21,16 34,16 15,0 33,-8 54,-25 57,-49 114,-120 172,-212l58 38c-72,115 -156,209 -254,285 -71,56 -140,84 -206,84 -43,0 -79,-14 -106,-40 -27,-27 -41,-61 -41,-101 0,-41 15,-110 44,-207l232 -753c36,-121 54,-197 54,-228 0,-25 -9,-44 -26,-60 -18,-16 -41,-23 -71,-23 -24,0 -74,6 -151,18l0 -65 578 -92z"/>
  <path id="1" class="fil1" d="M28082 25955l-232 805c71,-77 134,-130 187,-158 54,-29 110,-43 168,-43 82,0 149,28 202,85 52,56 78,133 78,230 0,125 -34,249 -104,373 -70,124 -157,220 -262,289 -105,69 -208,104 -310,104 -114,0 -231,-44 -351,-132l353 -1224c27,-93 41,-147 41,-164 0,-20 -6,-35 -19,-45 -17,-14 -44,-21 -79,-21 -16,0 -41,3 -74,9l0 -43 402 -65zm-452 1566c75,43 141,64 198,64 66,0 134,-25 204,-76 71,-50 132,-134 184,-253 52,-118 78,-238 78,-359 0,-72 -16,-127 -50,-168 -34,-40 -74,-60 -119,-60 -69,0 -137,30 -202,90 -66,61 -114,143 -144,246l-149 516z"/>
  <path class="fil1" d="M43994 21142l0 1338c147,-162 265,-266 351,-312 87,-45 174,-69 261,-69 103,0 193,29 268,86 74,58 129,147 165,270 25,86 38,242 38,469l0 648c0,115 10,193 28,236 13,32 36,57 68,75 31,19 90,28 174,28l0 74 -895 0 0 -74 41 0c85,0 144,-13 177,-39 34,-26 57,-64 70,-114 4,-21 6,-83 6,-186l0 -648c0,-201 -10,-332 -31,-395 -21,-63 -53,-110 -99,-141 -45,-32 -100,-47 -164,-47 -66,0 -133,17 -204,51 -71,35 -156,105 -254,210l0 970c0,124 6,201 21,232 13,30 39,56 77,77 38,20 103,30 196,30l0 74 -904 0 0 -74c81,0 145,-12 191,-37 27,-14 48,-39 63,-76 16,-37 24,-112 24,-226l0 -1657c0,-207 -4,-335 -15,-383 -10,-47 -25,-80 -45,-97 -21,-17 -49,-26 -83,-26 -28,0 -73,11 -135,32l-28 -74 546 -225 92 0z"/>
  <path id="1" class="fil1" d="M45933 23677l0 804c0,113 13,184 38,214 33,39 77,59 132,59l111 0 0 49 -730 0 0 -49 54 0c36,0 68,-9 97,-27 30,-17 50,-42 61,-71 11,-30 17,-89 17,-175l0 -804 -238 0 0 -96 238 0 0 -79c0,-121 19,-224 58,-308 39,-83 99,-152 180,-203 81,-52 171,-78 271,-78 94,0 180,30 259,90 51,40 77,84 77,133 0,27 -12,52 -35,75 -23,23 -48,35 -75,35 -20,0 -42,-7 -64,-22 -23,-14 -51,-45 -84,-93 -33,-48 -63,-80 -90,-97 -28,-17 -58,-25 -92,-25 -41,0 -76,11 -105,32 -28,22 -48,55 -61,101 -12,45 -19,163 -19,352l0 87 314 0 0 96 -314 0z"/>
  <path id="2" class="fil1" d="M46569 24042c-1,180 43,322 132,424 88,103 193,154 313,154 79,0 149,-22 208,-65 59,-44 108,-119 148,-227l41 27c-18,123 -72,234 -162,334 -90,99 -202,149 -336,149 -147,0 -272,-57 -376,-171 -104,-114 -156,-267 -156,-459 0,-208 53,-371 160,-487 107,-117 241,-175 402,-175 136,0 249,45 336,135 88,90 132,210 132,361l-842 0zm0 -76l564 0c-4,-78 -14,-133 -28,-165 -22,-50 -55,-89 -99,-117 -44,-29 -90,-43 -138,-43 -73,0 -139,29 -197,86 -59,57 -92,137 -102,239z"/>
  <path id="3" class="fil1" d="M48253 21810c47,0 87,16 119,49 32,32 48,72 48,118 0,46 -16,85 -49,118 -33,33 -72,49 -118,49 -45,0 -84,-16 -117,-49 -33,-33 -50,-72 -50,-118 0,-46 16,-86 49,-118 32,-33 72,-49 118,-49zm73 662l-350 1180c-23,79 -35,127 -35,143 0,17 5,31 14,41 10,11 21,16 34,16 15,0 33,-8 54,-25 57,-49 114,-120 172,-212l59 39c-72,114 -157,209 -254,284 -72,56 -141,84 -206,84 -44,0 -79,-13 -107,-40 -27,-27 -41,-60 -41,-101 0,-41 15,-110 45,-206l232 -754c35,-121 53,-197 53,-228 0,-24 -9,-44 -26,-60 -17,-15 -40,-23 -71,-23 -24,0 -74,6 -151,18l0 -64 578 -92z"/>
  <path id="4" class="fil1" d="M49152 23042l-232 805c72,-77 135,-130 188,-158 53,-29 109,-43 167,-43 83,0 150,28 202,85 52,56 79,133 79,230 0,125 -35,249 -105,373 -69,124 -156,220 -261,289 -105,69 -209,104 -310,104 -114,0 -231,-44 -351,-132l353 -1223c27,-93 40,-148 40,-165 0,-19 -6,-35 -18,-44 -18,-14 -45,-22 -79,-22 -17,0 -41,3 -75,9l0 -43 402 -65zm-451 1566c75,43 140,64 197,64 66,0 134,-25 205,-75 70,-50 132,-135 184,-254 52,-118 78,-238 78,-359 0,-72 -17,-127 -51,-168 -34,-40 -73,-60 -119,-60 -69,0 -136,30 -202,90 -66,61 -114,143 -144,246l-148 516z"/>
  <polyline class="fil0 str4" points="15062,33077 13257,32474 16929,31266 13257,30058 16929,28851 13257,27643 16929,26436 13257,25228 16929,24021 15062,23416 "/>
  <polyline class="fil0 str4" points="33482,39503 31676,38899 35349,37692 31676,36484 35349,35276 31676,34069 35349,32861 31676,31654 35349,30446 33482,29842 "/>
  <polygon class="fil0 str5" points="23565,10877 23565,20538 28396,20538 28396,10877 "/>
  <path class="fil0 str6" d="M56955 27281l-5217 0m5217 1932l-5217 0"/>
  <line class="fil0 str1" x1="67463" y1="23134" x2="67463" y2= "33562" />
  <line class="fil0 str1" x1="68800" y1="23134" x2="68800" y2= "33562" />
  <g>
   <path class="fil1" d="M54491 7621l0 19660 -290 0 0 -19660 290 0zm-1158 0l0 0 1 -52 4 -52 6 -50 9 -50 12 -49 13 -48 16 -47 18 -46 21 -45 22 -44 25 -42 26 -41 28 -40 30 -38 32 -37 34 -35 35 -34 37 -32 38 -30 40 -28 41 -27 42 -24 44 -23 45 -20 46 -18 47 -16 48 -14 49 -11 50 -9 51 -7 51 -4 52 -1 0 0 52 1 52 4 50 7 50 9 49 11 48 14 47 16 46 18 45 20 44 23 43 24 41 27 39 28 39 30 36 32 36 34 33 35 32 37 30 38 28 40 27 41 24 42 23 44 20 45 18 46 16 47 14 48 11 49 9 50 6 50 4 52 2 52 0 0 -2 52 -4 51 -6 50 -9 50 -11 49 -14 48 -16 47 -18 46 -20 45 -23 44 -24 42 -27 41 -28 40 -30 38 -32 37 -33 35 -36 34 -36 32 -39 30 -39 28 -41 27 -43 24 -44 23 -45 20 -46 18 -47 16 -48 14 -49 11 -50 9 -50 7 -52 4 -52 1 0 0 -52 -1 -51 -4 -51 -7 -50 -9 -49 -11 -48 -14 -47 -16 -46 -18 -45 -20 -44 -23 -42 -24 -41 -27 -40 -28 -38 -30 -37 -32 -35 -34 -34 -35 -32 -37 -30 -38 -28 -40 -26 -41 -25 -42 -22 -44 -21 -45 -18 -46 -16 -47 -13 -48 -12 -49 -9 -50 -6 -50 -4 -51 -1 -52z"/>
  </g>
  <g>
   <path class="fil1" d="M54201 47167l0 -17954 290 0 0 17954 -290 0zm-1313 0l0 -171 2917 0 0 343 -2917 0 0 -172z"/>
  </g>
  <path class="fil2 str7" d="M71213 35452c0,-532 -435,-966 -966,-966 -532,0 -967,434 -967,966 0,531 435,966 967,966 531,0 966,-435 966,-966z"/>
  <path class="fil2 str7" d="M66723 21067c0,-532 -435,-967 -966,-967 -531,0 -966,435 -966,967 0,531 435,966 966,966 531,0 966,-435 966,-966z"/>
  <g>
   <path class="fil1" d="M65282 17823l1239 -2304 0 0 15 70 18 68 19 67 20 67 22 64 24 64 25 62 27 61 28 60 30 59 31 57 33 56 35 55 36 53 38 52 39 51 41 50 43 49 44 47 45 46 48 45 49 43 50 42 52 41 53 40 55 38 57 38 58 36 60 34 62 34 63 32 64 31 -2523 692zm5281 -854l-208 202 -108 -107 -108 -101 -109 -93 -110 -88 -111 -80 -112 -74 -113 -67 -114 -60 -114 -54 -116 -47 -116 -40 -118 -33 -119 -27 -120 -19 -121 -13 -123 -6 -124 1 -126 8 -127 15 -130 23 -131 30 -133 37 -135 45 -136 53 -139 60 -141 68 -142 77 -145 84 -146 93 -148 101 -150 109 -152 118 -181 -227 159 -123 157 -114 156 -106 155 -98 153 -90 152 -82 152 -73 150 -66 148 -57 148 -49 147 -41 145 -33 144 -25 144 -18 141 -9 141 -1 139 7 138 15 136 22 135 30 133 38 132 45 130 53 128 60 126 67 125 74 123 81 121 88 119 94 118 101 116 108 115 114zm737 969l-2414 -1010 68 -22 67 -24 65 -25 64 -27 62 -28 61 -30 59 -31 59 -33 56 -34 56 -35 54 -37 52 -38 51 -40 50 -41 49 -43 47 -44 45 -45 44 -47 43 -49 41 -50 40 -51 39 -53 37 -54 36 -56 34 -57 33 -58 32 -60 30 -62 29 -63 27 -64 26 -66 24 -67 0 0 934 2444z"/>
  </g>
  <path class="fil1" d="M68346 13641l-1047 -2281 0 1811c0,167 18,271 54,313 50,56 129,84 238,84l96 0 0 73 -952 0 0 -73 97 0c116,0 198,-35 247,-105 29,-43 44,-140 44,-292l0 -1771c0,-120 -14,-207 -40,-260 -19,-39 -54,-71 -104,-98 -52,-26 -133,-39 -244,-39l0 -73 777 0 977 2120 969 -2120 769 0 0 73 -95 0c-118,0 -200,35 -249,105 -29,43 -44,140 -44,292l0 1771c0,167 19,271 56,313 50,56 129,84 237,84l95 0 0 73 -1161 0 0 -73 97 0c117,0 199,-35 247,-105 29,-43 44,-140 44,-292l0 -1811 -1043 2281 -65 0z"/>
 </g>
</svg>
