<?xml version="1.0" encoding="UTF-8"?>
<!DOCTYPE svg PUBLIC "-//W3C//DTD SVG 1.1//EN" "http://www.w3.org/Graphics/SVG/1.1/DTD/svg11.dtd">
<!-- Creator: CorelDRAW Home & Student X8 -->
<svg xmlns="http://www.w3.org/2000/svg" xml:space="preserve" width="113.968mm" height="55.4357mm" version="1.1" style="shape-rendering:geometricPrecision; text-rendering:geometricPrecision; image-rendering:optimizeQuality; fill-rule:evenodd; clip-rule:evenodd"
viewBox="0 0 6369 3098"
 xmlns:xlink="http://www.w3.org/1999/xlink">
 <defs>
  <style type="text/css">
   <![CDATA[
    .str0 {stroke:#2B2A29;stroke-width:16.765}
    .str3 {stroke:#2B2A29;stroke-width:11.1767}
    .str1 {stroke:black;stroke-width:111.767}
    .str2 {stroke:black;stroke-width:111.767}
    .fil0 {fill:none}
    .fil1 {fill:#2B2A29;fill-rule:nonzero}
   ]]>
  </style>
 </defs>
 <g id="Warstwa_x0020_1">
  <metadata id="CorelCorpID_0Corel-Layer"/>
  <polyline class="fil0 str0" points="2685,1786 2518,1731 2858,1619 2518,1507 2858,1396 2518,1284 2858,1173 2518,1061 2858,949 2685,894 "/>
  <path class="fil0 str1" d="M3735 770l0 -544m201 544l0 -544"/>
  <g id="_213069416">
   <circle class="fil0 str0" cx="621" cy="1338" r="307"/>
   <polygon class="fil1" points="618,1278 618,1201 541,1201 541,1188 618,1188 618,1112 630,1112 630,1188 707,1188 707,1201 630,1201 630,1278 "/>
   <polygon class="fil1" points="588,1541 668,1541 668,1564 588,1564 "/>
  </g>
  <g id="_442646304">
   <circle class="fil0 str0" cx="1932" cy="1319" r="307"/>
   <g>
    <path class="fil1" d="M1941 1130l0 405 -17 0 0 -405 17 0zm0 -21l-17 11 17 0 -51 78 -17 -11 51 -78 17 0zm0 0l-17 0 8 -13 9 13zm42 84l-8 5 -51 -78 17 -11 50 78 -8 6z"/>
   </g>
  </g>
  <polyline class="fil0 str0" points="1715,488 1659,655 1547,316 1436,655 1324,316 1212,655 1101,316 989,655 878,316 822,488 "/>
  <path class="fil0 str2" d="M3522 1445l-544 0m544 -201l-544 0"/>
  <polyline class="fil0 str0" points="5440,1600 5274,1545 5613,1433 5274,1321 5613,1210 5274,1098 5613,987 5274,875 5613,763 5440,707 "/>
  <g>
   <path class="fil1" d="M698 2191l0 10 -168 0 0 -20 168 0 0 10zm-78 -546l-1 546 -11 0 1 -546 11 0z"/>
  </g>
  <g>
   <path class="fil1" d="M2009 2192l0 10 -169 -2 1 -20 168 2 0 10zm-72 -547l-7 546 -11 0 7 -546 11 0z"/>
  </g>
  <path class="fil0 str3" d="M2685 2191l0 -405m2750 -181l0 586"/>
  <polyline class="fil0 str3" points="603,1031 603,498 822,498 "/>
  <line class="fil0 str3" x1="1709" y1="498" x2="3741" y2= "498" />
  <polyline class="fil0 str3" points="3946,498 5435,498 5435,709 "/>
  <g>
   <path class="fil1" d="M2691 498l0 396 -11 0 0 -396 11 0zm-64 0l0 0 0 -3 0 -3 0 -3 1 -3 0 -2 1 -3 1 -3 1 -3 1 -2 2 -3 1 -2 2 -3 1 -2 2 -2 2 -2 2 -2 2 -2 2 -2 2 -2 2 -1 3 -2 2 -1 3 -2 2 -1 3 -1 3 -1 3 -1 2 0 3 -1 3 0 3 0 3 -1 0 0 3 1 3 0 3 0 3 1 3 0 3 1 2 1 3 1 3 1 2 2 3 1 2 2 2 1 3 2 2 2 2 2 2 2 1 2 2 2 2 2 1 3 2 2 1 3 1 2 1 3 1 3 1 3 1 2 0 3 1 3 0 3 0 3 0 0 0 3 0 3 -1 3 0 3 -1 3 -1 3 -1 2 -1 3 -1 2 -1 3 -2 2 -1 3 -2 2 -2 2 -1 2 -2 3 -2 1 -2 2 -3 2 -2 2 -2 1 -3 2 -2 1 -3 1 -3 1 -2 1 -3 1 -3 1 -3 0 -3 0 -3 1 -3 0 0 0 -3 0 -3 -1 -3 0 -3 0 -2 -1 -3 -1 -3 -1 -3 -1 -2 -1 -3 -1 -2 -2 -3 -1 -2 -2 -2 -2 -2 -2 -2 -1 -2 -3 -2 -2 -2 -2 -1 -2 -2 -3 -1 -2 -2 -3 -1 -2 -1 -3 -1 -2 -1 -3 0 -3 -1 -3 0 -3 0 -3 0 -3z"/>
  </g>
  <g>
   <path class="fil1" d="M1938 498l0 513 -11 0 0 -513 11 0zm-64 0l0 0 0 -3 0 -3 0 -3 1 -3 0 -3 1 -2 1 -3 1 -3 1 -2 2 -3 1 -2 2 -3 1 -2 2 -2 2 -2 2 -2 2 -2 2 -2 2 -2 3 -1 2 -2 2 -1 3 -2 2 -1 3 -1 3 -1 3 -1 2 0 3 -1 3 0 3 0 3 -1 0 0 3 1 3 0 3 0 3 1 3 0 3 1 2 1 3 1 3 1 2 2 3 1 2 2 2 1 3 2 2 2 2 2 2 2 2 2 1 2 2 2 1 3 2 2 1 3 1 2 1 3 1 3 1 2 1 3 0 3 1 3 0 3 0 3 0 0 0 3 0 3 -1 3 0 3 -1 3 -1 3 -1 2 -1 3 -1 2 -1 3 -2 2 -1 3 -2 2 -1 2 -2 2 -2 3 -2 1 -2 2 -3 2 -2 2 -2 1 -3 2 -2 1 -3 1 -3 1 -2 1 -3 1 -3 1 -3 0 -3 0 -3 1 -3 0 0 0 -3 0 -3 -1 -3 0 -3 0 -2 -1 -3 -1 -3 -1 -3 -1 -2 -1 -3 -1 -2 -2 -2 -1 -3 -2 -2 -2 -2 -2 -2 -1 -2 -3 -2 -2 -2 -2 -1 -2 -2 -3 -1 -2 -2 -3 -1 -2 -1 -3 -1 -2 -1 -3 0 -3 -1 -3 0 -3 0 -3 0 -3z"/>
  </g>
  <path class="fil1" d="M3598 27l-15 68 -6 0 -1 -17c0,-6 -1,-12 -3,-17 -2,-5 -5,-9 -8,-12 -4,-4 -9,-7 -15,-9 -5,-2 -12,-3 -19,-3 -18,0 -34,5 -48,15 -18,13 -32,31 -42,55 -8,19 -12,39 -12,59 0,20 6,36 18,48 12,12 27,18 46,18 15,0 28,-3 39,-9 11,-7 21,-17 31,-30l7 0c-11,18 -23,31 -37,40 -14,8 -30,12 -50,12 -17,0 -32,-3 -45,-10 -13,-7 -23,-17 -30,-30 -7,-13 -10,-27 -10,-42 0,-23 6,-45 18,-67 12,-21 29,-38 50,-51 21,-12 43,-18 65,-18 10,0 21,2 34,7 5,2 9,3 12,3 2,0 4,0 6,-1 2,-1 5,-4 10,-9l5 0z"/>
  <path id="1" class="fil1" d="M3684 199l-2 10 -23 0 -19 69c-8,29 -16,52 -24,68 -11,23 -22,39 -35,47 -9,7 -19,10 -28,10 -6,0 -12,-1 -16,-5 -3,-3 -5,-6 -5,-10 0,-3 2,-6 4,-9 3,-2 6,-3 10,-3 3,0 5,1 7,2 2,2 3,4 3,6 0,3 -1,5 -4,7 -1,1 -2,2 -2,3 0,1 0,2 1,2 1,1 2,1 4,1 5,0 9,-1 14,-4 5,-3 9,-7 13,-12 4,-6 7,-14 11,-24 1,-5 5,-19 12,-43l30 -105 -30 0 2 -10c9,0 16,0 20,-1 3,-2 7,-4 10,-7 3,-4 7,-10 11,-19 6,-12 12,-22 17,-29 7,-9 15,-15 23,-20 8,-5 16,-7 23,-7 8,0 14,2 18,6 5,4 7,8 7,13 0,4 -1,7 -3,9 -3,3 -6,4 -10,4 -3,0 -5,-1 -7,-3 -2,-2 -3,-4 -3,-6 0,-2 0,-4 2,-7 1,-2 1,-4 1,-4 0,-2 0,-3 -1,-4 -1,-1 -3,-1 -5,-1 -6,0 -11,2 -16,6 -6,6 -12,14 -17,26 -3,7 -8,21 -15,44l22 0z"/>
  <path class="fil1" d="M3883 2935l-33 -101c-8,0 -15,-1 -23,-3l-19 67c-3,7 -4,13 -4,19 0,4 1,7 4,9 3,2 9,3 19,3l-1 6 -80 0 1 -6c8,0 13,-1 16,-2 4,-2 7,-4 9,-7 3,-5 7,-13 10,-25l37 -127c2,-8 3,-15 3,-19 0,-5 -2,-9 -5,-12 -4,-4 -10,-5 -17,-5l2 -6 68 0c23,0 39,4 49,13 10,9 15,20 15,34 0,13 -5,26 -15,37 -10,11 -25,18 -43,21l21 61c4,15 9,25 14,30 5,4 13,7 24,7l-2 6 -50 0zm-54 -113c7,1 12,2 18,2 17,0 31,-5 41,-15 10,-10 15,-22 15,-37 0,-11 -3,-20 -9,-26 -7,-6 -16,-9 -29,-9 -3,0 -7,0 -12,1l-24 84z"/>
  <path id="1" class="fil1" d="M4043 2894l-3 10 -23 0 -18 68c-8,30 -16,52 -24,69 -11,22 -23,38 -35,47 -10,7 -19,10 -29,10 -6,0 -11,-2 -15,-6 -4,-2 -5,-6 -5,-10 0,-3 1,-6 4,-8 2,-3 6,-4 9,-4 3,0 6,1 7,3 2,2 3,4 3,6 0,2 -1,4 -3,6 -2,2 -2,3 -2,3 0,1 0,2 1,3 1,0 2,1 4,1 4,0 9,-2 14,-5 5,-2 9,-6 13,-12 3,-5 7,-13 10,-24 2,-4 6,-18 13,-42l29 -105 -30 0 2 -10c10,0 17,-1 20,-2 4,-1 8,-3 11,-7 3,-3 7,-9 11,-18 6,-13 11,-22 17,-29 7,-9 15,-16 23,-21 8,-4 16,-6 23,-6 7,0 13,2 18,6 4,4 7,8 7,13 0,3 -1,6 -4,9 -2,2 -5,3 -9,3 -3,0 -6,-1 -8,-2 -2,-2 -3,-4 -3,-7 0,-2 1,-4 2,-6 1,-3 2,-4 2,-5 0,-1 0,-3 -1,-3 -1,-1 -3,-2 -6,-2 -6,0 -11,2 -16,7 -6,5 -12,14 -17,26 -2,6 -7,21 -15,44l23 0z"/>
  <path class="fil1" d="M3033 1828l-15 68 -6 0 -1 -17c0,-6 -1,-12 -3,-16 -2,-5 -5,-9 -8,-13 -4,-3 -9,-6 -15,-8 -5,-2 -12,-3 -19,-3 -18,0 -34,5 -48,15 -18,13 -32,31 -42,54 -8,20 -12,39 -12,59 0,20 6,36 18,49 12,12 27,18 46,18 15,0 28,-4 39,-10 11,-6 22,-16 31,-29l7 0c-11,18 -23,31 -37,39 -14,9 -30,13 -50,13 -17,0 -32,-4 -45,-11 -13,-7 -23,-17 -30,-30 -7,-13 -10,-27 -10,-42 0,-23 6,-45 18,-66 12,-22 29,-39 50,-51 22,-13 43,-19 65,-19 10,0 21,3 34,8 5,2 9,3 12,3 2,0 4,-1 6,-2 2,-1 5,-4 10,-9l5 0z"/>
  <path id="1" class="fil1" d="M3093 1936c4,0 8,1 11,4 3,3 4,7 4,11 0,4 -2,8 -5,11 -3,3 -6,4 -10,4 -5,0 -8,-1 -11,-4 -3,-3 -5,-7 -5,-11 0,-4 2,-8 5,-11 3,-3 6,-4 11,-4zm6 61l-32 109c-2,7 -3,12 -3,13 0,2 0,3 1,4 1,1 2,2 3,2 1,0 3,-1 5,-3 5,-4 11,-11 16,-19l5 3c-6,11 -14,20 -23,27 -7,5 -13,7 -19,7 -4,0 -7,-1 -10,-3 -2,-3 -4,-6 -4,-10 0,-4 2,-10 4,-19l22 -70c3,-11 5,-18 5,-21 0,-2 -1,-4 -3,-5 -1,-2 -3,-2 -6,-2 -2,0 -7,0 -14,1l0 -6 53 -8z"/>
  <path class="fil1" d="M1254 209l-33 -101c-8,0 -15,-1 -23,-3l-20 67c-2,7 -3,13 -3,19 0,3 1,7 4,9 3,2 9,3 19,3l-2 6 -79 0 1 -6c8,0 13,-1 16,-2 4,-2 7,-4 9,-7 3,-5 7,-13 10,-26l36 -126c3,-8 4,-15 4,-20 0,-4 -2,-8 -6,-12 -3,-3 -9,-4 -16,-4l2 -6 68 0c23,0 39,4 49,13 10,9 15,20 15,34 0,13 -5,26 -15,37 -10,11 -25,18 -43,21l20 61c5,15 10,25 15,30 5,4 13,7 24,7l-2 6 -50 0zm-54 -113c7,1 12,2 17,2 18,0 32,-5 42,-15 10,-10 15,-22 15,-37 0,-11 -3,-20 -9,-26 -7,-6 -16,-9 -29,-9 -3,0 -7,0 -12,1l-24 84z"/>
  <path id="1" class="fil1" d="M1431 164l-9 48 -6 0c0,-14 -3,-24 -9,-31 -5,-6 -12,-9 -20,-9 -6,0 -11,2 -15,5 -4,4 -5,8 -5,13 0,3 0,6 2,10 1,3 5,7 10,12 13,15 22,26 25,33 4,8 6,15 6,21 0,11 -4,21 -13,29 -9,8 -20,12 -34,12 -7,0 -16,-2 -25,-5 -4,-1 -6,-2 -8,-2 -5,0 -8,3 -11,7l-5 0 9 -50 6 0c0,16 4,27 9,34 6,6 14,9 24,9 8,0 15,-2 19,-6 5,-5 7,-10 7,-16 0,-4 -1,-8 -2,-12 -3,-6 -9,-14 -19,-25 -9,-11 -15,-19 -17,-25 -3,-5 -4,-11 -4,-16 0,-10 3,-18 11,-25 7,-7 16,-11 28,-11 3,0 6,1 9,1 1,0 4,2 10,4 5,2 8,3 10,3 5,0 8,-3 11,-8l6 0z"/>
  <path class="fil1" d="M2304 2063l-33 -102c-8,0 -15,-1 -23,-2l-19 66c-3,8 -4,14 -4,19 0,4 2,7 4,9 3,2 9,3 19,4l-1 6 -80 0 1 -6c8,0 13,-1 16,-2 4,-2 7,-4 9,-7 3,-5 7,-14 10,-26l37 -126c2,-9 3,-15 3,-20 0,-5 -2,-9 -5,-12 -4,-3 -10,-5 -17,-5l2 -5 68 0c23,0 39,4 49,13 10,8 16,20 16,34 0,13 -6,25 -16,37 -10,11 -25,18 -43,21l21 61c4,15 9,25 14,29 5,5 13,7 24,8l-1 6 -51 0zm-54 -113c7,1 12,1 18,1 17,0 31,-4 41,-14 10,-10 15,-22 15,-37 0,-11 -3,-20 -9,-26 -7,-6 -16,-9 -29,-9 -3,0 -7,0 -12,1l-24 84z"/>
  <path id="1" class="fil1" d="M2437 1956c4,0 8,2 11,5 3,3 5,6 5,11 0,4 -2,7 -5,10 -3,4 -7,5 -11,5 -4,0 -8,-1 -11,-5 -3,-3 -4,-6 -4,-10 0,-5 1,-8 4,-11 3,-3 7,-5 11,-5zm7 61l-32 110c-3,7 -4,11 -4,13 0,1 1,3 2,4 0,1 2,1 3,1 1,0 3,-1 5,-2 5,-5 10,-11 16,-20l5 4c-7,10 -14,19 -23,26 -7,5 -13,8 -20,8 -4,0 -7,-1 -9,-4 -3,-2 -4,-5 -4,-9 0,-4 1,-10 4,-19l21 -70c4,-11 5,-18 5,-21 0,-2 0,-4 -2,-6 -2,-1 -4,-2 -7,-2 -2,0 -6,1 -14,2l0 -6 54 -9z"/>
  <path class="fil1" d="M4964 986l-33 -102c-8,0 -16,-1 -24,-2l-19 66c-2,7 -3,14 -3,19 0,4 1,7 4,9 2,2 9,3 19,4l-2 6 -80 0 2 -6c8,0 13,-1 15,-2 5,-2 8,-5 10,-8 3,-4 6,-13 10,-25l36 -126c3,-9 4,-15 4,-20 0,-5 -2,-9 -6,-12 -4,-3 -9,-5 -16,-5l1 -6 69 0c23,0 39,5 49,13 10,9 15,20 15,34 0,14 -5,26 -15,37 -11,11 -25,19 -43,22l20 61c5,15 10,25 15,29 5,5 13,7 24,8l-2 6 -50 0zm-54 -113c6,1 12,1 17,1 18,0 32,-5 42,-15 10,-9 15,-22 15,-36 0,-12 -3,-20 -10,-26 -6,-6 -16,-10 -28,-10 -4,0 -7,1 -12,2l-24 84z"/>
  <path id="1" class="fil1" d="M5172 989c0,15 -4,31 -12,46 -9,15 -20,27 -34,35 -15,9 -29,14 -43,14 -14,0 -26,-5 -34,-14 -9,-9 -14,-20 -14,-35 0,-15 5,-30 13,-45 9,-15 21,-27 35,-36 15,-9 29,-13 42,-13 14,0 25,4 34,13 9,9 13,21 13,35zm-25 -11c0,-10 -3,-17 -7,-22 -5,-5 -11,-8 -19,-8 -15,0 -29,11 -41,33 -13,22 -19,43 -19,64 0,10 2,18 7,23 5,5 11,8 19,8 14,0 28,-11 41,-32 12,-22 19,-44 19,-66z"/>
  <g>
   <path class="fil1" d="M5429 1988l0 -278 12 0 0 278 -12 0zm6 70l-60 -140 4 2 4 2 4 1 3 2 4 1 4 1 3 2 4 1 4 0 4 1 3 1 4 0 4 1 4 0 3 0 4 0 4 0 3 0 4 0 4 -1 4 0 3 -1 4 -1 4 0 4 -1 3 -2 4 -1 4 -1 3 -2 4 -1 4 -2 4 -2 0 0 -60 140z"/>
  </g>
  <path class="fil1" d="M9 1478l17 -174c1,-9 1,-15 1,-18 0,-5 -2,-9 -5,-12 -4,-3 -9,-4 -16,-4l-6 0 2 -6 82 0 -2 6c-9,0 -15,1 -18,3 -3,1 -6,4 -8,9 -1,2 -2,8 -3,19l-13 125 82 -112c9,-12 15,-20 17,-25 2,-3 2,-6 2,-8 0,-3 -1,-5 -3,-8 -3,-2 -7,-3 -13,-3l1 -6 63 0 -2 6c-5,0 -9,1 -12,3 -5,2 -11,6 -16,12 -6,5 -15,16 -27,33l-118 160 -5 0z"/>
  <path id="1" class="fil1" d="M211 1540l-1 4 -64 0 2 -4c6,0 10,-1 13,-2 3,-1 5,-3 7,-5 3,-4 5,-10 8,-20l27 -94c2,-8 4,-14 4,-18 0,-2 -1,-4 -2,-5 -1,-2 -2,-3 -4,-3 -3,-1 -6,-1 -12,-1l1 -5 60 0 -2 5c-4,0 -8,0 -11,1 -3,2 -6,4 -7,8 -2,3 -5,10 -7,20l-28 95c-2,8 -3,13 -3,15 0,2 0,3 1,4 1,2 3,3 5,3 2,1 6,1 13,2z"/>
  <path class="fil1" d="M1597 1671l-2 5 -85 0 2 -5c9,-1 15,-1 17,-3 5,-1 8,-4 10,-7 4,-5 7,-13 11,-26l36 -126c3,-10 5,-18 5,-24 0,-2 -1,-5 -2,-6 -2,-2 -4,-4 -6,-5 -3,-1 -8,-1 -16,-1l1 -6 80 0 -1 6c-7,0 -12,1 -15,2 -5,2 -8,6 -11,10 -2,4 -5,13 -9,28l-36 126c-4,10 -5,17 -5,20 0,2 0,4 2,6 1,1 3,3 6,3 3,1 9,2 18,3z"/>
  <path id="1" class="fil1" d="M1682 1743l-1 4 -63 0 1 -4c7,0 11,-1 13,-2 3,-1 6,-3 7,-5 3,-4 6,-10 8,-19l28 -95c2,-8 3,-14 3,-18 0,-2 -1,-4 -2,-5 0,-1 -2,-2 -4,-3 -2,-1 -6,-1 -12,-1l1 -5 60 0 -1 5c-5,0 -9,0 -11,1 -4,2 -6,5 -8,8 -2,3 -4,10 -7,21l-27 94c-3,8 -4,13 -4,15 0,2 1,3 2,5 1,1 2,2 4,2 2,1 7,2 13,2z"/>
  <path class="fil1" d="M5143 1985l-2 6 -84 0 2 -6c8,0 14,-1 17,-2 4,-2 8,-4 10,-7 3,-5 7,-14 10,-26l37 -127c3,-10 4,-18 4,-23 0,-3 -1,-5 -2,-7 -1,-2 -3,-3 -6,-4 -3,-1 -8,-2 -16,-2l2 -5 80 0 -2 5c-7,0 -11,1 -15,3 -4,2 -8,5 -10,9 -3,4 -6,14 -9,28l-37 126c-3,10 -5,17 -5,20 0,2 1,4 2,6 2,2 4,3 6,4 3,1 9,1 18,2z"/>
  <path id="1" class="fil1" d="M5288 1901c11,0 20,2 28,7 8,5 14,11 19,20 4,9 7,18 7,27 0,17 -5,35 -15,53 -10,19 -23,33 -38,43 -16,9 -32,14 -49,14 -12,0 -22,-2 -30,-8 -9,-5 -15,-12 -19,-21 -3,-9 -5,-17 -5,-26 0,-14 3,-29 10,-43 7,-14 16,-26 25,-36 10,-9 21,-17 32,-22 11,-5 23,-8 35,-8zm-4 8c-8,0 -15,1 -23,5 -7,4 -14,10 -22,19 -7,9 -13,20 -19,34 -7,17 -11,34 -11,49 0,11 3,21 9,29 5,9 14,13 26,13 7,0 14,-2 20,-5 7,-4 14,-10 21,-18 10,-11 17,-24 24,-41 6,-16 9,-31 9,-46 0,-10 -3,-19 -8,-27 -6,-8 -15,-12 -26,-12z"/>
  <path class="fil1" d="M6054 1409l17 -174c1,-9 1,-15 1,-18 0,-5 -1,-8 -5,-11 -3,-4 -9,-5 -16,-5l-6 0 2 -6 82 0 -1 6c-9,0 -15,1 -19,3 -3,1 -6,4 -8,9 -1,2 -2,8 -3,19l-12 125 82 -111c8,-12 14,-21 16,-26 2,-3 3,-6 3,-8 0,-3 -2,-5 -4,-7 -2,-2 -7,-4 -13,-4l2 -6 62 0 -1 6c-5,0 -9,1 -12,3 -6,3 -12,7 -17,12 -6,5 -15,16 -27,33l-117 160 -6 0z"/>
  <path id="1" class="fil1" d="M6316 1315c10,0 19,2 27,7 8,4 15,11 19,20 5,9 7,18 7,27 0,17 -5,35 -15,53 -9,19 -22,33 -38,42 -16,10 -32,15 -49,15 -12,0 -22,-3 -30,-8 -8,-6 -14,-13 -18,-21 -4,-9 -6,-18 -6,-26 0,-15 3,-29 11,-43 7,-15 15,-27 25,-36 10,-10 20,-17 31,-22 11,-6 23,-8 36,-8zm-5 7c-7,0 -15,2 -22,6 -8,4 -15,10 -22,19 -8,8 -14,20 -20,34 -7,17 -11,33 -11,49 0,11 3,20 9,29 6,8 14,13 26,13 7,0 14,-2 21,-6 6,-3 13,-9 21,-17 9,-11 17,-25 23,-41 6,-16 9,-32 9,-46 0,-10 -2,-20 -8,-28 -6,-8 -14,-12 -26,-12z"/>
  <path class="fil1" d="M614 181l0 149c0,12 1,19 2,22 1,3 3,6 6,8 3,2 8,3 15,3l4 0 0 4 -96 0 0 -4 5 0c8,0 13,-1 17,-3 3,-2 5,-4 6,-8 1,-3 2,-10 2,-22l0 -95c0,-8 0,-14 -1,-16 -1,-2 -3,-4 -5,-5 -2,-2 -4,-2 -7,-2 -5,0 -11,1 -17,4l-3 -5 68 -30 4 0z"/>
  <path class="fil1" d="M2735 310l-108 0 0 -3c34,-39 54,-66 61,-79 7,-14 10,-27 10,-40 0,-9 -3,-17 -9,-24 -6,-6 -13,-9 -21,-9 -14,0 -25,7 -32,21l-5 -2c4,-17 12,-30 22,-38 10,-9 21,-13 34,-13 9,0 18,2 25,7 8,4 14,10 18,18 5,7 7,14 7,21 0,12 -4,24 -10,36 -9,17 -29,40 -60,70l40 0c10,0 16,-1 19,-2 3,0 5,-2 7,-4 2,-2 4,-6 7,-12l5 0 -10 53z"/>
  <path class="fil1" d="M4397 234l0 -5c10,-3 17,-6 21,-8 4,-3 7,-7 10,-12 3,-5 5,-11 5,-16 0,-8 -3,-14 -9,-19 -5,-6 -12,-8 -20,-8 -13,0 -23,6 -32,20l-5 -2c6,-15 15,-26 25,-34 10,-8 21,-11 34,-11 12,0 23,4 31,11 8,8 12,17 12,27 0,7 -2,14 -5,20 -4,6 -10,12 -18,16 10,6 18,12 24,19 5,8 8,17 8,29 0,19 -7,35 -21,48 -14,13 -32,20 -55,20 -16,0 -27,-2 -34,-8 -5,-3 -8,-8 -8,-13 0,-5 2,-8 5,-11 3,-3 6,-4 10,-4 3,0 6,0 8,2 2,0 7,4 16,11 8,7 17,11 24,11 7,0 13,-3 17,-8 5,-5 8,-12 8,-20 0,-12 -5,-24 -13,-34 -9,-10 -22,-17 -38,-21z"/>
  <path class="fil1" d="M5494 1656l87 -118 16 0 0 118 17 0 0 28 -17 0 0 41 -37 0 0 -41 -66 0 0 -28zm13 0l53 0 0 -73 -53 73z"/>
  <polyline class="fil0 str0" points="3687,2822 3632,2988 3520,2649 3408,2988 3297,2649 3185,2988 3074,2649 2962,2988 2850,2649 2795,2822 "/>
  <rect class="fil0 str0" transform="matrix(1.43336 1.43336 -1.43336 1.43336 4394.47 881.496)" width="302" height="302"/>
  <g>
   <path class="fil1" d="M4326 2190l0 -3 0 -3 1 -3 0 -2 1 -3 1 -3 1 -3 1 -2 1 -3 1 -2 2 -3 1 -2 2 -3 2 -2 2 -2 2 -2 2 -2 2 -2 2 -1 2 -2 3 -1 2 -2 3 -1 2 -1 3 -1 3 -1 3 -1 2 0 3 -1 3 0 3 0 3 -1 0 0 3 1 3 0 3 0 3 1 3 1 3 0 2 1 3 1 3 2 2 1 3 1 2 2 2 2 2 1 3 2 2 2 1 2 2 2 2 3 2 2 1 2 1 3 2 2 1 3 1 3 1 2 1 3 0 3 1 3 0 3 0 3 0 3 0 0 0 3 0 3 -1 3 0 3 -1 2 -1 3 -1 3 -1 3 -1 2 -1 3 -2 2 -1 2 -2 3 -2 2 -2 2 -2 2 -2 2 -2 2 -2 1 -2 2 -3 2 -2 1 -3 1 -2 1 -3 1 -3 1 -3 1 -2 1 -3 0 -3 0 -3 1 -3 0 0 0 -3 0 -3 -1 -3 0 -3 -1 -3 0 -3 -1 -2 -1 -3 -1 -3 -1 -2 -2 -2 -1 -3 -2 -2 -1 -2 -2 -2 -2 -2 -2 -2 -2 -2 -2 -2 -2 -1 -3 -2 -2 -1 -3 -2 -2 -1 -3 -1 -3 -1 -2 0 -3 -1 -3 0 -3 -1 -3 0 -3 0 -3 0 0zm70 -448l-6 449 -11 0 6 -449 11 0z"/>
  </g>
  <g>
   <path class="fil1" d="M4400 498l0 383 -11 0 0 -383 11 0zm-64 0l0 0 0 -3 0 -3 1 -3 0 -3 1 -3 0 -2 1 -3 1 -3 2 -2 1 -3 1 -2 2 -3 2 -2 1 -2 2 -2 2 -2 2 -2 2 -2 2 -2 3 -1 2 -2 3 -1 2 -2 3 -1 2 -1 3 -1 3 -1 3 0 3 -1 2 0 3 0 3 -1 0 0 3 1 3 0 3 0 3 1 3 0 3 1 3 1 2 1 3 1 2 2 3 1 2 2 3 1 2 2 2 2 2 2 2 2 2 2 1 2 2 2 2 3 1 2 1 3 1 2 2 3 0 3 1 2 1 3 0 3 1 3 0 3 0 3 0 0 0 3 0 3 -1 3 0 3 -1 3 -1 3 0 2 -2 3 -1 2 -1 3 -1 2 -2 3 -2 2 -1 2 -2 2 -2 3 -2 1 -2 2 -2 2 -3 2 -2 1 -3 2 -2 1 -3 1 -2 1 -3 1 -3 1 -3 1 -3 0 -3 0 -3 1 -3 0 0 0 -3 0 -3 -1 -2 0 -3 0 -3 -1 -3 -1 -3 -1 -2 -1 -3 -1 -2 -1 -3 -2 -2 -1 -3 -2 -2 -2 -2 -2 -2 -1 -2 -3 -2 -2 -1 -2 -2 -2 -2 -3 -1 -2 -1 -3 -2 -2 -1 -3 -1 -2 0 -3 -1 -3 0 -3 -1 -3 0 -3 0 -3z"/>
  </g>
  <path class="fil1" d="M3783 1663l-16 174c-1,8 -1,14 -1,16 0,4 0,8 2,10 2,3 5,5 8,6 3,2 9,2 17,2l-2 6 -82 0 2 -6 3 0c7,0 12,-1 16,-4 3,-2 6,-5 7,-10 1,-3 3,-10 4,-22l2 -27 -60 0 -21 29c-5,7 -8,11 -9,14 -1,3 -2,6 -2,8 0,3 2,6 4,9 3,2 7,3 14,3l-2 6 -62 0 2 -6c7,0 14,-2 20,-7 6,-5 14,-15 26,-31l124 -170 6 0zm-31 51l-60 83 52 0 8 -83z"/>
  <path id="1" class="fil1" d="M3845 1882l17 -174c1,-9 2,-15 2,-18 0,-5 -2,-9 -6,-12 -3,-3 -8,-4 -16,-4l-5 0 1 -6 83 0 -2 6c-9,0 -15,1 -18,2 -4,2 -6,5 -8,10 -1,2 -3,8 -4,19l-12 125 82 -112c9,-12 14,-20 17,-25 1,-3 2,-6 2,-8 0,-3 -1,-6 -4,-8 -2,-2 -6,-3 -13,-3l2 -6 63 0 -2 6c-5,0 -9,1 -12,3 -6,2 -11,6 -17,12 -5,5 -14,16 -26,33l-118 160 -6 0z"/>
  <path id="2" class="fil1" d="M4072 1948l-78 0 0 -4c40,-35 66,-62 79,-82 6,-9 8,-19 8,-29 0,-8 -2,-14 -7,-20 -5,-5 -11,-7 -19,-7 -11,0 -20,5 -27,16l-4 -2c4,-10 10,-18 17,-24 8,-5 16,-8 25,-8 10,0 18,4 25,10 7,7 10,15 10,25 0,7 -1,13 -3,19 -4,9 -11,19 -21,30 -15,17 -35,37 -60,59l39 0c6,0 12,-1 16,-4 4,-2 7,-6 9,-10l4 0 -13 31z"/>
  <polygon id="3" class="fil1" points="4179,1889 4174,1904 4115,1904 4119,1889 "/>
  <path id="4" class="fil1" d="M4248 1791l53 0 -6 19 -47 0 -9 20c13,2 23,5 30,11 10,9 16,22 16,38 0,11 -2,20 -6,29 -4,9 -9,16 -15,22 -6,6 -12,10 -18,14 -9,4 -18,7 -27,7 -8,0 -14,-2 -19,-5 -3,-3 -4,-6 -4,-9 0,-3 1,-5 3,-7 2,-2 4,-3 7,-3 4,0 9,2 14,6 3,3 5,4 7,5 2,1 4,1 6,1 9,0 17,-4 24,-13 7,-9 11,-20 11,-34 0,-9 -2,-18 -6,-24 -4,-7 -9,-12 -15,-15 -6,-2 -14,-4 -24,-5l25 -57z"/>
  <polygon class="fil1" points="4388,1659 4388,1582 4311,1582 4311,1569 4388,1569 4388,1492 4401,1492 4401,1569 4478,1569 4478,1582 4401,1582 4401,1659 "/>
  <polygon class="fil1" points="4355,1045 4434,1045 4434,1068 4355,1068 "/>
  <g>
   <path class="fil1" d="M3191 2191l0 -3 1 -3 0 -3 1 -3 0 -3 1 -2 1 -3 1 -3 1 -2 1 -3 2 -2 1 -3 2 -2 2 -2 2 -2 2 -2 2 -2 2 -2 2 -2 2 -1 3 -2 2 -1 3 -2 2 -1 3 -1 3 -1 2 -1 3 0 3 -1 3 0 3 0 3 -1 0 0 3 1 3 0 3 0 3 1 3 0 2 1 3 1 3 1 2 1 3 2 2 1 3 2 2 1 2 2 2 2 2 2 2 2 2 2 2 2 2 2 1 3 2 2 1 3 1 2 1 3 1 3 1 2 0 3 1 3 0 3 1 3 0 3 0 0 0 3 -1 3 0 3 -1 3 0 3 -1 2 -1 3 -1 3 -1 2 -1 3 -2 2 -1 3 -2 2 -2 2 -2 2 -2 3 -2 1 -2 2 -2 2 -2 2 -3 1 -2 2 -3 1 -2 1 -3 1 -3 1 -2 1 -3 1 -3 0 -3 0 -3 1 -3 0 0 0 -3 0 -3 -1 -3 0 -3 0 -3 -1 -2 -1 -3 -1 -3 -1 -2 -1 -3 -1 -2 -2 -3 -1 -2 -2 -2 -2 -2 -2 -2 -1 -2 -3 -2 -2 -2 -2 -2 -2 -1 -3 -2 -2 -1 -3 -1 -2 -1 -3 -1 -3 -1 -2 0 -3 -1 -3 0 -3 -1 -3 0 -3 0 0zm65 -746l0 746 -12 0 0 -746 12 0z"/>
  </g>
  <g>
   <path class="fil1" d="M3256 498l0 746 -12 0 0 -746 12 0zm-65 0l0 0 0 -3 1 -3 0 -3 1 -3 0 -2 1 -3 1 -3 1 -3 1 -2 1 -3 2 -2 1 -3 2 -2 2 -2 2 -2 2 -2 2 -2 2 -2 2 -2 2 -1 3 -2 2 -1 3 -2 2 -1 3 -1 3 -1 2 -1 3 0 3 -1 3 0 3 0 3 -1 0 0 3 1 3 0 3 0 3 1 3 0 2 1 3 1 3 1 2 1 3 2 2 1 3 2 2 1 2 2 2 2 2 2 2 2 2 2 2 2 2 2 1 3 2 2 1 3 1 2 1 3 1 3 1 3 0 2 1 3 0 3 1 3 0 3 0 0 0 3 -1 3 0 3 -1 3 0 3 -1 3 -1 2 -1 3 -1 2 -1 3 -2 2 -1 3 -2 2 -2 2 -2 2 -2 3 -2 1 -2 2 -2 2 -2 2 -3 1 -2 2 -3 1 -2 1 -3 1 -3 1 -2 1 -3 1 -3 0 -3 0 -3 1 -3 0 0 0 -3 0 -3 -1 -3 0 -3 0 -3 -1 -2 -1 -3 -1 -3 -1 -2 -1 -3 -1 -2 -2 -3 -1 -2 -2 -2 -2 -2 -2 -2 -1 -2 -3 -2 -2 -2 -2 -2 -2 -1 -3 -2 -2 -1 -3 -1 -2 -1 -3 -1 -2 -1 -3 0 -3 -1 -3 0 -3 -1 -3 0 -3z"/>
  </g>
  <line class="fil0 str3" x1="2685" y1="2191" x2="5435" y2= "2191" />
  <g>
   <path class="fil1" d="M3693 2191l0 631 -11 0 0 -631 11 0zm-64 0l0 0 0 -3 0 -3 0 -3 1 -3 1 -3 0 -2 1 -3 1 -3 2 -2 1 -3 1 -2 2 -3 1 -2 2 -2 2 -2 2 -2 2 -2 2 -2 2 -2 3 -1 2 -2 2 -1 3 -2 3 -1 2 -1 3 -1 3 -1 3 0 2 -1 3 0 3 0 3 -1 0 0 3 1 3 0 3 0 3 1 3 0 3 1 3 1 2 1 3 1 2 2 3 1 2 2 2 1 3 2 2 2 2 2 2 2 2 2 1 2 2 2 1 3 2 2 1 3 1 2 1 3 1 3 1 2 1 3 0 3 1 3 0 3 0 3 0 0 0 3 0 3 -1 3 0 3 -1 3 -1 2 -1 3 -1 3 -1 2 -1 3 -2 2 -1 3 -2 2 -1 2 -2 2 -2 3 -2 1 -2 2 -3 2 -2 2 -2 1 -3 2 -2 1 -3 1 -2 1 -3 1 -3 1 -3 1 -3 0 -3 0 -3 1 -3 0 0 0 -3 0 -3 -1 -3 0 -2 0 -3 -1 -3 -1 -3 -1 -2 -1 -3 -1 -3 -1 -2 -2 -2 -1 -3 -2 -2 -2 -2 -2 -2 -1 -2 -3 -2 -2 -2 -2 -1 -2 -2 -3 -1 -2 -1 -3 -2 -2 -1 -3 -1 -3 0 -2 -1 -3 -1 -3 0 -3 0 -3 0 -3z"/>
  </g>
  <g>
   <path class="fil1" d="M2345 2816l450 0 0 11 -450 0 0 -11zm0 -79l10 0 0 169 -20 0 0 -169 10 0z"/>
  </g>
  <path class="fil1" d="M4305 2489l37 -4c2,9 5,16 10,21 5,5 11,7 18,7 8,0 15,-3 20,-9 6,-7 9,-17 9,-30 0,-12 -3,-21 -8,-27 -6,-6 -13,-9 -22,-9 -11,0 -20,4 -29,14l-31 -4 20 -103 100 0 0 35 -72 0 -6 34c9,-4 17,-6 26,-6 17,0 31,6 43,18 12,12 18,28 18,48 0,16 -5,31 -15,43 -12,18 -30,27 -53,27 -18,0 -33,-5 -45,-15 -11,-10 -18,-23 -20,-40z"/>
  <g>
   <path class="fil1" d="M5922 531l0 1665 -11 0 0 -1665 11 0zm-5 -70l59 139 -3 -2 -4 -1 -4 -2 -4 -2 -3 -1 -4 -1 -4 -1 -3 -1 -4 -1 -4 -1 -4 0 -3 -1 -4 0 -4 -1 -4 0 -3 0 -4 0 -4 0 -3 1 -4 0 -4 1 -4 0 -3 1 -4 1 -4 1 -4 1 -3 1 -4 1 -4 2 -3 2 -4 1 -4 2 0 0 60 -139z"/>
  </g>
 </g>
</svg>
