<?xml version="1.0" encoding="UTF-8"?>
<!DOCTYPE svg PUBLIC "-//W3C//DTD SVG 1.1//EN" "http://www.w3.org/Graphics/SVG/1.1/DTD/svg11.dtd">
<!-- Creator: CorelDRAW Home & Student X8 -->
<svg xmlns="http://www.w3.org/2000/svg" xml:space="preserve" width="151.7mm" height="78.1561mm" version="1.1" style="shape-rendering:geometricPrecision; text-rendering:geometricPrecision; image-rendering:optimizeQuality; fill-rule:evenodd; clip-rule:evenodd"
viewBox="0 0 15170 7816"
 xmlns:xlink="http://www.w3.org/1999/xlink">
 <defs>
  <style type="text/css">
   <![CDATA[
    .str2 {stroke:#2B2A29;stroke-width:69.9899}
    .str1 {stroke:black;stroke-width:69.9999}
    .str0 {stroke:black;stroke-width:30}
    .fil0 {fill:none}
    .fil1 {fill:black}
    .fil2 {fill:#2B2A29;fill-rule:nonzero}
    .fil3 {fill:red;fill-rule:nonzero}
   ]]>
  </style>
 </defs>
 <g id="Warstwa_x0020_1">
  <metadata id="CorelCorpID_0Corel-Layer"/>
  <line class="fil0 str0" x1="6535" y1="1281" x2="7035" y2= "1281" />
  <line class="fil0 str0" x1="8035" y1="1281" x2="8535" y2= "1281" />
  <polygon class="fil0 str1" points="7035,1531 7035,1031 8035,1031 8035,1531 "/>
  <line class="fil0 str0" x1="5535" y1="1281" x2="5535" y2= "1781" />
  <line class="fil0 str0" x1="5535" y1="2781" x2="5535" y2= "3281" />
  <line class="fil0 str0" x1="9535" y1="1281" x2="9535" y2= "1781" />
  <line class="fil0 str0" x1="9535" y1="2781" x2="9535" y2= "3281" />
  <line class="fil0 str0" x1="5535" y1="5281" x2="5535" y2= "5781" />
  <line class="fil0 str0" x1="5535" y1="6781" x2="5535" y2= "7281" />
  <line class="fil0 str0" x1="9535" y1="5281" x2="9535" y2= "5781" />
  <line class="fil0 str0" x1="9535" y1="6781" x2="9535" y2= "7281" />
  <line class="fil0 str0" x1="2535" y1="1281" x2="2535" y2= "1781" />
  <line class="fil0 str0" x1="2535" y1="2781" x2="2535" y2= "3281" />
  <line class="fil0 str0" x1="535" y1="1281" x2="535" y2= "1781" />
  <line class="fil0 str0" x1="535" y1="2781" x2="535" y2= "3281" />
  <line class="fil0 str0" x1="12635" y1="1281" x2="12635" y2= "1781" />
  <line class="fil0 str0" x1="12635" y1="2781" x2="12635" y2= "3281" />
  <line class="fil0 str0" x1="14635" y1="1281" x2="14635" y2= "1781" />
  <line class="fil0 str0" x1="14635" y1="2781" x2="14635" y2= "3281" />
  <line class="fil0 str0" x1="5535" y1="7281" x2="5535" y2= "7781" />
  <line class="fil0 str1" x1="5285" y1="7781" x2="5785" y2= "7781" />
  <line class="fil0 str0" x1="9535" y1="7281" x2="9535" y2= "7781" />
  <line class="fil0 str1" x1="9285" y1="7781" x2="9785" y2= "7781" />
  <line class="fil0 str0" x1="2535" y1="3281" x2="2535" y2= "3781" />
  <line class="fil0 str1" x1="2285" y1="3781" x2="2785" y2= "3781" />
  <line class="fil0 str0" x1="535" y1="3281" x2="535" y2= "3781" />
  <line class="fil0 str1" x1="285" y1="3781" x2="785" y2= "3781" />
  <line class="fil0 str0" x1="12635" y1="3281" x2="12635" y2= "3781" />
  <line class="fil0 str1" x1="12385" y1="3781" x2="12885" y2= "3781" />
  <line class="fil0 str0" x1="14635" y1="3281" x2="14635" y2= "3781" />
  <line class="fil0 str1" x1="14385" y1="3781" x2="14885" y2= "3781" />
  <line class="fil0 str0" x1="6535" y1="1281" x2="6535" y2= "1281" />
  <polyline class="fil0 str0" points="6535,1281 6535,1281 5535,1281 5535,1281 5535,1281 "/>
  <polyline class="fil0 str0" points="6535,1281 6535,1281 2535,1281 2535,1281 2535,1281 "/>
  <polyline class="fil0 str0" points="6535,1281 6535,1281 535,1281 535,1281 535,1281 "/>
  <path class="fil1 str0" d="M2635 1281c0,-55 -45,-100 -100,-100 -55,0 -100,45 -100,100 0,55 45,100 100,100 55,0 100,-45 100,-100z"/>
  <path class="fil1 str0" d="M5635 1281c0,-55 -45,-100 -100,-100 -55,0 -100,45 -100,100 0,55 45,100 100,100 55,0 100,-45 100,-100z"/>
  <line class="fil0 str0" x1="8535" y1="1281" x2="8535" y2= "1281" />
  <polyline class="fil0 str0" points="8535,1281 8535,1281 9535,1281 9535,1281 9535,1281 "/>
  <polyline class="fil0 str0" points="8535,1281 8535,1281 12635,1281 12635,1281 12635,1281 "/>
  <polyline class="fil0 str0" points="8535,1281 8535,1281 14635,1281 14635,1281 14635,1281 "/>
  <path class="fil1 str0" d="M12735 1281c0,-55 -45,-100 -100,-100 -55,0 -100,45 -100,100 0,55 45,100 100,100 55,0 100,-45 100,-100z"/>
  <path class="fil1 str0" d="M9635 1281c0,-55 -45,-100 -100,-100 -55,0 -100,45 -100,100 0,55 45,100 100,100 55,0 100,-45 100,-100z"/>
  <line class="fil0 str0" x1="5535" y1="3281" x2="5535" y2= "3281" />
  <polyline class="fil0 str0" points="5535,3281 5535,5281 5535,5281 5535,5281 5535,5281 "/>
  <line class="fil0 str0" x1="9535" y1="3281" x2="9535" y2= "3281" />
  <polyline class="fil0 str0" points="9535,3281 9535,5281 9535,5281 9535,5281 9535,5281 "/>
  <g id="_528615224">
   <circle class="fil0 str2" transform="matrix(0 1 -1 0 2535 2280.62)" r="500"/>
   <g>
    <path class="fil2" d="M2560 2138l0 461 -50 0 0 -461 50 0zm-25 -176l150 350 -9 -5 -10 -4 -9 -4 -10 -4 -9 -3 -9 -3 -10 -3 -9 -2 -9 -3 -10 -1 -9 -2 -10 -1 -9 -1 -9 -1 -10 -1 -9 0 -9 0 -10 1 -9 1 -10 1 -9 1 -9 2 -10 1 -9 3 -9 2 -10 3 -9 3 -10 3 -9 4 -9 4 -10 4 -9 5 0 0 150 -350z"/>
   </g>
  </g>
  <g>
   <circle class="fil0 str2" transform="matrix(0 1 -1 0 534.999 2280.62)" r="500"/>
   <g>
    <path class="fil2" d="M560 2138l0 461 -50 0 0 -461 50 0zm-25 -176l150 350 -9 -5 -10 -4 -9 -4 -10 -4 -9 -3 -9 -3 -10 -3 -9 -2 -9 -3 -10 -1 -9 -2 -10 -1 -9 -1 -9 -1 -10 -1 -9 0 -9 0 -10 1 -9 1 -10 1 -9 1 -9 2 -10 1 -9 3 -9 2 -10 3 -9 3 -10 3 -9 4 -9 4 -10 4 -9 5 0 0 150 -350z"/>
   </g>
  </g>
  <g>
   <circle class="fil0 str2" transform="matrix(-5.29691E-14 -1 1 -5.29691E-14 12635 2280.62)" r="500"/>
   <g>
    <path class="fil2" d="M12610 2424l0 -462 50 0 0 462 -50 0zm25 175l-150 -350 9 5 10 4 9 4 9 4 10 3 9 3 10 3 9 3 9 2 10 2 9 1 9 2 10 1 9 0 10 1 9 0 9 0 10 -1 9 0 9 -1 10 -2 9 -1 10 -2 9 -2 9 -3 10 -3 9 -3 9 -3 10 -4 9 -4 10 -4 9 -5 0 0 -150 350z"/>
   </g>
  </g>
  <g>
   <circle class="fil0 str2" transform="matrix(-5.29691E-14 -1 1 -5.29691E-14 14635 2280.62)" r="500"/>
   <g>
    <path class="fil2" d="M14610 2424l0 -462 50 0 0 462 -50 0zm25 175l-150 -350 9 5 10 4 9 4 9 4 10 3 9 3 10 3 9 3 9 2 10 2 9 1 9 2 10 1 9 0 10 1 9 0 9 0 10 -1 9 0 9 -1 10 -2 9 -1 10 -2 9 -2 9 -3 10 -3 9 -3 9 -3 10 -4 9 -4 10 -4 9 -5 0 0 -150 350z"/>
   </g>
  </g>
  <polyline class="fil0 str2" points="5532,6781 5345,6718 5725,6593 5345,6468 5725,6343 5345,6218 5725,6093 5345,5968 5725,5843 5532,5781 "/>
  <polyline class="fil0 str2" points="9532,6781 9345,6718 9725,6593 9345,6468 9725,6343 9345,6218 9725,6093 9345,5968 9725,5843 9532,5781 "/>
  <polyline class="fil0 str2" points="5532,2781 5345,2718 5725,2593 5345,2468 5725,2343 5345,2218 5725,2093 5345,1968 5725,1843 5532,1781 "/>
  <polyline class="fil0 str2" points="9532,2781 9345,2718 9725,2593 9345,2468 9725,2343 9345,2218 9725,2093 9345,1968 9725,1843 9532,1781 "/>
  <path class="fil2" d="M3264 2426l-2 8 -114 0 3 -8c11,0 19,-1 23,-3 6,-2 10,-5 13,-10 5,-6 10,-18 14,-34l49 -170c4,-14 6,-25 6,-32 0,-3 -1,-6 -2,-9 -2,-2 -5,-4 -9,-5 -3,-2 -10,-2 -21,-2l2 -8 108 0 -3 8c-9,-1 -15,0 -19,3 -7,3 -11,7 -15,13 -3,5 -7,18 -12,37l-49 169c-4,14 -6,23 -6,27 0,3 0,6 2,8 2,2 5,4 8,5 4,1 12,2 24,3z"/>
  <path id="1" class="fil2" d="M3326 2397l87 0 0 3 -95 100 41 0c9,0 15,-1 18,-1 2,-1 5,-3 7,-5 2,-2 5,-7 7,-13l5 0 -12 37 -90 0 0 -4 96 -99 -40 0c-8,0 -14,0 -15,0 -3,1 -5,2 -8,5 -3,2 -5,6 -8,11l-5 0 12 -34z"/>
  <path class="fil2" d="M11856 2390l-2 8 -114 0 3 -8c12,0 19,-1 23,-3 6,-2 11,-5 14,-10 4,-6 9,-18 14,-34l48 -170c4,-14 6,-25 6,-32 0,-3 0,-6 -2,-9 -2,-2 -5,-4 -8,-5 -4,-2 -11,-2 -22,-2l3 -8 107 0 -3 8c-8,-1 -15,0 -19,3 -6,3 -11,7 -14,13 -4,5 -8,18 -13,37l-49 169c-4,14 -6,23 -6,27 0,3 1,6 2,8 2,2 5,4 9,5 3,1 11,2 23,3z"/>
  <path id="1" class="fil2" d="M11918 2361l88 0 0 3 -96 100 41 0c9,0 16,-1 18,-1 3,-1 5,-3 7,-5 2,-2 5,-7 7,-13l5 0 -12 37 -89 0 0 -4 95 -99 -40 0c-8,0 -13,0 -15,0 -3,1 -5,2 -8,5 -2,2 -5,6 -8,11l-5 0 12 -34z"/>
  <path class="fil2" d="M1095 2423l125 -287 7 0 119 287 -251 0zm202 -18l-84 -206 -91 206 175 0z"/>
  <path id="1" class="fil2" d="M1460 2415l-2 8 -114 0 3 -8c11,0 19,-1 23,-2 6,-3 10,-6 13,-10 4,-7 9,-18 14,-35l49 -169c4,-14 6,-25 6,-32 0,-4 -1,-7 -3,-9 -2,-3 -4,-5 -8,-6 -4,-1 -11,-2 -21,-2l2 -8 107 0 -2 8c-9,0 -15,1 -20,3 -6,3 -11,8 -14,13 -3,6 -7,18 -12,37l-49 169c-4,15 -7,24 -7,27 0,4 1,6 3,9 2,2 4,3 8,5 4,1 12,2 24,2z"/>
  <path id="2" class="fil2" d="M1521 2386l88 0 0 4 -95 99 40 0c10,0 16,0 19,-1 2,-1 4,-2 7,-5 2,-2 4,-6 7,-12l5 0 -12 37 -90 0 0 -4 95 -100 -39 0c-9,0 -14,0 -16,1 -2,0 -5,2 -7,4 -3,3 -5,6 -8,12l-5 0 11 -35z"/>
  <polygon class="fil2" points="13403,2312 13510,2312 13510,2344 13403,2344 "/>
  <path id="1" class="fil2" d="M13537 2423l126 -287 7 0 118 287 -251 0zm202 -18l-84 -206 -90 206 174 0z"/>
  <path id="2" class="fil2" d="M13902 2415l-2 8 -114 0 3 -8c11,0 19,-1 23,-2 6,-3 10,-6 13,-10 5,-7 9,-18 14,-35l49 -169c4,-14 6,-25 6,-32 0,-4 -1,-7 -3,-9 -1,-3 -4,-5 -8,-6 -3,-1 -11,-2 -21,-2l2 -8 107 0 -2 8c-9,0 -15,1 -20,3 -6,3 -11,8 -14,13 -3,6 -7,18 -12,37l-49 169c-4,15 -7,24 -7,27 0,4 1,6 3,9 2,2 4,3 8,5 4,1 12,2 24,2z"/>
  <path id="3" class="fil2" d="M13964 2386l87 0 0 4 -95 99 40 0c10,0 16,0 19,-1 2,-1 5,-2 7,-5 2,-2 4,-6 7,-12l5 0 -12 37 -90 0 0 -4 95 -100 -39 0c-9,0 -14,0 -16,1 -2,0 -5,2 -7,4 -3,3 -5,6 -8,12l-5 0 12 -35z"/>
  <path class="fil2" d="M7660 598l-184 264 115 0c17,0 31,-4 40,-12 10,-8 18,-23 25,-47l7 1 -13 75 -228 0 0 -8 180 -256 -90 0c-15,0 -26,2 -33,5 -6,3 -11,8 -15,14 -3,6 -7,17 -9,34l-8 0 6 -70 207 0z"/>
  <path id="1" class="fil2" d="M7716 767c4,0 7,2 10,4 3,3 4,6 4,10 0,4 -1,7 -4,10 -3,3 -6,4 -10,4 -4,0 -7,-1 -10,-4 -3,-3 -4,-6 -4,-10 0,-4 1,-7 4,-10 3,-2 6,-4 10,-4zm11 66l0 102c0,8 1,13 2,15 1,3 3,5 5,6 2,2 7,2 13,2l0 5 -62 0 0 -5c6,0 11,0 13,-2 2,-1 3,-3 5,-5 1,-3 1,-8 1,-16l0 -49c0,-14 0,-22 -1,-26 0,-3 -1,-5 -3,-7 -1,-1 -3,-1 -5,-1 -3,0 -6,0 -10,2l-2 -5 38 -16 6 0z"/>
  <path class="fil2" d="M4892 6374l-76 0 -95 -132c-7,1 -12,1 -17,1 -1,0 -3,0 -5,0 -2,0 -4,0 -7,-1l0 82c0,18 2,29 6,33 5,6 13,9 24,9l11 0 0 8 -121 0 0 -8 11 0c12,0 20,-4 25,-11 3,-5 5,-15 5,-31l0 -181c0,-18 -2,-29 -6,-33 -5,-6 -13,-9 -24,-9l-11 0 0 -8 103 0c29,0 51,2 65,7 15,4 27,12 36,24 10,11 15,25 15,41 0,18 -5,33 -17,45 -11,13 -28,22 -52,27l58 81c13,18 25,30 34,36 10,7 22,10 38,12l0 8zm-200 -145c3,0 5,0 7,0 2,0 4,1 5,1 26,0 46,-6 60,-18 13,-11 20,-26 20,-44 0,-18 -6,-32 -16,-43 -11,-11 -26,-16 -43,-16 -8,0 -19,1 -33,4l0 116z"/>
  <path id="1" class="fil2" d="M4934 6355c9,-9 15,-14 16,-16 4,-3 9,-6 14,-8 4,-2 9,-3 14,-3 8,0 14,3 20,7 6,5 9,11 11,20 10,-11 18,-18 24,-22 7,-3 14,-5 21,-5 6,0 12,2 17,5 6,4 10,10 13,17 2,6 3,14 3,25l0 55c0,8 0,13 2,16 0,2 2,4 5,5 2,2 6,2 11,2l0 5 -61 0 0 -5 2 0c6,0 10,-1 13,-3 2,-1 4,-4 4,-7 1,-1 1,-6 1,-13l0 -54c0,-11 -1,-18 -4,-22 -3,-6 -9,-9 -17,-9 -5,0 -10,1 -15,4 -5,2 -11,7 -18,13l0 2 1 6 0 60c0,8 0,14 1,16 1,2 3,4 5,5 3,2 8,2 14,2l0 5 -64 0 0 -5c7,0 12,-1 15,-2 2,-2 4,-4 5,-8 1,-1 1,-6 1,-13l0 -54c0,-11 -2,-18 -5,-23 -4,-6 -9,-9 -17,-9 -5,0 -9,2 -14,4 -8,4 -14,9 -18,14l0 68c0,8 1,13 2,16 1,2 3,4 5,5 2,2 7,2 13,2l0 5 -62 0 0 -5c6,0 10,0 12,-2 3,-1 4,-3 6,-5 1,-3 1,-8 1,-16l0 -48c0,-14 0,-23 -1,-27 -1,-3 -2,-5 -3,-6 -1,-2 -3,-2 -6,-2 -2,0 -5,1 -9,2l-2 -5 38 -16 6 0 0 27z"/>
  <path class="fil2" d="M10253 6374l-76 0 -95 -132c-7,1 -12,1 -17,1 -1,0 -3,0 -5,0 -2,0 -4,0 -7,-1l0 82c0,18 2,29 6,33 5,6 13,9 24,9l11 0 0 8 -121 0 0 -8 11 0c12,0 20,-4 25,-11 3,-5 5,-15 5,-31l0 -181c0,-18 -2,-29 -6,-33 -5,-6 -13,-9 -24,-9l-11 0 0 -8 103 0c29,0 51,2 66,7 14,4 26,12 36,24 9,11 14,25 14,41 0,18 -5,33 -17,45 -11,13 -28,22 -52,27l58 81c14,18 25,30 34,36 10,7 22,10 38,12l0 8zm-200 -145c3,0 5,0 7,0 2,0 4,1 5,1 26,0 46,-6 60,-18 13,-11 20,-26 20,-44 0,-18 -6,-32 -16,-43 -11,-11 -26,-16 -43,-16 -8,0 -19,1 -33,4l0 116z"/>
  <path id="1" class="fil2" d="M10295 6355c9,-9 15,-14 16,-16 4,-3 9,-6 14,-8 4,-2 9,-3 14,-3 8,0 14,3 20,7 6,5 10,11 11,20 10,-11 18,-18 24,-22 7,-3 14,-5 21,-5 6,0 12,2 17,5 6,4 10,10 13,17 2,6 3,14 3,25l0 55c0,8 0,13 2,16 1,2 2,4 5,5 2,2 6,2 11,2l0 5 -61 0 0 -5 2 0c6,0 10,-1 13,-3 2,-1 4,-4 4,-7 1,-1 1,-6 1,-13l0 -54c0,-11 -1,-18 -4,-22 -3,-6 -9,-9 -17,-9 -5,0 -10,1 -15,4 -5,2 -11,7 -18,13l0 2 1 6 0 60c0,8 0,14 1,16 1,2 3,4 5,5 3,2 8,2 14,2l0 5 -64 0 0 -5c7,0 12,-1 15,-2 2,-2 4,-4 5,-8 1,-1 1,-6 1,-13l0 -54c0,-11 -2,-18 -5,-23 -4,-6 -9,-9 -17,-9 -5,0 -9,2 -14,4 -8,4 -14,9 -18,14l0 68c0,8 1,13 2,16 1,2 3,4 5,5 2,2 7,2 14,2l0 5 -63 0 0 -5c6,0 10,0 12,-2 3,-1 4,-3 6,-5 1,-3 1,-8 1,-16l0 -48c0,-14 0,-23 -1,-27 -1,-3 -2,-5 -3,-6 -1,-2 -3,-2 -6,-2 -2,0 -5,1 -9,2l-2 -5 38 -16 6 0 0 27z"/>
  <path class="fil2" d="M4343 2532l126 -287 7 0 119 287 -252 0zm202 -18l-84 -206 -90 206 174 0z"/>
  <path id="1" class="fil2" d="M4892 2532l-76 0 -95 -132c-7,1 -12,1 -17,1 -1,0 -3,0 -5,0 -2,0 -4,0 -7,-1l0 82c0,18 2,29 6,33 5,6 13,9 24,9l11 0 0 8 -121 0 0 -8 11 0c12,0 20,-4 25,-12 3,-4 5,-14 5,-30l0 -182c0,-17 -2,-28 -6,-32 -5,-6 -13,-9 -24,-9l-11 0 0 -8 103 0c29,0 51,2 65,6 15,5 27,13 36,24 10,12 15,26 15,42 0,17 -5,32 -17,45 -11,13 -28,22 -52,27l58 80c13,19 25,31 34,37 10,6 22,10 38,12l0 8zm-200 -145c3,0 5,0 7,0 2,0 4,0 5,0 26,0 46,-5 60,-17 13,-12 20,-26 20,-44 0,-18 -6,-32 -16,-43 -11,-11 -26,-16 -43,-16 -8,0 -19,1 -33,3l0 117z"/>
  <path id="2" class="fil2" d="M4934 2513c9,-9 15,-14 16,-16 4,-3 9,-6 14,-8 4,-2 9,-3 14,-3 8,0 14,2 20,7 6,5 9,11 11,20 10,-11 18,-18 24,-22 7,-3 14,-5 21,-5 6,0 12,2 17,5 6,4 10,9 13,17 2,6 3,14 3,25l0 55c0,8 0,13 2,16 0,2 2,4 5,5 2,1 6,2 11,2l0 5 -61 0 0 -5 2 0c6,0 10,-1 13,-3 2,-1 4,-4 4,-7 1,-2 1,-6 1,-13l0 -55c0,-10 -1,-17 -4,-21 -3,-6 -9,-9 -17,-9 -5,0 -10,1 -15,4 -5,2 -11,6 -18,13l0 2 1 6 0 60c0,8 0,14 1,16 1,2 3,4 5,5 3,1 8,2 14,2l0 5 -64 0 0 -5c7,0 12,-1 15,-2 2,-2 4,-4 5,-8 1,-1 1,-6 1,-13l0 -55c0,-10 -2,-17 -5,-22 -4,-6 -9,-9 -17,-9 -5,0 -9,2 -14,4 -8,4 -14,9 -18,14l0 68c0,8 1,13 2,16 1,2 3,4 5,5 2,2 7,2 13,2l0 5 -62 0 0 -5c6,0 10,0 12,-2 3,-1 4,-3 6,-6 1,-2 1,-7 1,-15l0 -48c0,-14 0,-23 -1,-27 -1,-3 -2,-5 -3,-7 -1,-1 -3,-1 -6,-1 -2,0 -5,0 -9,2l-2 -5 38 -16 6 0 0 27z"/>
  <polygon class="fil2" points="9984,2443 10091,2443 10091,2474 9984,2474 "/>
  <path id="1" class="fil2" d="M10666 2554l-75 0 -96 -131c-7,0 -12,0 -16,0 -2,0 -4,0 -6,0 -2,0 -4,0 -6,0l0 81c0,18 2,29 5,33 6,6 13,9 24,9l11 0 0 8 -120 0 0 -8 10 0c12,0 20,-4 26,-11 2,-4 4,-15 4,-31l0 -181c0,-18 -2,-29 -6,-33 -5,-6 -13,-9 -24,-9l-10 0 0 -8 102 0c30,0 52,2 66,7 14,4 26,12 36,24 10,11 14,25 14,42 0,17 -5,32 -16,44 -12,13 -29,22 -53,27l58 81c14,18 25,31 35,37 9,6 21,10 37,11l0 8zm-199 -144c2,0 5,0 6,0 2,0 4,0 5,0 27,0 46,-6 60,-18 13,-11 20,-26 20,-44 0,-17 -5,-32 -16,-43 -11,-11 -25,-16 -43,-16 -8,0 -19,1 -32,4l0 117z"/>
  <path id="2" class="fil2" d="M10117 2554l126 -287 7 0 119 287 -252 0zm202 -18l-84 -206 -90 206 174 0z"/>
  <path id="3" class="fil2" d="M10708 2536c9,-10 15,-15 17,-16 4,-4 8,-7 13,-9 5,-1 9,-2 14,-2 8,0 15,2 20,6 6,5 10,12 12,21 9,-12 17,-19 24,-22 6,-4 13,-5 20,-5 6,0 12,1 18,5 5,3 9,9 12,17 2,5 3,13 3,25l0 54c0,8 1,13 2,16 1,2 2,4 5,5 2,2 6,3 12,3l0 5 -62 0 0 -5 2 0c6,0 10,-1 13,-4 2,-1 4,-3 5,-7 0,-1 0,-6 0,-13l0 -54c0,-10 -1,-18 -4,-22 -3,-6 -9,-9 -17,-9 -5,0 -10,1 -15,4 -4,2 -10,7 -17,13l-1 2 1 6 0 60c0,9 0,14 1,16 1,2 3,4 6,5 2,2 7,3 13,3l0 5 -63 0 0 -5c7,0 11,-1 14,-3 3,-2 4,-4 5,-7 1,-2 1,-6 1,-14l0 -54c0,-10 -2,-18 -5,-22 -4,-6 -9,-9 -16,-9 -5,0 -10,1 -15,4 -8,4 -14,8 -18,13l0 68c0,8 1,14 2,16 1,3 3,4 5,6 2,1 7,2 14,2l0 5 -63 0 0 -5c6,0 10,-1 12,-2 3,-2 4,-3 6,-6 1,-3 2,-8 2,-16l0 -48c0,-14 -1,-23 -2,-27 0,-3 -1,-5 -3,-6 -1,-1 -3,-2 -5,-2 -3,0 -6,1 -10,2l-2 -5 38 -15 6 0 0 27z"/>
  <g>
   <path class="fil2" d="M6194 720l196 -187 0 0 -1 8 0 7 -1 7 0 7 0 7 1 7 0 7 1 7 0 7 2 7 1 6 1 7 2 6 2 7 2 6 2 6 2 7 3 6 3 6 3 6 3 6 3 6 4 5 4 6 4 6 4 5 4 6 5 5 5 6 5 5 5 5 5 5 -270 -13zm2670 -57l-13 27 -70 -34 -71 -32 -71 -29 -72 -27 -73 -25 -73 -22 -73 -20 -75 -18 -75 -16 -75 -13 -76 -11 -77 -9 -77 -7 -78 -5 -79 -3 -79 0 -79 2 -81 3 -80 6 -82 8 -82 10 -82 12 -83 14 -84 16 -84 18 -84 21 -86 22 -85 24 -87 26 -87 28 -87 30 -88 31 -10 -28 88 -32 88 -30 87 -28 87 -26 86 -24 86 -23 86 -20 84 -18 85 -16 83 -15 83 -12 83 -10 82 -8 82 -6 81 -3 80 -2 80 0 79 3 79 5 78 7 78 9 77 11 76 14 76 16 75 18 75 20 74 23 73 25 73 27 72 30 71 32 71 34z"/>
  </g>
  <path class="fil2" d="M7311 287l23 -234c1,-12 1,-19 1,-24 0,-6 -2,-11 -7,-15 -4,-4 -12,-6 -22,-6l-7 0 2 -8 111 0 -3 8c-12,0 -20,1 -24,3 -5,3 -8,7 -11,12 -1,4 -3,12 -4,27l-17 167 110 -149c12,-17 20,-28 23,-34 2,-5 3,-8 3,-12 0,-3 -2,-7 -5,-9 -3,-3 -9,-5 -18,-5l3 -8 84 0 -3 8c-6,0 -12,1 -16,4 -7,3 -15,9 -22,16 -8,7 -20,22 -36,44l-158 215 -7 0z"/>
  <path id="1" class="fil2" d="M7538 197l45 -22 5 0 0 157c0,11 0,17 1,20 1,3 3,5 6,6 2,1 8,2 17,2l0 5 -71 0 0 -5c9,0 15,-1 17,-2 3,-1 5,-3 6,-5 1,-3 1,-9 1,-21l0 -101c0,-13 0,-22 -1,-26 -1,-3 -2,-5 -4,-6 -2,-2 -4,-2 -6,-2 -3,0 -8,1 -14,4l-2 -4z"/>
  <polygon id="2" class="fil2" points="7658,291 7729,291 7729,312 7658,312 "/>
  <path id="3" class="fil2" d="M7869 329l-13 36 -110 0 0 -5c32,-29 55,-54 68,-72 14,-19 20,-36 20,-52 0,-11 -3,-21 -11,-29 -7,-7 -15,-11 -26,-11 -9,0 -17,2 -24,8 -8,5 -13,13 -17,23l-5 0c3,-17 9,-30 18,-39 10,-9 21,-13 36,-13 15,0 28,4 38,14 10,10 15,21 15,35 0,9 -2,19 -7,28 -6,15 -17,31 -33,47 -23,25 -37,40 -42,45l48 0c10,0 17,0 21,-1 4,-1 7,-2 11,-4 3,-3 6,-6 8,-10l5 0z"/>
  <g>
   <path class="fil2" d="M3995 2025l30 6 -34 170 -32 170 -30 171 -28 170 -26 171 -23 172 -22 172 -19 172 -17 172 -16 173 -12 173 -11 173 -8 174 -7 174 -4 174 -1 175 0 175 3 176 5 175 8 177 9 176 13 177 14 177 17 178 19 178 22 178 23 179 27 179 29 179 31 180 34 180 36 181 -30 6 -36 -181 -34 -180 -31 -181 -29 -180 -26 -179 -24 -179 -22 -179 -19 -178 -17 -178 -14 -178 -12 -177 -10 -177 -8 -177 -5 -176 -3 -176 0 -175 1 -175 4 -175 7 -174 8 -175 11 -173 13 -174 15 -173 17 -173 19 -172 22 -172 23 -172 26 -171 28 -171 30 -171 32 -171 34 -170zm40 -119l54 265 -5 -4 -6 -5 -6 -4 -6 -4 -6 -3 -6 -4 -7 -3 -6 -3 -6 -3 -6 -3 -6 -2 -7 -3 -6 -2 -7 -1 -6 -2 -7 -2 -6 -1 -7 -1 -6 -1 -7 0 -7 -1 -7 0 -6 0 -7 0 -7 1 -7 0 -7 1 -7 1 -7 1 -7 2 -7 1 -7 2 0 0 154 -222z"/>
  </g>
  <path class="fil2" d="M3285 4936l23 -234c1,-12 1,-19 1,-24 0,-6 -2,-11 -7,-15 -4,-4 -12,-6 -22,-6l-7 0 2 -8 111 0 -3 8c-12,0 -20,1 -24,3 -5,3 -8,7 -11,12 -1,4 -3,12 -4,27l-17 167 110 -149c12,-17 20,-28 23,-34 2,-5 3,-8 3,-12 0,-3 -2,-7 -5,-9 -3,-3 -9,-5 -18,-5l3 -8 84 0 -2 8c-7,0 -13,1 -17,4 -7,3 -15,9 -22,16 -8,7 -20,22 -36,44l-158 215 -7 0z"/>
  <path id="1" class="fil2" d="M3512 4846l45 -22 5 0 0 157c0,11 0,17 1,20 1,3 3,5 6,6 3,1 8,2 17,2l0 5 -71 0 0 -5c9,0 15,-1 17,-2 3,-1 5,-3 6,-5 1,-3 1,-9 1,-21l0 -101c0,-13 0,-22 -1,-26 -1,-3 -2,-5 -4,-6 -2,-2 -4,-2 -6,-2 -3,0 -8,1 -14,4l-2 -4z"/>
  <g>
   <path class="fil2" d="M11166 2031l29 -6 34 170 33 171 30 171 27 171 26 171 24 172 21 172 20 172 17 173 15 173 13 174 11 173 8 175 6 174 4 175 2 175 -1 175 -2 176 -6 176 -7 177 -10 177 -12 177 -14 178 -17 178 -19 178 -22 179 -24 179 -27 179 -28 180 -32 181 -33 180 -37 181 -29 -6 36 -181 34 -180 31 -180 29 -179 26 -179 24 -179 22 -178 19 -178 17 -178 14 -177 12 -177 10 -176 7 -177 6 -175 2 -176 1 -175 -2 -175 -4 -174 -6 -174 -8 -174 -11 -173 -13 -173 -15 -173 -17 -172 -19 -172 -22 -172 -23 -172 -26 -171 -28 -170 -30 -171 -32 -170 -34 -170zm-11 -125l155 222 -7 -2 -7 -1 -7 -2 -7 -1 -7 -1 -7 -1 -7 0 -7 -1 -7 0 -7 0 -7 0 -6 1 -7 0 -7 1 -6 1 -7 1 -6 2 -7 2 -6 1 -7 2 -6 3 -6 2 -6 3 -7 3 -6 3 -6 3 -6 4 -6 3 -6 4 -6 4 -6 5 -6 4 0 0 54 -265z"/>
  </g>
  <path class="fil2" d="M11617 4936l23 -234c1,-12 1,-19 1,-24 0,-6 -2,-11 -7,-15 -4,-4 -12,-6 -22,-6l-7 0 2 -8 111 0 -3 8c-12,0 -20,1 -24,3 -5,3 -8,7 -11,12 -1,4 -3,12 -4,27l-17 167 110 -149c12,-17 20,-28 23,-34 2,-5 3,-8 3,-12 0,-3 -2,-7 -5,-9 -3,-3 -9,-5 -18,-5l3 -8 84 0 -2 8c-7,0 -13,1 -17,4 -7,3 -15,9 -22,16 -8,7 -20,22 -36,44l-158 215 -7 0z"/>
  <path id="1" class="fil2" d="M11940 4978l-13 36 -110 0 0 -5c32,-29 55,-54 68,-72 14,-19 20,-36 20,-52 0,-11 -3,-21 -11,-29 -7,-7 -16,-11 -26,-11 -9,0 -17,2 -24,8 -8,5 -13,13 -17,23l-5 0c3,-17 9,-30 18,-39 10,-9 21,-13 36,-13 15,0 28,4 38,14 10,10 15,21 15,35 0,9 -2,19 -7,28 -6,15 -17,31 -33,47 -23,25 -37,40 -42,45l48 0c10,0 17,0 21,-1 4,-1 7,-2 11,-4 3,-3 6,-6 8,-10l5 0z"/>
  <path class="fil3" d="M5492 894l46 -22 4 0 0 158c0,10 1,17 2,19 1,3 2,5 5,6 3,1 9,2 17,2l0 6 -70 0 0 -6c8,0 14,0 17,-2 2,-1 4,-3 5,-6 1,-2 1,-9 1,-19l0 -101c0,-14 0,-22 -1,-26 -1,-3 -2,-5 -3,-7 -2,-1 -4,-2 -7,-2 -3,0 -8,2 -14,4l-2 -4z"/>
  <path class="fil3" d="M9611 982l-13 36 -110 0 0 -6c38,-34 63,-62 76,-84 8,-13 12,-27 12,-39 0,-12 -3,-22 -11,-29 -7,-8 -15,-12 -26,-12 -9,0 -17,3 -24,8 -7,6 -13,14 -16,24l-5 0c2,-17 8,-30 17,-39 10,-9 22,-14 36,-14 15,0 28,5 38,15 10,10 15,21 15,34 0,10 -2,19 -7,29 -7,15 -18,31 -33,47 -23,25 -37,40 -43,45l49 0c14,0 23,-1 28,-3 5,-3 9,-6 12,-12l5 0z"/>
 </g>
</svg>
