<?xml version="1.0" encoding="UTF-8"?>
<!DOCTYPE svg PUBLIC "-//W3C//DTD SVG 1.1//EN" "http://www.w3.org/Graphics/SVG/1.1/DTD/svg11.dtd">
<!-- Creator: CorelDRAW Home & Student X8 -->
<svg xmlns="http://www.w3.org/2000/svg" xml:space="preserve" width="167.005mm" height="61.0635mm" version="1.1" style="shape-rendering:geometricPrecision; text-rendering:geometricPrecision; image-rendering:optimizeQuality; fill-rule:evenodd; clip-rule:evenodd"
viewBox="0 0 15480 5660"
 xmlns:xlink="http://www.w3.org/1999/xlink">
 <defs>
  <style type="text/css">
   <![CDATA[
    .str0 {stroke:#2B2A29;stroke-width:37.0771}
    .str2 {stroke:#2B2A29;stroke-width:27.8078}
    .str1 {stroke:#2B2A29;stroke-width:18.5385}
    .str3 {stroke:#E31E24;stroke-width:18.5385}
    .fil0 {fill:none}
    .fil1 {fill:#2B2A29;fill-rule:nonzero}
    .fil2 {fill:#E31E24;fill-rule:nonzero}
   ]]>
  </style>
 </defs>
 <g id="Warstwa_x0020_1">
  <metadata id="CorelCorpID_0Corel-Layer"/>
  <g id="_629233216">
   <polyline class="fil0 str0" points="3495,1991 3436,2134 3320,1842 3204,2134 3088,1842 2971,2134 2855,1842 2797,1991 "/>
   <polyline class="fil0 str0" points="5025,1991 4967,2134 4850,1842 4734,2134 4618,1842 4502,2134 4385,1842 4327,1991 "/>
   <polyline class="fil0 str0" points="5025,4820 4967,4963 4850,4672 4734,4963 4618,4672 4502,4963 4385,4672 4327,4820 "/>
   <polyline class="fil0 str0" points="3495,4820 3436,4963 3320,4672 3204,4963 3088,4672 2971,4963 2855,4672 2797,4820 "/>
   <path class="fil0 str0" d="M5956 2365l-563 0m553 255c-190,-178 -335,-176 -520,1"/>
   <path class="fil0 str0" d="M5952 4351l-562 0m552 -255c-189,178 -334,176 -519,-2"/>
   <polygon class="fil1" points="14662,5417 14846,5417 14846,5456 14662,5456 "/>
   <polyline class="fil0 str1" points="9020,1795 11274,1795 11274,283 8647,283 "/>
   <g>
    <path class="fil1" d="M3941 288l4533 0 0 19 -4533 0 -9 -9 9 -10zm-9 10l0 -10 9 0 -9 10zm0 1674l0 -1674 19 0 0 1674 -19 0zm75 0l0 0 0 3 0 4 0 3 -1 3 -1 3 -1 4 -1 3 -1 3 -1 2 -2 3 -1 3 -2 3 -2 2 -2 3 -2 2 -2 3 -2 2 -3 2 -2 2 -3 2 -2 1 -3 2 -3 1 -3 2 -3 1 -3 1 -3 1 -3 1 -4 0 -3 1 -3 0 -4 0 0 0 -3 0 -3 0 -4 -1 -3 0 -3 -1 -3 -1 -3 -1 -3 -1 -3 -2 -3 -1 -3 -2 -2 -1 -3 -2 -2 -2 -3 -2 -2 -2 -2 -3 -2 -2 -2 -3 -2 -2 -2 -3 -2 -3 -1 -3 -1 -2 -1 -3 -2 -3 0 -4 -1 -3 -1 -3 0 -3 0 -4 -1 -3 0 0 1 -3 0 -4 0 -3 1 -3 1 -3 0 -4 2 -3 1 -3 1 -3 1 -2 2 -3 2 -3 2 -2 2 -3 2 -2 2 -3 2 -2 3 -2 2 -2 3 -2 2 -1 3 -2 3 -1 3 -2 3 -1 3 -1 3 -1 3 -1 3 0 4 -1 3 0 3 0 0 0 4 0 3 0 3 1 4 0 3 1 3 1 3 1 3 1 3 2 3 1 3 2 2 1 3 2 2 2 3 2 2 2 2 3 2 2 2 3 2 2 2 3 1 3 2 2 1 3 1 3 1 3 1 4 1 3 1 3 0 3 0 4 0 3z"/>
   </g>
   <line class="fil0 str1" x1="5674" y1="2493" x2="5674" y2= "3358" />
   <g>
    <path class="fil1" d="M7275 2023l0 0 -4 0 -3 0 -3 0 -3 -1 -4 -1 -3 -1 -3 -1 -3 -1 -3 -1 -3 -2 -2 -1 -3 -2 -3 -2 -2 -2 -3 -2 -2 -2 -2 -2 -2 -3 -2 -2 -2 -3 -2 -2 -1 -3 -2 -3 -1 -3 -1 -3 -1 -3 -1 -3 -1 -3 0 -4 -1 -3 0 -3 0 -4 33 0 0 2 0 2 0 2 0 1 1 2 0 1 1 2 0 1 1 2 1 1 1 2 0 1 1 1 1 1 1 2 1 1 2 1 1 1 1 1 1 1 2 1 1 0 2 1 1 1 1 0 2 1 2 0 1 1 2 0 1 0 2 0 2 0 0 0 0 33zm66 -66l0 0 0 4 -1 3 0 3 -1 4 0 3 -1 3 -1 3 -1 3 -2 3 -1 3 -2 3 -2 2 -1 3 -2 2 -2 3 -3 2 -2 2 -2 2 -3 2 -2 2 -3 2 -3 1 -3 2 -3 1 -3 1 -3 1 -3 1 -3 1 -3 1 -4 0 -3 0 -3 0 0 -33 1 0 2 0 2 0 1 0 2 -1 2 0 1 -1 2 0 1 -1 1 -1 2 0 1 -1 1 -1 2 -1 1 -1 1 -1 1 -1 1 -2 1 -1 1 -1 1 -1 1 -2 0 -1 1 -2 1 -1 0 -2 1 -1 0 -2 0 -1 1 -2 0 -2 0 -2 0 0 33 0zm-66 -65l0 0 3 0 3 0 4 0 3 1 3 1 3 1 3 1 3 1 3 1 3 2 3 1 3 2 2 2 3 2 2 2 2 2 3 2 2 3 2 2 1 3 2 2 2 3 1 3 2 3 1 3 1 3 1 3 0 3 1 3 0 4 1 3 0 3 -33 0 0 -1 0 -2 -1 -2 0 -1 0 -2 -1 -1 0 -2 -1 -1 -1 -2 0 -1 -1 -2 -1 -1 -1 -1 -1 -1 -1 -2 -1 -1 -1 -1 -1 -1 -2 -1 -1 -1 -1 -1 -2 -1 -1 0 -1 -1 -2 0 -1 -1 -2 0 -2 -1 -1 0 -2 0 -2 0 -1 0 0 0 0 -33zm-66 65l0 -3 0 -3 1 -4 0 -3 1 -3 1 -3 1 -3 1 -3 1 -3 2 -3 1 -3 2 -2 2 -3 2 -2 2 -3 2 -2 2 -2 3 -2 2 -2 3 -2 3 -2 2 -1 3 -2 3 -1 3 -1 3 -1 3 -1 4 -1 3 -1 3 0 3 0 4 0 0 33 -2 0 -2 0 -1 0 -2 0 -1 1 -2 0 -2 1 -1 0 -1 1 -2 0 -1 1 -2 1 -1 1 -1 1 -1 1 -2 1 -1 1 -1 2 -1 1 -1 1 0 1 -1 2 -1 1 -1 2 0 1 -1 2 0 1 -1 2 0 1 0 2 0 2 0 1 -33 0zm-2184 -9l2204 0 0 19 -2204 0 0 -19z"/>
   </g>
   <g>
    <path class="fil1" d="M5711 1986l0 4 -1 3 0 3 -1 4 0 3 -1 3 -1 3 -2 3 -1 3 -1 3 -2 2 -2 3 -1 3 -2 2 -3 3 -2 2 -2 2 -2 2 -3 2 -2 2 -3 2 -3 1 -3 2 -3 1 -3 1 -3 1 -3 1 -3 1 -3 1 -4 0 -3 0 -3 0 0 0 -4 0 -3 0 -3 0 -4 -1 -3 -1 -3 -1 -3 -1 -3 -1 -3 -1 -3 -2 -2 -1 -3 -2 -3 -2 -2 -2 -3 -2 -2 -2 -2 -2 -2 -3 -2 -2 -2 -3 -2 -3 -1 -2 -2 -3 -1 -3 -1 -3 -1 -3 -1 -3 -1 -3 0 -4 -1 -3 0 -3 0 -4 0 0 0 -3 0 -3 1 -4 0 -3 1 -3 1 -3 1 -3 1 -3 1 -3 2 -3 1 -3 2 -2 2 -3 2 -2 2 -3 2 -2 2 -2 3 -2 2 -2 3 -2 3 -2 2 -2 3 -1 3 -1 3 -2 3 -1 3 0 3 -1 4 -1 3 0 3 0 4 -1 0 0 3 1 3 0 4 0 3 1 3 1 3 0 3 1 3 2 3 1 3 1 3 2 3 2 2 2 3 2 2 2 2 2 2 2 3 3 2 2 1 3 2 2 2 3 1 3 1 3 2 3 1 3 1 3 0 3 1 3 0 4 1 3 0 3 0 0zm-76 376l0 -376 19 0 0 376 -19 0z"/>
   </g>
   <path class="fil0 str0" d="M8659 563l0 -563m-255 553c178,-190 176,-334 -1,-520"/>
   <path class="fil0 str0" d="M8616 5657l0 -562m-255 552c178,-189 176,-334 -2,-519"/>
   <polygon class="fil1" points="14675,1819 14742,1819 14742,1752 14799,1752 14799,1819 14866,1819 14866,1876 14799,1876 14799,1943 14742,1943 14742,1876 14675,1876 "/>
   <line class="fil0 str1" x1="4327" y1="1991" x2="3495" y2= "1991" />
   <g>
    <path class="fil1" d="M7406 3638l0 0 0 4 0 3 -1 3 0 3 -1 4 -1 3 -1 3 -1 3 -1 3 -2 3 -1 2 -2 3 -2 3 -2 2 -2 3 -2 2 -2 2 -3 2 -2 2 -3 2 -3 2 -2 1 -3 2 -3 1 -3 1 -3 1 -3 1 -4 1 -3 0 -3 1 -3 0 -4 0 0 -33 2 0 2 0 1 0 2 0 1 -1 2 0 2 -1 1 0 1 -1 2 -1 1 -1 2 0 1 -1 1 -1 1 -1 1 -1 2 -2 1 -1 1 -1 1 -1 0 -2 1 -1 1 -2 1 -1 0 -1 1 -2 0 -2 0 -1 1 -2 0 -1 0 -2 0 -2 0 0 33 0zm-66 -66l0 0 4 0 3 1 3 0 3 1 4 0 3 1 3 1 3 2 3 1 3 1 2 2 3 2 3 1 2 2 3 2 2 3 2 2 2 2 2 3 2 2 2 3 1 3 2 3 1 3 1 3 1 3 1 3 1 3 0 3 1 4 0 3 0 3 -33 0 0 -1 0 -2 0 -2 -1 -1 0 -2 0 -2 -1 -1 0 -2 -1 -1 -1 -1 -1 -2 0 -1 -1 -1 -1 -2 -1 -1 -2 -1 -1 -1 -1 -1 -1 -1 -1 -1 -2 -1 -1 -1 -2 0 -1 -1 -1 -1 -2 0 -2 -1 -1 0 -2 0 -1 -1 -2 0 -2 0 0 0 0 -33zm-66 66l0 0 0 -3 1 -3 0 -4 1 -3 0 -3 1 -3 1 -3 1 -3 2 -3 1 -3 2 -3 2 -3 1 -2 2 -3 2 -2 3 -2 2 -3 2 -2 3 -2 2 -1 3 -2 3 -2 3 -1 3 -1 3 -2 3 -1 3 -1 3 0 3 -1 3 0 4 -1 3 0 0 33 -2 0 -1 0 -2 1 -1 0 -2 0 -2 1 -1 0 -2 1 -1 1 -1 0 -2 1 -1 1 -2 1 -1 1 -1 1 -1 1 -1 1 -1 1 -1 2 -1 1 -1 1 -1 2 -1 1 0 1 -1 2 0 1 -1 2 0 2 0 1 -1 2 0 2 0 1 0 0 -33 0zm66 66l-3 0 -4 0 -3 -1 -3 0 -3 -1 -3 -1 -3 -1 -3 -1 -3 -1 -3 -2 -3 -1 -3 -2 -2 -2 -3 -2 -2 -2 -2 -2 -3 -2 -2 -3 -2 -2 -1 -3 -2 -3 -2 -2 -1 -3 -2 -3 -1 -3 -1 -3 -1 -3 0 -4 -1 -3 0 -3 -1 -3 0 -4 33 0 0 2 0 2 1 1 0 2 0 1 1 2 0 2 1 1 0 1 1 2 1 1 1 2 1 1 1 1 1 1 1 2 1 1 1 1 1 1 2 1 1 0 2 1 1 1 1 1 2 0 1 1 2 0 2 1 1 0 2 0 1 0 2 0 0 33zm-9 1075l0 -1095 18 0 0 1095 -9 9 -9 -9zm18 0l0 9 -9 0 9 -9zm-1682 -10l1673 0 0 19 -1673 0 -9 -9 9 -10zm0 19l-9 0 0 -9 9 9zm7 -431l2 422 -18 0 -2 -422 18 0z"/>
   </g>
   <g>
    <path class="fil1" d="M5668 4844l-4 0 -3 0 -3 0 -3 -1 -4 0 -3 -1 -3 -1 -3 -1 -3 -2 -3 -1 -2 -2 -3 -1 -3 -2 -2 -2 -3 -2 -2 -2 -2 -3 -2 -2 -2 -2 -2 -3 -2 -3 -2 -2 -1 -3 -1 -3 -2 -3 -1 -3 -1 -3 0 -3 -1 -4 0 -3 -1 -3 0 -4 0 0 0 -3 0 -3 1 -4 0 -3 1 -3 1 -3 1 -3 1 -3 1 -3 2 -3 1 -3 2 -3 2 -2 2 -3 2 -2 2 -2 2 -3 3 -2 2 -2 3 -2 2 -1 3 -2 3 -1 3 -2 3 -1 3 -1 3 -1 3 -1 3 0 3 -1 4 0 3 0 0 0 4 0 3 0 3 0 3 1 4 1 3 0 3 1 3 2 3 1 3 1 2 2 3 1 3 2 2 2 3 2 2 2 2 3 2 2 2 2 2 3 2 3 2 2 1 3 1 3 2 3 1 3 1 3 0 3 1 4 0 3 1 3 0 4 0 0 0 3 0 3 -1 4 0 3 -1 3 -1 3 -1 3 -1 3 -1 3 -2 3 -1 3 -2 3 -2 2 -2 3 -2 2 -2 3 -2 2 -2 2 -3 2 -3 2 -2 1 -3 2 -3 2 -3 1 -3 1 -3 1 -3 1 -3 1 -3 1 -3 0 -4 0 -3 0 0 0zm-643 -67l642 -8 0 19 -642 8 0 -19z"/>
   </g>
   <line class="fil0 str1" x1="4327" y1="4820" x2="3495" y2= "4820" />
   <polyline class="fil0 str1" points="9020,3234 11245,3250 11270,5383 8686,5383 "/>
   <g>
    <path class="fil1" d="M3898 5378l4590 0 0 18 -4590 0 -9 -9 9 -9zm0 18l-9 0 0 -9 9 9zm9 -576l0 567 -18 0 0 -567 18 0zm-75 0l0 0 0 -3 0 -4 1 -3 0 -3 1 -3 1 -4 1 -3 1 -3 2 -3 1 -2 2 -3 1 -3 2 -2 2 -3 2 -2 2 -3 3 -2 2 -2 3 -2 2 -2 3 -1 3 -2 2 -1 3 -2 3 -1 3 -1 3 -1 4 -1 3 0 3 -1 4 0 3 0 0 0 3 0 4 0 3 1 3 0 3 1 3 1 4 1 3 1 2 2 3 1 3 2 3 1 2 2 3 2 2 2 3 2 2 3 2 2 2 3 2 2 1 3 2 3 1 2 2 3 1 3 1 3 1 4 0 3 1 3 0 3 1 4 0 3 0 0 0 3 -1 4 0 3 -1 3 0 3 -1 3 -1 4 -1 3 -2 2 -1 3 -2 3 -1 3 -2 2 -2 3 -2 2 -2 2 -3 3 -2 2 -3 2 -2 2 -3 1 -3 2 -3 1 -2 2 -3 1 -4 1 -3 1 -3 1 -3 0 -3 1 -4 0 -3 0 0 0 -3 0 -4 0 -3 -1 -3 0 -4 -1 -3 -1 -3 -1 -3 -1 -3 -2 -2 -1 -3 -2 -3 -1 -2 -2 -3 -2 -2 -2 -3 -3 -2 -2 -2 -2 -2 -3 -2 -2 -1 -3 -2 -3 -1 -3 -2 -2 -1 -3 -1 -4 -1 -3 -1 -3 0 -3 -1 -3 0 -4 0 -3z"/>
   </g>
   <path class="fil1" d="M2908 4330l-29 101c-4,14 -6,25 -6,32 0,6 2,11 7,15 6,4 16,6 32,6l-3 9 -160 0 3 -9c16,0 27,-3 35,-9 7,-7 14,-21 20,-42l61 -214c4,-12 6,-22 6,-28 0,-7 -2,-12 -7,-16 -4,-3 -14,-5 -29,-7l2 -8 138 0c39,0 67,7 83,20 16,14 24,32 24,53 0,23 -9,44 -28,62 -12,11 -33,21 -63,30l30 101c8,27 15,43 21,49 5,6 15,9 29,9l0 9 -103 0 -47 -163 -8 1c-2,0 -4,-1 -8,-1zm4 -14c6,0 11,0 15,0 23,0 42,-8 57,-25 15,-16 23,-37 23,-64 0,-16 -4,-28 -12,-36 -8,-8 -19,-12 -32,-12 -3,0 -7,0 -12,0l-39 137z"/>
   <path id="1" class="fil1" d="M3325 4153l-83 279c-4,15 -6,24 -6,28 0,4 1,8 4,13 3,4 6,7 10,8 3,1 14,2 32,3l-3 9 -168 0 3 -9c16,0 28,-2 35,-4 6,-2 12,-6 16,-12 4,-6 9,-18 14,-36l49 -165c7,-25 11,-39 12,-40 1,-5 1,-9 1,-12 0,-8 -2,-14 -7,-18 -4,-4 -11,-6 -19,-6 -4,0 -12,0 -24,2l-2 -9 125 -31 11 0z"/>
   <path id="2" class="fil1" d="M3516 4152l-43 148c12,-14 22,-23 30,-28 9,-4 17,-7 27,-7 19,0 33,7 42,22 9,14 14,30 14,48 0,44 -16,84 -47,118 -28,31 -60,46 -95,46 -27,0 -54,-7 -84,-23l76 -259c3,-12 5,-20 6,-25 0,-5 -2,-8 -5,-11 -5,-3 -13,-5 -23,-4l2 -10 85 -15 15 0zm-96 326c7,5 14,7 20,7 8,0 15,-2 21,-5 9,-5 18,-16 28,-30 9,-15 18,-32 24,-53 7,-20 10,-41 10,-61 0,-12 -2,-21 -7,-27 -5,-6 -11,-9 -17,-9 -11,0 -20,6 -28,17 -5,8 -11,23 -18,48l-33 113z"/>
   <path class="fil1" d="M4355 1473l-28 101c-5,15 -7,25 -7,32 0,6 3,11 8,15 5,4 15,6 31,6l-3 9 -160 0 3 -9c16,0 28,-3 35,-9 7,-6 14,-20 21,-42l61 -214c3,-12 5,-21 5,-28 0,-7 -2,-12 -7,-16 -4,-3 -14,-5 -29,-6l2 -9 138 0c40,0 67,7 83,21 16,13 24,31 24,53 0,22 -9,43 -28,61 -12,12 -33,21 -63,30l30 101c8,27 15,43 21,49 6,6 16,9 30,9l0 9 -104 0 -47 -163 -8 1c-1,0 -4,0 -8,-1zm5 -14c5,0 10,0 14,0 23,0 42,-8 58,-24 15,-17 22,-38 22,-65 0,-16 -4,-27 -12,-36 -8,-8 -19,-12 -32,-12 -3,0 -7,0 -11,0l-39 137z"/>
   <path id="1" class="fil1" d="M4725 1636l-176 0 0 -9c45,-43 84,-82 116,-117 26,-30 43,-53 50,-68 6,-16 10,-32 10,-48 0,-14 -5,-27 -14,-36 -10,-9 -21,-14 -36,-14 -22,0 -42,13 -58,38l-9 -4c9,-25 20,-43 33,-56 19,-17 41,-26 66,-26 24,0 43,8 59,22 15,15 23,32 23,51 0,17 -4,33 -11,50 -8,16 -23,37 -47,62 -18,19 -54,52 -109,99l64 0c20,0 35,-3 43,-7 8,-5 16,-14 23,-29l12 0 -39 92z"/>
   <path id="2" class="fil1" d="M5039 1412l-48 163 -5 20c-1,2 -1,4 -1,5 0,2 1,4 2,5 2,2 3,2 5,2 3,0 8,-2 13,-7 3,-3 9,-10 18,-23l8 5c-11,21 -24,36 -37,46 -13,10 -27,14 -42,14 -9,0 -16,-2 -21,-7 -5,-5 -8,-11 -8,-18 0,-6 3,-18 9,-35l5 -20c-19,32 -37,55 -54,69 -10,8 -21,11 -33,11 -15,0 -26,-6 -32,-18 -7,-12 -10,-26 -10,-42 0,-23 7,-49 21,-79 14,-30 32,-54 55,-72 19,-15 37,-23 54,-23 9,0 16,3 22,8 6,6 10,15 12,29l9 -30 58 -3zm-78 47c0,-14 -3,-23 -7,-29 -3,-4 -7,-6 -12,-6 -5,0 -10,2 -16,7 -11,10 -23,31 -35,62 -13,31 -20,57 -20,80 0,8 2,15 5,18 3,4 6,6 9,6 8,0 15,-4 23,-13 10,-12 20,-26 29,-44 16,-30 24,-58 24,-81z"/>
   <path class="fil1" d="M8587 682l-25 105 -8 0c-1,-29 -9,-50 -22,-65 -13,-14 -30,-21 -51,-21 -23,0 -46,10 -69,29 -22,20 -41,49 -57,89 -13,32 -19,64 -19,96 0,28 7,49 21,64 14,15 33,22 57,22 20,0 38,-4 54,-12 16,-9 32,-23 49,-42l12 0c-21,31 -41,52 -62,64 -21,12 -46,19 -76,19 -40,0 -72,-13 -97,-37 -24,-24 -37,-56 -37,-95 0,-37 10,-72 30,-105 19,-33 47,-60 84,-81 37,-20 73,-30 109,-30 14,0 31,2 52,8 10,3 17,4 21,4 9,0 17,-4 25,-12l9 0z"/>
   <path id="1" class="fil1" d="M8785 683l-83 279c-4,14 -6,24 -6,28 0,4 2,8 5,12 3,4 6,7 9,8 4,1 14,2 32,3l-3 9 -167 0 2 -9c17,0 29,-1 35,-4 7,-2 12,-6 16,-12 4,-6 9,-17 14,-35l49 -166c8,-25 12,-39 12,-40 1,-4 2,-8 2,-12 0,-8 -3,-13 -7,-18 -5,-4 -11,-6 -19,-6 -5,0 -13,0 -25,2l-2 -9 126 -30 10 0z"/>
   <path id="2" class="fil1" d="M9052 798l-48 163 -5 20c0,2 -1,4 -1,5 0,2 1,4 2,5 2,2 3,3 5,3 3,0 8,-3 14,-8 2,-2 8,-10 17,-23l9 5c-12,21 -24,36 -37,46 -14,10 -28,14 -43,14 -9,0 -16,-2 -21,-7 -5,-4 -7,-10 -7,-18 0,-6 2,-18 8,-35l6 -20c-19,32 -38,55 -55,69 -10,8 -21,11 -32,11 -16,0 -26,-6 -33,-18 -7,-12 -10,-26 -10,-42 0,-23 7,-49 21,-79 14,-30 33,-54 56,-72 19,-15 36,-22 53,-22 9,0 17,2 22,7 6,6 10,15 12,30l9 -30 58 -4zm-78 47c0,-13 -2,-23 -6,-29 -3,-4 -8,-6 -13,-6 -5,0 -10,3 -16,7 -11,11 -23,31 -35,62 -13,31 -19,57 -19,80 0,8 1,15 4,19 3,3 6,5 9,5 8,0 15,-4 23,-12 11,-12 20,-27 29,-45 16,-30 24,-57 24,-81z"/>
   <path class="fil1" d="M6354 2271l-25 105 -8 0c-2,-29 -9,-50 -22,-64 -13,-14 -30,-21 -51,-21 -23,0 -46,9 -69,29 -22,19 -41,48 -57,88 -13,33 -19,64 -19,96 0,28 7,50 21,64 14,15 33,23 57,23 20,0 38,-5 54,-13 16,-9 32,-22 49,-41l12 0c-21,30 -41,51 -62,63 -21,13 -46,19 -76,19 -40,0 -72,-12 -97,-37 -24,-24 -37,-56 -37,-95 0,-36 10,-71 30,-105 19,-33 47,-60 84,-80 37,-21 73,-31 109,-31 14,0 31,3 52,9 10,2 17,4 21,4 9,0 17,-4 25,-13l9 0z"/>
   <path id="1" class="fil1" d="M6505 2611l-176 0 0 -9c46,-42 84,-81 116,-117 26,-30 43,-52 50,-68 6,-15 10,-31 10,-47 0,-15 -5,-27 -14,-36 -10,-10 -21,-14 -35,-14 -23,0 -43,12 -59,37l-9 -4c9,-24 20,-42 33,-55 19,-17 41,-26 66,-26 24,0 44,7 59,22 15,14 23,31 23,50 0,17 -4,34 -11,50 -8,17 -23,37 -47,62 -18,19 -54,52 -109,99l64 0c21,0 35,-2 43,-7 8,-5 16,-14 23,-28l12 0 -39 91z"/>
   <path id="2" class="fil1" d="M6819 2387l-48 163 -5 20c0,3 -1,4 -1,6 0,2 1,3 2,5 2,1 3,2 5,2 3,0 8,-3 14,-8 2,-2 8,-10 17,-22l9 4c-12,21 -24,37 -37,46 -14,10 -28,15 -43,15 -9,0 -16,-3 -21,-7 -5,-5 -7,-11 -7,-18 0,-7 2,-19 8,-36l6 -20c-19,33 -38,56 -55,69 -10,8 -21,12 -33,12 -15,0 -25,-6 -32,-19 -7,-12 -10,-26 -10,-41 0,-23 7,-50 21,-80 14,-30 33,-53 56,-72 19,-15 36,-22 53,-22 9,0 17,3 22,8 6,5 10,15 12,29l9 -30 58 -4zm-78 47c0,-13 -2,-23 -6,-28 -4,-5 -8,-7 -13,-7 -5,0 -10,3 -16,8 -11,10 -23,30 -35,61 -13,31 -20,58 -20,80 0,9 2,15 5,19 3,4 6,6 9,6 8,0 15,-5 23,-13 11,-12 20,-27 29,-44 16,-31 24,-58 24,-82z"/>
   <path class="fil1" d="M2871 1511l-29 101c-5,14 -7,25 -7,32 0,6 3,11 8,15 5,3 16,6 32,6l-4 8 -160 0 3 -8c16,0 28,-3 35,-10 8,-6 14,-20 21,-42l61 -213c3,-12 5,-22 5,-29 0,-6 -2,-12 -6,-15 -5,-3 -14,-6 -30,-7l2 -8 138 0c40,0 68,6 84,20 16,14 24,32 24,53 0,23 -10,43 -29,62 -11,11 -32,21 -63,29l30 101c8,28 15,44 21,50 6,5 16,8 30,9l0 8 -104 0 -47 -162 -7 0c-2,0 -5,0 -8,0zm4 -15c5,1 10,1 14,1 23,0 43,-8 58,-25 15,-16 22,-38 22,-64 0,-16 -4,-28 -12,-36 -8,-8 -18,-12 -32,-12 -3,0 -7,0 -11,0l-39 136z"/>
   <path id="1" class="fil1" d="M3287 1334l-83 279c-4,15 -6,24 -6,28 0,4 2,8 5,12 3,5 6,7 9,9 4,1 14,2 32,3l-3 8 -167 0 2 -8c17,0 29,-2 35,-4 7,-3 12,-7 16,-12 4,-6 9,-18 14,-36l49 -165c8,-26 12,-39 12,-41 1,-4 2,-8 2,-12 0,-7 -3,-13 -7,-17 -5,-5 -11,-7 -20,-7 -4,0 -12,1 -24,2l-2 -9 126 -30 10 0z"/>
   <path id="2" class="fil1" d="M3554 1450l-48 162 -5 20c0,3 -1,5 -1,6 0,2 1,3 2,5 2,1 3,2 5,2 3,0 8,-3 14,-8 2,-2 8,-9 17,-22l9 4c-12,21 -24,37 -37,46 -14,10 -28,15 -43,15 -9,0 -16,-2 -21,-7 -5,-5 -7,-11 -7,-18 0,-7 2,-18 8,-36l6 -20c-19,33 -38,56 -55,69 -10,8 -21,12 -33,12 -15,0 -25,-6 -32,-19 -7,-12 -10,-26 -10,-41 0,-23 7,-50 21,-80 14,-29 33,-53 56,-71 19,-15 36,-23 53,-23 9,0 17,3 22,8 6,5 10,15 12,29l9 -30 58 -3zm-78 46c0,-13 -2,-22 -6,-28 -4,-4 -8,-6 -13,-6 -5,0 -10,2 -16,7 -11,10 -23,30 -35,61 -13,31 -19,58 -19,80 0,9 1,15 4,19 3,4 6,6 9,6 8,0 15,-4 23,-13 11,-12 20,-27 29,-44 16,-31 24,-58 24,-82z"/>
   <path class="fil1" d="M4412 4349l-29 101c-4,14 -6,25 -6,32 0,6 2,11 7,15 5,4 16,6 32,6l-4 9 -160 0 3 -9c16,0 28,-3 35,-9 8,-7 15,-21 21,-43l61 -213c4,-12 5,-22 5,-29 0,-6 -2,-11 -6,-15 -4,-3 -14,-6 -30,-7l3 -8 138 0c39,0 67,7 83,20 16,14 24,32 24,53 0,23 -10,43 -28,62 -12,11 -33,21 -63,29l29 101c8,28 15,44 21,50 6,5 16,9 30,9l0 9 -104 0 -46 -163 -8 0c-2,0 -5,0 -8,0zm4 -15c6,1 10,1 14,1 24,0 43,-8 58,-25 15,-16 23,-38 23,-64 0,-16 -4,-28 -13,-36 -8,-8 -18,-12 -32,-12 -3,0 -7,0 -11,0l-39 136z"/>
   <path id="1" class="fil1" d="M4781 4512l-176 0 0 -9c46,-43 85,-82 116,-118 27,-29 43,-52 50,-68 7,-15 10,-31 10,-47 0,-15 -5,-27 -14,-36 -9,-9 -21,-14 -35,-14 -23,0 -42,12 -58,37l-10 -4c9,-24 20,-42 34,-55 18,-17 40,-26 66,-26 23,0 43,7 58,22 16,15 23,31 23,51 0,16 -3,33 -11,49 -7,17 -23,37 -47,62 -17,19 -54,52 -109,99l64 0c21,0 35,-2 43,-7 9,-4 16,-14 24,-28l11 0 -39 92z"/>
   <path id="2" class="fil1" d="M5020 4171l-44 148c12,-14 23,-23 31,-28 8,-5 17,-7 27,-7 18,0 32,7 41,21 10,14 14,31 14,49 0,44 -15,84 -47,118 -27,31 -59,46 -95,46 -26,0 -54,-8 -83,-23l75 -259c4,-12 6,-21 7,-26 0,-4 -2,-7 -6,-10 -5,-3 -12,-5 -22,-4l2 -10 84 -15 16 0zm-96 326c7,5 14,7 20,7 8,0 15,-2 20,-5 9,-6 19,-16 28,-30 10,-15 18,-32 25,-53 6,-21 10,-41 10,-62 0,-11 -3,-20 -8,-26 -5,-6 -10,-9 -17,-9 -10,0 -20,6 -27,17 -6,7 -12,23 -18,47l-33 114z"/>
   <path class="fil1" d="M8423 4463l-24 105 -9 0c-1,-29 -8,-50 -21,-64 -14,-14 -31,-22 -52,-22 -23,0 -46,10 -68,30 -23,19 -42,48 -58,88 -12,33 -19,64 -19,96 0,28 7,50 21,64 14,15 33,23 57,23 20,0 38,-5 54,-13 17,-9 33,-22 49,-42l12 0c-20,31 -41,52 -62,64 -20,13 -46,19 -76,19 -40,0 -72,-12 -96,-37 -25,-24 -37,-56 -37,-95 0,-36 10,-71 29,-105 20,-33 48,-60 84,-80 37,-21 73,-31 110,-31 13,0 30,3 51,9 10,2 18,4 22,4 8,0 16,-4 25,-13l8 0z"/>
   <path id="1" class="fil1" d="M8621 4464l-82 279c-4,15 -7,24 -7,28 0,4 2,8 5,12 3,4 6,7 10,8 3,2 14,3 31,4l-2 8 -168 0 3 -8c16,-1 28,-2 34,-4 7,-3 12,-7 16,-13 5,-5 9,-17 15,-35l49 -165c7,-26 11,-39 11,-41 1,-4 2,-8 2,-12 0,-7 -2,-13 -7,-17 -4,-5 -11,-7 -19,-7 -4,0 -12,1 -25,2l-2 -9 126 -30 10 0z"/>
   <path id="2" class="fil1" d="M8813 4463l-44 147c13,-13 23,-23 31,-27 8,-5 17,-7 27,-7 18,0 32,7 42,21 9,14 14,30 14,49 0,44 -16,83 -47,118 -28,31 -60,46 -95,46 -27,0 -55,-8 -84,-24l76 -258c3,-12 5,-21 6,-26 0,-4 -2,-7 -6,-10 -5,-3 -12,-5 -22,-4l2 -11 85 -14 15 0zm-96 325c7,5 14,8 20,8 8,0 15,-2 21,-5 8,-6 18,-16 28,-31 9,-14 17,-32 24,-52 7,-21 10,-41 10,-62 0,-12 -3,-20 -7,-26 -5,-6 -11,-9 -17,-9 -11,0 -20,5 -28,17 -6,7 -11,23 -18,47l-33 113z"/>
   <path class="fil1" d="M6372 4106l-25 106 -8 0c-2,-29 -9,-51 -22,-65 -13,-14 -30,-21 -51,-21 -23,0 -46,9 -69,29 -22,19 -41,49 -57,89 -13,32 -19,64 -19,95 0,28 7,50 21,65 14,14 33,22 57,22 20,0 38,-4 54,-13 16,-8 32,-22 49,-41l12 0c-21,30 -41,51 -62,64 -21,12 -46,18 -76,18 -40,0 -72,-12 -97,-36 -24,-25 -37,-56 -37,-95 0,-37 10,-72 30,-105 19,-34 47,-61 84,-81 37,-21 73,-31 109,-31 14,0 31,3 52,9 10,3 17,4 21,4 9,0 17,-4 25,-13l9 0z"/>
   <path id="1" class="fil1" d="M6523 4447l-176 0 0 -10c46,-42 84,-81 116,-117 26,-29 43,-52 50,-68 6,-15 10,-31 10,-47 0,-15 -5,-27 -14,-36 -10,-9 -21,-14 -35,-14 -23,0 -43,12 -59,37l-9 -4c9,-24 20,-42 33,-55 19,-17 41,-26 66,-26 24,0 44,7 59,22 15,15 23,31 23,51 0,16 -4,33 -11,49 -8,17 -23,37 -47,62 -18,19 -54,52 -109,99l64 0c21,0 35,-2 43,-7 8,-4 16,-14 23,-28l12 0 -39 92z"/>
   <path id="2" class="fil1" d="M6761 4106l-43 148c12,-14 22,-23 31,-28 8,-5 17,-7 26,-7 19,0 33,7 42,21 10,14 14,31 14,49 0,44 -16,84 -47,118 -28,31 -59,46 -95,46 -26,0 -54,-8 -83,-23l75 -259c4,-12 6,-21 6,-26 0,-4 -1,-7 -5,-10 -5,-3 -12,-5 -23,-4l2 -10 85 -15 15 0zm-96 326c8,5 14,7 20,7 9,0 16,-2 21,-5 9,-6 18,-16 28,-30 10,-15 18,-32 25,-53 6,-21 9,-41 9,-62 0,-11 -2,-20 -7,-26 -5,-6 -10,-9 -17,-9 -11,0 -20,5 -28,17 -5,7 -11,23 -17,47l-34 114z"/>
   <path class="fil1" d="M14785 3679l27 -277c1,-14 2,-23 2,-28 0,-8 -3,-14 -9,-19 -5,-5 -14,-7 -25,-7l-9 0 2 -9 131 0 -2 9c-15,0 -24,2 -30,4 -5,3 -9,8 -12,15 -2,3 -4,14 -5,31l-20 198 131 -177c14,-19 22,-33 26,-40 3,-5 4,-10 4,-14 0,-4 -2,-8 -6,-11 -4,-3 -11,-5 -21,-6l3 -9 99 0 -2 9c-8,1 -14,2 -19,5 -9,4 -18,10 -27,19 -9,9 -23,26 -42,52l-187 255 -9 0z"/>
   <path id="1" class="fil1" d="M15192 3536c16,0 30,4 42,10 12,7 22,17 29,31 6,13 10,27 10,41 0,26 -7,53 -22,81 -15,28 -34,49 -58,64 -24,14 -49,22 -74,22 -19,0 -34,-4 -46,-13 -13,-8 -22,-18 -28,-32 -5,-13 -8,-26 -8,-38 0,-23 5,-44 16,-66 10,-22 23,-40 38,-55 15,-14 31,-25 47,-33 17,-8 35,-12 54,-12zm-6 11c-12,0 -23,3 -35,9 -11,6 -22,15 -33,28 -11,14 -21,31 -30,52 -11,26 -16,51 -16,74 0,17 4,32 13,44 8,13 22,20 39,20 11,0 22,-3 32,-8 10,-6 21,-15 32,-27 14,-16 26,-37 35,-62 10,-25 14,-48 14,-69 0,-16 -4,-30 -12,-42 -9,-13 -22,-19 -39,-19z"/>
   <path id="2" class="fil1" d="M15480 3528l-61 211c-4,12 -5,19 -5,23 0,1 0,2 1,3 0,1 1,1 2,1 1,0 2,0 3,-2 3,-2 7,-9 14,-20l6 3c-7,12 -14,20 -21,27 -7,6 -14,9 -20,9 -3,0 -6,-1 -8,-4 -3,-3 -4,-7 -4,-12 0,-6 2,-15 5,-26l7 -22c-19,26 -36,44 -51,54 -10,7 -21,10 -30,10 -10,0 -19,-4 -26,-12 -7,-7 -11,-18 -11,-32 0,-17 6,-36 18,-55 12,-20 28,-36 48,-48 16,-10 30,-15 43,-15 7,0 13,1 18,4 4,2 9,6 14,12l17 -57c2,-7 3,-12 4,-16 2,-5 2,-9 2,-12 0,-2 0,-4 -2,-6 -3,-2 -6,-3 -10,-3 -2,0 -7,1 -13,1l0 -6 60 -10zm-67 126c0,-7 -3,-13 -8,-18 -4,-4 -10,-7 -18,-7 -16,0 -33,13 -51,37 -17,24 -26,48 -26,70 0,9 2,15 7,20 4,4 10,7 16,7 14,0 31,-13 50,-40 20,-26 30,-49 30,-69z"/>
   <g>
    <path class="fil1" d="M14481 1807l97 231 0 0 -6 -3 -6 -3 -6 -3 -6 -2 -6 -2 -7 -2 -6 -2 -6 -2 -6 -1 -6 -2 -6 -1 -7 -1 -6 0 -6 -1 -6 0 -6 0 -7 0 -6 0 -6 0 -6 1 -6 1 -6 1 -7 1 -6 2 -6 1 -6 2 -6 2 -7 2 -6 3 -6 2 -6 3 -6 3 100 -230zm-30 3599l20 -3483 18 0 -19 3484 -19 -1z"/>
   </g>
   <polyline class="fil0 str1" points="5674,2493 5671,3385 5671,4223 "/>
   <g>
    <path class="fil1" d="M7274 2271l95 232 0 0 -7 -3 -6 -3 -6 -3 -6 -2 -6 -3 -6 -2 -6 -2 -7 -1 -6 -2 -6 -1 -6 -2 -6 0 -6 -1 -7 -1 -6 0 -6 -1 -6 0 -6 1 -6 0 -7 1 -6 0 -6 1 -6 1 -6 2 -7 1 -6 2 -6 2 -6 2 -7 2 -6 3 -6 3 -6 2 103 -228zm-29 1093l17 -978 19 1 -18 977 -18 0z"/>
   </g>
   <path class="fil1" d="M8715 3446l-92 320 37 -31c41,-34 67,-60 79,-76 4,-5 6,-10 6,-13 0,-2 0,-4 -2,-5 -1,-2 -4,-4 -7,-5 -4,-1 -11,-1 -20,-1l-12 0 4 -12 142 0 -3 12c-16,0 -30,3 -42,7 -12,5 -23,11 -35,20 -21,16 -36,28 -43,34l-28 25c5,16 11,37 18,65 11,47 19,74 23,83 5,8 9,12 13,12 4,0 8,-2 13,-5 11,-8 23,-21 36,-39l12 8c-24,29 -42,49 -55,58 -12,10 -24,14 -34,14 -9,0 -16,-3 -21,-10 -9,-13 -23,-63 -44,-151l-45 38 -33 116 -51 0 108 -372 9 -32c1,-5 1,-10 1,-14 0,-5 -2,-9 -6,-12 -4,-4 -9,-5 -17,-5 -5,0 -12,1 -23,3l-1 -12 113 -20z"/>
   <path id="1" class="fil1" d="M8836 3635l92 -20c7,16 13,33 17,49 6,25 10,54 14,88 2,17 4,52 7,107 28,-30 44,-48 49,-56 29,-38 46,-61 50,-68 7,-11 12,-22 15,-30 3,-7 4,-13 4,-19 0,-6 -5,-12 -15,-19 -10,-8 -15,-16 -15,-25 0,-7 3,-13 9,-19 5,-5 12,-8 19,-8 9,0 17,4 24,11 7,8 10,17 10,28 0,11 -1,22 -5,32 -5,17 -16,37 -32,61 -15,23 -40,55 -74,95 -5,5 -29,30 -73,75l-12 0c-5,-137 -16,-222 -32,-257 -6,-11 -15,-16 -27,-16 -6,0 -13,1 -23,3l-2 -12z"/>
   <path id="2" class="fil1" d="M9266 3685c10,0 17,3 24,9 6,6 9,14 9,23 0,9 -3,17 -10,23 -6,7 -14,10 -23,10 -9,0 -16,-3 -23,-10 -6,-6 -9,-14 -9,-23 0,-9 3,-17 9,-23 6,-6 14,-9 23,-9zm15 129l-69 231c-4,16 -7,25 -7,28 0,3 1,6 3,8 2,2 4,3 7,3 3,0 6,-1 10,-5 11,-9 23,-23 34,-41l11 7c-14,23 -30,41 -49,56 -14,11 -28,17 -41,17 -8,0 -15,-3 -20,-8 -6,-6 -9,-12 -9,-20 0,-8 3,-22 9,-41l46 -147c7,-24 10,-39 10,-45 0,-4 -2,-8 -5,-11 -3,-3 -8,-5 -14,-5 -5,0 -14,1 -29,4l0 -13 113 -18z"/>
   <g>
    <polygon class="fil1" points="9014,2027 9014,2150 9137,2150 9137,2183 9014,2183 9014,2306 8981,2306 8981,2183 8859,2183 8859,2150 8981,2150 8981,2027 "/>
    <polygon class="fil1" points="9030,2895 9030,3027 8992,3027 8992,2895 "/>
    <rect class="fil0 str2" transform="matrix(-0.966762 -0.966762 0.966762 -0.966762 9020.16 3234.31)" width="707" height="707"/>
   </g>
   <path class="fil1" d="M7458 2614l109 -24c8,19 14,39 19,58 7,29 13,63 17,103 2,20 5,62 9,126 32,-35 51,-57 57,-65 34,-46 54,-73 59,-81 8,-13 14,-25 18,-35 3,-8 4,-15 5,-22 0,-7 -6,-14 -18,-23 -12,-9 -18,-19 -18,-29 0,-8 3,-16 10,-22 6,-7 14,-10 23,-10 10,0 20,5 28,14 8,8 12,19 12,32 0,13 -2,26 -6,38 -7,19 -19,43 -37,71 -18,28 -48,65 -88,112 -5,6 -34,35 -85,89l-15 0c-6,-162 -18,-262 -38,-302 -6,-13 -17,-20 -32,-20 -6,0 -15,1 -27,3l-2 -13z"/>
   <path id="1" class="fil1" d="M7965 2672c10,0 20,4 27,11 7,8 11,17 11,27 0,11 -4,20 -11,27 -8,8 -17,12 -27,12 -11,0 -20,-4 -27,-12 -8,-7 -12,-16 -12,-27 0,-10 4,-19 11,-27 8,-7 17,-11 28,-11zm16 152l-80 272c-6,18 -8,29 -8,33 0,4 1,7 3,9 2,3 5,4 8,4 3,0 7,-2 12,-6 13,-11 27,-27 40,-49l13 9c-16,27 -36,49 -58,66 -17,13 -32,19 -48,19 -10,0 -18,-3 -24,-9 -6,-6 -10,-14 -10,-23 0,-10 4,-26 11,-48l53 -173c8,-28 12,-46 12,-53 0,-5 -2,-10 -6,-14 -4,-3 -9,-5 -16,-5 -5,0 -17,2 -35,4l0 -15 133 -21z"/>
   <g>
    <path class="fil1" d="M3965 2490l0 -6c31,-4 54,-14 69,-27 11,-10 16,-22 16,-35 0,-10 -3,-19 -9,-25 -7,-7 -14,-10 -23,-10 -15,0 -27,9 -38,26l-7 -2c6,-14 15,-26 25,-33 11,-8 22,-11 34,-11 15,0 28,4 37,13 9,9 14,20 14,34 0,12 -5,23 -13,34 -9,11 -24,21 -45,29 13,6 23,14 30,24 6,10 10,23 10,37 0,16 -5,32 -14,48 -9,16 -22,28 -38,37 -16,9 -33,13 -51,13 -16,0 -28,-3 -36,-8 -6,-4 -8,-9 -8,-14 0,-4 1,-8 5,-11 3,-3 7,-5 12,-5 3,0 6,1 10,2 2,0 7,3 15,7 8,5 14,8 18,9 5,2 9,2 14,2 12,0 21,-6 29,-20 7,-13 11,-27 11,-42 0,-12 -3,-23 -8,-33 -5,-10 -13,-17 -24,-23 -10,-6 -22,-9 -35,-10z"/>
    <circle class="fil0 str1" cx="4000" cy="2501" r="197"/>
   </g>
   <path class="fil1" d="M3928 4561l15 -71 -115 0 8 -35 158 -175 29 0 -39 179 41 0 -7 31 -40 0 -16 71 -34 0zm22 -102l25 -117 -106 117 81 0z"/>
   <circle class="fil0 str1" cx="3926" cy="4421" r="197"/>
   <g>
    <path class="fil1" d="M10868 1306l129 0 0 7 -145 258 -16 -7 128 -227 -62 0c-17,0 -29,1 -35,4 -6,3 -13,11 -21,22l-8 0 30 -57z"/>
    <circle class="fil0 str1" cx="10917" cy="1439" r="197"/>
   </g>
   <g>
    <path class="fil1" d="M10929 3598c13,13 22,26 27,37 6,12 9,24 9,35 0,21 -8,39 -24,55 -16,15 -35,23 -59,23 -20,0 -37,-6 -50,-19 -14,-13 -20,-27 -20,-44 0,-15 5,-29 16,-43 10,-14 31,-27 60,-40 -11,-14 -19,-25 -23,-35 -4,-9 -6,-18 -6,-26 0,-17 6,-32 19,-44 13,-13 29,-19 48,-19 19,0 34,6 45,16 12,11 18,23 18,37 0,14 -5,27 -14,39 -10,11 -25,20 -46,28zm-7 -8c14,-5 24,-13 32,-23 8,-11 11,-23 11,-37 0,-13 -3,-24 -11,-31 -7,-8 -17,-11 -29,-11 -11,0 -20,3 -27,10 -7,8 -11,17 -11,28 0,9 2,17 6,24 5,11 15,24 29,40zm-27 20c-19,8 -33,19 -43,34 -10,15 -15,31 -15,49 0,13 5,25 13,33 9,9 20,13 34,13 15,0 27,-5 37,-15 10,-11 15,-23 15,-37 0,-11 -3,-22 -9,-34 -5,-12 -16,-26 -32,-43z"/>
    <circle class="fil0 str1" cx="10900" cy="3613" r="197"/>
   </g>
   <g>
    <path class="fil1" d="M4016 4289l-50 170 31 0 -7 24 -30 0 -21 70 -28 0 20 -70 -94 0 8 -27 156 -167 15 0zm-43 49l-111 121 76 0 35 -121z"/>
    <circle class="fil0 str1" cx="3926" cy="4421" r="197"/>
   </g>
   <g>
    <path class="fil1" d="M7224 1377l87 0 -9 32 -79 0 -14 31c21,4 37,10 48,20 18,15 27,36 27,62 0,18 -3,34 -10,49 -6,14 -14,26 -24,36 -9,10 -19,17 -30,23 -15,7 -30,11 -45,11 -13,0 -23,-3 -31,-8 -5,-4 -7,-9 -7,-15 0,-4 1,-8 5,-11 3,-4 7,-5 12,-5 7,0 14,3 23,10 5,4 9,7 12,8 3,1 6,2 10,2 14,0 27,-7 40,-22 12,-14 18,-33 18,-56 0,-16 -3,-29 -10,-40 -6,-12 -15,-20 -25,-24 -9,-5 -23,-8 -39,-10l41 -93z"/>
    <circle class="fil0 str1" cx="7224" cy="1509" r="197"/>
   </g>
   <g>
    <circle class="fil0 str1" cx="7616" cy="4052" r="197"/>
    <g>
     <path class="fil1" d="M7707 3917l0 8c-22,5 -43,16 -64,32 -20,17 -38,38 -54,63 14,-5 25,-8 34,-8 16,0 30,5 41,17 12,12 18,28 18,48 0,30 -10,56 -30,78 -20,21 -41,32 -63,32 -21,0 -37,-8 -48,-23 -10,-15 -16,-33 -16,-53 0,-26 7,-52 19,-77 12,-26 28,-48 49,-66 21,-18 42,-32 65,-40 13,-5 29,-9 49,-11zm-127 119c-18,39 -27,72 -27,98 0,14 3,24 10,32 7,8 15,12 24,12 14,0 28,-11 41,-32 13,-21 19,-46 19,-74 0,-15 -4,-27 -11,-35 -7,-8 -16,-12 -27,-12 -4,0 -9,1 -13,2 -4,2 -9,5 -16,9z"/>
     <circle class="fil0 str1" cx="7616" cy="4052" r="197"/>
    </g>
   </g>
   <g>
    <polygon class="fil1" points="12451,3791 12451,3914 12574,3914 12574,3947 12451,3947 12451,4070 12418,4070 12418,3947 12296,3947 12296,3914 12418,3914 12418,3791 "/>
    <polygon class="fil1" points="12467,4659 12467,4791 12429,4791 12429,4659 "/>
    <rect class="fil0 str2" transform="matrix(-0.966762 -0.966762 0.966762 -0.966762 12457.4 4998.38)" width="707" height="707"/>
   </g>
   <g>
    <path class="fil1" d="M11270 5317l3 0 3 1 4 0 3 1 3 0 3 1 3 1 3 2 3 1 3 1 3 2 2 2 3 1 3 2 2 3 2 2 2 2 2 2 2 3 2 2 2 3 2 3 1 3 1 3 2 3 1 3 0 3 1 3 1 3 0 4 0 3 1 3 0 0 -1 4 0 3 0 3 -1 4 -1 3 0 3 -1 3 -2 3 -1 3 -1 3 -2 2 -2 3 -2 3 -2 2 -2 3 -2 2 -2 2 -2 2 -3 2 -3 2 -2 2 -3 1 -3 2 -3 1 -3 1 -3 1 -3 1 -3 1 -3 0 -4 1 -3 0 -3 0 0 0 -4 0 -3 0 -3 -1 -4 0 -3 -1 -3 -1 -3 -1 -3 -1 -3 -1 -3 -2 -2 -1 -3 -2 -3 -2 -2 -2 -3 -2 -2 -2 -2 -2 -2 -3 -2 -2 -2 -3 -2 -3 -1 -2 -2 -3 -1 -3 -1 -3 -1 -3 -1 -3 -1 -3 -1 -4 0 -3 0 -3 0 -4 0 0 0 -3 0 -3 0 -4 1 -3 1 -3 1 -3 1 -3 1 -3 1 -3 2 -3 1 -3 2 -3 2 -2 2 -3 2 -2 2 -2 2 -2 3 -3 2 -2 3 -1 3 -2 2 -2 3 -1 3 -1 3 -2 3 -1 3 -1 3 0 4 -1 3 0 3 -1 4 0 0 0zm1177 76l-1177 0 0 -19 1177 0 10 9 -10 10zm10 -10l0 10 -10 0 10 -10zm0 -385l0 385 -19 0 0 -385 19 0z"/>
   </g>
   <g>
    <path class="fil1" d="M12467 3101l0 531 -19 0 0 -531 19 0zm130 0l0 17 -280 0 0 -33 280 0 0 16z"/>
   </g>
   <g>
    <path class="fil1" d="M11274 1729l4 0 3 0 3 0 3 1 4 1 3 1 3 1 3 1 3 1 3 2 2 1 3 2 3 2 2 2 2 2 3 2 2 2 2 3 2 2 2 3 2 2 1 3 2 3 1 3 1 3 1 3 1 3 1 3 0 4 1 3 0 3 0 4 0 0 0 3 0 3 -1 4 0 3 -1 3 -1 3 -1 3 -1 3 -1 3 -2 3 -1 3 -2 2 -2 3 -2 2 -2 3 -2 2 -3 2 -2 2 -2 2 -3 2 -3 2 -2 2 -3 1 -3 1 -3 1 -3 1 -3 1 -4 1 -3 1 -3 0 -3 0 -4 0 0 0 -3 0 -3 0 -4 0 -3 -1 -3 -1 -3 -1 -3 -1 -3 -1 -3 -1 -3 -1 -3 -2 -3 -2 -2 -2 -3 -2 -2 -2 -2 -2 -3 -2 -2 -3 -2 -2 -1 -3 -2 -2 -2 -3 -1 -3 -2 -3 -1 -3 -1 -3 -1 -3 0 -3 -1 -3 0 -4 -1 -3 0 -3 0 0 0 -4 1 -3 0 -3 1 -4 0 -3 1 -3 1 -3 1 -3 2 -3 1 -3 2 -3 2 -2 1 -3 2 -2 2 -3 3 -2 2 -2 2 -2 3 -2 2 -2 3 -2 3 -1 3 -2 3 -1 3 -1 3 -1 3 -1 3 -1 3 -1 4 0 3 0 3 0 0 0zm1041 75l-1041 0 0 -19 1041 0 0 19zm89 -118l0 33 0 0 -4 0 -4 1 -3 0 -4 1 -4 1 -3 1 -4 1 -3 1 -3 2 -4 1 -3 2 -3 2 -3 2 -3 3 -2 2 -3 2 -3 3 -2 3 -2 3 -2 3 -2 3 -2 3 -2 3 -1 3 -2 4 -1 3 -1 4 -1 3 0 4 -1 4 0 4 0 4 -33 0 0 -6 0 -5 1 -6 1 -5 1 -5 2 -6 1 -5 2 -5 3 -4 2 -5 3 -5 2 -4 3 -4 4 -4 3 -4 4 -4 3 -3 4 -4 4 -3 5 -3 4 -3 5 -3 4 -2 5 -2 5 -2 5 -2 5 -1 5 -1 6 -1 5 -1 5 0 6 -1 0 0zm108 109l-33 0 0 0 0 -4 0 -4 -1 -4 0 -4 -1 -3 -1 -4 -1 -3 -2 -4 -1 -3 -2 -3 -2 -3 -2 -3 -2 -3 -2 -3 -2 -3 -3 -3 -3 -2 -2 -2 -3 -3 -3 -2 -3 -2 -3 -2 -4 -1 -3 -2 -3 -1 -4 -1 -3 -1 -4 -1 -4 -1 -3 0 -4 -1 -4 0 0 -33 6 1 5 0 5 1 6 1 5 1 5 1 5 2 5 2 5 2 4 2 5 3 4 3 5 3 4 3 4 4 3 3 4 4 3 4 4 4 3 4 2 4 3 5 2 5 3 4 2 5 1 5 2 6 1 5 1 5 1 6 0 5 0 6 0 0zm-108 108l0 -33 0 0 4 0 4 -1 3 0 4 -1 4 -1 3 -1 4 -1 3 -1 3 -2 4 -1 3 -2 3 -2 3 -2 3 -2 2 -3 3 -2 3 -3 2 -3 2 -3 2 -2 2 -4 2 -3 2 -3 1 -3 2 -4 1 -3 1 -4 1 -3 0 -4 1 -4 0 -4 0 -3 33 0 0 5 0 6 -1 5 -1 5 -1 6 -2 5 -1 5 -2 5 -3 4 -2 5 -3 5 -2 4 -3 4 -4 4 -3 4 -4 4 -3 4 -4 3 -4 3 -5 3 -4 3 -5 3 -4 2 -5 2 -5 2 -5 2 -5 1 -5 2 -6 0 -5 1 -5 1 -6 0 0 0zm-108 -108l33 0 0 3 0 4 1 4 0 4 1 3 1 4 1 3 2 4 1 3 2 3 2 3 2 4 2 2 2 3 2 3 3 3 3 2 2 3 3 2 3 2 3 2 3 2 4 1 3 2 3 1 4 1 3 1 4 1 4 1 3 0 4 1 4 0 0 33 -6 0 -5 -1 -5 -1 -6 0 -5 -2 -5 -1 -5 -2 -5 -2 -5 -2 -4 -2 -5 -3 -4 -3 -5 -3 -4 -3 -4 -3 -3 -4 -4 -4 -3 -4 -4 -4 -3 -4 -2 -4 -3 -5 -2 -5 -3 -4 -2 -5 -1 -5 -2 -5 -1 -6 -1 -5 -1 -5 0 -6 0 -5z"/>
   </g>
   <g>
    <path class="fil1" d="M12457 2256l0 632 -19 0 0 -632 19 0zm-10 -116l99 230 -6 -3 -6 -2 -6 -3 -6 -2 -7 -3 -6 -2 -6 -2 -6 -1 -6 -2 -7 -1 -6 -1 -6 -1 -6 0 -6 -1 -6 0 -7 0 -6 0 -6 0 -6 1 -6 0 -7 1 -6 1 -6 1 -6 2 -6 1 -6 2 -7 2 -6 3 -6 2 -6 3 -6 2 -7 3 0 0 99 -230z"/>
   </g>
   <path class="fil1" d="M12843 2352l182 0 -3 12c-19,0 -32,2 -40,5 -8,3 -15,9 -21,17 -5,8 -11,22 -17,44l-48 162c-9,28 -14,47 -15,56 -3,13 -4,24 -4,35 0,23 10,43 30,59 20,16 46,25 80,25 21,0 41,-5 58,-12 16,-8 31,-20 42,-34 12,-14 23,-34 33,-58 10,-25 19,-50 26,-75l38 -132c9,-34 14,-55 14,-65 0,-7 -3,-13 -9,-18 -7,-5 -20,-8 -40,-9l4 -12 137 0 -3 12c-17,0 -28,1 -35,4 -8,3 -14,9 -19,17 -5,8 -11,24 -18,47l-49 169c-15,55 -29,93 -42,115 -12,23 -31,42 -57,57 -25,15 -57,22 -95,22 -44,0 -79,-12 -106,-37 -27,-24 -40,-52 -40,-84 0,-13 1,-26 3,-40 2,-10 6,-26 13,-49l44 -147c6,-22 9,-37 9,-47 0,-8 -3,-14 -10,-19 -6,-4 -21,-7 -45,-8l3 -12z"/>
   <path id="1" class="fil1" d="M13406 2874c-16,18 -32,32 -48,41 -15,8 -32,13 -50,13 -21,0 -37,-6 -49,-18 -12,-12 -18,-28 -18,-48 0,-23 6,-45 19,-67 13,-22 30,-40 52,-54 21,-14 42,-21 63,-21 16,0 28,4 36,11 9,6 13,15 13,25 0,9 -3,17 -9,23 -4,5 -9,8 -15,8 -5,0 -9,-2 -12,-5 -3,-3 -4,-6 -4,-11 0,-3 0,-5 1,-8 1,-2 4,-5 7,-8 4,-4 6,-6 7,-7 0,-2 1,-4 1,-5 0,-3 -2,-6 -5,-8 -4,-3 -10,-4 -18,-4 -15,0 -29,5 -44,15 -14,10 -27,25 -37,44 -12,23 -18,45 -18,68 0,16 4,28 13,36 8,9 20,14 35,14 12,0 23,-3 35,-9 11,-6 24,-16 38,-31l7 6z"/>
   <path class="fil1" d="M13150 4653l-103 358c-6,22 -9,37 -9,46 0,8 2,14 8,18 5,4 18,7 38,9l-3 11 -165 0 5 -11c17,-1 29,-2 34,-4 9,-4 16,-9 20,-16 8,-10 15,-27 22,-53l74 -257c4,-15 7,-24 7,-27 1,-4 1,-8 1,-12 0,-7 -2,-13 -6,-17 -4,-5 -9,-7 -16,-7 -6,0 -15,2 -26,4l-4 -12 107 -30 16 0z"/>
   <path id="1" class="fil1" d="M13508 4662l183 0 -4 12c-19,0 -32,2 -40,5 -8,3 -15,9 -20,17 -6,8 -12,22 -18,44l-48 162c-8,28 -13,47 -15,56 -2,13 -4,24 -4,35 0,23 10,43 30,59 20,16 46,25 80,25 22,0 41,-5 58,-12 16,-8 31,-20 43,-34 12,-14 22,-34 32,-58 10,-25 19,-50 26,-75l38 -132c10,-34 14,-55 14,-65 0,-7 -3,-13 -9,-18 -7,-5 -20,-8 -40,-9l4 -12 137 0 -3 12c-17,0 -28,1 -35,4 -7,3 -14,9 -19,17 -5,8 -11,24 -18,47l-49 169c-15,55 -29,93 -42,115 -12,23 -31,42 -57,57 -25,15 -57,22 -95,22 -44,0 -79,-12 -106,-37 -27,-24 -40,-52 -40,-84 0,-13 1,-26 3,-40 2,-10 6,-26 13,-49l44 -147c6,-22 9,-37 9,-47 0,-8 -3,-14 -9,-19 -6,-4 -22,-7 -46,-8l3 -12z"/>
   <path id="2" class="fil1" d="M13313 4837c9,0 17,3 23,10 7,6 10,14 10,24 0,9 -3,17 -10,24 -6,6 -14,10 -23,10 -10,0 -18,-4 -24,-10 -7,-7 -10,-15 -10,-24 0,-10 3,-18 10,-24 6,-7 14,-10 24,-10z"/>
   <path id="3" class="fil1" d="M14071 5184c-16,18 -31,32 -47,41 -16,8 -33,13 -50,13 -22,0 -38,-6 -50,-18 -12,-12 -18,-28 -18,-48 0,-23 7,-45 19,-67 13,-22 30,-40 52,-54 21,-14 42,-21 63,-21 16,0 29,4 37,11 8,6 12,15 12,25 0,9 -3,17 -9,23 -4,5 -9,8 -15,8 -5,0 -8,-2 -11,-5 -4,-3 -5,-6 -5,-11 0,-3 0,-5 2,-8 1,-2 3,-5 6,-8 4,-4 6,-6 7,-7 1,-2 1,-4 1,-5 0,-3 -1,-6 -4,-8 -5,-3 -11,-4 -19,-4 -15,0 -29,5 -44,15 -14,10 -27,25 -37,44 -12,23 -18,45 -18,68 0,16 4,28 13,36 9,9 20,14 36,14 11,0 23,-3 34,-9 11,-6 24,-16 38,-31l7 6z"/>
   <g>
    <path class="fil2" d="M5398 3185l-9 33 -53 0c4,11 6,22 6,32 0,29 -12,54 -36,76 -25,22 -58,34 -100,36 -23,7 -39,15 -50,25 -5,3 -7,7 -7,11 0,4 2,8 6,11 4,4 14,7 29,11l62 14c35,8 58,18 69,29 10,11 16,24 16,39 0,17 -7,33 -20,48 -13,14 -31,25 -56,34 -25,8 -53,12 -83,12 -26,0 -50,-3 -72,-9 -21,-7 -37,-15 -46,-26 -10,-11 -14,-22 -14,-33 0,-9 3,-19 9,-28 6,-10 13,-18 22,-25 6,-4 22,-13 49,-29 -10,-7 -14,-16 -14,-25 0,-8 4,-17 12,-27 8,-10 26,-20 53,-32 -23,-4 -41,-14 -54,-29 -13,-15 -20,-32 -20,-50 0,-31 13,-58 40,-82 27,-24 62,-35 107,-35 16,0 29,1 39,4 10,4 20,8 30,15l85 0zm-109 50c0,-17 -5,-30 -14,-40 -10,-9 -23,-14 -39,-14 -25,0 -46,12 -62,36 -16,24 -25,49 -25,75 0,17 6,30 16,40 10,11 23,16 38,16 12,0 23,-3 34,-9 11,-6 20,-15 28,-26 7,-11 13,-24 18,-41 4,-17 6,-29 6,-37zm-155 220c-17,8 -30,18 -39,30 -9,12 -14,25 -14,37 0,14 7,25 20,34 18,14 45,20 81,20 30,0 56,-5 78,-15 22,-11 33,-24 33,-40 0,-9 -4,-17 -12,-24 -8,-8 -24,-14 -47,-18 -13,-3 -46,-11 -100,-24z"/>
    <circle class="fil0 str3" cx="5219" cy="3381" r="306"/>
   </g>
   <polyline class="fil0 str1" points="2749,4806 2190,4806 2183,3272 2176,1977 2749,1977 "/>
   <g>
    <ellipse class="fil0 str0" cx="544" cy="3920" rx="525" ry="529"/>
    <polygon class="fil1" points="444,3574 511,3574 511,3506 568,3506 568,3574 635,3574 635,3630 568,3630 568,3697 511,3697 511,3630 444,3630 "/>
    <polygon class="fil1" points="457,4260 641,4260 641,4299 457,4299 "/>
    <ellipse class="fil0 str0" cx="544" cy="3920" rx="525" ry="529"/>
    <polygon class="fil1" points="444,3574 511,3574 511,3506 568,3506 568,3574 635,3574 635,3630 568,3630 568,3697 511,3697 511,3630 444,3630 "/>
    <polygon class="fil1" points="457,4260 641,4260 641,4299 457,4299 "/>
   </g>
   <g>
    <path class="fil1" d="M2465 1436l-62 214c-3,13 -5,22 -5,28 0,5 2,8 5,11 3,2 11,4 23,5l-2 7 -99 0 3 -7c10,0 17,-1 21,-3 5,-2 9,-5 12,-9 4,-6 8,-16 13,-32l44 -154c3,-9 4,-15 4,-16 1,-2 1,-5 1,-7 0,-5 -1,-8 -4,-11 -2,-2 -5,-4 -10,-4 -3,0 -8,1 -15,3l-3 -7 65 -18 9 0z"/>
    <circle class="fil0 str1" cx="2395" cy="1568" r="197"/>
   </g>
   <g>
    <path class="fil1" d="M2746 5270l-138 0 0 -7c36,-34 67,-64 91,-92 21,-23 34,-41 39,-53 5,-12 8,-25 8,-37 0,-12 -4,-21 -11,-28 -7,-8 -16,-11 -27,-11 -18,0 -33,9 -46,29l-7 -3c7,-19 15,-33 26,-43 15,-14 32,-21 52,-21 18,0 33,6 45,17 12,12 18,25 18,40 0,13 -3,26 -8,39 -6,13 -18,29 -37,48 -14,15 -42,41 -85,78l50 0c16,0 27,-2 34,-6 6,-3 12,-11 18,-22l9 0 -31 72z"/>
    <circle class="fil0 str1" cx="2702" cy="5137" r="197"/>
   </g>
   <g>
    <path class="fil1" d="M2182 2043l-4 0 -3 -1 -3 0 -3 -1 -4 0 -3 -1 -3 -1 -3 -2 -3 -1 -3 -1 -2 -2 -3 -2 -3 -2 -2 -1 -2 -3 -3 -2 -2 -2 -2 -2 -2 -3 -2 -2 -2 -3 -1 -3 -2 -3 -1 -3 -1 -3 -1 -3 -1 -3 -1 -3 0 -3 -1 -4 0 -3 0 -3 0 0 0 -4 0 -3 1 -3 0 -4 1 -3 1 -3 1 -3 1 -3 1 -3 2 -3 1 -2 2 -3 2 -3 2 -2 2 -3 2 -2 3 -2 2 -2 2 -2 3 -2 3 -2 2 -1 3 -2 3 -1 3 -1 3 -1 3 -1 4 -1 3 0 3 -1 3 0 4 0 0 0 3 0 4 0 3 1 3 0 3 1 3 1 3 1 3 1 3 1 3 2 3 1 3 2 2 2 3 2 2 2 2 2 3 2 2 3 2 2 1 3 2 3 2 2 1 3 2 3 1 3 1 3 1 3 0 3 1 4 0 3 1 3 0 4 0 0 0 3 -1 3 0 4 -1 3 0 3 -1 3 -1 3 -1 3 -2 3 -1 3 -2 3 -2 3 -1 2 -2 3 -2 2 -3 2 -2 2 -2 3 -3 1 -2 2 -3 2 -3 2 -3 1 -3 1 -3 2 -3 1 -3 1 -3 0 -3 1 -3 0 -4 1 -3 0 0 0zm-1642 -76l1642 0 0 19 -1642 0 -9 -9 9 -10zm-9 10l0 -10 9 0 -9 10zm0 1414l0 -1414 18 0 0 1414 -18 0z"/>
   </g>
   <g>
    <path class="fil1" d="M534 5203l0 -754 19 0 0 754 -19 0zm-130 0l0 -16 279 0 0 33 -279 0 0 -17z"/>
   </g>
   <path class="fil1" d="M1266 4124l35 -361c2,-18 3,-30 3,-37 0,-9 -4,-17 -11,-24 -7,-6 -18,-9 -34,-9l-11 0 3 -12 171 0 -3 12c-19,0 -32,2 -39,5 -6,4 -12,10 -16,19 -2,5 -4,18 -7,40l-25 259 170 -231c18,-25 30,-42 34,-52 3,-7 5,-12 5,-17 0,-6 -2,-11 -7,-16 -5,-4 -14,-6 -28,-7l4 -12 130 0 -3 12c-11,1 -19,3 -25,6 -12,5 -24,14 -35,25 -12,11 -30,34 -55,68l-244 332 -12 0z"/>
   <path id="1" class="fil1" d="M1743 4203c-15,18 -31,32 -47,41 -16,9 -32,13 -50,13 -21,0 -38,-6 -50,-18 -11,-12 -17,-28 -17,-48 0,-23 6,-45 19,-67 12,-22 30,-40 51,-54 22,-14 43,-20 64,-20 16,0 28,3 36,10 8,6 12,15 12,25 0,9 -3,17 -8,23 -4,5 -9,8 -16,8 -4,0 -8,-2 -11,-5 -3,-3 -5,-6 -5,-11 0,-3 1,-5 2,-8 1,-2 4,-5 7,-8 3,-3 6,-6 6,-7 1,-2 1,-3 1,-5 0,-3 -1,-6 -4,-8 -4,-3 -10,-4 -18,-4 -15,0 -30,5 -44,15 -15,10 -27,25 -37,44 -13,23 -19,46 -19,68 0,16 5,28 13,36 9,9 21,14 36,14 12,0 23,-3 34,-9 12,-6 25,-16 39,-31l6 6z"/>
  </g>
 </g>
</svg>
