<?xml version="1.0" encoding="UTF-8"?>
<!DOCTYPE svg PUBLIC "-//W3C//DTD SVG 1.1//EN" "http://www.w3.org/Graphics/SVG/1.1/DTD/svg11.dtd">
<!-- Creator: CorelDRAW Home & Student X8 -->
<svg xmlns="http://www.w3.org/2000/svg" xml:space="preserve" width="148.938mm" height="61.0635mm" version="1.1" style="shape-rendering:geometricPrecision; text-rendering:geometricPrecision; image-rendering:optimizeQuality; fill-rule:evenodd; clip-rule:evenodd"
viewBox="0 0 11275 4623"
 xmlns:xlink="http://www.w3.org/1999/xlink">
 <defs>
  <style type="text/css">
   <![CDATA[
    .str0 {stroke:#2B2A29;stroke-width:30.2809}
    .str2 {stroke:#2B2A29;stroke-width:22.7106}
    .str1 {stroke:#2B2A29;stroke-width:15.1404}
    .str3 {stroke:#E31E24;stroke-width:15.1404}
    .fil0 {fill:none}
    .fil1 {fill:#2B2A29;fill-rule:nonzero}
    .fil2 {fill:#E31E24;fill-rule:nonzero}
   ]]>
  </style>
 </defs>
 <g id="Warstwa_x0020_1">
  <metadata id="CorelCorpID_0Corel-Layer"/>
  <g id="_629218624">
   <polyline class="fil0 str0" points="1486,1626 1439,1743 1344,1505 1249,1743 1154,1505 1059,1743 964,1505 917,1626 "/>
   <polyline class="fil0 str0" points="2736,1626 2688,1743 2594,1505 2499,1743 2404,1505 2309,1743 2214,1505 2166,1626 "/>
   <polyline class="fil0 str0" points="2736,3936 2688,4053 2594,3815 2499,4053 2404,3815 2309,4053 2214,3815 2166,3936 "/>
   <polyline class="fil0 str0" points="1486,3936 1439,4053 1344,3815 1249,4053 1154,3815 1059,4053 964,3815 917,3936 "/>
   <path class="fil0 str0" d="M3496 1931l-459 0m451 209c-155,-146 -273,-144 -424,1"/>
   <path class="fil0 str0" d="M3494 3554l-460 0m451 -209c-155,145 -272,144 -424,-1"/>
   <ellipse class="fil0 str0" cx="444" cy="2766" rx="429" ry="432"/>
   <polygon class="fil1" points="363,2483 417,2483 417,2428 464,2428 464,2483 519,2483 519,2530 464,2530 464,2584 417,2584 417,2530 363,2530 "/>
   <polygon class="fil1" points="373,3044 523,3044 523,3076 373,3076 "/>
   <polygon class="fil1" points="10607,4424 10757,4424 10757,4456 10607,4456 "/>
   <polyline class="fil0 str1" points="5999,1466 7840,1466 7840,231 5694,231 "/>
   <g>
    <path class="fil1" d="M1851 235l3702 0 0 16 -3702 0 -7 -8 7 -8zm-7 8l0 -8 7 0 -7 8zm0 1368l0 -1368 15 0 0 1368 -15 0zm61 0l0 0 0 2 0 3 -1 3 0 2 -1 3 0 2 -1 3 -1 2 -1 3 -1 2 -2 2 -1 3 -2 2 -1 2 -2 2 -2 2 -2 1 -2 2 -2 2 -2 1 -2 2 -2 1 -2 1 -3 1 -2 1 -3 1 -2 1 -3 0 -3 1 -2 0 -3 0 -3 0 0 0 -3 0 -2 0 -3 0 -3 -1 -2 0 -3 -1 -2 -1 -3 -1 -2 -1 -2 -1 -3 -1 -2 -2 -2 -1 -2 -2 -2 -2 -2 -1 -2 -2 -1 -2 -2 -2 -1 -2 -2 -3 -1 -2 -1 -2 -1 -3 -1 -2 -1 -3 -1 -2 -1 -3 0 -2 0 -3 -1 -3 0 -2 0 0 0 -3 1 -3 0 -3 0 -2 1 -3 1 -2 1 -3 1 -2 1 -3 1 -2 1 -2 2 -3 1 -2 2 -2 1 -2 2 -2 2 -1 2 -2 2 -2 2 -1 2 -2 3 -1 2 -1 2 -1 3 -1 2 -1 3 -1 2 0 3 -1 3 0 2 0 3 0 0 0 3 0 3 0 2 0 3 1 3 0 2 1 3 1 2 1 3 1 2 1 2 1 2 2 2 1 2 2 2 2 2 1 2 2 2 2 1 2 2 2 1 3 2 2 1 2 1 3 1 2 1 3 0 2 1 3 0 2 1 3 0 3 0 3z"/>
   </g>
   <line class="fil0 str1" x1="3266" y1="2036" x2="3266" y2= "2742" />
   <g>
    <path class="fil1" d="M4523 1653l0 0 -3 -1 -3 0 -3 0 -2 -1 -3 0 -2 -1 -3 -1 -2 -1 -3 -1 -2 -1 -2 -1 -3 -2 -2 -1 -2 -2 -2 -1 -1 -2 -2 -2 -2 -2 -2 -2 -1 -2 -1 -2 -2 -3 -1 -2 -1 -2 -1 -3 -1 -2 -1 -3 0 -2 -1 -3 0 -3 0 -3 0 -2 27 0 0 1 0 1 0 2 0 1 0 1 1 2 0 1 1 1 0 1 1 1 1 2 0 1 1 1 1 1 1 1 1 1 0 1 1 0 1 1 2 1 1 1 1 0 1 1 1 0 1 1 2 0 1 1 1 0 1 0 2 0 1 1 2 0 0 0 0 27zm53 -54l0 0 0 2 0 3 0 3 -1 3 0 2 -1 3 -1 2 -1 3 -1 2 -1 2 -1 3 -2 2 -1 2 -2 2 -2 2 -1 2 -2 2 -2 1 -2 2 -2 1 -3 2 -2 1 -2 1 -3 1 -2 1 -2 1 -3 1 -3 0 -2 1 -3 0 -3 0 -2 1 0 -27 1 0 1 -1 2 0 1 0 1 0 2 -1 1 0 1 -1 1 0 1 -1 1 0 2 -1 1 -1 1 -1 1 0 1 -1 0 -1 1 -1 1 -1 1 -1 1 -1 0 -2 1 -1 0 -1 1 -1 0 -1 1 -2 0 -1 0 -1 0 -2 0 -1 0 -1 0 0 27 0zm-53 -54l0 0 2 0 3 0 3 0 2 1 3 1 3 0 2 1 2 1 3 1 2 1 2 2 3 1 2 2 2 1 2 2 2 2 1 1 2 2 2 2 1 3 2 2 1 2 1 2 1 3 1 2 1 3 1 2 0 3 1 2 0 3 0 3 0 3 -27 0 0 -2 0 -1 0 -1 0 -2 0 -1 -1 -1 0 -2 -1 -1 0 -1 -1 -1 0 -1 -1 -1 -1 -1 -1 -1 -1 -1 0 -1 -1 -1 -1 -1 -1 -1 -1 -1 -2 0 -1 -1 -1 -1 -1 0 -1 -1 -1 0 -2 0 -1 -1 -1 0 -2 0 -1 0 -1 0 0 0 0 -27zm-54 54l0 -3 0 -3 0 -3 1 -2 0 -3 1 -2 1 -3 1 -2 1 -3 1 -2 2 -2 1 -2 1 -3 2 -2 2 -2 2 -1 1 -2 2 -2 2 -1 2 -2 3 -1 2 -2 2 -1 3 -1 2 -1 3 -1 2 0 3 -1 2 -1 3 0 3 0 3 0 0 27 -2 0 -1 0 -2 0 -1 0 -1 1 -1 0 -2 0 -1 1 -1 0 -1 1 -1 1 -1 0 -2 1 -1 1 -1 1 0 1 -1 1 -1 1 -1 1 -1 1 0 1 -1 1 -1 1 0 1 -1 1 0 2 -1 1 0 1 0 2 0 1 0 1 0 2 -27 0zm-1733 -8l1749 0 0 15 -1749 0 0 -15z"/>
   </g>
   <g>
    <path class="fil1" d="M3296 1622l0 3 0 3 0 2 -1 3 -1 3 0 2 -1 3 -1 2 -1 3 -1 2 -2 2 -1 2 -2 2 -1 2 -2 2 -2 2 -2 2 -1 2 -3 1 -2 2 -2 1 -2 2 -2 1 -3 1 -2 1 -3 1 -2 0 -3 1 -3 0 -2 1 -3 0 -3 0 0 0 -2 0 -3 0 -3 -1 -3 0 -2 -1 -3 0 -2 -1 -3 -1 -2 -1 -2 -1 -3 -2 -2 -1 -2 -2 -2 -1 -2 -2 -2 -2 -2 -2 -1 -2 -2 -2 -1 -2 -2 -2 -1 -2 -1 -2 -1 -3 -1 -2 -1 -3 -1 -2 0 -3 -1 -3 0 -2 0 -3 -1 -3 0 0 1 -2 0 -3 0 -3 1 -3 0 -2 1 -3 1 -2 1 -3 1 -2 1 -2 1 -3 2 -2 1 -2 2 -2 1 -2 2 -2 2 -2 2 -1 2 -2 2 -1 2 -2 3 -1 2 -1 2 -1 3 -1 2 -1 3 -1 2 0 3 -1 3 0 3 0 2 -1 0 0 3 1 3 0 2 0 3 1 3 0 2 1 3 1 2 1 3 1 2 1 2 1 2 2 2 1 3 2 1 1 2 2 2 2 2 2 1 2 2 2 1 2 2 3 1 2 1 2 1 3 1 2 0 3 1 2 1 3 0 3 0 3 0 2 0 0zm-61 307l0 -307 15 0 0 307 -15 0z"/>
   </g>
   <path class="fil0 str0" d="M5704 460l0 -460m-208 451c145,-155 144,-272 -1,-424"/>
   <path class="fil0 str0" d="M5669 4620l0 -459m-208 451c145,-155 144,-273 -2,-424"/>
   <polygon class="fil1" points="10618,1486 10672,1486 10672,1431 10719,1431 10719,1486 10774,1486 10774,1532 10719,1532 10719,1587 10672,1587 10672,1532 10618,1532 "/>
   <line class="fil0 str1" x1="2166" y1="1626" x2="1486" y2= "1626" />
   <polyline class="fil0 str1" points="917,1626 448,1626 448,2334 "/>
   <g>
    <path class="fil1" d="M4681 2971l0 0 0 3 0 3 -1 3 0 2 -1 3 -1 2 0 3 -1 2 -1 3 -2 2 -1 2 -1 2 -2 3 -1 2 -2 2 -2 1 -2 2 -2 2 -2 1 -2 2 -2 1 -2 2 -3 1 -2 1 -2 1 -3 1 -3 0 -2 1 -3 1 -3 0 -2 0 -3 0 0 -27 1 0 2 0 1 0 1 0 2 -1 1 0 1 0 1 -1 2 0 1 -1 1 -1 1 0 1 -1 1 -1 1 -1 1 -1 1 -1 1 -1 1 -1 0 -1 1 -1 1 -1 0 -1 1 -1 0 -1 1 -2 0 -1 0 -1 1 -2 0 -1 0 -1 0 -2 0 0 27 0zm-54 -53l0 0 3 0 2 0 3 0 3 1 2 0 3 1 3 1 2 1 2 1 3 1 2 1 2 2 2 1 2 2 2 2 2 1 2 2 2 2 1 2 2 2 1 2 1 3 2 2 1 2 1 3 0 2 1 3 1 3 0 2 1 3 0 3 0 2 -27 0 0 -1 0 -1 0 -2 -1 -1 0 -1 0 -2 -1 -1 0 -1 -1 -1 0 -1 -1 -2 -1 -1 0 -1 -1 -1 -1 -1 -1 -1 -1 -1 -1 0 -1 -1 -1 -1 -1 -1 -1 0 -1 -1 -2 0 -1 -1 -1 0 -1 -1 -2 0 -1 0 -1 0 -2 -1 -1 0 0 0 0 -26zm-54 53l0 0 0 -2 0 -3 1 -3 0 -2 1 -3 1 -3 0 -2 1 -3 1 -2 2 -2 1 -3 1 -2 2 -2 1 -2 2 -2 2 -2 2 -1 2 -2 2 -2 2 -1 2 -2 2 -1 3 -1 2 -1 2 -1 3 -1 3 -1 2 0 3 -1 3 0 2 0 3 0 0 26 -1 0 -2 1 -1 0 -1 0 -2 0 -1 1 -1 0 -1 1 -2 0 -1 1 -1 0 -1 1 -1 1 -1 1 -1 0 -1 1 -1 1 -1 1 -1 1 0 1 -1 1 -1 2 0 1 -1 1 0 1 -1 1 0 2 0 1 -1 1 0 2 0 1 0 1 0 0 -27 0zm54 54l-3 0 -2 0 -3 0 -3 -1 -2 -1 -3 0 -3 -1 -2 -1 -2 -1 -3 -1 -2 -2 -2 -1 -2 -2 -2 -1 -2 -2 -2 -2 -2 -1 -2 -2 -1 -2 -2 -3 -1 -2 -1 -2 -2 -2 -1 -3 -1 -2 0 -3 -1 -2 -1 -3 0 -2 -1 -3 0 -3 0 -3 27 0 0 2 0 1 0 1 1 2 0 1 0 1 1 2 0 1 1 1 0 1 1 1 1 1 0 1 1 1 1 1 1 1 1 1 1 1 1 1 1 1 1 0 1 1 1 1 2 0 1 1 1 0 1 0 2 1 1 0 1 0 2 0 1 0 0 27zm-8 878l0 -894 16 0 0 894 -8 7 -8 -7zm16 0l0 7 -8 0 8 -7zm-1374 -8l1366 0 0 15 -1366 0 -8 -7 8 -8zm0 15l-8 0 0 -7 8 7zm6 -351l1 344 -15 0 -2 -344 16 0z"/>
   </g>
   <g>
    <path class="fil1" d="M3261 3956l-3 0 -2 0 -3 0 -3 0 -2 -1 -3 -1 -2 -1 -3 0 -2 -2 -2 -1 -3 -1 -2 -1 -2 -2 -2 -1 -2 -2 -2 -2 -2 -2 -2 -2 -1 -2 -2 -2 -1 -2 -1 -2 -2 -2 -1 -3 -1 -2 -1 -3 0 -2 -1 -3 -1 -2 0 -3 0 -3 0 -3 0 0 0 -2 0 -3 0 -3 1 -3 0 -2 1 -3 1 -2 1 -3 1 -2 1 -2 1 -3 2 -2 1 -2 2 -2 1 -2 2 -2 2 -2 2 -1 2 -2 2 -2 2 -1 2 -1 3 -2 2 -1 2 -1 3 -1 2 0 3 -1 3 0 2 -1 3 0 3 0 0 0 3 0 2 0 3 0 3 1 2 0 3 1 2 1 3 1 2 1 3 1 2 1 2 2 2 1 2 2 2 1 2 2 2 2 2 2 1 2 2 2 1 2 2 2 1 3 1 2 1 3 1 2 0 3 1 2 1 3 0 2 0 3 0 3 0 0 0 3 0 2 0 3 -1 3 0 2 -1 3 -1 3 -1 2 -1 2 -1 3 -1 2 -1 2 -2 2 -2 2 -1 2 -2 2 -2 2 -2 2 -2 1 -2 2 -2 1 -2 2 -3 1 -2 1 -2 1 -3 1 -2 1 -3 0 -3 1 -2 0 -3 0 -3 0 0 0zm-525 -54l524 -7 1 15 -525 7 0 -15z"/>
   </g>
   <line class="fil0 str1" x1="2166" y1="3936" x2="1486" y2= "3936" />
   <polyline class="fil0 str1" points="917,3936 460,3936 460,3198 "/>
   <polyline class="fil0 str1" points="5999,2641 7816,2654 7836,4397 5726,4397 "/>
   <g>
    <path class="fil1" d="M1816 4392l3748 0 0 15 -3748 0 -8 -7 8 -8zm0 15l-8 0 0 -7 8 7zm7 -471l0 464 -15 0 0 -464 15 0zm-61 0l0 0 0 -2 0 -3 0 -3 1 -2 1 -3 0 -3 1 -2 1 -2 1 -3 1 -2 2 -2 1 -3 2 -2 1 -2 2 -2 2 -2 2 -1 1 -2 3 -2 2 -1 2 -2 2 -1 2 -1 3 -1 2 -1 3 -1 2 -1 3 0 3 -1 2 0 3 0 3 0 0 0 2 0 3 0 3 0 3 1 2 0 3 1 2 1 3 1 2 1 2 1 3 1 2 2 2 1 2 2 2 2 2 1 2 2 1 2 2 2 1 2 2 3 1 2 1 2 1 3 1 2 1 2 1 3 0 3 1 2 0 3 0 3 1 2 0 0 -1 3 0 3 0 3 -1 2 0 3 -1 2 -1 3 -1 2 -1 3 -1 2 -1 2 -2 2 -1 3 -2 2 -1 2 -2 1 -2 2 -2 2 -2 2 -2 1 -2 1 -3 2 -2 1 -2 1 -3 1 -2 1 -3 1 -2 0 -3 1 -3 0 -3 0 -2 0 0 0 -3 0 -3 0 -2 0 -3 -1 -3 0 -2 -1 -3 -1 -2 -1 -3 -1 -2 -1 -2 -2 -2 -1 -2 -1 -3 -2 -1 -2 -2 -2 -2 -1 -2 -2 -1 -2 -2 -3 -1 -2 -2 -2 -1 -2 -1 -3 -1 -2 -1 -3 0 -2 -1 -3 -1 -2 0 -3 0 -3 0 -3z"/>
   </g>
   <path class="fil1" d="M1007 3536l-23 83c-4,12 -5,20 -5,26 0,5 2,9 6,12 4,3 13,5 26,5l-3 7 -131 0 3 -7c13,0 22,-2 28,-7 6,-6 12,-17 17,-35l50 -174c3,-10 4,-18 4,-24 0,-5 -2,-9 -5,-12 -4,-3 -12,-5 -24,-6l2 -7 112 0c33,0 55,6 68,17 13,11 20,26 20,43 0,19 -8,36 -23,51 -10,9 -27,17 -52,24l25 82c6,23 12,36 17,41 5,4 13,7 24,7l0 7 -84 0 -39 -133 -6 1c-2,0 -4,0 -7,-1zm4 -11c4,0 8,0 11,0 20,0 35,-7 48,-20 12,-14 18,-31 18,-53 0,-13 -3,-22 -10,-29 -6,-7 -15,-10 -26,-10 -3,0 -6,0 -9,0l-32 112z"/>
   <path id="1" class="fil1" d="M1347 3392l-67 228c-3,12 -5,20 -5,23 0,3 1,6 4,10 2,3 5,6 8,7 2,1 11,1 25,2l-2 7 -137 0 2 -7c14,0 23,-1 29,-3 5,-2 9,-5 13,-10 3,-5 7,-14 11,-29l40 -135c7,-21 10,-32 10,-33 1,-3 1,-7 1,-10 0,-6 -2,-11 -5,-14 -4,-4 -9,-6 -16,-6 -3,0 -10,1 -20,2l-2 -7 103 -25 8 0z"/>
   <path id="2" class="fil1" d="M1504 3391l-36 121c10,-12 19,-19 25,-23 7,-4 14,-5 22,-5 15,0 27,5 34,17 8,11 12,25 12,40 0,36 -13,68 -39,96 -22,25 -48,38 -77,38 -22,0 -44,-7 -68,-20l61 -211c3,-10 5,-17 5,-21 0,-3 -1,-6 -4,-8 -4,-3 -10,-4 -18,-4l1 -8 69 -12 13 0zm-79 266c6,4 12,6 17,6 6,0 12,-1 17,-4 7,-5 15,-13 23,-25 7,-12 14,-26 20,-43 5,-17 8,-33 8,-50 0,-10 -2,-17 -6,-22 -4,-5 -9,-7 -14,-7 -9,0 -17,5 -23,14 -4,6 -9,19 -14,39l-28 92z"/>
   <path class="fil1" d="M2189 1203l-23 83c-4,11 -5,20 -5,26 0,5 2,9 6,12 4,3 12,5 26,5l-3 7 -131 0 2 -7c14,0 23,-3 29,-8 6,-5 12,-16 17,-34l50 -175c3,-9 4,-17 4,-23 0,-5 -2,-9 -5,-12 -4,-3 -12,-5 -24,-6l2 -7 112 0c33,0 55,6 68,17 13,11 20,26 20,43 0,19 -8,35 -23,50 -10,10 -27,18 -52,25l25 82c6,22 12,36 17,41 5,4 13,7 24,7l0 7 -84 0 -39 -133 -6 1c-2,0 -4,-1 -7,-1zm4 -12c4,1 8,1 11,1 20,0 35,-7 48,-20 12,-14 18,-31 18,-53 0,-13 -3,-23 -10,-29 -6,-7 -15,-10 -26,-10 -3,0 -6,0 -9,0l-32 111z"/>
   <path id="1" class="fil1" d="M2491 1336l-144 0 0 -7c38,-35 69,-67 95,-96 22,-24 35,-43 41,-56 5,-12 8,-25 8,-38 0,-12 -4,-22 -12,-30 -7,-7 -17,-11 -28,-11 -19,0 -35,10 -48,30l-7 -3c7,-20 16,-35 27,-45 15,-14 33,-21 54,-21 19,0 35,6 48,18 12,12 18,25 18,41 0,14 -3,27 -9,41 -6,13 -19,30 -38,50 -15,16 -44,43 -89,81l52 0c17,0 29,-2 36,-6 6,-3 13,-11 18,-23l10 0 -32 75z"/>
   <path id="2" class="fil1" d="M2748 1153l-40 133 -4 16c0,2 0,4 0,5 0,1 0,3 1,4 2,1 3,2 4,2 3,0 6,-2 11,-7 2,-1 7,-7 14,-18l7 4c-9,17 -19,30 -30,37 -11,8 -22,12 -34,12 -8,0 -14,-2 -18,-5 -4,-4 -6,-9 -6,-15 0,-5 2,-15 7,-29l5 -16c-16,26 -31,45 -45,56 -8,6 -17,9 -26,9 -13,0 -22,-5 -27,-15 -6,-10 -8,-21 -8,-34 0,-19 5,-40 17,-65 11,-24 27,-44 45,-58 16,-13 30,-19 44,-19 7,0 13,2 18,7 5,4 8,12 10,23l7 -24 48 -3zm-64 38c0,-10 -2,-18 -6,-23 -2,-3 -5,-5 -9,-5 -5,0 -9,2 -13,6 -9,8 -19,25 -30,50 -10,25 -15,47 -15,65 0,8 1,13 3,16 3,3 5,4 8,4 6,0 12,-3 18,-10 9,-10 17,-22 24,-36 13,-25 20,-47 20,-67z"/>
   <path class="fil1" d="M5645 557l-20 86 -7 0c-1,-24 -7,-41 -17,-53 -11,-12 -25,-17 -43,-17 -18,0 -37,8 -55,23 -19,16 -34,40 -47,73 -11,26 -16,52 -16,78 0,23 6,41 17,53 12,12 27,18 47,18 16,0 31,-4 44,-11 13,-7 27,-18 40,-33l10 0c-17,24 -34,42 -51,52 -17,10 -37,15 -62,15 -33,0 -59,-10 -79,-30 -20,-20 -30,-46 -30,-78 0,-30 8,-58 24,-85 16,-27 39,-49 69,-66 30,-17 59,-25 89,-25 11,0 25,2 42,7 9,2 15,3 18,3 7,0 13,-3 20,-10l7 0z"/>
   <path id="1" class="fil1" d="M5807 557l-67 228c-4,12 -6,20 -6,23 0,3 2,7 4,10 3,4 5,6 8,7 3,1 12,2 26,3l-2 7 -137 0 2 -7c13,-1 23,-2 28,-4 6,-2 10,-5 13,-10 4,-4 8,-14 12,-29l40 -135c6,-20 9,-31 10,-33 0,-3 1,-6 1,-9 0,-7 -2,-11 -6,-15 -3,-3 -9,-5 -15,-5 -4,0 -10,0 -20,1l-2 -7 103 -25 8 0z"/>
   <path id="2" class="fil1" d="M6025 652l-39 133 -4 16c-1,2 -1,4 -1,4 0,2 1,3 2,5 1,1 2,1 3,1 3,0 7,-2 12,-6 2,-2 7,-8 14,-18l7 3c-10,18 -20,30 -30,38 -11,8 -22,12 -35,12 -7,0 -13,-2 -17,-6 -4,-4 -6,-9 -6,-15 0,-5 2,-14 6,-29l5 -16c-15,27 -30,46 -44,56 -9,7 -18,10 -27,10 -12,0 -21,-5 -27,-15 -5,-10 -8,-22 -8,-34 0,-19 6,-41 17,-65 12,-24 27,-44 46,-59 15,-12 30,-18 44,-18 7,0 13,2 18,6 4,5 8,13 10,24l7 -24 47 -3zm-64 38c0,-11 -2,-19 -5,-23 -2,-4 -6,-5 -10,-5 -4,0 -8,2 -13,6 -9,8 -19,25 -29,50 -11,25 -16,47 -16,65 0,7 1,12 4,15 2,4 5,5 8,5 6,0 12,-3 18,-10 9,-10 17,-22 24,-36 13,-25 19,-48 19,-67z"/>
   <path class="fil1" d="M3835 1887l-21 86 -7 0c0,-23 -6,-41 -17,-53 -11,-11 -25,-17 -42,-17 -19,0 -37,8 -56,24 -18,15 -34,40 -47,72 -10,27 -15,53 -15,78 0,23 5,41 17,53 11,12 27,18 46,18 17,0 31,-3 44,-10 14,-7 27,-18 41,-34l9 0c-17,25 -33,42 -50,52 -17,10 -38,15 -62,15 -33,0 -59,-10 -79,-30 -20,-19 -30,-45 -30,-77 0,-30 8,-59 23,-86 16,-27 39,-49 69,-66 30,-17 60,-25 89,-25 12,0 26,2 42,7 9,2 15,4 18,4 7,0 14,-4 21,-11l7 0z"/>
   <path id="1" class="fil1" d="M3958 2165l-144 0 0 -7c38,-35 69,-67 95,-96 22,-24 35,-43 41,-56 5,-12 8,-25 8,-38 0,-12 -4,-22 -12,-30 -7,-7 -17,-11 -28,-11 -19,0 -35,10 -48,30l-7 -3c7,-20 16,-35 27,-45 15,-14 33,-21 54,-21 19,0 35,6 47,18 13,12 19,25 19,41 0,14 -3,27 -9,41 -6,13 -19,30 -38,50 -15,16 -44,43 -89,81l52 0c17,0 29,-2 35,-6 7,-3 13,-11 19,-23l10 0 -32 75z"/>
   <path id="2" class="fil1" d="M4215 1982l-40 133 -4 16c0,2 0,4 0,5 0,1 0,3 1,4 1,1 3,2 4,2 3,0 6,-2 11,-7 2,-1 7,-7 14,-18l7 4c-9,17 -19,30 -30,37 -11,8 -22,12 -34,12 -8,0 -14,-2 -18,-5 -4,-4 -6,-9 -6,-15 0,-5 2,-15 7,-29l5 -16c-16,26 -31,45 -45,56 -8,6 -17,9 -26,9 -13,0 -22,-5 -27,-15 -6,-10 -8,-21 -8,-34 0,-19 5,-40 17,-65 11,-24 27,-44 45,-58 16,-13 30,-19 44,-19 7,0 13,2 18,7 5,4 8,12 10,23l7 -24 48 -3zm-64 38c0,-10 -2,-18 -6,-23 -2,-3 -5,-5 -9,-5 -5,0 -9,2 -13,6 -9,8 -19,25 -30,50 -10,25 -15,47 -15,65 0,8 1,13 3,16 3,3 5,4 8,4 6,0 12,-3 18,-10 9,-10 17,-22 24,-36 13,-25 20,-47 20,-67z"/>
   <path class="fil1" d="M977 1234l-24 82c-3,12 -5,21 -5,26 0,5 2,10 6,13 4,3 13,4 26,5l-3 7 -131 0 3 -7c13,0 22,-3 29,-8 6,-5 11,-17 16,-34l50 -175c3,-10 4,-17 4,-23 0,-6 -1,-10 -5,-13 -3,-2 -11,-4 -24,-5l2 -7 113 0c32,0 55,5 68,17 13,11 19,25 19,43 0,18 -7,35 -23,50 -9,10 -27,18 -51,24l24 83c6,22 12,36 17,40 5,5 13,7 24,8l0 7 -84 0 -38 -133 -7 0c-1,0 -3,0 -6,0zm3 -12c5,0 9,0 12,0 19,0 35,-6 47,-20 12,-13 18,-31 18,-52 0,-13 -3,-23 -10,-30 -6,-6 -15,-10 -26,-10 -2,0 -5,1 -9,1l-32 111z"/>
   <path id="1" class="fil1" d="M1317 1090l-68 227c-3,12 -5,20 -5,23 0,4 1,7 4,10 2,4 5,6 8,7 3,1 11,2 26,3l-2 7 -138 0 3 -7c13,-1 23,-2 28,-4 5,-2 10,-5 13,-10 4,-4 7,-14 12,-29l40 -135c6,-20 9,-31 9,-33 1,-3 2,-6 2,-9 0,-6 -2,-11 -6,-15 -4,-3 -9,-5 -16,-5 -3,0 -10,0 -20,2l-1 -8 102 -24 9 0z"/>
   <path id="2" class="fil1" d="M1535 1184l-39 133 -4 16c-1,2 -1,4 -1,5 0,1 1,2 2,4 1,1 2,1 3,1 3,0 7,-2 12,-6 2,-2 6,-8 14,-18l7 3c-10,18 -20,30 -31,38 -10,8 -22,12 -34,12 -8,0 -13,-2 -17,-6 -4,-4 -6,-9 -6,-15 0,-5 2,-14 6,-29l5 -16c-15,27 -30,46 -45,57 -8,6 -17,9 -26,9 -12,0 -21,-5 -27,-15 -5,-10 -8,-22 -8,-34 0,-19 6,-41 17,-65 12,-24 27,-44 46,-59 15,-12 30,-18 43,-18 8,0 14,2 18,6 5,5 8,13 10,24l8 -24 47 -3zm-64 38c0,-11 -2,-19 -5,-23 -3,-4 -6,-5 -10,-5 -4,0 -9,2 -13,6 -9,8 -19,25 -29,50 -11,25 -16,47 -16,65 0,7 1,12 4,15 2,4 5,5 7,5 6,0 12,-3 19,-10 9,-10 16,-22 24,-36 12,-25 19,-48 19,-67z"/>
   <path class="fil1" d="M2235 3552l-23 82c-4,12 -5,21 -5,26 0,5 2,9 6,13 4,3 13,4 26,5l-3 7 -131 0 3 -7c13,0 22,-3 28,-8 6,-5 12,-17 17,-35l50 -174c3,-10 4,-18 4,-23 0,-6 -2,-10 -5,-13 -4,-2 -12,-4 -24,-5l2 -7 112 0c33,0 55,5 68,17 13,11 20,25 20,43 0,18 -8,35 -23,50 -10,9 -27,17 -51,24l24 83c6,22 12,36 17,40 5,5 13,7 24,8l0 7 -84 0 -39 -133 -6 0c-2,0 -4,0 -7,0zm4 -12c4,0 8,0 11,0 20,0 35,-6 48,-20 12,-13 18,-31 18,-52 0,-13 -3,-23 -10,-30 -6,-6 -15,-10 -26,-10 -3,0 -6,0 -9,1l-32 111z"/>
   <path id="1" class="fil1" d="M2537 3685l-144 0 0 -8c38,-34 69,-66 95,-96 22,-24 35,-42 41,-55 5,-13 8,-26 8,-39 0,-12 -4,-22 -11,-29 -8,-8 -18,-12 -29,-12 -19,0 -35,11 -48,31l-7 -3c7,-20 16,-35 27,-45 15,-15 33,-22 54,-22 19,0 35,6 48,18 12,12 19,26 19,42 0,13 -4,27 -10,40 -6,14 -19,31 -38,51 -14,15 -44,42 -89,81l52 0c17,0 29,-2 36,-6 6,-4 13,-12 18,-23l10 0 -32 75z"/>
   <path id="2" class="fil1" d="M2732 3407l-36 120c10,-11 19,-19 25,-23 7,-3 14,-5 22,-5 16,0 27,6 34,17 8,12 12,25 12,40 0,36 -13,68 -39,96 -22,25 -48,38 -77,38 -22,0 -44,-6 -68,-19l61 -211c3,-10 5,-17 5,-21 0,-4 -1,-7 -4,-9 -4,-2 -10,-4 -18,-3l1 -9 69 -11 13 0zm-79 265c6,4 12,6 17,6 7,0 12,-1 17,-4 7,-4 15,-13 23,-24 8,-12 14,-27 20,-44 5,-16 8,-33 8,-50 0,-9 -2,-16 -6,-21 -4,-5 -9,-8 -14,-8 -9,0 -17,5 -23,14 -4,6 -9,19 -14,39l-28 92z"/>
   <path class="fil1" d="M5511 3645l-20 86 -7 0c-1,-24 -6,-41 -17,-53 -11,-11 -25,-17 -42,-17 -19,0 -37,8 -56,24 -18,15 -34,39 -47,72 -10,26 -16,52 -16,78 0,23 6,41 18,53 11,12 27,18 46,18 16,0 31,-3 44,-10 14,-7 27,-19 40,-34l10 0c-17,25 -33,42 -50,52 -17,10 -38,15 -62,15 -33,0 -60,-10 -79,-30 -21,-20 -30,-46 -30,-77 0,-30 8,-59 23,-86 16,-27 39,-49 69,-66 30,-17 60,-25 89,-25 12,0 26,2 42,7 9,2 15,3 18,3 7,0 14,-3 21,-10l6 0z"/>
   <path id="1" class="fil1" d="M5673 3646l-67 228c-4,12 -5,19 -5,22 0,4 1,7 3,10 3,4 6,6 8,7 3,1 12,2 26,3l-2 7 -137 0 2 -7c14,0 23,-2 29,-4 5,-2 9,-5 13,-9 3,-5 7,-15 11,-29l40 -136c7,-20 10,-31 10,-32 1,-4 1,-7 1,-10 0,-6 -2,-11 -5,-15 -4,-3 -9,-5 -16,-5 -3,0 -10,1 -20,2l-2 -8 103 -24 8 0z"/>
   <path id="2" class="fil1" d="M5830 3645l-36 120c10,-11 19,-19 25,-22 7,-4 14,-6 22,-6 15,0 27,6 34,17 8,12 12,25 12,40 0,36 -13,69 -39,97 -22,25 -48,37 -77,37 -22,0 -45,-6 -69,-19l62 -211c3,-10 5,-17 5,-21 0,-4 -1,-6 -4,-8 -4,-3 -10,-4 -19,-4l2 -8 69 -12 13 0zm-79 266c6,4 12,6 17,6 6,0 12,-2 17,-5 7,-4 14,-12 22,-24 8,-12 15,-26 20,-43 6,-17 8,-34 8,-51 0,-9 -2,-16 -6,-21 -4,-5 -8,-8 -13,-8 -9,0 -17,5 -23,14 -5,7 -9,19 -14,39l-28 93z"/>
   <path class="fil1" d="M3831 3324l-20 86 -7 0c-1,-23 -6,-41 -17,-52 -11,-12 -25,-18 -42,-18 -19,0 -38,8 -56,24 -19,16 -34,40 -47,72 -10,27 -16,53 -16,79 0,23 6,40 17,52 12,12 27,18 47,18 16,0 31,-3 44,-10 14,-7 27,-18 40,-34l10 0c-17,25 -34,42 -50,52 -17,10 -38,15 -62,15 -33,0 -60,-10 -80,-29 -20,-20 -30,-46 -30,-78 0,-30 8,-59 24,-86 16,-27 39,-49 69,-66 30,-16 60,-25 89,-25 11,0 26,3 42,7 9,3 15,4 18,4 7,0 14,-4 20,-11l7 0z"/>
   <path id="1" class="fil1" d="M3955 3602l-144 0 0 -7c37,-35 69,-67 95,-96 21,-24 35,-43 40,-55 6,-13 9,-26 9,-39 0,-12 -4,-22 -12,-30 -7,-7 -17,-11 -28,-11 -19,0 -35,10 -48,31l-7 -4c6,-20 15,-34 27,-45 15,-14 33,-21 54,-21 19,0 35,6 47,18 13,12 19,25 19,41 0,14 -3,27 -9,41 -6,13 -19,30 -38,50 -15,16 -45,43 -89,81l52 0c17,0 29,-2 35,-5 7,-4 13,-12 19,-23l10 0 -32 74z"/>
   <path id="2" class="fil1" d="M4150 3324l-36 121c10,-12 18,-19 25,-23 7,-4 14,-6 22,-6 15,0 27,6 34,18 8,11 12,25 12,40 0,36 -13,68 -39,96 -23,25 -48,38 -77,38 -22,0 -45,-7 -69,-20l62 -211c3,-10 5,-17 5,-21 0,-3 -1,-6 -4,-8 -4,-3 -10,-4 -19,-4l2 -8 69 -12 13 0zm-79 266c6,4 12,6 16,6 7,0 13,-1 17,-4 8,-5 15,-13 23,-25 8,-12 15,-26 20,-43 6,-17 8,-33 8,-50 0,-10 -2,-17 -6,-22 -4,-5 -8,-7 -14,-7 -8,0 -16,4 -22,14 -5,6 -9,19 -15,39l-27 92z"/>
   <path class="fil1" d="M1116 2842l22 -226c1,-12 2,-19 2,-23 0,-6 -2,-11 -7,-15 -4,-4 -11,-6 -21,-6l-7 0 2 -8 107 0 -2 8c-12,0 -20,1 -24,3 -4,3 -8,7 -10,12 -2,3 -3,11 -5,25l-15 163 106 -145c11,-16 19,-27 22,-33 2,-4 3,-8 3,-11 0,-4 -2,-7 -5,-9 -3,-3 -9,-5 -17,-5l2 -8 81 0 -2 8c-6,0 -11,1 -15,4 -7,3 -15,8 -22,15 -7,7 -19,22 -35,43l-152 208 -8 0z"/>
   <path id="1" class="fil1" d="M1376 2919l-2 5 -79 0 2 -5c8,0 14,-1 16,-2 4,-2 7,-4 9,-7 4,-4 7,-13 10,-24l34 -117c3,-10 4,-17 4,-22 0,-3 -1,-5 -2,-7 -1,-1 -3,-3 -5,-4 -3,0 -8,-1 -15,-1l2 -5 74 0 -2 5c-6,0 -11,1 -14,2 -4,2 -7,5 -9,9 -3,4 -5,13 -9,26l-34 117c-3,10 -4,16 -4,19 0,2 0,4 1,5 2,2 4,3 6,4 3,1 8,1 17,2z"/>
   <path id="2" class="fil1" d="M1570 2719l-50 172c-3,10 -4,16 -4,19 0,1 0,1 1,2 0,1 1,1 1,1 1,0 2,0 3,-1 3,-2 6,-8 11,-17l5 3c-5,9 -11,16 -17,22 -5,5 -11,7 -16,7 -2,0 -5,-1 -7,-3 -2,-2 -3,-6 -3,-10 0,-5 2,-12 5,-22l5 -18c-15,22 -29,37 -42,45 -8,5 -16,8 -24,8 -8,0 -15,-3 -21,-9 -6,-7 -9,-16 -9,-27 0,-14 5,-29 15,-45 9,-16 22,-29 38,-39 13,-8 25,-12 36,-12 5,0 10,1 14,3 4,2 8,5 12,10l13 -47c2,-5 3,-10 4,-13 1,-4 2,-7 2,-9 0,-2 -1,-4 -2,-5 -2,-2 -5,-3 -8,-3 -2,0 -6,0 -11,1l0 -5 49 -8zm-55 103c0,-6 -2,-11 -6,-15 -4,-4 -9,-5 -15,-5 -13,0 -27,10 -41,29 -15,20 -22,39 -22,57 0,8 2,13 6,17 3,4 8,6 13,6 12,0 25,-11 41,-33 16,-21 24,-40 24,-56z"/>
   <path class="fil1" d="M10707 3005l22 -226c1,-12 2,-20 2,-24 0,-6 -3,-11 -7,-15 -5,-4 -12,-6 -21,-6l-7 0 2 -7 107 0 -3 7c-11,0 -19,2 -23,4 -5,2 -8,6 -11,12 -1,3 -2,11 -4,25l-16 162 107 -145c11,-15 18,-26 21,-33 2,-4 3,-7 3,-10 0,-4 -1,-7 -4,-10 -3,-3 -9,-4 -18,-5l3 -7 81 0 -2 7c-6,1 -12,2 -15,4 -8,4 -15,9 -22,16 -8,7 -19,21 -35,43l-153 208 -7 0z"/>
   <path id="1" class="fil1" d="M11040 2888c13,0 24,3 34,8 10,6 18,14 23,25 6,11 9,22 9,34 0,21 -6,43 -18,66 -12,22 -28,40 -48,52 -19,12 -39,18 -60,18 -15,0 -28,-3 -38,-10 -10,-7 -17,-15 -22,-26 -5,-11 -7,-22 -7,-32 0,-18 4,-36 13,-54 8,-17 19,-32 31,-44 12,-12 25,-21 39,-27 14,-7 28,-10 44,-10zm-5 9c-10,0 -19,2 -29,7 -9,5 -18,13 -27,23 -9,11 -17,25 -24,43 -9,21 -13,41 -13,60 0,14 3,26 10,36 7,11 18,16 32,16 9,0 18,-2 26,-7 8,-4 17,-11 26,-22 12,-13 21,-29 29,-50 8,-20 12,-39 12,-57 0,-13 -4,-24 -11,-34 -7,-10 -17,-15 -31,-15z"/>
   <path id="2" class="fil1" d="M11275 2882l-50 172c-3,9 -4,15 -4,18 0,1 0,2 0,3 1,0 2,1 2,1 1,0 2,-1 3,-2 2,-2 6,-8 11,-17l5 3c-6,10 -11,17 -17,22 -6,5 -11,8 -16,8 -3,0 -5,-1 -7,-4 -2,-2 -3,-5 -3,-9 0,-6 1,-13 4,-22l6 -18c-16,21 -29,36 -42,44 -9,6 -17,9 -25,9 -8,0 -15,-3 -21,-10 -6,-6 -9,-15 -9,-26 0,-14 5,-29 15,-45 10,-17 23,-30 39,-40 13,-8 25,-12 35,-12 6,0 11,1 15,3 4,2 8,6 12,11l13 -47c2,-6 3,-10 4,-13 1,-4 2,-7 2,-10 0,-2 -1,-4 -3,-5 -2,-1 -4,-2 -7,-2 -2,0 -6,0 -11,1l0 -6 49 -7zm-55 102c0,-6 -2,-11 -6,-14 -4,-4 -9,-6 -15,-6 -13,0 -27,10 -42,30 -14,20 -21,39 -21,57 0,7 2,13 5,16 4,4 8,6 14,6 11,0 25,-11 41,-32 16,-22 24,-40 24,-57z"/>
   <g>
    <path class="fil1" d="M10459 1476l79 188 0 0 -5 -2 -5 -2 -5 -3 -5 -2 -5 -1 -5 -2 -5 -2 -5 -1 -5 -1 -5 -1 -5 -1 -5 -1 -5 0 -5 -1 -5 0 -5 0 -5 0 -5 0 -5 0 -5 1 -5 1 -6 0 -5 1 -5 2 -5 1 -5 1 -5 2 -5 2 -5 2 -5 2 -5 2 -5 3 82 -188zm-24 2939l16 -2845 15 0 -16 2846 -15 -1z"/>
   </g>
   <polyline class="fil0 str1" points="3266,2036 3264,2764 3264,3449 "/>
   <g>
    <path class="fil1" d="M4547 1835l84 188 0 0 -5 -3 -6 -2 -5 -2 -5 -2 -5 -2 -5 -1 -5 -2 -5 -1 -5 -1 -5 -1 -5 -1 -5 0 -5 -1 -5 0 -5 0 -5 0 -5 0 -5 0 -6 1 -5 0 -5 1 -5 1 -5 1 -5 1 -5 2 -5 1 -5 2 -5 2 -5 2 -5 2 -5 2 -5 3 78 -190zm5 927l-11 -832 15 0 11 832 -15 0z"/>
   </g>
   <path class="fil1" d="M5750 2815l-75 261 30 -25c33,-29 55,-49 65,-62 3,-5 5,-9 5,-11 0,-2 -1,-3 -2,-5 -1,-1 -3,-2 -6,-3 -3,-1 -9,-2 -17,-2l-9 0 3 -9 116 0 -2 9c-14,1 -25,3 -35,7 -9,3 -19,9 -28,16 -18,13 -29,22 -35,28l-23 20c4,13 8,31 14,53 10,38 16,60 20,68 3,6 6,10 10,10 3,0 7,-2 11,-5 9,-6 19,-17 29,-32l9 7c-19,24 -34,40 -44,48 -10,8 -20,11 -28,11 -8,0 -13,-2 -18,-8 -7,-10 -18,-52 -35,-123l-37 31 -27 94 -41 0 87 -303 8 -26c1,-5 1,-8 1,-12 0,-4 -1,-7 -5,-10 -3,-3 -8,-4 -14,-4 -4,0 -10,1 -19,2l0 -9 92 -16z"/>
   <path id="1" class="fil1" d="M5848 2969l76 -16c5,13 10,26 13,40 5,20 9,43 12,71 2,14 4,43 6,88 22,-25 36,-40 40,-46 24,-32 37,-50 41,-56 6,-9 10,-17 12,-24 2,-6 3,-11 3,-16 0,-4 -4,-9 -12,-15 -8,-6 -12,-13 -12,-21 0,-5 2,-10 7,-15 4,-4 9,-6 16,-6 7,0 14,3 19,9 6,6 9,13 9,22 0,10 -2,18 -5,26 -4,14 -13,30 -26,50 -12,19 -32,45 -61,78 -3,4 -23,24 -59,61l-10 0c-4,-112 -13,-182 -26,-209 -5,-9 -12,-14 -22,-14 -5,0 -11,1 -19,2l-2 -9z"/>
   <path id="2" class="fil1" d="M6200 3009c8,0 14,3 19,8 5,5 8,11 8,19 0,7 -3,13 -8,19 -5,5 -12,8 -19,8 -7,0 -13,-3 -19,-8 -5,-6 -8,-12 -8,-19 0,-8 3,-14 8,-19 5,-5 12,-8 19,-8zm12 106l-56 189c-4,12 -6,20 -6,22 0,3 1,5 2,7 2,2 4,3 6,3 2,0 5,-2 9,-4 9,-8 18,-20 27,-34l9 6c-11,18 -25,33 -40,45 -12,9 -23,14 -33,14 -7,0 -13,-2 -17,-7 -4,-4 -7,-9 -7,-16 0,-6 3,-17 7,-33l37 -120c6,-20 9,-32 9,-37 0,-4 -1,-7 -4,-9 -3,-3 -7,-4 -11,-4 -4,0 -12,1 -25,3l0 -10 93 -15z"/>
   <g>
    <polygon class="fil1" points="5994,1655 5994,1756 6094,1756 6094,1783 5994,1783 5994,1883 5967,1883 5967,1783 5868,1783 5868,1756 5967,1756 5967,1655 "/>
    <polygon class="fil1" points="6007,2364 6007,2472 5976,2472 5976,2364 "/>
    <rect class="fil0 str2" transform="matrix(-0.966762 -0.966762 0.966762 -0.966762 5999.04 2641.46)" width="577" height="577"/>
   </g>
   <path class="fil1" d="M4733 2031l89 -19c6,16 12,31 16,47 5,24 10,52 14,84 1,16 4,51 7,103 26,-28 42,-46 47,-53 27,-37 43,-59 47,-66 7,-11 12,-20 15,-29 2,-6 4,-12 4,-18 0,-5 -5,-11 -14,-18 -10,-8 -15,-15 -15,-24 0,-7 3,-13 8,-18 5,-5 12,-8 19,-8 8,0 16,4 23,11 6,7 10,16 10,27 0,10 -2,20 -5,30 -6,16 -16,35 -31,58 -15,23 -39,54 -72,92 -4,5 -27,29 -69,73l-12 0c-5,-132 -15,-215 -31,-247 -5,-11 -14,-16 -26,-16 -5,0 -13,1 -22,3l-2 -12z"/>
   <path id="1" class="fil1" d="M5147 2079c9,0 16,3 22,9 6,6 9,13 9,22 0,9 -3,16 -9,22 -6,7 -14,10 -22,10 -9,0 -16,-3 -22,-10 -6,-6 -10,-13 -10,-22 0,-9 3,-16 10,-22 6,-6 13,-9 22,-9zm14 124l-66 222c-5,15 -7,24 -7,27 0,3 1,6 3,8 2,2 4,3 6,3 3,0 6,-2 10,-5 11,-9 22,-22 33,-40l11 7c-14,22 -30,40 -48,54 -14,11 -26,16 -39,16 -8,0 -15,-3 -20,-8 -5,-5 -8,-11 -8,-19 0,-7 3,-20 9,-39l43 -141c7,-23 10,-37 10,-43 0,-5 -1,-8 -4,-11 -4,-3 -8,-5 -14,-5 -4,0 -14,1 -28,4l0 -13 109 -17z"/>
   <g>
    <path class="fil1" d="M1870 2033l0 -4c25,-4 44,-11 57,-23 9,-8 13,-17 13,-28 0,-8 -2,-15 -8,-21 -5,-5 -11,-8 -19,-8 -11,0 -22,8 -31,22l-5 -2c5,-12 12,-21 21,-27 8,-6 17,-9 27,-9 13,0 23,3 30,11 8,7 12,16 12,28 0,9 -4,18 -11,27 -7,9 -19,17 -37,24 11,5 19,11 25,19 5,9 8,19 8,31 0,13 -4,26 -11,39 -8,13 -18,23 -31,30 -13,7 -27,11 -42,11 -13,0 -23,-2 -29,-7 -5,-3 -7,-7 -7,-11 0,-4 1,-7 4,-9 2,-3 6,-4 10,-4 2,0 5,0 8,1 1,1 6,3 12,6 7,4 12,7 15,8 4,1 8,2 12,2 9,0 17,-6 23,-17 6,-11 9,-22 9,-35 0,-10 -2,-19 -6,-26 -4,-8 -11,-15 -20,-19 -8,-5 -18,-8 -29,-9z"/>
    <circle class="fil0 str1" cx="1899" cy="2043" r="161"/>
   </g>
   <path class="fil1" d="M1840 3725l13 -58 -94 0 6 -28 129 -143 23 0 -31 146 33 0 -5 25 -33 0 -13 58 -28 0zm18 -83l21 -96 -87 96 66 0z"/>
   <circle class="fil0 str1" cx="1839" cy="3611" r="161"/>
   <g>
    <path class="fil1" d="M7508 1067l106 0 0 5 -119 211 -13 -6 104 -185 -50 0c-14,0 -23,1 -28,4 -5,2 -11,8 -18,17l-6 0 24 -46z"/>
    <circle class="fil0 str1" cx="7548" cy="1175" r="161"/>
   </g>
   <g>
    <path class="fil1" d="M7558 2938c10,11 18,21 22,31 5,9 7,19 7,28 0,17 -6,32 -19,45 -13,13 -29,19 -48,19 -17,0 -31,-5 -42,-16 -10,-10 -16,-22 -16,-36 0,-11 5,-23 13,-34 9,-12 26,-23 50,-33 -10,-12 -16,-21 -19,-28 -4,-8 -5,-15 -5,-22 0,-14 5,-26 15,-36 11,-10 24,-15 40,-15 15,0 27,4 37,13 9,8 14,18 14,30 0,12 -4,22 -12,31 -7,10 -20,17 -37,23zm-6 -6c11,-4 20,-10 26,-19 7,-9 10,-19 10,-30 0,-11 -3,-19 -9,-25 -6,-7 -14,-10 -24,-10 -9,0 -17,3 -23,9 -5,6 -8,14 -8,23 0,7 1,13 4,19 5,9 13,20 24,33zm-22 16c-15,7 -27,16 -35,28 -8,12 -12,26 -12,40 0,11 4,20 11,27 7,7 16,11 28,11 11,0 22,-5 30,-13 8,-8 12,-18 12,-30 0,-9 -2,-18 -7,-27 -5,-10 -14,-22 -27,-36z"/>
    <circle class="fil0 str1" cx="7535" cy="2951" r="161"/>
   </g>
   <polygon class="fil1" points="363,2483 417,2483 417,2428 464,2428 464,2483 519,2483 519,2530 464,2530 464,2584 417,2584 417,2530 363,2530 "/>
   <polygon class="fil1" points="373,3044 523,3044 523,3076 373,3076 "/>
   <g>
    <path class="fil1" d="M274 1975l-50 175c-3,10 -5,18 -5,22 0,4 2,7 4,9 3,2 9,4 19,4l-1 6 -81 0 2 -6c9,0 14,0 17,-2 4,-1 8,-4 10,-7 3,-5 7,-14 10,-26l37 -126c2,-8 3,-12 3,-13 1,-2 1,-4 1,-6 0,-4 -1,-7 -3,-9 -2,-2 -5,-3 -8,-3 -3,0 -7,1 -13,2l-2 -6 53 -14 7 0z"/>
    <circle class="fil0 str1" cx="217" cy="2083" r="161"/>
   </g>
   <g>
    <path class="fil1" d="M279 3572l-106 0 0 -6c53,-47 89,-84 106,-111 8,-12 12,-25 12,-39 0,-11 -3,-20 -10,-27 -6,-6 -15,-10 -26,-10 -14,0 -26,7 -36,21l-5 -2c5,-14 13,-24 23,-32 10,-7 21,-11 33,-11 14,0 25,5 34,14 9,9 14,20 14,33 0,10 -2,18 -5,26 -5,12 -14,26 -28,41 -20,23 -47,50 -82,80l54 0c9,0 16,-2 21,-5 6,-4 10,-9 12,-15l6 0 -17 43z"/>
    <circle class="fil0 str1" cx="245" cy="3463" r="161"/>
   </g>
   <g>
    <path class="fil1" d="M1912 3503l-40 139 25 0 -6 20 -25 0 -16 57 -23 0 16 -57 -77 0 7 -23 127 -136 12 0zm-35 40l-91 99 63 0 28 -99z"/>
    <circle class="fil0 str1" cx="1839" cy="3611" r="161"/>
   </g>
   <g>
    <path class="fil1" d="M4540 1106l70 0 -7 26 -64 0 -11 26c17,3 30,8 39,16 15,12 22,29 22,51 0,15 -3,28 -8,40 -5,12 -12,21 -20,29 -8,8 -16,14 -25,19 -12,6 -24,9 -36,9 -11,0 -19,-2 -25,-6 -4,-3 -7,-7 -7,-12 0,-4 2,-7 5,-10 2,-2 6,-4 10,-4 5,0 11,3 18,8 4,4 8,6 10,7 2,1 5,2 8,2 12,0 23,-6 33,-18 10,-12 15,-27 15,-46 0,-13 -3,-24 -8,-33 -6,-9 -12,-16 -20,-19 -9,-4 -19,-7 -33,-8l34 -77z"/>
    <circle class="fil0 str1" cx="4539" cy="1214" r="161"/>
   </g>
   <g>
    <circle class="fil0 str1" cx="4506" cy="4146" r="161"/>
    <g>
     <path class="fil1" d="M4580 4036l0 6c-18,4 -36,13 -52,26 -17,14 -32,31 -45,52 12,-5 21,-7 28,-7 13,0 25,4 34,14 9,10 14,23 14,39 0,25 -8,46 -24,64 -16,17 -33,26 -52,26 -17,0 -30,-6 -38,-19 -9,-12 -14,-27 -14,-43 0,-21 5,-42 15,-63 10,-21 24,-39 41,-54 17,-15 34,-26 52,-33 11,-4 25,-7 41,-8zm-104 97c-15,32 -22,58 -22,80 0,11 2,20 8,26 6,6 12,10 20,10 12,0 23,-9 33,-27 11,-17 16,-37 16,-60 0,-12 -3,-22 -9,-28 -6,-7 -14,-10 -22,-10 -4,0 -7,0 -11,1 -3,2 -7,4 -13,8z"/>
     <circle class="fil0 str1" cx="4506" cy="4146" r="161"/>
    </g>
   </g>
   <g>
    <polygon class="fil1" points="8801,3096 8801,3197 8901,3197 8901,3223 8801,3223 8801,3324 8774,3324 8774,3223 8675,3223 8675,3197 8774,3197 8774,3096 "/>
    <polygon class="fil1" points="8814,3805 8814,3913 8783,3913 8783,3805 "/>
    <rect class="fil0 str2" transform="matrix(-0.966762 -0.966762 0.966762 -0.966762 8806.19 4082.18)" width="577" height="577"/>
   </g>
   <g>
    <path class="fil1" d="M7836 4343l3 0 3 0 2 0 3 1 3 0 2 1 3 1 2 1 2 1 3 1 2 1 2 2 2 1 2 2 2 2 2 1 2 2 2 2 1 2 2 2 1 3 2 2 1 2 1 3 1 2 1 3 0 2 1 3 0 2 1 3 0 3 0 3 0 0 0 2 0 3 -1 3 0 2 -1 3 0 3 -1 2 -1 2 -1 3 -1 2 -2 2 -1 3 -2 2 -1 2 -2 2 -2 2 -2 1 -2 2 -2 2 -2 1 -2 2 -2 1 -3 1 -2 1 -2 1 -3 1 -2 1 -3 0 -3 1 -2 0 -3 0 -3 0 0 0 -3 0 -2 0 -3 0 -3 -1 -2 0 -3 -1 -2 -1 -3 -1 -2 -1 -2 -1 -3 -1 -2 -2 -2 -1 -2 -2 -2 -2 -2 -1 -2 -2 -1 -2 -2 -2 -1 -2 -2 -3 -1 -2 -1 -2 -1 -3 -1 -2 -1 -2 -1 -3 -1 -3 0 -2 0 -3 -1 -3 0 -2 0 0 0 -3 1 -3 0 -3 0 -2 1 -3 1 -2 1 -3 1 -2 1 -3 1 -2 1 -2 2 -3 1 -2 2 -2 1 -2 2 -2 2 -1 2 -2 2 -2 2 -1 2 -2 3 -1 2 -1 2 -1 3 -1 2 -1 3 -1 2 0 3 -1 3 0 2 0 3 0 0 0zm962 61l-962 0 0 -15 962 0 8 8 -8 7zm8 -7l0 7 -8 0 8 -7zm0 -315l0 315 -16 0 0 -315 16 0z"/>
   </g>
   <g>
    <path class="fil1" d="M8814 2533l0 433 -15 0 0 -433 15 0zm106 0l0 13 -228 0 0 -27 228 0 0 14z"/>
   </g>
   <g>
    <path class="fil1" d="M7840 1412l3 0 2 0 3 0 3 1 2 0 3 1 2 1 3 1 2 1 3 1 2 2 2 1 2 1 2 2 2 2 2 2 2 1 1 2 2 2 2 3 1 2 1 2 1 2 2 3 0 2 1 3 1 2 1 3 0 2 0 3 1 3 0 3 0 0 0 2 -1 3 0 3 0 2 -1 3 -1 3 -1 2 0 3 -2 2 -1 2 -1 2 -1 3 -2 2 -2 2 -1 2 -2 2 -2 1 -2 2 -2 2 -2 1 -2 2 -2 1 -3 1 -2 1 -3 1 -2 1 -3 1 -2 0 -3 1 -3 0 -2 0 -3 0 0 0 -3 0 -3 0 -2 0 -3 -1 -2 0 -3 -1 -3 -1 -2 -1 -2 -1 -3 -1 -2 -1 -2 -2 -2 -1 -2 -2 -2 -2 -2 -1 -2 -2 -2 -2 -1 -2 -2 -2 -1 -3 -1 -2 -2 -2 -1 -2 -1 -3 0 -2 -1 -3 -1 -3 0 -2 -1 -3 0 -3 0 -2 0 0 0 -3 0 -3 1 -3 0 -2 1 -3 1 -2 0 -3 1 -2 1 -3 2 -2 1 -2 1 -2 2 -3 1 -2 2 -2 2 -1 2 -2 2 -2 2 -2 2 -1 2 -1 2 -2 3 -1 2 -1 2 -1 3 -1 3 -1 2 0 3 -1 2 0 3 0 3 0 0 0zm850 61l-850 0 0 -15 850 0 0 15zm73 -96l0 27 0 0 -4 0 -3 0 -3 1 -3 0 -3 1 -3 1 -2 1 -3 1 -3 1 -3 2 -2 1 -3 2 -2 1 -2 2 -3 2 -2 2 -2 2 -2 3 -2 2 -1 2 -2 3 -1 2 -2 3 -1 3 -1 3 -1 2 -1 3 -1 3 0 3 0 3 -1 3 0 4 -27 0 0 -5 1 -4 0 -5 1 -4 1 -4 1 -5 2 -4 1 -4 2 -4 2 -3 2 -4 2 -4 3 -3 3 -4 2 -3 3 -3 3 -3 3 -3 4 -2 3 -3 4 -2 4 -2 3 -2 4 -2 4 -1 4 -2 5 -1 4 -1 4 -1 5 0 4 -1 5 0 0 0zm88 89l-27 0 0 0 0 -4 0 -3 -1 -3 0 -3 -1 -3 -1 -3 -1 -2 -1 -3 -1 -3 -1 -3 -2 -2 -1 -3 -2 -2 -2 -2 -2 -3 -2 -2 -2 -2 -2 -2 -3 -2 -2 -1 -3 -2 -2 -1 -3 -2 -3 -1 -2 -1 -3 -1 -3 -1 -3 -1 -3 0 -3 -1 -3 0 -3 0 0 -27 4 0 5 1 4 0 4 1 5 1 4 1 4 2 4 1 4 2 4 2 3 2 4 2 3 3 4 2 3 3 3 3 3 3 3 3 2 4 3 3 2 4 2 4 2 3 2 4 2 4 1 4 1 5 1 4 1 4 1 5 0 4 0 5 0 0zm-88 88l0 -27 0 0 3 0 3 0 3 -1 3 0 3 -1 3 -1 3 -1 2 -1 3 -1 3 -1 2 -2 3 -1 2 -2 3 -2 2 -2 2 -2 2 -2 2 -2 2 -3 2 -2 1 -3 2 -2 1 -3 1 -3 1 -2 1 -3 1 -3 1 -3 0 -3 1 -3 0 -3 0 -3 27 0 0 4 0 5 -1 4 -1 4 -1 5 -1 4 -1 4 -2 4 -2 4 -2 4 -2 3 -2 4 -3 3 -2 4 -3 3 -3 3 -3 3 -3 3 -4 2 -3 3 -4 2 -3 2 -4 2 -4 2 -4 2 -4 1 -4 1 -5 1 -4 1 -4 0 -5 1 -4 0 0 0zm-89 -88l27 0 0 3 1 3 0 3 0 3 1 3 1 3 1 3 1 2 1 3 2 3 1 2 2 3 1 2 2 3 2 2 2 2 2 2 3 2 2 2 2 2 3 1 2 2 3 1 3 1 3 1 2 1 3 1 3 1 3 0 3 1 3 0 4 0 0 27 -5 0 -4 -1 -5 0 -4 -1 -4 -1 -5 -1 -4 -1 -4 -2 -4 -2 -3 -2 -4 -2 -4 -2 -3 -3 -4 -2 -3 -3 -3 -3 -3 -3 -2 -3 -3 -4 -3 -3 -2 -4 -2 -3 -2 -4 -2 -4 -1 -4 -2 -4 -1 -4 -1 -5 -1 -4 0 -4 -1 -5 0 -4z"/>
   </g>
   <g>
    <path class="fil1" d="M8806 1842l0 516 -16 0 0 -516 16 0zm-8 -95l81 189 -5 -3 -5 -2 -5 -2 -5 -2 -5 -2 -5 -1 -6 -2 -5 -1 -5 -1 -5 -1 -5 -1 -5 -1 -5 -1 -5 0 -5 0 -5 0 -5 0 -5 0 -5 0 -5 1 -5 1 -5 1 -5 1 -5 1 -5 1 -5 2 -5 1 -6 2 -5 2 -5 2 -5 2 -5 3 0 0 81 -189z"/>
   </g>
   <path class="fil1" d="M9121 1921l149 0 -3 9c-15,1 -26,2 -32,5 -7,2 -13,7 -17,13 -5,7 -10,19 -15,37l-39 132c-7,23 -11,38 -12,46 -2,10 -3,19 -3,28 0,19 8,35 24,49 16,13 38,19 65,19 18,0 34,-3 48,-9 13,-7 25,-16 35,-28 10,-11 18,-27 27,-47 8,-20 15,-41 21,-61l31 -109c7,-27 11,-44 11,-52 0,-6 -2,-11 -8,-15 -5,-4 -16,-7 -32,-8l3 -9 112 0 -3 9c-13,0 -22,2 -28,4 -6,3 -11,7 -15,14 -5,7 -10,19 -15,39l-40 137c-13,45 -24,76 -34,95 -10,18 -26,33 -47,45 -21,13 -47,19 -78,19 -35,0 -64,-10 -86,-30 -22,-20 -33,-43 -33,-69 0,-10 1,-21 3,-33 1,-8 5,-21 10,-40l36 -120c5,-18 7,-30 7,-39 0,-6 -2,-11 -7,-15 -5,-3 -18,-6 -38,-7l3 -9z"/>
   <path id="1" class="fil1" d="M9581 2347c-13,15 -26,26 -39,33 -13,8 -26,11 -41,11 -17,0 -31,-5 -40,-14 -10,-10 -15,-23 -15,-40 0,-18 5,-36 16,-55 10,-17 24,-32 42,-43 17,-12 35,-17 52,-17 13,0 23,3 29,8 7,6 10,12 10,20 0,8 -2,14 -7,20 -3,4 -7,6 -12,6 -4,0 -7,-1 -10,-4 -2,-2 -3,-5 -3,-9 0,-2 0,-4 1,-6 1,-2 3,-4 6,-7 3,-3 4,-5 5,-6 1,-1 1,-3 1,-4 0,-2 -1,-5 -4,-6 -3,-3 -8,-4 -15,-4 -12,0 -24,4 -36,13 -11,8 -21,20 -30,35 -10,19 -15,38 -15,56 0,13 4,23 11,30 7,7 17,11 29,11 9,0 19,-3 28,-7 9,-5 20,-13 31,-26l6 5z"/>
   <path class="fil1" d="M9372 3800l-85 293c-4,17 -7,30 -7,37 0,7 2,12 7,15 4,3 15,6 31,7l-3 9 -134 0 4 -9c14,-1 23,-2 28,-4 7,-3 13,-7 16,-12 6,-8 12,-22 18,-43l60 -210c4,-13 6,-20 6,-22 1,-4 1,-7 1,-10 0,-6 -2,-11 -5,-14 -3,-4 -8,-6 -13,-6 -5,0 -12,2 -22,4l-3 -10 88 -25 13 0z"/>
   <path id="1" class="fil1" d="M9664 3807l149 0 -2 10c-16,0 -27,2 -33,4 -7,3 -12,7 -17,14 -4,6 -9,18 -14,36l-39 132c-7,24 -11,39 -13,46 -2,10 -3,20 -3,29 0,19 8,35 25,48 16,13 37,20 65,20 18,0 33,-3 47,-10 14,-6 25,-15 35,-27 10,-12 19,-28 27,-48 8,-20 15,-40 21,-61l31 -108c8,-27 12,-45 12,-53 0,-6 -3,-10 -8,-15 -6,-4 -16,-6 -33,-7l3 -10 112 0 -2 10c-14,0 -23,1 -29,4 -6,2 -11,7 -15,14 -5,6 -9,19 -15,38l-40 138c-12,44 -24,76 -34,94 -10,18 -26,34 -46,46 -21,12 -47,18 -78,18 -36,0 -65,-10 -87,-30 -22,-20 -33,-43 -33,-69 0,-10 1,-21 3,-32 2,-8 5,-21 11,-40l35 -121c5,-17 8,-30 8,-38 0,-7 -3,-12 -8,-15 -5,-4 -17,-6 -37,-7l2 -10z"/>
   <path id="2" class="fil1" d="M9505 3950c7,0 14,3 19,9 5,5 8,11 8,19 0,7 -3,14 -8,19 -5,6 -12,9 -19,9 -8,0 -14,-3 -20,-9 -5,-5 -8,-12 -8,-19 0,-8 3,-14 8,-19 5,-6 12,-9 20,-9z"/>
   <path id="3" class="fil1" d="M10124 4234c-13,15 -26,26 -39,33 -12,7 -26,11 -41,11 -17,0 -30,-5 -40,-15 -10,-10 -15,-23 -15,-39 0,-19 6,-37 16,-55 10,-18 24,-33 42,-44 18,-11 35,-17 52,-17 13,0 23,3 30,9 6,5 10,12 10,20 0,8 -3,14 -7,19 -4,5 -8,7 -13,7 -4,0 -7,-2 -9,-4 -3,-3 -4,-6 -4,-9 0,-2 0,-5 1,-7 1,-2 3,-4 6,-7 3,-2 5,-4 5,-6 1,-1 1,-2 1,-3 0,-3 -1,-5 -3,-7 -4,-2 -9,-3 -16,-3 -12,0 -24,4 -35,12 -12,9 -22,20 -31,36 -10,19 -15,37 -15,56 0,12 4,22 11,29 7,8 17,11 29,11 10,0 19,-2 28,-7 10,-4 20,-13 32,-25l5 5z"/>
   <g>
    <path class="fil2" d="M3041 2601l-8 27 -43 0c3,10 5,18 5,27 0,23 -10,43 -30,61 -20,18 -47,28 -81,30 -18,6 -32,12 -41,20 -4,3 -5,6 -5,9 0,3 1,6 4,9 4,3 12,6 24,9l51 12c28,6 47,14 56,23 8,9 13,20 13,32 0,14 -6,27 -16,39 -11,12 -26,21 -46,28 -21,6 -43,10 -67,10 -22,0 -42,-3 -59,-8 -18,-5 -31,-12 -38,-21 -8,-8 -12,-17 -12,-26 0,-8 3,-16 7,-24 5,-8 12,-15 19,-20 5,-3 18,-11 40,-23 -8,-7 -12,-13 -12,-21 0,-7 3,-14 10,-22 7,-8 21,-17 43,-26 -18,-4 -33,-12 -44,-24 -11,-12 -16,-26 -16,-41 0,-25 11,-47 33,-66 22,-20 51,-30 87,-30 13,0 24,2 32,4 8,3 17,7 24,12l70 0zm-89 41c0,-13 -4,-24 -12,-32 -8,-8 -19,-12 -32,-12 -20,0 -37,10 -50,29 -14,20 -20,40 -20,62 0,13 4,24 13,33 8,8 18,12 30,12 10,0 19,-2 28,-7 9,-5 17,-12 23,-21 6,-9 11,-20 15,-34 3,-14 5,-24 5,-30zm-127 180c-14,6 -25,14 -32,24 -7,10 -11,20 -11,30 0,12 5,21 16,29 15,10 37,16 66,16 25,0 46,-4 64,-13 18,-8 27,-19 27,-33 0,-6 -4,-13 -10,-19 -7,-6 -19,-11 -38,-15 -11,-2 -38,-9 -82,-19z"/>
    <circle class="fil0 str3" cx="2894" cy="2761" r="250"/>
   </g>
  </g>
 </g>
</svg>
