<?xml version="1.0" encoding="UTF-8"?>
<!DOCTYPE svg PUBLIC "-//W3C//DTD SVG 1.1//EN" "http://www.w3.org/Graphics/SVG/1.1/DTD/svg11.dtd">
<!-- Creator: CorelDRAW Home & Student X8 -->
<svg xmlns="http://www.w3.org/2000/svg" xml:space="preserve" width="178.87mm" height="61.0635mm" version="1.1" style="shape-rendering:geometricPrecision; text-rendering:geometricPrecision; image-rendering:optimizeQuality; fill-rule:evenodd; clip-rule:evenodd"
viewBox="0 0 16692 5698"
 xmlns:xlink="http://www.w3.org/1999/xlink">
 <defs>
  <style type="text/css">
   <![CDATA[
    .str0 {stroke:#2B2A29;stroke-width:37.3269}
    .str2 {stroke:#2B2A29;stroke-width:27.9952}
    .str1 {stroke:#2B2A29;stroke-width:18.6634}
    .str3 {stroke:#E31E24;stroke-width:18.6634}
    .fil0 {fill:none}
    .fil1 {fill:#2B2A29;fill-rule:nonzero}
    .fil2 {fill:#E31E24;fill-rule:nonzero}
   ]]>
  </style>
 </defs>
 <g id="Warstwa_x0020_1">
  <metadata id="CorelCorpID_0Corel-Layer"/>
  <g id="_629227168">
   <polyline class="fil0 str0" points="4625,2004 4567,2148 4450,1855 4333,2148 4216,1855 4099,2148 3982,1855 3923,2004 "/>
   <polyline class="fil0 str0" points="6166,2004 6107,2148 5990,1855 5873,2148 5756,1855 5639,2148 5522,1855 5463,2004 "/>
   <polyline class="fil0 str0" points="6166,4852 6107,4997 5990,4703 5873,4997 5756,4703 5639,4997 5522,4703 5463,4852 "/>
   <polyline class="fil0 str0" points="4625,4852 4567,4997 4450,4703 4333,4997 4216,4703 4099,4997 3982,4703 3923,4852 "/>
   <path class="fil0 str0" d="M7103 2381l-567 0m557 256c-191,-179 -337,-177 -523,2"/>
   <path class="fil0 str0" d="M7100 4380l-567 0m556 -256c-191,179 -336,177 -522,-2"/>
   <polygon class="fil1" points="15868,5454 16053,5454 16053,5493 15868,5493 "/>
   <polyline class="fil0 str1" points="10188,1807 12457,1807 12457,285 9812,285 "/>
   <g>
    <path class="fil1" d="M5075 290l4563 0 0 19 -4563 0 -9 -9 9 -10zm-9 10l0 -10 9 0 -9 10zm0 1685l0 -1685 18 0 0 1685 -18 0zm75 0l0 0 0 4 0 3 0 3 -1 4 -1 3 -1 3 -1 3 -1 3 -1 3 -2 3 -1 3 -2 2 -2 3 -2 2 -2 3 -2 2 -2 2 -3 2 -2 2 -3 2 -3 2 -2 2 -3 1 -3 1 -3 2 -3 1 -3 1 -4 0 -3 1 -3 0 -3 1 -4 0 0 0 -3 0 -4 -1 -3 0 -3 -1 -3 0 -4 -1 -3 -1 -3 -2 -3 -1 -2 -1 -3 -2 -3 -2 -3 -2 -2 -2 -2 -2 -3 -2 -2 -2 -2 -3 -2 -2 -2 -3 -2 -2 -1 -3 -2 -3 -1 -3 -1 -3 -1 -3 -1 -3 -1 -3 -1 -4 0 -3 0 -3 0 -4 0 0 0 -3 0 -3 0 -4 1 -3 1 -3 1 -3 1 -3 1 -3 1 -3 2 -3 1 -3 2 -3 2 -2 2 -3 2 -2 2 -3 3 -2 2 -2 2 -2 3 -2 3 -1 3 -2 2 -2 3 -1 3 -1 3 -1 4 -1 3 -1 3 0 3 -1 4 0 3 0 0 0 4 0 3 0 3 1 3 0 4 1 3 1 3 1 3 1 3 1 3 2 2 2 3 1 3 2 2 2 3 2 2 2 2 3 2 2 2 3 2 2 2 3 1 3 2 3 1 3 1 3 1 3 1 3 1 3 1 3 0 4 0 3 0 3z"/>
   </g>
   <line class="fil0 str1" x1="6820" y1="2510" x2="6820" y2= "3380" />
   <g>
    <path class="fil1" d="M8475 2051l0 0 -3 0 -3 0 -4 -1 -3 -1 -3 0 -3 -1 -3 -1 -3 -1 -3 -2 -3 -1 -3 -2 -3 -2 -2 -2 -3 -1 -2 -3 -2 -2 -3 -2 -2 -3 -2 -2 -2 -3 -1 -2 -2 -3 -1 -3 -2 -3 -1 -3 -1 -3 -1 -3 0 -3 -1 -4 0 -3 -1 -3 0 -4 33 0 1 2 0 2 0 1 0 2 0 2 1 1 0 2 1 1 1 2 0 1 1 2 1 1 1 1 1 1 1 2 1 1 1 1 1 1 2 1 1 1 1 1 2 1 1 0 2 1 1 1 2 0 1 1 2 0 1 0 2 1 2 0 1 0 0 0 0 33zm67 -66l0 0 0 3 0 4 -1 3 0 3 -1 4 -1 3 -1 3 -1 3 -2 3 -1 3 -2 2 -2 3 -1 3 -2 2 -2 2 -3 3 -2 2 -2 2 -3 2 -3 2 -2 2 -3 1 -3 2 -3 1 -3 1 -3 1 -3 1 -3 1 -4 0 -3 1 -3 0 -4 0 0 -33 2 0 2 0 2 -1 1 0 2 0 1 -1 2 0 1 -1 2 0 1 -1 2 -1 1 -1 1 -1 2 -1 1 -1 1 -1 1 -1 1 -1 1 -1 1 -2 1 -1 1 -1 1 -2 0 -1 1 -2 0 -1 1 -2 0 -2 0 -1 1 -2 0 -2 0 -1 0 0 33 0zm-66 -67l0 0 3 0 4 1 3 0 3 1 4 0 3 1 3 1 3 2 3 1 3 1 2 2 3 2 3 2 2 2 3 2 2 2 2 2 2 3 2 2 2 3 2 2 1 3 2 3 1 3 1 3 1 3 1 3 1 4 0 3 1 3 0 4 0 3 -33 0 0 -2 0 -2 0 -1 -1 -2 0 -2 -1 -1 0 -2 -1 -1 0 -2 -1 -1 -1 -1 -1 -2 -1 -1 -1 -1 -1 -2 -1 -1 -1 -1 -1 -1 -1 -1 -2 -1 -1 -1 -1 -1 -2 0 -1 -1 -2 -1 -1 0 -2 -1 -1 0 -2 0 -2 0 -1 -1 -2 0 0 0 0 -33zm-67 66l0 -3 1 -4 0 -3 1 -3 1 -3 0 -4 1 -3 2 -3 1 -3 2 -2 1 -3 2 -3 2 -2 2 -3 2 -2 2 -3 2 -2 3 -2 2 -2 3 -2 3 -1 2 -2 3 -1 3 -2 3 -1 3 -1 4 -1 3 -1 3 0 3 -1 4 0 3 0 0 33 -2 0 -2 1 -1 0 -2 0 -1 0 -2 1 -2 0 -1 1 -1 1 -2 0 -1 1 -2 1 -1 1 -1 1 -1 1 -2 1 -1 1 -1 1 -1 2 -1 1 -1 1 0 2 -1 1 -1 1 0 2 -1 2 0 1 -1 2 0 1 0 2 0 2 -1 1 -33 0zm-2243 -23l2264 14 0 19 -2265 -14 1 -19z"/>
   </g>
   <g>
    <path class="fil1" d="M6856 2000l0 3 0 4 -1 3 0 3 -1 3 -1 3 -1 4 -1 3 -1 2 -2 3 -1 3 -2 3 -2 2 -2 3 -2 2 -2 3 -3 2 -2 2 -2 2 -3 2 -3 1 -3 2 -2 2 -3 1 -3 1 -3 1 -4 1 -3 1 -3 0 -3 1 -4 0 -3 0 0 0 -4 0 -3 0 -3 -1 -3 0 -4 -1 -3 -1 -3 -1 -3 -1 -3 -1 -3 -2 -2 -2 -3 -1 -3 -2 -2 -2 -3 -2 -2 -2 -2 -3 -2 -2 -2 -3 -2 -2 -2 -3 -1 -3 -2 -3 -1 -2 -1 -3 -1 -4 -1 -3 -1 -3 -1 -3 0 -3 0 -4 0 -3 0 0 0 -4 0 -3 0 -3 1 -4 1 -3 1 -3 1 -3 1 -3 1 -3 2 -3 1 -3 2 -2 2 -3 2 -2 2 -3 2 -2 2 -2 3 -2 2 -2 3 -2 3 -2 2 -2 3 -1 3 -1 3 -2 3 -1 3 -1 4 0 3 -1 3 0 3 -1 4 0 0 0 3 0 4 1 3 0 3 1 3 0 4 1 3 1 3 2 3 1 2 1 3 2 3 2 3 2 2 2 2 2 3 2 2 2 2 3 2 2 2 3 2 2 1 3 2 3 1 3 1 3 1 3 1 3 1 3 0 4 1 3 0 3 0 4 0 0zm-75 378l0 -378 18 0 0 378 -18 0z"/>
   </g>
   <path class="fil0 str0" d="M9825 567l0 -567m-257 556c179,-191 177,-336 -2,-522"/>
   <path class="fil0 str0" d="M9781 5696l0 -567m-256 557c179,-192 177,-337 -2,-523"/>
   <polygon class="fil1" points="15881,1832 15949,1832 15949,1764 16006,1764 16006,1832 16074,1832 16074,1889 16006,1889 16006,1956 15949,1956 15949,1889 15881,1889 "/>
   <line class="fil0 str1" x1="5463" y1="2004" x2="4625" y2= "2004" />
   <g>
    <path class="fil1" d="M8563 3663l0 0 0 3 0 4 -1 3 0 3 -1 3 -1 3 -1 4 -1 3 -1 3 -2 2 -1 3 -2 3 -2 2 -2 3 -2 2 -2 3 -3 2 -2 2 -3 2 -2 2 -3 1 -3 2 -2 2 -3 1 -3 1 -3 1 -4 1 -3 1 -3 0 -3 1 -4 0 -3 0 0 -33 1 0 2 0 2 0 1 -1 2 0 2 -1 1 0 2 -1 1 0 2 -1 1 -1 1 -1 2 -1 1 -1 1 -1 1 -1 1 -1 1 -1 1 -1 1 -2 1 -1 1 -1 1 -2 0 -1 1 -2 0 -1 1 -2 0 -2 1 -1 0 -2 0 -2 0 -1 0 0 33 0zm-66 -67l0 0 3 0 4 1 3 0 3 1 3 0 4 1 3 1 3 2 3 1 2 1 3 2 3 2 2 2 3 2 2 2 3 2 2 2 2 3 2 2 2 3 2 2 1 3 2 3 1 3 1 3 1 3 1 3 1 3 0 4 1 3 0 3 0 4 -33 0 0 -2 0 -2 0 -1 -1 -2 0 -2 -1 -1 0 -2 -1 -1 0 -2 -1 -1 -1 -1 -1 -2 -1 -1 -1 -1 -1 -2 -1 -1 -1 -1 -1 -1 -1 -1 -2 -1 -1 -1 -1 0 -2 -1 -1 -1 -2 0 -1 -1 -2 0 -2 -1 -1 0 -2 0 -2 0 -1 0 0 0 0 -34zm-67 67l0 0 0 -4 1 -3 0 -3 1 -4 0 -3 1 -3 1 -3 2 -3 1 -3 1 -3 2 -3 2 -2 2 -3 2 -2 2 -3 2 -2 2 -2 3 -2 2 -2 3 -2 2 -2 3 -2 3 -1 3 -1 3 -2 3 -1 3 -1 3 0 4 -1 3 0 3 -1 4 0 0 34 -2 0 -2 0 -1 0 -2 0 -2 1 -1 0 -2 1 -1 0 -2 1 -1 1 -1 0 -2 1 -1 1 -1 1 -2 1 -1 1 -1 1 -1 2 -1 1 -1 1 -1 2 0 1 -1 1 -1 2 0 1 -1 2 0 1 -1 2 0 2 0 1 0 2 0 2 0 0 -34 0zm67 66l-4 0 -3 0 -3 -1 -4 0 -3 -1 -3 -1 -3 -1 -3 -1 -3 -1 -3 -2 -3 -2 -2 -1 -3 -2 -2 -2 -3 -2 -2 -2 -2 -3 -2 -2 -2 -3 -2 -2 -2 -3 -2 -3 -1 -2 -1 -3 -2 -3 -1 -4 -1 -3 0 -3 -1 -3 0 -3 -1 -4 0 -3 34 0 0 1 0 2 0 2 0 1 1 2 0 2 1 1 0 2 1 1 1 2 0 1 1 1 1 2 1 1 1 1 1 1 1 1 2 1 1 1 1 1 2 1 1 1 1 1 2 0 1 1 2 0 1 1 2 0 2 1 1 0 2 0 2 0 0 33zm-10 1082l0 -1102 19 0 0 1102 -9 9 -10 -9zm19 0l0 9 -9 0 9 -9zm-1694 -10l1685 0 0 19 -1685 0 -9 -9 9 -10zm0 19l-9 0 0 -9 9 9zm8 -433l2 424 -19 0 -2 -424 19 0z"/>
   </g>
   <g>
    <path class="fil1" d="M6813 4877l-3 0 -4 0 -3 -1 -3 0 -3 -1 -4 -1 -3 -1 -3 -1 -3 -1 -3 -2 -2 -1 -3 -2 -3 -2 -2 -2 -3 -2 -2 -2 -2 -2 -2 -2 -2 -3 -2 -2 -2 -3 -2 -3 -1 -3 -1 -3 -2 -3 -1 -3 -1 -3 -1 -3 0 -3 -1 -4 0 -3 0 -3 0 0 0 -4 0 -3 1 -3 0 -4 1 -3 1 -3 1 -3 1 -3 1 -3 2 -3 1 -3 2 -3 2 -2 2 -3 2 -2 2 -3 2 -2 3 -2 2 -2 3 -2 2 -2 3 -1 3 -2 3 -1 3 -1 3 -1 3 -1 3 -1 3 -1 4 0 3 0 3 -1 0 0 4 0 3 1 4 0 3 1 3 0 3 1 3 1 3 1 3 2 3 1 3 2 3 1 2 2 3 2 2 2 3 2 2 3 2 2 2 2 2 3 2 3 1 2 2 3 1 3 1 3 1 3 1 3 1 4 1 3 0 3 1 4 0 3 0 0 0 3 -1 4 0 3 -1 3 0 4 -1 3 -1 3 -1 3 -2 3 -1 3 -2 2 -1 3 -2 3 -2 2 -2 3 -2 2 -2 2 -3 2 -2 2 -3 2 -3 2 -2 2 -3 1 -3 2 -3 1 -3 1 -3 1 -4 1 -3 0 -3 1 -3 0 -4 0 0 0zm-647 -67l646 -9 0 19 -646 8 0 -18z"/>
   </g>
   <line class="fil0 str1" x1="5463" y1="4852" x2="4625" y2= "4852" />
   <polyline class="fil0 str1" points="10188,3256 12428,3272 12453,5420 9851,5420 "/>
   <g>
    <path class="fil1" d="M5031 5414l4621 0 0 19 -4621 0 -9 -10 9 -9zm0 19l-9 0 0 -10 9 10zm10 -581l0 571 -19 0 0 -571 19 0zm-76 0l0 0 0 -3 0 -3 1 -4 0 -3 1 -3 1 -3 1 -3 1 -3 2 -3 1 -3 2 -3 1 -3 2 -2 2 -3 2 -2 2 -2 3 -3 2 -2 3 -2 2 -2 3 -1 3 -2 3 -1 3 -2 3 -1 3 -1 3 -1 3 -1 3 0 4 -1 3 0 3 0 0 0 4 0 3 0 3 1 4 0 3 1 3 1 3 1 3 1 3 2 3 1 3 2 2 1 3 2 2 2 3 2 2 3 2 2 2 2 2 3 2 2 2 3 2 3 1 3 1 3 2 3 1 3 1 3 0 3 1 3 0 4 1 3 0 3 0 0 0 4 -1 3 0 3 -1 4 0 3 -1 3 -1 3 -2 3 -1 3 -1 3 -2 3 -2 2 -2 3 -2 3 -2 2 -2 2 -2 2 -3 3 -2 2 -3 1 -2 2 -3 2 -3 1 -3 2 -3 1 -3 1 -3 1 -3 0 -4 1 -3 0 -3 1 -4 0 0 0 -3 0 -3 -1 -4 0 -3 -1 -3 0 -3 -1 -3 -1 -3 -1 -3 -2 -3 -1 -3 -2 -3 -2 -2 -1 -3 -2 -2 -3 -3 -2 -2 -2 -2 -2 -2 -3 -2 -3 -1 -2 -2 -3 -1 -3 -2 -3 -1 -3 -1 -3 -1 -3 -1 -3 0 -4 -1 -3 0 -3 0 -4z"/>
   </g>
   <path class="fil1" d="M4035 4359l-29 102c-4,14 -7,25 -7,32 0,6 3,11 8,15 5,4 16,6 32,6l-4 9 -161 0 3 -9c16,0 28,-3 36,-9 7,-6 14,-21 20,-43l62 -215c3,-12 5,-21 5,-28 0,-7 -2,-12 -6,-15 -5,-4 -15,-6 -30,-7l2 -9 139 0c40,0 68,7 84,21 16,13 24,31 24,53 0,23 -9,43 -28,62 -12,11 -33,21 -64,30l30 101c8,28 15,45 21,50 6,6 16,9 30,9l0 9 -104 0 -47 -164 -8 1c-2,0 -4,0 -8,-1zm4 -14c6,0 11,0 14,0 24,0 43,-8 59,-25 15,-16 22,-38 22,-64 0,-16 -4,-28 -12,-36 -8,-9 -19,-13 -32,-13 -3,0 -7,0 -12,0l-39 138z"/>
   <path id="1" class="fil1" d="M4454 4181l-83 281c-4,15 -7,24 -7,29 0,3 2,8 5,12 3,4 6,7 10,8 4,1 14,2 32,3l-3 9 -169 0 3 -9c17,0 28,-1 35,-4 7,-2 12,-6 16,-12 4,-6 9,-18 14,-36l50 -166c7,-26 11,-39 12,-41 1,-4 1,-8 1,-12 0,-7 -2,-13 -7,-18 -4,-4 -11,-6 -19,-6 -4,0 -12,0 -25,2l-2 -9 127 -31 10 0z"/>
   <path id="2" class="fil1" d="M4647 4180l-44 149c12,-14 23,-23 31,-28 8,-5 17,-7 27,-7 19,0 33,7 42,21 9,15 14,31 14,50 0,44 -16,84 -47,118 -28,31 -60,47 -96,47 -26,0 -55,-8 -84,-24l76 -260c4,-12 6,-21 6,-26 0,-4 -2,-8 -5,-10 -5,-4 -13,-5 -23,-5l2 -10 86 -15 15 0zm-97 328c8,5 14,7 20,7 9,0 16,-1 21,-5 9,-5 19,-15 28,-30 10,-15 18,-32 25,-53 7,-21 10,-42 10,-62 0,-12 -3,-21 -7,-27 -5,-6 -11,-9 -18,-9 -10,0 -20,6 -28,17 -5,8 -11,24 -17,48l-34 114z"/>
   <path class="fil1" d="M5492 1483l-29 102c-4,14 -7,25 -7,32 0,6 3,11 8,15 5,4 16,6 32,6l-4 9 -161 0 3 -9c16,0 28,-3 36,-9 7,-7 14,-21 20,-43l62 -215c3,-12 5,-21 5,-28 0,-7 -2,-12 -6,-16 -5,-3 -15,-5 -30,-7l2 -8 139 0c40,0 68,7 84,20 16,14 24,32 24,54 0,23 -9,43 -28,62 -12,11 -33,21 -64,30l30 101c8,28 15,44 21,50 6,6 16,9 30,9l0 9 -104 0 -47 -164 -8 1c-2,0 -4,-1 -8,-1zm4 -15c6,1 11,1 14,1 24,0 43,-8 59,-25 15,-16 22,-38 22,-65 0,-15 -4,-27 -12,-36 -8,-8 -19,-12 -32,-12 -3,0 -7,0 -12,0l-39 137z"/>
   <path id="1" class="fil1" d="M5864 1647l-178 0 0 -9c47,-43 85,-82 117,-118 27,-30 44,-53 50,-69 7,-15 11,-31 11,-47 0,-15 -5,-27 -14,-37 -10,-9 -22,-14 -36,-14 -23,0 -42,13 -59,38l-9 -4c9,-25 20,-43 34,-56 19,-17 41,-26 66,-26 24,0 44,8 59,22 16,15 23,32 23,51 0,17 -3,34 -11,50 -8,17 -23,38 -47,63 -18,19 -55,52 -110,99l65 0c20,0 35,-2 43,-7 8,-5 16,-14 23,-28l12 0 -39 92z"/>
   <path id="2" class="fil1" d="M6180 1421l-48 164 -5 20c-1,3 -1,5 -1,6 0,2 1,4 2,5 1,1 3,2 4,2 4,0 8,-2 14,-8 3,-2 9,-9 18,-22l8 4c-11,22 -24,37 -37,47 -13,10 -27,14 -42,14 -10,0 -17,-2 -22,-7 -5,-5 -7,-11 -7,-18 0,-6 2,-18 8,-36l6 -20c-19,33 -38,56 -55,70 -10,8 -21,11 -33,11 -15,0 -26,-6 -33,-18 -7,-13 -10,-27 -10,-42 0,-23 7,-50 21,-80 15,-30 33,-54 57,-72 19,-16 36,-23 53,-23 9,0 17,3 22,8 6,5 10,15 13,29l9 -30 58 -4zm-79 48c0,-14 -2,-23 -6,-29 -3,-4 -7,-6 -12,-6 -6,0 -11,2 -16,7 -11,10 -24,31 -36,62 -13,31 -20,58 -20,80 0,9 2,15 5,19 3,4 6,6 9,6 8,0 15,-4 23,-13 11,-12 21,-27 29,-44 16,-31 24,-59 24,-82z"/>
   <path class="fil1" d="M9752 686l-25 106 -9 0c-1,-29 -8,-50 -21,-65 -13,-14 -31,-21 -52,-21 -23,0 -46,10 -69,29 -23,20 -42,49 -58,89 -13,33 -19,65 -19,97 0,28 7,50 21,65 14,15 33,22 58,22 20,0 38,-4 54,-13 16,-8 33,-22 50,-41l11 0c-20,30 -41,52 -62,64 -21,12 -46,18 -76,18 -41,0 -73,-12 -98,-36 -24,-25 -37,-57 -37,-96 0,-37 10,-72 30,-106 19,-33 48,-60 84,-81 37,-20 74,-31 110,-31 14,0 32,3 52,9 11,3 18,4 22,4 8,0 17,-4 25,-13l9 0z"/>
   <path id="1" class="fil1" d="M9951 687l-83 281c-4,15 -6,24 -6,28 0,4 1,8 4,13 3,4 7,7 10,8 4,1 14,2 32,3l-3 9 -169 0 3 -9c17,0 29,-1 35,-4 7,-2 12,-7 16,-12 5,-6 9,-18 15,-36l49 -166c8,-26 12,-39 12,-41 1,-4 1,-8 1,-12 0,-8 -2,-13 -6,-18 -5,-4 -11,-6 -20,-6 -4,0 -12,0 -25,2l-2 -9 127 -31 10 0z"/>
   <path id="2" class="fil1" d="M10220 803l-48 164 -5 20c-1,3 -1,5 -1,6 0,2 1,4 2,5 2,1 3,2 4,2 4,0 9,-2 15,-8 2,-2 8,-9 17,-22l9 4c-12,21 -24,37 -38,47 -13,10 -27,14 -42,14 -10,0 -17,-2 -22,-7 -5,-5 -7,-11 -7,-18 0,-6 3,-18 8,-36l6 -20c-19,33 -37,56 -55,70 -10,8 -21,11 -33,11 -15,0 -26,-6 -33,-18 -6,-13 -10,-27 -10,-42 0,-23 7,-50 22,-80 14,-30 33,-54 56,-72 19,-16 37,-23 53,-23 10,0 17,3 23,8 5,5 9,15 12,29l9 -30 58 -4zm-79 48c0,-14 -2,-23 -6,-29 -3,-4 -7,-6 -12,-6 -5,0 -11,2 -16,7 -11,10 -23,31 -36,62 -13,31 -19,58 -19,80 0,9 1,15 4,19 3,4 6,6 9,6 8,0 15,-4 23,-13 11,-12 21,-27 30,-44 15,-31 23,-59 23,-82z"/>
   <path class="fil1" d="M7568 2328l-25 106 -8 0c-2,-29 -9,-50 -22,-65 -13,-14 -31,-21 -52,-21 -23,0 -46,10 -69,29 -22,20 -42,49 -58,89 -12,33 -19,65 -19,97 0,28 7,50 21,65 14,15 34,22 58,22 20,0 38,-4 54,-13 17,-8 33,-22 50,-41l11 0c-20,30 -41,52 -62,64 -20,12 -46,18 -76,18 -40,0 -73,-12 -98,-36 -24,-25 -37,-57 -37,-96 0,-37 10,-72 30,-106 20,-33 48,-60 85,-81 37,-20 73,-31 110,-31 13,0 31,3 51,9 11,3 18,4 22,4 9,0 17,-4 25,-13l9 0z"/>
   <path id="1" class="fil1" d="M7720 2671l-177 0 0 -9c46,-43 85,-82 117,-118 26,-30 43,-53 50,-69 7,-15 10,-31 10,-47 0,-15 -5,-27 -14,-37 -10,-9 -21,-14 -35,-14 -23,0 -43,13 -59,38l-9 -4c8,-25 19,-43 33,-56 19,-17 41,-26 67,-26 23,0 43,8 58,22 16,15 24,32 24,51 0,17 -4,34 -12,50 -7,17 -23,38 -46,63 -19,19 -55,52 -111,99l65 0c21,0 35,-2 43,-7 9,-5 17,-14 24,-28l11 0 -39 92z"/>
   <path id="2" class="fil1" d="M8037 2445l-49 164 -5 20c0,3 -1,5 -1,6 0,2 1,3 2,5 2,1 3,2 5,2 3,0 8,-2 14,-8 2,-2 8,-9 17,-22l9 4c-12,21 -24,37 -37,47 -14,10 -28,14 -43,14 -9,0 -17,-2 -21,-7 -5,-5 -8,-11 -8,-18 0,-6 3,-18 8,-36l6 -20c-19,33 -37,56 -55,70 -10,8 -21,11 -32,11 -16,0 -27,-6 -33,-18 -7,-13 -10,-27 -10,-42 0,-23 7,-50 21,-80 14,-30 33,-54 56,-72 19,-16 37,-23 54,-23 9,0 16,3 22,8 6,5 10,15 12,29l9 -30 59 -4zm-79 48c0,-14 -3,-23 -7,-29 -3,-4 -7,-6 -12,-6 -5,0 -10,2 -16,7 -11,10 -23,31 -36,62 -13,31 -19,58 -19,80 0,9 1,15 4,19 3,4 6,6 10,6 7,0 15,-4 22,-13 11,-12 21,-27 30,-44 16,-31 24,-59 24,-82z"/>
   <path class="fil1" d="M3997 1521l-29 102c-4,14 -6,25 -6,32 0,6 2,11 7,15 5,4 16,6 32,6l-3 9 -162 0 3 -9c17,0 28,-3 36,-9 7,-7 14,-21 20,-43l62 -215c4,-12 5,-22 5,-29 0,-6 -2,-11 -6,-15 -4,-3 -14,-6 -30,-7l2 -8 139 0c40,0 68,7 84,20 16,14 24,32 24,54 0,22 -9,43 -28,62 -12,11 -33,21 -64,29l30 102c8,28 15,44 21,50 6,5 16,9 30,9l0 9 -104 0 -47 -164 -8 0c-2,0 -4,0 -8,0zm4 -15c6,1 11,1 15,1 23,0 43,-8 58,-25 15,-16 22,-38 22,-65 0,-16 -4,-28 -12,-36 -8,-8 -19,-12 -32,-12 -3,0 -7,0 -11,0l-40 137z"/>
   <path id="1" class="fil1" d="M4416 1343l-83 281c-4,15 -6,24 -6,28 0,4 1,8 4,12 3,5 7,7 10,9 4,1 14,2 32,3l-3 9 -169 0 3 -9c17,0 29,-2 35,-4 7,-3 12,-7 16,-12 5,-6 9,-18 15,-36l49 -167c7,-25 11,-39 12,-40 1,-4 1,-8 1,-12 0,-8 -2,-14 -7,-18 -4,-4 -11,-6 -19,-6 -4,0 -12,0 -25,1l-2 -9 127 -30 10 0z"/>
   <path id="2" class="fil1" d="M4685 1459l-48 164 -5 20c-1,3 -1,5 -1,6 0,2 1,3 2,5 2,1 3,2 4,2 4,0 8,-3 14,-8 3,-2 9,-9 18,-22l9 4c-12,21 -24,37 -38,47 -13,9 -27,14 -42,14 -10,0 -17,-2 -22,-7 -5,-5 -7,-11 -7,-18 0,-6 3,-18 8,-36l6 -20c-19,33 -37,56 -55,70 -10,7 -21,11 -33,11 -15,0 -26,-6 -33,-18 -6,-13 -10,-27 -10,-42 0,-24 7,-50 22,-80 14,-30 33,-54 56,-73 19,-15 37,-22 53,-22 10,0 17,2 23,8 5,5 9,15 12,29l9 -30 58 -4zm-79 47c0,-13 -2,-23 -6,-28 -3,-5 -7,-7 -12,-7 -5,0 -11,3 -16,8 -11,10 -23,31 -36,62 -13,31 -20,58 -20,80 0,9 2,15 5,19 3,4 6,6 9,6 8,0 15,-5 23,-13 11,-12 21,-27 29,-44 16,-31 24,-59 24,-83z"/>
   <path class="fil1" d="M5549 4378l-29 102c-5,14 -7,25 -7,32 0,6 3,11 8,15 5,4 16,6 32,6l-4 9 -161 0 3 -9c16,0 28,-3 36,-9 7,-6 14,-21 20,-43l62 -215c3,-12 5,-21 5,-28 0,-7 -2,-12 -7,-16 -4,-3 -14,-5 -29,-7l2 -8 139 0c40,0 68,7 84,21 16,13 24,31 24,53 0,23 -10,43 -28,62 -12,11 -34,21 -64,30l30 101c8,28 15,44 21,50 6,6 16,9 30,9l0 9 -104 0 -47 -164 -8 1c-2,0 -5,0 -8,-1zm4 -14c6,0 10,0 14,0 24,0 43,-8 58,-25 15,-16 23,-38 23,-65 0,-15 -4,-27 -12,-36 -8,-8 -19,-12 -32,-12 -4,0 -7,0 -12,0l-39 138z"/>
   <path id="1" class="fil1" d="M5921 4542l-178 0 0 -9c46,-43 85,-82 117,-118 27,-30 43,-53 50,-68 7,-16 10,-32 10,-48 0,-15 -4,-27 -14,-37 -9,-9 -21,-14 -35,-14 -23,0 -43,13 -59,38l-9 -4c9,-24 20,-43 33,-56 19,-17 42,-26 67,-26 24,0 43,8 59,22 15,15 23,32 23,51 0,17 -4,34 -11,50 -8,17 -23,38 -47,63 -18,19 -55,52 -110,99l64 0c21,0 36,-2 44,-7 8,-4 16,-14 23,-28l12 0 -39 92z"/>
   <path id="2" class="fil1" d="M6161 4199l-44 149c12,-14 22,-23 31,-28 8,-5 17,-7 27,-7 18,0 33,7 42,21 9,15 14,31 14,49 0,45 -16,85 -48,119 -28,31 -59,47 -95,47 -27,0 -55,-8 -84,-24l76 -260c3,-13 5,-21 6,-26 0,-5 -2,-8 -5,-10 -5,-4 -13,-5 -23,-5l2 -10 85 -15 16 0zm-97 328c7,5 14,7 20,7 8,0 15,-1 21,-5 9,-5 18,-16 28,-30 10,-15 18,-33 25,-53 6,-21 10,-42 10,-62 0,-12 -3,-21 -8,-27 -5,-6 -10,-9 -17,-9 -11,0 -20,6 -28,17 -5,8 -11,24 -17,48l-34 114z"/>
   <path class="fil1" d="M9587 4493l-25 106 -8 0c-1,-29 -9,-51 -22,-65 -13,-14 -30,-21 -52,-21 -23,0 -46,9 -68,29 -23,19 -43,49 -58,89 -13,33 -20,65 -20,97 0,28 7,50 21,65 14,14 34,22 58,22 20,0 38,-4 54,-13 17,-8 33,-22 50,-42l11 0c-20,31 -41,52 -61,65 -21,12 -47,18 -77,18 -40,0 -73,-12 -98,-36 -24,-25 -37,-57 -37,-96 0,-37 10,-72 30,-106 20,-33 48,-60 85,-81 37,-21 73,-31 110,-31 14,0 31,3 51,9 11,3 18,4 22,4 9,0 17,-4 25,-13l9 0z"/>
   <path id="1" class="fil1" d="M9787 4494l-84 281c-4,15 -6,24 -6,28 0,4 2,8 5,12 3,5 6,7 9,9 4,1 15,2 32,3l-2 9 -169 0 2 -9c17,0 29,-2 35,-4 7,-3 12,-7 17,-12 4,-6 9,-18 14,-36l49 -167c8,-25 12,-39 12,-40 1,-4 2,-8 2,-12 0,-8 -3,-14 -7,-18 -5,-4 -11,-7 -20,-7 -4,0 -12,1 -24,2l-2 -9 126 -30 11 0z"/>
   <path id="2" class="fil1" d="M9979 4493l-43 148c12,-13 22,-23 31,-27 8,-5 17,-7 26,-7 19,0 33,7 43,21 9,14 14,31 14,49 0,45 -16,84 -48,119 -28,31 -60,46 -95,46 -27,0 -55,-8 -85,-23l77 -261c3,-12 5,-21 6,-26 0,-4 -2,-7 -6,-10 -5,-3 -12,-5 -22,-4l2 -10 85 -15 15 0zm-96 328c7,5 14,7 20,7 8,0 15,-2 21,-5 9,-6 18,-16 28,-30 10,-15 18,-33 24,-54 7,-20 10,-41 10,-62 0,-11 -2,-20 -7,-26 -5,-6 -11,-9 -17,-9 -11,0 -20,5 -28,17 -6,7 -11,23 -18,48l-33 114z"/>
   <path class="fil1" d="M7555 4121l-25 106 -9 0c-1,-29 -8,-51 -21,-65 -14,-14 -31,-21 -52,-21 -23,0 -46,10 -69,29 -23,19 -42,49 -58,89 -13,33 -19,65 -19,97 0,28 7,50 21,65 14,14 33,22 58,22 20,0 38,-4 54,-13 16,-8 33,-22 49,-42l12 0c-20,31 -41,52 -62,65 -21,12 -46,18 -76,18 -41,0 -73,-12 -98,-36 -25,-25 -37,-57 -37,-96 0,-37 10,-72 30,-106 19,-33 47,-60 84,-81 37,-21 74,-31 110,-31 14,0 31,3 52,9 11,3 18,4 22,4 8,0 17,-4 25,-13l9 0z"/>
   <path id="1" class="fil1" d="M7707 4464l-178 0 0 -9c47,-43 86,-82 117,-118 27,-30 44,-53 51,-69 6,-15 10,-31 10,-47 0,-15 -5,-27 -14,-37 -10,-9 -22,-14 -36,-14 -23,0 -42,13 -58,38l-10 -4c9,-25 20,-43 34,-56 19,-17 41,-26 66,-26 24,0 44,7 59,22 16,15 24,32 24,51 0,17 -4,34 -12,50 -7,17 -23,37 -47,62 -18,20 -55,53 -110,100l65 0c20,0 35,-2 43,-7 8,-5 16,-14 23,-28l12 0 -39 92z"/>
   <path id="2" class="fil1" d="M7947 4121l-44 149c13,-14 23,-24 31,-28 8,-5 17,-7 27,-7 19,0 33,7 42,21 10,14 14,31 14,49 0,45 -16,84 -47,119 -28,31 -60,46 -96,46 -26,0 -54,-8 -84,-23l76 -261c4,-12 6,-21 6,-26 0,-4 -1,-7 -5,-10 -5,-3 -12,-5 -23,-4l2 -10 86 -15 15 0zm-97 328c8,5 14,7 20,7 9,0 16,-2 21,-5 9,-6 19,-16 29,-30 9,-15 17,-33 24,-54 7,-20 10,-41 10,-62 0,-11 -2,-20 -7,-26 -5,-6 -11,-9 -17,-9 -11,0 -20,5 -28,17 -6,7 -12,23 -18,48l-34 114z"/>
   <path class="fil1" d="M15991 3704l28 -279c1,-14 2,-24 2,-29 0,-7 -3,-13 -9,-18 -5,-5 -14,-8 -26,-8l-9 0 3 -9 132 0 -3 9c-14,1 -24,2 -29,5 -6,3 -10,8 -13,14 -2,4 -3,14 -5,32l-20 200 132 -179c14,-19 23,-33 26,-40 3,-6 4,-10 4,-14 0,-4 -2,-8 -6,-12 -4,-3 -11,-5 -21,-6l3 -9 100 0 -2 9c-8,1 -15,3 -20,5 -9,4 -18,11 -27,20 -9,8 -23,26 -42,53l-189 256 -9 0z"/>
   <path id="1" class="fil1" d="M16402 3560c15,0 29,3 42,10 12,7 22,17 29,31 6,13 10,27 10,42 0,25 -8,52 -22,80 -15,29 -35,50 -59,65 -24,15 -49,22 -74,22 -19,0 -34,-4 -47,-12 -12,-8 -21,-19 -27,-32 -6,-14 -9,-27 -9,-39 0,-23 5,-45 16,-67 11,-22 24,-40 39,-54 15,-15 31,-26 48,-34 17,-8 35,-12 54,-12zm-7 11c-12,0 -23,3 -34,9 -12,6 -23,15 -34,29 -11,13 -21,30 -30,52 -11,26 -16,51 -16,74 0,17 4,32 13,45 8,13 22,19 39,19 11,0 22,-3 32,-8 10,-5 21,-14 32,-27 14,-16 26,-37 36,-62 9,-25 14,-48 14,-70 0,-16 -4,-30 -13,-42 -8,-13 -21,-19 -39,-19z"/>
   <path id="2" class="fil1" d="M16692 3552l-62 213c-4,11 -5,19 -5,22 0,1 0,2 1,3 0,1 1,2 2,2 1,0 2,-1 3,-2 3,-3 8,-10 14,-21l6 3c-7,12 -14,21 -21,27 -7,7 -14,10 -20,10 -3,0 -6,-2 -8,-4 -3,-3 -4,-7 -4,-12 0,-7 2,-16 5,-27l7 -22c-19,26 -36,44 -51,54 -11,7 -21,11 -31,11 -10,0 -18,-4 -26,-12 -7,-8 -11,-19 -11,-32 0,-18 6,-37 18,-56 13,-20 29,-36 48,-49 16,-10 31,-15 44,-15 7,0 13,1 17,4 5,3 10,7 15,13l17 -58c2,-7 3,-12 5,-16 1,-5 2,-9 2,-12 0,-2 -1,-4 -3,-6 -2,-2 -6,-3 -10,-3 -2,0 -7,0 -13,1l0 -6 61 -10zm-68 127c0,-8 -3,-14 -8,-18 -4,-5 -11,-7 -18,-7 -16,0 -33,12 -51,37 -18,24 -27,48 -27,70 0,9 2,16 7,20 5,5 10,7 16,7 15,0 32,-13 51,-40 20,-26 30,-49 30,-69z"/>
   <g>
    <path class="fil1" d="M15685 1819l99 233 0 0 -6 -3 -7 -3 -6 -3 -6 -2 -6 -3 -7 -2 -6 -2 -6 -1 -6 -2 -6 -1 -7 -1 -6 -1 -6 -1 -6 0 -6 -1 -7 0 -6 0 -6 1 -6 0 -7 1 -6 1 -6 1 -6 1 -7 1 -6 2 -6 2 -6 2 -6 2 -7 2 -6 3 -6 3 -6 3 100 -232zm-29 3624l19 -3507 19 0 -19 3507 -19 0z"/>
   </g>
   <polyline class="fil0 str1" points="6820,2510 6816,3407 6816,4251 "/>
   <g>
    <path class="fil1" d="M8541 2277l92 236 0 0 -7 -3 -6 -3 -6 -3 -6 -3 -6 -2 -6 -2 -6 -3 -7 -1 -6 -2 -6 -2 -6 -1 -6 -1 -7 -1 -6 0 -6 -1 -6 0 -6 0 -7 0 -6 0 -6 1 -6 0 -7 1 -6 1 -6 1 -6 2 -7 1 -6 2 -6 2 -7 3 -6 2 -6 3 -6 2 107 -229zm-44 1033l31 -916 18 0 -30 917 -19 -1z"/>
   </g>
   <path class="fil1" d="M9881 3470l-92 322 37 -32c40,-34 67,-60 80,-76 3,-6 5,-10 5,-13 0,-2 0,-4 -2,-6 -1,-2 -3,-3 -7,-4 -4,-1 -11,-2 -20,-2l-12 0 4 -12 143 0 -3 12c-17,1 -31,4 -43,8 -12,4 -23,11 -34,20 -22,16 -37,28 -44,34l-28 25c5,16 10,38 17,66 12,46 20,74 24,83 5,8 9,13 13,13 4,0 8,-2 13,-6 12,-8 24,-21 37,-39l11 8c-24,29 -42,49 -55,59 -12,9 -24,14 -34,14 -10,0 -17,-4 -22,-10 -8,-13 -23,-64 -43,-153l-45 39 -34 116 -51 0 108 -374 9 -32c1,-5 2,-10 2,-14 0,-5 -2,-9 -6,-13 -4,-3 -10,-5 -17,-5 -5,0 -13,1 -24,3l-1 -12 114 -19z"/>
   <path id="1" class="fil1" d="M10002 3660l93 -20c7,16 13,32 17,49 6,25 11,54 15,88 1,17 4,53 7,108 27,-30 44,-49 49,-56 29,-39 46,-62 50,-69 8,-11 13,-22 16,-30 2,-7 3,-13 4,-19 0,-6 -5,-12 -15,-20 -10,-7 -16,-15 -16,-25 0,-7 3,-13 9,-18 5,-6 12,-8 19,-8 10,0 18,3 25,11 6,7 10,17 10,28 0,11 -2,22 -5,32 -6,17 -17,37 -32,61 -16,24 -41,56 -75,96 -5,5 -29,30 -73,76l-12 0c-6,-138 -17,-225 -33,-259 -6,-11 -15,-17 -27,-17 -6,0 -14,1 -24,3l-2 -11z"/>
   <path id="2" class="fil1" d="M10436 3709c9,0 17,4 23,10 7,6 10,14 10,23 0,9 -3,17 -10,24 -6,6 -14,9 -23,9 -9,0 -17,-3 -23,-9 -7,-7 -10,-15 -10,-24 0,-9 3,-17 10,-23 6,-6 14,-10 23,-10zm14 131l-69 232c-4,16 -7,25 -7,29 0,3 1,6 3,8 2,2 4,3 7,3 3,0 6,-2 11,-5 11,-10 22,-24 33,-42l12 8c-14,22 -31,41 -50,56 -14,11 -28,16 -41,16 -8,0 -15,-2 -21,-8 -5,-5 -8,-12 -8,-19 0,-9 3,-22 9,-41l46 -149c7,-24 10,-39 10,-45 0,-4 -1,-8 -5,-11 -3,-4 -8,-5 -14,-5 -5,0 -14,1 -30,4l0 -13 114 -18z"/>
   <g>
    <polygon class="fil1" points="10182,2041 10182,2164 10305,2164 10305,2198 10182,2198 10182,2321 10148,2321 10148,2198 10026,2198 10026,2164 10148,2164 10148,2041 "/>
    <polygon class="fil1" points="10198,2914 10198,3047 10159,3047 10159,2914 "/>
    <rect class="fil0 str2" transform="matrix(-0.966762 -0.966762 0.966762 -0.966762 10188.1 3256.09)" width="711" height="711"/>
   </g>
   <path class="fil1" d="M8681 2855l110 -23c8,19 15,38 20,58 7,29 12,63 17,103 2,20 5,63 8,128 33,-36 52,-58 58,-66 35,-46 54,-73 59,-81 9,-14 15,-26 18,-36 3,-8 5,-15 5,-22 0,-7 -6,-15 -18,-23 -11,-9 -17,-19 -17,-30 0,-8 3,-15 9,-22 7,-6 15,-9 24,-9 10,0 20,4 28,13 8,9 12,20 12,33 0,13 -2,26 -6,38 -7,19 -19,43 -38,71 -18,28 -47,66 -88,113 -5,6 -34,36 -86,90l-14 0c-6,-163 -19,-264 -39,-305 -6,-13 -17,-19 -32,-19 -6,0 -15,1 -27,3l-3 -14z"/>
   <path id="1" class="fil1" d="M9192 2914c11,0 20,4 27,11 8,8 11,17 11,28 0,10 -3,19 -11,27 -8,8 -17,11 -27,11 -11,0 -20,-3 -28,-11 -7,-8 -11,-17 -11,-27 0,-11 4,-20 11,-28 8,-7 17,-11 28,-11zm17 153l-82 274c-5,18 -8,29 -8,33 0,4 1,7 4,10 2,2 4,3 8,3 3,0 7,-2 12,-6 13,-11 26,-27 40,-49l13 9c-16,27 -36,49 -58,66 -17,13 -33,20 -48,20 -10,0 -18,-3 -25,-10 -6,-6 -9,-14 -9,-23 0,-10 3,-25 10,-48l54 -174c8,-29 12,-46 12,-53 0,-6 -2,-11 -6,-14 -4,-4 -9,-6 -16,-6 -6,0 -18,2 -35,5l0 -15 134 -22z"/>
   <g>
    <path class="fil1" d="M5099 2507l0 -6c31,-5 54,-14 69,-28 11,-10 17,-21 17,-35 0,-10 -4,-18 -10,-25 -6,-7 -14,-10 -23,-10 -15,0 -27,9 -38,26l-8 -1c7,-15 16,-26 26,-34 11,-8 22,-12 35,-12 15,0 27,5 36,14 10,9 14,21 14,34 0,12 -4,24 -13,35 -9,11 -24,20 -45,29 13,5 23,13 30,24 7,10 10,23 10,37 0,16 -4,32 -14,48 -9,16 -22,29 -38,38 -16,8 -33,13 -51,13 -16,0 -28,-3 -37,-9 -5,-3 -8,-8 -8,-13 0,-5 2,-8 5,-12 3,-3 7,-4 12,-4 3,0 7,0 10,1 2,1 7,3 15,8 8,4 15,7 19,9 5,1 9,2 14,2 12,0 21,-7 29,-20 7,-13 11,-28 11,-43 0,-12 -2,-23 -8,-33 -5,-10 -13,-17 -24,-23 -10,-6 -22,-10 -35,-10z"/>
    <circle class="fil0 str1" cx="5134" cy="2518" r="198"/>
   </g>
   <path class="fil1" d="M5062 4592l15 -72 -116 0 8 -35 159 -176 29 0 -39 180 41 0 -7 31 -40 0 -16 72 -34 0zm22 -103l25 -118 -106 118 81 0z"/>
   <circle class="fil0 str1" cx="5060" cy="4451" r="198"/>
   <g>
    <path class="fil1" d="M12048 1315l130 0 0 7 -146 259 -16 -7 129 -228 -62 0c-17,0 -29,1 -35,4 -7,3 -14,11 -22,22l-8 0 30 -57z"/>
    <circle class="fil0 str1" cx="12097" cy="1448" r="198"/>
   </g>
   <g>
    <path class="fil1" d="M12110 3622c12,13 22,26 27,38 6,11 9,23 9,35 0,21 -8,39 -24,55 -16,15 -36,23 -59,23 -21,0 -38,-6 -51,-19 -14,-13 -20,-28 -20,-45 0,-14 5,-28 16,-42 11,-14 31,-28 61,-41 -12,-14 -20,-25 -24,-34 -4,-10 -6,-19 -6,-28 0,-17 7,-31 19,-44 13,-12 30,-18 49,-18 19,0 34,5 45,16 12,10 18,23 18,37 0,14 -5,27 -14,39 -10,11 -25,21 -46,28zm-7 -8c13,-5 24,-12 32,-23 7,-11 11,-24 11,-38 0,-13 -3,-23 -11,-30 -7,-8 -17,-12 -29,-12 -11,0 -21,4 -28,11 -7,7 -10,17 -10,28 0,9 2,17 5,24 6,11 15,24 30,40zm-27 20c-19,8 -34,20 -44,35 -10,15 -14,31 -14,48 0,14 4,26 13,34 8,9 20,13 34,13 15,0 27,-5 37,-15 10,-11 15,-23 15,-37 0,-11 -3,-22 -9,-34 -6,-12 -16,-27 -32,-44z"/>
    <circle class="fil0 str1" cx="12081" cy="3637" r="198"/>
   </g>
   <g>
    <path class="fil1" d="M5150 4318l-50 171 31 0 -7 25 -31 0 -20 70 -28 0 20 -70 -95 0 8 -28 157 -168 15 0zm-43 49l-112 122 77 0 35 -122z"/>
    <circle class="fil0 str1" cx="5060" cy="4451" r="198"/>
   </g>
   <g>
    <path class="fil1" d="M8416 1312l87 0 -9 32 -79 0 -14 32c21,3 37,9 49,19 18,15 27,36 27,63 0,18 -4,34 -10,49 -7,14 -15,26 -24,36 -10,10 -20,18 -31,23 -15,8 -30,12 -45,12 -13,0 -24,-3 -31,-9 -5,-3 -8,-8 -8,-14 0,-5 2,-9 5,-12 4,-3 8,-5 13,-5 6,0 14,3 22,10 5,4 10,7 13,9 3,1 6,1 10,1 14,0 27,-7 40,-21 12,-15 18,-34 18,-57 0,-16 -3,-30 -10,-41 -6,-11 -14,-19 -24,-24 -10,-4 -24,-8 -41,-9l42 -94z"/>
    <circle class="fil0 str1" cx="8416" cy="1445" r="198"/>
   </g>
   <g>
    <circle class="fil0 str1" cx="8803" cy="4032" r="198"/>
    <g>
     <path class="fil1" d="M8894 3897l0 7c-22,5 -43,16 -64,33 -20,16 -38,37 -54,63 14,-6 25,-9 34,-9 16,0 30,6 42,18 11,12 17,28 17,48 0,30 -10,57 -30,78 -19,22 -41,33 -64,33 -20,0 -36,-8 -47,-23 -11,-15 -16,-33 -16,-53 0,-27 6,-53 18,-78 12,-26 29,-48 50,-66 21,-19 42,-32 65,-41 13,-5 30,-9 49,-10zm-127 119c-19,39 -28,72 -28,99 0,13 4,24 11,32 7,8 15,12 24,12 14,0 28,-11 41,-32 13,-22 19,-47 19,-75 0,-15 -3,-27 -11,-35 -7,-8 -16,-12 -27,-12 -5,0 -9,0 -13,2 -4,1 -9,5 -16,9z"/>
     <circle class="fil0 str1" cx="8803" cy="4032" r="198"/>
    </g>
   </g>
   <g>
    <polygon class="fil1" points="13642,3817 13642,3940 13766,3940 13766,3974 13642,3974 13642,4097 13609,4097 13609,3974 13486,3974 13486,3940 13609,3940 13609,3817 "/>
    <polygon class="fil1" points="13659,4690 13659,4823 13620,4823 13620,4690 "/>
    <rect class="fil0 str2" transform="matrix(-0.966762 -0.966762 0.966762 -0.966762 13648.4 5032.05)" width="711" height="711"/>
   </g>
   <g>
    <path class="fil1" d="M12453 5353l3 0 3 1 4 0 3 1 3 0 3 1 3 1 3 1 3 2 3 1 3 2 3 2 2 1 3 2 2 2 3 3 2 2 2 2 2 3 2 2 1 3 2 3 2 3 1 3 1 3 1 3 1 3 1 3 0 3 1 4 0 3 0 4 0 0 0 3 0 3 -1 4 0 3 -1 3 -1 3 -1 3 -1 3 -1 3 -2 3 -2 3 -1 3 -2 2 -2 3 -2 2 -2 2 -3 3 -2 2 -3 2 -2 2 -3 1 -3 2 -3 1 -3 2 -3 1 -3 1 -3 1 -3 1 -3 0 -4 1 -3 0 -3 0 0 0 -4 0 -3 0 -3 -1 -4 0 -3 -1 -3 -1 -3 -1 -3 -1 -3 -2 -3 -1 -3 -2 -2 -1 -3 -2 -2 -2 -3 -2 -2 -3 -2 -2 -2 -2 -2 -3 -2 -2 -2 -3 -2 -3 -1 -3 -1 -3 -2 -3 -1 -3 -1 -3 0 -3 -1 -3 0 -4 -1 -3 0 -3 0 0 0 -4 1 -3 0 -4 1 -3 0 -3 1 -3 1 -3 2 -3 1 -3 1 -3 2 -3 2 -3 2 -2 2 -3 2 -2 2 -2 2 -3 3 -2 2 -2 3 -1 2 -2 3 -2 3 -1 3 -2 3 -1 3 -1 3 -1 3 0 4 -1 3 0 3 -1 4 0 0 0zm1185 76l-1185 0 0 -19 1185 0 10 10 -10 9zm10 -9l0 9 -10 0 10 -9zm0 -388l0 388 -19 0 0 -388 19 0z"/>
   </g>
   <g>
    <path class="fil1" d="M13658 3122l0 534 -19 0 0 -534 19 0zm131 0l0 17 -281 0 0 -33 281 0 0 16z"/>
   </g>
   <g>
    <path class="fil1" d="M12457 1740l4 0 3 1 3 0 4 1 3 0 3 1 3 1 3 1 3 2 3 1 3 2 2 2 3 1 2 2 3 3 2 2 2 2 2 2 2 3 2 3 2 2 2 3 1 3 1 3 2 3 1 3 1 3 0 3 1 4 0 3 1 3 0 4 0 0 0 3 -1 3 0 4 -1 3 0 3 -1 3 -1 3 -2 3 -1 3 -1 3 -2 3 -2 3 -2 2 -2 3 -2 2 -2 3 -2 2 -3 2 -2 2 -3 2 -2 1 -3 2 -3 1 -3 2 -3 1 -3 1 -3 1 -3 1 -4 0 -3 1 -3 0 -4 0 0 0 -3 0 -3 0 -4 -1 -3 0 -3 -1 -3 -1 -3 -1 -3 -1 -3 -2 -3 -1 -3 -2 -3 -1 -2 -2 -3 -2 -2 -2 -3 -2 -2 -3 -2 -2 -2 -3 -2 -2 -1 -3 -2 -3 -1 -3 -2 -3 -1 -3 -1 -3 -1 -3 -1 -3 0 -3 -1 -4 0 -3 0 -3 0 0 0 -4 0 -3 1 -3 0 -4 1 -3 1 -3 1 -3 1 -3 2 -3 1 -3 2 -3 1 -2 2 -3 2 -3 2 -2 2 -2 3 -2 2 -3 3 -2 2 -1 3 -2 3 -2 3 -1 3 -2 3 -1 3 -1 3 -1 3 0 3 -1 4 0 3 -1 3 0 0 0zm1048 76l-1048 0 0 -19 1048 0 0 19zm90 -118l0 33 0 0 -4 0 -4 0 -4 1 -4 0 -3 1 -4 1 -3 2 -4 1 -3 1 -3 2 -3 2 -4 2 -3 2 -2 2 -3 3 -3 2 -2 3 -3 3 -2 2 -2 3 -2 3 -2 4 -2 3 -1 3 -1 4 -2 3 -1 4 0 3 -1 4 -1 4 0 4 0 4 -33 0 0 -6 0 -5 1 -6 1 -5 1 -6 2 -5 1 -5 2 -5 3 -5 2 -4 3 -5 2 -4 4 -4 3 -5 3 -4 4 -3 4 -4 4 -3 4 -4 4 -3 4 -2 5 -3 5 -2 4 -3 5 -2 5 -1 6 -2 5 -1 5 -1 6 -1 5 0 6 0 0 0zm109 109l-34 0 0 0 0 -4 0 -4 0 -4 -1 -4 -1 -3 -1 -4 -1 -3 -2 -4 -1 -3 -2 -3 -2 -4 -2 -3 -2 -3 -2 -2 -2 -3 -3 -3 -2 -2 -3 -3 -3 -2 -3 -2 -3 -2 -3 -2 -4 -2 -3 -1 -3 -1 -4 -2 -3 -1 -4 -1 -4 0 -4 -1 -3 0 -4 0 0 -33 5 0 6 0 5 1 6 1 5 1 5 2 5 1 5 2 5 3 5 2 4 3 5 2 4 3 4 4 4 3 4 4 3 3 4 4 3 5 3 4 3 4 2 5 3 4 2 5 2 5 2 5 1 5 1 6 1 5 1 6 0 5 1 6 0 0zm-109 109l0 -34 0 0 4 0 3 0 4 -1 4 0 4 -1 3 -1 4 -1 3 -2 3 -1 4 -2 3 -2 3 -2 3 -2 3 -2 3 -2 2 -3 3 -3 2 -2 2 -3 2 -3 2 -3 2 -3 2 -4 1 -3 2 -3 1 -4 1 -3 1 -4 1 -4 0 -4 0 -3 0 -4 34 0 -1 5 0 6 -1 5 -1 6 -1 5 -1 5 -2 5 -2 5 -2 5 -3 5 -2 4 -3 4 -3 5 -3 4 -4 4 -3 4 -4 3 -4 4 -4 3 -4 3 -5 3 -4 2 -5 3 -5 2 -5 2 -5 2 -5 1 -5 1 -6 1 -5 1 -6 0 -5 1 0 0zm-109 -109l33 0 0 4 0 3 1 4 1 4 0 4 1 3 2 4 1 3 1 3 2 4 2 3 2 3 2 3 2 3 3 2 2 3 3 3 3 2 2 2 3 2 4 2 3 2 3 2 3 1 4 2 3 1 4 1 3 1 4 0 4 1 4 0 4 0 0 34 -6 -1 -5 0 -6 -1 -5 -1 -5 -1 -6 -1 -5 -2 -5 -2 -4 -2 -5 -3 -5 -2 -4 -3 -4 -3 -4 -3 -4 -4 -4 -3 -4 -4 -3 -4 -3 -4 -4 -5 -2 -4 -3 -4 -2 -5 -3 -5 -2 -5 -1 -5 -2 -5 -1 -5 -1 -6 -1 -5 0 -6 0 -5z"/>
   </g>
   <g>
    <path class="fil1" d="M13648 2271l0 636 -19 0 0 -636 19 0zm-10 -117l100 232 -6 -3 -7 -3 -6 -2 -6 -3 -6 -2 -6 -2 -7 -2 -6 -1 -6 -2 -6 -1 -7 -1 -6 -1 -6 -1 -6 0 -6 0 -7 -1 -6 1 -6 0 -6 0 -7 1 -6 1 -6 1 -6 1 -6 2 -7 1 -6 2 -6 2 -6 2 -7 3 -6 2 -6 3 -6 3 0 0 99 -232z"/>
   </g>
   <path class="fil1" d="M14036 2368l184 0 -3 12c-19,0 -33,2 -41,5 -8,3 -14,9 -20,17 -6,8 -12,23 -18,44l-48 163c-9,29 -14,48 -15,57 -3,12 -4,24 -4,35 0,23 10,43 30,60 20,16 47,24 80,24 22,0 42,-4 59,-12 16,-8 31,-19 43,-34 12,-14 23,-34 33,-58 10,-25 18,-50 26,-75l38 -134c9,-33 14,-55 14,-65 0,-7 -3,-13 -9,-18 -7,-5 -20,-8 -40,-9l3 -12 139 0 -4 12c-16,0 -28,1 -35,4 -7,3 -14,9 -19,17 -5,8 -11,24 -18,48l-49 169c-16,55 -30,94 -42,117 -13,22 -32,41 -58,56 -25,16 -57,23 -96,23 -44,0 -79,-12 -106,-37 -27,-25 -41,-53 -41,-85 0,-13 1,-26 4,-41 1,-9 6,-25 13,-48l44 -149c5,-21 9,-37 9,-47 0,-8 -4,-14 -10,-19 -6,-4 -21,-7 -46,-8l3 -12z"/>
   <path id="1" class="fil1" d="M14603 2893c-16,19 -31,33 -47,41 -16,9 -33,14 -51,14 -21,0 -38,-6 -50,-18 -12,-12 -18,-29 -18,-49 0,-23 7,-45 20,-67 12,-23 30,-41 51,-54 22,-14 43,-21 64,-21 17,0 29,3 37,10 8,7 12,15 12,25 0,9 -3,17 -8,24 -5,5 -10,8 -16,8 -4,0 -8,-2 -11,-5 -3,-3 -5,-7 -5,-11 0,-3 1,-6 2,-8 1,-2 3,-5 7,-9 3,-3 5,-5 6,-7 1,-1 1,-3 1,-5 0,-3 -1,-5 -4,-8 -5,-3 -11,-4 -19,-4 -15,0 -29,5 -44,15 -15,11 -27,25 -37,44 -13,24 -19,47 -19,70 0,15 4,27 13,36 9,9 21,13 36,13 12,0 23,-3 35,-8 11,-6 24,-17 38,-32l7 6z"/>
   <path class="fil1" d="M14345 4685l-103 360c-6,21 -9,37 -9,46 0,8 2,14 8,18 5,5 18,7 38,9l-3 12 -165 0 4 -12c18,0 29,-2 35,-4 9,-4 15,-9 20,-16 7,-10 14,-27 22,-53l74 -259c5,-15 7,-24 8,-27 0,-4 1,-8 1,-12 0,-8 -3,-13 -7,-18 -4,-4 -9,-6 -16,-6 -6,0 -15,1 -26,4l-5 -12 109 -30 15 0z"/>
   <path id="1" class="fil1" d="M14706 4693l184 0 -3 12c-19,1 -33,2 -41,6 -8,3 -15,8 -20,16 -6,8 -12,23 -18,45l-48 163c-9,28 -14,47 -16,57 -2,12 -3,24 -3,34 0,24 10,44 30,60 20,17 46,25 80,25 22,0 41,-4 58,-12 17,-8 32,-20 43,-34 12,-15 23,-34 33,-59 10,-25 19,-50 26,-75l39 -133c9,-34 14,-55 14,-65 0,-8 -3,-14 -10,-19 -6,-5 -20,-8 -40,-9l4 -12 138 0 -3 12c-17,0 -28,2 -35,5 -8,3 -14,9 -19,17 -6,8 -12,24 -18,47l-49 170c-16,55 -30,94 -43,116 -12,23 -31,42 -57,57 -26,15 -58,23 -96,23 -44,0 -80,-13 -107,-37 -27,-25 -40,-54 -40,-85 0,-13 1,-27 3,-41 2,-9 6,-26 13,-49l44 -148c6,-22 9,-38 9,-48 0,-8 -3,-14 -9,-18 -6,-5 -21,-8 -46,-9l3 -12z"/>
   <path id="2" class="fil1" d="M14509 4870c10,0 18,3 24,10 7,6 10,14 10,24 0,9 -3,17 -10,24 -6,6 -14,10 -24,10 -9,0 -17,-4 -24,-10 -6,-7 -10,-15 -10,-24 0,-10 4,-18 10,-24 7,-7 15,-10 24,-10z"/>
   <path id="3" class="fil1" d="M15273 5219c-16,18 -32,32 -48,41 -16,9 -32,13 -50,13 -22,0 -38,-6 -50,-18 -12,-12 -18,-28 -18,-48 0,-23 6,-46 19,-68 13,-22 30,-40 52,-54 22,-14 43,-21 64,-21 16,0 29,4 37,11 8,6 12,15 12,25 0,9 -3,17 -9,23 -4,6 -9,8 -15,8 -5,0 -9,-1 -12,-4 -3,-3 -4,-7 -4,-12 0,-2 0,-5 1,-7 1,-3 4,-6 7,-9 4,-3 6,-6 7,-7 0,-2 1,-3 1,-5 0,-3 -2,-6 -4,-8 -5,-3 -11,-5 -19,-5 -15,0 -30,6 -44,16 -15,10 -27,25 -38,44 -12,23 -18,46 -18,69 0,16 4,28 13,36 9,9 21,14 36,14 12,0 23,-3 35,-9 11,-6 24,-16 38,-31l7 6z"/>
   <g>
    <path class="fil2" d="M6541 3207l-9 33 -53 0c4,11 6,22 6,32 0,29 -12,54 -37,76 -24,22 -58,35 -100,37 -23,7 -39,15 -50,25 -5,3 -7,7 -7,10 0,5 2,9 6,12 4,4 14,7 29,11l63 15c35,8 57,17 68,28 11,12 17,25 17,39 0,18 -7,34 -20,49 -13,14 -32,26 -57,34 -25,8 -52,12 -83,12 -26,0 -50,-3 -72,-9 -22,-7 -38,-15 -47,-26 -10,-11 -14,-22 -14,-33 0,-9 3,-19 9,-29 6,-10 14,-18 23,-24 6,-4 22,-14 49,-29 -10,-8 -15,-17 -15,-26 0,-8 4,-17 13,-27 8,-10 26,-20 53,-32 -23,-4 -41,-14 -54,-30 -14,-15 -20,-32 -20,-50 0,-31 13,-58 40,-82 27,-24 62,-36 107,-36 16,0 30,2 40,5 10,3 20,8 30,15l85 0zm-109 50c0,-17 -5,-30 -15,-40 -10,-10 -23,-15 -39,-15 -25,0 -46,12 -62,36 -17,25 -25,50 -25,76 0,17 5,30 16,41 10,10 23,16 38,16 12,0 23,-3 34,-10 11,-6 21,-14 28,-25 8,-11 14,-25 18,-42 5,-17 7,-29 7,-37zm-156 221c-18,8 -31,18 -40,31 -9,12 -13,24 -13,36 0,14 6,26 19,35 19,14 46,20 82,20 30,0 57,-5 79,-15 21,-11 32,-24 32,-41 0,-8 -4,-16 -12,-23 -8,-8 -23,-14 -47,-19 -12,-2 -46,-10 -100,-24z"/>
    <circle class="fil0 str3" cx="6361" cy="3404" r="308"/>
   </g>
   <polyline class="fil0 str1" points="3900,1941 3322,1941 3322,844 1679,844 1679,1527 "/>
   <polyline class="fil0 str1" points="3900,4790 3337,4790 3337,5144 1679,5144 1679,4461 "/>
   <g>
    <ellipse class="fil0 str0" cx="1679" cy="2060" rx="529" ry="533"/>
    <polygon class="fil1" points="1579,1711 1647,1711 1647,1643 1704,1643 1704,1711 1772,1711 1772,1768 1704,1768 1704,1836 1647,1836 1647,1768 1579,1768 "/>
    <polygon class="fil1" points="1592,2402 1777,2402 1777,2441 1592,2441 "/>
    <ellipse class="fil0 str0" cx="1679" cy="2060" rx="529" ry="533"/>
    <polygon class="fil1" points="1579,1711 1647,1711 1647,1643 1704,1643 1704,1711 1772,1711 1772,1768 1704,1768 1704,1836 1647,1836 1647,1768 1579,1768 "/>
    <polygon class="fil1" points="1592,2402 1777,2402 1777,2441 1592,2441 "/>
   </g>
   <g>
    <ellipse class="fil0 str0" cx="1679" cy="3917" rx="529" ry="533"/>
    <polygon class="fil1" points="1579,3568 1647,3568 1647,3500 1704,3500 1704,3568 1772,3568 1772,3625 1704,3625 1704,3692 1647,3692 1647,3625 1579,3625 "/>
    <polygon class="fil1" points="1592,4259 1777,4259 1777,4298 1592,4298 "/>
    <ellipse class="fil0 str0" cx="1679" cy="3917" rx="529" ry="533"/>
    <polygon class="fil1" points="1579,3568 1647,3568 1647,3500 1704,3500 1704,3568 1772,3568 1772,3625 1704,3625 1704,3692 1647,3692 1647,3625 1579,3625 "/>
    <polygon class="fil1" points="1592,4259 1777,4259 1777,4298 1592,4298 "/>
   </g>
   <line class="fil0 str1" x1="1679" y1="3384" x2="1679" y2= "2592" />
   <g>
    <path class="fil1" d="M1680 3089l-3 0 -4 -1 -3 0 -3 -1 -3 0 -3 -1 -4 -1 -3 -2 -3 -1 -2 -1 -3 -2 -3 -2 -2 -2 -3 -2 -2 -2 -3 -2 -2 -2 -2 -3 -2 -2 -2 -3 -2 -2 -1 -3 -2 -3 -1 -3 -1 -3 -1 -3 -1 -3 -1 -3 0 -4 -1 -3 0 -3 0 -4 0 0 0 -3 0 -4 1 -3 0 -3 1 -3 1 -3 1 -4 1 -3 1 -2 2 -3 1 -3 2 -3 2 -2 2 -3 2 -2 2 -3 3 -2 2 -2 3 -2 2 -2 3 -1 3 -2 2 -2 3 -1 3 -1 4 -1 3 -1 3 -1 3 0 3 -1 4 0 3 0 0 0 4 0 3 0 3 1 4 0 3 1 3 1 3 1 3 1 3 1 3 2 3 2 2 1 3 2 2 2 3 2 2 2 2 3 2 2 2 3 2 2 2 3 2 3 1 3 1 2 2 3 1 4 0 3 1 3 1 3 0 3 0 4 1 3 0 0 -1 4 0 3 0 3 -1 4 -1 3 0 3 -1 3 -2 3 -1 3 -1 3 -2 3 -2 2 -2 3 -2 2 -2 3 -2 2 -2 2 -3 2 -2 2 -3 2 -2 2 -3 2 -3 1 -3 1 -3 2 -3 1 -3 1 -3 0 -4 1 -3 0 -3 1 -4 0 0 0zm-974 -76l974 0 0 19 -974 0 0 -19zm0 -77l17 0 0 173 -33 0 0 -173 16 0z"/>
   </g>
   <g>
    <path class="fil1" d="M3614 1397l-62 216c-4,13 -6,22 -6,28 0,4 2,8 5,10 4,3 11,5 23,6l-2 7 -99 0 3 -7c10,-1 17,-1 21,-3 5,-2 9,-5 12,-9 4,-6 8,-17 13,-32l45 -155c2,-10 4,-15 4,-17 0,-2 1,-5 1,-7 0,-4 -2,-8 -4,-11 -3,-2 -6,-3 -10,-3 -3,0 -9,0 -16,2l-2 -7 65 -18 9 0z"/>
    <circle class="fil0 str1" cx="3544" cy="1530" r="198"/>
   </g>
   <g>
    <path class="fil1" d="M3897 5257l-139 0 0 -8c36,-33 67,-64 92,-92 21,-23 34,-41 39,-53 5,-12 8,-25 8,-37 0,-12 -4,-22 -11,-29 -8,-7 -17,-11 -28,-11 -18,0 -33,10 -46,30l-7 -4c7,-19 15,-33 26,-43 15,-14 32,-20 52,-20 19,0 34,5 46,17 12,11 18,24 18,39 0,14 -2,27 -8,40 -6,13 -19,29 -37,48 -14,15 -43,41 -86,78l50 0c16,0 28,-2 34,-5 7,-4 13,-11 19,-22l9 0 -31 72z"/>
    <circle class="fil0 str1" cx="3853" cy="5123" r="198"/>
   </g>
   <path class="fil1" d="M43 4082l28 -290c2,-15 2,-25 2,-30 0,-8 -3,-14 -8,-20 -6,-5 -15,-7 -27,-7l-10 0 3 -10 138 0 -3 10c-15,0 -25,1 -31,4 -6,3 -10,8 -13,15 -2,4 -4,15 -6,33l-20 208 137 -186c14,-20 24,-34 28,-42 2,-5 3,-10 3,-14 0,-5 -2,-9 -6,-12 -4,-3 -11,-6 -22,-6l3 -10 105 0 -3 10c-8,0 -15,2 -20,5 -9,4 -19,11 -28,20 -9,9 -24,27 -44,55l-197 267 -9 0z"/>
   <path id="1" class="fil1" d="M914 4074l-174 0 0 -9c88,-78 147,-138 175,-182 13,-21 20,-42 20,-65 0,-18 -5,-32 -16,-43 -11,-12 -25,-17 -43,-17 -24,0 -44,11 -59,35l-9 -5c8,-22 21,-39 38,-51 17,-12 35,-19 54,-19 22,0 41,8 56,23 15,15 23,34 23,55 0,15 -3,29 -8,42 -9,20 -24,43 -46,68 -34,38 -78,82 -134,131l88 0c14,0 25,-3 34,-9 9,-6 16,-13 20,-23l10 0 -29 69z"/>
   <path id="2" class="fil1" d="M372 4176l-2 7 -97 0 3 -7c10,0 16,-1 19,-2 6,-2 9,-5 12,-9 4,-5 8,-15 12,-29l41 -145c4,-12 6,-21 6,-27 0,-3 -1,-5 -3,-8 -1,-2 -3,-3 -7,-4 -3,-2 -9,-2 -18,-2l2 -7 92 0 -2 7c-8,0 -13,1 -17,3 -5,2 -9,6 -12,11 -3,4 -7,15 -11,31l-41 144c-4,13 -6,20 -6,24 0,2 1,5 2,6 2,2 4,4 7,5 3,1 10,2 20,2z"/>
   <path id="3" class="fil1" d="M612 3930l-62 213c-3,11 -5,19 -5,22 0,1 1,2 1,3 1,1 2,1 3,1 1,0 2,0 3,-1 3,-3 7,-10 14,-21l6 3c-7,12 -14,21 -21,27 -7,7 -14,10 -20,10 -3,0 -6,-2 -9,-5 -2,-2 -3,-6 -3,-11 0,-7 2,-16 5,-27l7 -22c-19,26 -36,44 -52,54 -10,7 -20,11 -30,11 -10,0 -19,-4 -26,-12 -7,-8 -11,-19 -11,-32 0,-18 6,-37 18,-56 12,-20 28,-36 48,-49 16,-10 30,-15 43,-15 7,0 13,1 18,4 5,3 10,7 15,13l17 -58c2,-7 3,-12 4,-16 2,-5 2,-9 2,-12 0,-2 0,-4 -2,-6 -3,-2 -6,-3 -10,-3 -2,0 -7,0 -13,1l0 -6 60 -10zm-68 127c0,-8 -2,-14 -7,-18 -5,-5 -11,-7 -18,-7 -17,0 -34,12 -51,37 -18,24 -27,48 -27,70 0,9 2,16 7,20 4,5 10,7 16,7 14,0 31,-13 51,-40 20,-26 29,-49 29,-69z"/>
   <polygon id="4" class="fil1" points="733,3708 606,4081 586,4081 712,3708 "/>
   <path class="fil1" d="M15 2177l28 -291c1,-15 2,-24 2,-30 0,-7 -3,-14 -9,-19 -5,-5 -14,-8 -27,-8l-9 0 3 -9 137 0 -3 9c-15,1 -25,2 -30,5 -6,3 -10,8 -14,15 -1,4 -3,15 -5,33l-20 208 136 -186c15,-20 24,-34 28,-42 3,-6 4,-10 4,-14 0,-5 -2,-9 -6,-12 -4,-4 -11,-6 -22,-7l3 -9 105 0 -3 9c-8,1 -15,3 -20,5 -10,5 -19,12 -28,21 -10,9 -24,27 -45,55l-196 267 -9 0z"/>
   <path id="1" class="fil1" d="M886 2169l-174 0 0 -9c88,-78 147,-139 175,-183 13,-20 20,-42 20,-64 0,-18 -6,-32 -17,-44 -11,-11 -25,-16 -42,-16 -24,0 -44,11 -60,34l-9 -4c9,-22 22,-39 39,-52 16,-12 34,-18 54,-18 22,0 41,8 56,23 15,15 22,33 22,55 0,15 -2,29 -8,42 -8,20 -23,43 -45,67 -34,38 -79,82 -135,132l88 0c14,0 26,-3 35,-9 9,-6 16,-14 20,-23l10 0 -29 69z"/>
   <path id="2" class="fil1" d="M344 2271l-2 6 -97 0 2 -6c10,0 17,-1 20,-3 5,-2 9,-4 12,-8 3,-5 7,-15 12,-29l41 -145c4,-12 5,-21 5,-27 0,-3 0,-6 -2,-8 -1,-2 -4,-4 -7,-5 -3,-1 -9,-1 -18,-1l2 -7 91 0 -2 7c-7,-1 -13,0 -16,2 -6,3 -10,7 -13,11 -2,5 -6,16 -10,32l-42 144c-3,12 -5,20 -5,23 0,3 0,5 2,7 1,2 4,3 7,4 3,1 10,2 20,3z"/>
   <path id="3" class="fil1" d="M584 2025l-62 212c-3,12 -5,19 -5,23 0,1 0,2 1,3 1,1 1,1 2,1 1,0 2,0 4,-2 3,-2 7,-9 13,-21l6 4c-7,12 -14,20 -21,27 -7,6 -13,9 -19,9 -4,0 -6,-1 -9,-4 -2,-3 -4,-7 -4,-12 0,-6 2,-15 6,-27l6 -22c-18,27 -35,45 -51,55 -11,7 -21,10 -30,10 -10,0 -19,-4 -26,-11 -8,-8 -11,-19 -11,-33 0,-17 6,-36 18,-56 12,-20 28,-36 48,-48 16,-10 30,-15 43,-15 7,0 13,1 18,4 5,2 10,7 15,13l16 -59c2,-6 4,-12 5,-16 1,-4 2,-8 2,-11 0,-3 -1,-5 -3,-6 -2,-2 -5,-3 -9,-3 -3,0 -7,0 -13,1l0 -7 60 -9zm-68 127c0,-8 -2,-14 -7,-19 -5,-4 -11,-7 -19,-7 -16,0 -33,13 -51,37 -18,25 -26,48 -26,71 0,8 2,15 6,20 5,4 10,7 17,7 14,0 31,-13 51,-40 19,-26 29,-50 29,-69z"/>
   <polygon id="4" class="fil1" points="705,1803 578,2176 558,2176 684,1803 "/>
  </g>
 </g>
</svg>
